<?xml version="1.0" encoding="UTF-8" standalone="no"?>
<svg
   xmlns:dc="http://purl.org/dc/elements/1.1/"
   xmlns:cc="http://creativecommons.org/ns#"
   xmlns:rdf="http://www.w3.org/1999/02/22-rdf-syntax-ns#"
   xmlns:svg="http://www.w3.org/2000/svg"
   xmlns="http://www.w3.org/2000/svg"
   xmlns:sodipodi="http://sodipodi.sourceforge.net/DTD/sodipodi-0.dtd"
   xmlns:inkscape="http://www.inkscape.org/namespaces/inkscape"
   width="48"
   viewBox="0 0 48 48"
   height="48"
   id="svg2"
   version="1.1"
   inkscape:version="0.48.4 r9939"
   sodipodi:docname="scatter-fade.svg">
  <metadata
     id="metadata30">
    <rdf:RDF>
      <cc:Work
         rdf:about="">
        <dc:format>image/svg+xml</dc:format>
        <dc:type
           rdf:resource="http://purl.org/dc/dcmitype/StillImage" />
        <dc:title></dc:title>
      </cc:Work>
    </rdf:RDF>
  </metadata>
  <defs
     id="defs28" />
  <sodipodi:namedview
     pagecolor="#ffffff"
     bordercolor="#666666"
     borderopacity="1"
     objecttolerance="10"
     gridtolerance="10"
     guidetolerance="10"
     inkscape:pageopacity="0"
     inkscape:pageshadow="2"
     inkscape:window-width="1855"
     inkscape:window-height="1056"
     id="namedview26"
     showgrid="true"
     inkscape:zoom="13.906433"
     inkscape:cx="16.452783"
     inkscape:cy="22.010731"
     inkscape:window-x="65"
     inkscape:window-y="24"
     inkscape:window-maximized="1"
     inkscape:current-layer="svg2">
    <inkscape:grid
       type="xygrid"
       id="grid3007" />
  </sodipodi:namedview>
  <path
     style="fill:#dcdcdc"
     d="M 8 1 C 6.9714285 1 6 1.9714285 6 3 L 6 14 L 6 45 C 6 45.971429 7.0285714 47 8 47 L 29 47 L 29 45 L 25 45 L 25 41 L 29 41 L 29 37 L 25 37 L 25 33 L 29 33 L 29 29 L 25 29 L 25 25 L 29 25 L 29 21 L 25 21 L 25 17 L 29 17 L 29 13 L 25 13 L 25 9 L 29 9 L 29 5 L 25 5 L 25 1 L 19 1 L 8 1 z M 29 5 L 33 5 L 33 1 L 29 1 L 29 5 z M 33 5 L 33 9 L 37 9 L 37 5 L 33 5 z M 33 9 L 29 9 L 29 13 L 33 13 L 33 9 z M 29 17 L 29 21 L 33 21 L 33 17 L 29 17 z M 33 21 L 33 25 L 37 25 L 37 21 L 33 21 z M 33 25 L 29 25 L 29 29 L 33 29 L 33 25 z M 29 33 L 29 37 L 33 37 L 33 33 L 29 33 z M 33 37 L 33 41 L 37 41 L 37 37 L 33 37 z M 33 41 L 29 41 L 29 45 L 33 45 L 33 41 z M 33 45 L 33 47 L 37 47 L 37 45 L 33 45 z M 41 5 L 41 9 L 42 9 L 42 5 L 41 5 z M 37 13 L 37 17 L 41 17 L 41 13 L 37 13 z M 37 29 L 37 33 L 41 33 L 41 29 L 37 29 z M 41 37 L 41 41 L 42 41 L 42 37 L 41 37 z M 41 45 L 41 46.65625 C 41.567464 46.274021 42 45.628799 42 45 L 41 45 z "
     id="path4" />
  <path
     style="fill:#888888"
     d="M 14 16 L 14 17 L 25 17 L 29 17 L 29 16 L 14 16 z M 14 18 L 14 19 L 25 19 L 25 18 L 14 18 z M 29 18 L 29 19 L 33 19 L 33 18 L 29 18 z M 14 20 L 14 21 L 25 21 L 25 20 L 14 20 z M 29 20 L 29 21 L 33 21 L 33 20 L 29 20 z M 14 22 L 14 23 L 29 23 L 29 22 L 14 22 z M 33 22 L 33 23 L 34 23 L 34 22 L 33 22 z M 14 24 L 14 25 L 25 25 L 29 25 L 29 24 L 14 24 z M 33 24 L 33 25 L 34 25 L 34 24 L 33 24 z M 14 26 L 14 27 L 25 27 L 25 26 L 14 26 z M 29 26 L 29 27 L 33 27 L 33 26 L 29 26 z M 14 28 L 14 29 L 25 29 L 25 28 L 14 28 z M 29 28 L 29 29 L 33 29 L 33 28 L 29 28 z M 14 30 L 14 31 L 29 31 L 29 30 L 14 30 z M 14 32 L 14 33 L 25 33 L 29 33 L 29 32 L 14 32 z "
     id="path24" />
  <path
     style="opacity:0.2;color:#000000;fill:#bb8f4d;fill-opacity:1;fill-rule:nonzero;stroke:none;stroke-width:0.5;marker:none;visibility:visible;display:inline;overflow:visible;enable-background:accumulate"
     d="M 25 1 L 25 5 L 29 5 L 29 1 L 25 1 z M 29 5 L 29 9 L 33 9 L 33 5 L 29 5 z M 33 5 L 37 5 L 37 9 L 33 9 L 33 13 L 29 13 L 29 17 L 33 17 L 33 21 L 37 21 L 37 25 L 33 25 L 33 29 L 29 29 L 29 33 L 33 33 L 33 37 L 37 37 L 37 41 L 33 41 L 33 45 L 37 45 L 37 49 L 41 49 L 41 45 L 45 45 L 45 41 L 41 41 L 41 37 L 45 37 L 45 33 L 45 29 L 45 25 L 45 21 L 45 17 L 45 13 L 45 9 L 41 9 L 41 5 L 45 5 L 45 1 L 41 1 L 37 1 L 33 1 L 33 5 z M 33 45 L 29 45 L 29 49 L 33 49 L 33 45 z M 29 45 L 29 41 L 25 41 L 25 45 L 29 45 z M 29 41 L 33 41 L 33 37 L 29 37 L 29 41 z M 29 37 L 29 33 L 25 33 L 25 37 L 29 37 z M 29 29 L 29 25 L 25 25 L 25 29 L 29 29 z M 29 25 L 33 25 L 33 21 L 29 21 L 29 25 z M 29 21 L 29 17 L 25 17 L 25 21 L 29 21 z M 29 13 L 29 9 L 25 9 L 25 13 L 29 13 z M 37 13 L 41 13 L 41 17 L 37 17 L 37 13 z M 37 29 L 41 29 L 41 33 L 37 33 L 37 29 z "
     id="rect3009" />
</svg>
