<?xml version="1.0" encoding="UTF-8" standalone="no"?>
<svg
   xmlns:dc="http://purl.org/dc/elements/1.1/"
   xmlns:cc="http://creativecommons.org/ns#"
   xmlns:rdf="http://www.w3.org/1999/02/22-rdf-syntax-ns#"
   xmlns:svg="http://www.w3.org/2000/svg"
   xmlns="http://www.w3.org/2000/svg"
   xmlns:sodipodi="http://sodipodi.sourceforge.net/DTD/sodipodi-0.dtd"
   xmlns:inkscape="http://www.inkscape.org/namespaces/inkscape"
   width="48"
   viewBox="0 0 48 48"
   height="48"
   id="svg2"
   version="1.1"
   inkscape:version="0.48.4 r9939"
   sodipodi:docname="template.svg">
  <metadata
     id="metadata30">
    <rdf:RDF>
      <cc:Work
         rdf:about="">
        <dc:format>image/svg+xml</dc:format>
        <dc:type
           rdf:resource="http://purl.org/dc/dcmitype/StillImage" />
        <dc:title></dc:title>
      </cc:Work>
    </rdf:RDF>
  </metadata>
  <defs
     id="defs28" />
  <sodipodi:namedview
     pagecolor="#ffffff"
     bordercolor="#666666"
     borderopacity="1"
     objecttolerance="10"
     gridtolerance="10"
     guidetolerance="10"
     inkscape:pageopacity="0"
     inkscape:pageshadow="2"
     inkscape:window-width="1855"
     inkscape:window-height="1056"
     id="namedview26"
     showgrid="false"
     inkscape:zoom="13.906433"
     inkscape:cx="17.461134"
     inkscape:cy="22.127482"
     inkscape:window-x="65"
     inkscape:window-y="24"
     inkscape:window-maximized="1"
     inkscape:current-layer="svg2">
    <inkscape:grid
       type="xygrid"
       id="grid3007" />
  </sodipodi:namedview>
  <path
     style="fill:#dcdcdc"
     d="M 8,1 C 6.9714285,1 6,1.9714285 6,3 l 0,11 0,31 c 0,0.971429 1.0285714,2 2,2 l 21,0 0,-2 -4,0 0,-4 4,0 0,-4 -4,0 0,-4 4,0 0,-4 -4,0 0,-4 4,0 0,-4 -4,0 0,-4 4,0 0,-4 -4,0 0,-4 4,0 0,-4 -4,0 0,-4 -6,0 z m 21,4 4,0 0,-4 -4,0 z m 4,0 0,4 4,0 0,-4 z m 0,4 -4,0 0,4 4,0 z m -4,8 0,4 4,0 0,-4 z m 4,4 0,4 4,0 0,-4 z m 0,4 -4,0 0,4 4,0 z m -4,8 0,4 4,0 0,-4 z m 4,4 0,4 4,0 0,-4 z m 0,4 -4,0 0,4 4,0 z m 4,-28 0,4 4,0 0,-4 z m 0,16 0,4 4,0 0,-4 z"
     id="path4"
     inkscape:connector-curvature="0"
     sodipodi:nodetypes="sscsscccccccccccccccccccccccccsccccccccccccccccccccccccccccccccccccccccccccccccccccccc" />
  <path
     style="fill:#888888"
     d="m 14,16 0,1 11,0 4,0 0,-1 -15,0 z"
     id="path3032" />
  <path
     style="fill:#888888"
     d="m 14,20 0,1 11,0 0,-1 -11,0 z"
     id="path3026" />
  <path
     style="fill:#888888"
     d="m 29,20 0,1 4,0 0,-1 -4,0 z"
     id="path3024" />
  <path
     style="fill:#888888"
     d="m 14,24 0,1 11,0 4,0 0,-1 -15,0 z"
     id="path3018" />
  <path
     style="fill:#888888"
     d="m 33,24 0,1 1,0 0,-1 -1,0 z"
     id="path3016" />
  <path
     style="fill:#888888"
     d="m 14,28 0,1 11,0 0,-1 -11,0 z"
     id="path3010" />
  <path
     style="fill:#888888"
     d="m 29,28 0,1 4,0 0,-1 -4,0 z"
     id="path3008" />
  <path
     style="fill:#888888"
     d="m 14,32 0,1 11,0 4,0 0,-1 -15,0 z"
     id="path24" />
</svg>
