<?xml version="1.0" encoding="UTF-8" standalone="no"?>
<svg
   xmlns:dc="http://purl.org/dc/elements/1.1/"
   xmlns:cc="http://creativecommons.org/ns#"
   xmlns:rdf="http://www.w3.org/1999/02/22-rdf-syntax-ns#"
   xmlns:svg="http://www.w3.org/2000/svg"
   xmlns="http://www.w3.org/2000/svg"
   xmlns:sodipodi="http://sodipodi.sourceforge.net/DTD/sodipodi-0.dtd"
   xmlns:inkscape="http://www.inkscape.org/namespaces/inkscape"
   width="48"
   viewBox="0 0 48 48"
   height="48"
   id="svg2"
   version="1.1"
   inkscape:version="0.48.5 r10040"
   sodipodi:docname="text-x-h.svg">
  <metadata
     id="metadata18">
    <rdf:RDF>
      <cc:Work
         rdf:about="">
        <dc:format>image/svg+xml</dc:format>
        <dc:type
           rdf:resource="http://purl.org/dc/dcmitype/StillImage" />
        <dc:title></dc:title>
      </cc:Work>
    </rdf:RDF>
  </metadata>
  <defs
     id="defs16" />
  <sodipodi:namedview
     pagecolor="#ffffff"
     bordercolor="#666666"
     borderopacity="1"
     objecttolerance="10"
     gridtolerance="10"
     guidetolerance="10"
     inkscape:pageopacity="0"
     inkscape:pageshadow="2"
     inkscape:window-width="1920"
     inkscape:window-height="1035"
     id="namedview14"
     showgrid="false"
     inkscape:zoom="13.906433"
     inkscape:cx="9.9390968"
     inkscape:cy="17.778436"
     inkscape:window-x="0"
     inkscape:window-y="23"
     inkscape:window-maximized="1"
     inkscape:current-layer="g10"
     showguides="true"
     inkscape:guide-bbox="true">
    <sodipodi:guide
       orientation="0,1"
       position="6.3280065,8.5571905"
       id="guide3032" />
  </sodipodi:namedview>
  <path
     style="fill:#804d00"
     d="M 8,1 C 6.9714285,1 6,1.9714285 6,3 l 0,42 c 0,0.971429 1.0285714,2 2,2 l 32,0 c 0.971429,0 2,-1.028571 2,-2 L 42,14 29,1 z"
     id="path4" />
  <path
     style="fill-opacity:.196"
     d="M 29,12 29.0625,12.0625 29.21875,12 29,12 z m 2,2 11,11 0,-11 -11,0 z"
     id="path6" />
  <path
     style="fill:#fff;fill-opacity:.392"
     d="m 29,1 13,13 -11,0 c -0.971429,0 -2,-1.028571 -2,-2 L 29,1 z"
     id="path8" />
  <g
     style="fill:#dcdcdc;word-spacing:0;line-height:125%;letter-spacing:0"
     transform="matrix(.82331 0 0 .70668 4.8 9.09091)"
     id="g10">
    <text
       xml:space="preserve"
       style="font-size:36.70835495px;font-style:normal;font-variant:normal;font-weight:normal;font-stretch:normal;line-height:125%;letter-spacing:0px;word-spacing:0px;fill:#000000;fill-opacity:1;stroke:none;font-family:WayfindingSansRg-Bold;-inkscape-font-specification:WayfindingSansRg-Bold"
       x="-39.477249"
       y="36.963512"
       id="text3021"
       sodipodi:linespacing="125%"
       transform="scale(0.92646646,1.0793699)"><tspan
         sodipodi:role="line"
         id="tspan3023"
         x="-39.477249"
         y="36.963512"
         style="font-size:52.4405098px">c</tspan></text>
    <g
       transform="matrix(0.92646647,0,0,1.0793699,0.61855034,0.61053799)"
       style="font-size:36.70835495px;font-style:normal;font-variant:normal;font-weight:normal;font-stretch:normal;fill-opacity:1;stroke:none;font-family:WayfindingSansRg-Bold;-inkscape-font-specification:WayfindingSansRg-Bold"
       id="text3025">
      <path
         d="m 20.515699,5.1032841 0,13.0262219 c 1.76199,-1.400139 3.744239,-2.100219 5.946753,-2.100242 1.352949,2.3e-5 2.532859,0.228139 3.539734,0.684349 1.022571,0.440522 1.82491,1.054075 2.40702,1.840661 0.5978,0.786628 1.0383,1.667627 1.3215,2.643002 0.283157,0.97541 0.424746,2.045196 0.424769,3.209359 l 0,14.040946 c -2.3e-5,0.393304 -0.196675,0.589956 -0.589956,0.589956 l -4.483664,0 c -0.39332,0 -0.589972,-0.196652 -0.589955,-0.589956 l 0,-13.734169 c -1.7e-5,-1.242825 -0.291062,-2.241815 -0.873135,-2.996975 -0.582105,-0.770857 -1.408042,-1.156295 -2.477814,-1.156313 -1.321513,1.8e-5 -2.422762,0.401188 -3.303752,1.203509 -0.88101,0.802357 -1.321509,1.919338 -1.3215,3.350949 l 0,13.332999 c -9e-6,0.393304 -0.196661,0.589956 -0.589956,0.589956 l -4.483664,0 c -0.393307,0 -0.589959,-0.196652 -0.589955,-0.589956 l 0,-31.9284032 c -4e-6,-0.3460745 0.165184,-0.5663244 0.495562,-0.6607504 l 4.507262,-1.2507061 c 0.440492,-0.1258227 0.660742,0.039365 0.660751,0.4955628"
         style="font-size:47.19645691px"
         id="path3030"
         inkscape:connector-curvature="0" />
    </g>
  </g>
</svg>
