<?xml version="1.0" encoding="UTF-8" standalone="no"?>
<svg
   xmlns:dc="http://purl.org/dc/elements/1.1/"
   xmlns:cc="http://creativecommons.org/ns#"
   xmlns:rdf="http://www.w3.org/1999/02/22-rdf-syntax-ns#"
   xmlns:svg="http://www.w3.org/2000/svg"
   xmlns="http://www.w3.org/2000/svg"
   xmlns:sodipodi="http://sodipodi.sourceforge.net/DTD/sodipodi-0.dtd"
   xmlns:inkscape="http://www.inkscape.org/namespaces/inkscape"
   width="48"
   viewBox="0 0 48 48"
   height="48"
   id="svg2"
   version="1.1"
   inkscape:version="0.48.5 r10040"
   sodipodi:docname="text-x-c++.svg">
  <metadata
     id="metadata18">
    <rdf:RDF>
      <cc:Work
         rdf:about="">
        <dc:format>image/svg+xml</dc:format>
        <dc:type
           rdf:resource="http://purl.org/dc/dcmitype/StillImage" />
        <dc:title></dc:title>
      </cc:Work>
    </rdf:RDF>
  </metadata>
  <defs
     id="defs16" />
  <sodipodi:namedview
     pagecolor="#ffffff"
     bordercolor="#666666"
     borderopacity="1"
     objecttolerance="10"
     gridtolerance="10"
     guidetolerance="10"
     inkscape:pageopacity="0"
     inkscape:pageshadow="2"
     inkscape:window-width="1920"
     inkscape:window-height="1035"
     id="namedview14"
     showgrid="true"
     inkscape:zoom="13.906433"
     inkscape:cx="-3.3640989"
     inkscape:cy="17.778436"
     inkscape:window-x="0"
     inkscape:window-y="23"
     inkscape:window-maximized="1"
     inkscape:current-layer="svg2"
     showguides="true"
     inkscape:guide-bbox="true">
    <sodipodi:guide
       orientation="0,1"
       position="6.3280065,8.5571905"
       id="guide3032" />
    <inkscape:grid
       type="xygrid"
       id="grid3987" />
  </sodipodi:namedview>
  <path
     style="fill:#8a6e2e;fill-opacity:1"
     d="M 8,1 C 6.9714285,1 6,1.9714285 6,3 l 0,42 c 0,0.971429 1.0285714,2 2,2 l 32,0 c 0.971429,0 2,-1.028571 2,-2 L 42,14 29,1 z"
     id="path4" />
  <path
     style="fill-opacity:.196"
     d="M 29,12 29.0625,12.0625 29.21875,12 29,12 z m 2,2 11,11 0,-11 -11,0 z"
     id="path6" />
  <path
     style="fill:#fff;fill-opacity:.392"
     d="m 29,1 13,13 -11,0 c -0.971429,0 -2,-1.028571 -2,-2 L 29,1 z"
     id="path8" />
  <g
     style="line-height:125%;letter-spacing:0;word-spacing:0;fill:#dcdcdc"
     transform="matrix(0.82331,0,0,0.70668,-2.71,7.8081015)"
     id="g10">
    <g
       transform="scale(0.92646646,1.0793699)"
       style="font-size:36.70835495px;font-style:normal;font-variant:normal;font-weight:normal;font-stretch:normal;fill-opacity:1;stroke:none;font-family:WayfindingSansRg-Bold;-inkscape-font-specification:WayfindingSansRg-Bold"
       id="text3021">
      <path
         d="m 32.97197,33.787287 1.704317,2.962889 c 0.20974,0.384566 0.139819,0.681729 -0.209762,0.891488 -2.657005,1.800458 -5.401389,2.700686 -8.23316,2.700687 -0.576858,-10e-7 -1.144963,-0.03496 -1.704317,-0.104882 -0.559376,-0.06992 -1.214882,-0.218502 -1.966519,-0.445744 -0.734176,-0.209762 -1.424642,-0.489444 -2.0714,-0.839048 -0.646773,-0.367082 -1.293539,-0.874007 -1.940299,-1.520775 -0.646771,-0.646763 -1.197396,-1.39841 -1.651876,-2.254942 -0.454488,-0.856523 -0.830311,-1.914072 -1.127471,-3.172651 -0.279685,-1.276043 -0.419526,-2.683195 -0.419524,-4.221461 -2e-6,-2.394768 0.31464,-4.492387 0.943929,-6.292861 0.629282,-1.817917 1.48581,-3.25129 2.569585,-4.300122 1.101244,-1.048786 2.324855,-1.826653 3.670836,-2.333602 1.345962,-0.52438 2.796815,-0.786582 4.352562,-0.786608 1.503279,2.6e-5 2.857991,0.174827 4.064139,0.524405 1.206113,0.332148 2.150042,0.690491 2.831788,1.075031 0.279662,0.174825 0.367063,0.454508 0.262203,0.839048 l -1.075031,3.644615 c -0.139861,0.489464 -0.419543,0.594345 -0.839048,0.314643 -1.503312,-0.856508 -3.050306,-1.284772 -4.640985,-1.284792 -1.678109,2e-5 -3.067781,0.620566 -4.169021,1.861638 -1.101259,1.223629 -1.660624,3.295027 -1.678096,6.2142 -8e-6,1.485826 0.157313,2.761877 0.471965,3.828158 0.332114,1.066298 0.777858,1.879125 1.337233,2.438483 0.576834,0.559371 1.17116,0.961415 1.782977,1.206132 0.629273,0.227247 1.319739,0.340868 2.0714,0.340863 1.695561,5e-6 3.286255,-0.489439 4.772086,-1.468334 0.384545,-0.279676 0.681708,-0.218496 0.891489,0.183542"
         style="font-size:52.4405098px"
         id="path3035"
         inkscape:connector-curvature="0" />
    </g>
  </g>
  <g
     style="font-size:28px;font-style:normal;font-variant:normal;font-weight:normal;font-stretch:normal;line-height:125%;letter-spacing:0px;word-spacing:0px;fill:#dcdcdc;fill-opacity:1;stroke:none;font-family:WayfindingSansRg-Bold;-inkscape-font-specification:WayfindingSansRg-Bold"
     id="text3983">
    <path
       d="m 29.242,28.08 0,1.771 c -1.1e-5,0.183339 -0.09168,0.275006 -0.275,0.275 l -2.992,0 0,3.003 c -8e-6,0.183336 -0.09168,0.275003 -0.275,0.275 l -1.881,0 c -0.183339,3e-6 -0.275006,-0.09166 -0.275,-0.275 l 0,-3.003 -3.08,0 c -0.183336,6e-6 -0.275002,-0.09166 -0.275,-0.275 l 0,-1.771 c -2e-6,-0.183325 0.09166,-0.274992 0.275,-0.275 l 3.069,0 0,-3.047 c -6e-6,-0.183322 0.09166,-0.274988 0.275,-0.275 l 1.892,0 c 0.183325,1.2e-5 0.274992,0.09168 0.275,0.275 l 0,3.047 2.992,0 c 0.183322,8e-6 0.274989,0.09167 0.275,0.275"
       style="font-size:22px;fill:#dcdcdc"
       id="path3990" />
    <path
       d="m 39.261531,28.08 0,1.771 c -1.1e-5,0.183339 -0.09168,0.275006 -0.275,0.275 l -2.992,0 0,3.003 c -8e-6,0.183336 -0.09167,0.275003 -0.275,0.275 l -1.881,0 c -0.183339,3e-6 -0.275005,-0.09166 -0.275,-0.275 l 0,-3.003 -3.08,0 c -0.183335,6e-6 -0.275002,-0.09166 -0.275,-0.275 l 0,-1.771 c -2e-6,-0.183325 0.09166,-0.274992 0.275,-0.275 l 3.069,0 0,-3.047 c -5e-6,-0.183322 0.09166,-0.274988 0.275,-0.275 l 1.892,0 c 0.183326,1.2e-5 0.274992,0.09168 0.275,0.275 l 0,3.047 2.992,0 c 0.183322,8e-6 0.274989,0.09167 0.275,0.275"
       style="font-size:22px;fill:#dcdcdc"
       id="path3992" />
  </g>
</svg>
