<?xml version="1.0" encoding="UTF-8" standalone="no"?>
<!-- Created with Inkscape (http://www.inkscape.org/) -->

<svg
   xmlns:dc="http://purl.org/dc/elements/1.1/"
   xmlns:cc="http://creativecommons.org/ns#"
   xmlns:rdf="http://www.w3.org/1999/02/22-rdf-syntax-ns#"
   xmlns:svg="http://www.w3.org/2000/svg"
   xmlns="http://www.w3.org/2000/svg"
   xmlns:xlink="http://www.w3.org/1999/xlink"
   xmlns:sodipodi="http://sodipodi.sourceforge.net/DTD/sodipodi-0.dtd"
   xmlns:inkscape="http://www.inkscape.org/namespaces/inkscape"
   width="48"
   height="48"
   id="svg2"
   version="1.1"
   inkscape:version="0.48.4 r9939"
   sodipodi:docname="applications-internet.svg">
  <sodipodi:namedview
     id="base"
     pagecolor="#424242"
     bordercolor="#666666"
     borderopacity="1.0"
     inkscape:pageopacity="1"
     inkscape:pageshadow="2"
     inkscape:zoom="5.6568542"
     inkscape:cx="28.96469"
     inkscape:cy="0.80671053"
     inkscape:document-units="px"
     inkscape:current-layer="layer1"
     showgrid="false"
     showborder="false"
     borderlayer="false"
     showguides="true"
     inkscape:guide-bbox="true"
     inkscape:window-width="1855"
     inkscape:window-height="1056"
     inkscape:window-x="65"
     inkscape:window-y="24"
     inkscape:window-maximized="1">
    <inkscape:grid
       spacingy="1px"
       spacingx="1px"
       snapvisiblegridlinesonly="true"
       enabled="true"
       visible="true"
       empspacing="5"
       id="grid3004"
       type="xygrid" />
  </sodipodi:namedview>
  <defs
     id="defs4">
    <linearGradient
       id="linearGradient4035">
      <stop
         id="stop4037"
         offset="0"
         style="stop-color:#ffffff;stop-opacity:0.29452056;" />
      <stop
         id="stop4039"
         offset="1"
         style="stop-color:#ffffff;stop-opacity:0.11643836;" />
    </linearGradient>
    <linearGradient
       id="linearGradient4026">
      <stop
         id="stop4028"
         offset="0"
         style="stop-color:#19aeff;stop-opacity:1;" />
      <stop
         id="stop4030"
         offset="1"
         style="stop-color:#19aeff;stop-opacity:0.34756097;" />
    </linearGradient>
    <linearGradient
       id="linearGradient4452">
      <stop
         style="stop-color:#000000;stop-opacity:0.15853658;"
         offset="0"
         id="stop4454" />
      <stop
         style="stop-color:#000000;stop-opacity:0;"
         offset="1"
         id="stop4456" />
    </linearGradient>
    <linearGradient
       id="linearGradient4571">
      <stop
         id="stop4573"
         offset="0"
         style="stop-color:#ecf1f3;stop-opacity:1;" />
      <stop
         id="stop4575"
         offset="1"
         style="stop-color:#c5cacc;stop-opacity:1;" />
    </linearGradient>
    <linearGradient
       id="linearGradient4699"
       inkscape:collect="always">
      <stop
         id="stop4701"
         offset="0"
         style="stop-color:#19aeff;stop-opacity:1;" />
      <stop
         id="stop4703"
         offset="1"
         style="stop-color:#19aeff;stop-opacity:0;" />
    </linearGradient>
    <linearGradient
       id="linearGradient4691"
       inkscape:collect="always">
      <stop
         id="stop4693"
         offset="0"
         style="stop-color:#19aeff;stop-opacity:1;" />
      <stop
         id="stop4695"
         offset="1"
         style="stop-color:#19aeff;stop-opacity:0;" />
    </linearGradient>
    <linearGradient
       id="linearGradient4665">
      <stop
         id="stop4667"
         offset="0"
         style="stop-color:#95dbff;stop-opacity:1;" />
      <stop
         id="stop4669"
         offset="1"
         style="stop-color:#006ba2;stop-opacity:1;" />
    </linearGradient>
    <linearGradient
       id="linearGradient4634">
      <stop
         id="stop4636"
         offset="0"
         style="stop-color:#000000;stop-opacity:0.38414633;" />
      <stop
         id="stop4638"
         offset="1"
         style="stop-color:#000000;stop-opacity:0;" />
    </linearGradient>
    <linearGradient
       gradientUnits="userSpaceOnUse"
       y2="28"
       x2="25"
       y1="3"
       x1="3"
       id="linearGradient3821-9"
       xlink:href="#linearGradient3815-5"
       inkscape:collect="always" />
    <linearGradient
       id="linearGradient3815-5"
       inkscape:collect="always">
      <stop
         id="stop3817-1"
         offset="0"
         style="stop-color:#ffffff;stop-opacity:1;" />
      <stop
         id="stop3819-9"
         offset="1"
         style="stop-color:#ffffff;stop-opacity:0;" />
    </linearGradient>
    <linearGradient
       gradientUnits="userSpaceOnUse"
       y2="1047.3622"
       x2="42.5"
       y1="1049.8622"
       x1="45"
       id="linearGradient4697"
       xlink:href="#linearGradient4691"
       inkscape:collect="always" />
    <linearGradient
       gradientUnits="userSpaceOnUse"
       y2="3"
       x2="27.5"
       y1="0.5"
       x1="27.5"
       id="linearGradient4705"
       xlink:href="#linearGradient4699"
       inkscape:collect="always" />
    <linearGradient
       gradientUnits="userSpaceOnUse"
       y2="1047.3622"
       x2="42.5"
       y1="1049.8622"
       x1="45"
       id="linearGradient4697-1"
       xlink:href="#linearGradient4691-0"
       inkscape:collect="always" />
    <linearGradient
       id="linearGradient4691-0"
       inkscape:collect="always">
      <stop
         id="stop4693-5"
         offset="0"
         style="stop-color:#19aeff;stop-opacity:1;" />
      <stop
         id="stop4695-5"
         offset="1"
         style="stop-color:#19aeff;stop-opacity:0;" />
    </linearGradient>
    <linearGradient
       inkscape:collect="always"
       xlink:href="#linearGradient4699-1"
       id="linearGradient12409"
       gradientUnits="userSpaceOnUse"
       x1="45"
       y1="1049.8622"
       x2="42.5"
       y2="1047.3622"
       gradientTransform="translate(0,-1004.3622)" />
    <linearGradient
       gradientUnits="userSpaceOnUse"
       y2="3"
       x2="27.5"
       y1="0.5"
       x1="27.5"
       id="linearGradient4705-1"
       xlink:href="#linearGradient4699-1"
       inkscape:collect="always" />
    <linearGradient
       id="linearGradient4699-1">
      <stop
         id="stop4701-3"
         offset="0"
         style="stop-color:#ffffff;stop-opacity:1;" />
      <stop
         id="stop4703-4"
         offset="1"
         style="stop-color:#ffffff;stop-opacity:0;" />
    </linearGradient>
    <linearGradient
       gradientTransform="translate(0,5)"
       inkscape:collect="always"
       xlink:href="#linearGradient4699-1"
       id="linearGradient12443"
       gradientUnits="userSpaceOnUse"
       x1="27.5"
       y1="0.5"
       x2="27.5"
       y2="3" />
    <clipPath
       id="clipPath3856"
       clipPathUnits="userSpaceOnUse">
      <path
         inkscape:connector-curvature="0"
         id="path3858"
         d="m 27.84375,12.03125 -15.4375,15.4375 8.125,8.125 L 32.9375,48 46,48 c 1.108,0 2,-0.892 2,-2 l 0,-13.8125 -12.03125,-12.03125 -8.125,-8.125 z m 10.5625,2.4375 0,3.25 -1.625,1.625 L 48,30.5625 l 0,-6.5 -9.59375,-9.59375 z m -18.6875,21.9375 -8.9375,2.4375 -1.625,0 L 18.3125,48 l 13,0 -11.59375,-11.59375 z"
         style="opacity:0.3;fill:#000000;fill-opacity:1;stroke:none;display:inline" />
    </clipPath>
    <clipPath
       id="clipPath4492"
       clipPathUnits="userSpaceOnUse">
      <path
         id="path4494"
         d="m 28.28125,11 c -0.382978,-0.015 -0.701309,0.2118 -0.65625,0.625 l 0,0.9375 c 0.0028,0.107535 0.03337,0.206152 0.0625,0.28125 0.0077,0.0185 0.02221,0.04583 0.03125,0.0625 0.02417,0.04365 0.03048,0.09298 0.0625,0.125 l 0.09375,0.0625 1.6875,1.71875 c -0.09694,0.107303 -0.236384,0.234525 -0.40625,0.40625 l -2.28125,2.375 -6.4375,-6.4375 c -0.08266,-0.08266 -0.181553,-0.128868 -0.34375,-0.125 l -9.25,0 c -0.337919,-0.015 -0.585021,0.2799 -0.5625,0.625 l 0,1.03125 c -3.5e-4,0.08677 0.0032,0.174519 0.03125,0.25 0.02085,0.0575 0.05938,0.108056 0.09375,0.15625 0.01247,0.01766 0.0172,0.0463 0.03125,0.0625 0.0091,0.01035 0.02154,0.02154 0.03125,0.03125 l 0.15625,0.125 1.65625,1.65625 0,0.03125 0,21.53125 c -0.0083,0.0885 -0.01311,0.187768 0,0.25 0.0079,0.0311 0.01605,0.06838 0.03125,0.09375 0.01199,0.02047 0.01402,0.04527 0.03125,0.0625 L 23.40625,48 46,48 c 1.108,0 2,-0.892 2,-2 L 48,21.59375 37.65625,11.25 c -0.01519,-0.03494 -0.03721,-0.06556 -0.0625,-0.09375 -0.0095,-0.0095 -0.02057,-0.02275 -0.03125,-0.03125 -0.03337,-0.02893 -0.07961,-0.04528 -0.125,-0.0625 -0.0085,-0.0029 -0.02235,0.0024 -0.03125,0 -0.0577,-0.01753 -0.114282,-0.03502 -0.1875,-0.03125 L 28.28125,11 z"
         style="opacity:0.3;fill:#000000;fill-opacity:1;fill-rule:evenodd;stroke-width:0.25;display:inline"
         inkscape:connector-curvature="0" />
    </clipPath>
    <linearGradient
       gradientUnits="userSpaceOnUse"
       y2="1007.3218"
       x2="40.915409"
       y1="1049.3521"
       x1="40.915409"
       id="linearGradient6778"
       xlink:href="#linearGradient6772"
       inkscape:collect="always"
       gradientTransform="translate(7.7392578e-7,4.2609766e-5)" />
    <linearGradient
       id="linearGradient6772"
       inkscape:collect="always">
      <stop
         id="stop6774"
         offset="0"
         style="stop-color:#efe963;stop-opacity:1" />
      <stop
         id="stop6776"
         offset="1"
         style="stop-color:#fcf982;stop-opacity:1" />
    </linearGradient>
    <linearGradient
       y2="1007.3218"
       x2="40.915409"
       y1="1049.3521"
       x1="40.915409"
       gradientTransform="translate(-84.249997,-4.7499109)"
       gradientUnits="userSpaceOnUse"
       id="linearGradient3085"
       xlink:href="#linearGradient6772"
       inkscape:collect="always" />
    <clipPath
       clipPathUnits="userSpaceOnUse"
       id="clipPath4331">
      <path
         inkscape:connector-curvature="0"
         style="color:#000000;fill:#0e232e;fill-opacity:0.48709681;fill-rule:nonzero;stroke:none;stroke-width:0.5;marker:none;visibility:visible;display:inline"
         d="m 23.75,7.5625 c -3.451779,0 -6.25,2.7982 -6.25,6.25 l 0,4.6875 c 0,0.330092 0.136168,0.620764 0.34375,0.84375 0.01016,0.01092 0.02071,0.02071 0.03125,0.03125 L 20.96875,22.5 14.5,22.5 c -1.108,0 -2,0.892 -2,2 l 0,13.5 c 0,0.164967 0.02519,0.315591 0.0625,0.46875 0.0262,0.107537 0.05103,0.212656 0.09375,0.3125 0.03933,0.09214 0.104041,0.165705 0.15625,0.25 0.03201,0.05189 0.05727,0.107675 0.09375,0.15625 0.02233,0.02974 0.03857,0.06534 0.0625,0.09375 0.0417,0.04964 0.07872,0.110926 0.125,0.15625 0.04721,0.04594 0.104619,0.08384 0.15625,0.125 L 21.6875,48 46,48 c 1.108,0 2,-0.892 2,-2 L 48,29.25 28.4375,9.6875 C 28.344943,9.5817008 28.255631,9.4742937 28.15625,9.375 28.12092,9.339674 28.06741,9.315722 28.03125,9.28125 27.918981,9.1744958 27.807452,9.0669564 27.6875,8.96875 27.6578,8.944221 27.62391,8.930234 27.59375,8.90625 27.471947,8.81012 27.34765,8.7119582 27.21875,8.625 27.18719,8.603662 27.15696,8.58327 27.125,8.5625 26.990501,8.475245 26.860145,8.3893571 26.71875,8.3125 26.69063,8.297207 26.65338,8.296119 26.625,8.28125 26.494088,8.212761 26.35495,8.1529625 26.21875,8.09375 26.17651,8.075309 26.13647,8.048772 26.09375,8.03125 25.933803,7.965967 25.760065,7.8957447 25.59375,7.84375 25.57208,7.837004 25.553022,7.8190142 25.53125,7.8125 25.352378,7.7587466 25.185323,7.7251536 25,7.6875 24.9901,7.68547 24.97866,7.68948 24.96875,7.6875 24.77271,7.6487168 24.577293,7.6136138 24.375,7.59375 24.165984,7.5725195 23.964744,7.5625 23.75,7.5625 z"
         id="path4333" />
    </clipPath>
    <clipPath
       id="clipPath3071"
       clipPathUnits="userSpaceOnUse">
      <path
         inkscape:connector-curvature="0"
         style="opacity:0.25;color:#000000;fill:#000000;fill-opacity:1;fill-rule:nonzero;stroke:none;stroke-width:0.5;marker:none;visibility:visible;display:inline"
         d="m 24,6 c -3.313709,0 -6,2.6862912 -6,6 l 0,5 5,5 -9,0 c -1.108,0 -2,0.892 -2,2 l 0,14 c 0,0.421192 0.123088,0.803368 0.34375,1.125 0.07174,0.106367 0.159625,0.190875 0.25,0.28125 0.0056,0.0056 -0.0056,0.02572 0,0.03125 L 21.15625,48 46,48 c 1.108,0 2,-0.892 2,-2 L 48,27.5 28.25,7.75 C 27.164213,6.6642136 25.656854,6 24,6 z"
         id="path3073" />
    </clipPath>
    <linearGradient
       inkscape:collect="always"
       xlink:href="#linearGradient4452"
       id="linearGradient4458"
       x1="23"
       y1="1026.3622"
       x2="32.9375"
       y2="1026.3622"
       gradientUnits="userSpaceOnUse" />
    <linearGradient
       inkscape:collect="always"
       xlink:href="#linearGradient4452-1"
       id="linearGradient4458-2"
       x1="23"
       y1="1026.3622"
       x2="32.9375"
       y2="1026.3622"
       gradientUnits="userSpaceOnUse" />
    <linearGradient
       id="linearGradient4452-1">
      <stop
         style="stop-color:#000000;stop-opacity:0.15853658;"
         offset="0"
         id="stop4454-5" />
      <stop
         style="stop-color:#000000;stop-opacity:0;"
         offset="1"
         id="stop4456-0" />
    </linearGradient>
    <linearGradient
       gradientTransform="translate(0,-1004.3622)"
       y2="1026.3622"
       x2="32.9375"
       y1="1026.3622"
       x1="23"
       gradientUnits="userSpaceOnUse"
       id="linearGradient4475"
       xlink:href="#linearGradient4452-1"
       inkscape:collect="always" />
    <clipPath
       id="clipPath3071-4"
       clipPathUnits="userSpaceOnUse">
      <path
         inkscape:connector-curvature="0"
         style="opacity:0.25;color:#000000;fill:#000000;fill-opacity:1;fill-rule:nonzero;stroke:none;stroke-width:0.5;marker:none;visibility:visible;display:inline"
         d="m 24,6 c -3.313709,0 -6,2.6862912 -6,6 l 0,5 5,5 -9,0 c -1.108,0 -2,0.892 -2,2 l 0,14 c 0,0.421192 0.123088,0.803368 0.34375,1.125 0.07174,0.106367 0.159625,0.190875 0.25,0.28125 0.0056,0.0056 -0.0056,0.02572 0,0.03125 L 21.15625,48 46,48 c 1.108,0 2,-0.892 2,-2 L 48,27.5 28.25,7.75 C 27.164213,6.6642136 25.656854,6 24,6 z"
         id="path3073-0" />
    </clipPath>
    <linearGradient
       gradientUnits="userSpaceOnUse"
       y2="23"
       x2="36"
       y1="11.155961"
       x1="24.551146"
       id="linearGradient4579"
       xlink:href="#linearGradient4571-5"
       inkscape:collect="always" />
    <clipPath
       clipPathUnits="userSpaceOnUse"
       id="clipPath4331-5">
      <path
         inkscape:connector-curvature="0"
         style="color:#000000;fill:#0e232e;fill-opacity:0.48709681;fill-rule:nonzero;stroke:none;stroke-width:0.5;marker:none;visibility:visible;display:inline"
         d="m 23.75,7.5625 c -3.451779,0 -6.25,2.7982 -6.25,6.25 l 0,4.6875 c 0,0.330092 0.136168,0.620764 0.34375,0.84375 0.01016,0.01092 0.02071,0.02071 0.03125,0.03125 L 20.96875,22.5 14.5,22.5 c -1.108,0 -2,0.892 -2,2 l 0,13.5 c 0,0.164967 0.02519,0.315591 0.0625,0.46875 0.0262,0.107537 0.05103,0.212656 0.09375,0.3125 0.03933,0.09214 0.104041,0.165705 0.15625,0.25 0.03201,0.05189 0.05727,0.107675 0.09375,0.15625 0.02233,0.02974 0.03857,0.06534 0.0625,0.09375 0.0417,0.04964 0.07872,0.110926 0.125,0.15625 0.04721,0.04594 0.104619,0.08384 0.15625,0.125 L 21.6875,48 46,48 c 1.108,0 2,-0.892 2,-2 L 48,29.25 28.4375,9.6875 C 28.344943,9.5817008 28.255631,9.4742937 28.15625,9.375 28.12092,9.339674 28.06741,9.315722 28.03125,9.28125 27.918981,9.1744958 27.807452,9.0669564 27.6875,8.96875 27.6578,8.944221 27.62391,8.930234 27.59375,8.90625 27.471947,8.81012 27.34765,8.7119582 27.21875,8.625 27.18719,8.603662 27.15696,8.58327 27.125,8.5625 26.990501,8.475245 26.860145,8.3893571 26.71875,8.3125 26.69063,8.297207 26.65338,8.296119 26.625,8.28125 26.494088,8.212761 26.35495,8.1529625 26.21875,8.09375 26.17651,8.075309 26.13647,8.048772 26.09375,8.03125 25.933803,7.965967 25.760065,7.8957447 25.59375,7.84375 25.57208,7.837004 25.553022,7.8190142 25.53125,7.8125 25.352378,7.7587466 25.185323,7.7251536 25,7.6875 24.9901,7.68547 24.97866,7.68948 24.96875,7.6875 24.77271,7.6487168 24.577293,7.6136138 24.375,7.59375 24.165984,7.5725195 23.964744,7.5625 23.75,7.5625 z"
         id="path4333-6" />
    </clipPath>
    <linearGradient
       y2="1007.3218"
       x2="40.915409"
       y1="1049.3521"
       x1="40.915409"
       gradientTransform="translate(-84.249997,-4.7499109)"
       gradientUnits="userSpaceOnUse"
       id="linearGradient3085-8"
       xlink:href="#linearGradient6772-7"
       inkscape:collect="always" />
    <linearGradient
       id="linearGradient6772-7"
       inkscape:collect="always">
      <stop
         id="stop6774-0"
         offset="0"
         style="stop-color:#efe963;stop-opacity:1" />
      <stop
         id="stop6776-4"
         offset="1"
         style="stop-color:#fcf982;stop-opacity:1" />
    </linearGradient>
    <linearGradient
       gradientUnits="userSpaceOnUse"
       y2="1007.3218"
       x2="40.915409"
       y1="1049.3521"
       x1="40.915409"
       id="linearGradient6778-5"
       xlink:href="#linearGradient6772-7"
       inkscape:collect="always"
       gradientTransform="translate(7.7392578e-7,4.2609766e-5)" />
    <clipPath
       id="clipPath4492-1"
       clipPathUnits="userSpaceOnUse">
      <path
         id="path4494-9"
         d="m 28.28125,11 c -0.382978,-0.015 -0.701309,0.2118 -0.65625,0.625 l 0,0.9375 c 0.0028,0.107535 0.03337,0.206152 0.0625,0.28125 0.0077,0.0185 0.02221,0.04583 0.03125,0.0625 0.02417,0.04365 0.03048,0.09298 0.0625,0.125 l 0.09375,0.0625 1.6875,1.71875 c -0.09694,0.107303 -0.236384,0.234525 -0.40625,0.40625 l -2.28125,2.375 -6.4375,-6.4375 c -0.08266,-0.08266 -0.181553,-0.128868 -0.34375,-0.125 l -9.25,0 c -0.337919,-0.015 -0.585021,0.2799 -0.5625,0.625 l 0,1.03125 c -3.5e-4,0.08677 0.0032,0.174519 0.03125,0.25 0.02085,0.0575 0.05938,0.108056 0.09375,0.15625 0.01247,0.01766 0.0172,0.0463 0.03125,0.0625 0.0091,0.01035 0.02154,0.02154 0.03125,0.03125 l 0.15625,0.125 1.65625,1.65625 0,0.03125 0,21.53125 c -0.0083,0.0885 -0.01311,0.187768 0,0.25 0.0079,0.0311 0.01605,0.06838 0.03125,0.09375 0.01199,0.02047 0.01402,0.04527 0.03125,0.0625 L 23.40625,48 46,48 c 1.108,0 2,-0.892 2,-2 L 48,21.59375 37.65625,11.25 c -0.01519,-0.03494 -0.03721,-0.06556 -0.0625,-0.09375 -0.0095,-0.0095 -0.02057,-0.02275 -0.03125,-0.03125 -0.03337,-0.02893 -0.07961,-0.04528 -0.125,-0.0625 -0.0085,-0.0029 -0.02235,0.0024 -0.03125,0 -0.0577,-0.01753 -0.114282,-0.03502 -0.1875,-0.03125 L 28.28125,11 z"
         style="opacity:0.3;fill:#000000;fill-opacity:1;fill-rule:evenodd;stroke-width:0.25;display:inline"
         inkscape:connector-curvature="0" />
    </clipPath>
    <clipPath
       id="clipPath3856-6"
       clipPathUnits="userSpaceOnUse">
      <path
         inkscape:connector-curvature="0"
         id="path3858-1"
         d="m 27.84375,12.03125 -15.4375,15.4375 8.125,8.125 L 32.9375,48 46,48 c 1.108,0 2,-0.892 2,-2 l 0,-13.8125 -12.03125,-12.03125 -8.125,-8.125 z m 10.5625,2.4375 0,3.25 -1.625,1.625 L 48,30.5625 l 0,-6.5 -9.59375,-9.59375 z m -18.6875,21.9375 -8.9375,2.4375 -1.625,0 L 18.3125,48 l 13,0 -11.59375,-11.59375 z"
         style="opacity:0.3;fill:#000000;fill-opacity:1;stroke:none;display:inline" />
    </clipPath>
    <linearGradient
       id="linearGradient4699-1-1">
      <stop
         id="stop4701-3-3"
         offset="0"
         style="stop-color:#ffffff;stop-opacity:1;" />
      <stop
         id="stop4703-4-4"
         offset="1"
         style="stop-color:#ffffff;stop-opacity:0;" />
    </linearGradient>
    <linearGradient
       gradientUnits="userSpaceOnUse"
       y2="3"
       x2="27.5"
       y1="0.5"
       x1="27.5"
       id="linearGradient4705-1-5"
       xlink:href="#linearGradient4699-1-1"
       inkscape:collect="always" />
    <linearGradient
       inkscape:collect="always"
       xlink:href="#linearGradient4699-1-1"
       id="linearGradient12409-1"
       gradientUnits="userSpaceOnUse"
       x1="45"
       y1="1049.8622"
       x2="42.5"
       y2="1047.3622"
       gradientTransform="translate(0,-1004.3622)" />
    <linearGradient
       id="linearGradient4691-0-4"
       inkscape:collect="always">
      <stop
         id="stop4693-5-8"
         offset="0"
         style="stop-color:#19aeff;stop-opacity:1;" />
      <stop
         id="stop4695-5-3"
         offset="1"
         style="stop-color:#19aeff;stop-opacity:0;" />
    </linearGradient>
    <linearGradient
       gradientUnits="userSpaceOnUse"
       y2="1047.3622"
       x2="42.5"
       y1="1049.8622"
       x1="45"
       id="linearGradient4697-1-3"
       xlink:href="#linearGradient4691-0-4"
       inkscape:collect="always" />
    <linearGradient
       gradientUnits="userSpaceOnUse"
       y2="3"
       x2="27.5"
       y1="0.5"
       x1="27.5"
       id="linearGradient4705-6"
       xlink:href="#linearGradient4699-14"
       inkscape:collect="always" />
    <linearGradient
       gradientUnits="userSpaceOnUse"
       y2="1047.3622"
       x2="42.5"
       y1="1049.8622"
       x1="45"
       id="linearGradient4697-6"
       xlink:href="#linearGradient4691-7"
       inkscape:collect="always" />
    <linearGradient
       id="linearGradient3815-5-2"
       inkscape:collect="always">
      <stop
         id="stop3817-1-4"
         offset="0"
         style="stop-color:#ffffff;stop-opacity:1;" />
      <stop
         id="stop3819-9-0"
         offset="1"
         style="stop-color:#ffffff;stop-opacity:0;" />
    </linearGradient>
    <linearGradient
       gradientUnits="userSpaceOnUse"
       y2="28"
       x2="25"
       y1="3"
       x1="3"
       id="linearGradient3821-9-0"
       xlink:href="#linearGradient3815-5-2"
       inkscape:collect="always" />
    <linearGradient
       id="linearGradient4634-0">
      <stop
         id="stop4636-0"
         offset="0"
         style="stop-color:#000000;stop-opacity:0.38414633;" />
      <stop
         id="stop4638-6"
         offset="1"
         style="stop-color:#000000;stop-opacity:0;" />
    </linearGradient>
    <linearGradient
       id="linearGradient4665-0">
      <stop
         id="stop4667-4"
         offset="0"
         style="stop-color:#95dbff;stop-opacity:1;" />
      <stop
         id="stop4669-4"
         offset="1"
         style="stop-color:#006ba2;stop-opacity:1;" />
    </linearGradient>
    <linearGradient
       id="linearGradient4691-7"
       inkscape:collect="always">
      <stop
         id="stop4693-1"
         offset="0"
         style="stop-color:#19aeff;stop-opacity:1;" />
      <stop
         id="stop4695-3"
         offset="1"
         style="stop-color:#19aeff;stop-opacity:0;" />
    </linearGradient>
    <linearGradient
       id="linearGradient4699-14"
       inkscape:collect="always">
      <stop
         id="stop4701-4"
         offset="0"
         style="stop-color:#19aeff;stop-opacity:1;" />
      <stop
         id="stop4703-1"
         offset="1"
         style="stop-color:#19aeff;stop-opacity:0;" />
    </linearGradient>
    <linearGradient
       id="linearGradient4571-5">
      <stop
         id="stop4573-6"
         offset="0"
         style="stop-color:#ecf1f3;stop-opacity:1;" />
      <stop
         id="stop4575-5"
         offset="1"
         style="stop-color:#c5cacc;stop-opacity:1;" />
    </linearGradient>
    <linearGradient
       gradientTransform="translate(0,5)"
       inkscape:collect="always"
       xlink:href="#linearGradient4699-1-4"
       id="linearGradient12443-3"
       gradientUnits="userSpaceOnUse"
       x1="27.5"
       y1="0.5"
       x2="27.5"
       y2="3" />
    <linearGradient
       id="linearGradient4699-1-4">
      <stop
         id="stop4701-3-31"
         offset="0"
         style="stop-color:#ffffff;stop-opacity:1;" />
      <stop
         id="stop4703-4-2"
         offset="1"
         style="stop-color:#ffffff;stop-opacity:0;" />
    </linearGradient>
    <linearGradient
       gradientTransform="translate(0,5)"
       inkscape:collect="always"
       xlink:href="#linearGradient4699-1-4"
       id="linearGradient3677"
       gradientUnits="userSpaceOnUse"
       x1="27.5"
       y1="0.5"
       x2="27.5"
       y2="3" />
    <linearGradient
       gradientTransform="translate(0,1009.3622)"
       inkscape:collect="always"
       xlink:href="#linearGradient4699-1-4-0"
       id="linearGradient3677-1"
       gradientUnits="userSpaceOnUse"
       x1="27.5"
       y1="0.5"
       x2="27.5"
       y2="3" />
    <linearGradient
       id="linearGradient4699-1-4-0">
      <stop
         id="stop4701-3-31-7"
         offset="0"
         style="stop-color:#ffffff;stop-opacity:1;" />
      <stop
         id="stop4703-4-2-5"
         offset="1"
         style="stop-color:#ffffff;stop-opacity:0;" />
    </linearGradient>
    <linearGradient
       gradientTransform="translate(0,1009.3622)"
       inkscape:collect="always"
       xlink:href="#linearGradient4699-1-4-0-5"
       id="linearGradient3677-1-1"
       gradientUnits="userSpaceOnUse"
       x1="27.5"
       y1="0.5"
       x2="27.5"
       y2="3" />
    <linearGradient
       id="linearGradient4699-1-4-0-5">
      <stop
         id="stop4701-3-31-7-3"
         offset="0"
         style="stop-color:#ffffff;stop-opacity:1;" />
      <stop
         id="stop4703-4-2-5-9"
         offset="1"
         style="stop-color:#ffffff;stop-opacity:0;" />
    </linearGradient>
    <linearGradient
       gradientTransform="translate(0,5)"
       inkscape:collect="always"
       xlink:href="#linearGradient4699-1-4-0-5"
       id="linearGradient3803"
       gradientUnits="userSpaceOnUse"
       x1="27.5"
       y1="0.5"
       x2="27.5"
       y2="3" />
    <linearGradient
       gradientUnits="userSpaceOnUse"
       y2="3"
       x2="23"
       y1="0"
       x1="23"
       id="linearGradient3924"
       xlink:href="#linearGradient4699-1-4-0-5"
       inkscape:collect="always" />
    <filter
       height="1.28"
       y="-0.14"
       width="1.21"
       x="-0.105"
       id="filter4879"
       inkscape:collect="always">
      <feGaussianBlur
         id="feGaussianBlur4881"
         stdDeviation="0.875"
         inkscape:collect="always" />
    </filter>
    <clipPath
       id="clipPath4901"
       clipPathUnits="userSpaceOnUse">
      <path
         id="path4903"
         d="m 15.25,22 0,5 6.25,6.25 -7.5,0 0,2.5 L 26.25,48 46,48 c 1.108,0 2,-0.892 2,-2 L 48,37.25 32.75,22 15.25,22 z"
         style="opacity:0.25;color:#000000;fill:#000000;fill-opacity:1;fill-rule:nonzero;stroke:none;stroke-width:0.5;marker:none;visibility:visible;display:inline"
         inkscape:connector-curvature="0" />
    </clipPath>
    <radialGradient
       gradientUnits="userSpaceOnUse"
       r="15.5"
       fy="19.25"
       fx="22.125"
       cy="19.25"
       cx="22.125"
       id="radialGradient4041"
       xlink:href="#linearGradient4035"
       inkscape:collect="always" />
    <radialGradient
       r="15.5"
       fy="19.25"
       fx="22.125"
       cy="19.25"
       cx="22.125"
       gradientUnits="userSpaceOnUse"
       id="radialGradient4059"
       xlink:href="#linearGradient4035"
       inkscape:collect="always" />
    <radialGradient
       r="15.5"
       fy="19.25"
       fx="22.125"
       cy="19.25"
       cx="22.125"
       gradientUnits="userSpaceOnUse"
       id="radialGradient4059-6"
       xlink:href="#linearGradient4035-1"
       inkscape:collect="always" />
    <linearGradient
       id="linearGradient4035-1">
      <stop
         id="stop4037-6"
         offset="0"
         style="stop-color:#ffffff;stop-opacity:0.69178081;" />
      <stop
         id="stop4039-0"
         offset="1"
         style="stop-color:#ffffff;stop-opacity:0.34931508;" />
    </linearGradient>
    <radialGradient
       inkscape:collect="always"
       xlink:href="#linearGradient4035-1"
       id="radialGradient4090"
       gradientUnits="userSpaceOnUse"
       cx="22.125"
       cy="19.25"
       fx="22.125"
       fy="19.25"
       r="15.5" />
    <radialGradient
       r="15.5"
       fy="19.25"
       fx="22.125"
       cy="19.25"
       cx="22.125"
       gradientUnits="userSpaceOnUse"
       id="radialGradient4059-60"
       xlink:href="#linearGradient4035-4"
       inkscape:collect="always" />
    <linearGradient
       id="linearGradient4035-4">
      <stop
         id="stop4037-9"
         offset="0"
         style="stop-color:#ffffff;stop-opacity:0.69178081;" />
      <stop
         id="stop4039-6"
         offset="1"
         style="stop-color:#ffffff;stop-opacity:0.34931508;" />
    </linearGradient>
    <radialGradient
       r="15.5"
       fy="19.25"
       fx="22.125"
       cy="19.25"
       cx="22.125"
       gradientUnits="userSpaceOnUse"
       id="radialGradient4530"
       xlink:href="#linearGradient4035-4"
       inkscape:collect="always" />
    <filter
       inkscape:collect="always"
       id="filter4557"
       x="-0.24"
       width="1.48"
       y="-0.24"
       height="1.48">
      <feGaussianBlur
         inkscape:collect="always"
         stdDeviation="3.1"
         id="feGaussianBlur4559" />
    </filter>
    <clipPath
       clipPathUnits="userSpaceOnUse"
       id="clipPath4579">
      <path
         inkscape:connector-curvature="0"
         style="font-size:medium;font-style:normal;font-variant:normal;font-weight:normal;font-stretch:normal;text-indent:0;text-align:start;text-decoration:none;line-height:normal;letter-spacing:normal;word-spacing:normal;text-transform:none;direction:ltr;block-progression:tb;writing-mode:lr-tb;text-anchor:start;opacity:0.25;color:#000000;fill:#000000;fill-opacity:0.36283186;fill-rule:nonzero;stroke:none;stroke-width:1;marker:none;visibility:visible;display:inline;font-family:Sans;-inkscape-font-specification:Sans"
         d="m 23.84375,8.5625 c -0.534656,0 -1.072967,0.00954 -1.59375,0.0625 -7.81174,0.7943839 -13.90625,7.417665 -13.90625,15.4375 0,4.277245 1.725561,8.131811 4.53125,10.9375 l 13,13 L 46,48 c 1.108,0 2,-0.892 2,-2 L 48,26.5625 36.34375,14.90625 c -0.176346,-0.240505 -0.372905,-0.489055 -0.5625,-0.71875 -0.318998,-0.386466 -0.645632,-0.740024 -1,-1.09375 -0.349583,-0.34895 -0.712338,-0.685503 -1.09375,-1 -0.1538,-0.12695 -0.310062,-0.253948 -0.46875,-0.375 C 32.981786,11.537925 32.747399,11.354701 32.5,11.1875 32.086564,10.908086 31.659229,10.676766 31.21875,10.4375 30.782899,10.200748 30.33477,9.9761351 29.875,9.78125 29.409191,9.583805 28.925231,9.4018415 28.4375,9.25 27.965116,9.1029365 27.490504,8.9768415 27,8.875 26.99,8.87292 26.97875,8.87706 26.96875,8.875 26.86726,8.854209 26.75845,8.831294 26.65625,8.8125 26.290898,8.7452657 25.905052,8.6973392 25.53125,8.65625 25.48918,8.6516256 25.44842,8.6292864 25.40625,8.625 25.197854,8.603808 24.991993,8.606587 24.78125,8.59375 24.465263,8.5744972 24.164543,8.5625 23.84375,8.5625 z"
         id="path4581" />
    </clipPath>
    <radialGradient
       r="15.5"
       fy="19.25"
       fx="22.125"
       cy="19.25"
       cx="22.125"
       gradientUnits="userSpaceOnUse"
       id="radialGradient4059-0"
       xlink:href="#linearGradient4035-7"
       inkscape:collect="always" />
    <linearGradient
       id="linearGradient4035-7">
      <stop
         id="stop4037-5"
         offset="0"
         style="stop-color:#ffffff;stop-opacity:0.69178081;" />
      <stop
         id="stop4039-7"
         offset="1"
         style="stop-color:#ffffff;stop-opacity:0.34931508;" />
    </linearGradient>
    <radialGradient
       inkscape:collect="always"
       xlink:href="#linearGradient4035"
       id="radialGradient4617"
       gradientUnits="userSpaceOnUse"
       cx="22.125"
       cy="19.25"
       fx="22.125"
       fy="19.25"
       r="15.5" />
  </defs>
  <metadata
     id="metadata7">
    <rdf:RDF>
      <cc:Work
         rdf:about="">
        <dc:format>image/svg+xml</dc:format>
        <dc:type
           rdf:resource="http://purl.org/dc/dcmitype/StillImage" />
        <dc:title />
      </cc:Work>
    </rdf:RDF>
  </metadata>
  <g
     style="display:inline"
     transform="translate(0,-1004.3622)"
     id="layer1"
     inkscape:groupmode="layer"
     inkscape:label="base">
    <rect
       transform="translate(0,1004.3622)"
       ry="2"
       y="0"
       x="0"
       height="48"
       width="48"
       id="rect3996"
       style="opacity:1;color:#000000;fill:#0084c8;fill-opacity:1;fill-rule:nonzero;stroke:none;stroke-width:0.50000000000000000;marker:none;visibility:visible;display:inline;overflow:visible;enable-background:accumulate" />
    <g
       transform="translate(-40.190638,1005.5497)"
       id="layer2-8"
       inkscape:label="shadow"
       style="display:inline">
      <path
         style="fill:#000000"
         d=""
         id="path906-0"
         inkscape:connector-curvature="0" />
      <flowRoot
         xml:space="preserve"
         id="flowRoot61-1"
         style="font-size:40px;font-style:normal;font-weight:normal;line-height:125%;letter-spacing:0px;word-spacing:0px;fill:#000000;fill-opacity:1;stroke:none;font-family:sans-serif"
         transform="translate(-18.261517,-1007.8751)"><flowRegion
           id="flowRegion63-4"><rect
             id="rect65-0"
             width="57.6292"
             height="49.320694"
             x="-53.033005"
             y="6.6342559" /></flowRegion><flowPara
           id="flowPara67-9" /></flowRoot>    </g>
    <g
       transform="translate(-40.190638,1005.5497)"
       id="layer4-6"
       inkscape:label="hilight" />
    <path
       id="rect3996-1"
       transform="translate(0,1004.3622)"
       d="M 2 0 C 0.892 0 0 0.892 0 2 L 0 3 C 0 1.892 0.892 1 2 1 L 46 1 C 47.108 1 48 1.892 48 3 L 48 2 C 48 0.892 47.108 0 46 0 L 2 0 z "
       style="color:#000000;fill:#ffffff;fill-opacity:1;fill-rule:nonzero;stroke:none;stroke-width:0.50000000000000000;marker:none;visibility:visible;display:inline;overflow:visible;enable-background:accumulate;opacity:0.2" />
  </g>
  <g
     style="display:inline"
     inkscape:label="shadow"
     id="layer2"
     inkscape:groupmode="layer">
    <path
       style="font-size:medium;font-style:normal;font-variant:normal;font-weight:normal;font-stretch:normal;text-indent:0;text-align:start;text-decoration:none;line-height:normal;letter-spacing:normal;word-spacing:normal;text-transform:none;direction:ltr;block-progression:tb;writing-mode:lr-tb;text-anchor:start;opacity:0.25;color:#000000;fill:#000000;fill-opacity:1;fill-rule:nonzero;stroke:none;stroke-width:1;marker:none;visibility:visible;font-family:Sans;-inkscape-font-specification:Sans"
       d="M 23.84375 8.5625 C 23.309094 8.5625 22.770783 8.5720411 22.25 8.625 C 14.43826 9.4193839 8.34375 16.042665 8.34375 24.0625 C 8.34375 28.339745 10.069311 32.194311 12.875 35 L 25.875 48 L 46 48 C 47.108 48 48 47.108 48 46 L 48 26.5625 L 36.34375 14.90625 C 36.167404 14.665745 35.970845 14.417195 35.78125 14.1875 C 35.462252 13.801034 35.135618 13.447476 34.78125 13.09375 C 34.431667 12.7448 34.068912 12.408247 33.6875 12.09375 C 33.5337 11.9668 33.377438 11.839802 33.21875 11.71875 C 32.981786 11.537925 32.747399 11.354701 32.5 11.1875 C 32.086564 10.908086 31.659229 10.676766 31.21875 10.4375 C 30.782899 10.200748 30.33477 9.9761351 29.875 9.78125 C 29.409191 9.583805 28.925231 9.4018415 28.4375 9.25 C 27.965116 9.1029365 27.490504 8.9768415 27 8.875 C 26.990004 8.8729245 26.978753 8.8770562 26.96875 8.875 C 26.86726 8.8542086 26.75845 8.8312942 26.65625 8.8125 C 26.290898 8.7452657 25.905052 8.6973392 25.53125 8.65625 C 25.48918 8.6516256 25.44842 8.6292864 25.40625 8.625 C 25.197854 8.603808 24.991993 8.606587 24.78125 8.59375 C 24.465263 8.5744972 24.164543 8.5625 23.84375 8.5625 z "
       id="path4266" />
    <path
       style="font-size:medium;font-style:normal;font-variant:normal;font-weight:normal;font-stretch:normal;text-indent:0;text-align:start;text-decoration:none;line-height:normal;letter-spacing:normal;word-spacing:normal;text-transform:none;direction:ltr;block-progression:tb;writing-mode:lr-tb;text-anchor:start;baseline-shift:baseline;color:#000000;fill:#000000;fill-opacity:1;fill-rule:nonzero;stroke:none;stroke-width:1;marker:none;visibility:visible;display:inline;overflow:visible;enable-background:accumulate;font-family:Sans;-inkscape-font-specification:Sans;filter:url(#filter4557);opacity:0.6"
       d="m 23.837373,8.550163 c -8.554491,0 -15.5000003,6.945509 -15.5000003,15.5 0,8.554491 6.9455093,15.5 15.5000003,15.5 8.554491,0 15.5,-6.945509 15.5,-15.5 0,-8.554491 -6.945509,-15.5 -15.5,-15.5 z"
       id="path4555"
       clip-path="url(#clipPath4579)" />
  </g>
  <g
     style="display:inline"
     inkscape:label="icon"
     id="layer3"
     inkscape:groupmode="layer">
    <path
       transform="translate(-1.1626273,1.050163)"
       d="m 40,23 a 15,15 0 1 1 -30,0 15,15 0 1 1 30,0 z"
       sodipodi:ry="15"
       sodipodi:rx="15"
       sodipodi:cy="23"
       sodipodi:cx="25"
       id="path3158-7"
       style="fill:#0084c8;fill-opacity:1;stroke:#0084c8;stroke-linecap:round;display:inline"
       sodipodi:type="arc" />
    <path
       transform="translate(-1.1626273,1.0501634)"
       d="m 40,23 a 15,15 0 1 1 -30,0 15,15 0 1 1 30,0 z"
       sodipodi:ry="15"
       sodipodi:rx="15"
       sodipodi:cy="23"
       sodipodi:cx="25"
       id="path3158"
       style="fill:url(#radialGradient4617);fill-opacity:1;stroke:#ffffff;stroke-linecap:round"
       sodipodi:type="arc" />
    <path
       transform="translate(-1.2510156,1.9340469)"
       sodipodi:open="true"
       sodipodi:end="9.6805272"
       sodipodi:start="6.1419285"
       d="M 40.840637,23.866456 A 16,4.5 0 1 1 9.5204155,23.361633"
       sodipodi:ry="4.5"
       sodipodi:rx="16"
       sodipodi:cy="24.5"
       sodipodi:cx="25"
       id="path3164"
       style="fill:none;stroke:#ffffff;stroke-linecap:round"
       sodipodi:type="arc" />
    <path
       inkscape:transform-center-x="-1.1862425"
       transform="matrix(0.69184405,-0.72204696,0.72204696,0.69184405,-9.9655896,26.147016)"
       inkscape:transform-center-y="1.179285"
       sodipodi:open="true"
       sodipodi:end="9.6805272"
       sodipodi:start="6.1419285"
       d="M 40.840637,23.866456 A 16,4.5 0 1 1 9.5204155,23.361633"
       sodipodi:ry="4.5"
       sodipodi:rx="16"
       sodipodi:cy="24.5"
       sodipodi:cx="25"
       id="path3164-8"
       style="fill:none;stroke:#ffffff;stroke-linecap:round;display:inline"
       sodipodi:type="arc" />
    <path
       transform="matrix(0.13538912,0.99079251,-0.99079251,0.13538912,42.60253,-4.0882197)"
       sodipodi:open="true"
       sodipodi:end="9.6805272"
       sodipodi:start="6.1419285"
       d="M 40.840637,23.866456 A 16,4.5 0 1 1 9.5204155,23.361633"
       sodipodi:ry="4.5"
       sodipodi:rx="16"
       sodipodi:cy="24.5"
       sodipodi:cx="25"
       id="path3164-4"
       style="fill:none;stroke:#ffffff;stroke-linecap:round;display:inline"
       sodipodi:type="arc" />
    <path
       sodipodi:open="true"
       sodipodi:end="9.6805272"
       sodipodi:start="6.1419285"
       d="M 40.840637,23.866456 A 16,4.5 0 1 1 9.5204155,23.361633"
       sodipodi:ry="4.5"
       sodipodi:rx="16"
       sodipodi:cy="24.5"
       sodipodi:cx="25"
       id="path3164-7"
       style="fill:none;stroke:#ffffff;stroke-linecap:round;display:inline"
       sodipodi:type="arc"
       transform="matrix(-0.48491064,-0.87456371,0.87456371,-0.48491064,14.505695,57.815737)" />
    <path
       sodipodi:open="true"
       sodipodi:end="9.6805272"
       sodipodi:start="6.1419285"
       d="M 40.840637,23.866456 A 16,4.5 0 1 1 9.5204155,23.361633"
       sodipodi:ry="4.5"
       sodipodi:rx="16"
       sodipodi:cy="24.5"
       sodipodi:cx="25"
       id="path3164-2"
       style="fill:none;stroke:#ffffff;stroke-linecap:round;display:inline"
       sodipodi:type="arc"
       transform="matrix(-0.99424934,-0.10708992,0.10708992,-0.99424934,46.568259,47.099178)" />
    <path
       transform="translate(25.899873,1.8626634)"
       d="m -1,13.5 a 1.5,1.5 0 1 1 -3,0 1.5,1.5 0 1 1 3,0 z"
       sodipodi:ry="1.5"
       sodipodi:rx="1.5"
       sodipodi:cy="13.5"
       sodipodi:cx="-2.5"
       id="path3973"
       style="fill:#ffffff;stroke:none"
       sodipodi:type="arc" />
    <path
       transform="translate(19.337373,1.8626634)"
       d="m -1,13.5 a 1.5,1.5 0 1 1 -3,0 1.5,1.5 0 1 1 3,0 z"
       sodipodi:ry="1.5"
       sodipodi:rx="1.5"
       sodipodi:cy="13.5"
       sodipodi:cx="-2.5"
       id="path3973-3"
       style="fill:#ffffff;stroke:none;display:inline"
       sodipodi:type="arc" />
    <path
       transform="translate(20.899873,16.862663)"
       d="m -1,13.5 a 1.5,1.5 0 1 1 -3,0 1.5,1.5 0 1 1 3,0 z"
       sodipodi:ry="1.5"
       sodipodi:rx="1.5"
       sodipodi:cy="13.5"
       sodipodi:cx="-2.5"
       id="path3973-2"
       style="fill:#ffffff;stroke:none;display:inline"
       sodipodi:type="arc" />
    <path
       transform="translate(27.899873,17.862663)"
       d="m -1,13.5 a 1.5,1.5 0 1 1 -3,0 1.5,1.5 0 1 1 3,0 z"
       sodipodi:ry="1.5"
       sodipodi:rx="1.5"
       sodipodi:cy="13.5"
       sodipodi:cx="-2.5"
       id="path3973-8"
       style="fill:#ffffff;stroke:none;display:inline"
       sodipodi:type="arc" />
    <path
       transform="translate(32.524873,12.862663)"
       d="m -1,13.5 a 1.5,1.5 0 1 1 -3,0 1.5,1.5 0 1 1 3,0 z"
       sodipodi:ry="1.5"
       sodipodi:rx="1.5"
       sodipodi:cy="13.5"
       sodipodi:cx="-2.5"
       id="path3973-9"
       style="fill:#ffffff;stroke:none;display:inline"
       sodipodi:type="arc" />
    <path
       transform="translate(37.962373,4.6751634)"
       d="m -1,13.5 a 1.5,1.5 0 1 1 -3,0 1.5,1.5 0 1 1 3,0 z"
       sodipodi:ry="1.5"
       sodipodi:rx="1.5"
       sodipodi:cy="13.5"
       sodipodi:cx="-2.5"
       id="path3973-0"
       style="fill:#ffffff;stroke:none;display:inline"
       sodipodi:type="arc" />
    <path
       transform="translate(33.899873,16.862663)"
       d="m -1,13.5 a 1.5,1.5 0 1 1 -3,0 1.5,1.5 0 1 1 3,0 z"
       sodipodi:ry="1.5"
       sodipodi:rx="1.5"
       sodipodi:cy="13.5"
       sodipodi:cx="-2.5"
       id="path3973-37"
       style="fill:#ffffff;stroke:none;display:inline"
       sodipodi:type="arc" />
    <path
       transform="translate(22.337373,21.612663)"
       d="m -1,13.5 a 1.5,1.5 0 1 1 -3,0 1.5,1.5 0 1 1 3,0 z"
       sodipodi:ry="1.5"
       sodipodi:rx="1.5"
       sodipodi:cy="13.5"
       sodipodi:cx="-2.5"
       id="path3973-00"
       style="fill:#ffffff;stroke:none;display:inline"
       sodipodi:type="arc" />
  </g>
  <g
     inkscape:label="hilight"
     id="layer4"
     inkscape:groupmode="layer" />
</svg>
