<?xml version="1.0" encoding="UTF-8" standalone="no"?>
<!-- Created with Inkscape (http://www.inkscape.org/) -->

<svg
   xmlns:dc="http://purl.org/dc/elements/1.1/"
   xmlns:cc="http://creativecommons.org/ns#"
   xmlns:rdf="http://www.w3.org/1999/02/22-rdf-syntax-ns#"
   xmlns:svg="http://www.w3.org/2000/svg"
   xmlns="http://www.w3.org/2000/svg"
   xmlns:xlink="http://www.w3.org/1999/xlink"
   xmlns:sodipodi="http://sodipodi.sourceforge.net/DTD/sodipodi-0.dtd"
   xmlns:inkscape="http://www.inkscape.org/namespaces/inkscape"
   sodipodi:docname="audacity.svg"
   inkscape:version="0.48.4 r9939"
   version="1.1"
   id="svg2"
   height="48"
   width="48">
  <sodipodi:namedview
     id="base"
     pagecolor="#424242"
     bordercolor="#666666"
     borderopacity="1.0"
     inkscape:pageopacity="1"
     inkscape:pageshadow="2"
     inkscape:zoom="8"
     inkscape:cx="5.635114"
     inkscape:cy="16.774743"
     inkscape:document-units="px"
     inkscape:current-layer="layer1"
     showgrid="false"
     showborder="false"
     borderlayer="false"
     showguides="true"
     inkscape:guide-bbox="true"
     inkscape:window-width="1855"
     inkscape:window-height="1056"
     inkscape:window-x="65"
     inkscape:window-y="24"
     inkscape:window-maximized="1">
    <inkscape:grid
       type="xygrid"
       id="grid3004"
       empspacing="5"
       visible="true"
       enabled="true"
       snapvisiblegridlinesonly="true"
       spacingx="1px"
       spacingy="1px" />
  </sodipodi:namedview>
  <defs
     id="defs4">
    <linearGradient
       id="linearGradient3857">
      <stop
         id="stop3859"
         offset="0"
         style="stop-color:#ffffff;stop-opacity:1;" />
      <stop
         id="stop3861"
         offset="1"
         style="stop-color:#ffffff;stop-opacity:0;" />
    </linearGradient>
    <linearGradient
       inkscape:collect="always"
       id="linearGradient4699">
      <stop
         style="stop-color:#19aeff;stop-opacity:1;"
         offset="0"
         id="stop4701" />
      <stop
         style="stop-color:#19aeff;stop-opacity:0;"
         offset="1"
         id="stop4703" />
    </linearGradient>
    <linearGradient
       inkscape:collect="always"
       id="linearGradient4691">
      <stop
         style="stop-color:#19aeff;stop-opacity:1;"
         offset="0"
         id="stop4693" />
      <stop
         style="stop-color:#19aeff;stop-opacity:0;"
         offset="1"
         id="stop4695" />
    </linearGradient>
    <linearGradient
       id="linearGradient4665">
      <stop
         style="stop-color:#95dbff;stop-opacity:1;"
         offset="0"
         id="stop4667" />
      <stop
         style="stop-color:#006ba2;stop-opacity:1;"
         offset="1"
         id="stop4669" />
    </linearGradient>
    <linearGradient
       id="linearGradient4634">
      <stop
         style="stop-color:#000000;stop-opacity:0.38414633;"
         offset="0"
         id="stop4636" />
      <stop
         style="stop-color:#000000;stop-opacity:0;"
         offset="1"
         id="stop4638" />
    </linearGradient>
    <linearGradient
       inkscape:collect="always"
       xlink:href="#linearGradient3815-5"
       id="linearGradient3821-9"
       x1="3"
       y1="3"
       x2="25"
       y2="28"
       gradientUnits="userSpaceOnUse" />
    <linearGradient
       inkscape:collect="always"
       id="linearGradient3815-5">
      <stop
         style="stop-color:#ffffff;stop-opacity:1;"
         offset="0"
         id="stop3817-1" />
      <stop
         style="stop-color:#ffffff;stop-opacity:0;"
         offset="1"
         id="stop3819-9" />
    </linearGradient>
    <linearGradient
       inkscape:collect="always"
       xlink:href="#linearGradient4691"
       id="linearGradient4697"
       x1="45"
       y1="1049.8622"
       x2="42.5"
       y2="1047.3622"
       gradientUnits="userSpaceOnUse" />
    <linearGradient
       inkscape:collect="always"
       xlink:href="#linearGradient4699"
       id="linearGradient4705"
       x1="27.5"
       y1="0.5"
       x2="27.5"
       y2="3"
       gradientUnits="userSpaceOnUse" />
    <linearGradient
       inkscape:collect="always"
       xlink:href="#linearGradient4691-0"
       id="linearGradient4697-1"
       x1="45"
       y1="1049.8622"
       x2="42.5"
       y2="1047.3622"
       gradientUnits="userSpaceOnUse" />
    <linearGradient
       inkscape:collect="always"
       id="linearGradient4691-0">
      <stop
         style="stop-color:#19aeff;stop-opacity:1;"
         offset="0"
         id="stop4693-5" />
      <stop
         style="stop-color:#19aeff;stop-opacity:0;"
         offset="1"
         id="stop4695-5" />
    </linearGradient>
    <linearGradient
       gradientTransform="translate(0,-1004.3622)"
       y2="1047.3622"
       x2="42.5"
       y1="1049.8622"
       x1="45"
       gradientUnits="userSpaceOnUse"
       id="linearGradient12409"
       xlink:href="#linearGradient4699-1"
       inkscape:collect="always" />
    <linearGradient
       inkscape:collect="always"
       xlink:href="#linearGradient4699-1"
       id="linearGradient4705-1"
       x1="27.5"
       y1="0.5"
       x2="27.5"
       y2="3"
       gradientUnits="userSpaceOnUse" />
    <linearGradient
       id="linearGradient4699-1">
      <stop
         style="stop-color:#ffffff;stop-opacity:1;"
         offset="0"
         id="stop4701-3" />
      <stop
         style="stop-color:#ffffff;stop-opacity:0;"
         offset="1"
         id="stop4703-4" />
    </linearGradient>
    <linearGradient
       y2="3"
       x2="27.5"
       y1="0.5"
       x1="27.5"
       gradientUnits="userSpaceOnUse"
       id="linearGradient12443"
       xlink:href="#linearGradient4699-1"
       inkscape:collect="always" />
    <clipPath
       clipPathUnits="userSpaceOnUse"
       id="clipPath3856">
      <path
         style="opacity:0.3;fill:#000000;fill-opacity:1;stroke:none;display:inline"
         d="m 27.84375,12.03125 -15.4375,15.4375 8.125,8.125 L 32.9375,48 46,48 c 1.108,0 2,-0.892 2,-2 l 0,-13.8125 -12.03125,-12.03125 -8.125,-8.125 z m 10.5625,2.4375 0,3.25 -1.625,1.625 L 48,30.5625 l 0,-6.5 -9.59375,-9.59375 z m -18.6875,21.9375 -8.9375,2.4375 -1.625,0 L 18.3125,48 l 13,0 -11.59375,-11.59375 z"
         id="path3858"
         inkscape:connector-curvature="0" />
    </clipPath>
    <linearGradient
       gradientUnits="userSpaceOnUse"
       y2="1007.4396"
       x2="37.957897"
       y1="1049.3441"
       x1="37.957897"
       id="linearGradient6081"
       xlink:href="#linearGradient6075"
       inkscape:collect="always" />
    <linearGradient
       id="linearGradient6075"
       inkscape:collect="always">
      <stop
         id="stop6077"
         offset="0"
         style="stop-color:#ec7928;stop-opacity:1" />
      <stop
         id="stop6079"
         offset="1"
         style="stop-color:#f29e34;stop-opacity:1" />
    </linearGradient>
    <linearGradient
       inkscape:collect="always"
       xlink:href="#linearGradient6075"
       id="linearGradient3076"
       gradientUnits="userSpaceOnUse"
       x1="37.957897"
       y1="1049.3441"
       x2="37.957897"
       y2="1007.4396"
       gradientTransform="translate(-84.811186,-1034.9862)" />
    <clipPath
       clipPathUnits="userSpaceOnUse"
       id="clipPath4806">
      <path
         inkscape:connector-curvature="0"
         style="fill:#000000;fill-opacity:0.54700856;stroke:none;display:inline"
         d="m 24,11 c -3.56619,0 -6.777354,1.529366 -9.03125,3.96875 l -1.125,-1.125 c -0.935289,0.9236 -1.374293,2.58575 -1.34375,4.96875 -0.06417,0.09 -0.157181,0.2292 -0.25,0.375 -0.19543,0.321907 -0.523166,0.81369 -0.6875,1.125 -0.519483,0.7904 -0.479568,1.432569 -0.5,2.0625 L 11.5,22.8125 c -0.09127,0.378124 -0.171809,0.755494 -0.21875,1.15625 -0.281206,2.5678 0.401202,5.1191 2.125,7.625 0.404165,0.496111 0.833777,0.958777 1.25,1.375 L 35.875,54.1875 C 46.320357,64.632857 60.139558,50.47212 56.9375,39.53125 L 56.90625,39.5 C 56.587725,38.5823 56.168985,37.75805 55.625,37.03125 L 34.4375,15.8125 c 0.06282,0.248698 0.08276,0.435455 0.125,0.65625 l -1.875,-1.875 C 30.457803,12.364053 27.389047,11 24,11 z"
         id="path4808" />
    </clipPath>
    <clipPath
       clipPathUnits="userSpaceOnUse"
       id="clipPath4876">
      <path
         inkscape:connector-curvature="0"
         style="fill:#000000;fill-opacity:0.54700856;stroke:none;display:inline"
         d="m 24,11 c -3.56619,0 -6.777354,1.529366 -9.03125,3.96875 l -1.125,-1.125 c -0.935289,0.9236 -1.374293,2.58575 -1.34375,4.96875 -0.06417,0.09 -0.157181,0.2292 -0.25,0.375 -0.19543,0.321907 -0.523166,0.81369 -0.6875,1.125 -0.519483,0.7904 -0.479568,1.432569 -0.5,2.0625 L 11.5,22.8125 c -0.09127,0.378124 -0.171809,0.755494 -0.21875,1.15625 -0.281206,2.5678 0.401202,5.1191 2.125,7.625 0.404165,0.496111 0.833777,0.958777 1.25,1.375 L 29.6875,48 46,48 c 1.108,0 2,-0.892 2,-2 L 48,29.40625 34.4375,15.8125 c 0.06282,0.248698 0.08276,0.435455 0.125,0.65625 l -1.875,-1.875 C 30.457803,12.364053 27.389047,11 24,11 z"
         id="path4878" />
    </clipPath>
    <clipPath
       id="clipPath4748"
       clipPathUnits="userSpaceOnUse">
      <path
         sodipodi:nodetypes="ccsscccc"
         style="opacity:0.3;fill:#000000;fill-opacity:1;stroke:none;display:inline"
         d="M 14.65625,32.96875 29.6875,48 46,48 c 1.108,0 2,-0.892 2,-2 L 48,29.40625 34.4375,15.8125 c 0.06282,0.248698 0.08276,0.435455 0.125,0.65625 C 35.5,31 24.5,36.5 14.65625,32.96875 z"
         id="path4750"
         inkscape:connector-curvature="0" />
    </clipPath>
    <clipPath
       id="clipPath4778"
       clipPathUnits="userSpaceOnUse">
      <path
         sodipodi:nodetypes="scccccccccccccs"
         style="opacity:0.3;fill:#000000;fill-opacity:1;stroke:none;display:inline"
         d="m 24,11 c -3.56619,0 -6.777354,1.529366 -9.03125,3.96875 l -1.125,-1.125 c -0.935289,0.9236 -1.374293,2.58575 -1.34375,4.96875 -0.06417,0.09 -0.157181,0.2292 -0.25,0.375 -0.19543,0.321907 -0.523166,0.81369 -0.6875,1.125 -0.519483,0.7904 -0.479568,1.432569 -0.5,2.0625 L 11.5,22.8125 c -0.09127,0.378124 -0.171809,0.755494 -0.21875,1.15625 -0.281206,2.5678 0.401202,5.1191 2.125,7.625 0.404165,0.496111 1.010554,1.223942 1.426777,1.640165 9.822303,-10.8444 10.717754,-9.081571 14.405254,-10.206571 1.083477,-3.576055 3.364309,-7.602002 3.816292,-8.055243 C 32.984764,14.907294 32.887897,14.796713 32.6875,14.59375 30.457803,12.364053 27.389047,11 24,11 z"
         id="path4780"
         inkscape:connector-curvature="0" />
    </clipPath>
    <clipPath
       clipPathUnits="userSpaceOnUse"
       id="clipPath3071">
      <path
         id="path3073"
         d="m 24,6 c -3.313709,0 -6,2.6862912 -6,6 l 0,5 5,5 -9,0 c -1.108,0 -2,0.892 -2,2 l 0,14 c 0,0.421192 0.123088,0.803368 0.34375,1.125 0.07174,0.106367 0.159625,0.190875 0.25,0.28125 0.0056,0.0056 -0.0056,0.02572 0,0.03125 L 21.15625,48 46,48 c 1.108,0 2,-0.892 2,-2 L 48,27.5 28.25,7.75 C 27.164213,6.6642136 25.656854,6 24,6 z"
         style="opacity:0.25;color:#000000;fill:#000000;fill-opacity:1;fill-rule:nonzero;stroke:none;stroke-width:0.5;marker:none;visibility:visible;display:inline"
         inkscape:connector-curvature="0" />
    </clipPath>
    <linearGradient
       inkscape:collect="always"
       xlink:href="#linearGradient4571"
       id="linearGradient4579"
       x1="24.551146"
       y1="11.155961"
       x2="36"
       y2="23"
       gradientUnits="userSpaceOnUse" />
    <clipPath
       id="clipPath4331"
       clipPathUnits="userSpaceOnUse">
      <path
         id="path4333"
         d="m 23.75,7.5625 c -3.451779,0 -6.25,2.7982 -6.25,6.25 l 0,4.6875 c 0,0.330092 0.136168,0.620764 0.34375,0.84375 0.01016,0.01092 0.02071,0.02071 0.03125,0.03125 L 20.96875,22.5 14.5,22.5 c -1.108,0 -2,0.892 -2,2 l 0,13.5 c 0,0.164967 0.02519,0.315591 0.0625,0.46875 0.0262,0.107537 0.05103,0.212656 0.09375,0.3125 0.03933,0.09214 0.104041,0.165705 0.15625,0.25 0.03201,0.05189 0.05727,0.107675 0.09375,0.15625 0.02233,0.02974 0.03857,0.06534 0.0625,0.09375 0.0417,0.04964 0.07872,0.110926 0.125,0.15625 0.04721,0.04594 0.104619,0.08384 0.15625,0.125 L 21.6875,48 46,48 c 1.108,0 2,-0.892 2,-2 L 48,29.25 28.4375,9.6875 C 28.344943,9.5817008 28.255631,9.4742937 28.15625,9.375 28.12092,9.339674 28.06741,9.315722 28.03125,9.28125 27.918981,9.1744958 27.807452,9.0669564 27.6875,8.96875 27.6578,8.944221 27.62391,8.930234 27.59375,8.90625 27.471947,8.81012 27.34765,8.7119582 27.21875,8.625 27.18719,8.603662 27.15696,8.58327 27.125,8.5625 26.990501,8.475245 26.860145,8.3893571 26.71875,8.3125 26.69063,8.297207 26.65338,8.296119 26.625,8.28125 26.494088,8.212761 26.35495,8.1529625 26.21875,8.09375 26.17651,8.075309 26.13647,8.048772 26.09375,8.03125 25.933803,7.965967 25.760065,7.8957447 25.59375,7.84375 25.57208,7.837004 25.553022,7.8190142 25.53125,7.8125 25.352378,7.7587466 25.185323,7.7251536 25,7.6875 24.9901,7.68547 24.97866,7.68948 24.96875,7.6875 24.77271,7.6487168 24.577293,7.6136138 24.375,7.59375 24.165984,7.5725195 23.964744,7.5625 23.75,7.5625 z"
         style="color:#000000;fill:#0e232e;fill-opacity:0.48709681;fill-rule:nonzero;stroke:none;stroke-width:0.5;marker:none;visibility:visible;display:inline"
         inkscape:connector-curvature="0" />
    </clipPath>
    <linearGradient
       inkscape:collect="always"
       xlink:href="#linearGradient6772"
       id="linearGradient3085"
       gradientUnits="userSpaceOnUse"
       gradientTransform="translate(-84.249997,-4.7499109)"
       x1="40.915409"
       y1="1049.3521"
       x2="40.915409"
       y2="1007.3218" />
    <linearGradient
       inkscape:collect="always"
       id="linearGradient6772">
      <stop
         style="stop-color:#efe963;stop-opacity:1"
         offset="0"
         id="stop6774" />
      <stop
         style="stop-color:#fcf982;stop-opacity:1"
         offset="1"
         id="stop6776" />
    </linearGradient>
    <linearGradient
       gradientTransform="translate(7.7392578e-7,4.2609766e-5)"
       inkscape:collect="always"
       xlink:href="#linearGradient6772"
       id="linearGradient6778"
       x1="40.915409"
       y1="1049.3521"
       x2="40.915409"
       y2="1007.3218"
       gradientUnits="userSpaceOnUse" />
    <clipPath
       clipPathUnits="userSpaceOnUse"
       id="clipPath4492">
      <path
         inkscape:connector-curvature="0"
         style="opacity:0.3;fill:#000000;fill-opacity:1;fill-rule:evenodd;stroke-width:0.25;display:inline"
         d="m 28.28125,11 c -0.382978,-0.015 -0.701309,0.2118 -0.65625,0.625 l 0,0.9375 c 0.0028,0.107535 0.03337,0.206152 0.0625,0.28125 0.0077,0.0185 0.02221,0.04583 0.03125,0.0625 0.02417,0.04365 0.03048,0.09298 0.0625,0.125 l 0.09375,0.0625 1.6875,1.71875 c -0.09694,0.107303 -0.236384,0.234525 -0.40625,0.40625 l -2.28125,2.375 -6.4375,-6.4375 c -0.08266,-0.08266 -0.181553,-0.128868 -0.34375,-0.125 l -9.25,0 c -0.337919,-0.015 -0.585021,0.2799 -0.5625,0.625 l 0,1.03125 c -3.5e-4,0.08677 0.0032,0.174519 0.03125,0.25 0.02085,0.0575 0.05938,0.108056 0.09375,0.15625 0.01247,0.01766 0.0172,0.0463 0.03125,0.0625 0.0091,0.01035 0.02154,0.02154 0.03125,0.03125 l 0.15625,0.125 1.65625,1.65625 0,0.03125 0,21.53125 c -0.0083,0.0885 -0.01311,0.187768 0,0.25 0.0079,0.0311 0.01605,0.06838 0.03125,0.09375 0.01199,0.02047 0.01402,0.04527 0.03125,0.0625 L 23.40625,48 46,48 c 1.108,0 2,-0.892 2,-2 L 48,21.59375 37.65625,11.25 c -0.01519,-0.03494 -0.03721,-0.06556 -0.0625,-0.09375 -0.0095,-0.0095 -0.02057,-0.02275 -0.03125,-0.03125 -0.03337,-0.02893 -0.07961,-0.04528 -0.125,-0.0625 -0.0085,-0.0029 -0.02235,0.0024 -0.03125,0 -0.0577,-0.01753 -0.114282,-0.03502 -0.1875,-0.03125 L 28.28125,11 z"
         id="path4494" />
    </clipPath>
    <clipPath
       clipPathUnits="userSpaceOnUse"
       id="clipPath3856-7">
      <path
         style="opacity:0.3;fill:#000000;fill-opacity:1;stroke:none;display:inline"
         d="m 27.84375,12.03125 -15.4375,15.4375 8.125,8.125 L 32.9375,48 46,48 c 1.108,0 2,-0.892 2,-2 l 0,-13.8125 -12.03125,-12.03125 -8.125,-8.125 z m 10.5625,2.4375 0,3.25 -1.625,1.625 L 48,30.5625 l 0,-6.5 -9.59375,-9.59375 z m -18.6875,21.9375 -8.9375,2.4375 -1.625,0 L 18.3125,48 l 13,0 -11.59375,-11.59375 z"
         id="path3858-0"
         inkscape:connector-curvature="0" />
    </clipPath>
    <linearGradient
       id="linearGradient4699-1-4">
      <stop
         style="stop-color:#ffffff;stop-opacity:1;"
         offset="0"
         id="stop4701-3-9" />
      <stop
         style="stop-color:#ffffff;stop-opacity:0;"
         offset="1"
         id="stop4703-4-7" />
    </linearGradient>
    <linearGradient
       inkscape:collect="always"
       xlink:href="#linearGradient4699-1-4"
       id="linearGradient4705-1-1"
       x1="27.5"
       y1="0.5"
       x2="27.5"
       y2="3"
       gradientUnits="userSpaceOnUse" />
    <linearGradient
       gradientTransform="translate(0,-1004.3622)"
       y2="1047.3622"
       x2="42.5"
       y1="1049.8622"
       x1="45"
       gradientUnits="userSpaceOnUse"
       id="linearGradient12409-6"
       xlink:href="#linearGradient4699-1-4"
       inkscape:collect="always" />
    <linearGradient
       inkscape:collect="always"
       id="linearGradient4691-0-0">
      <stop
         style="stop-color:#19aeff;stop-opacity:1;"
         offset="0"
         id="stop4693-5-6" />
      <stop
         style="stop-color:#19aeff;stop-opacity:0;"
         offset="1"
         id="stop4695-5-6" />
    </linearGradient>
    <linearGradient
       inkscape:collect="always"
       xlink:href="#linearGradient4691-0-0"
       id="linearGradient4697-1-6"
       x1="45"
       y1="1049.8622"
       x2="42.5"
       y2="1047.3622"
       gradientUnits="userSpaceOnUse" />
    <linearGradient
       inkscape:collect="always"
       xlink:href="#linearGradient4699-2"
       id="linearGradient4705-2"
       x1="27.5"
       y1="0.5"
       x2="27.5"
       y2="3"
       gradientUnits="userSpaceOnUse" />
    <linearGradient
       inkscape:collect="always"
       xlink:href="#linearGradient4691-9"
       id="linearGradient4697-4"
       x1="45"
       y1="1049.8622"
       x2="42.5"
       y2="1047.3622"
       gradientUnits="userSpaceOnUse" />
    <linearGradient
       inkscape:collect="always"
       id="linearGradient3815-5-5">
      <stop
         style="stop-color:#ffffff;stop-opacity:1;"
         offset="0"
         id="stop3817-1-7" />
      <stop
         style="stop-color:#ffffff;stop-opacity:0;"
         offset="1"
         id="stop3819-9-8" />
    </linearGradient>
    <linearGradient
       inkscape:collect="always"
       xlink:href="#linearGradient3815-5-5"
       id="linearGradient3821-9-8"
       x1="3"
       y1="3"
       x2="25"
       y2="28"
       gradientUnits="userSpaceOnUse" />
    <linearGradient
       id="linearGradient4634-2">
      <stop
         style="stop-color:#000000;stop-opacity:0.38414633;"
         offset="0"
         id="stop4636-5" />
      <stop
         style="stop-color:#000000;stop-opacity:0;"
         offset="1"
         id="stop4638-8" />
    </linearGradient>
    <linearGradient
       id="linearGradient4665-0">
      <stop
         style="stop-color:#95dbff;stop-opacity:1;"
         offset="0"
         id="stop4667-8" />
      <stop
         style="stop-color:#006ba2;stop-opacity:1;"
         offset="1"
         id="stop4669-0" />
    </linearGradient>
    <linearGradient
       inkscape:collect="always"
       id="linearGradient4691-9">
      <stop
         style="stop-color:#19aeff;stop-opacity:1;"
         offset="0"
         id="stop4693-0" />
      <stop
         style="stop-color:#19aeff;stop-opacity:0;"
         offset="1"
         id="stop4695-8" />
    </linearGradient>
    <linearGradient
       inkscape:collect="always"
       id="linearGradient4699-2">
      <stop
         style="stop-color:#19aeff;stop-opacity:1;"
         offset="0"
         id="stop4701-5" />
      <stop
         style="stop-color:#19aeff;stop-opacity:0;"
         offset="1"
         id="stop4703-5" />
    </linearGradient>
    <linearGradient
       id="linearGradient4571">
      <stop
         style="stop-color:#ecf1f3;stop-opacity:1;"
         offset="0"
         id="stop4573" />
      <stop
         style="stop-color:#c5cacc;stop-opacity:1;"
         offset="1"
         id="stop4575" />
    </linearGradient>
    <inkscape:perspective
       id="perspective3126"
       inkscape:persp3d-origin="24 : 16 : 1"
       inkscape:vp_z="-8.3917658 : 62.537319 : 1"
       inkscape:vp_y="0 : 1000 : 0"
       inkscape:vp_x="-8.3317911 : 27.005203 : 1"
       sodipodi:type="inkscape:persp3d" />
    <linearGradient
       gradientUnits="userSpaceOnUse"
       y2="24.757135"
       x2="26.71875"
       y1="24.757135"
       x1="13.484865"
       id="linearGradient3863"
       xlink:href="#linearGradient3857"
       inkscape:collect="always" />
    <linearGradient
       id="linearGradient3857-4">
      <stop
         id="stop3859-5"
         offset="0"
         style="stop-color:#ffffff;stop-opacity:1;" />
      <stop
         id="stop3861-2"
         offset="1"
         style="stop-color:#ffffff;stop-opacity:0;" />
    </linearGradient>
    <clipPath
       id="clipPath4694"
       clipPathUnits="userSpaceOnUse">
      <path
         id="path4696"
         d="m 24,10 c -7.72813,0 -14,6.271857 -14,14 0,3.86407 1.559768,7.372269 4.09375,9.90625 L 28.1875,48 l 17.75,0 c 1.108,0 2,-0.892 2,-2 l 0,-17.875 L 33.90625,14.09375 C 31.372266,11.559766 27.864067,10 24,10 z"
         style="font-size:medium;font-style:normal;font-variant:normal;font-weight:normal;font-stretch:normal;text-indent:0;text-align:start;text-decoration:none;line-height:normal;letter-spacing:normal;word-spacing:normal;text-transform:none;direction:ltr;block-progression:tb;writing-mode:lr-tb;text-anchor:start;opacity:0.25;color:#000000;fill:#000000;fill-opacity:1;fill-rule:nonzero;stroke:none;stroke-width:0.6511628;marker:none;visibility:visible;display:inline;font-family:Sans;-inkscape-font-specification:Sans"
         inkscape:connector-curvature="0" />
    </clipPath>
    <radialGradient
       cx="148.004"
       cy="160"
       gradientTransform="matrix(0.1831,0,0,0.1831,-3.10029,-5.29688)"
       id="radial0"
       r="128"
       gradientUnits="userSpaceOnUse">
      <stop
         offset="0"
         style="stop-color:#cfe7ff"
         id="stop3127" />
      <stop
         offset="1"
         style="stop-color:#3f709f"
         id="stop3129" />
    </radialGradient>
    <clipPath
       id="clipPath5073"
       clipPathUnits="userSpaceOnUse">
      <path
         id="path5075"
         d="m 24.125,9.5625 c -7.54781,-3e-7 -13.71347,5.928341 -14.125,13.375 -1.1613891,0.389327 -2,1.454232 -2,2.75 L 8,33.5 c 0,0.81197 0.3436174,1.531118 0.875,2.0625 L 21.3125,48 l 24.625,0 c 1.108,0 2,-0.892 2,-2 l 0,-18.4375 -13.125,-13.125 C 34.592805,14.184237 34.36187,13.955773 34.125,13.71875 34.052882,13.646632 33.979901,13.570555 33.90625,13.5 33.837459,13.43412 33.757605,13.376994 33.6875,13.3125 33.434059,13.079247 33.176209,12.839456 32.90625,12.625 c -0.285604,-0.22682 -0.57211,-0.451676 -0.875,-0.65625 -0.06159,-0.04164 -0.125223,-0.08431 -0.1875,-0.125 -0.318732,-0.207956 -0.664185,-0.380284 -1,-0.5625 -0.0536,-0.02914 -0.102235,-0.06528 -0.15625,-0.09375 -0.343032,-0.180437 -0.703574,-0.347691 -1.0625,-0.5 -0.05061,-0.02143 -0.10534,-0.04165 -0.15625,-0.0625 -0.382229,-0.156841 -0.758108,-0.314095 -1.15625,-0.4375 -0.164332,-0.05117 -0.333156,-0.07973 -0.5,-0.125 -1.174648,-0.3169527 -2.412713,-0.4999999 -3.6875,-0.5 z"
         style="font-size:medium;font-style:normal;font-variant:normal;font-weight:normal;font-stretch:normal;text-indent:0;text-align:start;text-decoration:none;line-height:normal;letter-spacing:normal;word-spacing:normal;text-transform:none;direction:ltr;block-progression:tb;writing-mode:lr-tb;text-anchor:start;opacity:0.25;color:#000000;fill:#000000;fill-opacity:1;stroke:none;stroke-width:2;marker:none;visibility:visible;display:inline;font-family:Sans;-inkscape-font-specification:Sans"
         inkscape:connector-curvature="0" />
    </clipPath>
    <radialGradient
       cx="148.004"
       cy="160"
       gradientTransform="matrix(0.1831,0,0,0.1831,-3.10029,-5.29688)"
       id="radial0-0"
       r="128"
       gradientUnits="userSpaceOnUse">
      <stop
         offset="0"
         style="stop-color:#cfe7ff"
         id="stop5082" />
      <stop
         offset="1"
         style="stop-color:#3f709f"
         id="stop5084" />
    </radialGradient>
    <filter
       inkscape:collect="always"
       id="filter5630"
       x="-0.11854438"
       width="1.2370888"
       y="-0.12149181"
       height="1.2429836">
      <feGaussianBlur
         inkscape:collect="always"
         stdDeviation="1.6172488"
         id="feGaussianBlur5632" />
    </filter>
    <clipPath
       clipPathUnits="userSpaceOnUse"
       id="clipPath5652">
      <path
         inkscape:connector-curvature="0"
         style="opacity:0.25;color:#000000;fill:#000000;fill-opacity:1;stroke:none;stroke-width:2;marker:none;visibility:visible;display:inline"
         d="m 24.40625,6.3125004 c -0.418049,-0.012517 -0.827828,0.00611 -1.25,0.03125 -0.947264,0.056405 -1.892122,0.2137621 -2.84375,0.46875 C 12.69948,8.8524029 8.1475978,16.69948 10.1875,24.3125 l 1.0625,1.0625 -0.65625,0.1875 c -2.1404913,0.573543 -3.386043,2.765758 -2.8125,4.90625 l 1.28125,4.8125 c 0.051099,0.190704 0.1432406,0.386427 0.21875,0.5625 0.047873,0.110779 0.068207,0.239231 0.125,0.34375 0.1014349,0.186531 0.2165027,0.33492 0.34375,0.5 0.00865,0.01138 0.022488,0.01998 0.03125,0.03125 0.097272,0.123435 0.2023207,0.264821 0.3125,0.375 l 0.21875,0.1875 0.15625,0.15625 L 21.03125,48 45.9375,48 c 1.108,0 2,-0.892 2,-2 l 0,-21.65625 -13.5,-13.5 -0.28125,-0.3125 c -0.0054,-0.0055 -0.02579,0.0055 -0.03125,0 C 33.770715,10.177043 33.387623,9.8454439 33,9.5312504 32.662536,9.2577143 32.328777,8.9916311 31.96875,8.7500004 c -0.0555,-0.037248 -0.10025,-0.088531 -0.15625,-0.125 -0.05811,-0.0378 -0.128861,-0.056793 -0.1875,-0.09375 -0.309464,-0.1952144 -0.61418,-0.3913136 -0.9375,-0.5625 -0.0618,-0.032721 -0.125227,-0.061926 -0.1875,-0.09375 -0.08303,-0.042488 -0.166148,-0.08412 -0.25,-0.125 -0.360753,-0.1756388 -0.75031,-0.3235859 -1.125,-0.46875 -0.472478,-0.1830496 -0.946449,-0.3362509 -1.4375,-0.46875 -0.290468,-0.07849 -0.579142,-0.1585994 -0.875,-0.21875 -0.0627,-0.012763 -0.124579,-0.019324 -0.1875,-0.03125 -0.31984,-0.060579 -0.643856,-0.1176562 -0.96875,-0.15625 -0.01019,-0.00121 -0.02106,0.00119 -0.03125,0 -0.02062,-0.00238 -0.04186,0.00229 -0.0625,0 -0.360896,-0.040486 -0.728099,-0.081176 -1.09375,-0.09375 -0.02091,-6.851e-4 -0.04157,5.924e-4 -0.0625,0 z"
         id="path5654" />
    </clipPath>
    <filter
       inkscape:collect="always"
       id="filter3892">
      <feGaussianBlur
         inkscape:collect="always"
         stdDeviation="0.95906562"
         id="feGaussianBlur3894" />
    </filter>
    <filter
       inkscape:collect="always"
       id="filter3900">
      <feGaussianBlur
         inkscape:collect="always"
         stdDeviation="0.43619657"
         id="feGaussianBlur3902" />
    </filter>
  </defs>
  <metadata
     id="metadata7">
    <rdf:RDF>
      <cc:Work
         rdf:about="">
        <dc:format>image/svg+xml</dc:format>
        <dc:type
           rdf:resource="http://purl.org/dc/dcmitype/StillImage" />
        <dc:title />
      </cc:Work>
    </rdf:RDF>
  </metadata>
  <g
     inkscape:label="base"
     inkscape:groupmode="layer"
     id="layer1"
     transform="translate(0,-1004.3622)"
     style="display:inline">
    <rect
       style="color:#000000;fill:#b50000;fill-opacity:1;fill-rule:nonzero;stroke:none;stroke-width:0.50000000000000000;marker:none;visibility:visible;display:inline;overflow:visible;enable-background:accumulate"
       id="rect3006-5"
       width="48"
       height="48"
       x="-0.0625"
       y="1004.3622"
       ry="2" />
    <path
       style="font-size:medium;font-style:normal;font-variant:normal;font-weight:normal;font-stretch:normal;text-indent:0;text-align:start;text-decoration:none;line-height:normal;letter-spacing:normal;word-spacing:normal;text-transform:none;direction:ltr;block-progression:tb;writing-mode:lr-tb;text-anchor:start;baseline-shift:baseline;color:#000000;fill:#dc0000;fill-opacity:1;stroke:none;stroke-width:1px;marker:none;visibility:visible;display:inline;overflow:visible;enable-background:accumulate;font-family:Sans;-inkscape-font-specification:Sans;filter:url(#filter3892)"
       d="M 23.03125 0.09375 A 21.940545 21.940545 0 0 0 5.5 8.6875 A 21.940545 21.940545 0 0 0 5.46875 8.71875 A 21.940545 21.940545 0 0 0 -0.0625 14.15625 L -0.0625 46 C -0.0625 46.218137 -0.032738982 46.428765 0.03125 46.625 A 21.940545 21.940545 0 0 0 0.4375 47.28125 C 0.80377922 47.710768 1.3261897 48 1.9375 48 L 44.90625 48 A 21.940545 21.940545 0 0 0 47.9375 45.40625 L 47.9375 14.75 A 21.940545 21.940545 0 0 0 47.78125 14.59375 L 45.875 12.6875 L 45.5 12.28125 A 21.940545 21.940545 0 0 0 45.25 12.0625 A 21.940545 21.940545 0 0 0 39.5 7.71875 A 21.940545 21.940545 0 0 0 23.03125 0.09375 z "
       id="path3942"
       transform="translate(0,1004.3622)" />
    <path
       sodipodi:type="inkscape:offset"
       inkscape:radius="0"
       inkscape:original="M 22.90625 1026.4062 L 19.40625 1037.4062 L 18.09375 1032.125 L 17.84375 1031.2188 L 17.3125 1032 L 15.625 1034.5312 L 17.46875 1033.2812 L 18.9375 1039.0938 L 19.28125 1040.5625 L 19.75 1039.125 L 22.40625 1030.5938 L 23.40625 1046.0625 L 25.4375 1034.6875 L 26.53125 1037.4688 L 26.875 1038.3438 L 27.3125 1037.5 L 29.5625 1032.9375 L 32.28125 1034.4688 L 29.75 1031.9375 L 29.375 1031.5312 L 29.09375 1032.0625 L 27 1036.2812 L 25.65625 1032.9375 L 25.0625 1031.5 L 24.84375 1033.0312 L 23.8125 1040.375 L 22.90625 1026.4062 z "
       style="font-size:medium;font-style:normal;font-variant:normal;font-weight:normal;font-stretch:normal;text-indent:0;text-align:start;text-decoration:none;line-height:normal;letter-spacing:normal;word-spacing:normal;text-transform:none;direction:ltr;block-progression:tb;writing-mode:lr-tb;text-anchor:start;baseline-shift:baseline;color:#000000;fill:#dc0000;fill-opacity:1;stroke:none;stroke-width:1px;marker:none;visibility:visible;display:inline;overflow:visible;enable-background:accumulate;font-family:Sans;-inkscape-font-specification:Sans"
       id="path3929"
       d="m 22.90625,1026.4062 -3.5,11 -1.3125,-5.2812 -0.25,-0.9062 -0.53125,0.7812 -1.6875,2.5312 1.84375,-1.25 1.46875,5.8126 0.34375,1.4687 0.46875,-1.4375 2.65625,-8.5312 1,15.4687 2.03125,-11.375 1.09375,2.7813 0.34375,0.875 0.4375,-0.8438 2.25,-4.5625 2.71875,1.5313 -2.53125,-2.5313 -0.375,-0.4063 -0.28125,0.5313 -2.09375,4.2187 -1.34375,-3.3437 -0.59375,-1.4375 -0.21875,1.5312 -1.03125,7.3438 -0.90625,-13.9688 z" />
    <path
       style="font-size:medium;font-style:normal;font-variant:normal;font-weight:normal;font-stretch:normal;text-indent:0;text-align:start;text-decoration:none;line-height:normal;letter-spacing:normal;word-spacing:normal;text-transform:none;direction:ltr;block-progression:tb;writing-mode:lr-tb;text-anchor:start;baseline-shift:baseline;color:#000000;fill:#dc2300;fill-opacity:1;stroke:none;stroke-width:1px;marker:none;visibility:visible;display:inline;overflow:visible;enable-background:accumulate;font-family:Sans;-inkscape-font-specification:Sans;filter:url(#filter3900)"
       d="M 23 7.15625 A 14.881264 14.881264 0 0 0 10.4375 13.9375 A 14.881264 14.881264 0 0 0 10.40625 13.96875 A 14.881264 14.881264 0 0 0 5.53125 18.46875 L 5 19.25 A 14.881264 14.881264 0 0 0 4.9375 19.375 L 3.25 21.90625 A 14.881264 14.881264 0 0 0 5.125 40.65625 A 14.881264 14.881264 0 0 0 9.75 47.59375 A 14.881264 14.881264 0 0 0 9.9375 48 L 36.875 48 A 14.881264 14.881264 0 0 0 38.0625 44.3125 L 38.15625 43.75 A 14.881264 14.881264 0 0 0 42.8125 19.5625 L 40.6875 17.46875 L 40.3125 17.0625 A 14.881264 14.881264 0 0 0 40.28125 17.03125 A 14.881264 14.881264 0 0 0 35 13.40625 A 14.881264 14.881264 0 0 0 23 7.15625 z "
       transform="translate(0,1004.3622)"
       id="path3951" />
    <path
       sodipodi:type="inkscape:offset"
       inkscape:radius="0"
       inkscape:original="M 22.90625 1026.4062 L 19.40625 1037.4062 L 18.09375 1032.125 L 17.84375 1031.2188 L 17.3125 1032 L 15.625 1034.5312 L 17.46875 1033.2812 L 18.9375 1039.0938 L 19.28125 1040.5625 L 19.75 1039.125 L 22.40625 1030.5938 L 23.40625 1046.0625 L 25.4375 1034.6875 L 26.53125 1037.4688 L 26.875 1038.3438 L 27.3125 1037.5 L 29.5625 1032.9375 L 32.28125 1034.4688 L 29.75 1031.9375 L 29.375 1031.5312 L 29.09375 1032.0625 L 27 1036.2812 L 25.65625 1032.9375 L 25.0625 1031.5 L 24.84375 1033.0312 L 23.8125 1040.375 L 22.90625 1026.4062 z "
       style="font-size:medium;font-style:normal;font-variant:normal;font-weight:normal;font-stretch:normal;text-indent:0;text-align:start;text-decoration:none;line-height:normal;letter-spacing:normal;word-spacing:normal;text-transform:none;direction:ltr;block-progression:tb;writing-mode:lr-tb;text-anchor:start;baseline-shift:baseline;color:#000000;fill:#dc2300;fill-opacity:1;stroke:none;stroke-width:1px;marker:none;visibility:visible;display:inline;overflow:visible;enable-background:accumulate;font-family:Sans;-inkscape-font-specification:Sans"
       id="path3929-0"
       d="m 22.90625,1026.4062 -3.5,11 -1.3125,-5.2812 -0.25,-0.9062 -0.53125,0.7812 -1.6875,2.5312 1.84375,-1.25 1.46875,5.8126 0.34375,1.4687 0.46875,-1.4375 2.65625,-8.5312 1,15.4687 2.03125,-11.375 1.09375,2.7813 0.34375,0.875 0.4375,-0.8438 2.25,-4.5625 2.71875,1.5313 -2.53125,-2.5313 -0.375,-0.4063 -0.28125,0.5313 -2.09375,4.2187 -1.34375,-3.3437 -0.59375,-1.4375 -0.21875,1.5312 -1.03125,7.3438 -0.90625,-13.9688 z" />
    <path
       style="font-size:medium;font-style:normal;font-variant:normal;font-weight:normal;font-stretch:normal;text-indent:0;text-align:start;text-decoration:none;line-height:normal;letter-spacing:normal;word-spacing:normal;text-transform:none;direction:ltr;block-progression:tb;writing-mode:lr-tb;text-anchor:start;baseline-shift:baseline;color:#000000;fill:#dc3400;fill-opacity:1;stroke:none;stroke-width:1px;marker:none;visibility:visible;display:inline;overflow:visible;enable-background:accumulate;font-family:Sans;-inkscape-font-specification:Sans"
       d="M 22.9375 14.46875 A 7.5674376 7.5674376 0 0 0 15.75 19.59375 A 7.5674376 7.5674376 0 0 0 11.59375 22.59375 L 11.0625 23.375 A 7.5674376 7.5674376 0 0 0 11.03125 23.4375 L 9.34375 25.96875 A 7.5674376 7.5674376 0 0 0 11.59375 36.53125 A 7.5674376 7.5674376 0 0 0 11.59375 36.5625 L 11.90625 37.90625 A 7.5674376 7.5674376 0 0 0 15.9375 42.96875 A 7.5674376 7.5674376 0 0 0 19.21875 48 L 27.5625 48 A 7.5674376 7.5674376 0 0 0 30.84375 43.03125 L 31.375 40.03125 A 7.5674376 7.5674376 0 0 0 33.53125 37.5625 A 7.5674376 7.5674376 0 0 0 37.625 24.75 L 35.3125 22.4375 L 35.09375 22.21875 L 34.9375 22.03125 A 7.5674376 7.5674376 0 0 0 30.0625 19.625 A 7.5674376 7.5674376 0 0 0 22.9375 14.46875 z "
       transform="translate(0,1004.3622)"
       id="path3960" />
    <path
       sodipodi:type="inkscape:offset"
       inkscape:radius="0"
       inkscape:original="M 22.90625 1026.4062 L 19.40625 1037.4062 L 18.09375 1032.125 L 17.84375 1031.2188 L 17.3125 1032 L 15.625 1034.5312 L 17.46875 1033.2812 L 18.9375 1039.0938 L 19.28125 1040.5625 L 19.75 1039.125 L 22.40625 1030.5938 L 23.40625 1046.0625 L 25.4375 1034.6875 L 26.53125 1037.4688 L 26.875 1038.3438 L 27.3125 1037.5 L 29.5625 1032.9375 L 32.28125 1034.4688 L 29.75 1031.9375 L 29.375 1031.5312 L 29.09375 1032.0625 L 27 1036.2812 L 25.65625 1032.9375 L 25.0625 1031.5 L 24.84375 1033.0312 L 23.8125 1040.375 L 22.90625 1026.4062 z "
       style="font-size:medium;font-style:normal;font-variant:normal;font-weight:normal;font-stretch:normal;text-indent:0;text-align:start;text-decoration:none;line-height:normal;letter-spacing:normal;word-spacing:normal;text-transform:none;direction:ltr;block-progression:tb;writing-mode:lr-tb;text-anchor:start;baseline-shift:baseline;color:#000000;fill:#dc3400;fill-opacity:1;stroke:none;stroke-width:1px;marker:none;visibility:visible;display:inline;overflow:visible;enable-background:accumulate;font-family:Sans;-inkscape-font-specification:Sans"
       id="path3929-01"
       d="m 22.90625,1026.4062 -3.5,11 -1.3125,-5.2812 -0.25,-0.9062 -0.53125,0.7812 -1.6875,2.5312 1.84375,-1.25 1.46875,5.8126 0.34375,1.4687 0.46875,-1.4375 2.65625,-8.5312 1,15.4687 2.03125,-11.375 1.09375,2.7813 0.34375,0.875 0.4375,-0.8438 2.25,-4.5625 2.71875,1.5313 -2.53125,-2.5313 -0.375,-0.4063 -0.28125,0.5313 -2.09375,4.2187 -1.34375,-3.3437 -0.59375,-1.4375 -0.21875,1.5312 -1.03125,7.3438 -0.90625,-13.9688 z" />
    <path
       sodipodi:type="inkscape:offset"
       inkscape:radius="3.1930599"
       inkscape:original="M 22.90625 1026.4062 L 19.40625 1037.4062 L 18.09375 1032.125 L 17.84375 1031.2188 L 17.3125 1032 L 15.625 1034.5312 L 17.46875 1033.2812 L 18.9375 1039.0938 L 19.28125 1040.5625 L 19.75 1039.125 L 22.40625 1030.5938 L 23.40625 1046.0625 L 25.4375 1034.6875 L 26.53125 1037.4688 L 26.875 1038.3438 L 27.3125 1037.5 L 29.5625 1032.9375 L 32.28125 1034.4688 L 29.75 1031.9375 L 29.375 1031.5312 L 29.09375 1032.0625 L 27 1036.2812 L 25.65625 1032.9375 L 25.0625 1031.5 L 24.84375 1033.0312 L 23.8125 1040.375 L 22.90625 1026.4062 z "
       xlink:href="#path3929-6"
       style="font-size:medium;font-style:normal;font-variant:normal;font-weight:normal;font-stretch:normal;text-indent:0;text-align:start;text-decoration:none;line-height:normal;letter-spacing:normal;word-spacing:normal;text-transform:none;direction:ltr;block-progression:tb;writing-mode:lr-tb;text-anchor:start;baseline-shift:baseline;color:#000000;fill:#dc4e00;fill-opacity:1;stroke:none;stroke-width:1px;marker:none;visibility:visible;display:inline;overflow:visible;enable-background:accumulate;font-family:Sans;-inkscape-font-specification:Sans"
       id="path3969"
       inkscape:href="#path3929-6"
       d="m 22.59375,1023.2188 a 3.1933792,3.1933792 0 0 0 -2.71875,2.2187 l -0.90625,2.8125 a 3.1933792,3.1933792 0 0 0 -3.75,1.1875 l -0.53125,0.7813 a 3.1933792,3.1933792 0 0 0 -0.03125,0 l -1.6875,2.5312 a 3.1933792,3.1933792 0 0 0 2.3125,4.9688 l 0.5625,2.0937 0,0.062 0.34375,1.4062 a 3.1933792,3.1933792 0 0 0 3.875,2.375 l 0.15625,2.625 a 3.1933792,3.1933792 0 0 0 6.34375,0.3438 l 0.90625,-5.1562 a 3.1933792,3.1933792 0 0 0 2.25,-1.6563 l 0.4375,-0.8437 a 3.1933792,3.1933792 0 0 0 0.03125,-0.063 l 0.75,-1.5312 a 3.1933792,3.1933792 0 0 0 3.59375,-5.1562 l -2.4375,-2.4376 -0.09375,-0.094 -0.28125,-0.3125 a 3.1933792,3.1933792 0 0 0 -4.46875,-0.2188 3.1933792,3.1933792 0 0 0 -1,-0.625 l -0.15625,-2.3437 a 3.1933792,3.1933792 0 0 0 -3.5,-2.9687 z" />
    <path
       sodipodi:type="inkscape:offset"
       inkscape:radius="0"
       inkscape:original="M 22.90625 1026.4062 L 19.40625 1037.4062 L 18.09375 1032.125 L 17.84375 1031.2188 L 17.3125 1032 L 15.625 1034.5312 L 17.46875 1033.2812 L 18.9375 1039.0938 L 19.28125 1040.5625 L 19.75 1039.125 L 22.40625 1030.5938 L 23.40625 1046.0625 L 25.4375 1034.6875 L 26.53125 1037.4688 L 26.875 1038.3438 L 27.3125 1037.5 L 29.5625 1032.9375 L 32.28125 1034.4688 L 29.75 1031.9375 L 29.375 1031.5312 L 29.09375 1032.0625 L 27 1036.2812 L 25.65625 1032.9375 L 25.0625 1031.5 L 24.84375 1033.0312 L 23.8125 1040.375 L 22.90625 1026.4062 z "
       style="font-size:medium;font-style:normal;font-variant:normal;font-weight:normal;font-stretch:normal;text-indent:0;text-align:start;text-decoration:none;line-height:normal;letter-spacing:normal;word-spacing:normal;text-transform:none;direction:ltr;block-progression:tb;writing-mode:lr-tb;text-anchor:start;baseline-shift:baseline;color:#000000;fill:#dc4e00;fill-opacity:1;stroke:none;stroke-width:1px;marker:none;visibility:visible;display:inline;overflow:visible;enable-background:accumulate;font-family:Sans;-inkscape-font-specification:Sans"
       id="path3929-6"
       d="m 22.90625,1026.4062 -3.5,11 -1.3125,-5.2812 -0.25,-0.9062 -0.53125,0.7812 -1.6875,2.5312 1.84375,-1.25 1.46875,5.8126 0.34375,1.4687 0.46875,-1.4375 2.65625,-8.5312 1,15.4687 2.03125,-11.375 1.09375,2.7813 0.34375,0.875 0.4375,-0.8438 2.25,-4.5625 2.71875,1.5313 -2.53125,-2.5313 -0.375,-0.4063 -0.28125,0.5313 -2.09375,4.2187 -1.34375,-3.3437 -0.59375,-1.4375 -0.21875,1.5312 -1.03125,7.3438 -0.90625,-13.9688 z" />
    <path
       sodipodi:type="inkscape:offset"
       inkscape:radius="1.5737594"
       inkscape:original="M 22.90625 1026.4062 L 19.40625 1037.4062 L 18.09375 1032.125 L 17.84375 1031.2188 L 17.3125 1032 L 15.625 1034.5312 L 17.46875 1033.2812 L 18.9375 1039.0938 L 19.28125 1040.5625 L 19.75 1039.125 L 22.40625 1030.5938 L 23.40625 1046.0625 L 25.4375 1034.6875 L 26.53125 1037.4688 L 26.875 1038.3438 L 27.3125 1037.5 L 29.5625 1032.9375 L 32.28125 1034.4688 L 29.75 1031.9375 L 29.375 1031.5312 L 29.09375 1032.0625 L 27 1036.2812 L 25.65625 1032.9375 L 25.0625 1031.5 L 24.84375 1033.0312 L 23.8125 1040.375 L 22.90625 1026.4062 z "
       style="font-size:medium;font-style:normal;font-variant:normal;font-weight:normal;font-stretch:normal;text-indent:0;text-align:start;text-decoration:none;line-height:normal;letter-spacing:normal;word-spacing:normal;text-transform:none;direction:ltr;block-progression:tb;writing-mode:lr-tb;text-anchor:start;baseline-shift:baseline;color:#000000;fill:#dc7200;fill-opacity:1;stroke:none;stroke-width:1px;marker:none;visibility:visible;display:inline;overflow:visible;enable-background:accumulate;font-family:Sans;-inkscape-font-specification:Sans"
       id="path3929-9"
       d="m 22.75,1024.8438 a 1.5739168,1.5739168 0 0 0 -1.34375,1.0937 l -1.8125,5.6875 -0.21875,-0.8125 a 1.5739168,1.5739168 0 0 0 -2.84375,-0.4687 L 16,1031.125 l -1.6875,2.5312 a 1.5739168,1.5739168 0 0 0 2.1875,2.1876 l 0.90625,3.5937 0,0.031 0.34375,1.4374 a 1.5739168,1.5739168 0 0 0 3.03125,0.1563 L 21.25,1039.625 a 1.5739168,1.5739168 0 0 0 0,-0.031 l 0.125,-0.4376 0.46875,7 a 1.5739168,1.5739168 0 0 0 3.125,0.1876 l 1.1875,-6.625 a 1.5739168,1.5739168 0 0 0 2.125,-0.6563 l 0.4375,-0.8437 a 1.5739168,1.5739168 0 0 0 0,-0.031 l 1.5,-3.0625 1.28125,0.7188 a 1.5739168,1.5739168 0 0 0 1.90625,-2.5 l -2.5,-2.4688 -0.03125,-0.062 -0.34375,-0.3437 a 1.5739168,1.5739168 0 0 0 -2.5625,0.3124 l -0.28125,0.5313 a 1.5739168,1.5739168 0 0 0 0,0.062 l -0.53125,1.0625 -0.03125,-0.094 -0.59375,-1.4376 a 1.5739168,1.5739168 0 0 0 -1.8125,-0.9374 l -0.25,-3.6563 A 1.5739168,1.5739168 0 0 0 22.75,1024.8438 z" />
    <path
       sodipodi:type="inkscape:offset"
       inkscape:radius="0.13979897"
       inkscape:original="M 22.90625 1026.4062 L 19.40625 1037.4062 L 18.09375 1032.125 L 17.84375 1031.2188 L 17.3125 1032 L 15.625 1034.5312 L 17.46875 1033.2812 L 18.9375 1039.0938 L 19.28125 1040.5625 L 19.75 1039.125 L 22.40625 1030.5938 L 23.40625 1046.0625 L 25.4375 1034.6875 L 26.53125 1037.4688 L 26.875 1038.3438 L 27.3125 1037.5 L 29.5625 1032.9375 L 32.28125 1034.4688 L 29.75 1031.9375 L 29.375 1031.5312 L 29.09375 1032.0625 L 27 1036.2812 L 25.65625 1032.9375 L 25.0625 1031.5 L 24.84375 1033.0312 L 23.8125 1040.375 L 22.90625 1026.4062 z "
       style="font-size:medium;font-style:normal;font-variant:normal;font-weight:normal;font-stretch:normal;text-indent:0;text-align:start;text-decoration:none;line-height:normal;letter-spacing:normal;word-spacing:normal;text-transform:none;direction:ltr;block-progression:tb;writing-mode:lr-tb;text-anchor:start;baseline-shift:baseline;color:#000000;fill:#dc9b00;fill-opacity:1;stroke:none;stroke-width:1px;marker:none;visibility:visible;display:inline;overflow:visible;enable-background:accumulate;font-family:Sans;-inkscape-font-specification:Sans"
       id="path3929-1"
       d="m 22.8125,1026.2812 a 0.13981295,0.13981295 0 0 0 0,0.031 0.13981295,0.13981295 0 0 0 -0.03125,0.031 0.13981295,0.13981295 0 0 0 0,0.031 l -3.375,10.5625 -1.1875,-4.8437 -0.25,-0.9063 a 0.13981295,0.13981295 0 0 0 0,-0.031 0.13981295,0.13981295 0 0 0 -0.03125,-0.031 0.13981295,0.13981295 0 0 0 -0.03125,-0.031 0.13981295,0.13981295 0 0 0 -0.03125,0 0.13981295,0.13981295 0 0 0 -0.03125,0 0.13981295,0.13981295 0 0 0 -0.03125,0 0.13981295,0.13981295 0 0 0 -0.03125,0 0.13981295,0.13981295 0 0 0 -0.03125,0.031 0.13981295,0.13981295 0 0 0 -0.03125,0 l -0.53125,0.7812 a 0.13981295,0.13981295 0 0 0 0,0.031 l -1.6875,2.5313 a 0.13981295,0.13981295 0 0 0 0,0.031 0.13981295,0.13981295 0 0 0 0,0.031 0.13981295,0.13981295 0 0 0 0,0.031 0.13981295,0.13981295 0 0 0 0,0.031 0.13981295,0.13981295 0 0 0 0.03125,0.031 0.13981295,0.13981295 0 0 0 0.03125,0.031 0.13981295,0.13981295 0 0 0 0.03125,0 0.13981295,0.13981295 0 0 0 0.03125,0 0.13981295,0.13981295 0 0 0 0.03125,0 0.13981295,0.13981295 0 0 0 0.03125,0 0.13981295,0.13981295 0 0 0 0.03125,0 l 1.6875,-1.125 1.40625,5.5938 0.34375,1.4688 a 0.13981295,0.13981295 0 0 0 0,0.031 0.13981295,0.13981295 0 0 0 0.03125,0.031 0.13981295,0.13981295 0 0 0 0.03125,0.031 0.13981295,0.13981295 0 0 0 0.03125,0 0.13981295,0.13981295 0 0 0 0.03125,0 0.13981295,0.13981295 0 0 0 0.03125,0 0.13981295,0.13981295 0 0 0 0.03125,0 0.13981295,0.13981295 0 0 0 0.03125,-0.031 0.13981295,0.13981295 0 0 0 0.03125,-0.031 0.13981295,0.13981295 0 0 0 0,-0.031 l 0.46875,-1.4376 2.4375,-7.875 0.96875,14.7813 a 0.13981295,0.13981295 0 0 0 0,0.031 0.13981295,0.13981295 0 0 0 0,0.031 0.13981295,0.13981295 0 0 0 0.03125,0.031 0.13981295,0.13981295 0 0 0 0.03125,0.031 0.13981295,0.13981295 0 0 0 0.03125,0 0.13981295,0.13981295 0 0 0 0.03125,0 0.13981295,0.13981295 0 0 0 0.03125,0 0.13981295,0.13981295 0 0 0 0.03125,0 0.13981295,0.13981295 0 0 0 0.03125,-0.031 0.13981295,0.13981295 0 0 0 0.03125,-0.031 0.13981295,0.13981295 0 0 0 0,-0.031 l 1.9375,-10.9063 0.9375,2.3437 0.34375,0.875 a 0.13981295,0.13981295 0 0 0 0.03125,0.031 0.13981295,0.13981295 0 0 0 0.03125,0.031 0.13981295,0.13981295 0 0 0 0.03125,0 0.13981295,0.13981295 0 0 0 0.03125,0 0.13981295,0.13981295 0 0 0 0.03125,0 0.13981295,0.13981295 0 0 0 0.03125,0 0.13981295,0.13981295 0 0 0 0.03125,-0.031 0.13981295,0.13981295 0 0 0 0.03125,-0.031 l 0.4375,-0.8437 2.1875,-4.4375 2.59375,1.4688 a 0.13981295,0.13981295 0 0 0 0.03125,0 0.13981295,0.13981295 0 0 0 0.03125,0 0.13981295,0.13981295 0 0 0 0.03125,0 0.13981295,0.13981295 0 0 0 0.03125,0 0.13981295,0.13981295 0 0 0 0.03125,-0.031 0.13981295,0.13981295 0 0 0 0.03125,-0.031 0.13981295,0.13981295 0 0 0 0,-0.031 0.13981295,0.13981295 0 0 0 0,-0.031 0.13981295,0.13981295 0 0 0 0,-0.031 0.13981295,0.13981295 0 0 0 0,-0.031 0.13981295,0.13981295 0 0 0 -0.03125,-0.031 l -2.53125,-2.5312 -0.375,-0.4063 a 0.13981295,0.13981295 0 0 0 -0.03125,-0.031 0.13981295,0.13981295 0 0 0 -0.03125,0 0.13981295,0.13981295 0 0 0 -0.03125,0 0.13981295,0.13981295 0 0 0 -0.03125,0 0.13981295,0.13981295 0 0 0 -0.03125,0 0.13981295,0.13981295 0 0 0 -0.03125,0.031 0.13981295,0.13981295 0 0 0 -0.03125,0.031 L 28.96875,1032 27,1035.9375 l -1.21875,-3.0625 -0.59375,-1.4375 a 0.13981295,0.13981295 0 0 0 -0.03125,-0.031 0.13981295,0.13981295 0 0 0 -0.03125,-0.031 0.13981295,0.13981295 0 0 0 -0.03125,0 0.13981295,0.13981295 0 0 0 -0.03125,0 0.13981295,0.13981295 0 0 0 -0.03125,0 0.13981295,0.13981295 0 0 0 -0.03125,0 0.13981295,0.13981295 0 0 0 -0.03125,0.031 0.13981295,0.13981295 0 0 0 -0.03125,0.031 0.13981295,0.13981295 0 0 0 0,0.031 l -0.21875,1.5312 -0.875,6.125 -0.8125,-12.7188 a 0.13981295,0.13981295 0 0 0 0,-0.031 0.13981295,0.13981295 0 0 0 0,-0.031 0.13981295,0.13981295 0 0 0 -0.03125,-0.031 0.13981295,0.13981295 0 0 0 -0.03125,-0.031 0.13981295,0.13981295 0 0 0 -0.03125,0 0.13981295,0.13981295 0 0 0 -0.03125,0 0.13981295,0.13981295 0 0 0 -0.03125,0 0.13981295,0.13981295 0 0 0 -0.03125,0 0.13981295,0.13981295 0 0 0 -0.03125,0 z" />
  </g>
  <g
     inkscape:groupmode="layer"
     id="layer2"
     inkscape:label="shadow"
     style="display:inline">
    <path
       style="fill:#000000"
       d=""
       id="path906"
       inkscape:connector-curvature="0" />
    <flowRoot
       xml:space="preserve"
       id="flowRoot61"
       style="font-size:40px;font-style:normal;font-weight:normal;line-height:125%;letter-spacing:0px;word-spacing:0px;fill:#000000;fill-opacity:1;stroke:none;font-family:sans-serif"
       transform="translate(32.627465,-1001.1992)"><flowRegion
         id="flowRegion63"><rect
           id="rect65"
           width="57.6292"
           height="49.320694"
           x="-53.033005"
           y="6.6342559" /></flowRegion><flowPara
         id="flowPara67" /></flowRoot>    <path
       style="opacity:0.25;color:#000000;fill:#000000;fill-opacity:1;stroke:none;stroke-width:2;marker:none;visibility:visible"
       d="m 24.40625,6.3125 c -0.418049,-0.012517 -0.827828,0.00611 -1.25,0.03125 -0.947264,0.056405 -1.892122,0.2137621 -2.84375,0.46875 -7.61302,2.0399025 -12.1649022,9.88698 -10.125,17.5 l 1.0625,1.0625 -0.65625,0.1875 c -2.1404913,0.573543 -3.386043,2.765758 -2.8125,4.90625 l 1.28125,4.8125 c 0.051099,0.190704 0.1432406,0.386427 0.21875,0.5625 0.047873,0.110779 0.068207,0.239231 0.125,0.34375 0.1014349,0.186531 0.2165027,0.33492 0.34375,0.5 0.00865,0.01138 0.022488,0.01998 0.03125,0.03125 0.097272,0.123435 0.2023207,0.264821 0.3125,0.375 l 0.21875,0.1875 0.15625,0.15625 L 21.03125,48 45.9375,48 c 1.108,0 2,-0.892 2,-2 l 0,-21.65625 -13.5,-13.5 -0.28125,-0.3125 c -0.0054,-0.0055 -0.02579,0.0055 -0.03125,0 C 33.770715,10.177043 33.387623,9.8454435 33,9.53125 32.662536,9.2577139 32.328777,8.9916307 31.96875,8.75 31.913251,8.7127524 31.8685,8.6614694 31.8125,8.625 31.754391,8.5871997 31.683639,8.5682067 31.625,8.53125 31.315536,8.3360356 31.01082,8.1399364 30.6875,7.96875 30.6257,7.9360291 30.562273,7.9068238 30.5,7.875 30.416969,7.832512 30.333852,7.7908799 30.25,7.75 29.889247,7.5743612 29.49969,7.4264141 29.125,7.28125 28.652522,7.0982004 28.178551,6.9449991 27.6875,6.8125 27.397032,6.7340102 27.108358,6.6539006 26.8125,6.59375 26.749798,6.5809873 26.687921,6.5744258 26.625,6.5625 26.30516,6.5019207 25.981144,6.4448438 25.65625,6.40625 c -0.01019,-0.00121 -0.02106,0.00119 -0.03125,0 -0.02062,-0.00238 -0.04186,0.00229 -0.0625,0 -0.360896,-0.040486 -0.728099,-0.081176 -1.09375,-0.09375 -0.02091,-6.851e-4 -0.04157,5.924e-4 -0.0625,0 z"
       id="path5308"
       inkscape:connector-curvature="0" />
    <path
       d="m 37.404306,25.560327 c 2.140492,0.573543 3.40197,2.758488 2.828427,4.89898 l -1.294095,4.829629 c -0.573543,2.140491 -2.758488,3.40197 -4.898979,2.828427 l -0.965926,-0.258819 c -0.335201,-0.08982 -0.637069,-0.247253 -0.925486,-0.409745 l 3.283767,-12.255184 c 0.331022,0.0035 0.671165,0.01808 1.006366,0.107893 l 0.965926,0.258819 z m -26.808612,0 c -2.1404913,0.573543 -3.4019698,2.758488 -2.8284268,4.89898 l 1.2940952,4.829629 c 0.573543,2.140491 2.7584876,3.40197 4.8989796,2.828427 l 0.965926,-0.258819 c 0.335201,-0.08982 0.637069,-0.247253 0.925486,-0.409745 L 12.567987,25.193615 c -0.331023,0.0035 -0.671166,0.01808 -1.006367,0.107893 l -0.965926,0.258819 z M 23.156599,6.3328404 c -0.947264,0.056405 -1.87818,0.2123198 -2.829808,0.4673077 -7.61302,2.0399025 -12.1649022,9.8850559 -10.125,17.4980759 l 1.947116,-0.493269 c -1.76015,-6.568971 2.102183,-13.297542 8.671154,-15.0576915 6.56897,-1.7601501 13.297542,2.1021825 15.057692,8.6711525 0.55848,2.084277 0.55848,4.302263 0,6.386539 l 1.947115,0.493269 c 0.637788,-2.380253 0.641096,-4.858616 0.02596,-7.243269 l -0.02596,-0.129808 C 36.039954,10.263754 29.787445,5.9380073 23.156599,6.3328404 z"
       style="opacity:0.6;color:#000000;fill:#000000;fill-opacity:1;stroke:none;stroke-width:2;marker:none;visibility:visible;display:inline;overflow:visible;filter:url(#filter5630);enable-background:accumulate"
       id="rect5117-9-3"
       inkscape:connector-curvature="0"
       clip-path="url(#clipPath5652)" />
  </g>
  <g
     inkscape:groupmode="layer"
     id="layer3"
     inkscape:label="icon"
     style="display:inline">
    <path
       d="m 37.404306,25.560327 c 2.140492,0.573543 3.40197,2.758488 2.828427,4.89898 l -1.294095,4.829629 c -0.573543,2.140491 -2.758488,3.40197 -4.898979,2.828427 l -0.965926,-0.258819 c -0.335201,-0.08982 -0.637069,-0.247253 -0.925486,-0.409745 l 3.283767,-12.255184 c 0.331022,0.0035 0.671165,0.01808 1.006366,0.107893 l 0.965926,0.258819 z m -26.808612,0 c -2.1404913,0.573543 -3.4019698,2.758488 -2.8284268,4.89898 l 1.2940952,4.829629 c 0.573543,2.140491 2.7584876,3.40197 4.8989796,2.828427 l 0.965926,-0.258819 c 0.335201,-0.08982 0.637069,-0.247253 0.925486,-0.409745 L 12.567987,25.193615 c -0.331023,0.0035 -0.671166,0.01808 -1.006367,0.107893 l -0.965926,0.258819 z M 23.156599,6.3328399 c -0.947264,0.056405 -1.87818,0.2123198 -2.829808,0.4673077 -7.61302,2.0399025 -12.1649022,9.8850564 -10.125,17.4980764 l 1.947116,-0.493269 c -1.76015,-6.568971 2.102183,-13.297542 8.671154,-15.057692 6.56897,-1.7601501 13.297542,2.102183 15.057692,8.671153 0.55848,2.084277 0.55848,4.302263 0,6.386539 l 1.947115,0.493269 c 0.637788,-2.380253 0.641096,-4.858616 0.02596,-7.243269 l -0.02596,-0.129808 C 36.039954,10.263754 29.787445,5.9380068 23.156599,6.3328399 z"
       style="color:#000000;fill:#ffffff;fill-opacity:1;stroke:none;stroke-width:2;marker:none;visibility:visible;display:inline;overflow:visible;enable-background:accumulate"
       id="rect5117-9"
       inkscape:connector-curvature="0" />
    <path
       sodipodi:nodetypes="ccccccccccccccccccccccccccc"
       inkscape:connector-curvature="0"
       id="path3976"
       d="m 22.893284,22.047537 -3.495216,11.000898 -1.31851,-5.27404 -0.237331,-0.922957 -0.527404,0.791106 -1.687693,2.531539 1.845914,-1.26577 1.450361,5.827814 0.369183,1.476731 0.448293,-1.450361 2.652467,-8.54207 1.01034,15.471678 2.033156,-11.359801 1.107548,2.768871 0.342813,0.870216 0.421923,-0.843846 2.267837,-4.562044 2.716131,1.555841 -2.53154,-2.531539 -0.395553,-0.421923 -0.263702,0.527404 -2.109615,4.219232 -1.344881,-3.349015 -0.580144,-1.423991 -0.237332,1.529472 -1.017515,7.330138 z"
       style="font-size:medium;font-style:normal;font-variant:normal;font-weight:normal;font-stretch:normal;text-indent:0;text-align:start;text-decoration:none;line-height:normal;letter-spacing:normal;word-spacing:normal;text-transform:none;direction:ltr;block-progression:tb;writing-mode:lr-tb;text-anchor:start;baseline-shift:baseline;color:#000000;fill:#ffff3e;fill-opacity:1;stroke:none;stroke-width:1px;marker:none;visibility:visible;display:inline;overflow:visible;enable-background:accumulate;font-family:Sans;-inkscape-font-specification:Sans" />
  </g>
  <g
     inkscape:groupmode="layer"
     id="layer4"
     inkscape:label="hilight"
     sodipodi:insensitive="true"
     style="display:inline">
    <path
       inkscape:connector-curvature="0"
       style="opacity:0.4;color:#000000;fill:url(#linearGradient12443);fill-opacity:1;fill-rule:nonzero;stroke:none;stroke-width:0.5;marker:none;visibility:visible;display:inline;overflow:visible;enable-background:accumulate"
       d="M 2,0 C 0.892,0 0,0.892 0,2 l 0,44 c 0,1.108 0.892,2 2,2 l 44,0 c 1.108,0 2,-0.892 2,-2 L 48,2 C 48,0.892 47.108,0 46,0 L 2,0 z m 0,0.5 44,0 c 0.83101,0 1.5,0.6689904 1.5,1.5 l 0,44 c 0,0.83101 -0.66899,1.5 -1.5,1.5 l -44,0 C 1.1689904,47.5 0.5,46.83101 0.5,46 L 0.5,2 C 0.5,1.1689904 1.1689904,0.5 2,0.5 z"
       id="rect3006" />
  </g>
</svg>
