<?xml version="1.0" encoding="UTF-8" standalone="no"?>
<!-- Created with Inkscape (http://www.inkscape.org/) -->

<svg
   xmlns:dc="http://purl.org/dc/elements/1.1/"
   xmlns:cc="http://creativecommons.org/ns#"
   xmlns:rdf="http://www.w3.org/1999/02/22-rdf-syntax-ns#"
   xmlns:svg="http://www.w3.org/2000/svg"
   xmlns="http://www.w3.org/2000/svg"
   xmlns:xlink="http://www.w3.org/1999/xlink"
   xmlns:sodipodi="http://sodipodi.sourceforge.net/DTD/sodipodi-0.dtd"
   xmlns:inkscape="http://www.inkscape.org/namespaces/inkscape"
   width="48"
   height="48"
   id="svg2"
   version="1.1"
   inkscape:version="0.48.4 r9939"
   sodipodi:docname="draw.svg">
  <sodipodi:namedview
     id="base"
     pagecolor="#424242"
     bordercolor="#666666"
     borderopacity="1.0"
     inkscape:pageopacity="1"
     inkscape:pageshadow="2"
     inkscape:zoom="11.313708"
     inkscape:cx="9.7766039"
     inkscape:cy="14.631302"
     inkscape:document-units="px"
     inkscape:current-layer="layer4"
     showgrid="false"
     showborder="false"
     borderlayer="false"
     showguides="true"
     inkscape:guide-bbox="true"
     inkscape:window-width="1855"
     inkscape:window-height="1056"
     inkscape:window-x="65"
     inkscape:window-y="24"
     inkscape:window-maximized="1">
    <inkscape:grid
       type="xygrid"
       id="grid3004"
       empspacing="5"
       visible="true"
       enabled="true"
       snapvisiblegridlinesonly="true"
       spacingx="0.5px"
       spacingy="0.5px" />
  </sodipodi:namedview>
  <defs
     id="defs4">
    <linearGradient
       inkscape:collect="always"
       id="linearGradient4699">
      <stop
         style="stop-color:#19aeff;stop-opacity:1;"
         offset="0"
         id="stop4701" />
      <stop
         style="stop-color:#19aeff;stop-opacity:0;"
         offset="1"
         id="stop4703" />
    </linearGradient>
    <linearGradient
       inkscape:collect="always"
       id="linearGradient4691">
      <stop
         style="stop-color:#19aeff;stop-opacity:1;"
         offset="0"
         id="stop4693" />
      <stop
         style="stop-color:#19aeff;stop-opacity:0;"
         offset="1"
         id="stop4695" />
    </linearGradient>
    <linearGradient
       id="linearGradient4665">
      <stop
         style="stop-color:#95dbff;stop-opacity:1;"
         offset="0"
         id="stop4667" />
      <stop
         style="stop-color:#006ba2;stop-opacity:1;"
         offset="1"
         id="stop4669" />
    </linearGradient>
    <linearGradient
       id="linearGradient4634">
      <stop
         style="stop-color:#000000;stop-opacity:0.38414633;"
         offset="0"
         id="stop4636" />
      <stop
         style="stop-color:#000000;stop-opacity:0;"
         offset="1"
         id="stop4638" />
    </linearGradient>
    <linearGradient
       inkscape:collect="always"
       xlink:href="#linearGradient3815-5"
       id="linearGradient3821-9"
       x1="3"
       y1="3"
       x2="25"
       y2="28"
       gradientUnits="userSpaceOnUse" />
    <linearGradient
       inkscape:collect="always"
       id="linearGradient3815-5">
      <stop
         style="stop-color:#ffffff;stop-opacity:1;"
         offset="0"
         id="stop3817-1" />
      <stop
         style="stop-color:#ffffff;stop-opacity:0;"
         offset="1"
         id="stop3819-9" />
    </linearGradient>
    <linearGradient
       inkscape:collect="always"
       xlink:href="#linearGradient4691"
       id="linearGradient4697"
       x1="45"
       y1="1049.8622"
       x2="42.5"
       y2="1047.3622"
       gradientUnits="userSpaceOnUse" />
    <linearGradient
       inkscape:collect="always"
       xlink:href="#linearGradient4699"
       id="linearGradient4705"
       x1="27.5"
       y1="0.5"
       x2="27.5"
       y2="3"
       gradientUnits="userSpaceOnUse" />
    <linearGradient
       inkscape:collect="always"
       xlink:href="#linearGradient4691-0"
       id="linearGradient4697-1"
       x1="45"
       y1="1049.8622"
       x2="42.5"
       y2="1047.3622"
       gradientUnits="userSpaceOnUse" />
    <linearGradient
       inkscape:collect="always"
       id="linearGradient4691-0">
      <stop
         style="stop-color:#19aeff;stop-opacity:1;"
         offset="0"
         id="stop4693-5" />
      <stop
         style="stop-color:#19aeff;stop-opacity:0;"
         offset="1"
         id="stop4695-5" />
    </linearGradient>
    <linearGradient
       gradientTransform="translate(0,-1004.3622)"
       y2="1047.3622"
       x2="42.5"
       y1="1049.8622"
       x1="45"
       gradientUnits="userSpaceOnUse"
       id="linearGradient12409"
       xlink:href="#linearGradient4699-1"
       inkscape:collect="always" />
    <linearGradient
       inkscape:collect="always"
       xlink:href="#linearGradient4699-1"
       id="linearGradient4705-1"
       x1="27.5"
       y1="0.5"
       x2="27.5"
       y2="3"
       gradientUnits="userSpaceOnUse" />
    <linearGradient
       id="linearGradient4699-1">
      <stop
         style="stop-color:#ffffff;stop-opacity:1;"
         offset="0"
         id="stop4701-3" />
      <stop
         style="stop-color:#ffffff;stop-opacity:0;"
         offset="1"
         id="stop4703-4" />
    </linearGradient>
    <linearGradient
       y2="3"
       x2="27.5"
       y1="0.5"
       x1="27.5"
       gradientUnits="userSpaceOnUse"
       id="linearGradient12443"
       xlink:href="#linearGradient4699-1"
       inkscape:collect="always" />
    <filter
       inkscape:collect="always"
       id="filter3828"
       x="-0.24"
       width="1.48"
       y="-0.24"
       height="1.48">
      <feGaussianBlur
         inkscape:collect="always"
         stdDeviation="3"
         id="feGaussianBlur3830" />
    </filter>
    <clipPath
       clipPathUnits="userSpaceOnUse"
       id="clipPath3856">
      <path
         style="opacity:0.3;fill:#000000;fill-opacity:1;stroke:none;display:inline"
         d="m 27.84375,12.03125 -15.4375,15.4375 8.125,8.125 L 32.9375,48 46,48 c 1.108,0 2,-0.892 2,-2 l 0,-13.8125 -12.03125,-12.03125 -8.125,-8.125 z m 10.5625,2.4375 0,3.25 -1.625,1.625 L 48,30.5625 l 0,-6.5 -9.59375,-9.59375 z m -18.6875,21.9375 -8.9375,2.4375 -1.625,0 L 18.3125,48 l 13,0 -11.59375,-11.59375 z"
         id="path3858"
         inkscape:connector-curvature="0" />
    </clipPath>
  </defs>
  <metadata
     id="metadata7">
    <rdf:RDF>
      <cc:Work
         rdf:about="">
        <dc:format>image/svg+xml</dc:format>
        <dc:type
           rdf:resource="http://purl.org/dc/dcmitype/StillImage" />
        <dc:title />
      </cc:Work>
    </rdf:RDF>
  </metadata>
  <g
     inkscape:label="base"
     inkscape:groupmode="layer"
     id="layer1"
     transform="translate(0,-1004.3622)"
     style="display:inline">
    <rect
       style="color:#000000;fill:#0084c8;fill-opacity:1;fill-rule:nonzero;stroke:none;stroke-width:0.5;marker:none;visibility:visible;display:inline;overflow:visible;enable-background:accumulate"
       id="rect3006-5"
       width="48"
       height="48"
       x="0"
       y="1004.3622"
       ry="2" />
  </g>
  <g
     inkscape:groupmode="layer"
     id="layer2"
     inkscape:label="shadow"
     style="display:inline">
    <path
       style="fill:#000000;fill-opacity:1;stroke:none;opacity:0.3"
       d="m 27.84375,12.03125 -15.4375,15.4375 8.125,8.125 L 32.9375,48 46,48 c 1.108,0 2,-0.892 2,-2 l 0,-13.8125 -12.03125,-12.03125 -8.125,-8.125 z m 10.5625,2.4375 0,3.25 -1.625,1.625 L 48,30.5625 l 0,-6.5 -9.59375,-9.59375 z m -18.6875,21.9375 -8.9375,2.4375 -1.625,0 L 18.3125,48 l 13,0 -11.59375,-11.59375 z"
       id="path3591"
       inkscape:connector-curvature="0" />
    <path
       id="path3879-0-8"
       style="fill:#000000;fill-opacity:1;stroke:none;display:inline;filter:url(#filter3828)"
       d="m 36.767829,19.349161 1.623397,-1.623397 c 0.811699,-0.811699 0.811699,-2.435098 0,-3.246796 L 33.521033,9.6087743 c -0.811699,-0.8116991 -2.435098,-0.8116991 -3.246797,0 L 28.650839,11.232172 z M 20.533848,35.583142 35.95613,20.160861 l -8.116991,-8.11699 -15.422281,15.422281 8.11699,8.11699 z m -0.405849,-2.029248 c -0.224841,-0.224841 -0.224841,-0.586858 0,-0.811699 L 33.115183,19.755012 c 0.224841,-0.224842 0.586858,-0.224842 0.811699,0 0.22484,0.22484 0.22484,0.586858 0,0.811698 L 20.939698,33.553894 c -0.22484,0.22484 -0.586859,0.22484 -0.811699,0 z m -1.623398,-1.623398 -2.435097,-2.435097 c -0.224841,-0.224841 -0.224841,-0.586858 0,-0.811699 L 29.056688,15.696516 c 0.224841,-0.224841 0.586858,-0.224841 0.811699,0 l 2.435097,2.435097 c 0.224841,0.224841 0.224841,0.586858 0,0.811699 L 19.3163,31.930496 c -0.224841,0.224841 -0.586858,0.224841 -0.811699,0 z m -4.058495,-4.058495 c -0.22484,-0.22484 -0.22484,-0.586859 0,-0.811699 L 27.43329,14.073118 c 0.22484,-0.22484 0.586858,-0.22484 0.811698,0 0.224842,0.224841 0.224842,0.586858 0,0.811699 L 15.257805,27.872001 c -0.224841,0.224841 -0.586858,0.224841 -0.811699,0 z M 9.1700618,38.829938 c 0.38264,0.382639 1.6233992,0 1.6233992,0 l 8.928688,-2.435097 -8.11699,-8.11699 -2.4350972,8.928688 c 0,0 -0.382639,1.240759 0,1.623399 z"
       inkscape:connector-curvature="0"
       clip-path="url(#clipPath3856)" />
  </g>
  <g
     inkscape:groupmode="layer"
     id="layer3"
     inkscape:label="icon"
     style="display:inline">
    <path
       id="path3879-0"
       style="fill:#ffffff;fill-opacity:1;stroke:none"
       d="m 36.767829,19.349161 1.623397,-1.623397 c 0.811699,-0.811699 0.811699,-2.435098 0,-3.246796 L 33.521033,9.6087743 c -0.811699,-0.8116991 -2.435098,-0.8116991 -3.246797,0 L 28.650839,11.232172 z M 20.533848,35.583142 35.95613,20.160861 l -8.116991,-8.11699 -15.422281,15.422281 8.11699,8.11699 z m -0.405849,-2.029248 c -0.224841,-0.224841 -0.224841,-0.586858 0,-0.811699 L 33.115183,19.755012 c 0.224841,-0.224842 0.586858,-0.224842 0.811699,0 0.22484,0.22484 0.22484,0.586858 0,0.811698 L 20.939698,33.553894 c -0.22484,0.22484 -0.586859,0.22484 -0.811699,0 z m -1.623398,-1.623398 -2.435097,-2.435097 c -0.224841,-0.224841 -0.224841,-0.586858 0,-0.811699 L 29.056688,15.696516 c 0.224841,-0.224841 0.586858,-0.224841 0.811699,0 l 2.435097,2.435097 c 0.224841,0.224841 0.224841,0.586858 0,0.811699 L 19.3163,31.930496 c -0.224841,0.224841 -0.586858,0.224841 -0.811699,0 z m -4.058495,-4.058495 c -0.22484,-0.22484 -0.22484,-0.586859 0,-0.811699 L 27.43329,14.073118 c 0.22484,-0.22484 0.586858,-0.22484 0.811698,0 0.224842,0.224841 0.224842,0.586858 0,0.811699 L 15.257805,27.872001 c -0.224841,0.224841 -0.586858,0.224841 -0.811699,0 z M 9.1700618,38.829938 c 0.38264,0.382639 1.6233992,0 1.6233992,0 l 8.928688,-2.435097 -8.11699,-8.11699 -2.4350972,8.928688 c 0,0 -0.382639,1.240759 0,1.623399 z"
       inkscape:connector-curvature="0" />
  </g>
  <g
     inkscape:groupmode="layer"
     id="layer4"
     inkscape:label="hilight">
    <path
       inkscape:connector-curvature="0"
       style="color:#000000;fill:url(#linearGradient12443);fill-opacity:1;fill-rule:nonzero;stroke:none;stroke-width:0.50000000000000000;marker:none;visibility:visible;display:inline;overflow:visible;enable-background:accumulate;opacity:0.4"
       d="M 2,0 C 0.892,0 0,0.892 0,2 l 0,44 c 0,1.108 0.892,2 2,2 l 44,0 c 1.108,0 2,-0.892 2,-2 L 48,2 C 48,0.892 47.108,0 46,0 L 2,0 z m 0,0.5 44,0 c 0.83101,0 1.5,0.6689904 1.5,1.5 l 0,44 c 0,0.83101 -0.66899,1.5 -1.5,1.5 l -44,0 C 1.1689904,47.5 0.5,46.83101 0.5,46 L 0.5,2 C 0.5,1.1689904 1.1689904,0.5 2,0.5 z"
       id="rect3006" />
  </g>
</svg>
