<?xml version="1.0" encoding="UTF-8" standalone="no"?>
<!-- Created with Inkscape (http://www.inkscape.org/) -->

<svg
   xmlns:dc="http://purl.org/dc/elements/1.1/"
   xmlns:cc="http://creativecommons.org/ns#"
   xmlns:rdf="http://www.w3.org/1999/02/22-rdf-syntax-ns#"
   xmlns:svg="http://www.w3.org/2000/svg"
   xmlns="http://www.w3.org/2000/svg"
   xmlns:xlink="http://www.w3.org/1999/xlink"
   xmlns:sodipodi="http://sodipodi.sourceforge.net/DTD/sodipodi-0.dtd"
   xmlns:inkscape="http://www.inkscape.org/namespaces/inkscape"
   sodipodi:docname="drive-harddisk-usb.svg"
   inkscape:version="0.48.4 r9939"
   version="1.1"
   id="svg2"
   height="48"
   width="48">
  <sodipodi:namedview
     id="base"
     pagecolor="#424242"
     bordercolor="#666666"
     borderopacity="1.0"
     inkscape:pageopacity="1"
     inkscape:pageshadow="2"
     inkscape:zoom="11.313709"
     inkscape:cx="-30.865194"
     inkscape:cy="31.973519"
     inkscape:document-units="px"
     inkscape:current-layer="layer1"
     showgrid="false"
     showborder="false"
     borderlayer="false"
     showguides="true"
     inkscape:guide-bbox="true"
     inkscape:window-width="1855"
     inkscape:window-height="1056"
     inkscape:window-x="65"
     inkscape:window-y="24"
     inkscape:window-maximized="1">
    <inkscape:grid
       spacingy="1px"
       spacingx="1px"
       snapvisiblegridlinesonly="true"
       enabled="true"
       visible="true"
       empspacing="5"
       id="grid3004"
       type="xygrid" />
  </sodipodi:namedview>
  <defs
     id="defs4">
    <linearGradient
       id="linearGradient5618">
      <stop
         id="stop5620"
         offset="0"
         style="stop-color:#ffffff;stop-opacity:1;" />
      <stop
         id="stop5622"
         offset="1"
         style="stop-color:#ebebeb;stop-opacity:1;" />
    </linearGradient>
    <linearGradient
       id="linearGradient3916">
      <stop
         id="stop3918"
         offset="0"
         style="stop-color:#c1c1c1;stop-opacity:1;" />
      <stop
         id="stop3920"
         offset="1"
         style="stop-color:#999999;stop-opacity:1;" />
    </linearGradient>
    <linearGradient
       id="linearGradient4452">
      <stop
         style="stop-color:#000000;stop-opacity:0.15853658;"
         offset="0"
         id="stop4454" />
      <stop
         style="stop-color:#000000;stop-opacity:0;"
         offset="1"
         id="stop4456" />
    </linearGradient>
    <linearGradient
       id="linearGradient4571">
      <stop
         id="stop4573"
         offset="0"
         style="stop-color:#ecf1f3;stop-opacity:1;" />
      <stop
         id="stop4575"
         offset="1"
         style="stop-color:#c5cacc;stop-opacity:1;" />
    </linearGradient>
    <linearGradient
       id="linearGradient4699"
       inkscape:collect="always">
      <stop
         id="stop4701"
         offset="0"
         style="stop-color:#19aeff;stop-opacity:1;" />
      <stop
         id="stop4703"
         offset="1"
         style="stop-color:#19aeff;stop-opacity:0;" />
    </linearGradient>
    <linearGradient
       id="linearGradient4691">
      <stop
         id="stop4693"
         offset="0"
         style="stop-color:#69caff;stop-opacity:1;" />
      <stop
         id="stop4695"
         offset="1"
         style="stop-color:#19aeff;stop-opacity:0;" />
    </linearGradient>
    <linearGradient
       id="linearGradient4665">
      <stop
         id="stop4667"
         offset="0"
         style="stop-color:#95dbff;stop-opacity:1;" />
      <stop
         id="stop4669"
         offset="1"
         style="stop-color:#006ba2;stop-opacity:1;" />
    </linearGradient>
    <linearGradient
       id="linearGradient4634">
      <stop
         id="stop4636"
         offset="0"
         style="stop-color:#000000;stop-opacity:0.38414633;" />
      <stop
         id="stop4638"
         offset="1"
         style="stop-color:#000000;stop-opacity:0;" />
    </linearGradient>
    <linearGradient
       gradientUnits="userSpaceOnUse"
       y2="28"
       x2="25"
       y1="3"
       x1="3"
       id="linearGradient3821-9"
       xlink:href="#linearGradient3815-5"
       inkscape:collect="always" />
    <linearGradient
       id="linearGradient3815-5"
       inkscape:collect="always">
      <stop
         id="stop3817-1"
         offset="0"
         style="stop-color:#ffffff;stop-opacity:1;" />
      <stop
         id="stop3819-9"
         offset="1"
         style="stop-color:#ffffff;stop-opacity:0;" />
    </linearGradient>
    <linearGradient
       gradientUnits="userSpaceOnUse"
       y2="1047.3622"
       x2="42.5"
       y1="1049.8622"
       x1="45"
       id="linearGradient4697"
       xlink:href="#linearGradient4691"
       inkscape:collect="always" />
    <linearGradient
       gradientUnits="userSpaceOnUse"
       y2="3"
       x2="27.5"
       y1="0.5"
       x1="27.5"
       id="linearGradient4705"
       xlink:href="#linearGradient4699"
       inkscape:collect="always" />
    <linearGradient
       gradientUnits="userSpaceOnUse"
       y2="1047.3622"
       x2="42.5"
       y1="1049.8622"
       x1="45"
       id="linearGradient4697-1"
       xlink:href="#linearGradient4691-0"
       inkscape:collect="always" />
    <linearGradient
       id="linearGradient4691-0"
       inkscape:collect="always">
      <stop
         id="stop4693-5"
         offset="0"
         style="stop-color:#19aeff;stop-opacity:1;" />
      <stop
         id="stop4695-5"
         offset="1"
         style="stop-color:#19aeff;stop-opacity:0;" />
    </linearGradient>
    <linearGradient
       inkscape:collect="always"
       xlink:href="#linearGradient4699-1"
       id="linearGradient12409"
       gradientUnits="userSpaceOnUse"
       x1="45"
       y1="1049.8622"
       x2="42.5"
       y2="1047.3622"
       gradientTransform="translate(0,-1004.3622)" />
    <linearGradient
       gradientUnits="userSpaceOnUse"
       y2="3"
       x2="27.5"
       y1="0.5"
       x1="27.5"
       id="linearGradient4705-1"
       xlink:href="#linearGradient4699-1"
       inkscape:collect="always" />
    <linearGradient
       id="linearGradient4699-1">
      <stop
         id="stop4701-3"
         offset="0"
         style="stop-color:#ffffff;stop-opacity:1;" />
      <stop
         id="stop4703-4"
         offset="1"
         style="stop-color:#ffffff;stop-opacity:0;" />
    </linearGradient>
    <linearGradient
       inkscape:collect="always"
       xlink:href="#linearGradient4699-1"
       id="linearGradient12443"
       gradientUnits="userSpaceOnUse"
       x1="27.5"
       y1="0.5"
       x2="27.5"
       y2="3" />
    <clipPath
       id="clipPath3856"
       clipPathUnits="userSpaceOnUse">
      <path
         inkscape:connector-curvature="0"
         id="path3858"
         d="m 27.84375,12.03125 -15.4375,15.4375 8.125,8.125 L 32.9375,48 46,48 c 1.108,0 2,-0.892 2,-2 l 0,-13.8125 -12.03125,-12.03125 -8.125,-8.125 z m 10.5625,2.4375 0,3.25 -1.625,1.625 L 48,30.5625 l 0,-6.5 -9.59375,-9.59375 z m -18.6875,21.9375 -8.9375,2.4375 -1.625,0 L 18.3125,48 l 13,0 -11.59375,-11.59375 z"
         style="opacity:0.3;fill:#000000;fill-opacity:1;stroke:none;display:inline" />
    </clipPath>
    <clipPath
       id="clipPath4492"
       clipPathUnits="userSpaceOnUse">
      <path
         id="path4494"
         d="m 28.28125,11 c -0.382978,-0.015 -0.701309,0.2118 -0.65625,0.625 l 0,0.9375 c 0.0028,0.107535 0.03337,0.206152 0.0625,0.28125 0.0077,0.0185 0.02221,0.04583 0.03125,0.0625 0.02417,0.04365 0.03048,0.09298 0.0625,0.125 l 0.09375,0.0625 1.6875,1.71875 c -0.09694,0.107303 -0.236384,0.234525 -0.40625,0.40625 l -2.28125,2.375 -6.4375,-6.4375 c -0.08266,-0.08266 -0.181553,-0.128868 -0.34375,-0.125 l -9.25,0 c -0.337919,-0.015 -0.585021,0.2799 -0.5625,0.625 l 0,1.03125 c -3.5e-4,0.08677 0.0032,0.174519 0.03125,0.25 0.02085,0.0575 0.05938,0.108056 0.09375,0.15625 0.01247,0.01766 0.0172,0.0463 0.03125,0.0625 0.0091,0.01035 0.02154,0.02154 0.03125,0.03125 l 0.15625,0.125 1.65625,1.65625 0,0.03125 0,21.53125 c -0.0083,0.0885 -0.01311,0.187768 0,0.25 0.0079,0.0311 0.01605,0.06838 0.03125,0.09375 0.01199,0.02047 0.01402,0.04527 0.03125,0.0625 L 23.40625,48 46,48 c 1.108,0 2,-0.892 2,-2 L 48,21.59375 37.65625,11.25 c -0.01519,-0.03494 -0.03721,-0.06556 -0.0625,-0.09375 -0.0095,-0.0095 -0.02057,-0.02275 -0.03125,-0.03125 -0.03337,-0.02893 -0.07961,-0.04528 -0.125,-0.0625 -0.0085,-0.0029 -0.02235,0.0024 -0.03125,0 -0.0577,-0.01753 -0.114282,-0.03502 -0.1875,-0.03125 L 28.28125,11 z"
         style="opacity:0.3;fill:#000000;fill-opacity:1;fill-rule:evenodd;stroke-width:0.25;display:inline"
         inkscape:connector-curvature="0" />
    </clipPath>
    <linearGradient
       gradientUnits="userSpaceOnUse"
       y2="1007.3218"
       x2="40.915409"
       y1="1049.3521"
       x1="40.915409"
       id="linearGradient6778"
       xlink:href="#linearGradient6772"
       inkscape:collect="always"
       gradientTransform="translate(7.7392578e-7,4.2609766e-5)" />
    <linearGradient
       id="linearGradient6772"
       inkscape:collect="always">
      <stop
         id="stop6774"
         offset="0"
         style="stop-color:#efe963;stop-opacity:1" />
      <stop
         id="stop6776"
         offset="1"
         style="stop-color:#fcf982;stop-opacity:1" />
    </linearGradient>
    <linearGradient
       y2="1007.3218"
       x2="40.915409"
       y1="1049.3521"
       x1="40.915409"
       gradientTransform="translate(-84.249997,-4.7499109)"
       gradientUnits="userSpaceOnUse"
       id="linearGradient3085"
       xlink:href="#linearGradient6772"
       inkscape:collect="always" />
    <clipPath
       clipPathUnits="userSpaceOnUse"
       id="clipPath4331">
      <path
         inkscape:connector-curvature="0"
         style="color:#000000;fill:#0e232e;fill-opacity:0.48709681;fill-rule:nonzero;stroke:none;stroke-width:0.5;marker:none;visibility:visible;display:inline"
         d="m 23.75,7.5625 c -3.451779,0 -6.25,2.7982 -6.25,6.25 l 0,4.6875 c 0,0.330092 0.136168,0.620764 0.34375,0.84375 0.01016,0.01092 0.02071,0.02071 0.03125,0.03125 L 20.96875,22.5 14.5,22.5 c -1.108,0 -2,0.892 -2,2 l 0,13.5 c 0,0.164967 0.02519,0.315591 0.0625,0.46875 0.0262,0.107537 0.05103,0.212656 0.09375,0.3125 0.03933,0.09214 0.104041,0.165705 0.15625,0.25 0.03201,0.05189 0.05727,0.107675 0.09375,0.15625 0.02233,0.02974 0.03857,0.06534 0.0625,0.09375 0.0417,0.04964 0.07872,0.110926 0.125,0.15625 0.04721,0.04594 0.104619,0.08384 0.15625,0.125 L 21.6875,48 46,48 c 1.108,0 2,-0.892 2,-2 L 48,29.25 28.4375,9.6875 C 28.344943,9.5817008 28.255631,9.4742937 28.15625,9.375 28.12092,9.339674 28.06741,9.315722 28.03125,9.28125 27.918981,9.1744958 27.807452,9.0669564 27.6875,8.96875 27.6578,8.944221 27.62391,8.930234 27.59375,8.90625 27.471947,8.81012 27.34765,8.7119582 27.21875,8.625 27.18719,8.603662 27.15696,8.58327 27.125,8.5625 26.990501,8.475245 26.860145,8.3893571 26.71875,8.3125 26.69063,8.297207 26.65338,8.296119 26.625,8.28125 26.494088,8.212761 26.35495,8.1529625 26.21875,8.09375 26.17651,8.075309 26.13647,8.048772 26.09375,8.03125 25.933803,7.965967 25.760065,7.8957447 25.59375,7.84375 25.57208,7.837004 25.553022,7.8190142 25.53125,7.8125 25.352378,7.7587466 25.185323,7.7251536 25,7.6875 24.9901,7.68547 24.97866,7.68948 24.96875,7.6875 24.77271,7.6487168 24.577293,7.6136138 24.375,7.59375 24.165984,7.5725195 23.964744,7.5625 23.75,7.5625 z"
         id="path4333" />
    </clipPath>
    <clipPath
       id="clipPath3071"
       clipPathUnits="userSpaceOnUse">
      <path
         inkscape:connector-curvature="0"
         style="opacity:0.25;color:#000000;fill:#000000;fill-opacity:1;fill-rule:nonzero;stroke:none;stroke-width:0.5;marker:none;visibility:visible;display:inline"
         d="m 24,6 c -3.313709,0 -6,2.6862912 -6,6 l 0,5 5,5 -9,0 c -1.108,0 -2,0.892 -2,2 l 0,14 c 0,0.421192 0.123088,0.803368 0.34375,1.125 0.07174,0.106367 0.159625,0.190875 0.25,0.28125 0.0056,0.0056 -0.0056,0.02572 0,0.03125 L 21.15625,48 46,48 c 1.108,0 2,-0.892 2,-2 L 48,27.5 28.25,7.75 C 27.164213,6.6642136 25.656854,6 24,6 z"
         id="path3073" />
    </clipPath>
    <linearGradient
       inkscape:collect="always"
       xlink:href="#linearGradient4452-1"
       id="linearGradient4458-2"
       x1="23"
       y1="1026.3622"
       x2="32.9375"
       y2="1026.3622"
       gradientUnits="userSpaceOnUse" />
    <linearGradient
       id="linearGradient4452-1">
      <stop
         style="stop-color:#000000;stop-opacity:0.15853658;"
         offset="0"
         id="stop4454-5" />
      <stop
         style="stop-color:#000000;stop-opacity:0;"
         offset="1"
         id="stop4456-0" />
    </linearGradient>
    <linearGradient
       gradientTransform="translate(0,-1004.3622)"
       y2="1026.3622"
       x2="32.9375"
       y1="1026.3622"
       x1="23"
       gradientUnits="userSpaceOnUse"
       id="linearGradient4475"
       xlink:href="#linearGradient4452-1"
       inkscape:collect="always" />
    <radialGradient
       gradientUnits="userSpaceOnUse"
       gradientTransform="matrix(1,0,0,0.0952381,0,38.904762)"
       r="21"
       fy="43"
       fx="24"
       cy="43"
       cx="24"
       id="radialGradient3914"
       xlink:href="#linearGradient4691"
       inkscape:collect="always" />
    <linearGradient
       gradientUnits="userSpaceOnUse"
       y2="1052.0516"
       x2="23.157747"
       y1="1004.7625"
       x1="23.157747"
       id="linearGradient3922"
       xlink:href="#linearGradient3916"
       inkscape:collect="always" />
    <linearGradient
       gradientUnits="userSpaceOnUse"
       y2="1052.0516"
       x2="23.157747"
       y1="1004.7625"
       x1="23.157747"
       id="linearGradient3922-9"
       xlink:href="#linearGradient3916-6"
       inkscape:collect="always" />
    <linearGradient
       id="linearGradient3916-6">
      <stop
         id="stop3918-1"
         offset="0"
         style="stop-color:#c1c1c1;stop-opacity:1;" />
      <stop
         id="stop3920-7"
         offset="1"
         style="stop-color:#999999;stop-opacity:1;" />
    </linearGradient>
    <linearGradient
       gradientTransform="translate(-15.202796,5.0381358)"
       inkscape:collect="always"
       xlink:href="#linearGradient3916-6"
       id="linearGradient3939"
       gradientUnits="userSpaceOnUse"
       x1="23.157747"
       y1="1004.7625"
       x2="23.157747"
       y2="1052.0516" />
    <linearGradient
       inkscape:collect="always"
       xlink:href="#linearGradient4699-1-7"
       id="linearGradient12443-7"
       gradientUnits="userSpaceOnUse"
       x1="27.5"
       y1="0.5"
       x2="27.5"
       y2="3" />
    <linearGradient
       id="linearGradient4699-1-7">
      <stop
         id="stop4701-3-9"
         offset="0"
         style="stop-color:#000000;stop-opacity:1;" />
      <stop
         id="stop4703-4-8"
         offset="1"
         style="stop-color:#000000;stop-opacity:0;" />
    </linearGradient>
    <linearGradient
       inkscape:collect="always"
       xlink:href="#linearGradient4699-1-7"
       id="linearGradient3973"
       gradientUnits="userSpaceOnUse"
       x1="26.527729"
       y1="46.285164"
       x2="26.527729"
       y2="40.475986" />
    <filter
       height="3.0639999"
       y="-1.0319999"
       width="1.2116923"
       x="-0.10584615"
       id="filter3994-0"
       inkscape:collect="always"
       color-interpolation-filters="sRGB">
      <feGaussianBlur
         id="feGaussianBlur3996-9"
         stdDeviation="1.72"
         inkscape:collect="always" />
    </filter>
    <linearGradient
       gradientUnits="userSpaceOnUse"
       y2="1052.0516"
       x2="23.157747"
       y1="1004.7625"
       x1="23.157747"
       id="linearGradient3922-2"
       xlink:href="#linearGradient3916-9"
       inkscape:collect="always" />
    <linearGradient
       id="linearGradient3916-9">
      <stop
         id="stop3918-8"
         offset="0"
         style="stop-color:#c1c1c1;stop-opacity:1;" />
      <stop
         id="stop3920-6"
         offset="1"
         style="stop-color:#999999;stop-opacity:1;" />
    </linearGradient>
    <linearGradient
       inkscape:collect="always"
       xlink:href="#linearGradient3916-9"
       id="linearGradient4575"
       gradientUnits="userSpaceOnUse"
       x1="23.157747"
       y1="1004.7625"
       x2="23.157747"
       y2="1052.0516"
       gradientTransform="translate(0,-1004.3622)" />
    <linearGradient
       gradientUnits="userSpaceOnUse"
       y2="1052.0516"
       x2="23.157747"
       y1="1004.7625"
       x1="23.157747"
       id="linearGradient3922-5"
       xlink:href="#linearGradient3916-93"
       inkscape:collect="always" />
    <linearGradient
       id="linearGradient3916-93">
      <stop
         id="stop3918-10"
         offset="0"
         style="stop-color:#c1c1c1;stop-opacity:1;" />
      <stop
         id="stop3920-2"
         offset="1"
         style="stop-color:#999999;stop-opacity:1;" />
    </linearGradient>
    <linearGradient
       inkscape:collect="always"
       xlink:href="#linearGradient3916-93"
       id="linearGradient5579"
       gradientUnits="userSpaceOnUse"
       x1="23.157747"
       y1="1004.7625"
       x2="23.157747"
       y2="1052.0516"
       gradientTransform="translate(0,-1004.3622)" />
    <linearGradient
       id="linearGradient5618-7">
      <stop
         id="stop5620-5"
         offset="0"
         style="stop-color:#ffffff;stop-opacity:1;" />
      <stop
         id="stop5622-8"
         offset="1"
         style="stop-color:#ebebeb;stop-opacity:1;" />
    </linearGradient>
    <linearGradient
       inkscape:collect="always"
       xlink:href="#linearGradient5618-7"
       id="linearGradient5641"
       gradientUnits="userSpaceOnUse"
       x1="23.496599"
       y1="8.4946308"
       x2="23.496599"
       y2="22.624882"
       gradientTransform="translate(-9.9965996,-6)" />
    <linearGradient
       gradientUnits="userSpaceOnUse"
       y2="1052.0516"
       x2="23.157747"
       y1="1004.7625"
       x1="23.157747"
       id="linearGradient3922-1"
       xlink:href="#linearGradient3916-8"
       inkscape:collect="always" />
    <linearGradient
       id="linearGradient3916-8">
      <stop
         id="stop3918-0"
         offset="0"
         style="stop-color:#c1c1c1;stop-opacity:1;" />
      <stop
         id="stop3920-3"
         offset="1"
         style="stop-color:#999999;stop-opacity:1;" />
    </linearGradient>
    <linearGradient
       gradientTransform="translate(0,-1004.3622)"
       y2="1052.0516"
       x2="23.157747"
       y1="1004.7625"
       x1="23.157747"
       gradientUnits="userSpaceOnUse"
       id="linearGradient4705-0"
       xlink:href="#linearGradient3916-8"
       inkscape:collect="always" />
    <filter
       inkscape:collect="always"
       id="filter4743"
       x="-0.16492955"
       width="1.3298591"
       y="-0.094308734"
       height="1.1886175">
      <feGaussianBlur
         inkscape:collect="always"
         stdDeviation="1.1002689"
         id="feGaussianBlur4745" />
    </filter>
    <clipPath
       clipPathUnits="userSpaceOnUse"
       id="clipPath4783">
      <path
         inkscape:connector-curvature="0"
         style="opacity:0.25;fill:#000000;fill-opacity:1;display:inline"
         d="m 24,6 c -1.10699,0 -2,0.886755 -2,2 0,0.5073146 0.190935,0.98963 0.5,1.34375 0.01927,0.021756 0.0423,0.041623 0.0625,0.0625 0.01043,0.010911 0.02058,0.02058 0.03125,0.03125 l 0.59375,0.59375 0,8.3125 -3.75,-3.75 C 19.075874,14.225093 18.584744,14 18.03125,14 16.92426,14 16,14.886754 16,16 c 0,0.163363 0.02514,0.31485 0.0625,0.46875 0.0125,0.05159 0.01491,0.106232 0.03125,0.15625 0.03706,0.113087 0.101289,0.20905 0.15625,0.3125 0.02547,0.04873 0.03335,0.109968 0.0625,0.15625 0.0076,0.01191 0.02338,0.01952 0.03125,0.03125 0.07483,0.113253 0.15507,0.217225 0.25,0.3125 L 17.15625,18 c 0.02324,0.09188 0.04076,0.197008 0.0625,0.40625 0.05003,0.48157 0.212246,1.54311 0.59375,2.5 0.0669,0.170451 0.13515,0.341272 0.21875,0.5 0.0836,0.157606 0.18154,0.28998 0.28125,0.4375 0.203022,0.304784 0.418851,0.575102 0.6875,0.84375 l 0.46875,0.4375 0.125,0.125 3.3125,3.34375 c 0.0221,0.137232 0.03125,0.282419 0.03125,0.46875 0,0.200134 -0.03387,0.376675 -0.0625,0.5 -0.02863,0.123325 -0.07301,0.206982 -0.125,0.28125 -0.0535,0.07574 -0.116298,0.133433 -0.1875,0.1875 -0.06501,0.0477 -0.143331,0.102176 -0.21875,0.15625 -0.881839,0.544113 -1.46875,1.511758 -1.46875,2.625 l 0,0.03125 0,0.03125 c 0,0.85995 0.342592,1.655092 0.90625,2.21875 L 36.6875,48 46,48 c 1.108,0 2,-0.892 2,-2 L 48,27.1875 31.40625,10.59375 C 31.045407,10.231105 30.548204,10 30,10 c -0.341086,0 -0.659492,0.09772 -0.9375,0.25 L 25.6875,6.875 C 25.319427,6.3434202 24.691869,6 24,6 z"
         id="path4785" />
    </clipPath>
    <filter
       inkscape:collect="always"
       id="filter3867"
       x="-0.066153846"
       width="1.1323077"
       y="-0.645"
       height="2.29">
      <feGaussianBlur
         inkscape:collect="always"
         stdDeviation="1.075"
         id="feGaussianBlur3869" />
    </filter>
  </defs>
  <metadata
     id="metadata7">
    <rdf:RDF>
      <cc:Work
         rdf:about="">
        <dc:format>image/svg+xml</dc:format>
        <dc:type
           rdf:resource="http://purl.org/dc/dcmitype/StillImage" />
        <dc:title />
      </cc:Work>
    </rdf:RDF>
  </metadata>
  <g
     style="display:inline"
     transform="translate(0,-1004.3622)"
     id="layer1"
     inkscape:groupmode="layer"
     inkscape:label="base">
    <path
       inkscape:connector-curvature="0"
       style="color:#000000;fill:url(#linearGradient3922);fill-opacity:1;fill-rule:nonzero;stroke:none;stroke-width:0.50000000000000000;marker:none;visibility:visible;display:inline;overflow:visible;enable-background:accumulate"
       d="m 2,1004.3622 44,0 c 1.108,0 2,0.892 2,2 l 0,44 c 0,1.108 -0.892,2 -2,2 l -44,0 c -1.108,0 -2,-0.892 -2,-2 l 0,-44 c 0,-1.108 0.892,-2 2,-2 z"
       id="rect3006-5" />
    <path
       id="rect3006-5-6"
       transform="translate(0,1004.3622)"
       d="M 0 39 L 0 43 C 0 44.108 0.892 45 2 45 L 46 45 C 47.108 45 48 44.108 48 43 L 48 39 C 48 40.108 47.108 41 46 41 L 2 41 C 0.892 41 0 40.108 0 39 z "
       style="color:#000000;fill:#0e232e;fill-opacity:1;fill-rule:nonzero;stroke:none;stroke-width:0.50000000000000000;marker:none;visibility:visible;display:inline;overflow:visible;enable-background:accumulate" />
    <rect
       ry="0.125"
       y="1045.3622"
       x="5"
       height="4"
       width="39"
       id="rect3992"
       style="opacity:0.59999999999999998;color:#000000;fill:#0084c8;fill-opacity:1;fill-rule:nonzero;stroke:none;stroke-width:4;marker:none;visibility:visible;display:inline;overflow:visible;enable-background:accumulate;filter:url(#filter3867)" />
    <rect
       ry="0.125"
       transform="translate(0,1004.3622)"
       y="41"
       x="3"
       height="4"
       width="42"
       id="rect3906"
       style="color:#000000;fill:url(#radialGradient3914);fill-opacity:1.0;fill-rule:nonzero;stroke:none;stroke-width:4;marker:none;visibility:visible;display:inline;overflow:visible;enable-background:accumulate" />
  </g>
  <g
     style="display:inline"
     inkscape:label="shadow"
     id="layer2"
     inkscape:groupmode="layer">
    <path
       style="opacity:0.25;fill:#000000;fill-opacity:1"
       d="M 24 6 C 22.89301 6 22 6.886755 22 8 C 22 8.5073146 22.190935 8.98963 22.5 9.34375 C 22.51927 9.365506 22.5423 9.385373 22.5625 9.40625 C 22.57293 9.417161 22.58308 9.42683 22.59375 9.4375 L 23.1875 10.03125 L 23.1875 18.34375 L 19.4375 14.59375 C 19.075874 14.225093 18.584744 14 18.03125 14 C 16.92426 14 16 14.886754 16 16 C 16 16.163363 16.02514 16.31485 16.0625 16.46875 C 16.075 16.52034 16.07741 16.574982 16.09375 16.625 C 16.13081 16.738087 16.195039 16.83405 16.25 16.9375 C 16.27547 16.98623 16.28335 17.047468 16.3125 17.09375 C 16.3201 17.10566 16.33588 17.11327 16.34375 17.125 C 16.41858 17.238253 16.49882 17.342225 16.59375 17.4375 L 17.15625 18 C 17.17949 18.09188 17.19701 18.197008 17.21875 18.40625 C 17.26878 18.88782 17.430996 19.94936 17.8125 20.90625 C 17.8794 21.076701 17.94765 21.247522 18.03125 21.40625 C 18.11485 21.563856 18.21279 21.69623 18.3125 21.84375 C 18.515522 22.148534 18.731351 22.418852 19 22.6875 L 19.46875 23.125 L 19.59375 23.25 L 22.90625 26.59375 C 22.92835 26.730982 22.9375 26.876169 22.9375 27.0625 C 22.9375 27.262634 22.90363 27.439175 22.875 27.5625 C 22.84637 27.685825 22.80199 27.769482 22.75 27.84375 C 22.6965 27.91949 22.633702 27.977183 22.5625 28.03125 C 22.49749 28.07895 22.419169 28.133426 22.34375 28.1875 C 21.461911 28.731613 20.875 29.699258 20.875 30.8125 L 20.875 30.84375 L 20.875 30.875 C 20.875 31.73495 21.217592 32.530092 21.78125 33.09375 L 36.6875 48 L 46 48 C 47.108 48 48 47.108 48 46 L 48 27.1875 L 31.40625 10.59375 C 31.045407 10.231105 30.548204 10 30 10 C 29.658914 10 29.340508 10.09772 29.0625 10.25 L 25.6875 6.875 C 25.319427 6.3434202 24.691869 6 24 6 z "
       id="path3254" />
    <path
       inkscape:connector-curvature="0"
       id="path906"
       d=""
       style="fill:#000000" />
    <flowRoot
       transform="translate(-18.261517,-1007.8751)"
       style="font-size:40px;font-style:normal;font-weight:normal;line-height:125%;letter-spacing:0px;word-spacing:0px;fill:#000000;fill-opacity:1;stroke:none;font-family:sans-serif"
       id="flowRoot61"
       xml:space="preserve"><flowRegion
         id="flowRegion63"><rect
           y="6.6342559"
           x="-53.033005"
           height="49.320694"
           width="57.6292"
           id="rect65" /></flowRegion><flowPara
         id="flowPara67" /></flowRoot>    <path
       inkscape:connector-curvature="0"
       d="m 32.005374,12.016513 c 0,-1.113244 -0.900604,-2.013846 -2.007594,-2.013846 -1.106989,0 -2.007591,0.900602 -2.007591,2.007591 0,0.756756 0.41903,1.4197 1.038194,1.763679 0.08131,0.09381 0.137592,0.281439 0.137592,0.375251 0,0.0062 0,0.01251 0,0.02502 -0.05003,1.100735 -0.237658,1.995084 -0.444046,2.607993 -0.26893,0.788027 -2.389097,2.476654 -3.220903,2.639263 -0.362743,0.07505 -0.49408,-0.03753 -0.49408,-0.637926 0,0 0,-8.687054 0,-8.780866 0,-0.093811 0.01251,-0.2188975 0.118828,-0.3127095 0,0 0,0 0,0 0.53786,-0.362744 0.894349,-0.975654 0.894349,-1.676121 0,-1.113245 -0.900602,-2.0138465 -2.007592,-2.0138465 -1.10699,0 -2.007592,0.9006015 -2.007592,2.0138465 0,0.706721 0.362743,1.332141 0.913111,1.688627 0,0 0.0062,0.0063 0.0062,0.0063 0.0062,0.0063 0.01251,0.0063 0.02502,0.0125 0.01251,0.0063 0.02502,0.0125 0.03753,0.02502 0.143846,0.09381 0.206389,0.187625 0.206389,0.2626745 0,0.0813 0,11.839163 0,12.276957 0,0.437792 -0.06879,0.769263 -0.525352,0.737993 -0.456555,-0.03127 -2.607993,-1.469734 -3.214649,-2.758093 -0.281437,-0.594148 -0.425284,-1.175786 -0.425284,-1.751172 h 0 c 0,0 0,-0.02502 0,-0.03127 0,-0.193882 0,-0.706723 0.200134,-0.850569 0.487825,-0.368997 0.800535,-0.950635 0.800535,-1.607324 0,-1.113245 -0.900602,-2.013847 -2.007591,-2.013847 -1.10699,0 -2.026355,0.888094 -2.026355,2.00134 0,0.744246 0.406522,1.39468 1.000668,1.738661 0.150101,0.09381 0.187626,0.181372 0.237658,0.662943 0.05003,0.48157 0.187627,1.538527 0.569131,2.495417 0.456555,1.163278 1.307123,2.038864 2.482909,2.826889 0.850569,0.581639 1.582308,1.038194 2.007593,1.651104 0.425284,0.61291 0.637926,0.844316 0.637926,1.688629 0,0 0,-0.05629 0,0 0,0.800535 -0.250167,0.875585 -0.581639,1.113245 -0.881839,0.544113 -1.469733,1.513512 -1.469733,2.626754 0,0.0062 0,0.01876 0,0.02502 0,0.01251 0,0.03127 0,0.04378 0,1.719901 1.394684,3.114583 3.114583,3.114583 1.719899,0 3.114581,-1.394682 3.114581,-3.114583 0,-0.831806 -0.325217,-1.588562 -0.856823,-2.145183 -0.18137,-0.200134 -0.37525,-0.375251 -0.6004,-0.519098 C 25.182017,27.895921 25.0069,27.501909 25.0069,27.089134 v -1.507258 c 0,-1.5698 0.256421,-2.570468 0.694214,-3.333479 0.456555,-0.79428 1.144515,-1.413445 2.213981,-2.138929 1.175785,-0.788027 2.013846,-1.663614 2.476655,-2.82689 0.356488,-0.900602 0.475317,-1.938795 0.537859,-3.183378 0.0062,-0.112574 0.08756,-0.362741 0.206388,-0.425283 h 0 c 0.519097,-0.362743 0.869332,-0.969398 0.869332,-1.657359 z"
       id="path3004-9"
       style="fill:#000000;fill-opacity:1;display:inline;filter:url(#filter4743);opacity:0.6"
       clip-path="url(#clipPath4783)" />
  </g>
  <g
     style="display:inline"
     inkscape:label="icon"
     id="layer3"
     inkscape:groupmode="layer">
    <path
       inkscape:connector-curvature="0"
       d="m 32.005374,12.016514 c 0,-1.113244 -0.900604,-2.013846 -2.007594,-2.013846 -1.106989,0 -2.007591,0.900602 -2.007591,2.007591 0,0.756756 0.41903,1.4197 1.038194,1.763678 0.08131,0.09381 0.137592,0.281439 0.137592,0.375251 0,0.0062 0,0.01251 0,0.02502 -0.05003,1.100736 -0.237658,1.995085 -0.444046,2.607994 -0.26893,0.788027 -2.389097,2.476654 -3.220903,2.639263 -0.362743,0.07505 -0.49408,-0.03753 -0.49408,-0.637926 0,0 0,-8.687055 0,-8.780867 0,-0.09381 0.01251,-0.218897 0.118828,-0.312709 0,0 0,0 0,0 0.53786,-0.362744 0.894349,-0.975654 0.894349,-1.676121 0,-1.113245 -0.900602,-2.0138465 -2.007592,-2.0138465 -1.10699,0 -2.007592,0.9006015 -2.007592,2.0138465 0,0.706721 0.362743,1.332141 0.913111,1.688627 0,0 0.0062,0.0063 0.0062,0.0063 0.0062,0.0063 0.01251,0.0063 0.02502,0.0125 0.01251,0.0063 0.02502,0.0125 0.03753,0.02502 0.143846,0.09381 0.206389,0.187625 0.206389,0.262675 0,0.0813 0,11.839163 0,12.276957 0,0.437792 -0.06879,0.769263 -0.525352,0.737993 -0.456555,-0.03127 -2.607993,-1.469734 -3.214649,-2.758093 -0.281437,-0.594148 -0.425284,-1.175786 -0.425284,-1.751172 h 0 c 0,0 0,-0.02502 0,-0.03127 0,-0.193882 0,-0.706723 0.200134,-0.850569 0.487825,-0.368997 0.800535,-0.950635 0.800535,-1.607324 0,-1.113245 -0.900602,-2.013847 -2.007591,-2.013847 -1.10699,0 -2.026355,0.888094 -2.026355,2.00134 0,0.744246 0.406522,1.39468 1.000668,1.738661 0.150101,0.09381 0.187626,0.181372 0.237658,0.662943 0.05003,0.48157 0.187627,1.538527 0.569131,2.495417 0.456555,1.163278 1.307123,2.038864 2.482909,2.826889 0.850569,0.581639 1.582308,1.038194 2.007593,1.651104 0.425284,0.61291 0.637926,0.844316 0.637926,1.688629 0,0 0,-0.05629 0,0 0,0.800535 -0.250167,0.875585 -0.581639,1.113245 -0.881839,0.544113 -1.469733,1.513512 -1.469733,2.626754 0,0.0062 0,0.01876 0,0.02502 0,0.01251 0,0.03127 0,0.04378 0,1.719901 1.394684,3.114583 3.114583,3.114583 1.719899,0 3.114581,-1.394682 3.114581,-3.114583 0,-0.831806 -0.325217,-1.588562 -0.856823,-2.145183 -0.18137,-0.200134 -0.37525,-0.375251 -0.6004,-0.519098 C 25.182017,27.895922 25.0069,27.50191 25.0069,27.089135 v -1.507258 c 0,-1.5698 0.256421,-2.570468 0.694214,-3.333479 0.456555,-0.79428 1.144515,-1.413445 2.213981,-2.138929 1.175785,-0.788027 2.013846,-1.663614 2.476655,-2.82689 0.356488,-0.900602 0.475317,-1.938795 0.537859,-3.183378 0.0062,-0.112574 0.08756,-0.362741 0.206388,-0.425283 h 0 c 0.519097,-0.362743 0.869332,-0.969398 0.869332,-1.657359 z"
       id="path3004"
       style="fill:#e6e6e6;fill-opacity:1" />
  </g>
  <g
     inkscape:label="hilight"
     id="layer4"
     inkscape:groupmode="layer"
     sodipodi:insensitive="true"
     style="display:inline">
    <path
       id="rect3006"
       d="M 2,0 C 0.892,0 0,0.892 0,2 l 0,44 c 0,1.108 0.892,2 2,2 l 44,0 c 1.108,0 2,-0.892 2,-2 L 48,2 C 48,0.892 47.108,0 46,0 L 2,0 z m 0,0.5 44,0 c 0.83101,0 1.5,0.6689904 1.5,1.5 l 0,44 c 0,0.83101 -0.66899,1.5 -1.5,1.5 l -44,0 C 1.1689904,47.5 0.5,46.83101 0.5,46 L 0.5,2 C 0.5,1.1689904 1.1689904,0.5 2,0.5 z"
       style="opacity:0.4;color:#000000;fill:url(#linearGradient12443);fill-opacity:1;fill-rule:nonzero;stroke:none;stroke-width:0.5;marker:none;visibility:visible;display:inline;overflow:visible;enable-background:accumulate"
       inkscape:connector-curvature="0" />
    <path
       id="rect3006-6"
       d="M 2,0 C 0.892,0 0,0.892 0,2 l 0,44 c 0,1.108 0.892,2 2,2 l 44,0 c 1.108,0 2,-0.892 2,-2 L 48,2 C 48,0.892 47.108,0 46,0 L 2,0 z m 0,0.5 44,0 c 0.83101,0 1.5,0.6689904 1.5,1.5 l 0,44 c 0,0.83101 -0.66899,1.5 -1.5,1.5 l -44,0 C 1.1689904,47.5 0.5,46.83101 0.5,46 L 0.5,2 C 0.5,1.1689904 1.1689904,0.5 2,0.5 z"
       style="opacity:0.4;color:#000000;fill:url(#linearGradient3973);fill-opacity:1;fill-rule:nonzero;stroke:none;stroke-width:0.5;marker:none;visibility:visible;display:inline;overflow:visible;enable-background:accumulate"
       inkscape:connector-curvature="0" />
  </g>
</svg>
