<?xml version="1.0" encoding="UTF-8" standalone="no"?>
<!-- Created with Inkscape (http://www.inkscape.org/) -->

<svg
   xmlns:dc="http://purl.org/dc/elements/1.1/"
   xmlns:cc="http://creativecommons.org/ns#"
   xmlns:rdf="http://www.w3.org/1999/02/22-rdf-syntax-ns#"
   xmlns:svg="http://www.w3.org/2000/svg"
   xmlns="http://www.w3.org/2000/svg"
   xmlns:xlink="http://www.w3.org/1999/xlink"
   xmlns:sodipodi="http://sodipodi.sourceforge.net/DTD/sodipodi-0.dtd"
   xmlns:inkscape="http://www.inkscape.org/namespaces/inkscape"
   width="48"
   height="48"
   id="svg2"
   version="1.1"
   inkscape:version="0.48.4 r9939"
   sodipodi:docname="drive-cd.svg">
  <sodipodi:namedview
     id="base"
     pagecolor="#424242"
     bordercolor="#666666"
     borderopacity="1.0"
     inkscape:pageopacity="1"
     inkscape:pageshadow="2"
     inkscape:zoom="11.313708"
     inkscape:cx="-17.992766"
     inkscape:cy="23.463255"
     inkscape:document-units="px"
     inkscape:current-layer="layer3"
     showgrid="false"
     showborder="false"
     borderlayer="false"
     showguides="true"
     inkscape:guide-bbox="true"
     inkscape:window-width="1855"
     inkscape:window-height="1056"
     inkscape:window-x="65"
     inkscape:window-y="24"
     inkscape:window-maximized="1">
    <inkscape:grid
       type="xygrid"
       id="grid3004"
       empspacing="5"
       visible="true"
       enabled="true"
       snapvisiblegridlinesonly="true"
       spacingx="1px"
       spacingy="1px" />
  </sodipodi:namedview>
  <defs
     id="defs4">
    <linearGradient
       id="linearGradient5509">
      <stop
         id="stop5511"
         offset="0"
         style="stop-color:#ff6c6c;stop-opacity:1;" />
      <stop
         style="stop-color:#ebc96c;stop-opacity:1;"
         offset="0.36363637"
         id="stop5517" />
      <stop
         id="stop5519"
         offset="0.63636363"
         style="stop-color:#b6e19a;stop-opacity:1;" />
      <stop
         style="stop-color:#a6cccc;stop-opacity:1;"
         offset="0.81818181"
         id="stop5521" />
      <stop
         id="stop5523"
         offset="0.90909094"
         style="stop-color:#be9ce5;stop-opacity:1;" />
      <stop
         id="stop5513"
         offset="1"
         style="stop-color:#d76cff;stop-opacity:1;" />
    </linearGradient>
    <linearGradient
       id="linearGradient5618">
      <stop
         style="stop-color:#ffffff;stop-opacity:1;"
         offset="0"
         id="stop5620" />
      <stop
         style="stop-color:#d0d0d0;stop-opacity:1;"
         offset="1"
         id="stop5622" />
    </linearGradient>
    <linearGradient
       id="linearGradient3916">
      <stop
         style="stop-color:#c1c1c1;stop-opacity:1;"
         offset="0"
         id="stop3918" />
      <stop
         style="stop-color:#999999;stop-opacity:1;"
         offset="1"
         id="stop3920" />
    </linearGradient>
    <linearGradient
       id="linearGradient4452">
      <stop
         id="stop4454"
         offset="0"
         style="stop-color:#000000;stop-opacity:0.15853658;" />
      <stop
         id="stop4456"
         offset="1"
         style="stop-color:#000000;stop-opacity:0;" />
    </linearGradient>
    <linearGradient
       id="linearGradient4571">
      <stop
         style="stop-color:#ecf1f3;stop-opacity:1;"
         offset="0"
         id="stop4573" />
      <stop
         style="stop-color:#c5cacc;stop-opacity:1;"
         offset="1"
         id="stop4575" />
    </linearGradient>
    <linearGradient
       inkscape:collect="always"
       id="linearGradient4699">
      <stop
         style="stop-color:#19aeff;stop-opacity:1;"
         offset="0"
         id="stop4701" />
      <stop
         style="stop-color:#19aeff;stop-opacity:0;"
         offset="1"
         id="stop4703" />
    </linearGradient>
    <linearGradient
       inkscape:collect="always"
       id="linearGradient4691">
      <stop
         style="stop-color:#19aeff;stop-opacity:1;"
         offset="0"
         id="stop4693" />
      <stop
         style="stop-color:#19aeff;stop-opacity:0;"
         offset="1"
         id="stop4695" />
    </linearGradient>
    <linearGradient
       id="linearGradient4665">
      <stop
         style="stop-color:#95dbff;stop-opacity:1;"
         offset="0"
         id="stop4667" />
      <stop
         style="stop-color:#006ba2;stop-opacity:1;"
         offset="1"
         id="stop4669" />
    </linearGradient>
    <linearGradient
       id="linearGradient4634">
      <stop
         style="stop-color:#000000;stop-opacity:0.38414633;"
         offset="0"
         id="stop4636" />
      <stop
         style="stop-color:#000000;stop-opacity:0;"
         offset="1"
         id="stop4638" />
    </linearGradient>
    <linearGradient
       inkscape:collect="always"
       xlink:href="#linearGradient3815-5"
       id="linearGradient3821-9"
       x1="3"
       y1="3"
       x2="25"
       y2="28"
       gradientUnits="userSpaceOnUse" />
    <linearGradient
       inkscape:collect="always"
       id="linearGradient3815-5">
      <stop
         style="stop-color:#ffffff;stop-opacity:1;"
         offset="0"
         id="stop3817-1" />
      <stop
         style="stop-color:#ffffff;stop-opacity:0;"
         offset="1"
         id="stop3819-9" />
    </linearGradient>
    <linearGradient
       inkscape:collect="always"
       xlink:href="#linearGradient4691"
       id="linearGradient4697"
       x1="45"
       y1="1049.8622"
       x2="42.5"
       y2="1047.3622"
       gradientUnits="userSpaceOnUse" />
    <linearGradient
       inkscape:collect="always"
       xlink:href="#linearGradient4699"
       id="linearGradient4705"
       x1="27.5"
       y1="0.5"
       x2="27.5"
       y2="3"
       gradientUnits="userSpaceOnUse" />
    <linearGradient
       inkscape:collect="always"
       xlink:href="#linearGradient4691-0"
       id="linearGradient4697-1"
       x1="45"
       y1="1049.8622"
       x2="42.5"
       y2="1047.3622"
       gradientUnits="userSpaceOnUse" />
    <linearGradient
       inkscape:collect="always"
       id="linearGradient4691-0">
      <stop
         style="stop-color:#19aeff;stop-opacity:1;"
         offset="0"
         id="stop4693-5" />
      <stop
         style="stop-color:#19aeff;stop-opacity:0;"
         offset="1"
         id="stop4695-5" />
    </linearGradient>
    <linearGradient
       gradientTransform="translate(0,-1004.3622)"
       y2="1047.3622"
       x2="42.5"
       y1="1049.8622"
       x1="45"
       gradientUnits="userSpaceOnUse"
       id="linearGradient12409"
       xlink:href="#linearGradient4699-1"
       inkscape:collect="always" />
    <linearGradient
       inkscape:collect="always"
       xlink:href="#linearGradient4699-1"
       id="linearGradient4705-1"
       x1="27.5"
       y1="0.5"
       x2="27.5"
       y2="3"
       gradientUnits="userSpaceOnUse" />
    <linearGradient
       id="linearGradient4699-1">
      <stop
         style="stop-color:#ffffff;stop-opacity:1;"
         offset="0"
         id="stop4701-3" />
      <stop
         style="stop-color:#ffffff;stop-opacity:0;"
         offset="1"
         id="stop4703-4" />
    </linearGradient>
    <linearGradient
       y2="3"
       x2="27.5"
       y1="0.5"
       x1="27.5"
       gradientUnits="userSpaceOnUse"
       id="linearGradient12443"
       xlink:href="#linearGradient4699-1"
       inkscape:collect="always" />
    <clipPath
       clipPathUnits="userSpaceOnUse"
       id="clipPath3856">
      <path
         style="opacity:0.3;fill:#000000;fill-opacity:1;stroke:none;display:inline"
         d="m 27.84375,12.03125 -15.4375,15.4375 8.125,8.125 L 32.9375,48 46,48 c 1.108,0 2,-0.892 2,-2 l 0,-13.8125 -12.03125,-12.03125 -8.125,-8.125 z m 10.5625,2.4375 0,3.25 -1.625,1.625 L 48,30.5625 l 0,-6.5 -9.59375,-9.59375 z m -18.6875,21.9375 -8.9375,2.4375 -1.625,0 L 18.3125,48 l 13,0 -11.59375,-11.59375 z"
         id="path3858"
         inkscape:connector-curvature="0" />
    </clipPath>
    <clipPath
       clipPathUnits="userSpaceOnUse"
       id="clipPath4492">
      <path
         inkscape:connector-curvature="0"
         style="opacity:0.3;fill:#000000;fill-opacity:1;fill-rule:evenodd;stroke-width:0.25;display:inline"
         d="m 28.28125,11 c -0.382978,-0.015 -0.701309,0.2118 -0.65625,0.625 l 0,0.9375 c 0.0028,0.107535 0.03337,0.206152 0.0625,0.28125 0.0077,0.0185 0.02221,0.04583 0.03125,0.0625 0.02417,0.04365 0.03048,0.09298 0.0625,0.125 l 0.09375,0.0625 1.6875,1.71875 c -0.09694,0.107303 -0.236384,0.234525 -0.40625,0.40625 l -2.28125,2.375 -6.4375,-6.4375 c -0.08266,-0.08266 -0.181553,-0.128868 -0.34375,-0.125 l -9.25,0 c -0.337919,-0.015 -0.585021,0.2799 -0.5625,0.625 l 0,1.03125 c -3.5e-4,0.08677 0.0032,0.174519 0.03125,0.25 0.02085,0.0575 0.05938,0.108056 0.09375,0.15625 0.01247,0.01766 0.0172,0.0463 0.03125,0.0625 0.0091,0.01035 0.02154,0.02154 0.03125,0.03125 l 0.15625,0.125 1.65625,1.65625 0,0.03125 0,21.53125 c -0.0083,0.0885 -0.01311,0.187768 0,0.25 0.0079,0.0311 0.01605,0.06838 0.03125,0.09375 0.01199,0.02047 0.01402,0.04527 0.03125,0.0625 L 23.40625,48 46,48 c 1.108,0 2,-0.892 2,-2 L 48,21.59375 37.65625,11.25 c -0.01519,-0.03494 -0.03721,-0.06556 -0.0625,-0.09375 -0.0095,-0.0095 -0.02057,-0.02275 -0.03125,-0.03125 -0.03337,-0.02893 -0.07961,-0.04528 -0.125,-0.0625 -0.0085,-0.0029 -0.02235,0.0024 -0.03125,0 -0.0577,-0.01753 -0.114282,-0.03502 -0.1875,-0.03125 L 28.28125,11 z"
         id="path4494" />
    </clipPath>
    <linearGradient
       gradientTransform="translate(7.7392578e-7,4.2609766e-5)"
       inkscape:collect="always"
       xlink:href="#linearGradient6772"
       id="linearGradient6778"
       x1="40.915409"
       y1="1049.3521"
       x2="40.915409"
       y2="1007.3218"
       gradientUnits="userSpaceOnUse" />
    <linearGradient
       inkscape:collect="always"
       id="linearGradient6772">
      <stop
         style="stop-color:#efe963;stop-opacity:1"
         offset="0"
         id="stop6774" />
      <stop
         style="stop-color:#fcf982;stop-opacity:1"
         offset="1"
         id="stop6776" />
    </linearGradient>
    <linearGradient
       inkscape:collect="always"
       xlink:href="#linearGradient6772"
       id="linearGradient3085"
       gradientUnits="userSpaceOnUse"
       gradientTransform="translate(-84.249997,-4.7499109)"
       x1="40.915409"
       y1="1049.3521"
       x2="40.915409"
       y2="1007.3218" />
    <clipPath
       id="clipPath4331"
       clipPathUnits="userSpaceOnUse">
      <path
         id="path4333"
         d="m 23.75,7.5625 c -3.451779,0 -6.25,2.7982 -6.25,6.25 l 0,4.6875 c 0,0.330092 0.136168,0.620764 0.34375,0.84375 0.01016,0.01092 0.02071,0.02071 0.03125,0.03125 L 20.96875,22.5 14.5,22.5 c -1.108,0 -2,0.892 -2,2 l 0,13.5 c 0,0.164967 0.02519,0.315591 0.0625,0.46875 0.0262,0.107537 0.05103,0.212656 0.09375,0.3125 0.03933,0.09214 0.104041,0.165705 0.15625,0.25 0.03201,0.05189 0.05727,0.107675 0.09375,0.15625 0.02233,0.02974 0.03857,0.06534 0.0625,0.09375 0.0417,0.04964 0.07872,0.110926 0.125,0.15625 0.04721,0.04594 0.104619,0.08384 0.15625,0.125 L 21.6875,48 46,48 c 1.108,0 2,-0.892 2,-2 L 48,29.25 28.4375,9.6875 C 28.344943,9.5817008 28.255631,9.4742937 28.15625,9.375 28.12092,9.339674 28.06741,9.315722 28.03125,9.28125 27.918981,9.1744958 27.807452,9.0669564 27.6875,8.96875 27.6578,8.944221 27.62391,8.930234 27.59375,8.90625 27.471947,8.81012 27.34765,8.7119582 27.21875,8.625 27.18719,8.603662 27.15696,8.58327 27.125,8.5625 26.990501,8.475245 26.860145,8.3893571 26.71875,8.3125 26.69063,8.297207 26.65338,8.296119 26.625,8.28125 26.494088,8.212761 26.35495,8.1529625 26.21875,8.09375 26.17651,8.075309 26.13647,8.048772 26.09375,8.03125 25.933803,7.965967 25.760065,7.8957447 25.59375,7.84375 25.57208,7.837004 25.553022,7.8190142 25.53125,7.8125 25.352378,7.7587466 25.185323,7.7251536 25,7.6875 24.9901,7.68547 24.97866,7.68948 24.96875,7.6875 24.77271,7.6487168 24.577293,7.6136138 24.375,7.59375 24.165984,7.5725195 23.964744,7.5625 23.75,7.5625 z"
         style="color:#000000;fill:#0e232e;fill-opacity:0.48709681;fill-rule:nonzero;stroke:none;stroke-width:0.5;marker:none;visibility:visible;display:inline"
         inkscape:connector-curvature="0" />
    </clipPath>
    <clipPath
       clipPathUnits="userSpaceOnUse"
       id="clipPath3071">
      <path
         id="path3073"
         d="m 24,6 c -3.313709,0 -6,2.6862912 -6,6 l 0,5 5,5 -9,0 c -1.108,0 -2,0.892 -2,2 l 0,14 c 0,0.421192 0.123088,0.803368 0.34375,1.125 0.07174,0.106367 0.159625,0.190875 0.25,0.28125 0.0056,0.0056 -0.0056,0.02572 0,0.03125 L 21.15625,48 46,48 c 1.108,0 2,-0.892 2,-2 L 48,27.5 28.25,7.75 C 27.164213,6.6642136 25.656854,6 24,6 z"
         style="opacity:0.25;color:#000000;fill:#000000;fill-opacity:1;fill-rule:nonzero;stroke:none;stroke-width:0.5;marker:none;visibility:visible;display:inline"
         inkscape:connector-curvature="0" />
    </clipPath>
    <linearGradient
       gradientUnits="userSpaceOnUse"
       y2="1026.3622"
       x2="32.9375"
       y1="1026.3622"
       x1="23"
       id="linearGradient4458-2"
       xlink:href="#linearGradient4452-1"
       inkscape:collect="always" />
    <linearGradient
       id="linearGradient4452-1">
      <stop
         id="stop4454-5"
         offset="0"
         style="stop-color:#000000;stop-opacity:0.15853658;" />
      <stop
         id="stop4456-0"
         offset="1"
         style="stop-color:#000000;stop-opacity:0;" />
    </linearGradient>
    <linearGradient
       inkscape:collect="always"
       xlink:href="#linearGradient4452-1"
       id="linearGradient4475"
       gradientUnits="userSpaceOnUse"
       x1="23"
       y1="1026.3622"
       x2="32.9375"
       y2="1026.3622"
       gradientTransform="translate(0,-1004.3622)" />
    <linearGradient
       inkscape:collect="always"
       xlink:href="#linearGradient3916"
       id="linearGradient3922"
       x1="23.157747"
       y1="1004.7625"
       x2="23.157747"
       y2="1052.0516"
       gradientUnits="userSpaceOnUse" />
    <linearGradient
       inkscape:collect="always"
       xlink:href="#linearGradient3916-6"
       id="linearGradient3922-9"
       x1="23.157747"
       y1="1004.7625"
       x2="23.157747"
       y2="1052.0516"
       gradientUnits="userSpaceOnUse" />
    <linearGradient
       id="linearGradient3916-6">
      <stop
         style="stop-color:#c1c1c1;stop-opacity:1;"
         offset="0"
         id="stop3918-1" />
      <stop
         style="stop-color:#999999;stop-opacity:1;"
         offset="1"
         id="stop3920-7" />
    </linearGradient>
    <linearGradient
       y2="1052.0516"
       x2="23.157747"
       y1="1004.7625"
       x1="23.157747"
       gradientUnits="userSpaceOnUse"
       id="linearGradient3939"
       xlink:href="#linearGradient3916-6"
       inkscape:collect="always"
       gradientTransform="translate(-15.202796,5.0381358)" />
    <linearGradient
       y2="3"
       x2="27.5"
       y1="0.5"
       x1="27.5"
       gradientUnits="userSpaceOnUse"
       id="linearGradient12443-7"
       xlink:href="#linearGradient4699-1-7"
       inkscape:collect="always" />
    <linearGradient
       id="linearGradient4699-1-7">
      <stop
         style="stop-color:#000000;stop-opacity:1;"
         offset="0"
         id="stop4701-3-9" />
      <stop
         style="stop-color:#000000;stop-opacity:0;"
         offset="1"
         id="stop4703-4-8" />
    </linearGradient>
    <linearGradient
       y2="40.475986"
       x2="26.527729"
       y1="46.285164"
       x1="26.527729"
       gradientUnits="userSpaceOnUse"
       id="linearGradient3973"
       xlink:href="#linearGradient4699-1-7"
       inkscape:collect="always" />
    <linearGradient
       inkscape:collect="always"
       xlink:href="#linearGradient3916-9"
       id="linearGradient3922-2"
       x1="23.157747"
       y1="1004.7625"
       x2="23.157747"
       y2="1052.0516"
       gradientUnits="userSpaceOnUse" />
    <linearGradient
       id="linearGradient3916-9">
      <stop
         style="stop-color:#c1c1c1;stop-opacity:1;"
         offset="0"
         id="stop3918-8" />
      <stop
         style="stop-color:#999999;stop-opacity:1;"
         offset="1"
         id="stop3920-6" />
    </linearGradient>
    <linearGradient
       gradientTransform="translate(0,-1004.3622)"
       y2="1052.0516"
       x2="23.157747"
       y1="1004.7625"
       x1="23.157747"
       gradientUnits="userSpaceOnUse"
       id="linearGradient4575"
       xlink:href="#linearGradient3916-9"
       inkscape:collect="always" />
    <linearGradient
       inkscape:collect="always"
       xlink:href="#linearGradient3916-93"
       id="linearGradient3922-5"
       x1="23.157747"
       y1="1004.7625"
       x2="23.157747"
       y2="1052.0516"
       gradientUnits="userSpaceOnUse" />
    <linearGradient
       id="linearGradient3916-93">
      <stop
         style="stop-color:#c1c1c1;stop-opacity:1;"
         offset="0"
         id="stop3918-10" />
      <stop
         style="stop-color:#999999;stop-opacity:1;"
         offset="1"
         id="stop3920-2" />
    </linearGradient>
    <linearGradient
       gradientTransform="translate(0,-1004.3622)"
       y2="1052.0516"
       x2="23.157747"
       y1="1004.7625"
       x1="23.157747"
       gradientUnits="userSpaceOnUse"
       id="linearGradient5579"
       xlink:href="#linearGradient3916-93"
       inkscape:collect="always" />
    <linearGradient
       id="linearGradient5618-7">
      <stop
         style="stop-color:#ffffff;stop-opacity:1;"
         offset="0"
         id="stop5620-5" />
      <stop
         style="stop-color:#d3d3d3;stop-opacity:1;"
         offset="1"
         id="stop5622-8" />
    </linearGradient>
    <linearGradient
       gradientTransform="translate(-9.9965996,-6)"
       y2="22.624882"
       x2="23.496599"
       y1="8.4946308"
       x1="23.496599"
       gradientUnits="userSpaceOnUse"
       id="linearGradient5641"
       xlink:href="#linearGradient5618-7"
       inkscape:collect="always" />
    <linearGradient
       inkscape:collect="always"
       xlink:href="#linearGradient3916-8"
       id="linearGradient3922-57"
       x1="23.157747"
       y1="1004.7625"
       x2="23.157747"
       y2="1052.0516"
       gradientUnits="userSpaceOnUse" />
    <linearGradient
       id="linearGradient3916-8">
      <stop
         style="stop-color:#c1c1c1;stop-opacity:1;"
         offset="0"
         id="stop3918-9" />
      <stop
         style="stop-color:#999999;stop-opacity:1;"
         offset="1"
         id="stop3920-78" />
    </linearGradient>
    <linearGradient
       inkscape:collect="always"
       xlink:href="#linearGradient3916-2"
       id="linearGradient3922-7"
       x1="23.157747"
       y1="1004.7625"
       x2="23.157747"
       y2="1052.0516"
       gradientUnits="userSpaceOnUse" />
    <linearGradient
       id="linearGradient3916-2">
      <stop
         style="stop-color:#c1c1c1;stop-opacity:1;"
         offset="0"
         id="stop3918-7" />
      <stop
         style="stop-color:#999999;stop-opacity:1;"
         offset="1"
         id="stop3920-9" />
    </linearGradient>
    <linearGradient
       inkscape:collect="always"
       xlink:href="#linearGradient3916-2-6"
       id="linearGradient5417-5"
       gradientUnits="userSpaceOnUse"
       x1="23.157747"
       y1="1004.7625"
       x2="23.157747"
       y2="1052.0516" />
    <linearGradient
       id="linearGradient3916-2-6">
      <stop
         style="stop-color:#c1c1c1;stop-opacity:1;"
         offset="0"
         id="stop3918-7-9" />
      <stop
         style="stop-color:#999999;stop-opacity:1;"
         offset="1"
         id="stop3920-9-9" />
    </linearGradient>
    <linearGradient
       id="linearGradient5509-4">
      <stop
         id="stop5511-4"
         offset="0"
         style="stop-color:#ff6c6c;stop-opacity:1;" />
      <stop
         style="stop-color:#ebc96c;stop-opacity:1;"
         offset="0.5"
         id="stop5517-2" />
      <stop
         id="stop5519-4"
         offset="0.75"
         style="stop-color:#b6e19a;stop-opacity:1;" />
      <stop
         style="stop-color:#a6cccc;stop-opacity:1;"
         offset="0.875"
         id="stop5521-9" />
      <stop
         id="stop5523-4"
         offset="0.9375"
         style="stop-color:#be9ce5;stop-opacity:1;" />
      <stop
         id="stop5513-1"
         offset="1"
         style="stop-color:#d76cff;stop-opacity:1;" />
    </linearGradient>
    <linearGradient
       inkscape:collect="always"
       xlink:href="#linearGradient5509-4"
       id="linearGradient5544"
       gradientUnits="userSpaceOnUse"
       x1="9"
       y1="12.531112"
       x2="25.5"
       y2="12.531112" />
    <linearGradient
       inkscape:collect="always"
       xlink:href="#linearGradient3916-1"
       id="linearGradient3922-96"
       x1="23.157747"
       y1="1004.7625"
       x2="23.157747"
       y2="1052.0516"
       gradientUnits="userSpaceOnUse" />
    <linearGradient
       id="linearGradient3916-1">
      <stop
         style="stop-color:#c1c1c1;stop-opacity:1;"
         offset="0"
         id="stop3918-2" />
      <stop
         style="stop-color:#999999;stop-opacity:1;"
         offset="1"
         id="stop3920-71" />
    </linearGradient>
    <linearGradient
       inkscape:collect="always"
       xlink:href="#linearGradient5618-7-6"
       id="linearGradient6087-6"
       x1="23.570755"
       y1="5.5707545"
       x2="23.570755"
       y2="32.578239"
       gradientUnits="userSpaceOnUse" />
    <linearGradient
       id="linearGradient5618-7-6">
      <stop
         style="stop-color:#ffffff;stop-opacity:1;"
         offset="0"
         id="stop5620-5-0" />
      <stop
         style="stop-color:#d3d3d3;stop-opacity:1;"
         offset="1"
         id="stop5622-8-6" />
    </linearGradient>
    <linearGradient
       gradientTransform="translate(-9.9999999,-6.0000001)"
       y2="32.578239"
       x2="23.570755"
       y1="5.5707545"
       x1="23.570755"
       gradientUnits="userSpaceOnUse"
       id="linearGradient6104"
       xlink:href="#linearGradient5618-7-6"
       inkscape:collect="always" />
    <linearGradient
       inkscape:collect="always"
       xlink:href="#linearGradient5618-7-61"
       id="linearGradient6087-0"
       x1="23.570755"
       y1="5.5707545"
       x2="23.570755"
       y2="32.578239"
       gradientUnits="userSpaceOnUse" />
    <linearGradient
       id="linearGradient5618-7-61">
      <stop
         style="stop-color:#ffffff;stop-opacity:1;"
         offset="0"
         id="stop5620-5-1" />
      <stop
         style="stop-color:#d3d3d3;stop-opacity:1;"
         offset="1"
         id="stop5622-8-7" />
    </linearGradient>
    <filter
       inkscape:collect="always"
       id="filter6156"
       x="-0.12"
       width="1.24"
       y="-0.12"
       height="1.24">
      <feGaussianBlur
         inkscape:collect="always"
         stdDeviation="1.4"
         id="feGaussianBlur6158" />
    </filter>
    <clipPath
       clipPathUnits="userSpaceOnUse"
       id="clipPath6178">
      <path
         inkscape:connector-curvature="0"
         style="opacity:0.25;color:#000000;fill:#000000;fill-opacity:1;fill-rule:nonzero;stroke:none;stroke-width:1;marker:none;visibility:visible;display:inline"
         d="m 24,6 c -3.582913,0 -7.17258,1.36008 -9.90625,4.09375 -5.4673401,5.46734 -5.4673401,14.34516 0,19.8125 L 32.21875,48 46,48 c 1.108,0 2,-0.892 2,-2 L 48,24.1875 33.90625,10.09375 C 31.172579,7.36008 27.582913,6 24,6 z"
         id="path6180" />
    </clipPath>
  </defs>
  <metadata
     id="metadata7">
    <rdf:RDF>
      <cc:Work
         rdf:about="">
        <dc:format>image/svg+xml</dc:format>
        <dc:type
           rdf:resource="http://purl.org/dc/dcmitype/StillImage" />
        <dc:title />
      </cc:Work>
    </rdf:RDF>
  </metadata>
  <g
     inkscape:label="base"
     inkscape:groupmode="layer"
     id="layer1"
     transform="translate(0,-1004.3622)"
     style="display:inline">
    <path
       id="rect3006-5"
       d="m 2,1004.3622 44,0 c 1.108,0 2,0.892 2,2 l 0,44 c 0,1.108 -0.892,2 -2,2 l -44,0 c -1.108,0 -2,-0.892 -2,-2 l 0,-44 c 0,-1.108 0.892,-2 2,-2 z"
       style="color:#000000;fill:url(#linearGradient3922);fill-opacity:1;fill-rule:nonzero;stroke:none;stroke-width:0.50000000000000000;marker:none;visibility:visible;display:inline;overflow:visible;enable-background:accumulate"
       inkscape:connector-curvature="0" />
    <path
       style="color:#000000;fill:#7c7c7c;fill-opacity:1;fill-rule:nonzero;stroke:none;stroke-width:0.50000000000000000;marker:none;visibility:visible;display:inline;overflow:visible;enable-background:accumulate"
       d="m 0,39 0,7 c 0,1.108 0.892,2 2,2 l 44,0 c 1.108,0 2,-0.892 2,-2 l 0,-7 c 0,1.108 -0.892,2 -2,2 L 2,41 C 0.892,41 0,40.108 0,39 z"
       transform="translate(0,1004.3622)"
       id="rect3006-5-6"
       inkscape:connector-curvature="0"
       sodipodi:nodetypes="csssscssc" />
  </g>
  <g
     inkscape:groupmode="layer"
     id="layer2"
     inkscape:label="shadow"
     style="display:inline">
    <path
       style="fill:#000000"
       d=""
       id="path906"
       inkscape:connector-curvature="0" />
    <flowRoot
       xml:space="preserve"
       id="flowRoot61"
       style="font-size:40px;font-style:normal;font-weight:normal;line-height:125%;letter-spacing:0px;word-spacing:0px;fill:#000000;fill-opacity:1;stroke:none;font-family:sans-serif"
       transform="translate(-18.261517,-1007.8751)"><flowRegion
         id="flowRegion63"><rect
           id="rect65"
           width="57.6292"
           height="49.320694"
           x="-53.033005"
           y="6.6342559" /></flowRegion><flowPara
         id="flowPara67" /></flowRoot>    <path
       style="color:#000000;fill:#000000;fill-opacity:1;fill-rule:nonzero;stroke:none;stroke-width:1;marker:none;visibility:visible;opacity:0.25"
       d="M 24 6 C 20.417087 6 16.82742 7.36008 14.09375 10.09375 C 8.6264099 15.56109 8.6264099 24.43891 14.09375 29.90625 L 32.21875 48 L 46 48 C 47.108 48 48 47.108 48 46 L 48 24.1875 L 33.90625 10.09375 C 31.172579 7.36008 27.582913 6 24 6 z "
       id="path5812" />
    <path
       inkscape:connector-curvature="0"
       style="color:#000000;fill:#000000;fill-opacity:1;fill-rule:nonzero;stroke:none;stroke-width:1;marker:none;visibility:visible;display:inline;overflow:visible;enable-background:accumulate;filter:url(#filter6156);opacity:0.6"
       d="m 33.899496,10.100505 c 5.467339,5.46734 5.467339,14.331651 0,19.798991 -5.467341,5.467339 -14.331651,5.467339 -19.798991,0 -5.4673401,-5.46734 -5.4673401,-14.331651 0,-19.798991 5.46734,-5.46734 14.33165,-5.46734 19.798991,0 z"
       id="path5069-2"
       clip-path="url(#clipPath6178)" />
    <path
       style="fill:#2d2d2d"
       d="M 1.01109,10.31486 1,9.62979 l 0.479741,0.013 c 0.466229,0.0126 0.482682,0.016 0.584216,0.11752 0.10252,0.10255 0.104476,0.11294 0.104476,0.55509 0,0.44205 -0.002,0.45256 -0.104402,0.55509 -0.101237,0.10134 -0.118612,0.10488 -0.573127,0.11697 L 1.02218,10.99996 1.01109,10.31489 z m 0.797949,0.30456 c 0.0505,-0.0944 0.0505,-0.51365 0,-0.60802 C 1.777769,9.953 1.729109,9.9385 1.564045,9.9385 l -0.205977,0 0,0.37692 0,0.37691 0.205977,0 c 0.165067,0 0.213726,-0.0145 0.244994,-0.0729 z m 0.755154,-0.30401 0,-0.67845 0.169612,0 0.169611,0 0,0.67845 0,0.67844 -0.169611,0 -0.169612,0 0,-0.67844 z m 0.880736,0.61164 C 3.400709,10.89125 3.346559,10.8267 3.324595,10.78365 3.261265,10.65951 3.231065,10.33852 3.260535,10.10269 3.282435,9.92741 3.311405,9.86219 3.412123,9.76147 3.533196,9.6404 3.545361,9.63696 3.852396,9.63696 c 0.235898,0 0.339329,0.0163 0.408951,0.0642 0.13084,0.0902 0.184832,0.16718 0.186222,0.26557 0.0011,0.0753 -0.01744,0.0848 -0.16438,0.0848 -0.112411,0 -0.172545,-0.0182 -0.187274,-0.0565 -0.01568,-0.0409 -0.07973,-0.0565 -0.231114,-0.0565 -0.190116,0 -0.212806,0.009 -0.246177,0.0967 -0.05268,0.13856 -0.04535,0.51791 0.0115,0.59567 0.03792,0.0519 0.09241,0.0635 0.254416,0.0543 0.180881,-0.0102 0.207636,-0.0221 0.218203,-0.0965 0.0098,-0.0691 -0.0059,-0.0848 -0.08481,-0.0848 -0.08248,0 -0.09685,-0.0168 -0.09685,-0.11307 l 0,-0.11307 0.26384,0 0.26384,0 0,0.19218 c 0,0.23244 -0.08355,0.42302 -0.210893,0.48104 -0.153721,0.07 -0.697198,0.0537 -0.792941,-0.0239 z m 1.35161,-0.60222 0.01029,-0.66902 0.179033,-0.0115 0.179035,-0.0115 0,0.68051 0,0.68051 -0.189327,0 -0.189327,0 0.01029,-0.66902 z M 5.834986,10.4756 5.824496,9.95734 5.645462,9.94584 5.466428,9.93434 l 0,-0.1487 0,-0.1487 0.52768,0 0.527679,0 0,0.15077 0,0.15076 -0.169611,0 -0.169611,0 0,0.52768 0,0.52768 -0.168548,0 -0.168548,0 -0.01049,-0.51825 z m 0.697135,0.45229 c 0.01052,-0.0363 0.06519,-0.22709 0.121501,-0.42403 0.05631,-0.19693 0.136137,-0.47255 0.177401,-0.61248 l 0.07502,-0.25442 0.272893,0 0.272893,0 0.122507,0.44288 c 0.06738,0.24358 0.15329,0.54888 0.190914,0.67844 l 0.06841,0.23557 -0.181106,0 c -0.167342,0 -0.184102,-0.009 -0.220525,-0.11307 -0.03786,-0.10862 -0.04829,-0.11308 -0.264532,-0.11308 -0.21948,0 -0.225735,0.003 -0.249949,0.11308 -0.02359,0.10738 -0.03439,0.11307 -0.214694,0.11307 -0.162974,0 -0.18715,-0.009 -0.170735,-0.066 z m 0.77757,-0.50883 C 7.303191,10.26677 7.219981,9.96375 7.181123,9.95088 7.142013,9.93788 7.009431,10.45126 7.043168,10.485 c 0.01038,0.0104 0.0754,0.0189 0.144504,0.0189 0.106235,0 0.125079,-0.0131 0.122019,-0.0848 z m 0.795138,-0.10365 0,-0.67845 0.188457,0 0.188457,0 0,0.52768 0,0.52768 0.301531,0 0.301532,0 0,0.15077 0,0.15076 -0.489989,0 -0.489988,0 0,-0.67844 z m 2.354535,0.61248 c 0.01415,-0.0363 0.06499,-0.21013 0.112976,-0.38633 0.04798,-0.17621 0.126422,-0.45183 0.174307,-0.61249 l 0.08707,-0.29211 0.270739,0 c 0.225581,0 0.273863,0.011 0.289473,0.066 0.0103,0.0363 0.08728,0.3119 0.171056,0.61249 0.08378,0.30059 0.163944,0.5762 0.17815,0.61248 0.02256,0.0576 0.0013,0.066 -0.167602,0.066 -0.184771,0 -0.194444,-0.005 -0.216046,-0.11307 -0.02225,-0.11127 -0.0264,-0.11308 -0.259903,-0.11308 -0.233007,0 -0.237736,0.002 -0.262124,0.11308 -0.02358,0.10735 -0.03443,0.11307 -0.214329,0.11307 -0.165147,0 -0.186188,-0.008 -0.163762,-0.066 z m 0.770233,-0.50883 c -0.0067,-0.15615 -0.09018,-0.44741 -0.128302,-0.44741 -0.03812,0 -0.121639,0.29126 -0.128301,0.44741 -0.0031,0.0725 0.01555,0.0848 0.128301,0.0848 0.112751,0 0.131395,-0.0123 0.128302,-0.0848 z m 0.93648,0.53408 c -0.144944,-0.0844 -0.179033,-0.2342 -0.179033,-0.78663 l 0,-0.52955 0.169611,0 0.169611,0 0,0.48537 c 0,0.55993 0.01058,0.58052 0.28918,0.56275 l 0.181962,-0.0116 0.01049,-0.51825 0.01049,-0.51826 0.190109,0 0.190109,0 -0.01214,0.56856 -0.01214,0.56855 -0.123091,0.10989 c -0.1174,0.10481 -0.139186,0.10984 -0.471143,0.10875 -0.191428,-6.3e-4 -0.377733,-0.0184 -0.414011,-0.0396 z m 1.404005,-0.63853 0,-0.6854 0.470306,0.0133 c 0.455702,0.0129 0.473549,0.0165 0.574794,0.11781 0.102535,0.10255 0.104488,0.11293 0.104488,0.55509 0,0.44205 -0.002,0.45256 -0.104402,0.55509 -0.101279,0.10138 -0.118474,0.10488 -0.574794,0.117 L 13.570082,11 l 0,-0.68539 z m 0.783982,0.33248 c 0.0559,-0.0559 0.06058,-0.53411 0.0062,-0.63569 C 14.328994,9.953 14.280334,9.9385 14.11527,9.9385 l -0.205977,0 0,0.37692 0,0.37691 0.199764,0 c 0.109871,0 0.220118,-0.0204 0.244995,-0.0452 z m 0.750601,-0.32224 0.0081,-0.66904 0.170953,-0.0115 0.170953,-0.0115 0,0.68051 0,0.68051 -0.179035,2e-5 -0.179034,3e-5 0.0081,-0.66905 z m 0.89139,0.62492 c -0.113942,-0.0552 -0.170958,-0.19989 -0.192843,-0.48948 -0.02809,-0.37174 0.01503,-0.58965 0.141758,-0.71638 0.100938,-0.10094 0.125214,-0.10695 0.432094,-0.10695 0.545416,0 0.622936,0.0849 0.622936,0.68209 0,0.41865 -0.0451,0.55635 -0.20625,0.62977 -0.119761,0.0546 -0.685569,0.0552 -0.797695,9.5e-4 z m 0.619493,-0.30268 c 0.06169,-0.0617 0.05927,-0.56191 -0.0031,-0.64726 -0.03729,-0.051 -0.09123,-0.0634 -0.235572,-0.0543 l -0.187209,0.0118 -0.01105,0.31722 c -0.0061,0.17448 -0.0024,0.33985 0.0082,0.3675 0.0246,0.0641 0.365657,0.0681 0.428722,0.005 z M 1.414605,9.07375 C 1.311152,9.03155 1.130143,8.84518 1.089797,8.73934 1.071507,8.69134 1.056537,7.55322 1.056537,6.21016 l 0,-2.44191 0.0848,-0.1246 C 1.187977,3.57515 1.273993,3.48356 1.332476,3.44019 1.433792,3.36509 1.491153,3.36079 2.548024,3.34979 l 1.109215,-0.0115 0,-0.81014 c 0,-0.90988 0.01974,-0.9974 0.246286,-1.09206 0.185518,-0.0775 1.222827,-0.0754 1.374028,0.003 0.241738,0.12501 0.226564,-0.12784 0.226564,3.77529 0,2.21559 -0.01382,3.58735 -0.03675,3.64766 -0.02021,0.0532 -0.0923,0.13053 -0.160189,0.17192 C 5.188102,9.10656 5.1185,9.10916 3.336863,9.10696 2.32108,9.10596 1.456062,9.09086 1.414601,9.07396 z m 3.731449,-3.82784 0,-3.5053 -0.565371,0 -0.565371,0 -0.01006,0.97056 -0.01006,0.97055 -1.200406,0 c -1.157346,0 -1.203968,0.003 -1.299717,0.0781 l -0.09931,0.0781 0,2.3892 0,2.3892 0.08288,0.0772 c 0.08144,0.0759 0.113957,0.077 1.875147,0.0674 l 1.79227,-0.01 0,-3.5053 z M 2.630747,8.20778 2.507656,8.0978 l 0,-1.79653 0,-1.79652 0.125941,-0.11253 0.125942,-0.11253 0.603273,0.012 0.603273,0.012 0.08696,0.10917 c 0.04783,0.06 0.09707,0.15969 0.10942,0.22143 0.01235,0.0617 0.02208,0.82676 0.02163,1.70002 -7.76e-4,1.48776 -0.0054,1.59786 -0.07367,1.74822 -0.04541,0.10004 -0.109892,0.17456 -0.171237,0.19788 -0.05412,0.0206 -0.342964,0.0374 -0.641877,0.0374 l -0.543477,0 L 2.630742,8.20783 z M 3.800471,7.93331 c 0.05279,-0.0528 0.06565,-3.18108 0.01341,-3.2634 -0.02287,-0.036 -0.149616,-0.0456 -0.498834,-0.0377 l -0.468169,0.0106 -0.0098,1.62073 c -0.0054,0.8914 -0.0017,1.64193 0.0082,1.66785 0.02486,0.0648 0.890579,0.0665 0.95519,0.002 z m 2.280884,1.1208 C 5.835511,8.94719 5.843345,9.03971 5.843345,6.24288 c 0,-2.82914 -0.0099,-2.72041 0.258387,-2.84139 0.120094,-0.0541 0.24846,-0.0619 0.855471,-0.0519 0.644624,0.0106 0.724019,0.0191 0.815249,0.0872 0.05559,0.0415 0.119195,0.11434 0.141343,0.16196 0.02736,0.0588 0.03984,0.90475 0.03893,2.6384 -0.0014,2.75988 0.0062,2.6573 -0.208509,2.79883 -0.09969,0.0657 -0.180805,0.0727 -0.826669,0.0716 -0.525046,-9e-4 -0.748173,-0.0152 -0.836195,-0.0534 z M 7.569611,8.72483 c 0.06538,-0.0654 0.06538,-4.9325 0,-4.99788 -0.06348,-0.0635 -1.278331,-0.0635 -1.341814,0 -0.06538,0.0654 -0.06538,4.9325 0,4.99788 0.03155,0.0316 0.234524,0.0452 0.670907,0.0452 0.436383,0 0.639361,-0.0137 0.670907,-0.0452 z M 8.620458,9.01237 C 8.542018,8.95907 8.461753,8.87315 8.442097,8.82146 8.422437,8.76976 8.406357,8.5358 8.406357,8.30155 c 0,-0.37984 0.0088,-0.43716 0.08171,-0.5298 C 8.644344,7.57308 8.733496,7.55964 9.8513042,7.56632 l 1.0238388,0.006 0.01122,-0.23039 0.01122,-0.2304 -1.0621318,0 C 8.822801,7.11153 8.767363,7.10753 8.64546,7.03253 8.404156,6.88339 8.406353,6.90026 8.406353,5.19624 c 0,-1.5068 0.0018,-1.54443 0.07871,-1.6422 0.167074,-0.2124 0.160323,-0.21163 1.861735,-0.21163 1.700771,0 1.737438,0.004 1.897749,0.20782 0.0737,0.0937 0.08171,0.14905 0.08171,0.56485 0,0.4104 -0.0086,0.47196 -0.07871,0.56104 -0.159252,0.20246 -0.21385,0.21163 -1.259261,0.21163 l -0.9648,0 0.01122,0.23558 0.01122,0.23557 1.055359,0 c 1.126554,0 1.147879,0.003 1.297431,0.1933 0.07644,0.0972 0.0783,0.13691 0.07806,1.66808 -2.41e-4,1.48698 -0.004,1.57428 -0.07311,1.67907 -0.138574,0.21021 -0.109207,0.20706 -1.943803,0.20851 l -1.696786,10e-4 -0.142624,-0.0969 z m 3.457731,-0.26519 c 0.05296,-0.0203 0.05962,-0.18784 0.05962,-1.50012 0,-1.08281 -0.01185,-1.48908 -0.04437,-1.52161 -0.03319,-0.0332 -0.341963,-0.0383 -1.224971,-0.0203 l -1.1805998,0.0241 0,-0.5903 0,-0.5903 1.1043578,0 c 0.80869,0 1.116467,-0.0121 1.149588,-0.0452 0.06136,-0.0614 0.06136,-0.71508 0,-0.77644 -0.06499,-0.065 -3.086009,-0.065 -3.151001,0 -0.03362,0.0336 -0.04523,0.42017 -0.04523,1.50633 0,1.40597 0.0028,1.46257 0.07291,1.50012 0.04577,0.0245 0.508756,0.039 1.243816,0.039 l 1.170911,0 0,0.56537 0,0.56537 -0.122496,0.001 c -0.06737,6.8e-4 -0.529565,0.002 -1.027092,0.003 -0.4975258,0.001 -0.997879,0.0132 -1.111896,0.027 L 8.764434,7.9593 8.753484,8.31676 c -0.0093,0.30359 -0.0011,0.36465 0.05432,0.40518 0.0502,0.0367 0.428527,0.0477 1.638024,0.0477 0.865014,0 1.599581,-0.0103 1.632372,-0.0229 z m 0.847787,0.21685 -0.147413,-0.14741 0,-2.59676 c 0,-2.33972 0.0061,-2.60544 0.06146,-2.6845 0.131021,-0.18706 0.19068,-0.19286 1.982673,-0.19286 1.545051,0 1.679226,0.005 1.798063,0.0689 0.25625,0.13743 0.266164,0.19135 0.266164,1.44762 l 0,1.12191 -0.79152,0 -0.791519,0 L 15.30331,5.3119 C 15.30302,4.94394 15.28892,4.62112 15.27204,4.59451 15.24922,4.55851 15.126161,4.54891 14.792052,4.55681 l -0.4493,0.0107 0,1.65842 0,1.65842 0.480566,0.0105 0.480565,0.0105 0,-0.67957 0,-0.67957 0.793083,0 0.793084,0 -0.01099,1.14891 -0.01099,1.14892 -0.123195,0.12317 -0.123195,0.12317 -1.774151,0.0105 -1.774151,0.0105 -0.147412,-0.14741 z m 3.576497,-0.2392 c 0.03265,-0.0326 0.04523,-0.29483 0.04523,-0.94229 l 0,-0.89705 -0.43067,0 -0.430671,0 -0.0122,0.546 -0.0122,0.54601 -0.141868,0.14186 -0.141868,0.14187 -0.460484,0.0128 c -0.543857,0.0151 -0.705258,-0.0228 -0.837828,-0.19658 l -0.09522,-0.12484 0,-1.72215 c 0,-1.53627 0.0067,-1.73239 0.06213,-1.81698 0.113608,-0.17339 0.230993,-0.20405 0.781158,-0.20405 0.492838,0 0.511275,0.003 0.625134,0.0987 0.202896,0.17072 0.227687,0.26032 0.227687,0.82285 l 0,0.5107 0.433451,0 0.433451,0 0,-0.91623 c 0,-0.67361 -0.01248,-0.93324 -0.04711,-0.98046 -0.04334,-0.0591 -0.179904,-0.0634 -1.705536,-0.0543 l -1.658422,0.01 -0.0097,2.48344 c -0.007,1.80309 0.002,2.49749 0.03288,2.53474 0.05859,0.0706 3.272286,0.0764 3.342653,0.006 z M 6.484695,2.89134 C 6.412465,2.87324 6.31494,2.81374 6.267969,2.75913 c -0.07802,-0.0907 -0.0854,-0.13669 -0.0854,-0.53234 0,-0.40558 0.0057,-0.43875 0.08949,-0.52256 0.110032,-0.11003 0.372184,-0.15529 0.635538,-0.10972 0.210937,0.0365 0.306102,0.13022 0.34927,0.34398 l 0.02474,0.1225 -0.170067,0 c -0.136897,0 -0.174726,-0.0147 -0.193963,-0.0753 -0.03004,-0.0946 -0.184346,-0.13573 -0.304338,-0.0811 -0.08489,0.0387 -0.09145,0.0618 -0.09145,0.32247 0,0.30955 0.04758,0.39926 0.211748,0.39926 0.06419,0 0.113321,-0.0352 0.157496,-0.11284 0.05546,-0.0975 0.08603,-0.11286 0.224396,-0.11307 0.135983,-1.9e-4 0.160188,0.0113 0.160188,0.0764 0,0.12279 -0.100297,0.32852 -0.181302,0.37187 -0.106487,0.057 -0.455129,0.0814 -0.609621,0.0427 z m 1.499612,7.8e-4 C 7.907657,2.87722 7.818899,2.84342 7.787073,2.81702 7.700973,2.74562 7.652971,2.52918 7.652801,2.21179 7.652608,1.84196 7.727081,1.68451 7.935218,1.61469 c 0.149279,-0.0501 0.563332,-0.0415 0.708108,0.0147 0.13066,0.0507 0.17764,0.21863 0.17764,0.63494 0,0.35592 -0.0085,0.40537 -0.08481,0.49383 C 8.608928,2.90564 8.319221,2.95726 7.984303,2.89213 z M 8.408838,2.58734 c 0.06267,-0.0335 0.0729,-0.081 0.0729,-0.33789 0,-0.33038 -0.03194,-0.37692 -0.25867,-0.37692 -0.18063,0 -0.231318,0.0826 -0.231318,0.37692 0,0.1847 0.0169,0.27535 0.05923,0.31768 0.06759,0.0676 0.250075,0.0779 0.357854,0.0202 z m 6.186791,0.30524 C 14.42433,2.84948 14.330953,2.75455 14.281683,2.57326 c -0.05527,-0.20336 -0.02014,-0.71399 0.05724,-0.83209 0.09949,-0.15185 0.450922,-0.21306 0.748592,-0.1304 0.154073,0.0428 0.232474,0.13718 0.272201,0.32772 l 0.02554,0.1225 -0.191451,0 c -0.162718,0 -0.191452,-0.0107 -0.191452,-0.0713 0,-0.0769 -0.06968,-0.11711 -0.202847,-0.11711 -0.141627,0 -0.174067,0.0718 -0.174067,0.38526 0,0.27788 0.0054,0.29727 0.09423,0.33774 0.123233,0.0562 0.282686,-0.011 0.282686,-0.11913 0,-0.0663 0.02446,-0.0762 0.188457,-0.0762 0.158264,0 0.188457,0.0112 0.188457,0.0698 0,0.14257 -0.0867,0.31107 -0.18665,0.36276 -0.133361,0.069 -0.438875,0.0996 -0.596991,0.0599 z m -5.322366,-0.64097 0,-0.64292 0.257769,0 0.2577692,0 0.123795,0.42403 c 0.06809,0.23322 0.1326328,0.4391 0.1434358,0.45751 0.02113,0.036 0.267352,-0.70602 0.270621,-0.81558 0.0017,-0.0564 0.04041,-0.066 0.265809,-0.066 l 0.263839,0 0,0.64076 0,0.64075 -0.150765,0 -0.150766,0 0,-0.43345 c 0,-0.45337 -0.04164,-0.55352 -0.113616,-0.27326 -0.02263,0.0881 -0.0784,0.27891 -0.12395,0.42403 l -0.08281,0.26384 -0.168498,0 -0.1684988,0 -0.06459,-0.22615 c -0.03552,-0.12438 -0.09539,-0.32792 -0.133032,-0.4523 l -0.06844,-0.22615 -0.01885,0.4523 -0.01885,0.4523 -0.1601892,0.0116 -0.160188,0.0116 0,-0.64293 z m 2.073027,-0.005 0,-0.64391 0.455646,0.0126 c 0.445716,0.0123 0.457628,0.0149 0.546525,0.11833 0.07167,0.0834 0.09088,0.1486 0.09088,0.3085 0,0.38789 -0.07432,0.46315 -0.491909,0.49816 l -0.261919,0.022 0,0.16415 0,0.16414 -0.169611,0 -0.169611,0 0,-0.64391 z m 0.708598,-0.004 c 0.02488,-0.0249 0.04523,-0.0978 0.04523,-0.16207 0,-0.15788 -0.06021,-0.20731 -0.252533,-0.20731 l -0.162073,0 0,0.18218 c 0,0.1002 0.01131,0.19348 0.02513,0.2073 0.04258,0.0426 0.29639,0.0278 0.344248,-0.0201 z m 0.620304,0.60118 c 0.0098,-0.0259 0.06325,-0.20825 0.11885,-0.40518 0.05559,-0.19694 0.135839,-0.46479 0.17832,-0.59522 l 0.07724,-0.23715 0.269036,0.011 0.269036,0.011 0.159883,0.54653 c 0.08794,0.30058 0.170623,0.58468 0.183749,0.63133 0.0223,0.0792 0.01232,0.0848 -0.151792,0.0848 -0.161289,0 -0.178883,-0.009 -0.215076,-0.11307 -0.03756,-0.10775 -0.04951,-0.11308 -0.253616,-0.11308 -0.203386,0 -0.216353,0.006 -0.256879,0.11308 -0.03907,0.10351 -0.05763,0.11307 -0.219598,0.11307 -0.125883,0 -0.171793,-0.0136 -0.15915,-0.0471 z m 0.781816,-0.4634 c 0,-0.0856 -0.129117,-0.50716 -0.155348,-0.50716 -0.01821,0 -0.03371,0.0212 -0.03445,0.0471 -7.39e-4,0.0259 -0.02465,0.14464 -0.05314,0.26384 l -0.05179,0.21672 0.147365,0 c 0.08105,0 0.147366,-0.009 0.147366,-0.0205 z m 2.600707,0.002 0,-0.50884 -0.169612,0 c -0.168713,0 -0.169611,-7e-4 -0.169611,-0.13192 l 0,-0.13192 0.508834,0 0.508834,0 0,0.13192 c 0,0.13122 -8.97e-4,0.13192 -0.169611,0.13192 l -0.169611,0 0,0.50884 0,0.50883 -0.169612,0 -0.169611,0 0,-0.50883 z"
       id="path3194"
       inkscape:connector-curvature="0" />
  </g>
  <g
     inkscape:groupmode="layer"
     id="layer3"
     inkscape:label="icon"
     style="display:inline">
    <path
       inkscape:connector-curvature="0"
       style="color:#000000;fill:#ffffff;fill-opacity:1;fill-rule:nonzero;stroke:none;stroke-width:1;marker:none;visibility:visible;display:inline;overflow:visible;enable-background:accumulate"
       d="m 33.899496,10.100505 c 5.467339,5.46734 5.467339,14.331651 0,19.798991 -5.467341,5.467339 -14.331651,5.467339 -19.798991,0 -5.4673401,-5.46734 -5.4673401,-14.331651 0,-19.798991 5.46734,-5.4673399 14.33165,-5.4673399 19.798991,0 z"
       id="path5069" />
    <path
       sodipodi:type="arc"
       style="opacity:0.25;color:#000000;fill:#000000;fill-opacity:1;fill-rule:nonzero;stroke:none;stroke-width:1;marker:none;visibility:visible;display:inline;overflow:visible;enable-background:accumulate"
       id="path6036"
       sodipodi:cx="24"
       sodipodi:cy="20"
       sodipodi:rx="13"
       sodipodi:ry="13"
       d="M 20.635353,32.557036 A 13,13 0 0 1 11.442964,23.364647 L 24,20 z"
       sodipodi:start="1.8325957"
       sodipodi:end="2.8797933" />
    <path
       sodipodi:type="arc"
       style="opacity:0.25;color:#000000;fill:#000000;fill-opacity:1;fill-rule:nonzero;stroke:none;stroke-width:1;marker:none;visibility:visible;display:inline;overflow:visible;enable-background:accumulate"
       id="path6036-5"
       sodipodi:cx="24"
       sodipodi:cy="20"
       sodipodi:rx="13"
       sodipodi:ry="13"
       d="m 27.364648,7.4429644 a 13,13 0 0 1 9.192388,9.1923876 L 24,20 z"
       sodipodi:start="4.9741884"
       sodipodi:end="6.0213859" />
    <path
       style="color:#000000;fill:url(#linearGradient6087-6);fill-opacity:1;fill-rule:nonzero;stroke:none;stroke-width:1;marker:none;visibility:visible;display:inline;overflow:visible;enable-background:accumulate"
       d="m 30,20 c 0,3.313708 -2.686292,6 -6,6 -3.313708,0 -6,-2.686292 -6,-6 0,-3.313708 2.686292,-6 6,-6 3.313708,0 6,2.686292 6,6 z"
       id="path6056"
       inkscape:connector-curvature="0" />
    <path
       transform="translate(-1.5,-0.5)"
       sodipodi:type="arc"
       style="color:#000000;fill:none;stroke:#666666;stroke-width:0.5;stroke-miterlimit:4;stroke-opacity:1;stroke-dasharray:none;marker:none;visibility:visible;display:inline;overflow:visible;enable-background:accumulate"
       id="path5071"
       sodipodi:cx="25.5"
       sodipodi:cy="20.5"
       sodipodi:rx="4.5"
       sodipodi:ry="4.5"
       d="m 30,20.5 a 4.5,4.5 0 1 1 -9,0 4.5,4.5 0 1 1 9,0 z" />
    <path
       transform="translate(-1.5,-0.5)"
       sodipodi:type="arc"
       style="color:#000000;fill:#999999;fill-opacity:1;fill-rule:nonzero;stroke:none;stroke-width:4;marker:none;visibility:visible;display:inline;overflow:visible;enable-background:accumulate"
       id="path5073"
       sodipodi:cx="25.5"
       sodipodi:cy="20.5"
       sodipodi:rx="2.5"
       sodipodi:ry="2.5"
       d="m 28,20.5 a 2.5,2.5 0 1 1 -5,0 2.5,2.5 0 1 1 5,0 z" />
    <rect
       ry="0.125"
       y="44"
       x="6"
       height="1"
       width="38"
       id="rect5647"
       style="opacity:0.83712116;color:#000000;fill:#2d2d2d;fill-opacity:1;fill-rule:nonzero;stroke:none;stroke-width:0.5;marker:none;visibility:visible;display:inline;overflow:visible;enable-background:accumulate" />
  </g>
  <g
     inkscape:groupmode="layer"
     id="layer4"
     inkscape:label="hilight">
    <path
       inkscape:connector-curvature="0"
       style="opacity:0.4;color:#000000;fill:url(#linearGradient12443);fill-opacity:1;fill-rule:nonzero;stroke:none;stroke-width:0.5;marker:none;visibility:visible;display:inline;overflow:visible;enable-background:accumulate"
       d="M 2,0 C 0.892,0 0,0.892 0,2 l 0,44 c 0,1.108 0.892,2 2,2 l 44,0 c 1.108,0 2,-0.892 2,-2 L 48,2 C 48,0.892 47.108,0 46,0 L 2,0 z m 0,0.5 44,0 c 0.83101,0 1.5,0.6689904 1.5,1.5 l 0,44 c 0,0.83101 -0.66899,1.5 -1.5,1.5 l -44,0 C 1.1689904,47.5 0.5,46.83101 0.5,46 L 0.5,2 C 0.5,1.1689904 1.1689904,0.5 2,0.5 z"
       id="rect3006" />
    <path
       inkscape:connector-curvature="0"
       style="opacity:0.40000000000000002;color:#000000;fill:url(#linearGradient3973);fill-opacity:1.0;fill-rule:nonzero;stroke:none;stroke-width:0.50000000000000000;marker:none;visibility:visible;display:inline;overflow:visible;enable-background:accumulate"
       d="M 2,0 C 0.892,0 0,0.892 0,2 l 0,44 c 0,1.108 0.892,2 2,2 l 44,0 c 1.108,0 2,-0.892 2,-2 L 48,2 C 48,0.892 47.108,0 46,0 L 2,0 z m 0,0.5 44,0 c 0.83101,0 1.5,0.6689904 1.5,1.5 l 0,44 c 0,0.83101 -0.66899,1.5 -1.5,1.5 l -44,0 C 1.1689904,47.5 0.5,46.83101 0.5,46 L 0.5,2 C 0.5,1.1689904 1.1689904,0.5 2,0.5 z"
       id="rect3006-6" />
  </g>
</svg>
