<?xml version="1.0" encoding="UTF-8" standalone="no"?>
<!-- Created with Inkscape (http://www.inkscape.org/) -->

<svg
   xmlns:dc="http://purl.org/dc/elements/1.1/"
   xmlns:cc="http://creativecommons.org/ns#"
   xmlns:rdf="http://www.w3.org/1999/02/22-rdf-syntax-ns#"
   xmlns:svg="http://www.w3.org/2000/svg"
   xmlns="http://www.w3.org/2000/svg"
   xmlns:xlink="http://www.w3.org/1999/xlink"
   xmlns:sodipodi="http://sodipodi.sourceforge.net/DTD/sodipodi-0.dtd"
   xmlns:inkscape="http://www.inkscape.org/namespaces/inkscape"
   sodipodi:docname="file-roller.svg"
   inkscape:version="0.48.4 r9939"
   version="1.1"
   id="svg2"
   height="48"
   width="48">
  <sodipodi:namedview
     id="base"
     pagecolor="#424242"
     bordercolor="#666666"
     borderopacity="1.0"
     inkscape:pageopacity="1"
     inkscape:pageshadow="2"
     inkscape:zoom="16"
     inkscape:cx="25.555948"
     inkscape:cy="27.25393"
     inkscape:document-units="px"
     inkscape:current-layer="layer3"
     showgrid="false"
     showborder="false"
     borderlayer="false"
     showguides="true"
     inkscape:guide-bbox="true"
     inkscape:window-width="1855"
     inkscape:window-height="1056"
     inkscape:window-x="65"
     inkscape:window-y="24"
     inkscape:window-maximized="1">
    <inkscape:grid
       type="xygrid"
       id="grid3004"
       empspacing="5"
       visible="true"
       enabled="true"
       snapvisiblegridlinesonly="true"
       spacingx="1px"
       spacingy="1px" />
  </sodipodi:namedview>
  <defs
     id="defs4">
    <linearGradient
       inkscape:collect="always"
       id="linearGradient4699">
      <stop
         style="stop-color:#19aeff;stop-opacity:1;"
         offset="0"
         id="stop4701" />
      <stop
         style="stop-color:#19aeff;stop-opacity:0;"
         offset="1"
         id="stop4703" />
    </linearGradient>
    <linearGradient
       inkscape:collect="always"
       id="linearGradient4691">
      <stop
         style="stop-color:#19aeff;stop-opacity:1;"
         offset="0"
         id="stop4693" />
      <stop
         style="stop-color:#19aeff;stop-opacity:0;"
         offset="1"
         id="stop4695" />
    </linearGradient>
    <linearGradient
       id="linearGradient4665">
      <stop
         style="stop-color:#95dbff;stop-opacity:1;"
         offset="0"
         id="stop4667" />
      <stop
         style="stop-color:#006ba2;stop-opacity:1;"
         offset="1"
         id="stop4669" />
    </linearGradient>
    <linearGradient
       id="linearGradient4634">
      <stop
         style="stop-color:#000000;stop-opacity:0.38414633;"
         offset="0"
         id="stop4636" />
      <stop
         style="stop-color:#000000;stop-opacity:0;"
         offset="1"
         id="stop4638" />
    </linearGradient>
    <linearGradient
       inkscape:collect="always"
       xlink:href="#linearGradient3815-5"
       id="linearGradient3821-9"
       x1="3"
       y1="3"
       x2="25"
       y2="28"
       gradientUnits="userSpaceOnUse" />
    <linearGradient
       inkscape:collect="always"
       id="linearGradient3815-5">
      <stop
         style="stop-color:#ffffff;stop-opacity:1;"
         offset="0"
         id="stop3817-1" />
      <stop
         style="stop-color:#ffffff;stop-opacity:0;"
         offset="1"
         id="stop3819-9" />
    </linearGradient>
    <linearGradient
       inkscape:collect="always"
       xlink:href="#linearGradient4691"
       id="linearGradient4697"
       x1="45"
       y1="1049.8622"
       x2="42.5"
       y2="1047.3622"
       gradientUnits="userSpaceOnUse" />
    <linearGradient
       inkscape:collect="always"
       xlink:href="#linearGradient4699"
       id="linearGradient4705"
       x1="27.5"
       y1="0.5"
       x2="27.5"
       y2="3"
       gradientUnits="userSpaceOnUse" />
    <linearGradient
       inkscape:collect="always"
       xlink:href="#linearGradient4691-0"
       id="linearGradient4697-1"
       x1="45"
       y1="1049.8622"
       x2="42.5"
       y2="1047.3622"
       gradientUnits="userSpaceOnUse" />
    <linearGradient
       inkscape:collect="always"
       id="linearGradient4691-0">
      <stop
         style="stop-color:#19aeff;stop-opacity:1;"
         offset="0"
         id="stop4693-5" />
      <stop
         style="stop-color:#19aeff;stop-opacity:0;"
         offset="1"
         id="stop4695-5" />
    </linearGradient>
    <linearGradient
       gradientTransform="translate(0,-1004.3622)"
       y2="1047.3622"
       x2="42.5"
       y1="1049.8622"
       x1="45"
       gradientUnits="userSpaceOnUse"
       id="linearGradient12409"
       xlink:href="#linearGradient4699-1"
       inkscape:collect="always" />
    <linearGradient
       inkscape:collect="always"
       xlink:href="#linearGradient4699-1"
       id="linearGradient4705-1"
       x1="27.5"
       y1="0.5"
       x2="27.5"
       y2="3"
       gradientUnits="userSpaceOnUse" />
    <linearGradient
       id="linearGradient4699-1">
      <stop
         style="stop-color:#ffffff;stop-opacity:1;"
         offset="0"
         id="stop4701-3" />
      <stop
         style="stop-color:#ffffff;stop-opacity:0;"
         offset="1"
         id="stop4703-4" />
    </linearGradient>
    <linearGradient
       y2="3"
       x2="27.5"
       y1="0.5"
       x1="27.5"
       gradientUnits="userSpaceOnUse"
       id="linearGradient12443"
       xlink:href="#linearGradient4699-1"
       inkscape:collect="always" />
    <clipPath
       clipPathUnits="userSpaceOnUse"
       id="clipPath3856">
      <path
         style="opacity:0.3;fill:#000000;fill-opacity:1;stroke:none;display:inline"
         d="m 27.84375,12.03125 -15.4375,15.4375 8.125,8.125 L 32.9375,48 46,48 c 1.108,0 2,-0.892 2,-2 l 0,-13.8125 -12.03125,-12.03125 -8.125,-8.125 z m 10.5625,2.4375 0,3.25 -1.625,1.625 L 48,30.5625 l 0,-6.5 -9.59375,-9.59375 z m -18.6875,21.9375 -8.9375,2.4375 -1.625,0 L 18.3125,48 l 13,0 -11.59375,-11.59375 z"
         id="path3858"
         inkscape:connector-curvature="0" />
    </clipPath>
    <clipPath
       clipPathUnits="userSpaceOnUse"
       id="clipPath4492">
      <path
         inkscape:connector-curvature="0"
         style="opacity:0.3;fill:#000000;fill-opacity:1;fill-rule:evenodd;stroke-width:0.25;display:inline"
         d="m 28.28125,11 c -0.382978,-0.015 -0.701309,0.2118 -0.65625,0.625 l 0,0.9375 c 0.0028,0.107535 0.03337,0.206152 0.0625,0.28125 0.0077,0.0185 0.02221,0.04583 0.03125,0.0625 0.02417,0.04365 0.03048,0.09298 0.0625,0.125 l 0.09375,0.0625 1.6875,1.71875 c -0.09694,0.107303 -0.236384,0.234525 -0.40625,0.40625 l -2.28125,2.375 -6.4375,-6.4375 c -0.08266,-0.08266 -0.181553,-0.128868 -0.34375,-0.125 l -9.25,0 c -0.337919,-0.015 -0.585021,0.2799 -0.5625,0.625 l 0,1.03125 c -3.5e-4,0.08677 0.0032,0.174519 0.03125,0.25 0.02085,0.0575 0.05938,0.108056 0.09375,0.15625 0.01247,0.01766 0.0172,0.0463 0.03125,0.0625 0.0091,0.01035 0.02154,0.02154 0.03125,0.03125 l 0.15625,0.125 1.65625,1.65625 0,0.03125 0,21.53125 c -0.0083,0.0885 -0.01311,0.187768 0,0.25 0.0079,0.0311 0.01605,0.06838 0.03125,0.09375 0.01199,0.02047 0.01402,0.04527 0.03125,0.0625 L 23.40625,48 46,48 c 1.108,0 2,-0.892 2,-2 L 48,21.59375 37.65625,11.25 c -0.01519,-0.03494 -0.03721,-0.06556 -0.0625,-0.09375 -0.0095,-0.0095 -0.02057,-0.02275 -0.03125,-0.03125 -0.03337,-0.02893 -0.07961,-0.04528 -0.125,-0.0625 -0.0085,-0.0029 -0.02235,0.0024 -0.03125,0 -0.0577,-0.01753 -0.114282,-0.03502 -0.1875,-0.03125 L 28.28125,11 z"
         id="path4494" />
    </clipPath>
    <clipPath
       id="clipPath4571"
       clipPathUnits="userSpaceOnUse">
      <path
         id="path4573"
         d="m 16.5625,9.2812497 c -0.741317,0.048211 -1.493745,0.225425 -2.125,0.5 C 12.761138,10.50835 11.472074,12.4633 10.84375,15.25 c -0.446833,1.9819 -0.419165,7.4073 0.03125,9.5 0.446369,2.071611 1.321733,3.790482 2.40625,4.875 L 13.6875,30 l 2.53125,2.53125 c 0.300413,0.833398 0.621312,1.371313 1,1.75 L 17.5625,34.59375 30.96875,48 46,48 c 1.108,0 2,-0.892 2,-2 L 48,29.96875 28.90625,10.90625 28.875,10.875 C 28.79735,10.83 28.321907,10.75785 27.8125,10.71875 l -0.90625,-0.0625 -0.34375,1.3125 c -0.177578,0.7241 -0.372368,1.5281 -0.4375,1.8125 -0.10143,0.4425 -0.189818,0.53125 -0.75,0.53125 l -0.59375,0 -3.25,-3.25 C 20.686965,10.218215 19.589261,9.6792226 18.25,9.4062497 c -0.315253,-0.064 -0.639791,-0.1093 -0.96875,-0.125 -0.246719,-0.01175 -0.471644,-0.01607 -0.71875,0 z"
         style="opacity:0.3598485;fill:#364e59;fill-opacity:1;display:inline"
         inkscape:connector-curvature="0" />
    </clipPath>
    <clipPath
       clipPathUnits="userSpaceOnUse"
       id="clipPath5222">
      <path
         inkscape:connector-curvature="0"
         style="opacity:0.32578951;fill:#364e59;fill-opacity:1;stroke:none;display:inline"
         d="m 29,9.2812501 c -0.54037,0.07524 -1.00616,0.4711111 -1.15625,1.0312499 -0.133895,0.4997 0.03167,1.031671 0.375,1.375 l 2.125,2.125 L 31,14.96875 c -2.07357,-1.40806 -4.55246,-2.25 -7.25,-2.25 -3.10971,0 -5.98154,1.084967 -8.21875,2.90625 C 15.00293,15.347362 14.31922,15.399529 13.875,15.84375 13.43078,16.287971 13.37861,16.971684 13.65625,17.5 11.83497,19.737206 10.75,22.609042 10.75,25.71875 c 0,3.109708 1.08497,5.981544 2.90625,8.21875 -0.27764,0.528316 -0.22547,1.212029 0.21875,1.65625 L 26.28125,48 46,48 c 1.108,0 2,-0.892 2,-2 L 48,27.46875 30.21875,9.6875001 c -0.169811,-0.1698114 -0.377848,-0.3087754 -0.625,-0.375 -0.18671,-0.05003 -0.38238,-0.05633 -0.5625,-0.03125 l -0.03125,0 z"
         id="path5224" />
    </clipPath>
    <linearGradient
       gradientUnits="userSpaceOnUse"
       y2="1007.4396"
       x2="37.957897"
       y1="1049.3441"
       x1="37.957897"
       id="linearGradient6081"
       xlink:href="#linearGradient6075"
       inkscape:collect="always" />
    <linearGradient
       id="linearGradient6075"
       inkscape:collect="always">
      <stop
         id="stop6077"
         offset="0"
         style="stop-color:#ec7928;stop-opacity:1" />
      <stop
         id="stop6079"
         offset="1"
         style="stop-color:#f29e34;stop-opacity:1" />
    </linearGradient>
    <linearGradient
       inkscape:collect="always"
       xlink:href="#linearGradient6075"
       id="linearGradient5287"
       gradientUnits="userSpaceOnUse"
       x1="37.957897"
       y1="1049.3441"
       x2="37.957897"
       y2="1007.4396"
       gradientTransform="translate(-75.875,-1003.4872)" />
    <clipPath
       id="clipPath5874"
       clipPathUnits="userSpaceOnUse">
      <path
         id="path5876"
         d="m 24.84375,11 c -0.448019,8e-4 -0.889497,0.1217 -1.25,0.375 -0.689084,0.481105 -0.815838,1.277912 -0.28125,1.8125 l 0.09375,0.09375 3.375,3.375 L 14.875,16.6875 c -1.050739,4e-4 -2.081942,0.6907 -2.28125,1.5625 -0.103599,0.446205 0.01767,0.830173 0.3125,1.125 l 0.25,0.21875 3.375,3.40625 -7.375,5.6875 c -0.01409,0.012 -0.04896,0.02025 -0.0625,0.03125 -1.084616,0.8299 -1.433178,2.22025 -0.75,3.09375 l 0.125,0.15625 c 0.027139,0.02714 0.064951,0.03751 0.09375,0.0625 L 24.53125,48 46,48 c 1.108,0 2,-0.892 2,-2 L 48,30.84375 37.125,19.96875 C 36.807396,19.651146 36.454754,19.342446 36.09375,19.0625 l -10,-7.65625 L 26.0625,11.375 C 25.734178,11.123 25.291767,10.9991 24.84375,11 z"
         style="opacity:0.25;color:#000000;fill:#000000;fill-opacity:1;fill-rule:nonzero;stroke:none;stroke-width:0.5;marker:none;visibility:visible;display:inline;overflow:visible;enable-background:accumulate"
         inkscape:connector-curvature="0" />
    </clipPath>
    <clipPath
       clipPathUnits="userSpaceOnUse"
       id="clipPath4659">
      <path
         inkscape:connector-curvature="0"
         style="opacity:0.25;color:#000000;fill:#0e232e;fill-opacity:1;fill-rule:nonzero;stroke:none;stroke-width:0.1;marker:none;visibility:visible;display:inline"
         d="m 23.84375,10 c -3.701875,0.02467 -7.21463,1.510185 -9.78125,4.0625 l 2.15625,2.15625 15.53125,15.5625 c -0.352063,0.352184 -0.731193,0.668712 -1.125,0.96875 l -17.28125,-17.28125 -5.0625,5.375 1.78125,1.78125 c -0.4202313,4.245215 1.124426,8.374426 4.03125,11.28125 L 14.75,34.53125 28.21875,48 46,48 c 1.108,0 2,-0.892 2,-2 L 48,28.25 33.875,14.09375 C 32.194672,12.413422 30.053624,11.127871 27.59375,10.46875 26.344488,10.134011 25.077708,9.9917756 23.84375,10 z"
         id="path4661" />
    </clipPath>
  </defs>
  <metadata
     id="metadata7">
    <rdf:RDF>
      <cc:Work
         rdf:about="">
        <dc:format>image/svg+xml</dc:format>
        <dc:type
           rdf:resource="http://purl.org/dc/dcmitype/StillImage" />
        <dc:title />
      </cc:Work>
    </rdf:RDF>
  </metadata>
  <g
     inkscape:label="base"
     inkscape:groupmode="layer"
     id="layer1"
     transform="translate(0,-1004.3622)"
     style="display:inline">
    <path
       style="color:#000000;fill:#b88100;fill-opacity:1;fill-rule:nonzero;stroke:none;stroke-width:0.5;marker:none;visibility:visible;display:inline;overflow:visible;enable-background:accumulate"
       d="m 2,1004.3622 44,0 c 1.108,0 2.28549,0.9294 2,2 -4,15 -4,29 0,44 0.28549,1.0706 -0.892,2 -2,2 l -44,0 c -1.108,0 -2.28549022,-0.9294 -2,-2 4,-15 4,-29 0,-44 -0.28549022,-1.0706 0.892,-2 2,-2 z"
       id="rect3006-5"
       inkscape:connector-curvature="0"
       sodipodi:nodetypes="sssssssss" />
    <path
       style="fill:#000000"
       d=""
       id="path906-8"
       inkscape:connector-curvature="0" />
    <g
       transform="matrix(0.36107049,0,0,-0.36107049,-201.21141,1000.5609)"
       id="g312"
       style="fill:#000000;fill-opacity:0.49803922" />
    <g
       transform="matrix(0.36107049,0,0,-0.36107049,-189.85603,989.20486)"
       id="g316"
       style="fill:#000000;fill-opacity:0.49803922" />
    <path
       style="color:#000000;fill:#ffc022;fill-opacity:1;fill-rule:nonzero;stroke:none;stroke-width:2;marker:none;visibility:visible;display:inline;overflow:visible;enable-background:accumulate"
       d="M 2 0 C 1.723 0 1.4492414 0.052390625 1.1875 0.15625 C 0.48261253 0.46487514 0 1.1787038 0 2 C 0.71881615 4.6955605 1.3207822 7.35742 1.78125 10 L 46.25 10 C 46.710449 7.3576593 47.28125 4.6953125 48 2 C 48 1.1787038 47.517387 0.46487514 46.8125 0.15625 C 46.803304 0.15260089 46.790494 0.15978557 46.78125 0.15625 C 46.661531 0.10578125 46.53668 0.057804687 46.40625 0.03125 C 46.268572 0.0037457031 46.1385 0 46 0 L 2 0 z "
       transform="translate(0,1004.3622)"
       id="rect3066" />
    <path
       style="opacity:0.2;fill:none;stroke:#000000;stroke-width:1px;stroke-linecap:butt;stroke-linejoin:miter;stroke-opacity:1"
       d="m 24,1004.3622 0,10"
       id="path3873"
       inkscape:connector-curvature="0" />
    <path
       transform="translate(0,1004.3622)"
       style="opacity:0.2;color:#000000;fill:#000000;fill-opacity:1;fill-rule:nonzero;stroke:none;stroke-width:2;marker:none;visibility:visible;display:inline;overflow:visible;enable-background:accumulate"
       d="m 21,0 6,0 0,14 -2,-1 -2,1 -1,-1 -1,1 z"
       id="rect3875"
       inkscape:connector-curvature="0"
       sodipodi:nodetypes="cccccccc" />
    <g
       id="g5733">
      <g
         id="g5694">
        <rect
           style="opacity:0.7;fill:#000000"
           x="35.5"
           y="1044.3622"
           width="0.30000001"
           height="6"
           id="barcode_bar1" />
        <rect
           style="opacity:0.7;fill:#000000"
           x="36.400002"
           y="1044.3622"
           width="0.30000001"
           height="6"
           id="barcode_bar3" />
        <rect
           style="opacity:0.7;fill:#000000"
           x="37"
           y="1044.3622"
           width="0.60000002"
           height="6"
           id="barcode_bar5" />
        <rect
           style="opacity:0.7;fill:#000000"
           x="37.900002"
           y="1044.3622"
           width="0.60000002"
           height="6"
           id="barcode_bar7" />
        <rect
           style="opacity:0.7;fill:#000000"
           x="38.799999"
           y="1044.3622"
           width="0.30000001"
           height="6"
           id="barcode_bar9" />
        <rect
           style="opacity:0.7;fill:#000000"
           x="39.400002"
           y="1044.3622"
           width="0.60000002"
           height="6"
           id="barcode_bar11" />
        <rect
           style="opacity:0.7;fill:#000000"
           x="40.299999"
           y="1044.3622"
           width="0.30000001"
           height="6"
           id="barcode_bar13" />
        <rect
           style="opacity:0.7;fill:#000000"
           x="41.200001"
           y="1044.3622"
           width="0.30000001"
           height="6"
           id="barcode_bar15" />
        <rect
           style="opacity:0.7;fill:#000000"
           x="41.800003"
           y="1044.3622"
           width="0.30000001"
           height="6"
           id="barcode_bar17" />
      </g>
      <rect
         id="barcode_bar19"
         height="6"
         width="0.60000002"
         y="1044.3622"
         x="42.400002"
         style="opacity:0.7;fill:#000000" />
      <rect
         id="barcode_bar21"
         height="6"
         width="0.30000001"
         y="1044.3622"
         x="43.300003"
         style="opacity:0.7;fill:#000000" />
      <rect
         id="barcode_bar23"
         height="6"
         width="0.60000002"
         y="1044.3622"
         x="43.900002"
         style="opacity:0.7;fill:#000000" />
      <rect
         id="barcode_bar25"
         height="6"
         width="0.30000001"
         y="1044.3622"
         x="45.100002"
         style="opacity:0.7;fill:#000000" />
      <rect
         id="barcode_bar27"
         height="6"
         width="0.30000001"
         y="1044.3622"
         x="45.700001"
         style="opacity:0.7;fill:#000000" />
    </g>
    <g
       id="g5728">
      <path
         sodipodi:nodetypes="cccccccc"
         inkscape:connector-curvature="0"
         id="path5612"
         d="m 4,1046.3622 0.6464466,-6.0442 -1.4696699,0 2.7790291,-3.9116 L 8,1040.3622 l -2,0 0,6 z"
         style="fill:#804d00;stroke:none" />
      <path
         sodipodi:nodetypes="cccccccc"
         inkscape:connector-curvature="0"
         id="path5612-8"
         d="m 11,1046.3622 0,-6 -2,0 3,-4 3,4 -2,0 0,6 z"
         style="fill:#804d00;stroke:none;display:inline" />
      <path
         inkscape:connector-curvature="0"
         id="path5632"
         d="m 2.3093592,1047.3622 -0.3093592,2 13,0 0,-2 z"
         style="fill:#804d00;stroke:none"
         sodipodi:nodetypes="ccccc" />
    </g>
  </g>
  <g
     inkscape:groupmode="layer"
     id="layer2"
     inkscape:label="shadow"
     style="display:inline">
    <path
       style="fill:#000000"
       d=""
       id="path906"
       inkscape:connector-curvature="0" />
    <flowRoot
       xml:space="preserve"
       id="flowRoot61"
       style="font-size:40px;font-style:normal;font-weight:normal;line-height:125%;letter-spacing:0px;word-spacing:0px;fill:#000000;fill-opacity:1;stroke:none;font-family:sans-serif"
       transform="translate(-18.261517,-1007.8751)"><flowRegion
         id="flowRegion63"><rect
           id="rect65"
           width="57.6292"
           height="49.320694"
           x="-53.033005"
           y="6.6342559" /></flowRegion><flowPara
         id="flowPara67" /></flowRoot>    <path
       id="path6091"
       d="M 19 18 C 18.045635 18 17.220207 18.689021 17.03125 19.59375 C 17.004256 19.722997 17 19.863663 17 20 L 3 20 C 2.9646961 20 2.9405893 20.027715 2.90625 20.03125 C 3.0446526 22.784304 3.0243285 25.527678 2.875 28.28125 L 22.59375 48 L 46 48 C 47.108 48 48.28549 47.0706 48 46 C 45.635036 37.131386 44.693437 28.614088 45.125 20.03125 C 45.082792 20.026431 45.043231 20 45 20 L 30.78125 20 L 29.65625 18.875 L 29.40625 18.59375 C 29.042588 18.230088 28.545351 18 28 18 L 19 18 z "
       style="opacity:0.25;color:#000000;fill:#000000;fill-opacity:1;fill-rule:nonzero;stroke:none;stroke-width:2;marker:none;visibility:visible" />
  </g>
  <g
     inkscape:groupmode="layer"
     id="layer3"
     inkscape:label="icon"
     style="display:inline">
    <rect
       style="color:#000000;fill:#804d00;fill-opacity:1;fill-rule:nonzero;stroke:none;stroke-width:2;marker:none;visibility:visible;display:inline;overflow:visible;enable-background:accumulate"
       id="rect5879"
       width="44"
       height="8"
       x="2"
       y="20"
       ry="1" />
    <path
       inkscape:connector-curvature="0"
       style="font-size:medium;font-style:normal;font-variant:normal;font-weight:normal;font-stretch:normal;text-indent:0;text-align:start;text-decoration:none;line-height:normal;letter-spacing:normal;word-spacing:normal;text-transform:none;direction:ltr;block-progression:tb;writing-mode:lr-tb;text-anchor:start;baseline-shift:baseline;color:#000000;fill:#9eabb0;fill-opacity:1;stroke:none;stroke-width:2;marker:none;visibility:visible;display:inline;overflow:visible;enable-background:accumulate;font-family:Sans;-inkscape-font-specification:Sans"
       d="m 19,18 c -1.090703,0 -2,0.9093 -2,2 l 2,0 3,0 6,0 0,8 -6,0 -3,0 -2,0 c 0,1.0907 0.909297,2 2,2 l 9,0 c 1.090703,0 2,-0.9093 2,-2 l 0,-8 c 0,-1.0907 -0.909297,-2 -2,-2 l -9,0 z"
       id="rect5881" />
    <g
       id="g5921"
       style="opacity:0.7;fill:#0e232e">
      <path
         d="m 7,24 a 1,1 0 1 1 -2,0 1,1 0 1 1 2,0 z"
         sodipodi:ry="1"
         sodipodi:rx="1"
         sodipodi:cy="24"
         sodipodi:cx="6"
         id="path5894"
         style="color:#000000;fill:#0e232e;fill-opacity:1;fill-rule:nonzero;stroke:none;stroke-width:2;marker:none;visibility:visible;display:inline;overflow:visible;enable-background:accumulate"
         sodipodi:type="arc" />
      <path
         transform="translate(1,0)"
         d="m 15,24 a 1,1 0 1 1 -2,0 1,1 0 1 1 2,0 z"
         sodipodi:ry="1"
         sodipodi:rx="1"
         sodipodi:cy="24"
         sodipodi:cx="14"
         id="path5896"
         style="color:#000000;fill:#0e232e;fill-opacity:1;fill-rule:nonzero;stroke:none;stroke-width:2;marker:none;visibility:visible;display:inline;overflow:visible;enable-background:accumulate"
         sodipodi:type="arc" />
      <path
         transform="translate(27,0)"
         d="m 7,24 a 1,1 0 1 1 -2,0 1,1 0 1 1 2,0 z"
         sodipodi:ry="1"
         sodipodi:rx="1"
         sodipodi:cy="24"
         sodipodi:cx="6"
         id="path5894-8"
         style="color:#000000;fill:#0e232e;fill-opacity:1;fill-rule:nonzero;stroke:none;stroke-width:2;marker:none;visibility:visible;display:inline;overflow:visible;enable-background:accumulate"
         sodipodi:type="arc" />
      <path
         transform="translate(28,0)"
         d="m 15,24 a 1,1 0 1 1 -2,0 1,1 0 1 1 2,0 z"
         sodipodi:ry="1"
         sodipodi:rx="1"
         sodipodi:cy="24"
         sodipodi:cx="14"
         id="path5896-4"
         style="color:#000000;fill:#0e232e;fill-opacity:1;fill-rule:nonzero;stroke:none;stroke-width:2;marker:none;visibility:visible;display:inline;overflow:visible;enable-background:accumulate"
         sodipodi:type="arc" />
    </g>
    <path
       style="opacity:0.25;color:#000000;fill:#000000;fill-opacity:1;fill-rule:nonzero;stroke:none;stroke-width:2;marker:none;visibility:visible;display:inline"
       d="M 24 23 C 23.446 23 23 23.446 23 24 C 23 24.277 23.1005 24.538 23.28125 24.71875 L 26.5625 28 L 28.5 29.9375 C 29.357455 29.712737 30 28.920278 30 28 L 33.4375 28 L 30 24.5625 L 28.71875 23.28125 C 28.538 23.1005 28.277 23 28 23 L 24 23 z "
       id="path3406-4" />
    <path
       sodipodi:nodetypes="sssssssss"
       inkscape:connector-curvature="0"
       id="rect5892"
       d="m 24,23 4,0 c 0.277,0 0.527,0.1115 0.70775,0.29225 C 28.8885,23.473 29,23.723 29,24 c 0,0.554 -0.446,1 -1,1 l -4,0 C 23.723,25 23.473,24.8885 23.29225,24.70775 23.1115,24.527 23,24.277 23,24 c 0,-0.554 0.446,-1 1,-1 z"
       style="color:#000000;fill:#9eabb0;fill-opacity:1;fill-rule:nonzero;stroke:none;stroke-width:2;marker:none;visibility:visible;display:inline;overflow:visible;enable-background:accumulate" />
  </g>
  <g
     inkscape:groupmode="layer"
     id="layer4"
     inkscape:label="hilight">
    <path
       inkscape:connector-curvature="0"
       style="color:#000000;fill:url(#linearGradient12443);fill-opacity:1;fill-rule:nonzero;stroke:none;stroke-width:0.50000000000000000;marker:none;visibility:visible;display:inline;overflow:visible;enable-background:accumulate;opacity:0.4"
       d="M 2,0 C 0.892,0 0,0.892 0,2 l 0,44 c 0,1.108 0.892,2 2,2 l 44,0 c 1.108,0 2,-0.892 2,-2 L 48,2 C 48,0.892 47.108,0 46,0 L 2,0 z m 0,0.5 44,0 c 0.83101,0 1.5,0.6689904 1.5,1.5 l 0,44 c 0,0.83101 -0.66899,1.5 -1.5,1.5 l -44,0 C 1.1689904,47.5 0.5,46.83101 0.5,46 L 0.5,2 C 0.5,1.1689904 1.1689904,0.5 2,0.5 z"
       id="rect3006" />
  </g>
</svg>
