<?xml version="1.0" encoding="UTF-8" standalone="no"?>
<!-- Created with Inkscape (http://www.inkscape.org/) -->

<svg
   xmlns:dc="http://purl.org/dc/elements/1.1/"
   xmlns:cc="http://creativecommons.org/ns#"
   xmlns:rdf="http://www.w3.org/1999/02/22-rdf-syntax-ns#"
   xmlns:svg="http://www.w3.org/2000/svg"
   xmlns="http://www.w3.org/2000/svg"
   xmlns:xlink="http://www.w3.org/1999/xlink"
   xmlns:sodipodi="http://sodipodi.sourceforge.net/DTD/sodipodi-0.dtd"
   xmlns:inkscape="http://www.inkscape.org/namespaces/inkscape"
   sodipodi:docname="gimp.svg"
   inkscape:version="0.48.4 r9939"
   version="1.1"
   id="svg2"
   height="48"
   width="48">
  <sodipodi:namedview
     id="base"
     pagecolor="#424242"
     bordercolor="#666666"
     borderopacity="1.0"
     inkscape:pageopacity="1"
     inkscape:pageshadow="2"
     inkscape:zoom="5.6568542"
     inkscape:cx="36.289224"
     inkscape:cy="2.7644665"
     inkscape:document-units="px"
     inkscape:current-layer="layer1"
     showgrid="false"
     showborder="false"
     borderlayer="false"
     showguides="true"
     inkscape:guide-bbox="true"
     inkscape:window-width="1855"
     inkscape:window-height="1056"
     inkscape:window-x="65"
     inkscape:window-y="24"
     inkscape:window-maximized="1">
    <inkscape:grid
       type="xygrid"
       id="grid3004"
       empspacing="5"
       visible="true"
       enabled="true"
       snapvisiblegridlinesonly="true"
       spacingx="0.5px"
       spacingy="0.5px" />
  </sodipodi:namedview>
  <defs
     id="defs4">
    <linearGradient
       inkscape:collect="always"
       id="linearGradient4699">
      <stop
         style="stop-color:#19aeff;stop-opacity:1;"
         offset="0"
         id="stop4701" />
      <stop
         style="stop-color:#19aeff;stop-opacity:0;"
         offset="1"
         id="stop4703" />
    </linearGradient>
    <linearGradient
       inkscape:collect="always"
       id="linearGradient4691">
      <stop
         style="stop-color:#19aeff;stop-opacity:1;"
         offset="0"
         id="stop4693" />
      <stop
         style="stop-color:#19aeff;stop-opacity:0;"
         offset="1"
         id="stop4695" />
    </linearGradient>
    <linearGradient
       id="linearGradient4665">
      <stop
         style="stop-color:#95dbff;stop-opacity:1;"
         offset="0"
         id="stop4667" />
      <stop
         style="stop-color:#006ba2;stop-opacity:1;"
         offset="1"
         id="stop4669" />
    </linearGradient>
    <linearGradient
       id="linearGradient4634">
      <stop
         style="stop-color:#000000;stop-opacity:0.38414633;"
         offset="0"
         id="stop4636" />
      <stop
         style="stop-color:#000000;stop-opacity:0;"
         offset="1"
         id="stop4638" />
    </linearGradient>
    <linearGradient
       inkscape:collect="always"
       xlink:href="#linearGradient3815-5"
       id="linearGradient3821-9"
       x1="3"
       y1="3"
       x2="25"
       y2="28"
       gradientUnits="userSpaceOnUse" />
    <linearGradient
       inkscape:collect="always"
       id="linearGradient3815-5">
      <stop
         style="stop-color:#ffffff;stop-opacity:1;"
         offset="0"
         id="stop3817-1" />
      <stop
         style="stop-color:#ffffff;stop-opacity:0;"
         offset="1"
         id="stop3819-9" />
    </linearGradient>
    <linearGradient
       inkscape:collect="always"
       xlink:href="#linearGradient4691"
       id="linearGradient4697"
       x1="45"
       y1="1049.8622"
       x2="42.5"
       y2="1047.3622"
       gradientUnits="userSpaceOnUse" />
    <linearGradient
       inkscape:collect="always"
       xlink:href="#linearGradient4699"
       id="linearGradient4705"
       x1="27.5"
       y1="0.5"
       x2="27.5"
       y2="3"
       gradientUnits="userSpaceOnUse" />
    <linearGradient
       inkscape:collect="always"
       xlink:href="#linearGradient4691-0"
       id="linearGradient4697-1"
       x1="45"
       y1="1049.8622"
       x2="42.5"
       y2="1047.3622"
       gradientUnits="userSpaceOnUse" />
    <linearGradient
       inkscape:collect="always"
       id="linearGradient4691-0">
      <stop
         style="stop-color:#19aeff;stop-opacity:1;"
         offset="0"
         id="stop4693-5" />
      <stop
         style="stop-color:#19aeff;stop-opacity:0;"
         offset="1"
         id="stop4695-5" />
    </linearGradient>
    <linearGradient
       gradientTransform="translate(0,-1004.3622)"
       y2="1047.3622"
       x2="42.5"
       y1="1049.8622"
       x1="45"
       gradientUnits="userSpaceOnUse"
       id="linearGradient12409"
       xlink:href="#linearGradient4699-1"
       inkscape:collect="always" />
    <linearGradient
       inkscape:collect="always"
       xlink:href="#linearGradient4699-1"
       id="linearGradient4705-1"
       x1="27.5"
       y1="0.5"
       x2="27.5"
       y2="3"
       gradientUnits="userSpaceOnUse" />
    <linearGradient
       id="linearGradient4699-1">
      <stop
         style="stop-color:#ffffff;stop-opacity:1;"
         offset="0"
         id="stop4701-3" />
      <stop
         style="stop-color:#ffffff;stop-opacity:0;"
         offset="1"
         id="stop4703-4" />
    </linearGradient>
    <linearGradient
       y2="3"
       x2="27.5"
       y1="0.5"
       x1="27.5"
       gradientUnits="userSpaceOnUse"
       id="linearGradient12443"
       xlink:href="#linearGradient4699-1"
       inkscape:collect="always" />
    <clipPath
       clipPathUnits="userSpaceOnUse"
       id="clipPath3856">
      <path
         style="opacity:0.3;fill:#000000;fill-opacity:1;stroke:none;display:inline"
         d="m 27.84375,12.03125 -15.4375,15.4375 8.125,8.125 L 32.9375,48 46,48 c 1.108,0 2,-0.892 2,-2 l 0,-13.8125 -12.03125,-12.03125 -8.125,-8.125 z m 10.5625,2.4375 0,3.25 -1.625,1.625 L 48,30.5625 l 0,-6.5 -9.59375,-9.59375 z m -18.6875,21.9375 -8.9375,2.4375 -1.625,0 L 18.3125,48 l 13,0 -11.59375,-11.59375 z"
         id="path3858"
         inkscape:connector-curvature="0" />
    </clipPath>
    <clipPath
       clipPathUnits="userSpaceOnUse"
       id="clipPath4492">
      <path
         inkscape:connector-curvature="0"
         style="opacity:0.3;fill:#000000;fill-opacity:1;fill-rule:evenodd;stroke-width:0.25;display:inline"
         d="m 28.28125,11 c -0.382978,-0.015 -0.701309,0.2118 -0.65625,0.625 l 0,0.9375 c 0.0028,0.107535 0.03337,0.206152 0.0625,0.28125 0.0077,0.0185 0.02221,0.04583 0.03125,0.0625 0.02417,0.04365 0.03048,0.09298 0.0625,0.125 l 0.09375,0.0625 1.6875,1.71875 c -0.09694,0.107303 -0.236384,0.234525 -0.40625,0.40625 l -2.28125,2.375 -6.4375,-6.4375 c -0.08266,-0.08266 -0.181553,-0.128868 -0.34375,-0.125 l -9.25,0 c -0.337919,-0.015 -0.585021,0.2799 -0.5625,0.625 l 0,1.03125 c -3.5e-4,0.08677 0.0032,0.174519 0.03125,0.25 0.02085,0.0575 0.05938,0.108056 0.09375,0.15625 0.01247,0.01766 0.0172,0.0463 0.03125,0.0625 0.0091,0.01035 0.02154,0.02154 0.03125,0.03125 l 0.15625,0.125 1.65625,1.65625 0,0.03125 0,21.53125 c -0.0083,0.0885 -0.01311,0.187768 0,0.25 0.0079,0.0311 0.01605,0.06838 0.03125,0.09375 0.01199,0.02047 0.01402,0.04527 0.03125,0.0625 L 23.40625,48 46,48 c 1.108,0 2,-0.892 2,-2 L 48,21.59375 37.65625,11.25 c -0.01519,-0.03494 -0.03721,-0.06556 -0.0625,-0.09375 -0.0095,-0.0095 -0.02057,-0.02275 -0.03125,-0.03125 -0.03337,-0.02893 -0.07961,-0.04528 -0.125,-0.0625 -0.0085,-0.0029 -0.02235,0.0024 -0.03125,0 -0.0577,-0.01753 -0.114282,-0.03502 -0.1875,-0.03125 L 28.28125,11 z"
         id="path4494" />
    </clipPath>
    <clipPath
       id="clipPath4571"
       clipPathUnits="userSpaceOnUse">
      <path
         id="path4573"
         d="m 16.5625,9.2812497 c -0.741317,0.048211 -1.493745,0.225425 -2.125,0.5 C 12.761138,10.50835 11.472074,12.4633 10.84375,15.25 c -0.446833,1.9819 -0.419165,7.4073 0.03125,9.5 0.446369,2.071611 1.321733,3.790482 2.40625,4.875 L 13.6875,30 l 2.53125,2.53125 c 0.300413,0.833398 0.621312,1.371313 1,1.75 L 17.5625,34.59375 30.96875,48 46,48 c 1.108,0 2,-0.892 2,-2 L 48,29.96875 28.90625,10.90625 28.875,10.875 C 28.79735,10.83 28.321907,10.75785 27.8125,10.71875 l -0.90625,-0.0625 -0.34375,1.3125 c -0.177578,0.7241 -0.372368,1.5281 -0.4375,1.8125 -0.10143,0.4425 -0.189818,0.53125 -0.75,0.53125 l -0.59375,0 -3.25,-3.25 C 20.686965,10.218215 19.589261,9.6792226 18.25,9.4062497 c -0.315253,-0.064 -0.639791,-0.1093 -0.96875,-0.125 -0.246719,-0.01175 -0.471644,-0.01607 -0.71875,0 z"
         style="opacity:0.3598485;fill:#364e59;fill-opacity:1;display:inline"
         inkscape:connector-curvature="0" />
    </clipPath>
    <linearGradient
       inkscape:collect="always"
       xlink:href="#linearGradient6125"
       id="linearGradient6131"
       x1="28.399813"
       y1="1049.3252"
       x2="28.399813"
       y2="1007.3821"
       gradientUnits="userSpaceOnUse" />
    <linearGradient
       inkscape:collect="always"
       id="linearGradient6125">
      <stop
         style="stop-color:#f81654;stop-opacity:1"
         offset="0"
         id="stop6127" />
      <stop
         style="stop-color:#fd668f;stop-opacity:1"
         offset="1"
         id="stop6129" />
    </linearGradient>
    <linearGradient
       gradientTransform="translate(-349.50002,-1059.3622)"
       y2="1007.3821"
       x2="28.399813"
       y1="1049.3252"
       x1="28.399813"
       gradientUnits="userSpaceOnUse"
       id="linearGradient4628"
       xlink:href="#linearGradient6125"
       inkscape:collect="always" />
    <clipPath
       clipPathUnits="userSpaceOnUse"
       id="clipPath5222">
      <path
         inkscape:connector-curvature="0"
         style="opacity:0.32578951;fill:#364e59;fill-opacity:1;stroke:none;display:inline"
         d="m 29,9.2812501 c -0.54037,0.07524 -1.00616,0.4711111 -1.15625,1.0312499 -0.133895,0.4997 0.03167,1.031671 0.375,1.375 l 2.125,2.125 L 31,14.96875 c -2.07357,-1.40806 -4.55246,-2.25 -7.25,-2.25 -3.10971,0 -5.98154,1.084967 -8.21875,2.90625 C 15.00293,15.347362 14.31922,15.399529 13.875,15.84375 13.43078,16.287971 13.37861,16.971684 13.65625,17.5 11.83497,19.737206 10.75,22.609042 10.75,25.71875 c 0,3.109708 1.08497,5.981544 2.90625,8.21875 -0.27764,0.528316 -0.22547,1.212029 0.21875,1.65625 L 26.28125,48 46,48 c 1.108,0 2,-0.892 2,-2 L 48,27.46875 30.21875,9.6875001 c -0.169811,-0.1698114 -0.377848,-0.3087754 -0.625,-0.375 -0.18671,-0.05003 -0.38238,-0.05633 -0.5625,-0.03125 l -0.03125,0 z"
         id="path5224" />
    </clipPath>
    <radialGradient
       cx="69.473244"
       cy="19.597878"
       r="3.5153139"
       fx="69.473244"
       fy="19.597878"
       id="radialGradient4363"
       xlink:href="#linearGradient6468"
       gradientUnits="userSpaceOnUse"
       gradientTransform="matrix(1.318488,0,0,1.318488,-22.1264,-6.241691)" />
    <radialGradient
       cx="18.557627"
       cy="22.300018"
       r="19.2292"
       fx="18.557627"
       fy="22.300018"
       id="radialGradient4354"
       xlink:href="#linearGradient6500"
       gradientUnits="userSpaceOnUse"
       gradientTransform="matrix(1.77275,0,0,1.29668,-16.3404,-6.615959)" />
    <linearGradient
       x1="32.350136"
       y1="28.083355"
       x2="21.213203"
       y2="30.293064"
       id="linearGradient4351"
       xlink:href="#linearGradient6482"
       gradientUnits="userSpaceOnUse"
       gradientTransform="translate(-3.836549,0.345971)" />
    <linearGradient
       x1="26.162951"
       y1="30.543303"
       x2="24.328892"
       y2="30.985245"
       id="linearGradient4330"
       xlink:href="#linearGradient8534"
       gradientUnits="userSpaceOnUse" />
    <radialGradient
       cx="6.0242186"
       cy="25.271027"
       r="4.8310289"
       fx="6.0242186"
       fy="25.271027"
       id="radialGradient8548"
       xlink:href="#linearGradient8542"
       gradientUnits="userSpaceOnUse"
       gradientTransform="matrix(0.916159,0.09318684,-0.108765,1.069309,3.253668,-3.029272)" />
    <linearGradient
       x1="14.96875"
       y1="19.110678"
       x2="39.524544"
       y2="46.98568"
       id="linearGradient8530"
       xlink:href="#linearGradient8524"
       gradientUnits="userSpaceOnUse" />
    <radialGradient
       cx="23"
       cy="33.9375"
       r="18.25"
       fx="23"
       fy="33.9375"
       id="radialGradient6498"
       xlink:href="#linearGradient6492"
       gradientUnits="userSpaceOnUse"
       gradientTransform="matrix(1,0,0,0.284247,0,24.29088)" />
    <radialGradient
       cx="69.473244"
       cy="19.597878"
       r="3.5153139"
       fx="69.473244"
       fy="19.597878"
       id="radialGradient6474"
       xlink:href="#linearGradient6468"
       gradientUnits="userSpaceOnUse"
       gradientTransform="matrix(1.318488,0,0,1.318488,-22.1264,-6.241691)" />
    <linearGradient
       x1="6.3051529"
       y1="23.362427"
       x2="5.9846287"
       y2="31.57"
       id="linearGradient6458"
       xlink:href="#linearGradient6452"
       gradientUnits="userSpaceOnUse" />
    <linearGradient
       id="linearGradient6452">
      <stop
         style="stop-color:white;stop-opacity:1"
         offset="0"
         id="stop6454" />
      <stop
         style="stop-color:white;stop-opacity:0"
         offset="1"
         id="stop6456" />
    </linearGradient>
    <linearGradient
       id="linearGradient6468">
      <stop
         style="stop-color:white;stop-opacity:1"
         offset="0"
         id="stop6470" />
      <stop
         style="stop-color:#b9b9b0;stop-opacity:1"
         offset="1"
         id="stop6472" />
    </linearGradient>
    <linearGradient
       id="linearGradient6482">
      <stop
         style="stop-color:black;stop-opacity:1"
         offset="0"
         id="stop6484" />
      <stop
         style="stop-color:black;stop-opacity:0"
         offset="1"
         id="stop6486" />
    </linearGradient>
    <linearGradient
       id="linearGradient6492">
      <stop
         style="stop-color:black;stop-opacity:1"
         offset="0"
         id="stop6494" />
      <stop
         style="stop-color:black;stop-opacity:0"
         offset="1"
         id="stop6496" />
    </linearGradient>
    <linearGradient
       id="linearGradient6500">
      <stop
         style="stop-color:#857c63;stop-opacity:1"
         offset="0"
         id="stop6502" />
      <stop
         style="stop-color:#221f19;stop-opacity:1"
         offset="1"
         id="stop6504" />
    </linearGradient>
    <linearGradient
       x1="37.017639"
       y1="19.239889"
       x2="27.753893"
       y2="11.182488"
       id="linearGradient6957"
       xlink:href="#linearGradient6951"
       gradientUnits="userSpaceOnUse"
       gradientTransform="translate(-49.30496,1.877723)" />
    <linearGradient
       id="linearGradient6951">
      <stop
         style="stop-color:#6e3d09;stop-opacity:1"
         offset="0"
         id="stop6953" />
      <stop
         style="stop-color:#ea8113;stop-opacity:1"
         offset="0.24242425"
         id="stop6959" />
      <stop
         style="stop-color:#5c3307;stop-opacity:1"
         offset="0.62121212"
         id="stop6961" />
      <stop
         style="stop-color:#e07c12;stop-opacity:1"
         offset="1"
         id="stop6955" />
    </linearGradient>
    <linearGradient
       x1="19.394735"
       y1="30.001331"
       x2="23.109331"
       y2="33.438831"
       id="linearGradient6945"
       xlink:href="#linearGradient6939"
       gradientUnits="userSpaceOnUse"
       gradientTransform="translate(-46.40695,-1.802856)" />
    <linearGradient
       id="linearGradient6939">
      <stop
         style="stop-color:#bdbdbd;stop-opacity:1"
         offset="0"
         id="stop6941" />
      <stop
         style="stop-color:#e2e2e2;stop-opacity:1"
         offset="0.33333334"
         id="stop6947" />
      <stop
         style="stop-color:#a3a3a3;stop-opacity:1"
         offset="0.66666669"
         id="stop6949" />
      <stop
         style="stop-color:#ddd;stop-opacity:1"
         offset="1"
         id="stop6943" />
    </linearGradient>
    <radialGradient
       cx="15.415101"
       cy="35.356506"
       r="7.5791559"
       fx="15.415101"
       fy="35.356506"
       id="radialGradient6969"
       xlink:href="#linearGradient6963"
       gradientUnits="userSpaceOnUse"
       gradientTransform="matrix(1.572694,0,0,1.532639,-55.36682,-21.35823)" />
    <linearGradient
       id="linearGradient6963">
      <stop
         style="stop-color:#696969;stop-opacity:1"
         offset="0"
         id="stop6965" />
      <stop
         style="stop-color:black;stop-opacity:1"
         offset="1"
         id="stop6967" />
    </linearGradient>
    <linearGradient
       x1="13.236155"
       y1="37.752247"
       x2="7.7521091"
       y2="42.282146"
       id="linearGradient2452"
       xlink:href="#linearGradient2446"
       gradientUnits="userSpaceOnUse"
       gradientTransform="matrix(0.755165,0.395143,-0.395143,0.755165,-25.91245,6.532586)" />
    <linearGradient
       id="linearGradient2446">
      <stop
         style="stop-color:white;stop-opacity:1"
         offset="0"
         id="stop2448" />
      <stop
         style="stop-color:white;stop-opacity:0"
         offset="1"
         id="stop2450" />
    </linearGradient>
    <linearGradient
       id="linearGradient8524">
      <stop
         style="stop-color:white;stop-opacity:1"
         offset="0"
         id="stop8526" />
      <stop
         style="stop-color:white;stop-opacity:0"
         offset="1"
         id="stop8528" />
    </linearGradient>
    <linearGradient
       id="linearGradient8534">
      <stop
         style="stop-color:black;stop-opacity:1"
         offset="0"
         id="stop8536" />
      <stop
         style="stop-color:black;stop-opacity:0"
         offset="1"
         id="stop8538" />
    </linearGradient>
    <linearGradient
       id="linearGradient8542">
      <stop
         style="stop-color:#5b676b;stop-opacity:1"
         offset="0"
         id="stop8544" />
      <stop
         style="stop-color:#141718;stop-opacity:1"
         offset="1"
         id="stop8546" />
    </linearGradient>
    <linearGradient
       gradientTransform="translate(-55.325878,-3.595808)"
       y2="30.985245"
       x2="24.328892"
       y1="30.543303"
       x1="26.162951"
       gradientUnits="userSpaceOnUse"
       id="linearGradient3203"
       xlink:href="#linearGradient8534"
       inkscape:collect="always" />
    <linearGradient
       gradientTransform="matrix(0.800389,-0.599481,0.599481,0.800389,-70.600278,3.732032)"
       y2="31.57"
       x2="5.9846287"
       y1="23.362427"
       x1="6.3051529"
       gradientUnits="userSpaceOnUse"
       id="linearGradient3221"
       xlink:href="#linearGradient6452"
       inkscape:collect="always" />
    <radialGradient
       r="4.8310289"
       fy="25.271027"
       fx="6.0242186"
       cy="25.271027"
       cx="6.0242186"
       gradientTransform="matrix(0.79751102,-0.46044319,0.53741287,0.93082752,-69.237448,-1.008998)"
       gradientUnits="userSpaceOnUse"
       id="radialGradient3225"
       xlink:href="#linearGradient8542"
       inkscape:collect="always" />
    <linearGradient
       gradientTransform="translate(-55.325878,-3.595808)"
       y2="46.98568"
       x2="39.524544"
       y1="19.110678"
       x1="14.96875"
       gradientUnits="userSpaceOnUse"
       id="linearGradient3231"
       xlink:href="#linearGradient8524"
       inkscape:collect="always" />
    <linearGradient
       y2="30.293064"
       x2="21.213203"
       y1="28.083355"
       x1="32.350136"
       gradientTransform="translate(-59.162427,-3.249837)"
       gradientUnits="userSpaceOnUse"
       id="linearGradient3234"
       xlink:href="#linearGradient6482"
       inkscape:collect="always" />
    <linearGradient
       y2="42.282146"
       x2="7.7521091"
       y1="37.752247"
       x1="13.236155"
       gradientTransform="matrix(0.06731982,-0.33979461,0.33979461,0.06731982,-25.087891,35.445663)"
       gradientUnits="userSpaceOnUse"
       id="linearGradient3348"
       xlink:href="#linearGradient2446"
       inkscape:collect="always" />
    <linearGradient
       y2="33.438831"
       x2="23.109331"
       y1="30.001331"
       x1="19.394735"
       gradientTransform="matrix(-0.114852,-0.389864,0.389864,-0.114852,-25.983746,44.393073)"
       gradientUnits="userSpaceOnUse"
       id="linearGradient3357"
       xlink:href="#linearGradient6939"
       inkscape:collect="always" />
    <linearGradient
       y2="11.182488"
       x2="27.753893"
       y1="19.239889"
       x1="37.017639"
       gradientTransform="matrix(-0.114852,-0.389864,0.389864,-0.114852,-24.215978,45.100181)"
       gradientUnits="userSpaceOnUse"
       id="linearGradient3360"
       xlink:href="#linearGradient6951"
       inkscape:collect="always" />
    <linearGradient
       y2="30.293064"
       x2="21.213203"
       y1="28.083355"
       x1="32.350136"
       gradientTransform="translate(-59.162427,-3.249837)"
       gradientUnits="userSpaceOnUse"
       id="linearGradient3376"
       xlink:href="#linearGradient6482"
       inkscape:collect="always" />
    <linearGradient
       y2="46.98568"
       x2="39.524544"
       y1="19.110678"
       x1="14.96875"
       gradientTransform="translate(-55.325878,-3.595808)"
       gradientUnits="userSpaceOnUse"
       id="linearGradient3378"
       xlink:href="#linearGradient8524"
       inkscape:collect="always" />
    <linearGradient
       y2="30.985245"
       x2="24.328892"
       y1="30.543303"
       x1="26.162951"
       gradientTransform="translate(-55.325878,-3.595808)"
       gradientUnits="userSpaceOnUse"
       id="linearGradient3380"
       xlink:href="#linearGradient8534"
       inkscape:collect="always" />
    <linearGradient
       y2="30.293064"
       x2="21.213203"
       y1="28.083355"
       x1="32.350136"
       gradientTransform="translate(-59.162427,-3.249837)"
       gradientUnits="userSpaceOnUse"
       id="linearGradient3376-9"
       xlink:href="#linearGradient6482-8"
       inkscape:collect="always" />
    <linearGradient
       id="linearGradient6482-8">
      <stop
         style="stop-color:black;stop-opacity:1"
         offset="0"
         id="stop6484-1" />
      <stop
         style="stop-color:black;stop-opacity:0"
         offset="1"
         id="stop6486-4" />
    </linearGradient>
    <linearGradient
       y2="46.98568"
       x2="39.524544"
       y1="19.110678"
       x1="14.96875"
       gradientTransform="translate(-55.325878,-3.595808)"
       gradientUnits="userSpaceOnUse"
       id="linearGradient3378-2"
       xlink:href="#linearGradient8524-8"
       inkscape:collect="always" />
    <linearGradient
       id="linearGradient8524-8">
      <stop
         style="stop-color:white;stop-opacity:1"
         offset="0"
         id="stop8526-1" />
      <stop
         style="stop-color:white;stop-opacity:0"
         offset="1"
         id="stop8528-6" />
    </linearGradient>
    <linearGradient
       y2="30.985245"
       x2="24.328892"
       y1="30.543303"
       x1="26.162951"
       gradientTransform="translate(-55.325878,-3.595808)"
       gradientUnits="userSpaceOnUse"
       id="linearGradient3380-1"
       xlink:href="#linearGradient8534-5"
       inkscape:collect="always" />
    <linearGradient
       id="linearGradient8534-5">
      <stop
         style="stop-color:black;stop-opacity:1"
         offset="0"
         id="stop8536-8" />
      <stop
         style="stop-color:black;stop-opacity:0"
         offset="1"
         id="stop8538-6" />
    </linearGradient>
    <linearGradient
       inkscape:collect="always"
       xlink:href="#linearGradient8534-5"
       id="linearGradient3417"
       gradientUnits="userSpaceOnUse"
       gradientTransform="translate(-55.325878,-3.595808)"
       x1="26.162951"
       y1="30.543303"
       x2="24.328892"
       y2="30.985245" />
    <linearGradient
       y2="30.293064"
       x2="21.213203"
       y1="28.083355"
       x1="32.350136"
       gradientTransform="translate(-59.162427,-3.249837)"
       gradientUnits="userSpaceOnUse"
       id="linearGradient3376-2"
       xlink:href="#linearGradient6482-6"
       inkscape:collect="always" />
    <linearGradient
       id="linearGradient6482-6">
      <stop
         style="stop-color:black;stop-opacity:1"
         offset="0"
         id="stop6484-0" />
      <stop
         style="stop-color:black;stop-opacity:0"
         offset="1"
         id="stop6486-1" />
    </linearGradient>
    <linearGradient
       y2="46.98568"
       x2="39.524544"
       y1="19.110678"
       x1="14.96875"
       gradientTransform="translate(-55.325878,-3.595808)"
       gradientUnits="userSpaceOnUse"
       id="linearGradient3378-6"
       xlink:href="#linearGradient8524-9"
       inkscape:collect="always" />
    <linearGradient
       id="linearGradient8524-9">
      <stop
         style="stop-color:white;stop-opacity:1"
         offset="0"
         id="stop8526-6" />
      <stop
         style="stop-color:white;stop-opacity:0"
         offset="1"
         id="stop8528-9" />
    </linearGradient>
    <linearGradient
       y2="30.985245"
       x2="24.328892"
       y1="30.543303"
       x1="26.162951"
       gradientTransform="translate(-55.325878,-3.595808)"
       gradientUnits="userSpaceOnUse"
       id="linearGradient3380-6"
       xlink:href="#linearGradient8534-0"
       inkscape:collect="always" />
    <linearGradient
       id="linearGradient8534-0">
      <stop
         style="stop-color:black;stop-opacity:1"
         offset="0"
         id="stop8536-5" />
      <stop
         style="stop-color:black;stop-opacity:0"
         offset="1"
         id="stop8538-3" />
    </linearGradient>
    <linearGradient
       inkscape:collect="always"
       xlink:href="#linearGradient8534-0"
       id="linearGradient3417-0"
       gradientUnits="userSpaceOnUse"
       gradientTransform="translate(-55.325878,-3.595808)"
       x1="26.162951"
       y1="30.543303"
       x2="24.328892"
       y2="30.985245" />
    <linearGradient
       y2="30.985245"
       x2="24.328892"
       y1="30.543303"
       x1="26.162951"
       gradientTransform="matrix(0.78253267,0,0,0.78253267,5.53631,4.1671264)"
       gradientUnits="userSpaceOnUse"
       id="linearGradient3534"
       xlink:href="#linearGradient8534-0"
       inkscape:collect="always" />
    <linearGradient
       y2="46.98568"
       x2="39.524544"
       y1="19.110678"
       x1="14.96875"
       gradientTransform="matrix(0.78253267,0,0,0.78253267,5.53631,4.1671264)"
       gradientUnits="userSpaceOnUse"
       id="linearGradient3545"
       xlink:href="#linearGradient8524-9"
       inkscape:collect="always" />
    <linearGradient
       y2="30.293064"
       x2="21.213203"
       y1="28.083355"
       x1="32.350136"
       gradientTransform="matrix(0.78253267,0,0,0.78253267,2.534085,4.43786)"
       gradientUnits="userSpaceOnUse"
       id="linearGradient3548"
       xlink:href="#linearGradient6482-6"
       inkscape:collect="always" />
    <linearGradient
       inkscape:collect="always"
       xlink:href="#linearGradient6482-8"
       id="linearGradient4944"
       gradientUnits="userSpaceOnUse"
       gradientTransform="translate(-59.162427,-3.249837)"
       x1="32.350136"
       y1="28.083355"
       x2="21.213203"
       y2="30.293064" />
    <linearGradient
       inkscape:collect="always"
       xlink:href="#linearGradient8524-8"
       id="linearGradient4946"
       gradientUnits="userSpaceOnUse"
       gradientTransform="translate(-55.325878,-3.595808)"
       x1="14.96875"
       y1="19.110678"
       x2="39.524544"
       y2="46.98568" />
    <linearGradient
       inkscape:collect="always"
       xlink:href="#linearGradient8534-5"
       id="linearGradient4948"
       gradientUnits="userSpaceOnUse"
       gradientTransform="translate(-55.325878,-3.595808)"
       x1="26.162951"
       y1="30.543303"
       x2="24.328892"
       y2="30.985245" />
    <linearGradient
       inkscape:collect="always"
       xlink:href="#linearGradient8534-5"
       id="linearGradient4951"
       gradientUnits="userSpaceOnUse"
       gradientTransform="matrix(0.78253267,0,0,0.78253267,5.53631,4.1671264)"
       x1="26.162951"
       y1="30.543303"
       x2="24.328892"
       y2="30.985245" />
    <linearGradient
       inkscape:collect="always"
       xlink:href="#linearGradient8524-8"
       id="linearGradient4962"
       gradientUnits="userSpaceOnUse"
       gradientTransform="matrix(0.78253267,0,0,0.78253267,5.53631,4.1671264)"
       x1="14.96875"
       y1="19.110678"
       x2="39.524544"
       y2="46.98568" />
    <linearGradient
       inkscape:collect="always"
       xlink:href="#linearGradient6482-8"
       id="linearGradient4965"
       gradientUnits="userSpaceOnUse"
       gradientTransform="matrix(0.78253267,0,0,0.78253267,2.534085,4.43786)"
       x1="32.350136"
       y1="28.083355"
       x2="21.213203"
       y2="30.293064" />
  </defs>
  <metadata
     id="metadata7">
    <rdf:RDF>
      <cc:Work
         rdf:about="">
        <dc:format>image/svg+xml</dc:format>
        <dc:type
           rdf:resource="http://purl.org/dc/dcmitype/StillImage" />
        <dc:title />
      </cc:Work>
    </rdf:RDF>
  </metadata>
  <g
     inkscape:label="base"
     inkscape:groupmode="layer"
     id="layer1"
     transform="translate(0,-1004.3622)"
     style="display:inline">
    <rect
       style="color:#000000;fill:#9eabb0;fill-opacity:1;fill-rule:nonzero;stroke:none;stroke-width:0.50000000000000000;marker:none;visibility:visible;display:inline;overflow:visible;enable-background:accumulate"
       id="rect3006-5"
       width="48"
       height="48"
       x="0"
       y="1004.3622"
       ry="2" />
    <path
       style="fill:#000000"
       d=""
       id="path906-8"
       inkscape:connector-curvature="0" />
    <g
       transform="matrix(0.36107049,0,0,-0.36107049,-201.21141,1000.5609)"
       id="g312"
       style="fill:#000000;fill-opacity:0.49803922" />
    <g
       transform="matrix(0.36107049,0,0,-0.36107049,-189.85603,989.20486)"
       id="g316"
       style="fill:#000000;fill-opacity:0.49803922" />
  </g>
  <g
     inkscape:groupmode="layer"
     id="layer2"
     inkscape:label="shadow"
     style="display:inline">
    <path
       style="fill:#000000"
       d=""
       id="path906"
       inkscape:connector-curvature="0" />
    <flowRoot
       xml:space="preserve"
       id="flowRoot61"
       style="font-size:40px;font-style:normal;font-weight:normal;line-height:125%;letter-spacing:0px;word-spacing:0px;fill:#000000;fill-opacity:1;stroke:none;font-family:sans-serif"
       transform="translate(-18.261517,-1007.8751)"><flowRegion
         id="flowRegion63"><rect
           id="rect65"
           width="57.6292"
           height="49.320694"
           x="-53.033005"
           y="6.6342559" /></flowRegion><flowPara
         id="flowPara67" /></flowRoot>    <path
       style="font-size:medium;font-style:normal;font-variant:normal;font-weight:normal;font-stretch:normal;text-indent:0;text-align:start;text-decoration:none;line-height:normal;letter-spacing:normal;word-spacing:normal;text-transform:none;direction:ltr;block-progression:tb;writing-mode:lr-tb;text-anchor:start;opacity:0.25;color:#000000;fill:#000000;fill-opacity:1;fill-rule:evenodd;stroke:none;stroke-width:0.78253245;marker:none;visibility:visible;font-family:Sans;-inkscape-font-specification:Sans"
       d="M 34.03125 11.4375 C 33.911572 11.796534 33.49391 13.019693 32.15625 14.34375 C 30.828052 15.658441 28.58252 17.052925 24.78125 17.6875 C 23.385824 16.92215 21.619937 17.04965 20.34375 18 C 19.742495 17.95275 19.197899 17.846727 18.6875 17.6875 L 13.3125 12.3125 L 13.25 13.9375 L 13.125 19.1875 C 12.834144 19.715965 12.62376 20.301902 12.625 20.90625 L 12.625 20.9375 C 10.879289 20.727047 9.0435966 21.084508 7.875 22.09375 C 6.5937825 23.200256 6.3195077 24.957711 7.25 26.28125 L 28.96875 48 L 46 48 C 47.108 48 48 47.108 48 46 L 48 25.40625 L 34.03125 11.4375 z "
       id="path4486" />
  </g>
  <g
     inkscape:groupmode="layer"
     id="layer3"
     inkscape:label="icon"
     style="display:inline">
    <path
       id="path4323"
       style="color:#000000;fill:#804d00;fill-opacity:1;fill-rule:evenodd;stroke:#0e232e;stroke-width:0.78253245;stroke-linecap:butt;stroke-linejoin:miter;stroke-miterlimit:10;stroke-opacity:1;stroke-dasharray:none;stroke-dashoffset:0;marker:none;visibility:visible;display:inline;overflow:visible"
       d="m 13.654593,13.923653 c 0,0 2.249397,4.638567 7.51172,4.507707 11.027854,-0.276667 12.961644,-6.029376 13.23831,-6.859377 0.276668,-0.830001 0.700002,-0.704278 0.797876,0.06281 3.596672,32.646715 -24.96039,18.639284 -25.9745802,13.078876 5.6716752,-1.660003 4.2883402,-4.841675 4.2883402,-4.841675 l 0.138334,-5.948342 z"
       inkscape:connector-curvature="0" />
    <path
       id="path6480"
       style="color:#000000;fill:url(#linearGradient4965);fill-opacity:1;fill-rule:evenodd;stroke:none;stroke-width:0.9999997;marker:none;visibility:visible;display:inline;overflow:visible"
       d="m 17.851645,27.694792 c 5.273409,1.054726 7.958898,0.07676 9.530602,-1.136845 -0.415,-0.536042 -1.123959,-1.12396 -1.123959,-1.12396 0,0 1.841547,0.511731 2.490003,1.348752 0.646599,0.834624 0.240087,1.348857 0.07087,2.416751 -0.37672,-0.937943 -1.07988,-1.289686 -1.175078,-1.66236 -1.413463,1.953927 -4.934996,1.872758 -9.792435,0.157662 z"
       inkscape:connector-curvature="0" />
    <path
       id="path8520"
       style="opacity:0.18539327;color:#000000;fill:none;stroke:url(#linearGradient4962);stroke-width:0.78253245;stroke-linecap:butt;stroke-linejoin:miter;stroke-miterlimit:10;stroke-opacity:1;stroke-dasharray:none;stroke-dashoffset:0;marker:none;visibility:visible;display:inline;overflow:visible"
       d="m 34.465565,13.435248 c -0.439767,0.725325 -1.100626,1.591018 -2.103057,2.42096 -2.059562,1.705172 -5.517296,3.257173 -11.175545,3.399126 -3.30571,0.0822 -5.440747,-1.513534 -6.749344,-2.934497 l -0.09782,3.496943 c 0.106508,0.327726 0.325107,1.08811 -0.04891,2.12751 -0.402467,1.118471 -1.685977,2.262586 -3.888209,3.130131 0.195891,0.408508 0.387733,0.816667 0.978166,1.393886 0.804404,0.786403 1.922708,1.633967 3.252401,2.396507 2.659385,1.525079 6.104994,2.733552 9.31703,2.787772 3.212036,0.05422 6.148458,-0.966075 8.167685,-3.912663 1.861444,-2.716341 2.881655,-7.315071 2.347598,-14.305675 z"
       inkscape:connector-curvature="0" />
    <path
       id="path4357"
       style="color:#000000;fill:#cccccc;fill-opacity:1;fill-rule:evenodd;stroke:#cccccc;stroke-width:0.78253257;stroke-linecap:butt;stroke-linejoin:miter;stroke-miterlimit:10;stroke-opacity:1;stroke-dasharray:none;stroke-dashoffset:0;marker:none;visibility:visible;display:inline;overflow:visible"
       d="m 19.39546,20.909504 a 3.1816725,3.1816725 0 1 1 -6.363345,0 3.1816725,3.1816725 0 1 1 6.363345,0 z"
       inkscape:connector-curvature="0" />
    <path
       id="path5198"
       style="color:#000000;fill:#0e232e;fill-opacity:1;fill-rule:evenodd;stroke:#0e232e;stroke-width:0.78253275;stroke-linecap:butt;stroke-linejoin:miter;stroke-miterlimit:10;stroke-opacity:1;stroke-dasharray:none;stroke-dashoffset:0;marker:none;visibility:visible;display:inline;overflow:visible"
       d="M 13.05739,22.108272 A 4.7725092,3.3891732 54.192151 1 1 7.5602619,26.074071 4.7725092,3.3891732 54.192151 0 1 13.05739,22.108272 z"
       inkscape:connector-curvature="0" />
    <path
       id="path4359"
       style="color:#000000;fill:#0e232e;fill-opacity:1;fill-rule:evenodd;stroke:#0e232e;stroke-width:0.78253263;stroke-linecap:butt;stroke-linejoin:miter;stroke-miterlimit:10;stroke-opacity:1;stroke-dasharray:none;stroke-dashoffset:0;marker:none;visibility:visible;display:inline;overflow:visible"
       d="m 18.489692,21.380859 a 1.5319162,1.5319162 0 1 1 -3.063832,0 1.5319162,1.5319162 0 1 1 3.063832,0 z"
       inkscape:connector-curvature="0" />
    <path
       id="path6462"
       style="color:#000000;fill:#cccccc;fill-opacity:1;fill-rule:evenodd;stroke:#cccccc;stroke-width:0.78253239;stroke-linecap:butt;stroke-linejoin:miter;stroke-miterlimit:10;stroke-opacity:1;stroke-dasharray:none;stroke-dashoffset:0;marker:none;visibility:visible;display:inline;overflow:visible"
       d="m 26.519628,21.255335 a 3.7350057,3.7350057 0 0 1 -7.470011,0 3.7350057,3.7350057 0 1 1 7.470011,0 z"
       inkscape:connector-curvature="0" />
    <path
       id="path6464"
       style="color:#000000;fill:#0e232e;fill-opacity:1;fill-rule:evenodd;stroke:#0e232e;stroke-width:0.78253245;stroke-linecap:butt;stroke-linejoin:miter;stroke-miterlimit:10;stroke-opacity:1;stroke-dasharray:none;stroke-dashoffset:0;marker:none;visibility:visible;display:inline;overflow:visible"
       d="m 25.456342,21.808666 a 1.7983361,1.7983361 0 1 1 -3.596672,0 1.7983361,1.7983361 0 1 1 3.596672,0 z"
       inkscape:connector-curvature="0" />
    <path
       inkscape:connector-curvature="0"
       d="m 34.166787,32.409836 0.724934,-1.443675 c -2.696866,-1.973027 -7.668281,-3.408643 -7.668281,-3.408643 -0.861741,-0.401399 -1.133694,0.372746 -0.536988,0.875986 0,0 4.251573,3.047938 7.480335,3.976332 z"
       style="color:#000000;fill:#b88100;fill-opacity:1;fill-rule:nonzero;stroke:#804d00;stroke-width:0.78253311;stroke-linecap:round;stroke-linejoin:miter;stroke-miterlimit:4;stroke-opacity:1;stroke-dasharray:none;stroke-dashoffset:0;marker:none;visibility:visible;display:inline;overflow:visible"
       id="path6937" />
    <path
       inkscape:connector-curvature="0"
       d="M 37.624248,33.740543 38.012331,32.88143 35.001496,30.952561 34.76144,30.932081 34.657644,30.5998 c -0.43737,0.273903 -1.072941,1.291365 -0.904424,1.863393 l 0.325189,-0.122994 0.176155,0.170247 3.369682,1.230097 z"
       style="color:#000000;fill:#cccccc;fill-opacity:1;fill-rule:nonzero;stroke:#999999;stroke-width:0.78253311;stroke-linecap:round;stroke-linejoin:miter;stroke-miterlimit:4;stroke-opacity:1;stroke-dasharray:none;stroke-dashoffset:0;marker:none;visibility:visible;display:inline;overflow:visible"
       id="path6935" />
    <path
       inkscape:connector-curvature="0"
       d="m 41.999998,37.388865 c -0.938655,-3.186257 -1.271576,-5.716136 -3.724591,-5.491016 -1.97679,0.181417 -2.115183,3.013835 -0.07246,3.795432 C 40.170729,36.446205 42,37.388865 42,37.388865 z"
       style="color:#000000;fill:#b88100;fill-opacity:1;fill-rule:nonzero;stroke:none;stroke-width:0.20000000000000001;marker:none;visibility:visible;display:inline;overflow:visible"
       id="path6933" />
    <path
       id="path8532"
       style="color:#000000;fill:url(#linearGradient4951);fill-opacity:1;fill-rule:evenodd;stroke:none;stroke-width:0.9999997;marker:none;visibility:visible;display:inline;overflow:visible"
       d="m 23.536961,29.002009 c 1.171743,0.111974 2.229928,-0.213016 2.669918,-0.370957 0.07686,-0.434608 0.41987,-1.268687 1.601131,-1.323629 l -0.415001,-0.726251 c 0,0 -1.538961,1.054792 -3.181671,1.366043 l -0.674377,1.054794 z"
       inkscape:connector-curvature="0" />
  </g>
  <g
     inkscape:groupmode="layer"
     id="layer4"
     inkscape:label="hilight"
     sodipodi:insensitive="true">
    <path
       inkscape:connector-curvature="0"
       style="opacity:0.4;color:#000000;fill:url(#linearGradient12443);fill-opacity:1;fill-rule:nonzero;stroke:none;stroke-width:0.5;marker:none;visibility:visible;display:inline;overflow:visible;enable-background:accumulate"
       d="M 2,0 C 0.892,0 0,0.892 0,2 l 0,44 c 0,1.108 0.892,2 2,2 l 44,0 c 1.108,0 2,-0.892 2,-2 L 48,2 C 48,0.892 47.108,0 46,0 L 2,0 z m 0,0.5 44,0 c 0.83101,0 1.5,0.6689904 1.5,1.5 l 0,44 c 0,0.83101 -0.66899,1.5 -1.5,1.5 l -44,0 C 1.1689904,47.5 0.5,46.83101 0.5,46 L 0.5,2 C 0.5,1.1689904 1.1689904,0.5 2,0.5 z"
       id="rect3006" />
  </g>
</svg>
