<?xml version="1.0" encoding="UTF-8" standalone="no"?>
<!-- Created with Inkscape (http://www.inkscape.org/) -->

<svg
   xmlns:dc="http://purl.org/dc/elements/1.1/"
   xmlns:cc="http://creativecommons.org/ns#"
   xmlns:rdf="http://www.w3.org/1999/02/22-rdf-syntax-ns#"
   xmlns:svg="http://www.w3.org/2000/svg"
   xmlns="http://www.w3.org/2000/svg"
   xmlns:xlink="http://www.w3.org/1999/xlink"
   xmlns:sodipodi="http://sodipodi.sourceforge.net/DTD/sodipodi-0.dtd"
   xmlns:inkscape="http://www.inkscape.org/namespaces/inkscape"
   width="48"
   height="48"
   id="svg2"
   version="1.1"
   inkscape:version="0.48.4 r9939"
   sodipodi:docname="gnome-mahjongg.svg">
  <sodipodi:namedview
     id="base"
     pagecolor="#424242"
     bordercolor="#666666"
     borderopacity="1.0"
     inkscape:pageopacity="1"
     inkscape:pageshadow="2"
     inkscape:zoom="5.6568542"
     inkscape:cx="-4.8901899"
     inkscape:cy="17.958253"
     inkscape:document-units="px"
     inkscape:current-layer="layer3"
     showgrid="false"
     showborder="false"
     borderlayer="false"
     showguides="true"
     inkscape:guide-bbox="true"
     inkscape:window-width="1855"
     inkscape:window-height="1056"
     inkscape:window-x="65"
     inkscape:window-y="24"
     inkscape:window-maximized="1">
    <inkscape:grid
       type="xygrid"
       id="grid3004"
       empspacing="5"
       visible="true"
       enabled="true"
       snapvisiblegridlinesonly="true"
       spacingx="1px"
       spacingy="1px" />
  </sodipodi:namedview>
  <defs
     id="defs4">
    <linearGradient
       id="linearGradient4035">
      <stop
         style="stop-color:#ffffff;stop-opacity:1;"
         offset="0"
         id="stop4037" />
      <stop
         id="stop4045"
         offset="0.09677419"
         style="stop-color:#ffffff;stop-opacity:0;" />
      <stop
         id="stop4043"
         offset="0.90322578"
         style="stop-color:#000000;stop-opacity:0;" />
      <stop
         style="stop-color:#000000;stop-opacity:1;"
         offset="1"
         id="stop4039" />
    </linearGradient>
    <pattern
       patternTransform="matrix(1,1,-1,1,-9,6)"
       id="pattern9437"
       xlink:href="#pattern8330-1"
       inkscape:collect="always" />
    <pattern
       patternTransform="matrix(1,1,-1,1,-3,10)"
       id="pattern8334"
       xlink:href="#pattern5438-72-9-6-6-3"
       inkscape:collect="always" />
    <pattern
       patternTransform="matrix(1,1,-1,1,-9,6)"
       id="pattern8330"
       xlink:href="#pattern5438-72-9-6-6"
       inkscape:collect="always" />
    <pattern
       patternTransform="matrix(1,1,-1,1,1,8)"
       id="pattern5438"
       xlink:href="#Checkerboard"
       inkscape:collect="always" />
    <pattern
       inkscape:collect="always"
       patternUnits="userSpaceOnUse"
       width="2"
       height="2"
       patternTransform="translate(0,0) scale(10,10)"
       id="Checkerboard"
       inkscape:stockid="Checkerboard">
      <rect
         style="fill:black;stroke:none"
         x="0"
         y="0"
         width="1"
         height="1"
         id="rect4778" />
      <rect
         style="fill:black;stroke:none"
         x="1"
         y="1"
         width="1"
         height="1"
         id="rect4780" />
    </pattern>
    <linearGradient
       id="linearGradient5618">
      <stop
         style="stop-color:#ffffff;stop-opacity:1;"
         offset="0"
         id="stop5620" />
      <stop
         style="stop-color:#ebebeb;stop-opacity:1;"
         offset="1"
         id="stop5622" />
    </linearGradient>
    <linearGradient
       id="linearGradient3916">
      <stop
         style="stop-color:#c1c1c1;stop-opacity:1;"
         offset="0"
         id="stop3918" />
      <stop
         style="stop-color:#999999;stop-opacity:1;"
         offset="1"
         id="stop3920" />
    </linearGradient>
    <linearGradient
       id="linearGradient4452">
      <stop
         id="stop4454"
         offset="0"
         style="stop-color:#000000;stop-opacity:0.15853658;" />
      <stop
         id="stop4456"
         offset="1"
         style="stop-color:#000000;stop-opacity:0;" />
    </linearGradient>
    <linearGradient
       id="linearGradient4571">
      <stop
         style="stop-color:#ecf1f3;stop-opacity:1;"
         offset="0"
         id="stop4573" />
      <stop
         style="stop-color:#c5cacc;stop-opacity:1;"
         offset="1"
         id="stop4575" />
    </linearGradient>
    <linearGradient
       inkscape:collect="always"
       id="linearGradient4699">
      <stop
         style="stop-color:#19aeff;stop-opacity:1;"
         offset="0"
         id="stop4701" />
      <stop
         style="stop-color:#19aeff;stop-opacity:0;"
         offset="1"
         id="stop4703" />
    </linearGradient>
    <linearGradient
       id="linearGradient4691">
      <stop
         style="stop-color:#69caff;stop-opacity:1;"
         offset="0"
         id="stop4693" />
      <stop
         style="stop-color:#19aeff;stop-opacity:0;"
         offset="1"
         id="stop4695" />
    </linearGradient>
    <linearGradient
       id="linearGradient4665">
      <stop
         style="stop-color:#95dbff;stop-opacity:1;"
         offset="0"
         id="stop4667" />
      <stop
         style="stop-color:#006ba2;stop-opacity:1;"
         offset="1"
         id="stop4669" />
    </linearGradient>
    <linearGradient
       id="linearGradient4634">
      <stop
         style="stop-color:#000000;stop-opacity:0.38414633;"
         offset="0"
         id="stop4636" />
      <stop
         style="stop-color:#000000;stop-opacity:0;"
         offset="1"
         id="stop4638" />
    </linearGradient>
    <linearGradient
       inkscape:collect="always"
       xlink:href="#linearGradient3815-5"
       id="linearGradient3821-9"
       x1="3"
       y1="3"
       x2="25"
       y2="28"
       gradientUnits="userSpaceOnUse" />
    <linearGradient
       inkscape:collect="always"
       id="linearGradient3815-5">
      <stop
         style="stop-color:#ffffff;stop-opacity:1;"
         offset="0"
         id="stop3817-1" />
      <stop
         style="stop-color:#ffffff;stop-opacity:0;"
         offset="1"
         id="stop3819-9" />
    </linearGradient>
    <linearGradient
       inkscape:collect="always"
       xlink:href="#linearGradient4691"
       id="linearGradient4697"
       x1="45"
       y1="1049.8622"
       x2="42.5"
       y2="1047.3622"
       gradientUnits="userSpaceOnUse" />
    <linearGradient
       inkscape:collect="always"
       xlink:href="#linearGradient4699"
       id="linearGradient4705"
       x1="27.5"
       y1="0.5"
       x2="27.5"
       y2="3"
       gradientUnits="userSpaceOnUse" />
    <linearGradient
       inkscape:collect="always"
       xlink:href="#linearGradient4691-0"
       id="linearGradient4697-1"
       x1="45"
       y1="1049.8622"
       x2="42.5"
       y2="1047.3622"
       gradientUnits="userSpaceOnUse" />
    <linearGradient
       inkscape:collect="always"
       id="linearGradient4691-0">
      <stop
         style="stop-color:#19aeff;stop-opacity:1;"
         offset="0"
         id="stop4693-5" />
      <stop
         style="stop-color:#19aeff;stop-opacity:0;"
         offset="1"
         id="stop4695-5" />
    </linearGradient>
    <linearGradient
       gradientTransform="translate(0,-1004.3622)"
       y2="1047.3622"
       x2="42.5"
       y1="1049.8622"
       x1="45"
       gradientUnits="userSpaceOnUse"
       id="linearGradient12409"
       xlink:href="#linearGradient4699-1"
       inkscape:collect="always" />
    <linearGradient
       inkscape:collect="always"
       xlink:href="#linearGradient4699-1"
       id="linearGradient4705-1"
       x1="27.5"
       y1="0.5"
       x2="27.5"
       y2="3"
       gradientUnits="userSpaceOnUse" />
    <linearGradient
       id="linearGradient4699-1">
      <stop
         style="stop-color:#ffffff;stop-opacity:1;"
         offset="0"
         id="stop4701-3" />
      <stop
         style="stop-color:#ffffff;stop-opacity:0;"
         offset="1"
         id="stop4703-4" />
    </linearGradient>
    <linearGradient
       y2="3"
       x2="27.5"
       y1="0.5"
       x1="27.5"
       gradientUnits="userSpaceOnUse"
       id="linearGradient12443"
       xlink:href="#linearGradient4699-1"
       inkscape:collect="always" />
    <clipPath
       clipPathUnits="userSpaceOnUse"
       id="clipPath3856">
      <path
         style="opacity:0.3;fill:#000000;fill-opacity:1;stroke:none;display:inline"
         d="m 27.84375,12.03125 -15.4375,15.4375 8.125,8.125 L 32.9375,48 46,48 c 1.108,0 2,-0.892 2,-2 l 0,-13.8125 -12.03125,-12.03125 -8.125,-8.125 z m 10.5625,2.4375 0,3.25 -1.625,1.625 L 48,30.5625 l 0,-6.5 -9.59375,-9.59375 z m -18.6875,21.9375 -8.9375,2.4375 -1.625,0 L 18.3125,48 l 13,0 -11.59375,-11.59375 z"
         id="path3858"
         inkscape:connector-curvature="0" />
    </clipPath>
    <clipPath
       clipPathUnits="userSpaceOnUse"
       id="clipPath4492">
      <path
         inkscape:connector-curvature="0"
         style="opacity:0.3;fill:#000000;fill-opacity:1;fill-rule:evenodd;stroke-width:0.25;display:inline"
         d="m 28.28125,11 c -0.382978,-0.015 -0.701309,0.2118 -0.65625,0.625 l 0,0.9375 c 0.0028,0.107535 0.03337,0.206152 0.0625,0.28125 0.0077,0.0185 0.02221,0.04583 0.03125,0.0625 0.02417,0.04365 0.03048,0.09298 0.0625,0.125 l 0.09375,0.0625 1.6875,1.71875 c -0.09694,0.107303 -0.236384,0.234525 -0.40625,0.40625 l -2.28125,2.375 -6.4375,-6.4375 c -0.08266,-0.08266 -0.181553,-0.128868 -0.34375,-0.125 l -9.25,0 c -0.337919,-0.015 -0.585021,0.2799 -0.5625,0.625 l 0,1.03125 c -3.5e-4,0.08677 0.0032,0.174519 0.03125,0.25 0.02085,0.0575 0.05938,0.108056 0.09375,0.15625 0.01247,0.01766 0.0172,0.0463 0.03125,0.0625 0.0091,0.01035 0.02154,0.02154 0.03125,0.03125 l 0.15625,0.125 1.65625,1.65625 0,0.03125 0,21.53125 c -0.0083,0.0885 -0.01311,0.187768 0,0.25 0.0079,0.0311 0.01605,0.06838 0.03125,0.09375 0.01199,0.02047 0.01402,0.04527 0.03125,0.0625 L 23.40625,48 46,48 c 1.108,0 2,-0.892 2,-2 L 48,21.59375 37.65625,11.25 c -0.01519,-0.03494 -0.03721,-0.06556 -0.0625,-0.09375 -0.0095,-0.0095 -0.02057,-0.02275 -0.03125,-0.03125 -0.03337,-0.02893 -0.07961,-0.04528 -0.125,-0.0625 -0.0085,-0.0029 -0.02235,0.0024 -0.03125,0 -0.0577,-0.01753 -0.114282,-0.03502 -0.1875,-0.03125 L 28.28125,11 z"
         id="path4494" />
    </clipPath>
    <linearGradient
       gradientTransform="translate(7.7392578e-7,4.2609766e-5)"
       inkscape:collect="always"
       xlink:href="#linearGradient6772"
       id="linearGradient6778"
       x1="40.915409"
       y1="1049.3521"
       x2="40.915409"
       y2="1007.3218"
       gradientUnits="userSpaceOnUse" />
    <linearGradient
       inkscape:collect="always"
       id="linearGradient6772">
      <stop
         style="stop-color:#efe963;stop-opacity:1"
         offset="0"
         id="stop6774" />
      <stop
         style="stop-color:#fcf982;stop-opacity:1"
         offset="1"
         id="stop6776" />
    </linearGradient>
    <linearGradient
       inkscape:collect="always"
       xlink:href="#linearGradient6772"
       id="linearGradient3085"
       gradientUnits="userSpaceOnUse"
       gradientTransform="translate(-84.249997,-4.7499109)"
       x1="40.915409"
       y1="1049.3521"
       x2="40.915409"
       y2="1007.3218" />
    <clipPath
       id="clipPath4331"
       clipPathUnits="userSpaceOnUse">
      <path
         id="path4333"
         d="m 23.75,7.5625 c -3.451779,0 -6.25,2.7982 -6.25,6.25 l 0,4.6875 c 0,0.330092 0.136168,0.620764 0.34375,0.84375 0.01016,0.01092 0.02071,0.02071 0.03125,0.03125 L 20.96875,22.5 14.5,22.5 c -1.108,0 -2,0.892 -2,2 l 0,13.5 c 0,0.164967 0.02519,0.315591 0.0625,0.46875 0.0262,0.107537 0.05103,0.212656 0.09375,0.3125 0.03933,0.09214 0.104041,0.165705 0.15625,0.25 0.03201,0.05189 0.05727,0.107675 0.09375,0.15625 0.02233,0.02974 0.03857,0.06534 0.0625,0.09375 0.0417,0.04964 0.07872,0.110926 0.125,0.15625 0.04721,0.04594 0.104619,0.08384 0.15625,0.125 L 21.6875,48 46,48 c 1.108,0 2,-0.892 2,-2 L 48,29.25 28.4375,9.6875 C 28.344943,9.5817008 28.255631,9.4742937 28.15625,9.375 28.12092,9.339674 28.06741,9.315722 28.03125,9.28125 27.918981,9.1744958 27.807452,9.0669564 27.6875,8.96875 27.6578,8.944221 27.62391,8.930234 27.59375,8.90625 27.471947,8.81012 27.34765,8.7119582 27.21875,8.625 27.18719,8.603662 27.15696,8.58327 27.125,8.5625 26.990501,8.475245 26.860145,8.3893571 26.71875,8.3125 26.69063,8.297207 26.65338,8.296119 26.625,8.28125 26.494088,8.212761 26.35495,8.1529625 26.21875,8.09375 26.17651,8.075309 26.13647,8.048772 26.09375,8.03125 25.933803,7.965967 25.760065,7.8957447 25.59375,7.84375 25.57208,7.837004 25.553022,7.8190142 25.53125,7.8125 25.352378,7.7587466 25.185323,7.7251536 25,7.6875 24.9901,7.68547 24.97866,7.68948 24.96875,7.6875 24.77271,7.6487168 24.577293,7.6136138 24.375,7.59375 24.165984,7.5725195 23.964744,7.5625 23.75,7.5625 z"
         style="color:#000000;fill:#0e232e;fill-opacity:0.48709681;fill-rule:nonzero;stroke:none;stroke-width:0.5;marker:none;visibility:visible;display:inline"
         inkscape:connector-curvature="0" />
    </clipPath>
    <clipPath
       clipPathUnits="userSpaceOnUse"
       id="clipPath3071">
      <path
         id="path3073"
         d="m 24,6 c -3.313709,0 -6,2.6862912 -6,6 l 0,5 5,5 -9,0 c -1.108,0 -2,0.892 -2,2 l 0,14 c 0,0.421192 0.123088,0.803368 0.34375,1.125 0.07174,0.106367 0.159625,0.190875 0.25,0.28125 0.0056,0.0056 -0.0056,0.02572 0,0.03125 L 21.15625,48 46,48 c 1.108,0 2,-0.892 2,-2 L 48,27.5 28.25,7.75 C 27.164213,6.6642136 25.656854,6 24,6 z"
         style="opacity:0.25;color:#000000;fill:#000000;fill-opacity:1;fill-rule:nonzero;stroke:none;stroke-width:0.5;marker:none;visibility:visible;display:inline"
         inkscape:connector-curvature="0" />
    </clipPath>
    <linearGradient
       gradientUnits="userSpaceOnUse"
       y2="1026.3622"
       x2="32.9375"
       y1="1026.3622"
       x1="23"
       id="linearGradient4458-2"
       xlink:href="#linearGradient4452-1"
       inkscape:collect="always" />
    <linearGradient
       id="linearGradient4452-1">
      <stop
         id="stop4454-5"
         offset="0"
         style="stop-color:#000000;stop-opacity:0.15853658;" />
      <stop
         id="stop4456-0"
         offset="1"
         style="stop-color:#000000;stop-opacity:0;" />
    </linearGradient>
    <linearGradient
       inkscape:collect="always"
       xlink:href="#linearGradient4452-1"
       id="linearGradient4475"
       gradientUnits="userSpaceOnUse"
       x1="23"
       y1="1026.3622"
       x2="32.9375"
       y2="1026.3622"
       gradientTransform="translate(0,-1004.3622)" />
    <radialGradient
       inkscape:collect="always"
       xlink:href="#linearGradient4691"
       id="radialGradient3914"
       cx="24"
       cy="43"
       fx="24"
       fy="43"
       r="21"
       gradientTransform="matrix(1,0,0,0.0952381,0,38.904762)"
       gradientUnits="userSpaceOnUse" />
    <linearGradient
       inkscape:collect="always"
       xlink:href="#linearGradient3916-6"
       id="linearGradient3922-9"
       x1="23.157747"
       y1="1004.7625"
       x2="23.157747"
       y2="1052.0516"
       gradientUnits="userSpaceOnUse" />
    <linearGradient
       id="linearGradient3916-6">
      <stop
         style="stop-color:#c1c1c1;stop-opacity:1;"
         offset="0"
         id="stop3918-1" />
      <stop
         style="stop-color:#999999;stop-opacity:1;"
         offset="1"
         id="stop3920-7" />
    </linearGradient>
    <linearGradient
       y2="1052.0516"
       x2="23.157747"
       y1="1004.7625"
       x1="23.157747"
       gradientUnits="userSpaceOnUse"
       id="linearGradient3939"
       xlink:href="#linearGradient3916-6"
       inkscape:collect="always"
       gradientTransform="translate(-15.202796,5.0381358)" />
    <linearGradient
       y2="3"
       x2="27.5"
       y1="0.5"
       x1="27.5"
       gradientUnits="userSpaceOnUse"
       id="linearGradient12443-7"
       xlink:href="#linearGradient4699-1-7"
       inkscape:collect="always" />
    <linearGradient
       id="linearGradient4699-1-7">
      <stop
         style="stop-color:#000000;stop-opacity:1;"
         offset="0"
         id="stop4701-3-9" />
      <stop
         style="stop-color:#000000;stop-opacity:0;"
         offset="1"
         id="stop4703-4-8" />
    </linearGradient>
    <linearGradient
       y2="40.475986"
       x2="26.527729"
       y1="46.285164"
       x1="26.527729"
       gradientUnits="userSpaceOnUse"
       id="linearGradient3973"
       xlink:href="#linearGradient4699-1-7"
       inkscape:collect="always" />
    <linearGradient
       inkscape:collect="always"
       xlink:href="#linearGradient3916-9"
       id="linearGradient3922-2"
       x1="23.157747"
       y1="1004.7625"
       x2="23.157747"
       y2="1052.0516"
       gradientUnits="userSpaceOnUse" />
    <linearGradient
       id="linearGradient3916-9">
      <stop
         style="stop-color:#c1c1c1;stop-opacity:1;"
         offset="0"
         id="stop3918-8" />
      <stop
         style="stop-color:#999999;stop-opacity:1;"
         offset="1"
         id="stop3920-6" />
    </linearGradient>
    <linearGradient
       gradientTransform="translate(0,-1004.3622)"
       y2="1052.0516"
       x2="23.157747"
       y1="1004.7625"
       x1="23.157747"
       gradientUnits="userSpaceOnUse"
       id="linearGradient4575"
       xlink:href="#linearGradient3916-9"
       inkscape:collect="always" />
    <linearGradient
       inkscape:collect="always"
       xlink:href="#linearGradient3916-93"
       id="linearGradient3922-5"
       x1="23.157747"
       y1="1004.7625"
       x2="23.157747"
       y2="1052.0516"
       gradientUnits="userSpaceOnUse" />
    <linearGradient
       id="linearGradient3916-93">
      <stop
         style="stop-color:#c1c1c1;stop-opacity:1;"
         offset="0"
         id="stop3918-10" />
      <stop
         style="stop-color:#999999;stop-opacity:1;"
         offset="1"
         id="stop3920-2" />
    </linearGradient>
    <linearGradient
       gradientTransform="translate(0,-1004.3622)"
       y2="1052.0516"
       x2="23.157747"
       y1="1004.7625"
       x1="23.157747"
       gradientUnits="userSpaceOnUse"
       id="linearGradient5579"
       xlink:href="#linearGradient3916-93"
       inkscape:collect="always" />
    <linearGradient
       id="linearGradient5618-7">
      <stop
         style="stop-color:#ffffff;stop-opacity:1;"
         offset="0"
         id="stop5620-5" />
      <stop
         style="stop-color:#ebebeb;stop-opacity:1;"
         offset="1"
         id="stop5622-8" />
    </linearGradient>
    <linearGradient
       gradientTransform="translate(-9.9965996,-6)"
       y2="22.624882"
       x2="23.496599"
       y1="8.4946308"
       x1="23.496599"
       gradientUnits="userSpaceOnUse"
       id="linearGradient5641"
       xlink:href="#linearGradient5618-7"
       inkscape:collect="always" />
    <linearGradient
       inkscape:collect="always"
       xlink:href="#linearGradient3916-8"
       id="linearGradient3922-1"
       x1="23.157747"
       y1="1004.7625"
       x2="23.157747"
       y2="1052.0516"
       gradientUnits="userSpaceOnUse" />
    <linearGradient
       id="linearGradient3916-8">
      <stop
         style="stop-color:#c1c1c1;stop-opacity:1;"
         offset="0"
         id="stop3918-0" />
      <stop
         style="stop-color:#999999;stop-opacity:1;"
         offset="1"
         id="stop3920-3" />
    </linearGradient>
    <linearGradient
       inkscape:collect="always"
       xlink:href="#linearGradient3916-8"
       id="linearGradient4705-0"
       gradientUnits="userSpaceOnUse"
       x1="23.157747"
       y1="1004.7625"
       x2="23.157747"
       y2="1052.0516"
       gradientTransform="translate(0,-1004.3622)" />
    <clipPath
       id="clipPath4783"
       clipPathUnits="userSpaceOnUse">
      <path
         id="path4785"
         d="m 24,6 c -1.10699,0 -2,0.886755 -2,2 0,0.5073146 0.190935,0.98963 0.5,1.34375 0.01927,0.021756 0.0423,0.041623 0.0625,0.0625 0.01043,0.010911 0.02058,0.02058 0.03125,0.03125 l 0.59375,0.59375 0,8.3125 -3.75,-3.75 C 19.075874,14.225093 18.584744,14 18.03125,14 16.92426,14 16,14.886754 16,16 c 0,0.163363 0.02514,0.31485 0.0625,0.46875 0.0125,0.05159 0.01491,0.106232 0.03125,0.15625 0.03706,0.113087 0.101289,0.20905 0.15625,0.3125 0.02547,0.04873 0.03335,0.109968 0.0625,0.15625 0.0076,0.01191 0.02338,0.01952 0.03125,0.03125 0.07483,0.113253 0.15507,0.217225 0.25,0.3125 L 17.15625,18 c 0.02324,0.09188 0.04076,0.197008 0.0625,0.40625 0.05003,0.48157 0.212246,1.54311 0.59375,2.5 0.0669,0.170451 0.13515,0.341272 0.21875,0.5 0.0836,0.157606 0.18154,0.28998 0.28125,0.4375 0.203022,0.304784 0.418851,0.575102 0.6875,0.84375 l 0.46875,0.4375 0.125,0.125 3.3125,3.34375 c 0.0221,0.137232 0.03125,0.282419 0.03125,0.46875 0,0.200134 -0.03387,0.376675 -0.0625,0.5 -0.02863,0.123325 -0.07301,0.206982 -0.125,0.28125 -0.0535,0.07574 -0.116298,0.133433 -0.1875,0.1875 -0.06501,0.0477 -0.143331,0.102176 -0.21875,0.15625 -0.881839,0.544113 -1.46875,1.511758 -1.46875,2.625 l 0,0.03125 0,0.03125 c 0,0.85995 0.342592,1.655092 0.90625,2.21875 L 36.6875,48 46,48 c 1.108,0 2,-0.892 2,-2 L 48,27.1875 31.40625,10.59375 C 31.045407,10.231105 30.548204,10 30,10 c -0.341086,0 -0.659492,0.09772 -0.9375,0.25 L 25.6875,6.875 C 25.319427,6.3434202 24.691869,6 24,6 z"
         style="opacity:0.25;fill:#000000;fill-opacity:1;display:inline"
         inkscape:connector-curvature="0" />
    </clipPath>
    <linearGradient
       inkscape:collect="always"
       xlink:href="#linearGradient3916-3"
       id="linearGradient3922-0"
       x1="23.157747"
       y1="1004.7625"
       x2="23.157747"
       y2="1052.0516"
       gradientUnits="userSpaceOnUse" />
    <linearGradient
       id="linearGradient3916-3">
      <stop
         style="stop-color:#c1c1c1;stop-opacity:1;"
         offset="0"
         id="stop3918-82" />
      <stop
         style="stop-color:#999999;stop-opacity:1;"
         offset="1"
         id="stop3920-62" />
    </linearGradient>
    <clipPath
       clipPathUnits="userSpaceOnUse"
       id="clipPath4264">
      <path
         inkscape:connector-curvature="0"
         style="opacity:0.25;color:#000000;fill:#000000;fill-opacity:1;fill-rule:nonzero;stroke:none;stroke-width:1;marker:none;visibility:visible;display:inline"
         d="m 24,8 -12,15 2,2 -2,0 0,4 19,19 15,0 c 1.108,0 2,-0.892 2,-2 L 48,32 24,8 z"
         id="path4266" />
    </clipPath>
    <linearGradient
       id="linearGradient4046-3">
      <stop
         offset="0"
         style="stop-color:#000000;stop-opacity:1;"
         id="stop4048-7" />
      <stop
         offset="1"
         style="stop-color:#ffffff;stop-opacity:0.2"
         id="stop4050-73" />
    </linearGradient>
    <linearGradient
       y2="-55.941216"
       x2="1763.6903"
       y1="155.59685"
       x1="1764.6487"
       gradientUnits="userSpaceOnUse"
       id="linearGradient4086-12"
       xlink:href="#linearGradient4046-3"
       inkscape:collect="always" />
    <linearGradient
       id="linearGradient3737-9">
      <stop
         offset="0"
         style="stop-color:#ffffff;stop-opacity:1"
         id="stop3739-7" />
      <stop
         offset="1"
         style="stop-color:#ffffff;stop-opacity:0"
         id="stop3741-4" />
    </linearGradient>
    <linearGradient
       y2="363.73825"
       x2="988.78552"
       y1="51.511765"
       x1="993.43896"
       gradientTransform="translate(778.59979,-360.55963)"
       gradientUnits="userSpaceOnUse"
       id="linearGradient4084-8"
       xlink:href="#linearGradient3737-9"
       inkscape:collect="always" />
    <linearGradient
       inkscape:collect="always"
       xlink:href="#ButtonShadow-0-1-1-5-9"
       id="linearGradient5342-3"
       gradientUnits="userSpaceOnUse"
       gradientTransform="matrix(1.0074153,0,0,1.0074153,-810.48879,593.1369)"
       x1="1012.5133"
       y1="484.41721"
       x2="1006.8082"
       y2="20.625916" />
    <linearGradient
       y2="20.625916"
       x2="1006.8082"
       y1="484.41721"
       x1="1012.5133"
       gradientTransform="matrix(1.0148305,0,0,1.0148305,-816.68996,592.99723)"
       gradientUnits="userSpaceOnUse"
       id="linearGradient4116-6-3"
       xlink:href="#ButtonShadow-0-1-1-5-9"
       inkscape:collect="always" />
    <linearGradient
       y2="20.625916"
       x2="1006.8082"
       y1="484.41721"
       x1="1012.5133"
       gradientTransform="matrix(1.023305,0,0,1.023305,-823.77704,592.83757)"
       gradientUnits="userSpaceOnUse"
       id="linearGradient4110-6-7"
       xlink:href="#ButtonShadow-0-1-1-5-9"
       inkscape:collect="always" />
    <linearGradient
       y2="20.625916"
       x2="1006.8082"
       y1="484.41721"
       x1="1012.5133"
       gradientTransform="matrix(1.0402541,0,0,1.0402541,-837.95116,592.51825)"
       gradientUnits="userSpaceOnUse"
       id="linearGradient4112-2-6"
       xlink:href="#ButtonShadow-0-1-1-5-9"
       inkscape:collect="always" />
    <linearGradient
       gradientTransform="matrix(1.0058652,0,0,0.994169,100,0)"
       gradientUnits="userSpaceOnUse"
       id="ButtonShadow-0-1-1-5-9"
       y2="7.0165396"
       x2="45.447727"
       y1="92.539597"
       x1="45.447727">
      <stop
         offset="0"
         style="stop-color:#000000;stop-opacity:1"
         id="stop3750-8-9-3-6-4" />
      <stop
         offset="1"
         style="stop-color:#000000;stop-opacity:0.58823532"
         id="stop3752-5-6-4-2-9" />
    </linearGradient>
    <linearGradient
       y2="20.625916"
       x2="1006.8082"
       y1="484.41721"
       x1="1012.5133"
       gradientTransform="matrix(1.0317796,0,0,1.0317796,-830.86406,592.67791)"
       gradientUnits="userSpaceOnUse"
       id="linearGradient4114-2-6"
       xlink:href="#ButtonShadow-0-1-1-5-9"
       inkscape:collect="always" />
    <linearGradient
       id="linearGradient2460"
       y2="44.984001"
       gradientUnits="userSpaceOnUse"
       x2="19.360001"
       y1="21.030804"
       x1="19.244999">
      <stop
         id="stop3602"
         style="stop-color:#fafafa;stop-opacity:1;"
         offset="0" />
      <stop
         id="stop3604"
         style="stop-color:#f0f0f0;stop-opacity:1;"
         offset="1" />
    </linearGradient>
    <clipPath
       id="clipPath5284"
       clipPathUnits="userSpaceOnUse">
      <path
         id="path5286"
         d="m 24,12.65625 c -7.53469,0 -7.83457,0.03235 -8.59375,0.15625 -1.69098,0.2759 -2.96688,0.8877 -4.125,2 -1.09897,1.0555 -1.8093,2.29585 -2.15625,3.78125 -0.08778,0.3758 -0.94597,9.39425 -1.09375,11.46875 -0.07,0.9825 -0.01218,2.12665 0.15625,2.78125 0.1659285,0.6449 0.4637306,1.18248 0.875,1.59375 L 22.625,48 46,48 c 1.108,0 2,-0.892 2,-2 l 0,-19.90625 -11.1875,-11.1875 -0.125,-0.125 C 35.52982,13.67825 34.28295,13.0881 32.59375,12.8125 31.83457,12.6843 31.5347,12.65625 24,12.65625 z"
         style="opacity:0.25;fill:#000000;fill-opacity:1;display:inline"
         inkscape:connector-curvature="0" />
    </clipPath>
    <pattern
       patternTransform="matrix(1,1,-1,1,1,8)"
       id="pattern5438-72"
       xlink:href="#Checkerboard-549"
       inkscape:collect="always" />
    <pattern
       inkscape:collect="always"
       patternUnits="userSpaceOnUse"
       width="2"
       height="2"
       patternTransform="translate(0,0) scale(10,10)"
       id="Checkerboard-549"
       inkscape:stockid="Checkerboard">
      <rect
         style="fill:#005c94;stroke:none"
         x="0"
         y="0"
         width="1"
         height="1"
         id="rect7429" />
      <rect
         style="fill:#005c94;stroke:none"
         x="1"
         y="1"
         width="1"
         height="1"
         id="rect7431" />
    </pattern>
    <pattern
       patternTransform="matrix(1,1,-1,1,1,8)"
       id="pattern5438-72-9"
       xlink:href="#Checkerboard-549-8"
       inkscape:collect="always" />
    <pattern
       inkscape:collect="always"
       patternUnits="userSpaceOnUse"
       width="2"
       height="2"
       patternTransform="translate(0,0) scale(10,10)"
       id="Checkerboard-549-8"
       inkscape:stockid="Checkerboard">
      <rect
         style="fill:#005c94;stroke:none"
         x="0"
         y="0"
         width="1"
         height="1"
         id="rect7429-4" />
      <rect
         style="fill:#005c94;stroke:none"
         x="1"
         y="1"
         width="1"
         height="1"
         id="rect7431-8" />
    </pattern>
    <pattern
       patternTransform="matrix(1,1,-1,1,1,8)"
       id="pattern5438-72-9-6"
       xlink:href="#Checkerboard-549-8-6"
       inkscape:collect="always" />
    <pattern
       inkscape:collect="always"
       patternUnits="userSpaceOnUse"
       width="2"
       height="2"
       patternTransform="translate(0,0) scale(10,10)"
       id="Checkerboard-549-8-6"
       inkscape:stockid="Checkerboard">
      <rect
         style="fill:#005c94;stroke:none"
         x="0"
         y="0"
         width="1"
         height="1"
         id="rect7429-4-7" />
      <rect
         style="fill:#005c94;stroke:none"
         x="1"
         y="1"
         width="1"
         height="1"
         id="rect7431-8-9" />
    </pattern>
    <clipPath
       id="clipPath8214"
       clipPathUnits="userSpaceOnUse">
      <path
         id="path8216"
         d="m 16,10 c -1.108,0 -2,0.892 -2,2 l 0,24 c 0,0.554 0.23225,1.04475 0.59375,1.40625 L 25.1875,48 46,48 c 1.108,0 2,-0.892 2,-2 L 48,25.1875 33.40625,10.59375 C 33.04475,10.23225 32.554,10 32,10 l -16,0 z"
         style="opacity:0.25;fill:#000000;fill-opacity:1;stroke:none;display:inline"
         inkscape:connector-curvature="0" />
    </clipPath>
    <pattern
       patternTransform="matrix(1,1,-1,1,1,8)"
       id="pattern5438-72-9-6-6"
       xlink:href="#Checkerboard-549-8-6-6"
       inkscape:collect="always" />
    <pattern
       inkscape:collect="always"
       patternUnits="userSpaceOnUse"
       width="2"
       height="2"
       patternTransform="translate(0,0) scale(10,10)"
       id="Checkerboard-549-8-6-6"
       inkscape:stockid="Checkerboard">
      <rect
         style="fill:#005c94;stroke:none"
         x="0"
         y="0"
         width="1"
         height="1"
         id="rect7429-4-7-4" />
      <rect
         style="fill:#005c94;stroke:none"
         x="1"
         y="1"
         width="1"
         height="1"
         id="rect7431-8-9-2" />
    </pattern>
    <pattern
       patternTransform="matrix(1,1,-1,1,1,8)"
       id="pattern5438-72-9-6-6-3"
       xlink:href="#Checkerboard-549-8-6-6-4"
       inkscape:collect="always" />
    <pattern
       inkscape:collect="always"
       patternUnits="userSpaceOnUse"
       width="2"
       height="2"
       patternTransform="translate(0,0) scale(10,10)"
       id="Checkerboard-549-8-6-6-4"
       inkscape:stockid="Checkerboard">
      <rect
         style="fill:#005c94;stroke:none"
         x="0"
         y="0"
         width="1"
         height="1"
         id="rect7429-4-7-4-2" />
      <rect
         style="fill:#005c94;stroke:none"
         x="1"
         y="1"
         width="1"
         height="1"
         id="rect7431-8-9-2-1" />
    </pattern>
    <pattern
       patternTransform="matrix(1,1,-1,1,-9,6)"
       id="pattern8330-1"
       xlink:href="#pattern5438-72-9-6-6-8"
       inkscape:collect="always" />
    <pattern
       patternTransform="matrix(1,1,-1,1,1,8)"
       id="pattern5438-72-9-6-6-8"
       xlink:href="#Checkerboard-549-8-6-6-8"
       inkscape:collect="always" />
    <pattern
       inkscape:collect="always"
       patternUnits="userSpaceOnUse"
       width="2"
       height="2"
       patternTransform="translate(0,0) scale(10,10)"
       id="Checkerboard-549-8-6-6-8"
       inkscape:stockid="Checkerboard">
      <rect
         style="fill:#005c94;stroke:none"
         x="0"
         y="0"
         width="1"
         height="1"
         id="rect7429-4-7-4-26" />
      <rect
         style="fill:#005c94;stroke:none"
         x="1"
         y="1"
         width="1"
         height="1"
         id="rect7431-8-9-2-2" />
    </pattern>
    <linearGradient
       inkscape:collect="always"
       xlink:href="#linearGradient4035"
       id="linearGradient4041"
       x1="25"
       y1="6"
       x2="25"
       y2="37"
       gradientUnits="userSpaceOnUse" />
    <linearGradient
       inkscape:collect="always"
       xlink:href="#linearGradient4035"
       id="linearGradient4053"
       gradientUnits="userSpaceOnUse"
       x1="25"
       y1="6"
       x2="25"
       y2="37" />
    <linearGradient
       inkscape:collect="always"
       xlink:href="#linearGradient4035"
       id="linearGradient4056"
       gradientUnits="userSpaceOnUse"
       x1="25"
       y1="6"
       x2="25"
       y2="37"
       gradientTransform="translate(-1,2.5)" />
    <linearGradient
       inkscape:collect="always"
       xlink:href="#linearGradient4035-7"
       id="linearGradient4056-7"
       gradientUnits="userSpaceOnUse"
       x1="25"
       y1="6"
       x2="25"
       y2="37"
       gradientTransform="translate(-1,2.5)" />
    <linearGradient
       id="linearGradient4035-7">
      <stop
         style="stop-color:#ffffff;stop-opacity:1;"
         offset="0"
         id="stop4037-8" />
      <stop
         id="stop4045-8"
         offset="0.09677419"
         style="stop-color:#ffffff;stop-opacity:0;" />
      <stop
         id="stop4043-2"
         offset="0.90322578"
         style="stop-color:#000000;stop-opacity:0;" />
      <stop
         style="stop-color:#000000;stop-opacity:0.60273975;"
         offset="1"
         id="stop4039-6" />
    </linearGradient>
    <linearGradient
       inkscape:collect="always"
       xlink:href="#linearGradient4035-6"
       id="linearGradient4056-9"
       gradientUnits="userSpaceOnUse"
       x1="25"
       y1="6"
       x2="25"
       y2="37"
       gradientTransform="translate(-1,2.5)" />
    <linearGradient
       id="linearGradient4035-6">
      <stop
         style="stop-color:#ffffff;stop-opacity:1;"
         offset="0"
         id="stop4037-2" />
      <stop
         id="stop4045-1"
         offset="0.09677419"
         style="stop-color:#ffffff;stop-opacity:0;" />
      <stop
         id="stop4043-5"
         offset="0.90322578"
         style="stop-color:#000000;stop-opacity:0;" />
      <stop
         style="stop-color:#000000;stop-opacity:1;"
         offset="1"
         id="stop4039-4" />
    </linearGradient>
    <linearGradient
       inkscape:collect="always"
       xlink:href="#linearGradient4035-7"
       id="linearGradient5024"
       gradientUnits="userSpaceOnUse"
       gradientTransform="translate(-1,2.5)"
       x1="25"
       y1="6"
       x2="25"
       y2="37" />
    <filter
       inkscape:collect="always"
       id="filter3964"
       x="-0.1375"
       width="1.275"
       y="-0.10645161"
       height="1.2129032">
      <feGaussianBlur
         inkscape:collect="always"
         stdDeviation="1.375"
         id="feGaussianBlur3966" />
    </filter>
    <clipPath
       clipPathUnits="userSpaceOnUse"
       id="clipPath3986">
      <path
         inkscape:connector-curvature="0"
         style="opacity:0.25;color:#000000;fill:#000000;fill-opacity:1;fill-rule:nonzero;stroke:none;stroke-width:0.5;marker:none;visibility:visible;display:inline"
         d="m 14,8.5 c -1.108,0 -2,0.892 -2,2 l 0,27 c 0,0.409808 0.133905,0.777242 0.34375,1.09375 0.03403,0.05196 0.05515,0.10783 0.09375,0.15625 0.04134,0.05154 0.07883,0.1091 0.125,0.15625 l 0.03125,0 L 21.6875,48 46,48 c 1.108,0 2,-0.892 2,-2 L 48,21.6875 35.40625,9.09375 l 0,-0.03125 C 35.359105,9.0163615 35.301536,8.9788057 35.25,8.9375 34.90775,8.6631877 34.474715,8.5 34,8.5 l -20,0 z"
         id="path3988" />
    </clipPath>
  </defs>
  <metadata
     id="metadata7">
    <rdf:RDF>
      <cc:Work
         rdf:about="">
        <dc:format>image/svg+xml</dc:format>
        <dc:type
           rdf:resource="http://purl.org/dc/dcmitype/StillImage" />
        <dc:title />
      </cc:Work>
    </rdf:RDF>
  </metadata>
  <g
     inkscape:label="base"
     inkscape:groupmode="layer"
     id="layer1"
     transform="translate(0,-1004.3622)"
     style="display:inline">
    <path
       id="rect3006-5"
       d="m 2,1004.3622 44,0 c 1.108,0 2,0.892 2,2 l 0,44 c 0,1.108 -0.892,2 -2,2 l -44,0 c -1.108,0 -2,-0.892 -2,-2 l 0,-44 c 0,-1.108 0.892,-2 2,-2 z"
       style="color:#000000;fill:#009100;fill-opacity:1;fill-rule:nonzero;stroke:none;stroke-width:0.50000000000000000;marker:none;visibility:visible;display:inline;overflow:visible;enable-background:accumulate"
       inkscape:connector-curvature="0" />
    <g
       id="layer1-0"
       inkscape:label="Livello 1"
       transform="translate(141.57794,239.71923)" />
    <g
       id="g2036"
       transform="matrix(1.1,0,0,0.44444,236.659,1036.474)">
      <g
         id="g3712"
         style="opacity:0.4"
         transform="matrix(1.0526,0,0,1.2857,-1.2632,-13.429)" />
    </g>
    <g
       transform="translate(239.059,1011.3629)"
       id="g3541" />
    <g
       transform="translate(239.059,1011.3629)"
       id="g3536" />
    <g
       id="g4076"
       transform="translate(-463.94138,426.11308)">
      <g
         transform="translate(-926.66758,684.38448)"
         id="g4038" />
    </g>
  </g>
  <g
     inkscape:groupmode="layer"
     id="layer2"
     inkscape:label="shadow"
     style="display:inline">
    <path
       style="fill:#000000"
       d=""
       id="path906"
       inkscape:connector-curvature="0" />
    <flowRoot
       xml:space="preserve"
       id="flowRoot61"
       style="font-size:40px;font-style:normal;font-weight:normal;line-height:125%;letter-spacing:0px;word-spacing:0px;fill:#000000;fill-opacity:1;stroke:none;font-family:sans-serif"
       transform="translate(-18.261517,-1007.8751)"><flowRegion
         id="flowRegion63"><rect
           id="rect65"
           width="57.6292"
           height="49.320694"
           x="-53.033005"
           y="6.6342559" /></flowRegion><flowPara
         id="flowPara67" /></flowRoot>    <path
       style="opacity:0.25;color:#000000;fill:#000000;fill-opacity:1;fill-rule:nonzero;stroke:none;stroke-width:0.5;marker:none;visibility:visible"
       d="M 14 8.5 C 12.892 8.5 12 9.392 12 10.5 L 12 37.5 C 12 37.909808 12.133905 38.277242 12.34375 38.59375 C 12.377783 38.645711 12.398901 38.70158 12.4375 38.75 C 12.478835 38.801545 12.516329 38.8591 12.5625 38.90625 L 12.59375 38.90625 L 21.6875 48 L 46 48 C 47.108 48 48 47.108 48 46 L 48 21.6875 L 35.40625 9.09375 L 35.40625 9.0625 C 35.359105 9.0163615 35.301536 8.9788057 35.25 8.9375 C 34.90775 8.6631877 34.474715 8.5 34 8.5 L 14 8.5 z "
       id="path4725" />
    <rect
       style="color:#000000;fill:#000000;fill-opacity:1;fill-rule:nonzero;stroke:none;stroke-width:0.50000000000000000;marker:none;visibility:visible;display:inline;overflow:visible;enable-background:accumulate;filter:url(#filter3964);opacity:0.6"
       id="rect4012-0"
       width="24"
       height="31"
       x="12"
       y="8.5"
       ry="2"
       clip-path="url(#clipPath3986)" />
  </g>
  <g
     inkscape:groupmode="layer"
     id="layer3"
     inkscape:label="icon"
     style="display:inline">
    <rect
       style="color:#000000;fill:#ffc022;fill-opacity:1;fill-rule:nonzero;stroke:none;stroke-width:0.50000000000000000;marker:none;visibility:visible;display:inline;overflow:visible;enable-background:accumulate"
       id="rect4012"
       width="24"
       height="31"
       x="12"
       y="8.5"
       ry="2" />
    <path
       sodipodi:nodetypes="cssccscccccsccscssscccccsscscccccsccccccccccssccscccccccccscccsccccccccccccscscsscccccscscccccscccccccccccccsssccc"
       d="m 26.203992,25.4469 c -0.112178,-0.291618 -0.201909,-0.459862 -0.26919,-0.504732 -0.06731,-0.04486 -0.235555,-0.06729 -0.504732,-0.0673 -0.134608,7e-6 -0.773936,0.08974 -1.917981,0.269191 l -0.100946,0.100946 c 0.381338,0.358928 0.773908,0.695416 1.177707,1.009464 0.403772,0.314061 0.773909,0.594466 1.11041,0.841219 0.358905,0.22433 0.740257,0.448657 1.144059,0.672976 0.403769,0.201896 0.740257,0.381359 1.009464,0.538381 0.291604,0.134598 0.63931,0.280409 1.043113,0.437434 0.426199,0.134599 0.729038,0.24676 0.908517,0.336488 0.201873,0.0673 0.504712,0.145814 0.908517,0.235542 0.403766,0.08973 0.661737,0.157028 0.773923,0.201892 0.112142,0.02244 0.358899,0.07852 0.740273,0.168244 0.403762,0.0673 0.616873,0.10095 0.639328,0.100947 0.134571,0.02244 0.257952,0.134598 0.370137,0.336488 -1.5703,0.403785 -2.680709,0.605678 -3.331231,0.605678 -0.04488,0 -0.112181,0 -0.201892,0 -0.06732,0 -0.123397,0 -0.168245,0 -0.26921,0 -0.572047,-0.0673 -0.908518,-0.201893 -0.336504,-0.157025 -0.942183,-0.59446 -1.817034,-1.312303 -0.874886,-0.74027 -1.974077,-1.783382 -3.297581,-3.129337 -0.06731,0.0673 -0.100961,0.112168 -0.100946,0.134595 l 0,3.465825 c -1.5e-5,0.112165 0.02241,0.381356 0.0673,0.807571 0.04485,0.403786 0.06728,0.661761 0.0673,0.773923 -1.4e-5,0.740273 -0.201906,1.491761 -0.605678,2.254469 -0.650556,-0.42622 -0.975825,-0.919733 -0.975815,-1.480547 -10e-6,-0.04486 0.01121,-0.12338 0.03365,-0.235542 0.04485,-0.134595 0.100937,-0.381352 0.168245,-0.740273 0.08972,-0.358918 0.179449,-0.807568 0.26919,-1.345952 l -0.03365,-2.927445 c -0.24677,0.2019 -0.616907,0.504736 -1.11041,0.908518 -0.493527,0.381358 -0.886094,0.684195 -1.177707,0.908517 -0.291631,0.22433 -0.650553,0.504735 -1.076762,0.84122 -0.426226,0.314057 -0.785147,0.572033 -1.076761,0.773922 -0.269198,0.179462 -0.572037,0.370137 -0.908518,0.572029 -0.314061,0.179463 -0.594466,0.314058 -0.84122,0.403786 -0.224329,0.08973 -0.415007,0.134595 -0.572029,0.134595 l -0.874869,0 c 0.358915,-0.246756 0.841217,-0.583244 1.446898,-1.009464 0.628106,-0.426215 1.06554,-0.717839 1.312303,-0.874868 0.24675,-0.179455 0.583238,-0.426216 1.009464,-0.740274 0.448643,-0.31405 0.762697,-0.538377 0.942166,-0.672975 0.179453,-0.157022 0.414994,-0.358915 0.706625,-0.605679 0.314044,-0.269186 0.549585,-0.49351 0.706624,-0.672975 0.157019,-0.179455 0.325263,-0.381349 0.504733,-0.605679 0.179449,-0.246749 0.347692,-0.49351 0.504732,-0.740272 -0.04488,-0.04486 -0.15704,-0.06729 -0.336488,-0.0673 -0.448659,7e-6 -0.796366,0.04487 -1.043112,0.134595 -0.246767,0.06731 -0.392577,0.134602 -0.437435,0.201893 -0.02244,0.0673 -0.05609,0.179466 -0.100947,0.336488 -0.2692,7e-6 -0.515957,-0.24675 -0.740272,-0.740273 -0.201904,-0.493507 -0.47109,-1.144052 -0.807571,-1.95163 -0.336495,-0.829995 -0.729065,-1.502971 -1.177708,-2.018928 l 0,-0.53838 0.908517,0 0.471083,0.235541 c 0.02241,0.02244 0.145804,0.03366 0.370137,0.03365 0.448643,10e-6 1.626347,-0.280395 3.533123,-0.84122 l 0,-1.312303 c -0.134609,1.4e-5 -0.459878,0.04488 -0.975815,0.134596 -0.515957,0.06731 -0.84123,0.100959 -0.975815,0.100946 -0.314064,1.3e-5 -0.762714,-0.145797 -1.345951,-0.437434 l 3.297581,-0.639327 0,-1.345952 -0.672976,-2.22082 c 0.74026,0.179479 1.43567,0.4711 2.086225,0.874868 l -0.403785,1.850684 c -1.4e-5,0.134609 0.0785,0.246773 0.235541,0.336488 l 2.220821,-0.471083 c 0.358904,0.02244 0.76269,0.168257 1.211356,0.437434 -0.583261,0.314071 -1.693671,0.684204 -3.33123,1.11041 -0.179473,0.04488 -0.336502,0.168258 -0.471083,0.370137 l 0,1.009464 c 0.02241,0.04488 0.100933,0.06731 0.235541,0.0673 0.08972,1.4e-5 0.650529,-0.100933 1.68244,-0.302839 1.054314,-0.224313 1.62634,-0.336474 1.716088,-0.336488 0.179442,1.4e-5 0.560798,0.134609 1.144059,0.403786 0.605661,0.24677 0.908501,0.51596 0.908517,0.807571 -1.6e-5,0.112175 -0.07853,0.302849 -0.235541,0.572029 -0.157047,0.2692 -0.336505,0.560824 -0.538382,0.874869 -0.201909,0.291634 -0.325289,0.482308 -0.370137,0.572029 l -1.177707,2.79285 -0.57203,0 m -2.792856,-3.533124 c 0.269177,0.06731 0.493503,0.100956 0.672976,0.100946 0.112148,10e-6 0.213094,-0.01121 0.302839,-0.03365 0.112148,-0.04485 0.179445,-0.06729 0.201892,-0.0673 0.672963,10e-6 1.054315,0.157039 1.144059,0.471083 -0.336501,0.179469 -1.110423,0.426226 -2.321766,0.740273 l 0,0.975815 c 0.112151,0.134602 0.370123,0.2019 0.773922,0.201893 l 2.018927,-0.201893 c 0.381339,-1.50297 0.572013,-2.411488 0.57203,-2.725552 -1.7e-5,-0.403775 -0.0561,-0.650532 -0.168244,-0.740273 l -2.052576,0 c -0.157043,10e-6 -0.538395,0.100956 -1.144059,0.302839 l 0,0.975815 m -0.908518,0.437434 0,-1.245005 -0.471083,0 -3.028391,0.572029 1.043113,3.196635 1.850683,-0.302839 c 0.157015,0.04487 0.347693,0.123387 0.57203,0.235542 l 0,-1.379601 c -1.4e-5,-0.06729 -0.03366,-0.100936 -0.100947,-0.100946 -0.605688,0.06731 -0.96461,0.100956 -1.076761,0.100946 -0.02244,10e-6 -0.06731,10e-6 -0.134595,0 -0.04487,10e-6 -0.06731,10e-6 -0.0673,0 -0.246767,10e-6 -0.426229,-0.02241 -0.538381,-0.0673 -0.112171,-0.06729 -0.246766,-0.201883 -0.403785,-0.403786 l 2.355415,-0.605678"
       id="path5089"
       style="font-size:100px;font-style:normal;font-variant:normal;font-weight:normal;font-stretch:normal;fill:#b50000;fill-opacity:1;stroke:none;display:inline;font-family:Droid Serif;-inkscape-font-specification:Droid Serif"
       inkscape:connector-curvature="0" />
    <path
       inkscape:connector-curvature="0"
       style="opacity:0.9;color:#000000;fill:url(#linearGradient5024);fill-opacity:1;fill-rule:nonzero;stroke:none;stroke-width:0.5;marker:none;visibility:visible;display:inline;overflow:visible;enable-background:accumulate"
       d="m 14,8.5 c -1.108,0 -2,0.892 -2,2 l 0,27 c 0,1.108 0.892,2 2,2 l 20,0 c 1.108,0 2,-0.892 2,-2 l 0,-27 c 0,-1.108 -0.892,-2 -2,-2 l -20,0 z m 0,1 20,0 c 0.554,0 1,0.446 1,1 l 0,27 c 0,0.554 -0.446,1 -1,1 l -20,0 c -0.554,0 -1,-0.446 -1,-1 l 0,-27 c 0,-0.554 0.446,-1 1,-1 z"
       id="rect4010-6" />
  </g>
  <g
     style="display:inline"
     sodipodi:insensitive="true"
     inkscape:groupmode="layer"
     id="layer4"
     inkscape:label="hilight">
    <path
       inkscape:connector-curvature="0"
       style="opacity:0.4;color:#000000;fill:url(#linearGradient12443);fill-opacity:1;fill-rule:nonzero;stroke:none;stroke-width:0.5;marker:none;visibility:visible;display:inline;overflow:visible;enable-background:accumulate"
       d="M 2,0 C 0.892,0 0,0.892 0,2 l 0,44 c 0,1.108 0.892,2 2,2 l 44,0 c 1.108,0 2,-0.892 2,-2 L 48,2 C 48,0.892 47.108,0 46,0 L 2,0 z m 0,0.5 44,0 c 0.83101,0 1.5,0.6689904 1.5,1.5 l 0,44 c 0,0.83101 -0.66899,1.5 -1.5,1.5 l -44,0 C 1.1689904,47.5 0.5,46.83101 0.5,46 L 0.5,2 C 0.5,1.1689904 1.1689904,0.5 2,0.5 z"
       id="rect3006" />
    <path
       inkscape:connector-curvature="0"
       style="opacity:0.4;color:#000000;fill:url(#linearGradient3973);fill-opacity:1;fill-rule:nonzero;stroke:none;stroke-width:0.5;marker:none;visibility:visible;display:inline;overflow:visible;enable-background:accumulate"
       d="M 2,0 C 0.892,0 0,0.892 0,2 l 0,44 c 0,1.108 0.892,2 2,2 l 44,0 c 1.108,0 2,-0.892 2,-2 L 48,2 C 48,0.892 47.108,0 46,0 L 2,0 z m 0,0.5 44,0 c 0.83101,0 1.5,0.6689904 1.5,1.5 l 0,44 c 0,0.83101 -0.66899,1.5 -1.5,1.5 l -44,0 C 1.1689904,47.5 0.5,46.83101 0.5,46 L 0.5,2 C 0.5,1.1689904 1.1689904,0.5 2,0.5 z"
       id="rect3006-6" />
  </g>
</svg>
