<?xml version="1.0" encoding="UTF-8" standalone="no"?>
<!-- Created with Inkscape (http://www.inkscape.org/) -->

<svg
   xmlns:dc="http://purl.org/dc/elements/1.1/"
   xmlns:cc="http://creativecommons.org/ns#"
   xmlns:rdf="http://www.w3.org/1999/02/22-rdf-syntax-ns#"
   xmlns:svg="http://www.w3.org/2000/svg"
   xmlns="http://www.w3.org/2000/svg"
   xmlns:xlink="http://www.w3.org/1999/xlink"
   xmlns:sodipodi="http://sodipodi.sourceforge.net/DTD/sodipodi-0.dtd"
   xmlns:inkscape="http://www.inkscape.org/namespaces/inkscape"
   width="48"
   height="48"
   id="svg2"
   version="1.1"
   inkscape:version="0.48.4 r9939"
   sodipodi:docname="gparted.svg">
  <sodipodi:namedview
     id="base"
     pagecolor="#424242"
     bordercolor="#666666"
     borderopacity="1.0"
     inkscape:pageopacity="1"
     inkscape:pageshadow="2"
     inkscape:zoom="5.6568542"
     inkscape:cx="47.548983"
     inkscape:cy="1.1919469"
     inkscape:document-units="px"
     inkscape:current-layer="layer3"
     showgrid="false"
     showborder="false"
     borderlayer="false"
     showguides="true"
     inkscape:guide-bbox="true"
     inkscape:window-width="1855"
     inkscape:window-height="1056"
     inkscape:window-x="65"
     inkscape:window-y="24"
     inkscape:window-maximized="1">
    <inkscape:grid
       type="xygrid"
       id="grid3004"
       empspacing="5"
       visible="true"
       enabled="true"
       snapvisiblegridlinesonly="true"
       spacingx="1px"
       spacingy="1px" />
  </sodipodi:namedview>
  <defs
     id="defs4">
    <linearGradient
       id="linearGradient5618">
      <stop
         style="stop-color:#ffffff;stop-opacity:1;"
         offset="0"
         id="stop5620" />
      <stop
         style="stop-color:#d0d0d0;stop-opacity:1;"
         offset="1"
         id="stop5622" />
    </linearGradient>
    <linearGradient
       id="linearGradient3916">
      <stop
         style="stop-color:#c1c1c1;stop-opacity:1;"
         offset="0"
         id="stop3918" />
      <stop
         style="stop-color:#999999;stop-opacity:1;"
         offset="1"
         id="stop3920" />
    </linearGradient>
    <linearGradient
       id="linearGradient4452">
      <stop
         id="stop4454"
         offset="0"
         style="stop-color:#000000;stop-opacity:0.15853658;" />
      <stop
         id="stop4456"
         offset="1"
         style="stop-color:#000000;stop-opacity:0;" />
    </linearGradient>
    <linearGradient
       id="linearGradient4571">
      <stop
         style="stop-color:#ecf1f3;stop-opacity:1;"
         offset="0"
         id="stop4573" />
      <stop
         style="stop-color:#c5cacc;stop-opacity:1;"
         offset="1"
         id="stop4575" />
    </linearGradient>
    <linearGradient
       inkscape:collect="always"
       id="linearGradient4699">
      <stop
         style="stop-color:#19aeff;stop-opacity:1;"
         offset="0"
         id="stop4701" />
      <stop
         style="stop-color:#19aeff;stop-opacity:0;"
         offset="1"
         id="stop4703" />
    </linearGradient>
    <linearGradient
       id="linearGradient4691">
      <stop
         style="stop-color:#6dccff;stop-opacity:1;"
         offset="0"
         id="stop4693" />
      <stop
         style="stop-color:#19aeff;stop-opacity:0;"
         offset="1"
         id="stop4695" />
    </linearGradient>
    <linearGradient
       id="linearGradient4665">
      <stop
         style="stop-color:#95dbff;stop-opacity:1;"
         offset="0"
         id="stop4667" />
      <stop
         style="stop-color:#006ba2;stop-opacity:1;"
         offset="1"
         id="stop4669" />
    </linearGradient>
    <linearGradient
       id="linearGradient4634">
      <stop
         style="stop-color:#000000;stop-opacity:0.38414633;"
         offset="0"
         id="stop4636" />
      <stop
         style="stop-color:#000000;stop-opacity:0;"
         offset="1"
         id="stop4638" />
    </linearGradient>
    <linearGradient
       inkscape:collect="always"
       xlink:href="#linearGradient3815-5"
       id="linearGradient3821-9"
       x1="3"
       y1="3"
       x2="25"
       y2="28"
       gradientUnits="userSpaceOnUse" />
    <linearGradient
       inkscape:collect="always"
       id="linearGradient3815-5">
      <stop
         style="stop-color:#ffffff;stop-opacity:1;"
         offset="0"
         id="stop3817-1" />
      <stop
         style="stop-color:#ffffff;stop-opacity:0;"
         offset="1"
         id="stop3819-9" />
    </linearGradient>
    <linearGradient
       inkscape:collect="always"
       xlink:href="#linearGradient4691"
       id="linearGradient4697"
       x1="45"
       y1="1049.8622"
       x2="42.5"
       y2="1047.3622"
       gradientUnits="userSpaceOnUse" />
    <linearGradient
       inkscape:collect="always"
       xlink:href="#linearGradient4699"
       id="linearGradient4705"
       x1="27.5"
       y1="0.5"
       x2="27.5"
       y2="3"
       gradientUnits="userSpaceOnUse" />
    <linearGradient
       inkscape:collect="always"
       xlink:href="#linearGradient4691-0"
       id="linearGradient4697-1"
       x1="45"
       y1="1049.8622"
       x2="42.5"
       y2="1047.3622"
       gradientUnits="userSpaceOnUse" />
    <linearGradient
       inkscape:collect="always"
       id="linearGradient4691-0">
      <stop
         style="stop-color:#19aeff;stop-opacity:1;"
         offset="0"
         id="stop4693-5" />
      <stop
         style="stop-color:#19aeff;stop-opacity:0;"
         offset="1"
         id="stop4695-5" />
    </linearGradient>
    <linearGradient
       gradientTransform="translate(0,-1004.3622)"
       y2="1047.3622"
       x2="42.5"
       y1="1049.8622"
       x1="45"
       gradientUnits="userSpaceOnUse"
       id="linearGradient12409"
       xlink:href="#linearGradient4699-1"
       inkscape:collect="always" />
    <linearGradient
       inkscape:collect="always"
       xlink:href="#linearGradient4699-1"
       id="linearGradient4705-1"
       x1="27.5"
       y1="0.5"
       x2="27.5"
       y2="3"
       gradientUnits="userSpaceOnUse" />
    <linearGradient
       id="linearGradient4699-1">
      <stop
         style="stop-color:#ffffff;stop-opacity:1;"
         offset="0"
         id="stop4701-3" />
      <stop
         style="stop-color:#ffffff;stop-opacity:0;"
         offset="1"
         id="stop4703-4" />
    </linearGradient>
    <linearGradient
       y2="3"
       x2="27.5"
       y1="0.5"
       x1="27.5"
       gradientUnits="userSpaceOnUse"
       id="linearGradient12443"
       xlink:href="#linearGradient4699-1"
       inkscape:collect="always" />
    <clipPath
       clipPathUnits="userSpaceOnUse"
       id="clipPath3856">
      <path
         style="opacity:0.3;fill:#000000;fill-opacity:1;stroke:none;display:inline"
         d="m 27.84375,12.03125 -15.4375,15.4375 8.125,8.125 L 32.9375,48 46,48 c 1.108,0 2,-0.892 2,-2 l 0,-13.8125 -12.03125,-12.03125 -8.125,-8.125 z m 10.5625,2.4375 0,3.25 -1.625,1.625 L 48,30.5625 l 0,-6.5 -9.59375,-9.59375 z m -18.6875,21.9375 -8.9375,2.4375 -1.625,0 L 18.3125,48 l 13,0 -11.59375,-11.59375 z"
         id="path3858"
         inkscape:connector-curvature="0" />
    </clipPath>
    <clipPath
       clipPathUnits="userSpaceOnUse"
       id="clipPath4492">
      <path
         inkscape:connector-curvature="0"
         style="opacity:0.3;fill:#000000;fill-opacity:1;fill-rule:evenodd;stroke-width:0.25;display:inline"
         d="m 28.28125,11 c -0.382978,-0.015 -0.701309,0.2118 -0.65625,0.625 l 0,0.9375 c 0.0028,0.107535 0.03337,0.206152 0.0625,0.28125 0.0077,0.0185 0.02221,0.04583 0.03125,0.0625 0.02417,0.04365 0.03048,0.09298 0.0625,0.125 l 0.09375,0.0625 1.6875,1.71875 c -0.09694,0.107303 -0.236384,0.234525 -0.40625,0.40625 l -2.28125,2.375 -6.4375,-6.4375 c -0.08266,-0.08266 -0.181553,-0.128868 -0.34375,-0.125 l -9.25,0 c -0.337919,-0.015 -0.585021,0.2799 -0.5625,0.625 l 0,1.03125 c -3.5e-4,0.08677 0.0032,0.174519 0.03125,0.25 0.02085,0.0575 0.05938,0.108056 0.09375,0.15625 0.01247,0.01766 0.0172,0.0463 0.03125,0.0625 0.0091,0.01035 0.02154,0.02154 0.03125,0.03125 l 0.15625,0.125 1.65625,1.65625 0,0.03125 0,21.53125 c -0.0083,0.0885 -0.01311,0.187768 0,0.25 0.0079,0.0311 0.01605,0.06838 0.03125,0.09375 0.01199,0.02047 0.01402,0.04527 0.03125,0.0625 L 23.40625,48 46,48 c 1.108,0 2,-0.892 2,-2 L 48,21.59375 37.65625,11.25 c -0.01519,-0.03494 -0.03721,-0.06556 -0.0625,-0.09375 -0.0095,-0.0095 -0.02057,-0.02275 -0.03125,-0.03125 -0.03337,-0.02893 -0.07961,-0.04528 -0.125,-0.0625 -0.0085,-0.0029 -0.02235,0.0024 -0.03125,0 -0.0577,-0.01753 -0.114282,-0.03502 -0.1875,-0.03125 L 28.28125,11 z"
         id="path4494" />
    </clipPath>
    <linearGradient
       gradientTransform="translate(7.7392578e-7,4.2609766e-5)"
       inkscape:collect="always"
       xlink:href="#linearGradient6772"
       id="linearGradient6778"
       x1="40.915409"
       y1="1049.3521"
       x2="40.915409"
       y2="1007.3218"
       gradientUnits="userSpaceOnUse" />
    <linearGradient
       inkscape:collect="always"
       id="linearGradient6772">
      <stop
         style="stop-color:#efe963;stop-opacity:1"
         offset="0"
         id="stop6774" />
      <stop
         style="stop-color:#fcf982;stop-opacity:1"
         offset="1"
         id="stop6776" />
    </linearGradient>
    <linearGradient
       inkscape:collect="always"
       xlink:href="#linearGradient6772"
       id="linearGradient3085"
       gradientUnits="userSpaceOnUse"
       gradientTransform="translate(-84.249997,-4.7499109)"
       x1="40.915409"
       y1="1049.3521"
       x2="40.915409"
       y2="1007.3218" />
    <clipPath
       id="clipPath4331"
       clipPathUnits="userSpaceOnUse">
      <path
         id="path4333"
         d="m 23.75,7.5625 c -3.451779,0 -6.25,2.7982 -6.25,6.25 l 0,4.6875 c 0,0.330092 0.136168,0.620764 0.34375,0.84375 0.01016,0.01092 0.02071,0.02071 0.03125,0.03125 L 20.96875,22.5 14.5,22.5 c -1.108,0 -2,0.892 -2,2 l 0,13.5 c 0,0.164967 0.02519,0.315591 0.0625,0.46875 0.0262,0.107537 0.05103,0.212656 0.09375,0.3125 0.03933,0.09214 0.104041,0.165705 0.15625,0.25 0.03201,0.05189 0.05727,0.107675 0.09375,0.15625 0.02233,0.02974 0.03857,0.06534 0.0625,0.09375 0.0417,0.04964 0.07872,0.110926 0.125,0.15625 0.04721,0.04594 0.104619,0.08384 0.15625,0.125 L 21.6875,48 46,48 c 1.108,0 2,-0.892 2,-2 L 48,29.25 28.4375,9.6875 C 28.344943,9.5817008 28.255631,9.4742937 28.15625,9.375 28.12092,9.339674 28.06741,9.315722 28.03125,9.28125 27.918981,9.1744958 27.807452,9.0669564 27.6875,8.96875 27.6578,8.944221 27.62391,8.930234 27.59375,8.90625 27.471947,8.81012 27.34765,8.7119582 27.21875,8.625 27.18719,8.603662 27.15696,8.58327 27.125,8.5625 26.990501,8.475245 26.860145,8.3893571 26.71875,8.3125 26.69063,8.297207 26.65338,8.296119 26.625,8.28125 26.494088,8.212761 26.35495,8.1529625 26.21875,8.09375 26.17651,8.075309 26.13647,8.048772 26.09375,8.03125 25.933803,7.965967 25.760065,7.8957447 25.59375,7.84375 25.57208,7.837004 25.553022,7.8190142 25.53125,7.8125 25.352378,7.7587466 25.185323,7.7251536 25,7.6875 24.9901,7.68547 24.97866,7.68948 24.96875,7.6875 24.77271,7.6487168 24.577293,7.6136138 24.375,7.59375 24.165984,7.5725195 23.964744,7.5625 23.75,7.5625 z"
         style="color:#000000;fill:#0e232e;fill-opacity:0.48709681;fill-rule:nonzero;stroke:none;stroke-width:0.5;marker:none;visibility:visible;display:inline"
         inkscape:connector-curvature="0" />
    </clipPath>
    <clipPath
       clipPathUnits="userSpaceOnUse"
       id="clipPath3071">
      <path
         id="path3073"
         d="m 24,6 c -3.313709,0 -6,2.6862912 -6,6 l 0,5 5,5 -9,0 c -1.108,0 -2,0.892 -2,2 l 0,14 c 0,0.421192 0.123088,0.803368 0.34375,1.125 0.07174,0.106367 0.159625,0.190875 0.25,0.28125 0.0056,0.0056 -0.0056,0.02572 0,0.03125 L 21.15625,48 46,48 c 1.108,0 2,-0.892 2,-2 L 48,27.5 28.25,7.75 C 27.164213,6.6642136 25.656854,6 24,6 z"
         style="opacity:0.25;color:#000000;fill:#000000;fill-opacity:1;fill-rule:nonzero;stroke:none;stroke-width:0.5;marker:none;visibility:visible;display:inline"
         inkscape:connector-curvature="0" />
    </clipPath>
    <linearGradient
       gradientUnits="userSpaceOnUse"
       y2="1026.3622"
       x2="32.9375"
       y1="1026.3622"
       x1="23"
       id="linearGradient4458-2"
       xlink:href="#linearGradient4452-1"
       inkscape:collect="always" />
    <linearGradient
       id="linearGradient4452-1">
      <stop
         id="stop4454-5"
         offset="0"
         style="stop-color:#000000;stop-opacity:0.15853658;" />
      <stop
         id="stop4456-0"
         offset="1"
         style="stop-color:#000000;stop-opacity:0;" />
    </linearGradient>
    <linearGradient
       inkscape:collect="always"
       xlink:href="#linearGradient4452-1"
       id="linearGradient4475"
       gradientUnits="userSpaceOnUse"
       x1="23"
       y1="1026.3622"
       x2="32.9375"
       y2="1026.3622"
       gradientTransform="translate(0,-1004.3622)" />
    <radialGradient
       inkscape:collect="always"
       xlink:href="#linearGradient4691"
       id="radialGradient3914"
       cx="24"
       cy="43"
       fx="24"
       fy="43"
       r="21"
       gradientTransform="matrix(1,0,0,0.0952381,0,38.904762)"
       gradientUnits="userSpaceOnUse" />
    <linearGradient
       inkscape:collect="always"
       xlink:href="#linearGradient3916"
       id="linearGradient3922"
       x1="23.157747"
       y1="1004.7625"
       x2="23.157747"
       y2="1052.0516"
       gradientUnits="userSpaceOnUse" />
    <linearGradient
       inkscape:collect="always"
       xlink:href="#linearGradient3916-6"
       id="linearGradient3922-9"
       x1="23.157747"
       y1="1004.7625"
       x2="23.157747"
       y2="1052.0516"
       gradientUnits="userSpaceOnUse" />
    <linearGradient
       id="linearGradient3916-6">
      <stop
         style="stop-color:#c1c1c1;stop-opacity:1;"
         offset="0"
         id="stop3918-1" />
      <stop
         style="stop-color:#999999;stop-opacity:1;"
         offset="1"
         id="stop3920-7" />
    </linearGradient>
    <linearGradient
       y2="1052.0516"
       x2="23.157747"
       y1="1004.7625"
       x1="23.157747"
       gradientUnits="userSpaceOnUse"
       id="linearGradient3939"
       xlink:href="#linearGradient3916-6"
       inkscape:collect="always"
       gradientTransform="translate(-15.202796,5.0381358)" />
    <linearGradient
       y2="3"
       x2="27.5"
       y1="0.5"
       x1="27.5"
       gradientUnits="userSpaceOnUse"
       id="linearGradient12443-7"
       xlink:href="#linearGradient4699-1-7"
       inkscape:collect="always" />
    <linearGradient
       id="linearGradient4699-1-7">
      <stop
         style="stop-color:#000000;stop-opacity:1;"
         offset="0"
         id="stop4701-3-9" />
      <stop
         style="stop-color:#000000;stop-opacity:0;"
         offset="1"
         id="stop4703-4-8" />
    </linearGradient>
    <linearGradient
       y2="40.475986"
       x2="26.527729"
       y1="46.285164"
       x1="26.527729"
       gradientUnits="userSpaceOnUse"
       id="linearGradient3973"
       xlink:href="#linearGradient4699-1-7"
       inkscape:collect="always" />
    <filter
       color-interpolation-filters="sRGB"
       inkscape:collect="always"
       id="filter3994-0"
       x="-0.10584615"
       width="1.2116923"
       y="-1.0319999"
       height="3.0639999">
      <feGaussianBlur
         inkscape:collect="always"
         stdDeviation="1.72"
         id="feGaussianBlur3996-9" />
    </filter>
    <linearGradient
       inkscape:collect="always"
       xlink:href="#linearGradient3916-9"
       id="linearGradient3922-2"
       x1="23.157747"
       y1="1004.7625"
       x2="23.157747"
       y2="1052.0516"
       gradientUnits="userSpaceOnUse" />
    <linearGradient
       id="linearGradient3916-9">
      <stop
         style="stop-color:#c1c1c1;stop-opacity:1;"
         offset="0"
         id="stop3918-8" />
      <stop
         style="stop-color:#999999;stop-opacity:1;"
         offset="1"
         id="stop3920-6" />
    </linearGradient>
    <linearGradient
       gradientTransform="translate(0,-1004.3622)"
       y2="1052.0516"
       x2="23.157747"
       y1="1004.7625"
       x1="23.157747"
       gradientUnits="userSpaceOnUse"
       id="linearGradient4575"
       xlink:href="#linearGradient3916-9"
       inkscape:collect="always" />
    <linearGradient
       inkscape:collect="always"
       xlink:href="#linearGradient3916-93"
       id="linearGradient3922-5"
       x1="23.157747"
       y1="1004.7625"
       x2="23.157747"
       y2="1052.0516"
       gradientUnits="userSpaceOnUse" />
    <linearGradient
       id="linearGradient3916-93">
      <stop
         style="stop-color:#c1c1c1;stop-opacity:1;"
         offset="0"
         id="stop3918-10" />
      <stop
         style="stop-color:#999999;stop-opacity:1;"
         offset="1"
         id="stop3920-2" />
    </linearGradient>
    <linearGradient
       gradientTransform="translate(0,-1004.3622)"
       y2="1052.0516"
       x2="23.157747"
       y1="1004.7625"
       x1="23.157747"
       gradientUnits="userSpaceOnUse"
       id="linearGradient5579"
       xlink:href="#linearGradient3916-93"
       inkscape:collect="always" />
    <linearGradient
       id="linearGradient5618-7">
      <stop
         style="stop-color:#ffffff;stop-opacity:1;"
         offset="0"
         id="stop5620-5" />
      <stop
         style="stop-color:#d3d3d3;stop-opacity:1;"
         offset="1"
         id="stop5622-8" />
    </linearGradient>
    <linearGradient
       gradientTransform="translate(-9.9965996,-6)"
       y2="22.624882"
       x2="23.496599"
       y1="8.4946308"
       x1="23.496599"
       gradientUnits="userSpaceOnUse"
       id="linearGradient5641"
       xlink:href="#linearGradient5618-7"
       inkscape:collect="always" />
    <linearGradient
       inkscape:collect="always"
       xlink:href="#linearGradient5618-2"
       id="linearGradient5624-1"
       x1="23.496599"
       y1="8.4946308"
       x2="23.496599"
       y2="22.624882"
       gradientUnits="userSpaceOnUse" />
    <linearGradient
       id="linearGradient5618-2">
      <stop
         style="stop-color:#ffffff;stop-opacity:1;"
         offset="0"
         id="stop5620-1" />
      <stop
         style="stop-color:#d0d0d0;stop-opacity:1;"
         offset="1"
         id="stop5622-5" />
    </linearGradient>
    <filter
       inkscape:collect="always"
       id="filter3891"
       x="-0.11995524"
       width="1.2399105"
       y="-0.12004479"
       height="1.2400896">
      <feGaussianBlur
         inkscape:collect="always"
         stdDeviation="1.3999854"
         id="feGaussianBlur3893" />
    </filter>
    <clipPath
       clipPathUnits="userSpaceOnUse"
       id="clipPath3913">
      <path
         inkscape:connector-curvature="0"
         style="opacity:0.25;color:#000000;fill:#000000;fill-opacity:1;fill-rule:nonzero;stroke:none;stroke-width:4;marker:none;visibility:visible;display:inline"
         d="M 24,6 C 20.417088,6 16.827421,7.3600798 14.09375,10.09375 8.9261513,15.261349 8.6490186,23.468401 13.25,28.96875 l 0.59375,0.59375 -1.59375,0.53125 -0.03125,0 c -1.600607,0.446605 -2.5459279,2.085324 -2.125,3.65625 0.04653,0.173635 0.112998,0.34289 0.1875,0.5 0.02604,0.05474 0.06458,0.103683 0.09375,0.15625 0.01823,0.03304 0.04308,0.06159 0.0625,0.09375 0.09381,0.154657 0.193568,0.304599 0.3125,0.4375 0.03531,0.03933 0.05646,0.08771 0.09375,0.125 0.05736,0.05766 0.125724,0.103614 0.1875,0.15625 L 23.8125,48 46,48 c 1.108,0 2,-0.892 2,-2 L 48,24.1875 33.90625,10.09375 C 31.172579,7.3600798 27.582912,6 24,6 z"
         id="path3915" />
    </clipPath>
  </defs>
  <metadata
     id="metadata7">
    <rdf:RDF>
      <cc:Work
         rdf:about="">
        <dc:format>image/svg+xml</dc:format>
        <dc:type
           rdf:resource="http://purl.org/dc/dcmitype/StillImage" />
        <dc:title></dc:title>
      </cc:Work>
    </rdf:RDF>
  </metadata>
  <g
     inkscape:label="base"
     inkscape:groupmode="layer"
     id="layer1"
     transform="translate(0,-1004.3622)"
     style="display:inline">
    <path
       id="rect3006-5"
       d="m 2,1004.3622 44,0 c 1.108,0 2,0.892 2,2 l 0,44 c 0,1.108 -0.892,2 -2,2 l -44,0 c -1.108,0 -2,-0.892 -2,-2 l 0,-44 c 0,-1.108 0.892,-2 2,-2 z"
       style="color:#000000;fill:url(#linearGradient3922);fill-opacity:1;fill-rule:nonzero;stroke:none;stroke-width:0.50000000000000000;marker:none;visibility:visible;display:inline;overflow:visible;enable-background:accumulate"
       inkscape:connector-curvature="0" />
    <path
       style="color:#000000;fill:#0e232e;fill-opacity:1;fill-rule:nonzero;stroke:none;stroke-width:0.50000000000000000;marker:none;visibility:visible;display:inline;overflow:visible;enable-background:accumulate"
       d="M 0 39 L 0 43 C 0 44.108 0.892 45 2 45 L 46 45 C 47.108 45 48 44.108 48 43 L 48 39 C 48 40.108 47.108 41 46 41 L 2 41 C 0.892 41 0 40.108 0 39 z "
       transform="translate(0,1004.3622)"
       id="rect3006-5-6" />
    <rect
       style="opacity:0.6;color:#000000;fill:#0084c8;fill-opacity:1;fill-rule:nonzero;stroke:none;stroke-width:4;marker:none;visibility:visible;display:inline;overflow:visible;filter:url(#filter3994-0);enable-background:accumulate"
       id="rect3992"
       width="39"
       height="4"
       x="5"
       y="1045.3622"
       ry="0.125" />
    <rect
       style="color:#000000;fill:url(#radialGradient3914);fill-opacity:1.0;fill-rule:nonzero;stroke:none;stroke-width:4;marker:none;visibility:visible;display:inline;overflow:visible;enable-background:accumulate"
       id="rect3906"
       width="42"
       height="4"
       x="3"
       y="41"
       transform="translate(0,1004.3622)"
       ry="0.125" />
  </g>
  <g
     inkscape:groupmode="layer"
     id="layer2"
     inkscape:label="shadow"
     style="display:inline">
    <path
       style="fill:#000000"
       d=""
       id="path906"
       inkscape:connector-curvature="0" />
    <flowRoot
       xml:space="preserve"
       id="flowRoot61"
       style="font-size:40px;font-style:normal;font-weight:normal;line-height:125%;letter-spacing:0px;word-spacing:0px;fill:#000000;fill-opacity:1;stroke:none;font-family:sans-serif"
       transform="translate(-18.261517,-1007.8751)"><flowRegion
         id="flowRegion63"><rect
           id="rect65"
           width="57.6292"
           height="49.320694"
           x="-53.033005"
           y="6.6342559" /></flowRegion><flowPara
         id="flowPara67" /></flowRoot>    <path
       style="color:#000000;fill:#000000;fill-opacity:1;fill-rule:nonzero;stroke:none;stroke-width:4;marker:none;visibility:visible;opacity:0.25"
       d="M 24 6 C 20.417088 6 16.827421 7.3600798 14.09375 10.09375 C 8.9261513 15.261349 8.6490186 23.468401 13.25 28.96875 L 13.84375 29.5625 L 12.25 30.09375 L 12.21875 30.09375 C 10.618143 30.540355 9.6728221 32.179074 10.09375 33.75 C 10.140276 33.923635 10.206748 34.09289 10.28125 34.25 C 10.307291 34.304735 10.345835 34.353683 10.375 34.40625 C 10.39323 34.439289 10.418083 34.467839 10.4375 34.5 C 10.531311 34.654657 10.631068 34.804599 10.75 34.9375 C 10.785309 34.976831 10.80646 35.02521 10.84375 35.0625 C 10.901112 35.120158 10.969474 35.166114 11.03125 35.21875 L 23.8125 48 L 46 48 C 47.108 48 48 47.108 48 46 L 48 24.1875 L 33.90625 10.09375 C 31.172579 7.3600798 27.582912 6 24 6 z "
       id="path5112" />
    <path
       style="color:#000000;fill:#000000;fill-opacity:1;fill-rule:nonzero;stroke:none;stroke-width:4;marker:none;visibility:visible;display:inline;overflow:visible;enable-background:accumulate;filter:url(#filter3891);opacity:0.6"
       d="M 24,6 C 20.417088,6 16.827421,7.3600798 14.09375,10.09375 8.9261513,15.261349 8.6490186,23.468401 13.25,28.96875 L 22.5625,25.90625 25.28125,25 23.375,27.125 18.25,32.75 c 5.151883,2.319962 11.424061,1.388438 15.65625,-2.84375 5.46734,-5.467341 5.46734,-14.345159 0,-19.8125 C 31.172579,7.3600798 27.582912,6 24,6 z m 0,10 c 1.023689,0 2.062702,0.375201 2.84375,1.15625 1.562097,1.562097 1.562097,4.125403 0,5.6875 -1.562097,1.562097 -4.125403,1.562097 -5.6875,0 -1.562097,-1.562097 -1.562097,-4.125403 0,-5.6875 C 21.937299,16.375201 22.976311,16 24,16 z"
       id="path4595-1"
       inkscape:connector-curvature="0"
       clip-path="url(#clipPath3913)" />
  </g>
  <g
     inkscape:groupmode="layer"
     id="layer3"
     inkscape:label="icon"
     style="display:inline">
    <path
       style="color:#000000;fill:#ffffff;fill-opacity:1;fill-rule:nonzero;stroke:none;stroke-width:4;marker:none;visibility:visible;display:inline;overflow:visible;enable-background:accumulate"
       d="M 24,6 C 20.417088,6 16.827421,7.3600798 14.09375,10.09375 8.9261513,15.261349 8.6490186,23.468401 13.25,28.96875 L 22.5625,25.90625 25.28125,25 23.375,27.125 18.25,32.75 c 5.151883,2.319962 11.424061,1.388438 15.65625,-2.84375 5.46734,-5.467341 5.46734,-14.345159 0,-19.8125 C 31.172579,7.3600798 27.582912,6 24,6 z m 0,10 c 1.023689,0 2.062702,0.375201 2.84375,1.15625 1.562097,1.562097 1.562097,4.125403 0,5.6875 -1.562097,1.562097 -4.125403,1.562097 -5.6875,0 -1.562097,-1.562097 -1.562097,-4.125403 0,-5.6875 C 21.937299,16.375201 22.976311,16 24,16 z"
       id="path4595"
       inkscape:connector-curvature="0" />
    <path
       style="color:#000000;fill:#ffffff;fill-opacity:1;fill-rule:nonzero;stroke:none;stroke-width:4;marker:none;visibility:visible;display:inline;overflow:visible;enable-background:accumulate"
       d="m 12.223543,30.102223 c -1.600607,0.446605 -2.5503369,2.073123 -2.129409,3.644049 0.423686,1.581215 2.07675,2.517013 3.696332,2.083047 0.646545,-0.173241 1.174819,-0.558587 1.566882,-1.03454 l 7.450358,-8.175622 -10.553978,3.474977 z"
       id="path4600"
       inkscape:connector-curvature="0"
       sodipodi:nodetypes="csscccc"
       inkscape:transform-center-x="-3.4010563"
       inkscape:transform-center-y="-1.7226654" />
    <path
       style="opacity:0.25;color:#000000;fill:#000000;fill-opacity:1;fill-rule:nonzero;stroke:none;stroke-width:4;marker:none;visibility:visible;display:inline;overflow:visible;enable-background:accumulate"
       d="M 23.34375,27.15625 18.25,32.75 c 3.461421,1.558724 7.423139,1.641737 10.9375,0.25 l -5.84375,-5.84375 z"
       id="path5390-4"
       inkscape:connector-curvature="0" />
    <path
       style="color:#000000;fill:#ff4141;fill-opacity:1;fill-rule:nonzero;stroke:none;stroke-width:2;marker:none;visibility:visible;display:inline;overflow:visible;enable-background:accumulate"
       d="M 20.125 21.03125 L 10.5 23.625 C 10.554807 23.829564 10.59203 24.047608 10.65625 24.25 C 10.688864 24.352783 10.714959 24.460344 10.75 24.5625 C 10.874991 24.926889 11.031627 25.269898 11.1875 25.625 C 11.347506 25.989519 11.526207 26.33495 11.71875 26.6875 C 11.781234 26.801909 11.84034 26.918256 11.90625 27.03125 C 12.025186 27.235713 12.15283 27.428041 12.28125 27.625 C 12.411641 27.824752 12.545873 28.024427 12.6875 28.21875 C 12.871263 28.470981 13.050867 28.73075 13.25 28.96875 L 22.5625 25.90625 L 25.28125 25 L 23.375 27.125 L 18.25 32.75 C 18.571993 32.894998 18.888777 33.036667 19.21875 33.15625 C 19.548723 33.275833 19.882339 33.374605 20.21875 33.46875 C 20.555161 33.562895 20.908694 33.650067 21.25 33.71875 C 22.14992 33.899846 23.05431 33.996226 23.96875 34 C 24.251863 34.000388 24.527502 33.985858 24.8125 33.96875 C 25.27679 33.940879 25.751777 33.888143 26.21875 33.8125 C 26.290592 33.800863 26.365634 33.794041 26.4375 33.78125 C 26.780132 33.722261 27.099232 33.647095 27.4375 33.5625 C 27.501786 33.546423 27.560905 33.517002 27.625 33.5 L 25.03125 23.875 C 23.693927 24.220918 22.196919 23.884419 21.15625 22.84375 C 20.634822 22.322322 20.298323 21.701317 20.125 21.03125 z "
       id="path3117" />
    <path
       style="color:#000000;fill:#ff9900;fill-opacity:1;fill-rule:nonzero;stroke:none;stroke-width:2;marker:none;visibility:visible;display:inline;overflow:visible;enable-background:accumulate"
       d="M 24 6 L 24 16 C 25.023689 16 26.062702 16.375201 26.84375 17.15625 C 27.624799 17.937299 28 18.968649 28 20 L 38 20 C 38 19.521035 37.98626 19.039434 37.9375 18.5625 C 37.89411 18.13525 37.830935 17.727514 37.75 17.3125 C 37.741842 17.270328 37.727297 17.22961 37.71875 17.1875 C 37.625504 16.731817 37.511351 16.282132 37.375 15.84375 C 37.255461 15.459419 37.119728 15.088091 36.96875 14.71875 C 36.947793 14.667031 36.92785 14.614016 36.90625 14.5625 C 36.752352 14.198643 36.589269 13.816117 36.40625 13.46875 C 36.378214 13.415368 36.341272 13.365592 36.3125 13.3125 C 36.308249 13.304674 36.316766 13.289067 36.3125 13.28125 C 36.100509 12.892783 35.840377 12.552556 35.59375 12.1875 C 35.358479 11.839253 35.139826 11.481228 34.875 11.15625 C 34.856639 11.133733 34.831022 11.116179 34.8125 11.09375 C 34.527188 10.748032 34.222938 10.410438 33.90625 10.09375 C 33.585525 9.7730248 33.249147 9.4704323 32.90625 9.1875 C 32.883825 9.1689933 32.866292 9.1433694 32.84375 9.125 C 32.511571 8.8543735 32.162605 8.6417302 31.8125 8.40625 C 31.553757 8.2314466 31.301915 8.0638151 31.03125 7.90625 C 30.916351 7.8395349 30.803859 7.7506714 30.6875 7.6875 C 30.627412 7.6548584 30.560615 7.6255333 30.5 7.59375 C 30.144139 7.4072677 29.804967 7.2475222 29.4375 7.09375 C 29.385872 7.0719133 29.333192 7.0524827 29.28125 7.03125 C 28.911502 6.8818312 28.535062 6.7416064 28.15625 6.625 C 27.717868 6.4886492 27.268183 6.3744963 26.8125 6.28125 C 26.77049 6.2726535 26.729646 6.2582193 26.6875 6.25 C 26.276171 6.170714 25.853133 6.1048315 25.4375 6.0625 C 25.406864 6.0593888 25.374444 6.0654134 25.34375 6.0625 C 24.89736 6.0199711 24.447864 6 24 6 z "
       id="path3117-5" />
    <path
       style="color:#000000;fill:#009100;fill-opacity:1;fill-rule:nonzero;stroke:none;stroke-width:2;marker:none;visibility:visible;display:inline;overflow:visible;enable-background:accumulate"
       d="M 24 6 C 23.549861 6 23.101992 6.0194926 22.65625 6.0625 C 22.553 6.0723369 22.44681 6.0816361 22.34375 6.09375 C 22.217863 6.1086751 22.094076 6.1379284 21.96875 6.15625 C 21.481537 6.2274765 21.00748 6.3156129 20.53125 6.4375 C 20.458274 6.4561777 20.385165 6.4801472 20.3125 6.5 C 20.040773 6.5742392 19.766891 6.6594553 19.5 6.75 C 19.238788 6.8379106 18.975427 6.9275242 18.71875 7.03125 C 18.696937 7.0401495 18.678022 7.0534891 18.65625 7.0625 C 18.603533 7.0841169 18.552503 7.1027134 18.5 7.125 C 18.215045 7.2469357 17.933277 7.390234 17.65625 7.53125 C 17.524487 7.5982249 17.380022 7.6473331 17.25 7.71875 C 17.164294 7.7658648 17.084813 7.8260329 17 7.875 L 22 16.53125 C 22.619077 16.182699 23.31171 16 24 16 L 24 6 z "
       id="path3117-5-6" />
    <path
       style="color:#000000;fill:#9ade00;fill-opacity:1;fill-rule:nonzero;stroke:none;stroke-width:2;marker:none;visibility:visible;display:inline;overflow:visible;enable-background:accumulate"
       d="M 17 7.875 C 16.868977 7.9506462 16.752796 8.0456512 16.625 8.125 C 16.471719 8.2200036 16.306542 8.3047623 16.15625 8.40625 C 15.984368 8.5224447 15.821725 8.6583794 15.65625 8.78125 C 15.491599 8.9036764 15.316574 8.9943841 15.15625 9.125 C 15.122851 9.1520836 15.095609 9.1913907 15.0625 9.21875 C 14.938841 9.3214337 14.808369 9.4236332 14.6875 9.53125 C 14.502256 9.6958248 14.331524 9.8580202 14.15625 10.03125 C 14.135166 10.052072 14.114734 10.072766 14.09375 10.09375 C 13.940315 10.247185 13.801062 10.403857 13.65625 10.5625 C 13.562297 10.665557 13.465619 10.769417 13.375 10.875 C 13.219431 11.055988 13.082294 11.250647 12.9375 11.4375 C 12.832253 11.573652 12.724954 11.704089 12.625 11.84375 C 12.440709 12.101249 12.259716 12.35638 12.09375 12.625 C 11.895809 12.945373 11.70245 13.290437 11.53125 13.625 C 11.36005 13.959563 11.206225 14.309268 11.0625 14.65625 C 10.92766 14.984201 10.796373 15.320903 10.6875 15.65625 C 10.568108 16.023181 10.46389 16.404938 10.375 16.78125 C 10.316489 17.031685 10.26332 17.278521 10.21875 17.53125 C 10.18926 17.69519 10.179904 17.866061 10.15625 18.03125 C 10.128801 18.227995 10.08158 18.427452 10.0625 18.625 C 10.046923 18.781648 10.041538 18.936289 10.03125 19.09375 C 10.007851 19.45188 9.995598 19.79499 10 20.15625 C 10.004661 20.538743 10.02596 20.92822 10.0625 21.3125 C 10.09309 21.634203 10.134096 21.959436 10.1875 22.28125 C 10.197888 22.343848 10.207489 22.406171 10.21875 22.46875 C 10.261979 22.709944 10.319076 22.948405 10.375 23.1875 C 10.40902 23.332948 10.461282 23.480489 10.5 23.625 L 20.125 21.03125 C 19.779082 19.693927 20.115581 18.196919 21.15625 17.15625 C 21.412151 16.900349 21.698328 16.701096 22 16.53125 L 17 7.875 z "
       id="path3117-5-6-3" />
  </g>
  <g
     inkscape:groupmode="layer"
     id="layer4"
     inkscape:label="hilight">
    <path
       inkscape:connector-curvature="0"
       style="opacity:0.4;color:#000000;fill:url(#linearGradient12443);fill-opacity:1;fill-rule:nonzero;stroke:none;stroke-width:0.5;marker:none;visibility:visible;display:inline;overflow:visible;enable-background:accumulate"
       d="M 2,0 C 0.892,0 0,0.892 0,2 l 0,44 c 0,1.108 0.892,2 2,2 l 44,0 c 1.108,0 2,-0.892 2,-2 L 48,2 C 48,0.892 47.108,0 46,0 L 2,0 z m 0,0.5 44,0 c 0.83101,0 1.5,0.6689904 1.5,1.5 l 0,44 c 0,0.83101 -0.66899,1.5 -1.5,1.5 l -44,0 C 1.1689904,47.5 0.5,46.83101 0.5,46 L 0.5,2 C 0.5,1.1689904 1.1689904,0.5 2,0.5 z"
       id="rect3006" />
    <path
       inkscape:connector-curvature="0"
       style="opacity:0.40000000000000002;color:#000000;fill:url(#linearGradient3973);fill-opacity:1.0;fill-rule:nonzero;stroke:none;stroke-width:0.50000000000000000;marker:none;visibility:visible;display:inline;overflow:visible;enable-background:accumulate"
       d="M 2,0 C 0.892,0 0,0.892 0,2 l 0,44 c 0,1.108 0.892,2 2,2 l 44,0 c 1.108,0 2,-0.892 2,-2 L 48,2 C 48,0.892 47.108,0 46,0 L 2,0 z m 0,0.5 44,0 c 0.83101,0 1.5,0.6689904 1.5,1.5 l 0,44 c 0,0.83101 -0.66899,1.5 -1.5,1.5 l -44,0 C 1.1689904,47.5 0.5,46.83101 0.5,46 L 0.5,2 C 0.5,1.1689904 1.1689904,0.5 2,0.5 z"
       id="rect3006-6" />
  </g>
</svg>
