<?xml version="1.0" encoding="UTF-8" standalone="no"?>
<!-- Created with Inkscape (http://www.inkscape.org/) -->

<svg
   xmlns:dc="http://purl.org/dc/elements/1.1/"
   xmlns:cc="http://creativecommons.org/ns#"
   xmlns:rdf="http://www.w3.org/1999/02/22-rdf-syntax-ns#"
   xmlns:svg="http://www.w3.org/2000/svg"
   xmlns="http://www.w3.org/2000/svg"
   xmlns:xlink="http://www.w3.org/1999/xlink"
   xmlns:sodipodi="http://sodipodi.sourceforge.net/DTD/sodipodi-0.dtd"
   xmlns:inkscape="http://www.inkscape.org/namespaces/inkscape"
   sodipodi:docname="gufw.svg"
   inkscape:version="0.48.4 r9939"
   version="1.1"
   id="svg2"
   height="48"
   width="48">
  <sodipodi:namedview
     id="base"
     pagecolor="#424242"
     bordercolor="#666666"
     borderopacity="1.0"
     inkscape:pageopacity="1"
     inkscape:pageshadow="2"
     inkscape:zoom="11.313708"
     inkscape:cx="12.268576"
     inkscape:cy="16.214719"
     inkscape:document-units="px"
     inkscape:current-layer="layer1"
     showgrid="false"
     showborder="false"
     borderlayer="false"
     showguides="true"
     inkscape:guide-bbox="true"
     inkscape:window-width="1855"
     inkscape:window-height="1056"
     inkscape:window-x="65"
     inkscape:window-y="24"
     inkscape:window-maximized="1">
    <inkscape:grid
       type="xygrid"
       id="grid3004"
       empspacing="5"
       visible="true"
       enabled="true"
       snapvisiblegridlinesonly="true"
       spacingx="0.5px"
       spacingy="0.5px" />
  </sodipodi:namedview>
  <defs
     id="defs4">
    <linearGradient
       inkscape:collect="always"
       id="linearGradient4259">
      <stop
         style="stop-color:#ffffff;stop-opacity:1;"
         offset="0"
         id="stop4261" />
      <stop
         style="stop-color:#ffffff;stop-opacity:0;"
         offset="1"
         id="stop4263" />
    </linearGradient>
    <linearGradient
       inkscape:collect="always"
       id="linearGradient4699">
      <stop
         style="stop-color:#19aeff;stop-opacity:1;"
         offset="0"
         id="stop4701" />
      <stop
         style="stop-color:#19aeff;stop-opacity:0;"
         offset="1"
         id="stop4703" />
    </linearGradient>
    <linearGradient
       inkscape:collect="always"
       id="linearGradient4691">
      <stop
         style="stop-color:#19aeff;stop-opacity:1;"
         offset="0"
         id="stop4693" />
      <stop
         style="stop-color:#19aeff;stop-opacity:0;"
         offset="1"
         id="stop4695" />
    </linearGradient>
    <linearGradient
       id="linearGradient4665">
      <stop
         style="stop-color:#95dbff;stop-opacity:1;"
         offset="0"
         id="stop4667" />
      <stop
         style="stop-color:#006ba2;stop-opacity:1;"
         offset="1"
         id="stop4669" />
    </linearGradient>
    <linearGradient
       id="linearGradient4634">
      <stop
         style="stop-color:#000000;stop-opacity:0.38414633;"
         offset="0"
         id="stop4636" />
      <stop
         style="stop-color:#000000;stop-opacity:0;"
         offset="1"
         id="stop4638" />
    </linearGradient>
    <linearGradient
       inkscape:collect="always"
       xlink:href="#linearGradient3815-5"
       id="linearGradient3821-9"
       x1="3"
       y1="3"
       x2="25"
       y2="28"
       gradientUnits="userSpaceOnUse" />
    <linearGradient
       inkscape:collect="always"
       id="linearGradient3815-5">
      <stop
         style="stop-color:#ffffff;stop-opacity:1;"
         offset="0"
         id="stop3817-1" />
      <stop
         style="stop-color:#ffffff;stop-opacity:0;"
         offset="1"
         id="stop3819-9" />
    </linearGradient>
    <linearGradient
       inkscape:collect="always"
       xlink:href="#linearGradient4691"
       id="linearGradient4697"
       x1="45"
       y1="1049.8622"
       x2="42.5"
       y2="1047.3622"
       gradientUnits="userSpaceOnUse" />
    <linearGradient
       inkscape:collect="always"
       xlink:href="#linearGradient4699"
       id="linearGradient4705"
       x1="27.5"
       y1="0.5"
       x2="27.5"
       y2="3"
       gradientUnits="userSpaceOnUse" />
    <linearGradient
       inkscape:collect="always"
       xlink:href="#linearGradient4691-0"
       id="linearGradient4697-1"
       x1="45"
       y1="1049.8622"
       x2="42.5"
       y2="1047.3622"
       gradientUnits="userSpaceOnUse" />
    <linearGradient
       inkscape:collect="always"
       id="linearGradient4691-0">
      <stop
         style="stop-color:#19aeff;stop-opacity:1;"
         offset="0"
         id="stop4693-5" />
      <stop
         style="stop-color:#19aeff;stop-opacity:0;"
         offset="1"
         id="stop4695-5" />
    </linearGradient>
    <linearGradient
       gradientTransform="translate(0,-1004.3622)"
       y2="1047.3622"
       x2="42.5"
       y1="1049.8622"
       x1="45"
       gradientUnits="userSpaceOnUse"
       id="linearGradient12409"
       xlink:href="#linearGradient4699-1"
       inkscape:collect="always" />
    <linearGradient
       inkscape:collect="always"
       xlink:href="#linearGradient4699-1"
       id="linearGradient4705-1"
       x1="27.5"
       y1="0.5"
       x2="27.5"
       y2="3"
       gradientUnits="userSpaceOnUse" />
    <linearGradient
       id="linearGradient4699-1">
      <stop
         style="stop-color:#ffffff;stop-opacity:1;"
         offset="0"
         id="stop4701-3" />
      <stop
         style="stop-color:#ffffff;stop-opacity:0;"
         offset="1"
         id="stop4703-4" />
    </linearGradient>
    <linearGradient
       y2="3"
       x2="27.5"
       y1="0.5"
       x1="27.5"
       gradientUnits="userSpaceOnUse"
       id="linearGradient12443"
       xlink:href="#linearGradient4699-1"
       inkscape:collect="always" />
    <clipPath
       clipPathUnits="userSpaceOnUse"
       id="clipPath3856">
      <path
         style="opacity:0.3;fill:#000000;fill-opacity:1;stroke:none;display:inline"
         d="m 27.84375,12.03125 -15.4375,15.4375 8.125,8.125 L 32.9375,48 46,48 c 1.108,0 2,-0.892 2,-2 l 0,-13.8125 -12.03125,-12.03125 -8.125,-8.125 z m 10.5625,2.4375 0,3.25 -1.625,1.625 L 48,30.5625 l 0,-6.5 -9.59375,-9.59375 z m -18.6875,21.9375 -8.9375,2.4375 -1.625,0 L 18.3125,48 l 13,0 -11.59375,-11.59375 z"
         id="path3858"
         inkscape:connector-curvature="0" />
    </clipPath>
    <radialGradient
       gradientUnits="userSpaceOnUse"
       r="128"
       id="radial0"
       gradientTransform="matrix(0.1831,0,0,0.1831,-3.10029,-5.29688)"
       cy="160"
       cx="148.004">
      <stop
         id="stop3047"
         style="stop-color:#b0cee7"
         offset="0" />
      <stop
         id="stop3049"
         style="stop-color:#205582"
         offset="1" />
    </radialGradient>
    <filter
       height="1.2185714"
       y="-0.10928571"
       width="1.266087"
       x="-0.13304348"
       id="filter6624"
       inkscape:collect="always">
      <feGaussianBlur
         id="feGaussianBlur6626"
         stdDeviation="1.275"
         inkscape:collect="always" />
    </filter>
    <clipPath
       id="clipPath6628"
       clipPathUnits="userSpaceOnUse">
      <path
         id="path6630"
         d="m 12,10 0,28 10,10 24,0 c 1.108,0 2,-0.892 2,-2 L 48,34.5 23.5,10 12,10 z M 26.5,10 48,31.5 48,23 35,10 26.5,10 z"
         style="opacity:0.25;color:#000000;fill:#000000;fill-opacity:1;fill-rule:nonzero;stroke:none;stroke-width:0.5;marker:none;visibility:visible;display:inline;overflow:visible;enable-background:accumulate"
         inkscape:connector-curvature="0" />
    </clipPath>
    <radialGradient
       cx="148.004"
       cy="160"
       gradientTransform="matrix(0.1831,0,0,0.1831,-3.10029,-5.29688)"
       id="radial0-5"
       r="128"
       gradientUnits="userSpaceOnUse">
      <stop
         offset="0"
         style="stop-color:#a8db72"
         id="stop6656" />
      <stop
         offset="1"
         style="stop-color:#4b8012"
         id="stop6658" />
    </radialGradient>
    <radialGradient
       r="128"
       cy="160"
       cx="148.004"
       gradientTransform="matrix(0.1831,0,0,0.1831,-107.85029,-36.546882)"
       gradientUnits="userSpaceOnUse"
       id="radialGradient6693"
       xlink:href="#radial0-5"
       inkscape:collect="always" />
    <radialGradient
       cx="148.004"
       cy="160"
       gradientTransform="matrix(.1831 0 0 .1831 -3.10029 -5.29688)"
       id="radial0-1"
       r="128"
       gradientUnits="userSpaceOnUse">
      <stop
         offset="0"
         style="stop-color:#de8fbc"
         id="stop3040" />
      <stop
         offset="1"
         style="stop-color:#81275b"
         id="stop3042" />
    </radialGradient>
    <radialGradient
       inkscape:collect="always"
       xlink:href="#linearGradient4259"
       id="radialGradient4265"
       cx="23.75"
       cy="24.5"
       fx="23.75"
       fy="24.5"
       r="0.25"
       gradientTransform="matrix(1,0,0,57.75487,0,-1390.4943)"
       gradientUnits="userSpaceOnUse" />
  </defs>
  <metadata
     id="metadata7">
    <rdf:RDF>
      <cc:Work
         rdf:about="">
        <dc:format>image/svg+xml</dc:format>
        <dc:type
           rdf:resource="http://purl.org/dc/dcmitype/StillImage" />
        <dc:title />
      </cc:Work>
    </rdf:RDF>
  </metadata>
  <g
     inkscape:label="base"
     inkscape:groupmode="layer"
     id="layer1"
     transform="translate(0,-1004.3622)"
     style="display:inline">
    <rect
       style="color:#000000;fill:#364e59;fill-opacity:1;fill-rule:nonzero;stroke:none;stroke-width:0.50000000000000000;marker:none;visibility:visible;display:inline;overflow:visible;enable-background:accumulate"
       id="rect3006-5"
       width="48"
       height="48"
       x="0"
       y="1004.3622"
       ry="2" />
  </g>
  <g
     inkscape:groupmode="layer"
     id="layer2"
     inkscape:label="shadow"
     style="display:inline">
    <path
       style="font-size:medium;font-style:normal;font-variant:normal;font-weight:normal;font-stretch:normal;text-indent:0;text-align:start;text-decoration:none;line-height:normal;letter-spacing:normal;word-spacing:normal;text-transform:none;direction:ltr;block-progression:tb;writing-mode:lr-tb;text-anchor:start;opacity:0.25;color:#000000;fill:#000000;fill-opacity:1;stroke:none;stroke-width:2;marker:none;visibility:visible;font-family:Sans;-inkscape-font-specification:Sans"
       d="M 11.40625 7 C 11.40625 7 10 13.9691 10 17.5 C 10 20.3745 10.626955 23.2691 11.65625 26 L 11.71875 26.0625 L 11.75 26.09375 C 11.999823 26.747056 12.239175 27.396549 12.53125 28.03125 C 12.719981 28.44125 12.952017 28.88025 13.15625 29.28125 C 13.350867 29.66095 13.511722 30.03565 13.71875 30.40625 C 13.7759 30.50905 13.84822 30.61665 13.90625 30.71875 C 14.139893 31.12775 14.378657 31.5414 14.625 31.9375 C 14.71533 32.0829 14.81436 32.2314 14.90625 32.375 C 15.204325 32.8403 15.501028 33.27435 15.8125 33.71875 C 16.795426 35.121009 17.854651 36.412441 18.90625 37.5625 C 19.079227 37.751858 19.233012 37.943465 19.40625 38.125 C 19.584199 38.311293 19.759771 38.509771 19.9375 38.6875 L 19.96875 38.6875 L 29.28125 48 L 46 48 C 47.108 48 48 47.108 48 46 L 48 18.40625 L 36.59375 7 L 30.65625 7 L 11.40625 7 z "
       id="path4015" />
  </g>
  <g
     inkscape:groupmode="layer"
     id="layer3"
     inkscape:label="icon"
     style="display:inline">
    <path
       sodipodi:nodetypes="cscscc"
       inkscape:connector-curvature="0"
       id="path3055"
       d="M 11.4,7 C 11.4,7 10,13.9691 10,17.5 10,28 18.4,38.5 24,42 29.6,38.5 38,28 38,17.5 38,13.9307 36.6,7 36.6,7 z"
       style="fill:#005c94;stroke:none;display:inline" />
    <path
       id="path3055-7"
       d="m 11.4,7 c 0,0 -1.4,6.9691 -1.4,10.5 0,2.8745 0.633205,5.7566 1.6625,8.4875 0.01148,0.03 0.0322,0.057 0.04375,0.088 0.253708,0.6665 0.533469,1.3217 0.83125,1.9688 0.188731,0.41 0.408267,0.824 0.6125,1.225 0.194617,0.3797 0.361722,0.7669 0.56875,1.1375 0.05715,0.1028 0.11697,0.2041 0.175,0.3062 0.233643,0.409 0.497407,0.8289 0.74375,1.225 0.09033,0.1454 0.17061,0.2939 0.2625,0.4375 0.298075,0.4653 0.607278,0.9119 0.91875,1.3563 2.624111,3.7436 5.674731,6.7021 8.18125,8.2687 5.6,-3.5 14,-14 14,-24.5 0,-1.4793 -0.243376,-3.5236 -0.525,-5.425 C 37.40881,11.6286 37.368011,11.315 37.3,10.8942 37.23319,10.4783 37.23313,10.525 37.16875,10.1505 36.877448,8.4237 36.6,7.0005 36.6,7.0005 l -5.95,0 -19.25,0 z m 1.225,1.4 16.625,0 -16.49375,16.4938 C 11.90351,22.4796 11.4,19.9698 11.4,17.5 c 0,-2.8105 0.984402,-7.8273 1.225,-9.1 z m 23.58125,4.9438 C 36.416053,14.8171 36.6,16.3401 36.6,17.5 c 0,4.8766 -1.984044,9.8731 -4.68125,14.0875 -2.464785,3.8513 -5.473303,6.8496 -7.91875,8.575 -2.203011,-1.5543 -4.823497,-4.1679 -7.13125,-7.4813 l 19.3375,-19.3374 z"
       style="font-size:medium;font-style:normal;font-variant:normal;font-weight:normal;font-stretch:normal;text-indent:0;text-align:start;text-decoration:none;line-height:normal;letter-spacing:normal;word-spacing:normal;text-transform:none;direction:ltr;block-progression:tb;writing-mode:lr-tb;text-anchor:start;baseline-shift:baseline;color:#000000;fill:#ffffff;fill-opacity:1;stroke:none;stroke-width:2;marker:none;visibility:visible;display:inline;overflow:visible;enable-background:accumulate;font-family:Sans;-inkscape-font-specification:Sans"
       inkscape:connector-curvature="0" />
    <path
       style="opacity:0.25;color:#000000;fill:#000000;fill-opacity:1;fill-rule:nonzero;stroke:none;stroke-width:2;marker:none;visibility:visible;display:inline;overflow:visible;enable-background:accumulate"
       d="M 24 7 L 24 42 C 29.6 38.5 38 28 38 17.5 C 38 13.9307 36.59375 7 36.59375 7 L 24 7 z "
       id="rect4199" />
    <path
       style="opacity:0.14999999999999999;color:#000000;fill:url(#radialGradient4265);fill-opacity:1;fill-rule:nonzero;stroke:none;stroke-width:2;marker:none;visibility:visible;display:inline;overflow:visible;enable-background:accumulate"
       d="M 23.5 7 L 23.5 41.65625 C 23.66445 41.767617 23.839867 41.899917 24 42 L 24 7 L 23.5 7 z "
       id="rect4238" />
  </g>
  <g
     inkscape:groupmode="layer"
     id="layer4"
     inkscape:label="hilight">
    <path
       inkscape:connector-curvature="0"
       style="color:#000000;fill:url(#linearGradient12443);fill-opacity:1;fill-rule:nonzero;stroke:none;stroke-width:0.50000000000000000;marker:none;visibility:visible;display:inline;overflow:visible;enable-background:accumulate;opacity:0.4"
       d="M 2,0 C 0.892,0 0,0.892 0,2 l 0,44 c 0,1.108 0.892,2 2,2 l 44,0 c 1.108,0 2,-0.892 2,-2 L 48,2 C 48,0.892 47.108,0 46,0 L 2,0 z m 0,0.5 44,0 c 0.83101,0 1.5,0.6689904 1.5,1.5 l 0,44 c 0,0.83101 -0.66899,1.5 -1.5,1.5 l -44,0 C 1.1689904,47.5 0.5,46.83101 0.5,46 L 0.5,2 C 0.5,1.1689904 1.1689904,0.5 2,0.5 z"
       id="rect3006" />
  </g>
</svg>
