<?xml version="1.0" encoding="UTF-8" standalone="no"?>
<!-- Created with Inkscape (http://www.inkscape.org/) -->

<svg
   xmlns:dc="http://purl.org/dc/elements/1.1/"
   xmlns:cc="http://creativecommons.org/ns#"
   xmlns:rdf="http://www.w3.org/1999/02/22-rdf-syntax-ns#"
   xmlns:svg="http://www.w3.org/2000/svg"
   xmlns="http://www.w3.org/2000/svg"
   xmlns:xlink="http://www.w3.org/1999/xlink"
   xmlns:sodipodi="http://sodipodi.sourceforge.net/DTD/sodipodi-0.dtd"
   xmlns:inkscape="http://www.inkscape.org/namespaces/inkscape"
   sodipodi:docname="photos.svg"
   inkscape:version="0.48.4 r9939"
   version="1.1"
   id="svg2"
   height="48"
   width="48">
  <sodipodi:namedview
     id="base"
     pagecolor="#424242"
     bordercolor="#666666"
     borderopacity="1.0"
     inkscape:pageopacity="1"
     inkscape:pageshadow="2"
     inkscape:zoom="8"
     inkscape:cx="42.164426"
     inkscape:cy="-0.65887236"
     inkscape:document-units="px"
     inkscape:current-layer="layer2"
     showgrid="false"
     showborder="false"
     borderlayer="false"
     showguides="true"
     inkscape:guide-bbox="true"
     inkscape:window-width="1855"
     inkscape:window-height="1056"
     inkscape:window-x="65"
     inkscape:window-y="24"
     inkscape:window-maximized="1">
    <inkscape:grid
       type="xygrid"
       id="grid3004"
       empspacing="5"
       visible="true"
       enabled="true"
       snapvisiblegridlinesonly="true"
       spacingx="1px"
       spacingy="1px" />
  </sodipodi:namedview>
  <defs
     id="defs4">
    <linearGradient
       id="linearGradient11828">
      <stop
         style="stop-color:#ff3e8b;stop-opacity:1;"
         offset="0"
         id="stop11830" />
      <stop
         style="stop-color:#fc0065;stop-opacity:1;"
         offset="1"
         id="stop11832" />
    </linearGradient>
    <linearGradient
       id="linearGradient11820">
      <stop
         style="stop-color:#e760ff;stop-opacity:1;"
         offset="0"
         id="stop11822" />
      <stop
         style="stop-color:#dc1cff;stop-opacity:1;"
         offset="1"
         id="stop11824" />
    </linearGradient>
    <linearGradient
       id="linearGradient11812">
      <stop
         style="stop-color:#3a25ff;stop-opacity:1;"
         offset="0"
         id="stop11814" />
      <stop
         style="stop-color:#5341ff;stop-opacity:1;"
         offset="1"
         id="stop11816" />
    </linearGradient>
    <linearGradient
       id="linearGradient11804">
      <stop
         style="stop-color:#19aeff;stop-opacity:1;"
         offset="0"
         id="stop11806" />
      <stop
         style="stop-color:#0097e9;stop-opacity:1;"
         offset="1"
         id="stop11808" />
    </linearGradient>
    <linearGradient
       id="linearGradient11796">
      <stop
         style="stop-color:#00d67d;stop-opacity:1;"
         offset="0"
         id="stop11798" />
      <stop
         style="stop-color:#00bb6d;stop-opacity:1;"
         offset="1"
         id="stop11800" />
    </linearGradient>
    <linearGradient
       id="linearGradient11788">
      <stop
         style="stop-color:#2ef407;stop-opacity:1;"
         offset="0"
         id="stop11790" />
      <stop
         style="stop-color:#22b505;stop-opacity:1;"
         offset="1"
         id="stop11792" />
    </linearGradient>
    <linearGradient
       id="linearGradient4571">
      <stop
         style="stop-color:#ecf1f3;stop-opacity:1;"
         offset="0"
         id="stop4573" />
      <stop
         style="stop-color:#c5cacc;stop-opacity:1;"
         offset="1"
         id="stop4575" />
    </linearGradient>
    <linearGradient
       inkscape:collect="always"
       id="linearGradient4699">
      <stop
         style="stop-color:#19aeff;stop-opacity:1;"
         offset="0"
         id="stop4701" />
      <stop
         style="stop-color:#19aeff;stop-opacity:0;"
         offset="1"
         id="stop4703" />
    </linearGradient>
    <linearGradient
       inkscape:collect="always"
       id="linearGradient4691">
      <stop
         style="stop-color:#19aeff;stop-opacity:1;"
         offset="0"
         id="stop4693" />
      <stop
         style="stop-color:#19aeff;stop-opacity:0;"
         offset="1"
         id="stop4695" />
    </linearGradient>
    <linearGradient
       id="linearGradient4665">
      <stop
         style="stop-color:#95dbff;stop-opacity:1;"
         offset="0"
         id="stop4667" />
      <stop
         style="stop-color:#006ba2;stop-opacity:1;"
         offset="1"
         id="stop4669" />
    </linearGradient>
    <linearGradient
       id="linearGradient4634">
      <stop
         style="stop-color:#000000;stop-opacity:0.38414633;"
         offset="0"
         id="stop4636" />
      <stop
         style="stop-color:#000000;stop-opacity:0;"
         offset="1"
         id="stop4638" />
    </linearGradient>
    <linearGradient
       inkscape:collect="always"
       xlink:href="#linearGradient3815-5"
       id="linearGradient3821-9"
       x1="3"
       y1="3"
       x2="25"
       y2="28"
       gradientUnits="userSpaceOnUse" />
    <linearGradient
       inkscape:collect="always"
       id="linearGradient3815-5">
      <stop
         style="stop-color:#ffffff;stop-opacity:1;"
         offset="0"
         id="stop3817-1" />
      <stop
         style="stop-color:#ffffff;stop-opacity:0;"
         offset="1"
         id="stop3819-9" />
    </linearGradient>
    <linearGradient
       inkscape:collect="always"
       xlink:href="#linearGradient4691"
       id="linearGradient4697"
       x1="45"
       y1="1049.8622"
       x2="42.5"
       y2="1047.3622"
       gradientUnits="userSpaceOnUse" />
    <linearGradient
       inkscape:collect="always"
       xlink:href="#linearGradient4699"
       id="linearGradient4705"
       x1="27.5"
       y1="0.5"
       x2="27.5"
       y2="3"
       gradientUnits="userSpaceOnUse" />
    <linearGradient
       inkscape:collect="always"
       xlink:href="#linearGradient4691-0"
       id="linearGradient4697-1"
       x1="45"
       y1="1049.8622"
       x2="42.5"
       y2="1047.3622"
       gradientUnits="userSpaceOnUse" />
    <linearGradient
       inkscape:collect="always"
       id="linearGradient4691-0">
      <stop
         style="stop-color:#19aeff;stop-opacity:1;"
         offset="0"
         id="stop4693-5" />
      <stop
         style="stop-color:#19aeff;stop-opacity:0;"
         offset="1"
         id="stop4695-5" />
    </linearGradient>
    <linearGradient
       gradientTransform="translate(0,-1004.3622)"
       y2="1047.3622"
       x2="42.5"
       y1="1049.8622"
       x1="45"
       gradientUnits="userSpaceOnUse"
       id="linearGradient12409"
       xlink:href="#linearGradient4699-1"
       inkscape:collect="always" />
    <linearGradient
       inkscape:collect="always"
       xlink:href="#linearGradient4699-1"
       id="linearGradient4705-1"
       x1="27.5"
       y1="0.5"
       x2="27.5"
       y2="3"
       gradientUnits="userSpaceOnUse" />
    <linearGradient
       id="linearGradient4699-1">
      <stop
         style="stop-color:#ffffff;stop-opacity:1;"
         offset="0"
         id="stop4701-3" />
      <stop
         style="stop-color:#ffffff;stop-opacity:0;"
         offset="1"
         id="stop4703-4" />
    </linearGradient>
    <linearGradient
       y2="3"
       x2="27.5"
       y1="0.5"
       x1="27.5"
       gradientUnits="userSpaceOnUse"
       id="linearGradient12443"
       xlink:href="#linearGradient4699-1"
       inkscape:collect="always" />
    <clipPath
       clipPathUnits="userSpaceOnUse"
       id="clipPath3856">
      <path
         style="opacity:0.3;fill:#000000;fill-opacity:1;stroke:none;display:inline"
         d="m 27.84375,12.03125 -15.4375,15.4375 8.125,8.125 L 32.9375,48 46,48 c 1.108,0 2,-0.892 2,-2 l 0,-13.8125 -12.03125,-12.03125 -8.125,-8.125 z m 10.5625,2.4375 0,3.25 -1.625,1.625 L 48,30.5625 l 0,-6.5 -9.59375,-9.59375 z m -18.6875,21.9375 -8.9375,2.4375 -1.625,0 L 18.3125,48 l 13,0 -11.59375,-11.59375 z"
         id="path3858"
         inkscape:connector-curvature="0" />
    </clipPath>
    <clipPath
       clipPathUnits="userSpaceOnUse"
       id="clipPath4492">
      <path
         inkscape:connector-curvature="0"
         style="opacity:0.3;fill:#000000;fill-opacity:1;fill-rule:evenodd;stroke-width:0.25;display:inline"
         d="m 28.28125,11 c -0.382978,-0.015 -0.701309,0.2118 -0.65625,0.625 l 0,0.9375 c 0.0028,0.107535 0.03337,0.206152 0.0625,0.28125 0.0077,0.0185 0.02221,0.04583 0.03125,0.0625 0.02417,0.04365 0.03048,0.09298 0.0625,0.125 l 0.09375,0.0625 1.6875,1.71875 c -0.09694,0.107303 -0.236384,0.234525 -0.40625,0.40625 l -2.28125,2.375 -6.4375,-6.4375 c -0.08266,-0.08266 -0.181553,-0.128868 -0.34375,-0.125 l -9.25,0 c -0.337919,-0.015 -0.585021,0.2799 -0.5625,0.625 l 0,1.03125 c -3.5e-4,0.08677 0.0032,0.174519 0.03125,0.25 0.02085,0.0575 0.05938,0.108056 0.09375,0.15625 0.01247,0.01766 0.0172,0.0463 0.03125,0.0625 0.0091,0.01035 0.02154,0.02154 0.03125,0.03125 l 0.15625,0.125 1.65625,1.65625 0,0.03125 0,21.53125 c -0.0083,0.0885 -0.01311,0.187768 0,0.25 0.0079,0.0311 0.01605,0.06838 0.03125,0.09375 0.01199,0.02047 0.01402,0.04527 0.03125,0.0625 L 23.40625,48 46,48 c 1.108,0 2,-0.892 2,-2 L 48,21.59375 37.65625,11.25 c -0.01519,-0.03494 -0.03721,-0.06556 -0.0625,-0.09375 -0.0095,-0.0095 -0.02057,-0.02275 -0.03125,-0.03125 -0.03337,-0.02893 -0.07961,-0.04528 -0.125,-0.0625 -0.0085,-0.0029 -0.02235,0.0024 -0.03125,0 -0.0577,-0.01753 -0.114282,-0.03502 -0.1875,-0.03125 L 28.28125,11 z"
         id="path4494" />
    </clipPath>
    <linearGradient
       gradientTransform="translate(7.7392578e-7,4.2609766e-5)"
       inkscape:collect="always"
       xlink:href="#linearGradient6772"
       id="linearGradient6778"
       x1="40.915409"
       y1="1049.3521"
       x2="40.915409"
       y2="1007.3218"
       gradientUnits="userSpaceOnUse" />
    <linearGradient
       inkscape:collect="always"
       id="linearGradient6772">
      <stop
         style="stop-color:#efe963;stop-opacity:1"
         offset="0"
         id="stop6774" />
      <stop
         style="stop-color:#fcf982;stop-opacity:1"
         offset="1"
         id="stop6776" />
    </linearGradient>
    <linearGradient
       inkscape:collect="always"
       xlink:href="#linearGradient6772"
       id="linearGradient3085"
       gradientUnits="userSpaceOnUse"
       gradientTransform="translate(-84.249997,-4.7499109)"
       x1="40.915409"
       y1="1049.3521"
       x2="40.915409"
       y2="1007.3218" />
    <clipPath
       id="clipPath4331"
       clipPathUnits="userSpaceOnUse">
      <path
         id="path4333"
         d="m 23.75,7.5625 c -3.451779,0 -6.25,2.7982 -6.25,6.25 l 0,4.6875 c 0,0.330092 0.136168,0.620764 0.34375,0.84375 0.01016,0.01092 0.02071,0.02071 0.03125,0.03125 L 20.96875,22.5 14.5,22.5 c -1.108,0 -2,0.892 -2,2 l 0,13.5 c 0,0.164967 0.02519,0.315591 0.0625,0.46875 0.0262,0.107537 0.05103,0.212656 0.09375,0.3125 0.03933,0.09214 0.104041,0.165705 0.15625,0.25 0.03201,0.05189 0.05727,0.107675 0.09375,0.15625 0.02233,0.02974 0.03857,0.06534 0.0625,0.09375 0.0417,0.04964 0.07872,0.110926 0.125,0.15625 0.04721,0.04594 0.104619,0.08384 0.15625,0.125 L 21.6875,48 46,48 c 1.108,0 2,-0.892 2,-2 L 48,29.25 28.4375,9.6875 C 28.344943,9.5817008 28.255631,9.4742937 28.15625,9.375 28.12092,9.339674 28.06741,9.315722 28.03125,9.28125 27.918981,9.1744958 27.807452,9.0669564 27.6875,8.96875 27.6578,8.944221 27.62391,8.930234 27.59375,8.90625 27.471947,8.81012 27.34765,8.7119582 27.21875,8.625 27.18719,8.603662 27.15696,8.58327 27.125,8.5625 26.990501,8.475245 26.860145,8.3893571 26.71875,8.3125 26.69063,8.297207 26.65338,8.296119 26.625,8.28125 26.494088,8.212761 26.35495,8.1529625 26.21875,8.09375 26.17651,8.075309 26.13647,8.048772 26.09375,8.03125 25.933803,7.965967 25.760065,7.8957447 25.59375,7.84375 25.57208,7.837004 25.553022,7.8190142 25.53125,7.8125 25.352378,7.7587466 25.185323,7.7251536 25,7.6875 24.9901,7.68547 24.97866,7.68948 24.96875,7.6875 24.77271,7.6487168 24.577293,7.6136138 24.375,7.59375 24.165984,7.5725195 23.964744,7.5625 23.75,7.5625 z"
         style="color:#000000;fill:#0e232e;fill-opacity:0.48709681;fill-rule:nonzero;stroke:none;stroke-width:0.5;marker:none;visibility:visible;display:inline"
         inkscape:connector-curvature="0" />
    </clipPath>
    <clipPath
       clipPathUnits="userSpaceOnUse"
       id="clipPath4567">
      <path
         inkscape:connector-curvature="0"
         style="opacity:0.25;color:#000000;fill:#000000;fill-opacity:1;fill-rule:nonzero;stroke:none;stroke-width:0.5;marker:none;visibility:visible;display:inline"
         d="m 24,6 c -3.313709,0 -6,2.6862912 -6,6 l 0,5 5,5 -9,0 c -1.108,0 -2,0.892 -2,2 l 0,14 c 0,0.421192 0.123088,0.803368 0.34375,1.125 0.07174,0.106367 0.159625,0.190875 0.25,0.28125 0.0056,0.0056 -0.0056,0.02572 0,0.03125 L 21.15625,48 46,48 c 1.108,0 2,-0.892 2,-2 L 48,27.5 28.25,7.75 C 27.164213,6.6642136 25.656854,6 24,6 z"
         id="path4569" />
    </clipPath>
    <linearGradient
       inkscape:collect="always"
       xlink:href="#linearGradient11788"
       id="linearGradient11794"
       x1="22.748482"
       y1="28.077873"
       x2="9.2540932"
       y2="20.286884"
       gradientUnits="userSpaceOnUse" />
    <linearGradient
       inkscape:collect="always"
       xlink:href="#linearGradient11796"
       id="linearGradient11802"
       x1="19.188961"
       y1="19.994572"
       x2="14.204597"
       y2="12.744572"
       gradientUnits="userSpaceOnUse" />
    <linearGradient
       inkscape:collect="always"
       xlink:href="#linearGradient11804"
       id="linearGradient11810"
       x1="24.220661"
       y1="15.054945"
       x2="24.220661"
       y2="8.8721695"
       gradientUnits="userSpaceOnUse" />
    <linearGradient
       inkscape:collect="always"
       xlink:href="#linearGradient11812"
       id="linearGradient11818"
       x1="28.578001"
       y1="-9.8875885"
       x2="39.304253"
       y2="-9.8875885"
       gradientUnits="userSpaceOnUse" />
    <linearGradient
       inkscape:collect="always"
       xlink:href="#linearGradient11820"
       id="linearGradient11826"
       x1="26.591839"
       y1="-39.820854"
       x2="20.84738"
       y2="-29.871159"
       gradientUnits="userSpaceOnUse" />
    <linearGradient
       inkscape:collect="always"
       xlink:href="#linearGradient11828"
       id="linearGradient11834"
       x1="0.5489977"
       y1="50.067055"
       x2="0.5489977"
       y2="38.590984"
       gradientUnits="userSpaceOnUse" />
  </defs>
  <metadata
     id="metadata7">
    <rdf:RDF>
      <cc:Work
         rdf:about="">
        <dc:format>image/svg+xml</dc:format>
        <dc:type
           rdf:resource="http://purl.org/dc/dcmitype/StillImage" />
        <dc:title />
      </cc:Work>
    </rdf:RDF>
  </metadata>
  <g
     inkscape:label="base"
     inkscape:groupmode="layer"
     id="layer1"
     transform="translate(0,-1004.3622)"
     style="display:inline">
    <path
       id="rect3006-5"
       d="m 2,1004.3622 44,0 c 1.108,0 2,0.892 2,2 l 0,44 c 0,1.108 -0.892,2 -2,2 l -44,0 c -1.108,0 -2,-0.892 -2,-2 l 0,-44 c 0,-1.108 0.892,-2 2,-2 z"
       style="color:#000000;fill:#bdcdd4;fill-opacity:1;fill-rule:nonzero;stroke:none;stroke-width:0.50000000000000000;marker:none;visibility:visible;display:inline;overflow:visible;enable-background:accumulate" />
  </g>
  <g
     inkscape:groupmode="layer"
     id="layer2"
     inkscape:label="shadow"
     style="display:inline">
    <path
       style="opacity:0.3;color:#000000;fill:#000000;fill-opacity:1;fill-rule:nonzero;stroke:none;stroke-width:0.5;marker:none;visibility:visible"
       d="M 24.09375 6 C 21.184288 6 18.815752 8.3018905 18.71875 11.1875 C 17.749433 10.426332 16.573221 10 15.40625 10 C 14.035333 10 12.675468 10.543283 11.625 11.59375 C 9.6997338 13.519017 9.5529459 16.518443 11.15625 18.625 C 8.2849527 18.737618 6 21.100823 6 24 C 6 25.485586 6.5931153 26.811865 7.5625 27.78125 L 10.4375 30.65625 C 9.665347 32.580089 10.057177 34.838427 11.625 36.40625 L 23.21875 48 L 40.46875 48 L 44.84375 48 L 46 48 C 46.193037 48 46.38628 47.989997 46.5625 47.9375 C 46.584631 47.931123 46.603196 47.91336 46.625 47.90625 C 46.679096 47.888186 46.729304 47.866132 46.78125 47.84375 C 46.915005 47.787364 47.039354 47.707747 47.15625 47.625 C 47.357195 47.482757 47.519808 47.297463 47.65625 47.09375 C 47.756036 46.944766 47.849691 46.799181 47.90625 46.625 C 47.909364 46.615411 47.903279 46.603405 47.90625 46.59375 C 47.916008 46.564012 47.929133 46.530323 47.9375 46.5 C 47.976689 46.344209 48 46.169065 48 46 L 48 44.84375 L 48 40.46875 L 48 27.6875 L 48 23.21875 L 36.78125 12 L 36.40625 11.59375 C 35.355783 10.543283 33.995917 10.03125 32.625 10.03125 C 31.971863 10.03125 31.310785 10.139703 30.6875 10.375 L 27.875 7.5625 C 26.905615 6.5931152 25.579336 6 24.09375 6 z "
       id="path7105" />
  </g>
  <g
     inkscape:groupmode="layer"
     id="layer3"
     inkscape:label="icon"
     style="display:inline">
    <path
       style="color:#000000;fill:url(#linearGradient11810);fill-opacity:1;fill-rule:nonzero;stroke:none;stroke-width:0.50000000000000000;marker:none;visibility:visible;display:inline;overflow:visible;enable-background:accumulate"
       d="m 24.083786,5.9999957 c 2.971171,0 5.363125,2.3919537 5.363125,5.3631253 l 0,4.592202 c 0,2.971171 -2.391954,5.363125 -5.363125,5.363125 -2.971171,0 -5.363125,-2.391954 -5.363125,-5.363125 l 0,-4.592202 c 0,-2.9711716 2.391954,-5.3631253 5.363125,-5.3631253 z"
       id="rect4600"
       inkscape:connector-curvature="0" />
    <path
       transform="matrix(0.70710678,0.70710678,-0.70710678,0.70710678,0,0)"
       style="color:#000000;fill:url(#linearGradient11818);fill-opacity:1.0;fill-rule:nonzero;stroke:none;stroke-width:0.50000000000000000;marker:none;visibility:visible;display:inline;overflow:visible;enable-background:accumulate"
       d="m 33.941126,-17.546814 c 2.971171,0 5.363125,2.391954 5.363125,5.363125 l 0,4.5922021 c 0,2.9711711 -2.391954,5.3631248 -5.363125,5.3631248 -2.971171,0 -5.363125,-2.3919537 -5.363125,-5.3631248 l 0,-4.5922021 c 0,-2.971171 2.391954,-5.363125 5.363125,-5.363125 z"
       id="rect4600-2"
       inkscape:connector-curvature="0" />
    <path
       transform="matrix(0,1,-1,0,0,0)"
       style="color:#000000;fill:url(#linearGradient11826);fill-opacity:1;fill-rule:nonzero;stroke:none;stroke-width:0.50000000000000000;marker:none;visibility:visible;display:inline;overflow:visible;enable-background:accumulate"
       d="m 24.000011,-42 c 2.971172,0 5.363125,2.391954 5.363125,5.363125 l 0,4.592202 c 0,2.971171 -2.391953,5.363125 -5.363125,5.363125 -2.971171,0 -5.363124,-2.391954 -5.363124,-5.363125 l 0,-4.592202 C 18.636887,-39.608046 21.02884,-42 24.000011,-42 z"
       id="rect4600-0"
       inkscape:connector-curvature="0" />
    <path
       transform="matrix(0.70710678,-0.70710678,0.70710678,0.70710678,0,0)"
       style="color:#000000;fill:url(#linearGradient11834);fill-opacity:1;fill-rule:nonzero;stroke:none;stroke-width:0.50000000000000000;marker:none;visibility:visible;display:inline;overflow:visible;enable-background:accumulate"
       d="m -0.00989676,36.179386 c 2.97117116,0 5.36312486,2.391954 5.36312486,5.363125 l 0,4.592202 c 0,2.971171 -2.3919537,5.363125 -5.36312486,5.363125 -2.97117114,0 -5.36312484,-2.391954 -5.36312484,-5.363125 l 0,-4.592202 c 0,-2.971171 2.3919537,-5.363125 5.36312484,-5.363125 z"
       id="rect4600-1"
       inkscape:connector-curvature="0" />
    <path
       inkscape:connector-curvature="0"
       style="opacity:0.2;color:#000000;fill:#000000;fill-opacity:1;fill-rule:nonzero;stroke:none;stroke-width:0.5;marker:none;visibility:visible;display:inline"
       d="m 24.71875,26.75 c -1.159341,2.045827 -0.903662,4.690088 0.84375,6.4375 l 3.25,3.21875 c 2.022067,2.022066 5.232537,2.089 7.34375,0.21875 l -8.375,-8.375 c -0.812232,-0.812232 -1.865381,-1.343644 -3.0625,-1.5 z"
       id="path9156-1" />
    <path
       style="color:#000000;fill:#ff6519;fill-opacity:1;fill-rule:nonzero;stroke:none;stroke-width:0.5;marker:none;visibility:visible;display:inline;overflow:visible;enable-background:accumulate"
       d="m 23.999989,26.681549 c 2.971171,0 5.363124,2.391954 5.363124,5.363125 l 0,4.592202 c 0,2.971171 -2.391953,5.363125 -5.363124,5.363125 -2.971172,0 -5.363125,-2.391954 -5.363125,-5.363125 l 0,-4.592202 c 0,-2.971171 2.391953,-5.363125 5.363125,-5.363125 z"
       id="rect4600-5"
       inkscape:connector-curvature="0" />
    <path
       inkscape:connector-curvature="0"
       style="opacity:0.3;color:#000000;fill:#000000;fill-opacity:1;fill-rule:nonzero;stroke:none;stroke-width:0.5;marker:none;visibility:visible;display:inline"
       d="m 23.4375,26.718728 c -2.710958,0.273669 -4.8125,2.527027 -4.8125,5.3125 l 0,4.59375 c 0,2.971171 2.403828,5.375 5.375,5.375 2.971171,0 5.375,-2.403829 5.375,-5.375 l 0,-4.09375 -5.8125,-5.8125 c -0.0403,0.0032 -0.08496,-0.004 -0.125,0 z"
       id="path8349-0" />
    <path
       inkscape:connector-curvature="0"
       id="rect4600-2-0"
       d="m 22.460577,25.589689 c 2.100935,2.100935 2.100935,5.483669 0,7.584604 L 19.2134,36.42147 c -2.100936,2.100936 -5.483669,2.100935 -7.584604,0 -2.1009352,-2.100935 -2.1009359,-5.483668 0,-7.584604 l 3.247177,-3.247177 c 2.100935,-2.100935 5.483669,-2.100935 7.584604,0 z"
       style="color:#000000;fill:#ecff19;fill-opacity:1;fill-rule:nonzero;stroke:none;stroke-width:0.5;marker:none;visibility:visible;display:inline;overflow:visible;enable-background:accumulate" />
    <path
       inkscape:connector-curvature="0"
       style="opacity:0.3;color:#000000;fill:#000000;fill-opacity:1;fill-rule:nonzero;stroke:none;stroke-width:0.5;marker:none;visibility:visible;display:inline"
       d="m 18.65625,24 c -1.370917,0 -2.730783,0.543283 -3.78125,1.59375 l -3.25,3.25 c -0.533112,0.533113 -0.924942,1.156206 -1.1875,1.8125 L 17.375,37.625 c 0.669048,-0.262339 1.301428,-0.676428 1.84375,-1.21875 l 3.25,-3.21875 c 2.100935,-2.100935 2.100935,-5.492815 0,-7.59375 C 21.418283,24.543283 20.027167,24 18.65625,24 z"
       id="path7105-8" />
    <path
       id="rect4600-0-4"
       d="m 21.318451,24.000011 c 0,2.971172 -2.391954,5.363125 -5.363125,5.363125 l -4.592202,0 c -2.9711713,0 -5.363125,-2.391953 -5.363125,-5.363125 0,-2.971171 2.3919537,-5.363124 5.363125,-5.363124 l 4.592202,0 c 2.971171,0 5.363125,2.391953 5.363125,5.363124 z"
       style="color:#000000;fill:url(#linearGradient11794);fill-opacity:1;fill-rule:nonzero;stroke:none;stroke-width:0.50000000000000000;marker:none;visibility:visible;display:inline;overflow:visible;enable-background:accumulate"
       inkscape:connector-curvature="0" />
    <path
       inkscape:connector-curvature="0"
       style="opacity:0.2;color:#000000;fill:#000000;fill-opacity:1;fill-rule:nonzero;stroke:none;stroke-width:0.5;marker:none;visibility:visible;display:inline"
       d="m 11.15625,18.625007 c 0.146292,0.192211 0.293081,0.386831 0.46875,0.5625 l 8.34375,8.34375 c 0.83359,-0.944647 1.34375,-2.166559 1.34375,-3.53125 0,-2.971171 -2.372579,-5.375 -5.34375,-5.375 l -4.59375,0 c -0.07199,0 -0.147462,-0.0028 -0.21875,0 z"
       id="path11284-7" />
    <path
       inkscape:connector-curvature="0"
       style="color:#000000;fill:url(#linearGradient11802);fill-opacity:1;fill-rule:nonzero;stroke:none;stroke-width:0.50000000000000000;marker:none;visibility:visible;display:inline;overflow:visible;enable-background:accumulate"
       d="m 15.410609,10.005607 c -1.370917,0 -2.720479,0.54171 -3.770947,1.592177 -2.100936,2.100937 -2.100936,5.482859 0,7.583794 l 3.226255,3.226255 c 2.100935,2.100936 5.482857,2.100936 7.583793,0 0.358115,-0.358115 0.643858,-0.753282 0.879888,-1.173183 -2.610253,-0.36561 -4.608935,-2.565152 -4.608935,-5.279327 l 0,-4.608936 c 0,-0.05858 -0.0019,-0.109474 0,-0.167597 -0.969317,-0.761168 -2.143083,-1.173183 -3.310054,-1.173183 z"
       id="rect4600-1-5" />
    <path
       inkscape:connector-curvature="0"
       style="opacity:0.2;color:#000000;fill:#000000;fill-opacity:1;fill-rule:nonzero;stroke:none;stroke-width:0.5;marker:none;visibility:visible;display:inline"
       d="m 18.71875,15.96875 c 0,0.185698 0.013,0.35052 0.03125,0.53125 0.001,0.01029 -0.0011,0.02098 0,0.03125 0.0092,0.08603 0.04529,0.165953 0.0625,0.25 -0.04249,-0.272177 -0.09375,-0.527442 -0.09375,-0.8125 z M 19.3125,18.375 c 0.02402,0.04769 0.03711,0.109401 0.0625,0.15625 0.0068,0.01238 0.02436,0.01892 0.03125,0.03125 -0.03398,-0.06038 -0.0621,-0.125663 -0.09375,-0.1875 z M 19.5,18.71875 c 0.04096,0.08274 0.07168,0.170953 0.125,0.25 0.0155,0.02297 0.04666,0.03978 0.0625,0.0625 0.03474,0.0497 0.05739,0.107812 0.09375,0.15625 0.06157,0.08201 0.146512,0.144591 0.21875,0.21875 -0.188123,-0.218689 -0.349254,-0.439792 -0.5,-0.6875 z m 0.71875,0.9375 c 0.03602,0.03756 0.05666,0.0885 0.09375,0.125 0.01998,0.01978 0.04221,0.04303 0.0625,0.0625 l 2.3125,2.28125 c 0.242509,-0.281903 0.479228,-0.560074 0.65625,-0.875 -1.21412,-0.170058 -2.315095,-0.762911 -3.125,-1.59375 z"
       id="path10034-0" />
  </g>
  <g
     inkscape:groupmode="layer"
     id="layer4"
     inkscape:label="hilight">
    <path
       inkscape:connector-curvature="0"
       style="color:#000000;fill:url(#linearGradient12443);fill-opacity:1;fill-rule:nonzero;stroke:none;stroke-width:0.50000000000000000;marker:none;visibility:visible;display:inline;overflow:visible;enable-background:accumulate;opacity:0.4"
       d="M 2,0 C 0.892,0 0,0.892 0,2 l 0,44 c 0,1.108 0.892,2 2,2 l 44,0 c 1.108,0 2,-0.892 2,-2 L 48,2 C 48,0.892 47.108,0 46,0 L 2,0 z m 0,0.5 44,0 c 0.83101,0 1.5,0.6689904 1.5,1.5 l 0,44 c 0,0.83101 -0.66899,1.5 -1.5,1.5 l -44,0 C 1.1689904,47.5 0.5,46.83101 0.5,46 L 0.5,2 C 0.5,1.1689904 1.1689904,0.5 2,0.5 z"
       id="rect3006" />
  </g>
</svg>
