<?xml version="1.0" encoding="UTF-8" standalone="no"?>
<!-- Created with Inkscape (http://www.inkscape.org/) -->

<svg
   xmlns:dc="http://purl.org/dc/elements/1.1/"
   xmlns:cc="http://creativecommons.org/ns#"
   xmlns:rdf="http://www.w3.org/1999/02/22-rdf-syntax-ns#"
   xmlns:svg="http://www.w3.org/2000/svg"
   xmlns="http://www.w3.org/2000/svg"
   xmlns:xlink="http://www.w3.org/1999/xlink"
   xmlns:sodipodi="http://sodipodi.sourceforge.net/DTD/sodipodi-0.dtd"
   xmlns:inkscape="http://www.inkscape.org/namespaces/inkscape"
   sodipodi:docname="joystick.svg"
   inkscape:version="0.48.4 r9939"
   version="1.1"
   id="svg2"
   height="48"
   width="48">
  <sodipodi:namedview
     id="base"
     pagecolor="#424242"
     bordercolor="#666666"
     borderopacity="1.0"
     inkscape:pageopacity="1"
     inkscape:pageshadow="2"
     inkscape:zoom="11.313709"
     inkscape:cx="26.433767"
     inkscape:cy="47.486909"
     inkscape:document-units="px"
     inkscape:current-layer="layer2"
     showgrid="false"
     showborder="false"
     borderlayer="false"
     showguides="true"
     inkscape:guide-bbox="true"
     inkscape:window-width="1855"
     inkscape:window-height="1056"
     inkscape:window-x="65"
     inkscape:window-y="24"
     inkscape:window-maximized="1">
    <inkscape:grid
       spacingy="1px"
       spacingx="1px"
       snapvisiblegridlinesonly="true"
       enabled="true"
       visible="true"
       empspacing="5"
       id="grid3004"
       type="xygrid" />
  </sodipodi:namedview>
  <defs
     id="defs4">
    <linearGradient
       id="linearGradient5618">
      <stop
         id="stop5620"
         offset="0"
         style="stop-color:#ffffff;stop-opacity:1;" />
      <stop
         id="stop5622"
         offset="1"
         style="stop-color:#ebebeb;stop-opacity:1;" />
    </linearGradient>
    <linearGradient
       id="linearGradient3916">
      <stop
         id="stop3918"
         offset="0"
         style="stop-color:#c1c1c1;stop-opacity:1;" />
      <stop
         id="stop3920"
         offset="1"
         style="stop-color:#999999;stop-opacity:1;" />
    </linearGradient>
    <linearGradient
       id="linearGradient4452">
      <stop
         style="stop-color:#000000;stop-opacity:0.15853658;"
         offset="0"
         id="stop4454" />
      <stop
         style="stop-color:#000000;stop-opacity:0;"
         offset="1"
         id="stop4456" />
    </linearGradient>
    <linearGradient
       id="linearGradient4571">
      <stop
         id="stop4573"
         offset="0"
         style="stop-color:#ecf1f3;stop-opacity:1;" />
      <stop
         id="stop4575"
         offset="1"
         style="stop-color:#c5cacc;stop-opacity:1;" />
    </linearGradient>
    <linearGradient
       id="linearGradient4699"
       inkscape:collect="always">
      <stop
         id="stop4701"
         offset="0"
         style="stop-color:#19aeff;stop-opacity:1;" />
      <stop
         id="stop4703"
         offset="1"
         style="stop-color:#19aeff;stop-opacity:0;" />
    </linearGradient>
    <linearGradient
       id="linearGradient4691">
      <stop
         id="stop4693"
         offset="0"
         style="stop-color:#69caff;stop-opacity:1;" />
      <stop
         id="stop4695"
         offset="1"
         style="stop-color:#19aeff;stop-opacity:0;" />
    </linearGradient>
    <linearGradient
       id="linearGradient4665">
      <stop
         id="stop4667"
         offset="0"
         style="stop-color:#95dbff;stop-opacity:1;" />
      <stop
         id="stop4669"
         offset="1"
         style="stop-color:#006ba2;stop-opacity:1;" />
    </linearGradient>
    <linearGradient
       id="linearGradient4634">
      <stop
         id="stop4636"
         offset="0"
         style="stop-color:#000000;stop-opacity:0.38414633;" />
      <stop
         id="stop4638"
         offset="1"
         style="stop-color:#000000;stop-opacity:0;" />
    </linearGradient>
    <linearGradient
       gradientUnits="userSpaceOnUse"
       y2="28"
       x2="25"
       y1="3"
       x1="3"
       id="linearGradient3821-9"
       xlink:href="#linearGradient3815-5"
       inkscape:collect="always" />
    <linearGradient
       id="linearGradient3815-5"
       inkscape:collect="always">
      <stop
         id="stop3817-1"
         offset="0"
         style="stop-color:#ffffff;stop-opacity:1;" />
      <stop
         id="stop3819-9"
         offset="1"
         style="stop-color:#ffffff;stop-opacity:0;" />
    </linearGradient>
    <linearGradient
       gradientUnits="userSpaceOnUse"
       y2="1047.3622"
       x2="42.5"
       y1="1049.8622"
       x1="45"
       id="linearGradient4697"
       xlink:href="#linearGradient4691"
       inkscape:collect="always" />
    <linearGradient
       gradientUnits="userSpaceOnUse"
       y2="3"
       x2="27.5"
       y1="0.5"
       x1="27.5"
       id="linearGradient4705"
       xlink:href="#linearGradient4699"
       inkscape:collect="always" />
    <linearGradient
       gradientUnits="userSpaceOnUse"
       y2="1047.3622"
       x2="42.5"
       y1="1049.8622"
       x1="45"
       id="linearGradient4697-1"
       xlink:href="#linearGradient4691-0"
       inkscape:collect="always" />
    <linearGradient
       id="linearGradient4691-0"
       inkscape:collect="always">
      <stop
         id="stop4693-5"
         offset="0"
         style="stop-color:#19aeff;stop-opacity:1;" />
      <stop
         id="stop4695-5"
         offset="1"
         style="stop-color:#19aeff;stop-opacity:0;" />
    </linearGradient>
    <linearGradient
       inkscape:collect="always"
       xlink:href="#linearGradient4699-1"
       id="linearGradient12409"
       gradientUnits="userSpaceOnUse"
       x1="45"
       y1="1049.8622"
       x2="42.5"
       y2="1047.3622"
       gradientTransform="translate(0,-1004.3622)" />
    <linearGradient
       gradientUnits="userSpaceOnUse"
       y2="3"
       x2="27.5"
       y1="0.5"
       x1="27.5"
       id="linearGradient4705-1"
       xlink:href="#linearGradient4699-1"
       inkscape:collect="always" />
    <linearGradient
       id="linearGradient4699-1">
      <stop
         id="stop4701-3"
         offset="0"
         style="stop-color:#ffffff;stop-opacity:1;" />
      <stop
         id="stop4703-4"
         offset="1"
         style="stop-color:#ffffff;stop-opacity:0;" />
    </linearGradient>
    <linearGradient
       inkscape:collect="always"
       xlink:href="#linearGradient4699-1"
       id="linearGradient12443"
       gradientUnits="userSpaceOnUse"
       x1="27.5"
       y1="0.5"
       x2="27.5"
       y2="3" />
    <clipPath
       id="clipPath3856"
       clipPathUnits="userSpaceOnUse">
      <path
         inkscape:connector-curvature="0"
         id="path3858"
         d="m 27.84375,12.03125 -15.4375,15.4375 8.125,8.125 L 32.9375,48 46,48 c 1.108,0 2,-0.892 2,-2 l 0,-13.8125 -12.03125,-12.03125 -8.125,-8.125 z m 10.5625,2.4375 0,3.25 -1.625,1.625 L 48,30.5625 l 0,-6.5 -9.59375,-9.59375 z m -18.6875,21.9375 -8.9375,2.4375 -1.625,0 L 18.3125,48 l 13,0 -11.59375,-11.59375 z"
         style="opacity:0.3;fill:#000000;fill-opacity:1;stroke:none;display:inline" />
    </clipPath>
    <clipPath
       id="clipPath4492"
       clipPathUnits="userSpaceOnUse">
      <path
         id="path4494"
         d="m 28.28125,11 c -0.382978,-0.015 -0.701309,0.2118 -0.65625,0.625 l 0,0.9375 c 0.0028,0.107535 0.03337,0.206152 0.0625,0.28125 0.0077,0.0185 0.02221,0.04583 0.03125,0.0625 0.02417,0.04365 0.03048,0.09298 0.0625,0.125 l 0.09375,0.0625 1.6875,1.71875 c -0.09694,0.107303 -0.236384,0.234525 -0.40625,0.40625 l -2.28125,2.375 -6.4375,-6.4375 c -0.08266,-0.08266 -0.181553,-0.128868 -0.34375,-0.125 l -9.25,0 c -0.337919,-0.015 -0.585021,0.2799 -0.5625,0.625 l 0,1.03125 c -3.5e-4,0.08677 0.0032,0.174519 0.03125,0.25 0.02085,0.0575 0.05938,0.108056 0.09375,0.15625 0.01247,0.01766 0.0172,0.0463 0.03125,0.0625 0.0091,0.01035 0.02154,0.02154 0.03125,0.03125 l 0.15625,0.125 1.65625,1.65625 0,0.03125 0,21.53125 c -0.0083,0.0885 -0.01311,0.187768 0,0.25 0.0079,0.0311 0.01605,0.06838 0.03125,0.09375 0.01199,0.02047 0.01402,0.04527 0.03125,0.0625 L 23.40625,48 46,48 c 1.108,0 2,-0.892 2,-2 L 48,21.59375 37.65625,11.25 c -0.01519,-0.03494 -0.03721,-0.06556 -0.0625,-0.09375 -0.0095,-0.0095 -0.02057,-0.02275 -0.03125,-0.03125 -0.03337,-0.02893 -0.07961,-0.04528 -0.125,-0.0625 -0.0085,-0.0029 -0.02235,0.0024 -0.03125,0 -0.0577,-0.01753 -0.114282,-0.03502 -0.1875,-0.03125 L 28.28125,11 z"
         style="opacity:0.3;fill:#000000;fill-opacity:1;fill-rule:evenodd;stroke-width:0.25;display:inline"
         inkscape:connector-curvature="0" />
    </clipPath>
    <linearGradient
       gradientUnits="userSpaceOnUse"
       y2="1007.3218"
       x2="40.915409"
       y1="1049.3521"
       x1="40.915409"
       id="linearGradient6778"
       xlink:href="#linearGradient6772"
       inkscape:collect="always"
       gradientTransform="translate(7.7392578e-7,4.2609766e-5)" />
    <linearGradient
       id="linearGradient6772"
       inkscape:collect="always">
      <stop
         id="stop6774"
         offset="0"
         style="stop-color:#efe963;stop-opacity:1" />
      <stop
         id="stop6776"
         offset="1"
         style="stop-color:#fcf982;stop-opacity:1" />
    </linearGradient>
    <linearGradient
       y2="1007.3218"
       x2="40.915409"
       y1="1049.3521"
       x1="40.915409"
       gradientTransform="translate(-84.249997,-4.7499109)"
       gradientUnits="userSpaceOnUse"
       id="linearGradient3085"
       xlink:href="#linearGradient6772"
       inkscape:collect="always" />
    <clipPath
       clipPathUnits="userSpaceOnUse"
       id="clipPath4331">
      <path
         inkscape:connector-curvature="0"
         style="color:#000000;fill:#0e232e;fill-opacity:0.48709681;fill-rule:nonzero;stroke:none;stroke-width:0.5;marker:none;visibility:visible;display:inline"
         d="m 23.75,7.5625 c -3.451779,0 -6.25,2.7982 -6.25,6.25 l 0,4.6875 c 0,0.330092 0.136168,0.620764 0.34375,0.84375 0.01016,0.01092 0.02071,0.02071 0.03125,0.03125 L 20.96875,22.5 14.5,22.5 c -1.108,0 -2,0.892 -2,2 l 0,13.5 c 0,0.164967 0.02519,0.315591 0.0625,0.46875 0.0262,0.107537 0.05103,0.212656 0.09375,0.3125 0.03933,0.09214 0.104041,0.165705 0.15625,0.25 0.03201,0.05189 0.05727,0.107675 0.09375,0.15625 0.02233,0.02974 0.03857,0.06534 0.0625,0.09375 0.0417,0.04964 0.07872,0.110926 0.125,0.15625 0.04721,0.04594 0.104619,0.08384 0.15625,0.125 L 21.6875,48 46,48 c 1.108,0 2,-0.892 2,-2 L 48,29.25 28.4375,9.6875 C 28.344943,9.5817008 28.255631,9.4742937 28.15625,9.375 28.12092,9.339674 28.06741,9.315722 28.03125,9.28125 27.918981,9.1744958 27.807452,9.0669564 27.6875,8.96875 27.6578,8.944221 27.62391,8.930234 27.59375,8.90625 27.471947,8.81012 27.34765,8.7119582 27.21875,8.625 27.18719,8.603662 27.15696,8.58327 27.125,8.5625 26.990501,8.475245 26.860145,8.3893571 26.71875,8.3125 26.69063,8.297207 26.65338,8.296119 26.625,8.28125 26.494088,8.212761 26.35495,8.1529625 26.21875,8.09375 26.17651,8.075309 26.13647,8.048772 26.09375,8.03125 25.933803,7.965967 25.760065,7.8957447 25.59375,7.84375 25.57208,7.837004 25.553022,7.8190142 25.53125,7.8125 25.352378,7.7587466 25.185323,7.7251536 25,7.6875 24.9901,7.68547 24.97866,7.68948 24.96875,7.6875 24.77271,7.6487168 24.577293,7.6136138 24.375,7.59375 24.165984,7.5725195 23.964744,7.5625 23.75,7.5625 z"
         id="path4333" />
    </clipPath>
    <clipPath
       id="clipPath3071"
       clipPathUnits="userSpaceOnUse">
      <path
         inkscape:connector-curvature="0"
         style="opacity:0.25;color:#000000;fill:#000000;fill-opacity:1;fill-rule:nonzero;stroke:none;stroke-width:0.5;marker:none;visibility:visible;display:inline"
         d="m 24,6 c -3.313709,0 -6,2.6862912 -6,6 l 0,5 5,5 -9,0 c -1.108,0 -2,0.892 -2,2 l 0,14 c 0,0.421192 0.123088,0.803368 0.34375,1.125 0.07174,0.106367 0.159625,0.190875 0.25,0.28125 0.0056,0.0056 -0.0056,0.02572 0,0.03125 L 21.15625,48 46,48 c 1.108,0 2,-0.892 2,-2 L 48,27.5 28.25,7.75 C 27.164213,6.6642136 25.656854,6 24,6 z"
         id="path3073" />
    </clipPath>
    <linearGradient
       inkscape:collect="always"
       xlink:href="#linearGradient4452-1"
       id="linearGradient4458-2"
       x1="23"
       y1="1026.3622"
       x2="32.9375"
       y2="1026.3622"
       gradientUnits="userSpaceOnUse" />
    <linearGradient
       id="linearGradient4452-1">
      <stop
         style="stop-color:#000000;stop-opacity:0.15853658;"
         offset="0"
         id="stop4454-5" />
      <stop
         style="stop-color:#000000;stop-opacity:0;"
         offset="1"
         id="stop4456-0" />
    </linearGradient>
    <linearGradient
       gradientTransform="translate(0,-1004.3622)"
       y2="1026.3622"
       x2="32.9375"
       y1="1026.3622"
       x1="23"
       gradientUnits="userSpaceOnUse"
       id="linearGradient4475"
       xlink:href="#linearGradient4452-1"
       inkscape:collect="always" />
    <radialGradient
       gradientUnits="userSpaceOnUse"
       gradientTransform="matrix(1,0,0,0.0952381,0,38.904762)"
       r="21"
       fy="43"
       fx="24"
       cy="43"
       cx="24"
       id="radialGradient3914"
       xlink:href="#linearGradient4691"
       inkscape:collect="always" />
    <linearGradient
       gradientUnits="userSpaceOnUse"
       y2="1052.0516"
       x2="23.157747"
       y1="1004.7625"
       x1="23.157747"
       id="linearGradient3922-9"
       xlink:href="#linearGradient3916-6"
       inkscape:collect="always" />
    <linearGradient
       id="linearGradient3916-6">
      <stop
         id="stop3918-1"
         offset="0"
         style="stop-color:#c1c1c1;stop-opacity:1;" />
      <stop
         id="stop3920-7"
         offset="1"
         style="stop-color:#999999;stop-opacity:1;" />
    </linearGradient>
    <linearGradient
       gradientTransform="translate(-15.202796,5.0381358)"
       inkscape:collect="always"
       xlink:href="#linearGradient3916-6"
       id="linearGradient3939"
       gradientUnits="userSpaceOnUse"
       x1="23.157747"
       y1="1004.7625"
       x2="23.157747"
       y2="1052.0516" />
    <linearGradient
       inkscape:collect="always"
       xlink:href="#linearGradient4699-1-7"
       id="linearGradient12443-7"
       gradientUnits="userSpaceOnUse"
       x1="27.5"
       y1="0.5"
       x2="27.5"
       y2="3" />
    <linearGradient
       id="linearGradient4699-1-7">
      <stop
         id="stop4701-3-9"
         offset="0"
         style="stop-color:#000000;stop-opacity:1;" />
      <stop
         id="stop4703-4-8"
         offset="1"
         style="stop-color:#000000;stop-opacity:0;" />
    </linearGradient>
    <linearGradient
       inkscape:collect="always"
       xlink:href="#linearGradient4699-1-7"
       id="linearGradient3973"
       gradientUnits="userSpaceOnUse"
       x1="26.527729"
       y1="46.285164"
       x2="26.527729"
       y2="40.475986" />
    <filter
       height="3.0639999"
       y="-1.0319999"
       width="1.2116923"
       x="-0.10584615"
       id="filter3994-0"
       inkscape:collect="always"
       color-interpolation-filters="sRGB">
      <feGaussianBlur
         id="feGaussianBlur3996-9"
         stdDeviation="1.72"
         inkscape:collect="always" />
    </filter>
    <linearGradient
       gradientUnits="userSpaceOnUse"
       y2="1052.0516"
       x2="23.157747"
       y1="1004.7625"
       x1="23.157747"
       id="linearGradient3922-2"
       xlink:href="#linearGradient3916-9"
       inkscape:collect="always" />
    <linearGradient
       id="linearGradient3916-9">
      <stop
         id="stop3918-8"
         offset="0"
         style="stop-color:#c1c1c1;stop-opacity:1;" />
      <stop
         id="stop3920-6"
         offset="1"
         style="stop-color:#999999;stop-opacity:1;" />
    </linearGradient>
    <linearGradient
       inkscape:collect="always"
       xlink:href="#linearGradient3916-9"
       id="linearGradient4575"
       gradientUnits="userSpaceOnUse"
       x1="23.157747"
       y1="1004.7625"
       x2="23.157747"
       y2="1052.0516"
       gradientTransform="translate(0,-1004.3622)" />
    <linearGradient
       gradientUnits="userSpaceOnUse"
       y2="1052.0516"
       x2="23.157747"
       y1="1004.7625"
       x1="23.157747"
       id="linearGradient3922-5"
       xlink:href="#linearGradient3916-93"
       inkscape:collect="always" />
    <linearGradient
       id="linearGradient3916-93">
      <stop
         id="stop3918-10"
         offset="0"
         style="stop-color:#c1c1c1;stop-opacity:1;" />
      <stop
         id="stop3920-2"
         offset="1"
         style="stop-color:#999999;stop-opacity:1;" />
    </linearGradient>
    <linearGradient
       inkscape:collect="always"
       xlink:href="#linearGradient3916-93"
       id="linearGradient5579"
       gradientUnits="userSpaceOnUse"
       x1="23.157747"
       y1="1004.7625"
       x2="23.157747"
       y2="1052.0516"
       gradientTransform="translate(0,-1004.3622)" />
    <linearGradient
       id="linearGradient5618-7">
      <stop
         id="stop5620-5"
         offset="0"
         style="stop-color:#ffffff;stop-opacity:1;" />
      <stop
         id="stop5622-8"
         offset="1"
         style="stop-color:#ebebeb;stop-opacity:1;" />
    </linearGradient>
    <linearGradient
       inkscape:collect="always"
       xlink:href="#linearGradient5618-7"
       id="linearGradient5641"
       gradientUnits="userSpaceOnUse"
       x1="23.496599"
       y1="8.4946308"
       x2="23.496599"
       y2="22.624882"
       gradientTransform="translate(-9.9965996,-6)" />
    <linearGradient
       gradientUnits="userSpaceOnUse"
       y2="1052.0516"
       x2="23.157747"
       y1="1004.7625"
       x1="23.157747"
       id="linearGradient3922-1"
       xlink:href="#linearGradient3916-8"
       inkscape:collect="always" />
    <linearGradient
       id="linearGradient3916-8">
      <stop
         id="stop3918-0"
         offset="0"
         style="stop-color:#c1c1c1;stop-opacity:1;" />
      <stop
         id="stop3920-3"
         offset="1"
         style="stop-color:#999999;stop-opacity:1;" />
    </linearGradient>
    <linearGradient
       gradientTransform="translate(0,-1004.3622)"
       y2="1052.0516"
       x2="23.157747"
       y1="1004.7625"
       x1="23.157747"
       gradientUnits="userSpaceOnUse"
       id="linearGradient4705-0"
       xlink:href="#linearGradient3916-8"
       inkscape:collect="always" />
    <clipPath
       clipPathUnits="userSpaceOnUse"
       id="clipPath4783">
      <path
         inkscape:connector-curvature="0"
         style="opacity:0.25;fill:#000000;fill-opacity:1;display:inline"
         d="m 24,6 c -1.10699,0 -2,0.886755 -2,2 0,0.5073146 0.190935,0.98963 0.5,1.34375 0.01927,0.021756 0.0423,0.041623 0.0625,0.0625 0.01043,0.010911 0.02058,0.02058 0.03125,0.03125 l 0.59375,0.59375 0,8.3125 -3.75,-3.75 C 19.075874,14.225093 18.584744,14 18.03125,14 16.92426,14 16,14.886754 16,16 c 0,0.163363 0.02514,0.31485 0.0625,0.46875 0.0125,0.05159 0.01491,0.106232 0.03125,0.15625 0.03706,0.113087 0.101289,0.20905 0.15625,0.3125 0.02547,0.04873 0.03335,0.109968 0.0625,0.15625 0.0076,0.01191 0.02338,0.01952 0.03125,0.03125 0.07483,0.113253 0.15507,0.217225 0.25,0.3125 L 17.15625,18 c 0.02324,0.09188 0.04076,0.197008 0.0625,0.40625 0.05003,0.48157 0.212246,1.54311 0.59375,2.5 0.0669,0.170451 0.13515,0.341272 0.21875,0.5 0.0836,0.157606 0.18154,0.28998 0.28125,0.4375 0.203022,0.304784 0.418851,0.575102 0.6875,0.84375 l 0.46875,0.4375 0.125,0.125 3.3125,3.34375 c 0.0221,0.137232 0.03125,0.282419 0.03125,0.46875 0,0.200134 -0.03387,0.376675 -0.0625,0.5 -0.02863,0.123325 -0.07301,0.206982 -0.125,0.28125 -0.0535,0.07574 -0.116298,0.133433 -0.1875,0.1875 -0.06501,0.0477 -0.143331,0.102176 -0.21875,0.15625 -0.881839,0.544113 -1.46875,1.511758 -1.46875,2.625 l 0,0.03125 0,0.03125 c 0,0.85995 0.342592,1.655092 0.90625,2.21875 L 36.6875,48 46,48 c 1.108,0 2,-0.892 2,-2 L 48,27.1875 31.40625,10.59375 C 31.045407,10.231105 30.548204,10 30,10 c -0.341086,0 -0.659492,0.09772 -0.9375,0.25 L 25.6875,6.875 C 25.319427,6.3434202 24.691869,6 24,6 z"
         id="path4785" />
    </clipPath>
    <linearGradient
       gradientUnits="userSpaceOnUse"
       y2="1052.0516"
       x2="23.157747"
       y1="1004.7625"
       x1="23.157747"
       id="linearGradient3922-0"
       xlink:href="#linearGradient3916-3"
       inkscape:collect="always" />
    <linearGradient
       id="linearGradient3916-3">
      <stop
         id="stop3918-82"
         offset="0"
         style="stop-color:#c1c1c1;stop-opacity:1;" />
      <stop
         id="stop3920-62"
         offset="1"
         style="stop-color:#999999;stop-opacity:1;" />
    </linearGradient>
    <filter
       height="1.2571429"
       y="-0.12857143"
       width="1.225"
       x="-0.1125"
       id="filter4242"
       inkscape:collect="always">
      <feGaussianBlur
         id="feGaussianBlur4244"
         stdDeviation="1.125"
         inkscape:collect="always" />
    </filter>
    <clipPath
       id="clipPath4264"
       clipPathUnits="userSpaceOnUse">
      <path
         id="path4266"
         d="m 24,8 -12,15 2,2 -2,0 0,4 19,19 15,0 c 1.108,0 2,-0.892 2,-2 L 48,32 24,8 z"
         style="opacity:0.25;color:#000000;fill:#000000;fill-opacity:1;fill-rule:nonzero;stroke:none;stroke-width:1;marker:none;visibility:visible;display:inline"
         inkscape:connector-curvature="0" />
    </clipPath>
    <linearGradient
       id="linearGradient4046-3">
      <stop
         id="stop4048-7"
         style="stop-color:#000000;stop-opacity:1;"
         offset="0" />
      <stop
         id="stop4050-73"
         style="stop-color:#ffffff;stop-opacity:0.2"
         offset="1" />
    </linearGradient>
    <linearGradient
       inkscape:collect="always"
       xlink:href="#linearGradient4046-3"
       id="linearGradient4086-12"
       gradientUnits="userSpaceOnUse"
       x1="1764.6487"
       y1="155.59685"
       x2="1763.6903"
       y2="-55.941216" />
    <linearGradient
       id="linearGradient3737-9">
      <stop
         id="stop3739-7"
         style="stop-color:#ffffff;stop-opacity:1"
         offset="0" />
      <stop
         id="stop3741-4"
         style="stop-color:#ffffff;stop-opacity:0"
         offset="1" />
    </linearGradient>
    <linearGradient
       inkscape:collect="always"
       xlink:href="#linearGradient3737-9"
       id="linearGradient4084-8"
       gradientUnits="userSpaceOnUse"
       gradientTransform="translate(778.59979,-360.55963)"
       x1="993.43896"
       y1="51.511765"
       x2="988.78552"
       y2="363.73825" />
    <linearGradient
       y2="20.625916"
       x2="1006.8082"
       y1="484.41721"
       x1="1012.5133"
       gradientTransform="matrix(1.0074153,0,0,1.0074153,-810.48879,593.1369)"
       gradientUnits="userSpaceOnUse"
       id="linearGradient5342-3"
       xlink:href="#ButtonShadow-0-1-1-5-9"
       inkscape:collect="always" />
    <linearGradient
       inkscape:collect="always"
       xlink:href="#ButtonShadow-0-1-1-5-9"
       id="linearGradient4116-6-3"
       gradientUnits="userSpaceOnUse"
       gradientTransform="matrix(1.0148305,0,0,1.0148305,-816.68996,592.99723)"
       x1="1012.5133"
       y1="484.41721"
       x2="1006.8082"
       y2="20.625916" />
    <linearGradient
       inkscape:collect="always"
       xlink:href="#ButtonShadow-0-1-1-5-9"
       id="linearGradient4110-6-7"
       gradientUnits="userSpaceOnUse"
       gradientTransform="matrix(1.023305,0,0,1.023305,-823.77704,592.83757)"
       x1="1012.5133"
       y1="484.41721"
       x2="1006.8082"
       y2="20.625916" />
    <linearGradient
       inkscape:collect="always"
       xlink:href="#ButtonShadow-0-1-1-5-9"
       id="linearGradient4112-2-6"
       gradientUnits="userSpaceOnUse"
       gradientTransform="matrix(1.0402541,0,0,1.0402541,-837.95116,592.51825)"
       x1="1012.5133"
       y1="484.41721"
       x2="1006.8082"
       y2="20.625916" />
    <linearGradient
       x1="45.447727"
       y1="92.539597"
       x2="45.447727"
       y2="7.0165396"
       id="ButtonShadow-0-1-1-5-9"
       gradientUnits="userSpaceOnUse"
       gradientTransform="matrix(1.0058652,0,0,0.994169,100,0)">
      <stop
         id="stop3750-8-9-3-6-4"
         style="stop-color:#000000;stop-opacity:1"
         offset="0" />
      <stop
         id="stop3752-5-6-4-2-9"
         style="stop-color:#000000;stop-opacity:0.58823532"
         offset="1" />
    </linearGradient>
    <linearGradient
       inkscape:collect="always"
       xlink:href="#ButtonShadow-0-1-1-5-9"
       id="linearGradient4114-2-6"
       gradientUnits="userSpaceOnUse"
       gradientTransform="matrix(1.0317796,0,0,1.0317796,-830.86406,592.67791)"
       x1="1012.5133"
       y1="484.41721"
       x2="1006.8082"
       y2="20.625916" />
    <linearGradient
       x1="19.244999"
       y1="21.030804"
       x2="19.360001"
       gradientUnits="userSpaceOnUse"
       y2="44.984001"
       id="linearGradient2460">
      <stop
         offset="0"
         style="stop-color:#fafafa;stop-opacity:1;"
         id="stop3602" />
      <stop
         offset="1"
         style="stop-color:#f0f0f0;stop-opacity:1;"
         id="stop3604" />
    </linearGradient>
    <filter
       inkscape:collect="always"
       id="filter5262"
       x="-0.10248656"
       width="1.2049731"
       y="-0.14473268"
       height="1.2894654">
      <feGaussianBlur
         inkscape:collect="always"
         stdDeviation="1.3664854"
         id="feGaussianBlur5264" />
    </filter>
    <clipPath
       clipPathUnits="userSpaceOnUse"
       id="clipPath5284">
      <path
         inkscape:connector-curvature="0"
         style="opacity:0.25;fill:#000000;fill-opacity:1;display:inline"
         d="m 24,12.65625 c -7.53469,0 -7.83457,0.03235 -8.59375,0.15625 -1.69098,0.2759 -2.96688,0.8877 -4.125,2 -1.09897,1.0555 -1.8093,2.29585 -2.15625,3.78125 -0.08778,0.3758 -0.94597,9.39425 -1.09375,11.46875 -0.07,0.9825 -0.01218,2.12665 0.15625,2.78125 0.1659285,0.6449 0.4637306,1.18248 0.875,1.59375 L 22.625,48 46,48 c 1.108,0 2,-0.892 2,-2 l 0,-19.90625 -11.1875,-11.1875 -0.125,-0.125 C 35.52982,13.67825 34.28295,13.0881 32.59375,12.8125 31.83457,12.6843 31.5347,12.65625 24,12.65625 z"
         id="path5286" />
    </clipPath>
  </defs>
  <metadata
     id="metadata7">
    <rdf:RDF>
      <cc:Work
         rdf:about="">
        <dc:format>image/svg+xml</dc:format>
        <dc:type
           rdf:resource="http://purl.org/dc/dcmitype/StillImage" />
        <dc:title />
      </cc:Work>
    </rdf:RDF>
  </metadata>
  <g
     style="display:inline"
     transform="translate(0,-1004.3622)"
     id="layer1"
     inkscape:groupmode="layer"
     inkscape:label="base">
    <path
       inkscape:connector-curvature="0"
       style="color:#000000;fill:#009100;fill-opacity:1;fill-rule:nonzero;stroke:none;stroke-width:0.50000000000000000;marker:none;visibility:visible;display:inline;overflow:visible;enable-background:accumulate"
       d="m 2,1004.3622 44,0 c 1.108,0 2,0.892 2,2 l 0,44 c 0,1.108 -0.892,2 -2,2 l -44,0 c -1.108,0 -2,-0.892 -2,-2 l 0,-44 c 0,-1.108 0.892,-2 2,-2 z"
       id="rect3006-5" />
    <g
       transform="translate(141.57794,239.71923)"
       inkscape:label="Livello 1"
       id="layer1-0" />
    <g
       transform="matrix(1.1,0,0,0.44444,236.659,1036.474)"
       id="g2036">
      <g
         transform="matrix(1.0526,0,0,1.2857,-1.2632,-13.429)"
         style="opacity:0.4"
         id="g3712" />
    </g>
    <g
       id="g3541"
       transform="translate(239.059,1011.3629)" />
    <g
       id="g3536"
       transform="translate(239.059,1011.3629)" />
    <g
       transform="translate(-463.94138,426.11308)"
       id="g4076">
      <g
         id="g4038"
         transform="translate(-926.66758,684.38448)" />
    </g>
  </g>
  <g
     style="display:inline"
     inkscape:label="shadow"
     id="layer2"
     inkscape:groupmode="layer">
    <path
       style="opacity:0.25;fill:#000000;fill-opacity:1"
       d="M 24 12.65625 C 16.46531 12.65625 16.16543 12.6886 15.40625 12.8125 C 13.71527 13.0884 12.43937 13.7002 11.28125 14.8125 C 10.18228 15.868 9.47195 17.10835 9.125 18.59375 C 9.03722 18.96955 8.17903 27.988 8.03125 30.0625 C 7.96125 31.045 8.01907 32.18915 8.1875 32.84375 C 8.3534285 33.48865 8.6512306 34.02623 9.0625 34.4375 L 22.625 48 L 46 48 C 47.108 48 48 47.108 48 46 L 48 26.09375 L 36.8125 14.90625 L 36.6875 14.78125 C 35.52982 13.67825 34.28295 13.0881 32.59375 12.8125 C 31.83457 12.6843 31.5347 12.65625 24 12.65625 z "
       id="path4579" />
    <path
       inkscape:connector-curvature="0"
       id="path906"
       d=""
       style="fill:#000000" />
    <flowRoot
       transform="translate(-18.261517,-1007.8751)"
       style="font-size:40px;font-style:normal;font-weight:normal;line-height:125%;letter-spacing:0px;word-spacing:0px;fill:#000000;fill-opacity:1;stroke:none;font-family:sans-serif"
       id="flowRoot61"
       xml:space="preserve"><flowRegion
         id="flowRegion63"><rect
           y="6.6342559"
           x="-53.033005"
           height="49.320694"
           width="57.6292"
           id="rect65" /></flowRegion><flowPara
         id="flowPara67" /></flowRoot>    <path
       style="fill:#000000;fill-opacity:1;display:inline;filter:url(#filter5262);opacity:0.6"
       d="M 10.491427,35.2316 C 9.3224968,34.9214 8.5135468,34.0774 8.1937568,32.8345 c -0.16843,-0.6546 -0.23646,-1.786 -0.16646,-2.7685 0.14778,-2.0745 1.01411,-11.0862 1.10189,-11.462 0.34695,-1.4854 1.0591502,-2.737 2.1581202,-3.7925 1.15812,-1.1123 2.44044,-1.7371 4.13142,-2.013 0.75918,-0.1239 1.04672,-0.1282 8.58141,-0.1282 7.5347,0 7.82224,0 8.58142,0.1282 1.6892,0.2756 2.94323,0.8828 4.10091,1.9858 1.22945,1.1713 2.0573,2.734 2.27437,4.2931 0.0836,0.6004 0.92249,9.6671 1.01506,10.9705 0.0711,1.0012 0.004,2.1272 -0.16537,2.7866 -0.32342,1.257 -1.13564,2.0951 -2.32671,2.401 -0.75765,0.1945 -1.45206,0.092 -2.34538,-0.3447 -1.13167,-0.5539 -1.80919,-1.1758 -4.62205,-4.2427 l -2.30406,-2.5122 -4.20819,0 -4.20818,0 -2.30406,2.5122 c -2.81286,3.0669 -3.49038,3.6888 -4.62205,4.2427 -0.88903,0.4351 -1.62261,0.5404 -2.37442,0.3408 z m 7.06998,-10.849 c 1.47434,-0.3964 2.68998,-1.6339 3.07224,-3.1273 0.13966,-0.5457 0.13713,-1.5446 -0.005,-2.0832 -0.405,-1.5316 -1.60703,-2.7194 -3.15912,-3.1218 -0.49021,-0.1271 -1.53483,-0.1271 -2.02504,0 -1.55217,0.4024 -2.7549,1.591 -3.15891,3.1218 -0.14404,0.5458 -0.14741,1.5428 -0.007,2.0832 0.31682,1.2197 1.16705,2.2731 2.25743,2.797 0.32749,0.1573 0.75166,0.3164 0.94262,0.3536 0.19095,0.037 0.40399,0.081 0.47343,0.097 0.22632,0.052 1.25402,-0.024 1.60969,-0.1199 z m -1.98915,-1.1213 c -0.0163,-0.044 -0.0371,-0.5352 -0.046,-1.0907 l -0.0164,-1.01 -1.07312,-0.032 -1.07312,-0.032 -0.0177,-0.8472 c -0.0133,-0.6355 0.003,-0.8601 0.0631,-0.8986 0.0444,-0.028 0.54242,-0.052 1.1066,-0.052 l 1.02578,-0.001 0,-1.0289 c 0,-0.7161 0.023,-1.052 0.0757,-1.1047 0.10472,-0.1047 1.57441,-0.1047 1.67913,0 0.0527,0.053 0.0757,0.3886 0.0757,1.1047 l 0,1.0289 1.02577,0.001 c 0.56418,0 1.06215,0.024 1.1066,0.052 0.0606,0.039 0.0764,0.2631 0.0631,0.8986 l -0.0177,0.8472 -1.07312,0.032 -1.07312,0.032 -0.0316,1.0731 -0.0316,1.0731 -0.86926,0.018 c -0.66099,0.013 -0.87637,0 -0.89895,-0.063 z m 16.55822,0.6992 c 0.84264,-0.4079 0.87383,-1.6859 0.0529,-2.167 -0.37923,-0.2222 -0.90038,-0.2222 -1.27961,0 -0.81845,0.4796 -0.79041,1.7506 0.0478,2.1655 0.36108,0.1787 0.81173,0.1793 1.17894,0 z m -2.90669,-2.5264 c 0.62172,-0.1566 1.06693,-0.8849 0.90531,-1.4811 -0.15941,-0.588 -0.64327,-0.9702 -1.22828,-0.9702 -0.91942,0 -1.51385,0.9714 -1.10777,1.8102 0.1426,0.2946 0.38549,0.4993 0.74483,0.6277 0.28703,0.1025 0.32851,0.1034 0.68591,0.013 z m 5.62893,-0.1652 c 0.40504,-0.2488 0.58987,-0.6227 0.55932,-1.1318 -0.0194,-0.3228 -0.0576,-0.4345 -0.21608,-0.6312 -0.27353,-0.3397 -0.61953,-0.5208 -0.997,-0.5221 -1.13538,0 -1.68989,1.315 -0.88948,2.1154 0.44002,0.44 1.00234,0.5018 1.54324,0.1697 z m -2.61572,-2.6506 c 0.34748,-0.2442 0.53516,-0.5956 0.53646,-1.0044 0.002,-0.5621 -0.22973,-0.9334 -0.7249,-1.1627 -0.51584,-0.2388 -1.12771,-0.075 -1.50849,0.4034 -0.25812,0.3245 -0.30676,0.9046 -0.10845,1.2933 0.1431,0.2805 0.46113,0.5572 0.74487,0.6479 0.30477,0.098 0.78311,0.017 1.06051,-0.1775 z"
       id="path3753-8"
       inkscape:connector-curvature="0"
       clip-path="url(#clipPath5284)" />
    <rect
       style="opacity:1;color:#000000;fill:#009100;fill-opacity:1;fill-rule:nonzero;stroke:none;stroke-width:1;marker:none;visibility:visible;display:inline;overflow:visible;enable-background:accumulate"
       id="rect5238"
       width="24.8125"
       height="10.47875"
       x="11.75"
       y="15.33375" />
  </g>
  <g
     style="display:inline"
     inkscape:label="icon"
     id="layer3"
     inkscape:groupmode="layer">
    <path
       style="fill:#ffffff;fill-opacity:1;display:inline"
       d="M 10.491427,35.2316 C 9.3224968,34.9214 8.5135468,34.0774 8.1937568,32.8345 c -0.16843,-0.6546 -0.23646,-1.786 -0.16646,-2.7685 0.14778,-2.0745 1.01411,-11.0862 1.10189,-11.462 0.34695,-1.4854 1.0591502,-2.737 2.1581202,-3.7925 1.15812,-1.1123 2.44044,-1.7371 4.13142,-2.013 0.75918,-0.1239 1.04672,-0.1282 8.58141,-0.1282 7.5347,0 7.82224,0 8.58142,0.1282 1.6892,0.2756 2.94323,0.8828 4.10091,1.9858 1.22945,1.1713 2.0573,2.734 2.27437,4.2931 0.0836,0.6004 0.92249,9.6671 1.01506,10.9705 0.0711,1.0012 0.004,2.1272 -0.16537,2.7866 -0.32342,1.257 -1.13564,2.0951 -2.32671,2.401 -0.75765,0.1945 -1.45206,0.092 -2.34538,-0.3447 -1.13167,-0.5539 -1.80919,-1.1758 -4.62205,-4.2427 l -2.30406,-2.5122 -4.20819,0 -4.20818,0 -2.30406,2.5122 c -2.81286,3.0669 -3.49038,3.6888 -4.62205,4.2427 -0.88903,0.4351 -1.62261,0.5404 -2.37442,0.3408 z m 7.06998,-10.849 c 1.47434,-0.3964 2.68998,-1.6339 3.07224,-3.1273 0.13966,-0.5457 0.13713,-1.5446 -0.005,-2.0832 -0.405,-1.5316 -1.60703,-2.7194 -3.15912,-3.1218 -0.49021,-0.1271 -1.53483,-0.1271 -2.02504,0 -1.55217,0.4024 -2.7549,1.591 -3.15891,3.1218 -0.14404,0.5458 -0.14741,1.5428 -0.007,2.0832 0.31682,1.2197 1.16705,2.2731 2.25743,2.797 0.32749,0.1573 0.75166,0.3164 0.94262,0.3536 0.19095,0.037 0.40399,0.081 0.47343,0.097 0.22632,0.052 1.25402,-0.024 1.60969,-0.1199 z m -1.98915,-1.1213 c -0.0163,-0.044 -0.0371,-0.5352 -0.046,-1.0907 l -0.0164,-1.01 -1.07312,-0.032 -1.07312,-0.032 -0.0177,-0.8472 c -0.0133,-0.6355 0.003,-0.8601 0.0631,-0.8986 0.0444,-0.028 0.54242,-0.052 1.1066,-0.052 l 1.02578,-0.001 0,-1.0289 c 0,-0.7161 0.023,-1.052 0.0757,-1.1047 0.10472,-0.1047 1.57441,-0.1047 1.67913,0 0.0527,0.053 0.0757,0.3886 0.0757,1.1047 l 0,1.0289 1.02577,0.001 c 0.56418,0 1.06215,0.024 1.1066,0.052 0.0606,0.039 0.0764,0.2631 0.0631,0.8986 l -0.0177,0.8472 -1.07312,0.032 -1.07312,0.032 -0.0316,1.0731 -0.0316,1.0731 -0.86926,0.018 c -0.66099,0.013 -0.87637,0 -0.89895,-0.063 z m 16.55822,0.6992 c 0.84264,-0.4079 0.87383,-1.6859 0.0529,-2.167 -0.37923,-0.2222 -0.90038,-0.2222 -1.27961,0 -0.81845,0.4796 -0.79041,1.7506 0.0478,2.1655 0.36108,0.1787 0.81173,0.1793 1.17894,0 z m -2.90669,-2.5264 c 0.62172,-0.1566 1.06693,-0.8849 0.90531,-1.4811 -0.15941,-0.588 -0.64327,-0.9702 -1.22828,-0.9702 -0.91942,0 -1.51385,0.9714 -1.10777,1.8102 0.1426,0.2946 0.38549,0.4993 0.74483,0.6277 0.28703,0.1025 0.32851,0.1034 0.68591,0.013 z m 5.62893,-0.1652 c 0.40504,-0.2488 0.58987,-0.6227 0.55932,-1.1318 -0.0194,-0.3228 -0.0576,-0.4345 -0.21608,-0.6312 -0.27353,-0.3397 -0.61953,-0.5208 -0.997,-0.5221 -1.13538,0 -1.68989,1.315 -0.88948,2.1154 0.44002,0.44 1.00234,0.5018 1.54324,0.1697 z m -2.61572,-2.6506 c 0.34748,-0.2442 0.53516,-0.5956 0.53646,-1.0044 0.002,-0.5621 -0.22973,-0.9334 -0.7249,-1.1627 -0.51584,-0.2388 -1.12771,-0.075 -1.50849,0.4034 -0.25812,0.3245 -0.30676,0.9046 -0.10845,1.2933 0.1431,0.2805 0.46113,0.5572 0.74487,0.6479 0.30477,0.098 0.78311,0.017 1.06051,-0.1775 z"
       id="path3753"
       inkscape:connector-curvature="0" />
  </g>
  <g
     inkscape:label="hilight"
     id="layer4"
     inkscape:groupmode="layer"
     sodipodi:insensitive="true"
     style="display:inline">
    <path
       id="rect3006"
       d="M 2,0 C 0.892,0 0,0.892 0,2 l 0,44 c 0,1.108 0.892,2 2,2 l 44,0 c 1.108,0 2,-0.892 2,-2 L 48,2 C 48,0.892 47.108,0 46,0 L 2,0 z m 0,0.5 44,0 c 0.83101,0 1.5,0.6689904 1.5,1.5 l 0,44 c 0,0.83101 -0.66899,1.5 -1.5,1.5 l -44,0 C 1.1689904,47.5 0.5,46.83101 0.5,46 L 0.5,2 C 0.5,1.1689904 1.1689904,0.5 2,0.5 z"
       style="opacity:0.4;color:#000000;fill:url(#linearGradient12443);fill-opacity:1;fill-rule:nonzero;stroke:none;stroke-width:0.5;marker:none;visibility:visible;display:inline;overflow:visible;enable-background:accumulate"
       inkscape:connector-curvature="0" />
    <path
       id="rect3006-6"
       d="M 2,0 C 0.892,0 0,0.892 0,2 l 0,44 c 0,1.108 0.892,2 2,2 l 44,0 c 1.108,0 2,-0.892 2,-2 L 48,2 C 48,0.892 47.108,0 46,0 L 2,0 z m 0,0.5 44,0 c 0.83101,0 1.5,0.6689904 1.5,1.5 l 0,44 c 0,0.83101 -0.66899,1.5 -1.5,1.5 l -44,0 C 1.1689904,47.5 0.5,46.83101 0.5,46 L 0.5,2 C 0.5,1.1689904 1.1689904,0.5 2,0.5 z"
       style="opacity:0.4;color:#000000;fill:url(#linearGradient3973);fill-opacity:1;fill-rule:nonzero;stroke:none;stroke-width:0.5;marker:none;visibility:visible;display:inline;overflow:visible;enable-background:accumulate"
       inkscape:connector-curvature="0" />
  </g>
</svg>
