<?xml version="1.0" encoding="UTF-8" standalone="no"?>
<!-- Created with Inkscape (http://www.inkscape.org/) -->

<svg
   xmlns:dc="http://purl.org/dc/elements/1.1/"
   xmlns:cc="http://creativecommons.org/ns#"
   xmlns:rdf="http://www.w3.org/1999/02/22-rdf-syntax-ns#"
   xmlns:svg="http://www.w3.org/2000/svg"
   xmlns="http://www.w3.org/2000/svg"
   xmlns:xlink="http://www.w3.org/1999/xlink"
   xmlns:sodipodi="http://sodipodi.sourceforge.net/DTD/sodipodi-0.dtd"
   xmlns:inkscape="http://www.inkscape.org/namespaces/inkscape"
   sodipodi:docname="libreoffice-writer.svg"
   inkscape:version="0.48.4 r9939"
   version="1.1"
   id="svg2"
   height="48"
   width="48">
  <sodipodi:namedview
     id="base"
     pagecolor="#424242"
     bordercolor="#666666"
     borderopacity="1.0"
     inkscape:pageopacity="1"
     inkscape:pageshadow="2"
     inkscape:zoom="22.627416"
     inkscape:cx="31.874834"
     inkscape:cy="16.95634"
     inkscape:document-units="px"
     inkscape:current-layer="layer3"
     showgrid="true"
     showborder="false"
     borderlayer="false"
     showguides="true"
     inkscape:guide-bbox="true"
     inkscape:window-width="1855"
     inkscape:window-height="1056"
     inkscape:window-x="65"
     inkscape:window-y="24"
     inkscape:window-maximized="1">
    <inkscape:grid
       spacingy="0.5px"
       spacingx="0.5px"
       snapvisiblegridlinesonly="true"
       enabled="true"
       visible="true"
       empspacing="5"
       id="grid3004"
       type="xygrid" />
  </sodipodi:namedview>
  <defs
     id="defs4">
    <linearGradient
       id="linearGradient4699"
       inkscape:collect="always">
      <stop
         id="stop4701"
         offset="0"
         style="stop-color:#19aeff;stop-opacity:1;" />
      <stop
         id="stop4703"
         offset="1"
         style="stop-color:#19aeff;stop-opacity:0;" />
    </linearGradient>
    <linearGradient
       id="linearGradient4691"
       inkscape:collect="always">
      <stop
         id="stop4693"
         offset="0"
         style="stop-color:#19aeff;stop-opacity:1;" />
      <stop
         id="stop4695"
         offset="1"
         style="stop-color:#19aeff;stop-opacity:0;" />
    </linearGradient>
    <linearGradient
       id="linearGradient4665">
      <stop
         id="stop4667"
         offset="0"
         style="stop-color:#95dbff;stop-opacity:1;" />
      <stop
         id="stop4669"
         offset="1"
         style="stop-color:#006ba2;stop-opacity:1;" />
    </linearGradient>
    <linearGradient
       id="linearGradient4634">
      <stop
         id="stop4636"
         offset="0"
         style="stop-color:#000000;stop-opacity:0.38414633;" />
      <stop
         id="stop4638"
         offset="1"
         style="stop-color:#000000;stop-opacity:0;" />
    </linearGradient>
    <linearGradient
       gradientUnits="userSpaceOnUse"
       y2="28"
       x2="25"
       y1="3"
       x1="3"
       id="linearGradient3821-9"
       xlink:href="#linearGradient3815-5"
       inkscape:collect="always" />
    <linearGradient
       id="linearGradient3815-5"
       inkscape:collect="always">
      <stop
         id="stop3817-1"
         offset="0"
         style="stop-color:#ffffff;stop-opacity:1;" />
      <stop
         id="stop3819-9"
         offset="1"
         style="stop-color:#ffffff;stop-opacity:0;" />
    </linearGradient>
    <linearGradient
       gradientUnits="userSpaceOnUse"
       y2="1047.3622"
       x2="42.5"
       y1="1049.8622"
       x1="45"
       id="linearGradient4697"
       xlink:href="#linearGradient4691"
       inkscape:collect="always" />
    <linearGradient
       gradientUnits="userSpaceOnUse"
       y2="3"
       x2="27.5"
       y1="0.5"
       x1="27.5"
       id="linearGradient4705"
       xlink:href="#linearGradient4699"
       inkscape:collect="always" />
    <linearGradient
       gradientUnits="userSpaceOnUse"
       y2="1047.3622"
       x2="42.5"
       y1="1049.8622"
       x1="45"
       id="linearGradient4697-1"
       xlink:href="#linearGradient4691-0"
       inkscape:collect="always" />
    <linearGradient
       id="linearGradient4691-0"
       inkscape:collect="always">
      <stop
         id="stop4693-5"
         offset="0"
         style="stop-color:#19aeff;stop-opacity:1;" />
      <stop
         id="stop4695-5"
         offset="1"
         style="stop-color:#19aeff;stop-opacity:0;" />
    </linearGradient>
    <linearGradient
       inkscape:collect="always"
       xlink:href="#linearGradient4699-1"
       id="linearGradient12409"
       gradientUnits="userSpaceOnUse"
       x1="45"
       y1="1049.8622"
       x2="42.5"
       y2="1047.3622"
       gradientTransform="translate(0,-1004.3622)" />
    <linearGradient
       gradientUnits="userSpaceOnUse"
       y2="3"
       x2="27.5"
       y1="0.5"
       x1="27.5"
       id="linearGradient4705-1"
       xlink:href="#linearGradient4699-1"
       inkscape:collect="always" />
    <linearGradient
       id="linearGradient4699-1">
      <stop
         id="stop4701-3"
         offset="0"
         style="stop-color:#ffffff;stop-opacity:1;" />
      <stop
         id="stop4703-4"
         offset="1"
         style="stop-color:#ffffff;stop-opacity:0;" />
    </linearGradient>
    <linearGradient
       inkscape:collect="always"
       xlink:href="#linearGradient4699-1"
       id="linearGradient12443"
       gradientUnits="userSpaceOnUse"
       x1="27.5"
       y1="0.5"
       x2="27.5"
       y2="3" />
    <clipPath
       id="clipPath3856"
       clipPathUnits="userSpaceOnUse">
      <path
         inkscape:connector-curvature="0"
         id="path3858"
         d="m 27.84375,12.03125 -15.4375,15.4375 8.125,8.125 L 32.9375,48 46,48 c 1.108,0 2,-0.892 2,-2 l 0,-13.8125 -12.03125,-12.03125 -8.125,-8.125 z m 10.5625,2.4375 0,3.25 -1.625,1.625 L 48,30.5625 l 0,-6.5 -9.59375,-9.59375 z m -18.6875,21.9375 -8.9375,2.4375 -1.625,0 L 18.3125,48 l 13,0 -11.59375,-11.59375 z"
         style="opacity:0.3;fill:#000000;fill-opacity:1;stroke:none;display:inline" />
    </clipPath>
    <radialGradient
       cx="148.004"
       cy="160"
       gradientTransform="matrix(0.1831,0,0,0.1831,-3.10029,-5.29688)"
       id="radial0"
       r="128"
       gradientUnits="userSpaceOnUse">
      <stop
         offset="0"
         style="stop-color:#b0cee7"
         id="stop3047" />
      <stop
         offset="1"
         style="stop-color:#205582"
         id="stop3049" />
    </radialGradient>
    <filter
       inkscape:collect="always"
       id="filter6624"
       x="-0.13304348"
       width="1.266087"
       y="-0.10928571"
       height="1.2185714">
      <feGaussianBlur
         inkscape:collect="always"
         stdDeviation="1.275"
         id="feGaussianBlur6626" />
    </filter>
    <clipPath
       clipPathUnits="userSpaceOnUse"
       id="clipPath6628">
      <path
         inkscape:connector-curvature="0"
         style="opacity:0.25;color:#000000;fill:#000000;fill-opacity:1;fill-rule:nonzero;stroke:none;stroke-width:0.5;marker:none;visibility:visible;display:inline;overflow:visible;enable-background:accumulate"
         d="m 12,10 0,28 10,10 24,0 c 1.108,0 2,-0.892 2,-2 L 48,34.5 23.5,10 12,10 z M 26.5,10 48,31.5 48,23 35,10 26.5,10 z"
         id="path6630" />
    </clipPath>
  </defs>
  <metadata
     id="metadata7">
    <rdf:RDF>
      <cc:Work
         rdf:about="">
        <dc:format>image/svg+xml</dc:format>
        <dc:type
           rdf:resource="http://purl.org/dc/dcmitype/StillImage" />
        <dc:title />
      </cc:Work>
    </rdf:RDF>
  </metadata>
  <g
     style="display:inline"
     transform="translate(0,-1004.3622)"
     id="layer1"
     inkscape:groupmode="layer"
     inkscape:label="base">
    <rect
       ry="2"
       y="1004.3622"
       x="0"
       height="48"
       width="48"
       id="rect3006-5"
       style="color:#000000;fill:#0084c8;fill-opacity:1;fill-rule:nonzero;stroke:none;stroke-width:0.5;marker:none;visibility:visible;display:inline;overflow:visible;enable-background:accumulate" />
  </g>
  <g
     style="display:inline"
     inkscape:label="shadow"
     id="layer2"
     inkscape:groupmode="layer">
    <path
       style="color:#000000;fill:#000000;fill-opacity:1;fill-rule:nonzero;stroke:none;stroke-width:0.50000000000000000;marker:none;visibility:visible;display:inline;overflow:visible;enable-background:accumulate;opacity:0.25"
       d="M 12 10 L 12 38 L 22 48 L 46 48 C 47.108 48 48 47.108 48 46 L 48 34.5 L 23.5 10 L 12 10 z M 26.5 10 L 48 31.5 L 48 23 L 35 10 L 26.5 10 z "
       id="rect3006-5-3" />
    <path
       inkscape:connector-curvature="0"
       style="color:#000000;fill:#000000;fill-opacity:1;fill-rule:nonzero;stroke:none;stroke-width:1;marker:none;visibility:visible;display:inline;overflow:visible;enable-background:accumulate;filter:url(#filter6624);opacity:0.4"
       d="M 12,10 12,38 35,38 35,21.5 23.5,10 z M 26.5,10 35,18.5 35,10 z M 14,12 22.5,12 33,22.5 33,36 14,36 z"
       id="rect5009-1"
       sodipodi:nodetypes="cccccccccccccccc"
       clip-path="url(#clipPath6628)" />
  </g>
  <g
     style="display:inline"
     inkscape:label="icon"
     id="layer3"
     inkscape:groupmode="layer">
    <path
       style="color:#000000;fill:#19aeff;fill-opacity:1;fill-rule:nonzero;stroke:none;stroke-width:1;marker:none;visibility:visible;display:inline;overflow:visible;enable-background:accumulate"
       d="M 12,10 12,38 35,38 35,21.5 23.5,10 z"
       id="path6300"
       inkscape:connector-curvature="0" />
    <path
       id="path3063-5"
       d="m 19.304582,17.543332 c -0.425833,1.073333 -0.84875,2.146666 -1.274583,3.22 l 2.552083,0 z m -0.530833,-0.863334 1.064583,0 c 0.880834,2.158334 1.761667,4.316667 2.645417,6.475 l -0.977084,0 c -0.21,-0.554166 -0.42,-1.108333 -0.632916,-1.6625 l -3.126667,0 c -0.21,0.554167 -0.42,1.108334 -0.632917,1.6625 l -0.988749,0 c 0.88375,-2.158333 1.764583,-4.316666 2.648333,-6.475 z m 7.046667,4.033751 c -0.545417,0.02041 -1.18125,-0.0175 -1.612918,0.35 -0.440416,0.472499 -0.221666,1.370833 0.481251,1.502082 0.685416,0.180834 1.4875,-0.122499 1.77625,-0.746666 0.160417,-0.32375 0.265417,-0.79625 0.177916,-1.105416 z m 1.703333,-0.329583 0,2.770832 -0.854583,0 0,-0.737916 c -0.352917,0.595 -1.087917,0.8925 -1.796667,0.863333 -0.755417,0.04084 -1.5575,-0.4025 -1.6975,-1.12875 -0.180834,-0.697083 0.105,-1.551667 0.869166,-1.82875 0.828334,-0.335416 1.747084,-0.21 2.625001,-0.233333 0.06125,-0.519167 -0.306251,-1.035416 -0.854584,-1.157917 -0.772917,-0.177916 -1.61,-0.02625 -2.304166,0.32375 0,-0.245 0,-0.49 0,-0.737916 0.959583,-0.338334 2.097082,-0.522084 3.053749,-0.07875 0.755417,0.367499 0.968334,1.213333 0.959584,1.945417 z"
       inkscape:connector-curvature="0"
       style="fill:#ffffff;display:inline" />
    <path
       inkscape:connector-curvature="0"
       style="color:#000000;fill:#ffffff;fill-opacity:1;fill-rule:nonzero;stroke:none;stroke-width:1;marker:none;visibility:visible;display:inline;overflow:visible;enable-background:accumulate"
       d="M 12,10 12,38 35,38 35,21.5 23.5,10 z M 26.5,10 35,18.5 35,10 z M 14,12 22.5,12 33,22.5 33,36 14,36 z"
       id="rect5009"
       sodipodi:nodetypes="cccccccccccccccc" />
    <g
       style="display:inline"
       id="g5312">
      <path
         style="fill:#ffffff;fill-opacity:0.6;display:inline"
         inkscape:connector-curvature="0"
         d="m 16.125416,25.319165 1.510833,0 0,0.600834 -1.510833,0 z"
         id="path3067-9" />
      <path
         style="fill:#ffffff;fill-opacity:0.6;display:inline"
         inkscape:connector-curvature="0"
         d="m 17.843332,25.319165 1.423333,0 0,0.600834 -1.423333,0 z"
         id="path3069-3" />
      <path
         style="fill:#ffffff;fill-opacity:0.6;display:inline"
         inkscape:connector-curvature="0"
         d="m 19.473749,25.319165 1.254166,0 0,0.600834 -1.254166,0 z"
         id="path3071-1" />
      <path
         style="fill:#ffffff;fill-opacity:0.6;display:inline"
         inkscape:connector-curvature="0"
         d="m 20.934999,25.319165 0.548333,0 0,0.600834 -0.548333,0 z"
         id="path3073-9" />
      <path
         style="fill:#ffffff;fill-opacity:0.6;display:inline"
         inkscape:connector-curvature="0"
         d="m 21.690416,25.319165 1.233749,0 0,0.600834 -1.233749,0 z"
         id="path3075-6" />
      <path
         style="fill:#ffffff;fill-opacity:0.6;display:inline"
         inkscape:connector-curvature="0"
         d="m 23.131249,25.319165 3.19375,0 0,0.600834 -3.19375,0 z"
         id="path3077-3" />
      <path
         style="fill:#ffffff;fill-opacity:0.6;display:inline"
         inkscape:connector-curvature="0"
         d="m 16.125416,28.921248 1.510833,0 0,0.597917 -1.510833,0 z"
         id="path3079-2" />
      <path
         style="fill:#ffffff;fill-opacity:0.6;display:inline"
         inkscape:connector-curvature="0"
         d="m 17.843332,28.921248 1.423333,0 0,0.597917 -1.423333,0 z"
         id="path3081-5" />
      <path
         style="fill:#ffffff;fill-opacity:0.6;display:inline"
         inkscape:connector-curvature="0"
         d="m 19.473749,28.921248 1.254166,0 0,0.597917 -1.254166,0 z"
         id="path3083-9" />
      <path
         style="fill:#ffffff;fill-opacity:0.6;display:inline"
         inkscape:connector-curvature="0"
         d="m 20.934999,28.921248 0.548333,0 0,0.597917 -0.548333,0 z"
         id="path3085-8" />
      <path
         style="fill:#ffffff;fill-opacity:0.6;display:inline"
         inkscape:connector-curvature="0"
         d="m 21.690416,28.921248 1.233749,0 0,0.597917 -1.233749,0 z"
         id="path3087-4" />
      <path
         style="fill:#ffffff;fill-opacity:0.6;display:inline"
         inkscape:connector-curvature="0"
         d="m 23.131249,28.921248 3.19375,0 0,0.597917 -3.19375,0 z"
         id="path3089-0" />
      <path
         style="fill:#ffffff;fill-opacity:0.6;display:inline"
         inkscape:connector-curvature="0"
         d="m 16.125416,26.520832 2.277916,0 0,0.597917 -2.277916,0 z"
         id="path3091-7" />
      <path
         style="fill:#ffffff;fill-opacity:0.6;display:inline"
         inkscape:connector-curvature="0"
         d="m 18.610416,26.520832 1.093749,0 0,0.597917 -1.093749,0 z"
         id="path3093-8" />
      <path
         style="fill:#ffffff;fill-opacity:0.6;display:inline"
         inkscape:connector-curvature="0"
         d="m 19.914165,26.520832 0.513333,0 0,0.597917 -0.513333,0 z"
         id="path3095-5" />
      <path
         style="fill:#ffffff;fill-opacity:0.6;display:inline"
         inkscape:connector-curvature="0"
         d="m 20.634582,26.520832 0.991667,0 0,0.597917 -0.991667,0 z"
         id="path3097-3" />
      <path
         style="fill:#ffffff;fill-opacity:0.6;display:inline"
         inkscape:connector-curvature="0"
         d="m 21.833332,26.520832 0.991667,0 0,0.597917 -0.991667,0 z"
         id="path3099-7" />
      <path
         style="fill:#ffffff;fill-opacity:0.6;display:inline"
         inkscape:connector-curvature="0"
         d="m 23.034999,26.520832 1.592499,0 0,0.597917 -1.592499,0 z"
         id="path3101-4" />
      <path
         style="fill:#ffffff;fill-opacity:0.6;display:inline"
         inkscape:connector-curvature="0"
         d="m 24.834582,26.520832 2.09125,0 0,0.597917 -2.09125,0 z"
         id="path3103-6" />
      <path
         style="fill:#ffffff;fill-opacity:0.6;display:inline"
         inkscape:connector-curvature="0"
         d="m 16.125416,27.719582 2.66,0 0,0.600833 -2.66,0 z"
         id="path3105-4" />
      <path
         style="fill:#ffffff;fill-opacity:0.6;display:inline"
         inkscape:connector-curvature="0"
         d="m 18.992499,27.719582 2.8525,0 0,0.600833 -2.8525,0 z"
         id="path3107-4" />
      <path
         style="fill:#ffffff;fill-opacity:0.6;display:inline"
         inkscape:connector-curvature="0"
         d="m 22.052082,27.719582 1.1375,0 0,0.600833 -1.1375,0 z"
         id="path3109-9" />
      <path
         style="fill:#ffffff;fill-opacity:0.6;display:inline"
         inkscape:connector-curvature="0"
         d="m 23.399582,27.719582 2.680417,0 0,0.600833 -2.680417,0 z"
         id="path3111-2" />
      <path
         style="fill:#ffffff;fill-opacity:0.6;display:inline"
         inkscape:connector-curvature="0"
         d="m 26.289999,27.719582 1.834583,0 0,0.600833 -1.834583,0 z"
         id="path3113-5" />
      <path
         style="fill:#ffffff;fill-opacity:0.6;display:inline"
         inkscape:connector-curvature="0"
         d="m 16.125416,32.520415 2.66,0 0,0.600833 -2.66,0 z"
         id="path3115-0" />
      <path
         style="fill:#ffffff;fill-opacity:0.6;display:inline"
         inkscape:connector-curvature="0"
         d="m 18.992499,32.520415 2.8525,0 0,0.600833 -2.8525,0 z"
         id="path3117-5" />
      <path
         style="fill:#ffffff;fill-opacity:0.6;display:inline"
         inkscape:connector-curvature="0"
         d="m 22.052082,32.520415 1.1375,0 0,0.600833 -1.1375,0 z"
         id="path3119-5" />
      <path
         style="fill:#ffffff;fill-opacity:0.6;display:inline"
         inkscape:connector-curvature="0"
         d="m 23.399582,32.520415 2.680417,0 0,0.600833 -2.680417,0 z"
         id="path3121-9" />
      <path
         style="fill:#ffffff;fill-opacity:0.6;display:inline"
         inkscape:connector-curvature="0"
         d="m 26.289999,32.520415 1.834583,0 0,0.600833 -1.834583,0 z"
         id="path3123-8" />
      <path
         style="fill:#ffffff;fill-opacity:0.6;display:inline"
         inkscape:connector-curvature="0"
         d="m 16.125416,30.119999 1.875416,0 0,0.600833 -1.875416,0 z"
         id="path3125-8" />
      <path
         style="fill:#ffffff;fill-opacity:0.6;display:inline"
         inkscape:connector-curvature="0"
         d="m 18.199166,30.119999 3.114999,0 0,0.600833 -3.114999,0 z"
         id="path3127-6" />
      <path
         style="fill:#ffffff;fill-opacity:0.6;display:inline"
         inkscape:connector-curvature="0"
         d="m 21.512499,30.119999 1.504999,0 0,0.600833 -1.504999,0 z"
         id="path3129-9" />
      <path
         style="fill:#ffffff;fill-opacity:0.6;display:inline"
         inkscape:connector-curvature="0"
         d="m 24.814165,30.119999 1.195834,0 0,0.600833 -1.195834,0 z"
         id="path3131-1" />
      <path
         style="fill:#ffffff;fill-opacity:0.6;display:inline"
         inkscape:connector-curvature="0"
         d="m 26.208332,30.119999 1.91625,0 0,0.600833 -1.91625,0 z"
         id="path3133-8" />
      <path
         style="fill:#ffffff;fill-opacity:0.6;display:inline"
         inkscape:connector-curvature="0"
         d="m 23.215832,30.119999 1.4,0 0,0.600833 -1.4,0 z"
         id="path3135-0" />
      <path
         style="fill:#ffffff;fill-opacity:0.6;display:inline"
         inkscape:connector-curvature="0"
         d="m 16.125416,31.318749 2.473333,0 0,0.600833 -2.473333,0 z"
         id="path3137-7" />
      <path
         style="fill:#ffffff;fill-opacity:0.6;display:inline"
         inkscape:connector-curvature="0"
         d="m 18.802915,31.318749 0.77875,0 0,0.600833 -0.77875,0 z"
         id="path3139-3" />
      <path
         style="fill:#ffffff;fill-opacity:0.6;display:inline"
         inkscape:connector-curvature="0"
         d="m 19.782915,31.318749 1.779167,0 0,0.600833 -1.779167,0 z"
         id="path3141-2" />
      <path
         style="fill:#ffffff;fill-opacity:0.6;display:inline"
         inkscape:connector-curvature="0"
         d="m 21.766249,31.318749 1.213333,0 0,0.600833 -1.213333,0 z"
         id="path3143-2" />
      <path
         style="fill:#ffffff;fill-opacity:0.6;display:inline"
         inkscape:connector-curvature="0"
         d="m 23.183749,31.318749 1.210416,0 0,0.600833 -1.210416,0 z"
         id="path3145-2" />
      <path
         style="fill:#ffffff;fill-opacity:0.6;display:inline"
         inkscape:connector-curvature="0"
         d="m 24.598332,31.318749 1.755833,0 0,0.600833 -1.755833,0 z"
         id="path3147-3" />
      <path
         style="fill:#ffffff;fill-opacity:0.6;display:inline"
         inkscape:connector-curvature="0"
         d="m 26.558332,31.318749 0.3675,0 0,0.600833 -0.3675,0 z"
         id="path3149-9" />
      <path
         style="fill:#ffffff;fill-opacity:0.6;display:inline"
         inkscape:connector-curvature="0"
         d="m 16.125416,33.719165 0.98,0 0,0.600834 -0.98,0 z"
         id="path3151-4" />
      <path
         style="fill:#ffffff;fill-opacity:0.6;display:inline"
         inkscape:connector-curvature="0"
         d="m 17.359166,33.719165 3.567083,0 0,0.600834 -3.567083,0 z"
         id="path3153-0" />
    </g>
  </g>
  <g
     inkscape:label="hilight"
     id="layer4"
     inkscape:groupmode="layer">
    <path
       id="rect3006"
       d="M 2,0 C 0.892,0 0,0.892 0,2 l 0,44 c 0,1.108 0.892,2 2,2 l 44,0 c 1.108,0 2,-0.892 2,-2 L 48,2 C 48,0.892 47.108,0 46,0 L 2,0 z m 0,0.5 44,0 c 0.83101,0 1.5,0.6689904 1.5,1.5 l 0,44 c 0,0.83101 -0.66899,1.5 -1.5,1.5 l -44,0 C 1.1689904,47.5 0.5,46.83101 0.5,46 L 0.5,2 C 0.5,1.1689904 1.1689904,0.5 2,0.5 z"
       style="color:#000000;fill:url(#linearGradient12443);fill-opacity:1;fill-rule:nonzero;stroke:none;stroke-width:0.50000000000000000;marker:none;visibility:visible;display:inline;overflow:visible;enable-background:accumulate;opacity:0.4"
       inkscape:connector-curvature="0" />
  </g>
</svg>
