<?xml version="1.0" encoding="UTF-8" standalone="no"?>
<!-- Created with Inkscape (http://www.inkscape.org/) -->

<svg
   xmlns:dc="http://purl.org/dc/elements/1.1/"
   xmlns:cc="http://creativecommons.org/ns#"
   xmlns:rdf="http://www.w3.org/1999/02/22-rdf-syntax-ns#"
   xmlns:svg="http://www.w3.org/2000/svg"
   xmlns="http://www.w3.org/2000/svg"
   xmlns:xlink="http://www.w3.org/1999/xlink"
   xmlns:sodipodi="http://sodipodi.sourceforge.net/DTD/sodipodi-0.dtd"
   xmlns:inkscape="http://www.inkscape.org/namespaces/inkscape"
   sodipodi:docname="libreoffice-base.svg.2014_04_01_11_12_41.0.svg"
   inkscape:version="0.48.4 r9939"
   version="1.1"
   id="svg2"
   height="48"
   width="48">
  <sodipodi:namedview
     id="base"
     pagecolor="#424242"
     bordercolor="#666666"
     borderopacity="1.0"
     inkscape:pageopacity="1"
     inkscape:pageshadow="2"
     inkscape:zoom="1"
     inkscape:cx="-0.74821557"
     inkscape:cy="-7.1513228"
     inkscape:document-units="px"
     inkscape:current-layer="layer2"
     showgrid="false"
     showborder="false"
     borderlayer="false"
     showguides="true"
     inkscape:guide-bbox="true"
     inkscape:window-width="1855"
     inkscape:window-height="1056"
     inkscape:window-x="65"
     inkscape:window-y="24"
     inkscape:window-maximized="1">
    <inkscape:grid
       type="xygrid"
       id="grid3004"
       empspacing="5"
       visible="true"
       enabled="true"
       snapvisiblegridlinesonly="true"
       spacingx="1px"
       spacingy="1px" />
  </sodipodi:namedview>
  <defs
     id="defs4">
    <linearGradient
       inkscape:collect="always"
       id="linearGradient4699">
      <stop
         style="stop-color:#19aeff;stop-opacity:1;"
         offset="0"
         id="stop4701" />
      <stop
         style="stop-color:#19aeff;stop-opacity:0;"
         offset="1"
         id="stop4703" />
    </linearGradient>
    <linearGradient
       inkscape:collect="always"
       id="linearGradient4691">
      <stop
         style="stop-color:#19aeff;stop-opacity:1;"
         offset="0"
         id="stop4693" />
      <stop
         style="stop-color:#19aeff;stop-opacity:0;"
         offset="1"
         id="stop4695" />
    </linearGradient>
    <linearGradient
       id="linearGradient4665">
      <stop
         style="stop-color:#95dbff;stop-opacity:1;"
         offset="0"
         id="stop4667" />
      <stop
         style="stop-color:#006ba2;stop-opacity:1;"
         offset="1"
         id="stop4669" />
    </linearGradient>
    <linearGradient
       id="linearGradient4634">
      <stop
         style="stop-color:#000000;stop-opacity:0.38414633;"
         offset="0"
         id="stop4636" />
      <stop
         style="stop-color:#000000;stop-opacity:0;"
         offset="1"
         id="stop4638" />
    </linearGradient>
    <linearGradient
       inkscape:collect="always"
       xlink:href="#linearGradient3815-5"
       id="linearGradient3821-9"
       x1="3"
       y1="3"
       x2="25"
       y2="28"
       gradientUnits="userSpaceOnUse" />
    <linearGradient
       inkscape:collect="always"
       id="linearGradient3815-5">
      <stop
         style="stop-color:#ffffff;stop-opacity:1;"
         offset="0"
         id="stop3817-1" />
      <stop
         style="stop-color:#ffffff;stop-opacity:0;"
         offset="1"
         id="stop3819-9" />
    </linearGradient>
    <linearGradient
       inkscape:collect="always"
       xlink:href="#linearGradient4691"
       id="linearGradient4697"
       x1="45"
       y1="1049.8622"
       x2="42.5"
       y2="1047.3622"
       gradientUnits="userSpaceOnUse" />
    <linearGradient
       inkscape:collect="always"
       xlink:href="#linearGradient4699"
       id="linearGradient4705"
       x1="27.5"
       y1="0.5"
       x2="27.5"
       y2="3"
       gradientUnits="userSpaceOnUse" />
    <linearGradient
       inkscape:collect="always"
       xlink:href="#linearGradient4691-0"
       id="linearGradient4697-1"
       x1="45"
       y1="1049.8622"
       x2="42.5"
       y2="1047.3622"
       gradientUnits="userSpaceOnUse" />
    <linearGradient
       inkscape:collect="always"
       id="linearGradient4691-0">
      <stop
         style="stop-color:#19aeff;stop-opacity:1;"
         offset="0"
         id="stop4693-5" />
      <stop
         style="stop-color:#19aeff;stop-opacity:0;"
         offset="1"
         id="stop4695-5" />
    </linearGradient>
    <linearGradient
       gradientTransform="translate(0,-1004.3622)"
       y2="1047.3622"
       x2="42.5"
       y1="1049.8622"
       x1="45"
       gradientUnits="userSpaceOnUse"
       id="linearGradient12409"
       xlink:href="#linearGradient4699-1"
       inkscape:collect="always" />
    <linearGradient
       inkscape:collect="always"
       xlink:href="#linearGradient4699-1"
       id="linearGradient4705-1"
       x1="27.5"
       y1="0.5"
       x2="27.5"
       y2="3"
       gradientUnits="userSpaceOnUse" />
    <linearGradient
       id="linearGradient4699-1">
      <stop
         style="stop-color:#ffffff;stop-opacity:1;"
         offset="0"
         id="stop4701-3" />
      <stop
         style="stop-color:#ffffff;stop-opacity:0;"
         offset="1"
         id="stop4703-4" />
    </linearGradient>
    <linearGradient
       y2="3"
       x2="27.5"
       y1="0.5"
       x1="27.5"
       gradientUnits="userSpaceOnUse"
       id="linearGradient12443"
       xlink:href="#linearGradient4699-1"
       inkscape:collect="always" />
    <clipPath
       clipPathUnits="userSpaceOnUse"
       id="clipPath3856">
      <path
         style="opacity:0.3;fill:#000000;fill-opacity:1;stroke:none;display:inline"
         d="m 27.84375,12.03125 -15.4375,15.4375 8.125,8.125 L 32.9375,48 46,48 c 1.108,0 2,-0.892 2,-2 l 0,-13.8125 -12.03125,-12.03125 -8.125,-8.125 z m 10.5625,2.4375 0,3.25 -1.625,1.625 L 48,30.5625 l 0,-6.5 -9.59375,-9.59375 z m -18.6875,21.9375 -8.9375,2.4375 -1.625,0 L 18.3125,48 l 13,0 -11.59375,-11.59375 z"
         id="path3858"
         inkscape:connector-curvature="0" />
    </clipPath>
    <radialGradient
       gradientUnits="userSpaceOnUse"
       r="128"
       id="radial0"
       gradientTransform="matrix(0.1831,0,0,0.1831,-3.10029,-5.29688)"
       cy="160"
       cx="148.004">
      <stop
         id="stop3047"
         style="stop-color:#b0cee7"
         offset="0" />
      <stop
         id="stop3049"
         style="stop-color:#205582"
         offset="1" />
    </radialGradient>
    <clipPath
       id="clipPath6628"
       clipPathUnits="userSpaceOnUse">
      <path
         id="path6630"
         d="m 12,10 0,28 10,10 24,0 c 1.108,0 2,-0.892 2,-2 L 48,34.5 23.5,10 12,10 z M 26.5,10 48,31.5 48,23 35,10 26.5,10 z"
         style="opacity:0.25;color:#000000;fill:#000000;fill-opacity:1;fill-rule:nonzero;stroke:none;stroke-width:0.5;marker:none;visibility:visible;display:inline;overflow:visible;enable-background:accumulate"
         inkscape:connector-curvature="0" />
    </clipPath>
    <radialGradient
       cx="148.004"
       cy="160"
       gradientTransform="matrix(0.1831,0,0,0.1831,-3.10029,-5.29688)"
       id="radial0-5"
       r="128"
       gradientUnits="userSpaceOnUse">
      <stop
         offset="0"
         style="stop-color:#a8db72"
         id="stop6656" />
      <stop
         offset="1"
         style="stop-color:#4b8012"
         id="stop6658" />
    </radialGradient>
    <radialGradient
       r="128"
       cy="160"
       cx="148.004"
       gradientTransform="matrix(0.1831,0,0,0.1831,-107.85029,-36.546882)"
       gradientUnits="userSpaceOnUse"
       id="radialGradient6693"
       xlink:href="#radial0-5"
       inkscape:collect="always" />
    <radialGradient
       cx="148.004"
       cy="160"
       gradientTransform="matrix(.1831 0 0 .1831 -3.10029 -5.29688)"
       id="radial0-1"
       r="128"
       gradientUnits="userSpaceOnUse">
      <stop
         offset="0"
         style="stop-color:#de8fbc"
         id="stop3040" />
      <stop
         offset="1"
         style="stop-color:#81275b"
         id="stop3042" />
    </radialGradient>
    <radialGradient
       cx="148.004"
       cy="160"
       gradientTransform="matrix(0.1831,0,0,0.1831,-3.10029,-5.29688)"
       id="radial0-6"
       r="128"
       gradientUnits="userSpaceOnUse">
      <stop
         offset="0"
         style="stop-color:#9cced0"
         id="stop3041" />
      <stop
         offset="1"
         style="stop-color:#296b70"
         id="stop3043" />
    </radialGradient>
    <radialGradient
       r="128"
       cy="160"
       cx="148.004"
       gradientTransform="matrix(0.1831,0,0,0.1831,-74.299667,-5.5152875)"
       gradientUnits="userSpaceOnUse"
       id="radialGradient3086"
       xlink:href="#radial0-6"
       inkscape:collect="always" />
    <linearGradient
       y2="3"
       x2="27.5"
       y1="0.5"
       x1="27.5"
       gradientUnits="userSpaceOnUse"
       id="linearGradient12443-8"
       xlink:href="#linearGradient4699-1-1"
       inkscape:collect="always" />
    <linearGradient
       id="linearGradient4699-1-1">
      <stop
         style="stop-color:#ffffff;stop-opacity:1;"
         offset="0"
         id="stop4701-3-7" />
      <stop
         style="stop-color:#ffffff;stop-opacity:0;"
         offset="1"
         id="stop4703-4-6" />
    </linearGradient>
    <linearGradient
       inkscape:collect="always"
       xlink:href="#linearGradient4699-1-1"
       id="linearGradient3967"
       gradientUnits="userSpaceOnUse"
       x1="27.5"
       y1="0.5"
       x2="27.5"
       y2="3" />
    <linearGradient
       gradientTransform="translate(-0.03645663,-1.1301556)"
       y2="3"
       x2="27.5"
       y1="0.5"
       x1="27.5"
       gradientUnits="userSpaceOnUse"
       id="linearGradient4005"
       xlink:href="#linearGradient4699-1-1"
       inkscape:collect="always" />
    <linearGradient
       y2="3"
       x2="27.5"
       y1="0.5"
       x1="27.5"
       gradientUnits="userSpaceOnUse"
       id="linearGradient12443-0"
       xlink:href="#linearGradient4699-1-8"
       inkscape:collect="always" />
    <linearGradient
       id="linearGradient4699-1-8">
      <stop
         style="stop-color:#ffffff;stop-opacity:1;"
         offset="0"
         id="stop4701-3-0" />
      <stop
         style="stop-color:#ffffff;stop-opacity:0;"
         offset="1"
         id="stop4703-4-60" />
    </linearGradient>
    <linearGradient
       inkscape:collect="always"
       xlink:href="#linearGradient4699-1-8"
       id="linearGradient4022"
       gradientUnits="userSpaceOnUse"
       x1="27.5"
       y1="0.5"
       x2="27.5"
       y2="3" />
    <linearGradient
       inkscape:collect="always"
       xlink:href="#linearGradient4699-1-8-1"
       id="linearGradient4022-6"
       gradientUnits="userSpaceOnUse"
       x1="27.5"
       y1="0.5"
       x2="27.5"
       y2="3" />
    <linearGradient
       id="linearGradient4699-1-8-1">
      <stop
         style="stop-color:#ffffff;stop-opacity:1;"
         offset="0"
         id="stop4701-3-0-7" />
      <stop
         style="stop-color:#ffffff;stop-opacity:0;"
         offset="1"
         id="stop4703-4-60-6" />
    </linearGradient>
    <linearGradient
       inkscape:collect="always"
       xlink:href="#linearGradient4699-1-8-1"
       id="linearGradient4323"
       gradientUnits="userSpaceOnUse"
       x1="27.5"
       y1="0.5"
       x2="27.5"
       y2="3" />
    <linearGradient
       gradientTransform="translate(-19.562501,1.2500001)"
       y2="3"
       x2="27.5"
       y1="0.5"
       x1="27.5"
       gradientUnits="userSpaceOnUse"
       id="linearGradient4342"
       xlink:href="#linearGradient4699-1-8"
       inkscape:collect="always" />
    <linearGradient
       inkscape:collect="always"
       xlink:href="#linearGradient4699-1-8-1-3"
       id="linearGradient4323-7"
       gradientUnits="userSpaceOnUse"
       x1="27.5"
       y1="0.5"
       x2="27.5"
       y2="3" />
    <linearGradient
       id="linearGradient4699-1-8-1-3">
      <stop
         style="stop-color:#ffffff;stop-opacity:1;"
         offset="0"
         id="stop4701-3-0-7-3" />
      <stop
         style="stop-color:#ffffff;stop-opacity:0;"
         offset="1"
         id="stop4703-4-60-6-9" />
    </linearGradient>
  </defs>
  <metadata
     id="metadata7">
    <rdf:RDF>
      <cc:Work
         rdf:about="">
        <dc:format>image/svg+xml</dc:format>
        <dc:type
           rdf:resource="http://purl.org/dc/dcmitype/StillImage" />
        <dc:title></dc:title>
      </cc:Work>
    </rdf:RDF>
  </metadata>
  <g
     inkscape:label="base"
     inkscape:groupmode="layer"
     id="layer1"
     transform="translate(0,-1004.3622)"
     style="display:inline">
    <path
       id="path3932"
       d="m 2,1004.3622 c -1.108,0 -2,0.892 -2,2 l 0,44 c 0,1.108 0.892,2 2,2 l 44,0 c 1.108,0 2,-0.892 2,-2 l 0,-19 0,-1.4375 -25.5625,-25.5625 -1.46875,0 -18.96875,0 z"
       style="font-size:medium;font-style:normal;font-variant:normal;font-weight:normal;font-stretch:normal;text-indent:0;text-align:start;text-decoration:none;line-height:normal;letter-spacing:normal;word-spacing:normal;text-transform:none;direction:ltr;block-progression:tb;writing-mode:lr-tb;text-anchor:start;baseline-shift:baseline;opacity:1;color:#000000;fill:#0e232e;fill-opacity:1;stroke:none;stroke-width:2;marker:none;visibility:visible;display:inline;overflow:visible;enable-background:accumulate;font-family:Sans;-inkscape-font-specification:Sans" />
    <path
       sodipodi:nodetypes="cccccc"
       inkscape:connector-curvature="0"
       id="path3901"
       d="m 4,1008.3622 17,0 23,23 0,17 -40,0 z"
       style="font-size:medium;font-style:normal;font-variant:normal;font-weight:normal;font-stretch:normal;text-indent:0;text-align:start;text-decoration:none;line-height:normal;letter-spacing:normal;word-spacing:normal;text-transform:none;direction:ltr;block-progression:tb;writing-mode:lr-tb;text-anchor:start;baseline-shift:baseline;color:#000000;fill:#ffffff;fill-opacity:1;stroke:none;stroke-width:2;marker:none;visibility:visible;display:inline;overflow:visible;enable-background:accumulate;font-family:Sans;-inkscape-font-specification:Sans" />
    <path
       sodipodi:nodetypes="ccssc"
       inkscape:connector-curvature="0"
       id="rect3063"
       d="m 27,1004.3622 21,21 0,-19 c 0,-1.108 -0.892,-2 -2,-2 z"
       style="font-size:medium;font-style:normal;font-variant:normal;font-weight:normal;font-stretch:normal;text-indent:0;text-align:start;text-decoration:none;line-height:normal;letter-spacing:normal;word-spacing:normal;text-transform:none;direction:ltr;block-progression:tb;writing-mode:lr-tb;text-anchor:start;baseline-shift:baseline;color:#000000;fill:#0e232e;fill-opacity:1;stroke:none;stroke-width:2;marker:none;visibility:visible;display:inline;overflow:visible;enable-background:accumulate;font-family:Sans;-inkscape-font-specification:Sans" />
  </g>
  <g
     inkscape:groupmode="layer"
     id="layer2"
     inkscape:label="shadow"
     style="display:inline">
    <path
       style="fill:#000000;fill-opacity:1;opacity:0.25"
       d="M 21 19 C 20.240449 19 19.497411 19.016669 18.78125 19.0625 C 13.768124 19.38332 10 20.77774 10 22.4375 L 10 25.1875 C 10 25.276805 10.009817 25.349898 10.03125 25.4375 C 10.038871 25.470092 10.051987 25.498915 10.0625 25.53125 C 10.096434 25.635169 10.155829 25.742767 10.21875 25.84375 C 10.231063 25.8633 10.23663 25.88682 10.25 25.90625 C 10.320849 26.010064 10.399875 26.118625 10.5 26.21875 L 13.28125 29 C 12.01695 28.609968 11.046302 28.138261 10.5 27.59375 C 10.169311 27.919846 10 28.262161 10 28.625 L 10 31.375 C 10 31.487922 10.028561 31.608651 10.0625 31.71875 C 10.096642 31.829508 10.151864 31.923846 10.21875 32.03125 C 10.231063 32.050828 10.23663 32.074294 10.25 32.09375 C 10.320973 32.197792 10.399702 32.305953 10.5 32.40625 L 13.28125 35.1875 C 12.01695 34.797468 11.046302 34.325761 10.5 33.78125 C 10.169311 34.107346 10 34.454253 10 34.8125 L 10 37.5625 C 10 37.651804 10.009817 37.724898 10.03125 37.8125 C 10.038871 37.845092 10.051987 37.873915 10.0625 37.90625 C 10.096434 38.010169 10.155829 38.117767 10.21875 38.21875 C 10.231063 38.2383 10.23663 38.26182 10.25 38.28125 C 10.320849 38.385064 10.399875 38.493625 10.5 38.59375 L 19.90625 48 L 46 48 C 47.108 48 48 47.108 48 46 L 48 37.96875 L 31.78125 21.75 C 31.762757 21.721765 31.739446 21.684229 31.71875 21.65625 L 31.5 21.40625 C 31.339946 21.246196 31.136181 21.086577 30.90625 20.9375 C 30.885554 20.924131 30.864982 20.919522 30.84375 20.90625 C 30.716968 20.826741 30.551698 20.763367 30.40625 20.6875 C 30.312514 20.639166 30.226022 20.577989 30.125 20.53125 C 29.747304 20.355129 29.347607 20.182327 28.875 20.03125 C 28.676475 19.967788 28.432387 19.933529 28.21875 19.875 C 28.003161 19.815909 27.792498 19.741255 27.5625 19.6875 C 27.272795 19.619848 26.967011 19.55863 26.65625 19.5 C 26.484241 19.467569 26.302983 19.435769 26.125 19.40625 C 25.765017 19.346926 25.382208 19.296777 25 19.25 C 24.848012 19.231382 24.686448 19.204038 24.53125 19.1875 C 24.108573 19.142818 23.662717 19.091007 23.21875 19.0625 C 23.188514 19.060565 23.155326 19.064357 23.125 19.0625 C 22.435964 19.02023 21.728698 19 21 19 z "
       id="path4560" />
  </g>
  <g
     inkscape:groupmode="layer"
     id="layer3"
     inkscape:label="icon"
     style="display:inline">
    <g
       style="fill:#0e232e"
       transform="matrix(1.1757828,0,0,1.1757828,-4.9813753,-3.158262)"
       id="g3135">
      <path
         style="fill:#0e232e;display:inline"
         id="path3055"
         d="m 22.097087,18.84554 c -5.167969,0 -9.355469,1.308594 -9.355469,2.921875 l 0,2.339844 c 0,1.613281 4.1875,2.925781 9.355469,2.925781 5.167969,0 9.355469,-1.3125 9.355469,-2.925781 l 0,-2.339844 c 0,-1.613281 -4.1875,-2.921875 -9.355469,-2.921875 z"
         inkscape:connector-curvature="0" />
      <path
         style="fill:#0e232e;display:inline"
         id="path3057"
         d="m 22.065837,28.201009 c -4.1875,0 -7.71875,-0.859375 -8.910156,-2.046875 -0.28125,0.277344 -0.414063,0.570313 -0.414063,0.878906 l 0,2.335938 c 0,1.617187 4.1875,2.925781 9.355469,2.925781 5.167969,0 9.355469,-1.308594 9.355469,-2.925781 l 0,-2.335938 c 0,-0.308593 -0.164063,-0.601562 -0.441407,-0.878906 -1.191406,1.1875 -4.753906,2.046875 -8.945312,2.046875 z"
         inkscape:connector-curvature="0" />
      <path
         style="fill:#0e232e;display:inline"
         id="path3059"
         d="m 22.065837,33.462729 c -4.1875,0 -7.71875,-0.859376 -8.910156,-2.046876 -0.28125,0.277344 -0.414063,0.574218 -0.414063,0.878906 l 0,2.339845 c 0,1.613281 4.1875,2.921875 9.355469,2.921875 5.167969,0 9.355469,-1.308594 9.355469,-2.921875 l 0,-2.339845 c 0,-0.304688 -0.164063,-0.601562 -0.441407,-0.878906 -1.191406,1.1875 -4.753906,2.046876 -8.945312,2.046876 z"
         inkscape:connector-curvature="0" />
    </g>
  </g>
  <g
     sodipodi:insensitive="true"
     style="display:inline"
     inkscape:groupmode="layer"
     id="layer4"
     inkscape:label="hilight">
    <path
       sodipodi:nodetypes="cccccssccssc"
       inkscape:connector-curvature="0"
       id="rect3006"
       d="m 27,0 0.5,0.5 2.960116,2.949994 0.649259,0 L 28.140625,0.5 46,0.5 c 0.83101,0 1.5,0.6689904 1.5,1.5 l 0,18.5 L 48,21 48,2 C 48,0.892 47.108,0 46,0 z"
       style="opacity:0.4;color:#000000;fill:url(#linearGradient12443);fill-opacity:1;fill-rule:nonzero;stroke:none;stroke-width:0.5;marker:none;visibility:visible;display:inline;overflow:visible;enable-background:accumulate" />
    <path
       sodipodi:nodetypes="ssssssscccsssssscccccs"
       inkscape:connector-curvature="0"
       id="rect3006-4-8"
       d="M 2,0 C 0.892,0 0,0.892 0,2 l 0,44 c 0,1.108 0.892,2 2,2 l 44,0 c 0.554,0 1.04475,-0.23225 1.40625,-0.59375 C 47.76775,47.04475 48,46.554 48,46 l 0,-19 0,-1.4375 -0.5,-0.5 0,20.9375 c 0,0.83101 -0.66899,1.5 -1.5,1.5 l -44,0 C 1.1689904,47.5 0.5,46.83101 0.5,46 L 0.5,2 C 0.5,1.1689904 1.1689904,0.5 2,0.5 l 20.261094,0 2.98619,2.949994 0.636866,0 L 22.9375,0.5 22.4375,0 z"
       style="opacity:0.4;color:#000000;fill:url(#linearGradient4323-7);fill-opacity:1;fill-rule:nonzero;stroke:none;stroke-width:0.5;marker:none;visibility:visible;display:inline;overflow:visible;enable-background:accumulate" />
  </g>
</svg>
