<?xml version="1.0" encoding="UTF-8" standalone="no"?>
<!-- Created with Inkscape (http://www.inkscape.org/) -->

<svg
   xmlns:dc="http://purl.org/dc/elements/1.1/"
   xmlns:cc="http://creativecommons.org/ns#"
   xmlns:rdf="http://www.w3.org/1999/02/22-rdf-syntax-ns#"
   xmlns:svg="http://www.w3.org/2000/svg"
   xmlns="http://www.w3.org/2000/svg"
   xmlns:xlink="http://www.w3.org/1999/xlink"
   xmlns:sodipodi="http://sodipodi.sourceforge.net/DTD/sodipodi-0.dtd"
   xmlns:inkscape="http://www.inkscape.org/namespaces/inkscape"
   sodipodi:docname="mouse.svg"
   inkscape:version="0.48.4 r9939"
   version="1.1"
   id="svg2"
   height="48"
   width="48">
  <sodipodi:namedview
     id="base"
     pagecolor="#424242"
     bordercolor="#666666"
     borderopacity="1.0"
     inkscape:pageopacity="1"
     inkscape:pageshadow="2"
     inkscape:zoom="16"
     inkscape:cx="17.234616"
     inkscape:cy="32.321896"
     inkscape:document-units="px"
     inkscape:current-layer="layer3"
     showgrid="false"
     showborder="false"
     borderlayer="false"
     showguides="true"
     inkscape:guide-bbox="true"
     inkscape:window-width="1855"
     inkscape:window-height="1056"
     inkscape:window-x="65"
     inkscape:window-y="24"
     inkscape:window-maximized="1">
    <inkscape:grid
       spacingy="1px"
       spacingx="1px"
       snapvisiblegridlinesonly="true"
       enabled="true"
       visible="true"
       empspacing="5"
       id="grid3004"
       type="xygrid" />
  </sodipodi:namedview>
  <defs
     id="defs4">
    <linearGradient
       id="linearGradient5509">
      <stop
         style="stop-color:#ff6c6c;stop-opacity:1;"
         offset="0"
         id="stop5511" />
      <stop
         id="stop5517"
         offset="0.36363637"
         style="stop-color:#ebc96c;stop-opacity:1;" />
      <stop
         style="stop-color:#b6e19a;stop-opacity:1;"
         offset="0.63636363"
         id="stop5519" />
      <stop
         id="stop5521"
         offset="0.81818181"
         style="stop-color:#a6cccc;stop-opacity:1;" />
      <stop
         style="stop-color:#be9ce5;stop-opacity:1;"
         offset="0.90909094"
         id="stop5523" />
      <stop
         style="stop-color:#d76cff;stop-opacity:1;"
         offset="1"
         id="stop5513" />
    </linearGradient>
    <linearGradient
       id="linearGradient5618">
      <stop
         id="stop5620"
         offset="0"
         style="stop-color:#ffffff;stop-opacity:1;" />
      <stop
         id="stop5622"
         offset="1"
         style="stop-color:#d0d0d0;stop-opacity:1;" />
    </linearGradient>
    <linearGradient
       id="linearGradient3916">
      <stop
         id="stop3918"
         offset="0"
         style="stop-color:#0084c8;stop-opacity:1" />
      <stop
         id="stop3920"
         offset="1"
         style="stop-color:#005c94;stop-opacity:1" />
    </linearGradient>
    <linearGradient
       id="linearGradient4452">
      <stop
         style="stop-color:#000000;stop-opacity:0.15853658;"
         offset="0"
         id="stop4454" />
      <stop
         style="stop-color:#000000;stop-opacity:0;"
         offset="1"
         id="stop4456" />
    </linearGradient>
    <linearGradient
       id="linearGradient4571">
      <stop
         id="stop4573"
         offset="0"
         style="stop-color:#ecf1f3;stop-opacity:1;" />
      <stop
         id="stop4575"
         offset="1"
         style="stop-color:#c5cacc;stop-opacity:1;" />
    </linearGradient>
    <linearGradient
       id="linearGradient4699"
       inkscape:collect="always">
      <stop
         id="stop4701"
         offset="0"
         style="stop-color:#19aeff;stop-opacity:1;" />
      <stop
         id="stop4703"
         offset="1"
         style="stop-color:#19aeff;stop-opacity:0;" />
    </linearGradient>
    <linearGradient
       id="linearGradient4691"
       inkscape:collect="always">
      <stop
         id="stop4693"
         offset="0"
         style="stop-color:#19aeff;stop-opacity:1;" />
      <stop
         id="stop4695"
         offset="1"
         style="stop-color:#19aeff;stop-opacity:0;" />
    </linearGradient>
    <linearGradient
       id="linearGradient4665">
      <stop
         id="stop4667"
         offset="0"
         style="stop-color:#95dbff;stop-opacity:1;" />
      <stop
         id="stop4669"
         offset="1"
         style="stop-color:#006ba2;stop-opacity:1;" />
    </linearGradient>
    <linearGradient
       id="linearGradient4634">
      <stop
         id="stop4636"
         offset="0"
         style="stop-color:#000000;stop-opacity:0.38414633;" />
      <stop
         id="stop4638"
         offset="1"
         style="stop-color:#000000;stop-opacity:0;" />
    </linearGradient>
    <linearGradient
       gradientUnits="userSpaceOnUse"
       y2="28"
       x2="25"
       y1="3"
       x1="3"
       id="linearGradient3821-9"
       xlink:href="#linearGradient3815-5"
       inkscape:collect="always" />
    <linearGradient
       id="linearGradient3815-5"
       inkscape:collect="always">
      <stop
         id="stop3817-1"
         offset="0"
         style="stop-color:#ffffff;stop-opacity:1;" />
      <stop
         id="stop3819-9"
         offset="1"
         style="stop-color:#ffffff;stop-opacity:0;" />
    </linearGradient>
    <linearGradient
       gradientUnits="userSpaceOnUse"
       y2="1047.3622"
       x2="42.5"
       y1="1049.8622"
       x1="45"
       id="linearGradient4697"
       xlink:href="#linearGradient4691"
       inkscape:collect="always" />
    <linearGradient
       gradientUnits="userSpaceOnUse"
       y2="3"
       x2="27.5"
       y1="0.5"
       x1="27.5"
       id="linearGradient4705"
       xlink:href="#linearGradient4699"
       inkscape:collect="always" />
    <linearGradient
       gradientUnits="userSpaceOnUse"
       y2="1047.3622"
       x2="42.5"
       y1="1049.8622"
       x1="45"
       id="linearGradient4697-1"
       xlink:href="#linearGradient4691-0"
       inkscape:collect="always" />
    <linearGradient
       id="linearGradient4691-0"
       inkscape:collect="always">
      <stop
         id="stop4693-5"
         offset="0"
         style="stop-color:#19aeff;stop-opacity:1;" />
      <stop
         id="stop4695-5"
         offset="1"
         style="stop-color:#19aeff;stop-opacity:0;" />
    </linearGradient>
    <linearGradient
       inkscape:collect="always"
       xlink:href="#linearGradient4699-1"
       id="linearGradient12409"
       gradientUnits="userSpaceOnUse"
       x1="45"
       y1="1049.8622"
       x2="42.5"
       y2="1047.3622"
       gradientTransform="translate(0,-1004.3622)" />
    <linearGradient
       gradientUnits="userSpaceOnUse"
       y2="3"
       x2="27.5"
       y1="0.5"
       x1="27.5"
       id="linearGradient4705-1"
       xlink:href="#linearGradient4699-1"
       inkscape:collect="always" />
    <linearGradient
       id="linearGradient4699-1">
      <stop
         id="stop4701-3"
         offset="0"
         style="stop-color:#ffffff;stop-opacity:1;" />
      <stop
         id="stop4703-4"
         offset="1"
         style="stop-color:#ffffff;stop-opacity:0;" />
    </linearGradient>
    <linearGradient
       inkscape:collect="always"
       xlink:href="#linearGradient4699-1"
       id="linearGradient12443"
       gradientUnits="userSpaceOnUse"
       x1="27.5"
       y1="0.5"
       x2="27.5"
       y2="3" />
    <clipPath
       id="clipPath3856"
       clipPathUnits="userSpaceOnUse">
      <path
         inkscape:connector-curvature="0"
         id="path3858"
         d="m 27.84375,12.03125 -15.4375,15.4375 8.125,8.125 L 32.9375,48 46,48 c 1.108,0 2,-0.892 2,-2 l 0,-13.8125 -12.03125,-12.03125 -8.125,-8.125 z m 10.5625,2.4375 0,3.25 -1.625,1.625 L 48,30.5625 l 0,-6.5 -9.59375,-9.59375 z m -18.6875,21.9375 -8.9375,2.4375 -1.625,0 L 18.3125,48 l 13,0 -11.59375,-11.59375 z"
         style="opacity:0.3;fill:#000000;fill-opacity:1;stroke:none;display:inline" />
    </clipPath>
    <clipPath
       id="clipPath4492"
       clipPathUnits="userSpaceOnUse">
      <path
         id="path4494"
         d="m 28.28125,11 c -0.382978,-0.015 -0.701309,0.2118 -0.65625,0.625 l 0,0.9375 c 0.0028,0.107535 0.03337,0.206152 0.0625,0.28125 0.0077,0.0185 0.02221,0.04583 0.03125,0.0625 0.02417,0.04365 0.03048,0.09298 0.0625,0.125 l 0.09375,0.0625 1.6875,1.71875 c -0.09694,0.107303 -0.236384,0.234525 -0.40625,0.40625 l -2.28125,2.375 -6.4375,-6.4375 c -0.08266,-0.08266 -0.181553,-0.128868 -0.34375,-0.125 l -9.25,0 c -0.337919,-0.015 -0.585021,0.2799 -0.5625,0.625 l 0,1.03125 c -3.5e-4,0.08677 0.0032,0.174519 0.03125,0.25 0.02085,0.0575 0.05938,0.108056 0.09375,0.15625 0.01247,0.01766 0.0172,0.0463 0.03125,0.0625 0.0091,0.01035 0.02154,0.02154 0.03125,0.03125 l 0.15625,0.125 1.65625,1.65625 0,0.03125 0,21.53125 c -0.0083,0.0885 -0.01311,0.187768 0,0.25 0.0079,0.0311 0.01605,0.06838 0.03125,0.09375 0.01199,0.02047 0.01402,0.04527 0.03125,0.0625 L 23.40625,48 46,48 c 1.108,0 2,-0.892 2,-2 L 48,21.59375 37.65625,11.25 c -0.01519,-0.03494 -0.03721,-0.06556 -0.0625,-0.09375 -0.0095,-0.0095 -0.02057,-0.02275 -0.03125,-0.03125 -0.03337,-0.02893 -0.07961,-0.04528 -0.125,-0.0625 -0.0085,-0.0029 -0.02235,0.0024 -0.03125,0 -0.0577,-0.01753 -0.114282,-0.03502 -0.1875,-0.03125 L 28.28125,11 z"
         style="opacity:0.3;fill:#000000;fill-opacity:1;fill-rule:evenodd;stroke-width:0.25;display:inline"
         inkscape:connector-curvature="0" />
    </clipPath>
    <linearGradient
       gradientUnits="userSpaceOnUse"
       y2="1007.3218"
       x2="40.915409"
       y1="1049.3521"
       x1="40.915409"
       id="linearGradient6778"
       xlink:href="#linearGradient6772"
       inkscape:collect="always"
       gradientTransform="translate(7.7392578e-7,4.2609766e-5)" />
    <linearGradient
       id="linearGradient6772"
       inkscape:collect="always">
      <stop
         id="stop6774"
         offset="0"
         style="stop-color:#efe963;stop-opacity:1" />
      <stop
         id="stop6776"
         offset="1"
         style="stop-color:#fcf982;stop-opacity:1" />
    </linearGradient>
    <linearGradient
       y2="1007.3218"
       x2="40.915409"
       y1="1049.3521"
       x1="40.915409"
       gradientTransform="translate(-84.249997,-4.7499109)"
       gradientUnits="userSpaceOnUse"
       id="linearGradient3085"
       xlink:href="#linearGradient6772"
       inkscape:collect="always" />
    <clipPath
       clipPathUnits="userSpaceOnUse"
       id="clipPath4331">
      <path
         inkscape:connector-curvature="0"
         style="color:#000000;fill:#0e232e;fill-opacity:0.48709681;fill-rule:nonzero;stroke:none;stroke-width:0.5;marker:none;visibility:visible;display:inline"
         d="m 23.75,7.5625 c -3.451779,0 -6.25,2.7982 -6.25,6.25 l 0,4.6875 c 0,0.330092 0.136168,0.620764 0.34375,0.84375 0.01016,0.01092 0.02071,0.02071 0.03125,0.03125 L 20.96875,22.5 14.5,22.5 c -1.108,0 -2,0.892 -2,2 l 0,13.5 c 0,0.164967 0.02519,0.315591 0.0625,0.46875 0.0262,0.107537 0.05103,0.212656 0.09375,0.3125 0.03933,0.09214 0.104041,0.165705 0.15625,0.25 0.03201,0.05189 0.05727,0.107675 0.09375,0.15625 0.02233,0.02974 0.03857,0.06534 0.0625,0.09375 0.0417,0.04964 0.07872,0.110926 0.125,0.15625 0.04721,0.04594 0.104619,0.08384 0.15625,0.125 L 21.6875,48 46,48 c 1.108,0 2,-0.892 2,-2 L 48,29.25 28.4375,9.6875 C 28.344943,9.5817008 28.255631,9.4742937 28.15625,9.375 28.12092,9.339674 28.06741,9.315722 28.03125,9.28125 27.918981,9.1744958 27.807452,9.0669564 27.6875,8.96875 27.6578,8.944221 27.62391,8.930234 27.59375,8.90625 27.471947,8.81012 27.34765,8.7119582 27.21875,8.625 27.18719,8.603662 27.15696,8.58327 27.125,8.5625 26.990501,8.475245 26.860145,8.3893571 26.71875,8.3125 26.69063,8.297207 26.65338,8.296119 26.625,8.28125 26.494088,8.212761 26.35495,8.1529625 26.21875,8.09375 26.17651,8.075309 26.13647,8.048772 26.09375,8.03125 25.933803,7.965967 25.760065,7.8957447 25.59375,7.84375 25.57208,7.837004 25.553022,7.8190142 25.53125,7.8125 25.352378,7.7587466 25.185323,7.7251536 25,7.6875 24.9901,7.68547 24.97866,7.68948 24.96875,7.6875 24.77271,7.6487168 24.577293,7.6136138 24.375,7.59375 24.165984,7.5725195 23.964744,7.5625 23.75,7.5625 z"
         id="path4333" />
    </clipPath>
    <clipPath
       id="clipPath3071"
       clipPathUnits="userSpaceOnUse">
      <path
         inkscape:connector-curvature="0"
         style="opacity:0.25;color:#000000;fill:#000000;fill-opacity:1;fill-rule:nonzero;stroke:none;stroke-width:0.5;marker:none;visibility:visible;display:inline"
         d="m 24,6 c -3.313709,0 -6,2.6862912 -6,6 l 0,5 5,5 -9,0 c -1.108,0 -2,0.892 -2,2 l 0,14 c 0,0.421192 0.123088,0.803368 0.34375,1.125 0.07174,0.106367 0.159625,0.190875 0.25,0.28125 0.0056,0.0056 -0.0056,0.02572 0,0.03125 L 21.15625,48 46,48 c 1.108,0 2,-0.892 2,-2 L 48,27.5 28.25,7.75 C 27.164213,6.6642136 25.656854,6 24,6 z"
         id="path3073" />
    </clipPath>
    <linearGradient
       inkscape:collect="always"
       xlink:href="#linearGradient4452-1"
       id="linearGradient4458-2"
       x1="23"
       y1="1026.3622"
       x2="32.9375"
       y2="1026.3622"
       gradientUnits="userSpaceOnUse" />
    <linearGradient
       id="linearGradient4452-1">
      <stop
         style="stop-color:#000000;stop-opacity:0.15853658;"
         offset="0"
         id="stop4454-5" />
      <stop
         style="stop-color:#000000;stop-opacity:0;"
         offset="1"
         id="stop4456-0" />
    </linearGradient>
    <linearGradient
       gradientTransform="translate(0,-1004.3622)"
       y2="1026.3622"
       x2="32.9375"
       y1="1026.3622"
       x1="23"
       gradientUnits="userSpaceOnUse"
       id="linearGradient4475"
       xlink:href="#linearGradient4452-1"
       inkscape:collect="always" />
    <linearGradient
       gradientUnits="userSpaceOnUse"
       y2="1052.0516"
       x2="23.157747"
       y1="1004.7625"
       x1="23.157747"
       id="linearGradient3922"
       xlink:href="#linearGradient3916"
       inkscape:collect="always" />
    <linearGradient
       gradientUnits="userSpaceOnUse"
       y2="1052.0516"
       x2="23.157747"
       y1="1004.7625"
       x1="23.157747"
       id="linearGradient3922-9"
       xlink:href="#linearGradient3916-6"
       inkscape:collect="always" />
    <linearGradient
       id="linearGradient3916-6">
      <stop
         id="stop3918-1"
         offset="0"
         style="stop-color:#c1c1c1;stop-opacity:1;" />
      <stop
         id="stop3920-7"
         offset="1"
         style="stop-color:#999999;stop-opacity:1;" />
    </linearGradient>
    <linearGradient
       gradientTransform="translate(-15.202796,5.0381358)"
       inkscape:collect="always"
       xlink:href="#linearGradient3916-6"
       id="linearGradient3939"
       gradientUnits="userSpaceOnUse"
       x1="23.157747"
       y1="1004.7625"
       x2="23.157747"
       y2="1052.0516" />
    <linearGradient
       inkscape:collect="always"
       xlink:href="#linearGradient4699-1-7"
       id="linearGradient12443-7"
       gradientUnits="userSpaceOnUse"
       x1="27.5"
       y1="0.5"
       x2="27.5"
       y2="3" />
    <linearGradient
       id="linearGradient4699-1-7">
      <stop
         id="stop4701-3-9"
         offset="0"
         style="stop-color:#000000;stop-opacity:1;" />
      <stop
         id="stop4703-4-8"
         offset="1"
         style="stop-color:#000000;stop-opacity:0;" />
    </linearGradient>
    <linearGradient
       inkscape:collect="always"
       xlink:href="#linearGradient4699-1-7"
       id="linearGradient3973"
       gradientUnits="userSpaceOnUse"
       x1="26.527729"
       y1="46.285164"
       x2="26.527729"
       y2="40.475986" />
    <linearGradient
       gradientUnits="userSpaceOnUse"
       y2="1052.0516"
       x2="23.157747"
       y1="1004.7625"
       x1="23.157747"
       id="linearGradient3922-2"
       xlink:href="#linearGradient3916-9"
       inkscape:collect="always" />
    <linearGradient
       id="linearGradient3916-9">
      <stop
         id="stop3918-8"
         offset="0"
         style="stop-color:#c1c1c1;stop-opacity:1;" />
      <stop
         id="stop3920-6"
         offset="1"
         style="stop-color:#999999;stop-opacity:1;" />
    </linearGradient>
    <linearGradient
       inkscape:collect="always"
       xlink:href="#linearGradient3916-9"
       id="linearGradient4575"
       gradientUnits="userSpaceOnUse"
       x1="23.157747"
       y1="1004.7625"
       x2="23.157747"
       y2="1052.0516"
       gradientTransform="translate(0,-1004.3622)" />
    <linearGradient
       gradientUnits="userSpaceOnUse"
       y2="1052.0516"
       x2="23.157747"
       y1="1004.7625"
       x1="23.157747"
       id="linearGradient3922-5"
       xlink:href="#linearGradient3916-93"
       inkscape:collect="always" />
    <linearGradient
       id="linearGradient3916-93">
      <stop
         id="stop3918-10"
         offset="0"
         style="stop-color:#c1c1c1;stop-opacity:1;" />
      <stop
         id="stop3920-2"
         offset="1"
         style="stop-color:#999999;stop-opacity:1;" />
    </linearGradient>
    <linearGradient
       inkscape:collect="always"
       xlink:href="#linearGradient3916-93"
       id="linearGradient5579"
       gradientUnits="userSpaceOnUse"
       x1="23.157747"
       y1="1004.7625"
       x2="23.157747"
       y2="1052.0516"
       gradientTransform="translate(0,-1004.3622)" />
    <linearGradient
       id="linearGradient5618-7">
      <stop
         id="stop5620-5"
         offset="0"
         style="stop-color:#ffffff;stop-opacity:1;" />
      <stop
         id="stop5622-8"
         offset="1"
         style="stop-color:#d3d3d3;stop-opacity:1;" />
    </linearGradient>
    <linearGradient
       inkscape:collect="always"
       xlink:href="#linearGradient5618-7"
       id="linearGradient5641"
       gradientUnits="userSpaceOnUse"
       x1="23.496599"
       y1="8.4946308"
       x2="23.496599"
       y2="22.624882"
       gradientTransform="translate(-9.9965996,-6)" />
    <linearGradient
       gradientUnits="userSpaceOnUse"
       y2="1052.0516"
       x2="23.157747"
       y1="1004.7625"
       x1="23.157747"
       id="linearGradient3922-57"
       xlink:href="#linearGradient3916-8"
       inkscape:collect="always" />
    <linearGradient
       id="linearGradient3916-8">
      <stop
         id="stop3918-9"
         offset="0"
         style="stop-color:#c1c1c1;stop-opacity:1;" />
      <stop
         id="stop3920-78"
         offset="1"
         style="stop-color:#999999;stop-opacity:1;" />
    </linearGradient>
    <linearGradient
       gradientUnits="userSpaceOnUse"
       y2="1052.0516"
       x2="23.157747"
       y1="1004.7625"
       x1="23.157747"
       id="linearGradient3922-7"
       xlink:href="#linearGradient3916-2"
       inkscape:collect="always" />
    <linearGradient
       id="linearGradient3916-2">
      <stop
         id="stop3918-7"
         offset="0"
         style="stop-color:#c1c1c1;stop-opacity:1;" />
      <stop
         id="stop3920-9"
         offset="1"
         style="stop-color:#999999;stop-opacity:1;" />
    </linearGradient>
    <linearGradient
       y2="1052.0516"
       x2="23.157747"
       y1="1004.7625"
       x1="23.157747"
       gradientUnits="userSpaceOnUse"
       id="linearGradient5417-5"
       xlink:href="#linearGradient3916-2-6"
       inkscape:collect="always" />
    <linearGradient
       id="linearGradient3916-2-6">
      <stop
         id="stop3918-7-9"
         offset="0"
         style="stop-color:#c1c1c1;stop-opacity:1;" />
      <stop
         id="stop3920-9-9"
         offset="1"
         style="stop-color:#999999;stop-opacity:1;" />
    </linearGradient>
    <linearGradient
       id="linearGradient5509-4">
      <stop
         style="stop-color:#ff6c6c;stop-opacity:1;"
         offset="0"
         id="stop5511-4" />
      <stop
         id="stop5517-2"
         offset="0.5"
         style="stop-color:#ebc96c;stop-opacity:1;" />
      <stop
         style="stop-color:#b6e19a;stop-opacity:1;"
         offset="0.75"
         id="stop5519-4" />
      <stop
         id="stop5521-9"
         offset="0.875"
         style="stop-color:#a6cccc;stop-opacity:1;" />
      <stop
         style="stop-color:#be9ce5;stop-opacity:1;"
         offset="0.9375"
         id="stop5523-4" />
      <stop
         style="stop-color:#d76cff;stop-opacity:1;"
         offset="1"
         id="stop5513-1" />
    </linearGradient>
    <linearGradient
       y2="12.531112"
       x2="25.5"
       y1="12.531112"
       x1="9"
       gradientUnits="userSpaceOnUse"
       id="linearGradient5544"
       xlink:href="#linearGradient5509-4"
       inkscape:collect="always" />
    <linearGradient
       gradientUnits="userSpaceOnUse"
       y2="1052.0516"
       x2="23.157747"
       y1="1004.7625"
       x1="23.157747"
       id="linearGradient3922-96"
       xlink:href="#linearGradient3916-1"
       inkscape:collect="always" />
    <linearGradient
       id="linearGradient3916-1">
      <stop
         id="stop3918-2"
         offset="0"
         style="stop-color:#c1c1c1;stop-opacity:1;" />
      <stop
         id="stop3920-71"
         offset="1"
         style="stop-color:#999999;stop-opacity:1;" />
    </linearGradient>
    <linearGradient
       gradientUnits="userSpaceOnUse"
       y2="32.578239"
       x2="23.570755"
       y1="5.5707545"
       x1="23.570755"
       id="linearGradient6087"
       xlink:href="#linearGradient5618-7"
       inkscape:collect="always" />
    <linearGradient
       gradientUnits="userSpaceOnUse"
       y2="32.578239"
       x2="23.570755"
       y1="5.5707545"
       x1="23.570755"
       id="linearGradient6087-6"
       xlink:href="#linearGradient5618-7-6"
       inkscape:collect="always" />
    <linearGradient
       id="linearGradient5618-7-6">
      <stop
         id="stop5620-5-0"
         offset="0"
         style="stop-color:#ffffff;stop-opacity:1;" />
      <stop
         id="stop5622-8-6"
         offset="1"
         style="stop-color:#c7c7c7;stop-opacity:1;" />
    </linearGradient>
    <linearGradient
       inkscape:collect="always"
       xlink:href="#linearGradient5618-7-6"
       id="linearGradient6104"
       gradientUnits="userSpaceOnUse"
       x1="23.570755"
       y1="5.5707545"
       x2="23.570755"
       y2="32.578239"
       gradientTransform="translate(-9.9999999,-6.0000001)" />
    <linearGradient
       gradientUnits="userSpaceOnUse"
       y2="32.578239"
       x2="23.570755"
       y1="5.5707545"
       x1="23.570755"
       id="linearGradient6087-0"
       xlink:href="#linearGradient5618-7-61"
       inkscape:collect="always" />
    <linearGradient
       id="linearGradient5618-7-61">
      <stop
         id="stop5620-5-1"
         offset="0"
         style="stop-color:#ffffff;stop-opacity:1;" />
      <stop
         id="stop5622-8-7"
         offset="1"
         style="stop-color:#d3d3d3;stop-opacity:1;" />
    </linearGradient>
    <clipPath
       id="clipPath6178"
       clipPathUnits="userSpaceOnUse">
      <path
         id="path6180"
         d="m 24,6 c -3.582913,0 -7.17258,1.36008 -9.90625,4.09375 -5.4673401,5.46734 -5.4673401,14.34516 0,19.8125 L 32.21875,48 46,48 c 1.108,0 2,-0.892 2,-2 L 48,24.1875 33.90625,10.09375 C 31.172579,7.36008 27.582913,6 24,6 z"
         style="opacity:0.25;color:#000000;fill:#000000;fill-opacity:1;fill-rule:nonzero;stroke:none;stroke-width:1;marker:none;visibility:visible;display:inline"
         inkscape:connector-curvature="0" />
    </clipPath>
    <linearGradient
       gradientUnits="userSpaceOnUse"
       y2="1052.0516"
       x2="23.157747"
       y1="1004.7625"
       x1="23.157747"
       id="linearGradient3922-8"
       xlink:href="#linearGradient3916-99"
       inkscape:collect="always" />
    <linearGradient
       id="linearGradient3916-99">
      <stop
         id="stop3918-6"
         offset="0"
         style="stop-color:#19aeff;stop-opacity:1" />
      <stop
         id="stop3920-4"
         offset="1"
         style="stop-color:#0084c8;stop-opacity:1" />
    </linearGradient>
    <linearGradient
       gradientTransform="translate(0,-1004.3622)"
       y2="1052.0516"
       x2="23.157747"
       y1="1004.7625"
       x1="23.157747"
       gradientUnits="userSpaceOnUse"
       id="linearGradient6969"
       xlink:href="#linearGradient3916-99"
       inkscape:collect="always" />
    <linearGradient
       inkscape:collect="always"
       xlink:href="#linearGradient5618-7-6-0"
       id="linearGradient6995-3"
       x1="24.192389"
       y1="8.7998056"
       x2="24.192389"
       y2="32.102757"
       gradientUnits="userSpaceOnUse" />
    <linearGradient
       id="linearGradient5618-7-6-0">
      <stop
         id="stop5620-5-0-8"
         offset="0"
         style="stop-color:#ffffff;stop-opacity:1;" />
      <stop
         id="stop5622-8-6-4"
         offset="1"
         style="stop-color:#c7c7c7;stop-opacity:1;" />
    </linearGradient>
    <filter
       inkscape:collect="always"
       id="filter7031"
       x="-0.15157895"
       width="1.3031579"
       y="-0.099310345"
       height="1.1986207">
      <feGaussianBlur
         inkscape:collect="always"
         stdDeviation="1.2"
         id="feGaussianBlur7033" />
    </filter>
    <clipPath
       clipPathUnits="userSpaceOnUse"
       id="clipPath7053">
      <path
         inkscape:connector-curvature="0"
         style="opacity:0.25;color:#000000;fill:#000000;fill-opacity:1;fill-rule:nonzero;stroke:none;stroke-width:1;marker:none;visibility:visible;display:inline"
         d="m 24,8 c -4.986,0 -9,4.014 -9,9 l 0,11 c 0,2.493 0.99825,4.74825 2.625,6.375 L 31.25,48 46,48 c 1.108,0 2,-0.892 2,-2 L 48,27.25 31.375,10.625 c -0.01042,-0.01042 -0.02078,-0.02088 -0.03125,-0.03125 -0.0056,-0.0055 -0.02567,0.0055 -0.03125,0 -0.367483,-0.36202 -0.761604,-0.7057069 -1.1875,-1 C 30.082335,9.5642688 30.043202,9.5287555 30,9.5 29.780987,9.3538252 29.544615,9.2206304 29.3125,9.09375 29.292854,9.0831406 29.269735,9.0729672 29.25,9.0625 29.004673,8.9308536 28.758438,8.7964063 28.5,8.6875 c -0.0093,-0.00389 -0.02197,0.00386 -0.03125,0 -0.258365,-0.1079142 -0.511173,-0.1973389 -0.78125,-0.28125 -0.0095,-0.00293 -0.02174,0.0029 -0.03125,0 -0.550799,-0.1690938 -1.127781,-0.3138539 -1.71875,-0.375 -0.0101,-0.00101 -0.02114,9.816e-4 -0.03125,0 C 25.605434,8.0011396 25.309006,8 25,8 l -1,0 z"
         id="path7055" />
    </clipPath>
  </defs>
  <metadata
     id="metadata7">
    <rdf:RDF>
      <cc:Work
         rdf:about="">
        <dc:format>image/svg+xml</dc:format>
        <dc:type
           rdf:resource="http://purl.org/dc/dcmitype/StillImage" />
        <dc:title />
      </cc:Work>
    </rdf:RDF>
  </metadata>
  <g
     style="display:inline"
     transform="translate(0,-1004.3622)"
     id="layer1"
     inkscape:groupmode="layer"
     inkscape:label="base">
    <path
       inkscape:connector-curvature="0"
       style="color:#000000;fill:url(#linearGradient3922);fill-opacity:1;fill-rule:nonzero;stroke:none;stroke-width:0.50000000000000000;marker:none;visibility:visible;display:inline;overflow:visible;enable-background:accumulate"
       d="m 2,1004.3622 44,0 c 1.108,0 2,0.892 2,2 l 0,44 c 0,1.108 -0.892,2 -2,2 l -44,0 c -1.108,0 -2,-0.892 -2,-2 l 0,-44 c 0,-1.108 0.892,-2 2,-2 z"
       id="rect3006-5" />
  </g>
  <g
     style="display:inline"
     inkscape:label="shadow"
     id="layer2"
     inkscape:groupmode="layer">
    <path
       style="color:#000000;fill:#000000;fill-opacity:1;fill-rule:nonzero;stroke:none;stroke-width:1;marker:none;visibility:visible;opacity:0.25"
       d="M 24 8 C 19.014 8 15 12.014 15 17 L 15 28 C 15 30.493 15.99825 32.74825 17.625 34.375 L 31.25 48 L 46 48 C 47.108 48 48 47.108 48 46 L 48 27.25 L 31.375 10.625 C 31.364579 10.614579 31.354223 10.604119 31.34375 10.59375 C 31.338179 10.588251 31.318085 10.599235 31.3125 10.59375 C 30.945017 10.23173 30.550896 9.8880431 30.125 9.59375 C 30.082335 9.5642688 30.043202 9.5287555 30 9.5 C 29.780987 9.3538252 29.544615 9.2206304 29.3125 9.09375 C 29.292854 9.0831406 29.269735 9.0729672 29.25 9.0625 C 29.004673 8.9308536 28.758438 8.7964063 28.5 8.6875 C 28.490737 8.6836111 28.478029 8.6913589 28.46875 8.6875 C 28.210385 8.5795858 27.957577 8.4901611 27.6875 8.40625 C 27.678005 8.4033227 27.665758 8.4091469 27.65625 8.40625 C 27.105451 8.2371562 26.528469 8.0923961 25.9375 8.03125 C 25.927397 8.0302354 25.916363 8.0322316 25.90625 8.03125 C 25.605434 8.0011396 25.309006 8 25 8 L 24 8 z "
       id="path6743" />
    <path
       inkscape:connector-curvature="0"
       id="path906"
       d=""
       style="fill:#000000" />
    <flowRoot
       transform="translate(-18.261517,-1007.8751)"
       style="font-size:40px;font-style:normal;font-weight:normal;line-height:125%;letter-spacing:0px;word-spacing:0px;fill:#000000;fill-opacity:1;stroke:none;font-family:sans-serif"
       id="flowRoot61"
       xml:space="preserve"><flowRegion
         id="flowRegion63"><rect
           y="6.6342559"
           x="-53.033005"
           height="49.320694"
           width="57.6292"
           id="rect65" /></flowRegion><flowPara
         id="flowPara67" /></flowRoot>    <path
       id="rect6201-6"
       d="m 24,8 c -4.986,0 -9,4.014 -9,9 l 0,2 9,0 0,-3.09375 C 23.412983,15.702994 23,15.157875 23,14.5 l 0,-2 c 0,-0.657875 0.412983,-1.202994 1,-1.40625 L 24,8 z m 1,0 0,3.09375 c 0.587017,0.203256 1,0.748375 1,1.40625 l 0,2 c 0,0.657875 -0.412983,1.202994 -1,1.40625 L 25,19 l 9,0 0,-2 C 34,12.014 29.986,8 25,8 z m -10,12 0,8 c 0,4.986 4.014,9 9,9 l 1,0 c 4.986,0 9,-4.014 9,-9 l 0,-8 -19,0 z"
       style="color:#000000;fill:#000000;fill-opacity:1;fill-rule:nonzero;stroke:none;stroke-width:1;marker:none;visibility:visible;display:inline;overflow:visible;enable-background:accumulate;filter:url(#filter7031);opacity:0.6"
       inkscape:connector-curvature="0"
       clip-path="url(#clipPath7053)" />
  </g>
  <g
     style="display:inline"
     inkscape:label="icon"
     id="layer3"
     inkscape:groupmode="layer">
    <path
       id="rect6201"
       d="m 24,8 c -4.986,0 -9,4.014 -9,9 l 0,2 9,0 0,-3.09375 C 23.412983,15.702994 23,15.157875 23,14.5 l 0,-2 c 0,-0.657875 0.412983,-1.202994 1,-1.40625 L 24,8 z m 1,0 0,3.09375 c 0.587017,0.203256 1,0.748375 1,1.40625 l 0,2 c 0,0.657875 -0.412983,1.202994 -1,1.40625 L 25,19 l 9,0 0,-2 C 34,12.014 29.986,8 25,8 z m -10,12 0,8 c 0,4.986 4.014,9 9,9 l 1,0 c 4.986,0 9,-4.014 9,-9 l 0,-8 -19,0 z"
       style="color:#000000;fill:#ffffff;fill-opacity:1;fill-rule:nonzero;stroke:none;stroke-width:1;marker:none;visibility:visible;display:inline;overflow:visible;enable-background:accumulate"
       inkscape:connector-curvature="0" />
  </g>
  <g
     inkscape:label="hilight"
     id="layer4"
     inkscape:groupmode="layer">
    <path
       id="rect3006"
       d="M 2,0 C 0.892,0 0,0.892 0,2 l 0,44 c 0,1.108 0.892,2 2,2 l 44,0 c 1.108,0 2,-0.892 2,-2 L 48,2 C 48,0.892 47.108,0 46,0 L 2,0 z m 0,0.5 44,0 c 0.83101,0 1.5,0.6689904 1.5,1.5 l 0,44 c 0,0.83101 -0.66899,1.5 -1.5,1.5 l -44,0 C 1.1689904,47.5 0.5,46.83101 0.5,46 L 0.5,2 C 0.5,1.1689904 1.1689904,0.5 2,0.5 z"
       style="opacity:0.4;color:#000000;fill:url(#linearGradient12443);fill-opacity:1;fill-rule:nonzero;stroke:none;stroke-width:0.5;marker:none;visibility:visible;display:inline;overflow:visible;enable-background:accumulate"
       inkscape:connector-curvature="0" />
    <path
       id="rect3006-6"
       d="M 2,0 C 0.892,0 0,0.892 0,2 l 0,44 c 0,1.108 0.892,2 2,2 l 44,0 c 1.108,0 2,-0.892 2,-2 L 48,2 C 48,0.892 47.108,0 46,0 L 2,0 z m 0,0.5 44,0 c 0.83101,0 1.5,0.6689904 1.5,1.5 l 0,44 c 0,0.83101 -0.66899,1.5 -1.5,1.5 l -44,0 C 1.1689904,47.5 0.5,46.83101 0.5,46 L 0.5,2 C 0.5,1.1689904 1.1689904,0.5 2,0.5 z"
       style="opacity:0.40000000000000002;color:#000000;fill:url(#linearGradient3973);fill-opacity:1.0;fill-rule:nonzero;stroke:none;stroke-width:0.50000000000000000;marker:none;visibility:visible;display:inline;overflow:visible;enable-background:accumulate"
       inkscape:connector-curvature="0" />
  </g>
</svg>
