<?xml version="1.0" encoding="UTF-8" standalone="no"?>
<svg
   xmlns:dc="http://purl.org/dc/elements/1.1/"
   xmlns:cc="http://creativecommons.org/ns#"
   xmlns:rdf="http://www.w3.org/1999/02/22-rdf-syntax-ns#"
   xmlns:svg="http://www.w3.org/2000/svg"
   xmlns="http://www.w3.org/2000/svg"
   xmlns:xlink="http://www.w3.org/1999/xlink"
   xmlns:sodipodi="http://sodipodi.sourceforge.net/DTD/sodipodi-0.dtd"
   xmlns:inkscape="http://www.inkscape.org/namespaces/inkscape"
   height="48"
   width="48"
   version="1.1"
   id="svg2"
   inkscape:version="0.48.4 r9939"
   sodipodi:docname="preferences-desktop-theme.svg">
  <sodipodi:namedview
     pagecolor="#ffffff"
     bordercolor="#666666"
     borderopacity="1"
     objecttolerance="10"
     gridtolerance="10"
     guidetolerance="10"
     inkscape:pageopacity="0"
     inkscape:pageshadow="2"
     inkscape:window-width="1855"
     inkscape:window-height="1056"
     id="namedview47"
     showgrid="true"
     inkscape:zoom="13.906433"
     inkscape:cx="9.5861732"
     inkscape:cy="27.563277"
     inkscape:window-x="65"
     inkscape:window-y="24"
     inkscape:window-maximized="1"
     inkscape:current-layer="layer2">
    <inkscape:grid
       type="xygrid"
       id="grid3080" />
  </sodipodi:namedview>
  <metadata
     id="metadata49">
    <rdf:RDF>
      <cc:Work
         rdf:about="">
        <dc:format>image/svg+xml</dc:format>
        <dc:type
           rdf:resource="http://purl.org/dc/dcmitype/StillImage" />
        <dc:title />
      </cc:Work>
    </rdf:RDF>
  </metadata>
  <defs
     id="defs4">
    <linearGradient
       id="linearGradient12443"
       y2="3"
       gradientUnits="userSpaceOnUse"
       y1=".5"
       x2="27.5"
       x1="27.5">
      <stop
         stop-color="#fff"
         offset="0"
         id="stop7" />
      <stop
         stop-color="#fff"
         stop-opacity="0"
         offset="1"
         id="stop9" />
    </linearGradient>
    <linearGradient
       id="linearGradient12443-5"
       y2="3"
       gradientUnits="userSpaceOnUse"
       y1="0.5"
       x2="27.5"
       x1="27.5">
      <stop
         stop-color="#fff"
         offset="0"
         id="stop7-3" />
      <stop
         stop-color="#fff"
         stop-opacity="0"
         offset="1"
         id="stop9-8" />
    </linearGradient>
    <linearGradient
       y2="3"
       x2="27.5"
       y1="0.5"
       x1="27.5"
       gradientUnits="userSpaceOnUse"
       id="linearGradient3115"
       xlink:href="#linearGradient12443-5"
       inkscape:collect="always" />
    <filter
       inkscape:collect="always"
       id="filter4024"
       x="-0.118125"
       width="1.23625"
       y="-0.12193548"
       height="1.243871">
      <feGaussianBlur
         inkscape:collect="always"
         stdDeviation="1.575"
         id="feGaussianBlur4026" />
    </filter>
    <clipPath
       clipPathUnits="userSpaceOnUse"
       id="clipPath4046">
      <path
         inkscape:connector-curvature="0"
         style="opacity:0.25;fill:#000000;fill-opacity:1;stroke:none"
         d="m 12,11 c -1.108,0 -2,0.892 -2,2 l 0,2 -4,0 0,10 15,15 0,2 6,6 18.9375,0 c 1.108,0 2,-0.892 2,-2 l 0,-23.875 -10.53125,-10.53125 0,-0.03125 C 37.3591,11.51636 37.301536,11.47881 37.25,11.4375 c -0.0403,-0.0323 -0.08221,-0.0646 -0.125,-0.09375 -0.0075,-0.005 -0.02373,0.0049 -0.03125,0 C 36.777316,11.134055 36.409648,11 36,11 l -24,0 z"
         id="path4048" />
    </clipPath>
  </defs>
  <g
     inkscape:groupmode="layer"
     id="layer1"
     inkscape:label="base">
    <rect
       id="rect13"
       x="-0.0625"
       y="2.4414063e-05"
       width="48"
       height="48"
       ry="2"
       style="color:#000000;fill:#ff4141;fill-opacity:1;fill-rule:nonzero;stroke-width:1;stroke-linecap:butt;stroke-linejoin:miter;stroke-miterlimit:4;stroke-opacity:1;stroke-dasharray:none;stroke-dashoffset:0;marker:none;visibility:visible;display:inline;overflow:visible;enable-background:accumulate" />
    <path
       id="path15"
       d="m 5.0938,0 c 0.5651,0.55407 0.9171,1.3026 0.9374,2.1562 0.0415,1.7392 -1.3545,3.2086 -3.0937,3.25 -1.3734,0.0324 -2.5402,-0.8465 -3,-2.0624 v 24.5 l 0.9375,0.094 -0.0625,0.937 v 0.063 l 0.2813,1.75 v 0.062 l 1.3437,2.875 0.0625,0.125 h 0.1562 l 1.9376,-0.031 H 4.75 L 4.8125,33.5618 6,30.6248 v -0.031 l 0.2188,-1.782 v -0.062 l -0.125,-0.938 2.7812,-0.437 0.2188,0.875 h 0.0624 v 0.031 l 0.8126,1.563 v 0.062 h 0.0622 l 2.125,2.344 0.094,0.094 0.156,-0.032 1.844,-0.687 h 0.156 v -0.156 l 0.219,-3.219 v -0.031 l -0.344,-1.719 v -0.062 h -0.062 l -0.344,-0.813 2.469,-1.344 0.5,0.781 h 0.062 l 1.25,1.25 0.063,0.032 2.75,1.562 0.156,0.063 0.094,-0.063 1.531,-1.218 0.156,-0.094 -0.062,-0.156 -0.75,-3.063 -0.063,-0.063 -0.812,-1.5 v -0.062 h -0.063 l -0.594,-0.656 1.969,-2.063 0.688,0.563 v 0.062 h 0.062 l 1.531,0.75 0.063,0.032 3.125,0.624 0.125,0.032 0.094,-0.156 1.156,-1.594 0.063,-0.094 -0.063,-0.156 -1.687,-2.656 -0.063,-0.063 -1.313,-1.187 v -0.063 l -0.781,-0.469 1.219,-2.531 0.844,0.313 v 0.062 h 0.031 l 1.75,0.25 h 0.031 l 3.188,-0.375 h 0.156 v -0.156 l 0.594,-1.875 0.062,-0.156 -0.125,-0.094 -2.437,-2.0002 V 8.031 H 30.781 L 29.188,7.281 H 29.125 V 7.2498 L 28.25,7.0623 28.562,4.2498 29.5,4.3436 h 0.062 l 1.75,-0.3126 h 0.063 L 34.25,2.6873 34.406,2.656 34.375,2.4998 34.344,0.531 V 0.3748 L 34.188,0.34355 33.344,-2e-4 H 5.094 z m 15.218,6.5625 c 1.575,-0.037 3.462,2.8477 2.719,4.5625 -2.093,4.733 -5.822,8.59 -10.469,10.875 -1.697,0.667 -4.5255,-1.031 -4.562,-2.562 L 7.7186,6.844 20.3116,6.5625 z"
       style="text-indent:0;text-transform:none;block-progression:tb;opacity:0.25;color:#000000"
       inkscape:connector-curvature="0" />
    <path
       id="path17"
       d="m 40.906,11.906 -0.156,0.032 -1.969,0.25 -0.093,0.031 -0.063,0.125 -0.813,3.062 v 0.063 1.781 l -0.031,0.031 0.188,0.907 -2.688,0.843 -0.343,-0.843 0.031,-0.032 -0.031,-0.031 -1,-1.469 -0.032,-0.031 -2.437,-2.094 -0.094,-0.093 -0.094,0.093 -1.812,0.844 -0.125,0.063 v 0.156 l 0.187,3.156 -0.031,0.062 0.031,0.032 0.531,1.656 0.032,0.062 -0.032,0.032 0.5,0.75 -2.312,1.687 -0.562,-0.75 L 27.656,22.25 26.219,21.156 26.188,21.125 23.25,19.938 23.125,19.844 23,19.969 l -1.406,1.375 -0.094,0.094 0.062,0.124 1.094,3 0.032,0.032 1.062,1.437 0.031,0.031 0.75,0.594 -1.75,2.25 -0.75,-0.5 L 22,28.438 21.938,28.406 20.281,27.812 20.25,27.781 20.219,27.812 17.062,27.531 h -0.156 l -0.062,0.125 -0.906,1.782 -0.094,0.093 0.094,0.094 2.031,2.5 0.031,0.031 1.406,1.032 0.032,0.062 0.031,-0.062 0.843,0.374 -0.906,2.657 L 18.5,36 18.469,36.031 16.688,35.969 h -0.063 l -3.063,0.719 -0.156,0.093 -0.031,0.094 -0.313,1.937 -0.031,0.188 0.125,0.062 2.656,1.75 h 0.063 l 1.656,0.532 0.031,0.031 0.032,-0.031 0.906,0.094 -0.062,2.843 -0.907,0.063 -0.031,-0.032 -0.031,0.032 -1.625,0.5 H 15.75 l -2.688,1.656 -0.156,0.062 0.032,0.188 0.156,1.25 h 9.687 c -0.91,-4.157 -0.633,-8.525 0.875,-12.531 l 0.063,-0.157 c 0.079,-0.165 0.157,-0.323 0.281,-0.468 1.11,-1.294 3.821,-1.739 4.781,-0.75 L 37.562,43.156 32.594,48 h 13.344 c 1.108,0 2,-0.892 2,-2 V 33.062 l -3.594,3.5 -8.782,-9.031 c -0.959,-0.989 -0.451,-3.678 0.876,-4.75 0.187,-0.155 0.404,-0.266 0.624,-0.343 3.5,-1.201 7.259,-1.49 10.876,-0.876 v -8.656 l -1.25,1.906 v 0.063 l -0.563,1.625 -0.031,0.031 0.031,0.031 -0.063,0.907 -2.874,-0.031 -0.032,-0.907 0.032,-0.031 -0.032,-0.031 -0.5,-1.657 V 14.75 l -1.687,-2.719 -0.063,-0.125 z m 3.375,28.188 c 0.806,0.012 1.613,0.344 2.219,0.968 1.212,1.249 1.186,3.226 -0.062,4.438 C 45.189,46.712 43.212,46.686 42,45.438 40.788,44.189 40.814,42.212 42.062,41 c 0.625,-0.606 1.413,-0.918 2.219,-0.906 z"
       style="text-indent:0;text-transform:none;block-progression:tb;opacity:0.25;color:#000000"
       inkscape:connector-curvature="0" />
  </g>
  <g
     inkscape:groupmode="layer"
     id="layer2"
     inkscape:label="shadow">
    <path
       style="fill:#000000;stroke:none;fill-opacity:1;opacity:0.25"
       d="M 12 11 C 10.892 11 10 11.892 10 13 L 10 15 L 6 15 L 6 25 L 21 40 L 21 42 L 27 48 L 45.9375 48 C 47.0455 48 47.9375 47.108 47.9375 46 L 47.9375 22.125 L 37.40625 11.59375 L 37.40625 11.5625 C 37.359105 11.516362 37.301536 11.478806 37.25 11.4375 C 37.209696 11.405197 37.167791 11.3729 37.125 11.34375 C 37.117548 11.338723 37.101274 11.348678 37.09375 11.34375 C 36.777316 11.134055 36.409648 11 36 11 L 12 11 z "
       id="path3070" />
    <path
       sodipodi:nodetypes="ssccccccccccccccsssssss"
       inkscape:connector-curvature="0"
       id="rect3019-2"
       d="m 12,11 c -1.108,0 -2,0.892 -2,2 l 0,2 -4,0 0,10 17,0 0,3 -2,1 0,13 6,0 0,-13 -2,-1 0,-5 -17,0 0,-6 2,0 0,2 c 0,1.108 0.892,2 2,2 l 24,0 c 1.108,0 2,-0.892 2,-2 l 0,-6 c 0,-1.108 -0.892,-2 -2,-2 z"
       style="fill:#000000;stroke:none;display:inline;fill-opacity:1;filter:url(#filter4024);opacity:0.6"
       clip-path="url(#clipPath4046)" />
  </g>
  <g
     inkscape:groupmode="layer"
     id="layer3"
     inkscape:label="icon"
     style="display:inline">
    <path
       sodipodi:nodetypes="ssccccccccccccccsssssss"
       inkscape:connector-curvature="0"
       id="rect3019"
       d="m 12,11 c -1.108,0 -2,0.892 -2,2 l 0,2 -4,0 0,10 17,0 0,3 -2,1 0,13 6,0 0,-13 -2,-1 0,-5 -17,0 0,-6 2,0 0,2 c 0,1.108 0.892,2 2,2 l 24,0 c 1.108,0 2,-0.892 2,-2 l 0,-6 c 0,-1.108 -0.892,-2 -2,-2 z"
       style="fill:#ffffff;stroke:none" />
  </g>
  <g
     inkscape:groupmode="layer"
     id="layer4"
     inkscape:label="highlight"
     sodipodi:insensitive="true">
    <g
       id="g43">
      <path
         inkscape:connector-curvature="0"
         style="opacity:0.4;color:#000000;fill:url(#linearGradient3115)"
         d="M 2,0 C 0.892,0 0,0.892 0,2 v 44 c 0,1.108 0.892,2 2,2 h 44 c 1.108,0 2,-0.892 2,-2 V 2 C 48,0.892 47.108,0 46,0 H 2 z m 0,0.5 h 44 c 0.83101,0 1.5,0.66899 1.5,1.5 v 44 c 0,0.83101 -0.66899,1.5 -1.5,1.5 H 2 C 1.169,47.5 0.5,46.831 0.5,46 V 2 C 0.5,1.169 1.169,0.5 2,0.5 z"
         id="path45" />
    </g>
  </g>
</svg>
