<?xml version="1.0" encoding="UTF-8" standalone="no"?>
<svg
   xmlns:dc="http://purl.org/dc/elements/1.1/"
   xmlns:cc="http://creativecommons.org/ns#"
   xmlns:rdf="http://www.w3.org/1999/02/22-rdf-syntax-ns#"
   xmlns:svg="http://www.w3.org/2000/svg"
   xmlns="http://www.w3.org/2000/svg"
   xmlns:xlink="http://www.w3.org/1999/xlink"
   xmlns:sodipodi="http://sodipodi.sourceforge.net/DTD/sodipodi-0.dtd"
   xmlns:inkscape="http://www.inkscape.org/namespaces/inkscape"
   height="48"
   width="48"
   version="1.1"
   id="svg2"
   inkscape:version="0.48.4 r9939"
   sodipodi:docname="preferences-system-time.svg">
  <sodipodi:namedview
     pagecolor="#ffffff"
     bordercolor="#666666"
     borderopacity="1"
     objecttolerance="10"
     gridtolerance="10"
     guidetolerance="10"
     inkscape:pageopacity="0"
     inkscape:pageshadow="2"
     inkscape:window-width="1855"
     inkscape:window-height="1056"
     id="namedview47"
     showgrid="false"
     inkscape:zoom="9.8333333"
     inkscape:cx="9.028912"
     inkscape:cy="23.612293"
     inkscape:window-x="65"
     inkscape:window-y="24"
     inkscape:window-maximized="1"
     inkscape:current-layer="layer1">
    <inkscape:grid
       id="grid3080"
       type="xygrid" />
  </sodipodi:namedview>
  <metadata
     id="metadata49">
    <rdf:RDF>
      <cc:Work
         rdf:about="">
        <dc:format>image/svg+xml</dc:format>
        <dc:type
           rdf:resource="http://purl.org/dc/dcmitype/StillImage" />
        <dc:title />
      </cc:Work>
    </rdf:RDF>
  </metadata>
  <defs
     id="defs4">
    <linearGradient
       x1="27.5"
       x2="27.5"
       y1=".5"
       gradientUnits="userSpaceOnUse"
       y2="3"
       id="linearGradient12443">
      <stop
         id="stop7"
         offset="0"
         stop-color="#fff" />
      <stop
         id="stop9"
         offset="1"
         stop-opacity="0"
         stop-color="#fff" />
    </linearGradient>
    <linearGradient
       x1="27.5"
       x2="27.5"
       y1="0.5"
       gradientUnits="userSpaceOnUse"
       y2="3"
       id="linearGradient12443-5">
      <stop
         id="stop7-3"
         offset="0"
         stop-color="#fff" />
      <stop
         id="stop9-8"
         offset="1"
         stop-opacity="0"
         stop-color="#fff" />
    </linearGradient>
    <linearGradient
       inkscape:collect="always"
       xlink:href="#linearGradient12443-5"
       id="linearGradient3115"
       gradientUnits="userSpaceOnUse"
       x1="27.5"
       y1="0.5"
       x2="27.5"
       y2="3" />
  </defs>
  <g
     inkscape:label="base"
     id="layer1"
     inkscape:groupmode="layer">
    <rect
       style="color:#000000;fill:#ff6600"
       ry="2"
       height="48"
       width="48"
       y="2.4414063e-05"
       x="-0.0625"
       id="rect13" />
    <path
       inkscape:connector-curvature="0"
       style="text-indent:0;text-transform:none;block-progression:tb;opacity:0.25;color:#000000"
       d="m 5.0938,0 c 0.5651,0.55407 0.9171,1.3026 0.9374,2.1562 0.0415,1.7392 -1.3545,3.2086 -3.0937,3.25 -1.3734,0.0324 -2.5402,-0.8465 -3,-2.0624 v 24.5 l 0.9375,0.094 -0.0625,0.937 v 0.063 l 0.2813,1.75 v 0.062 l 1.3437,2.875 0.0625,0.125 h 0.1562 l 1.9376,-0.031 H 4.75 L 4.8125,33.5618 6,30.6248 v -0.031 l 0.2188,-1.782 v -0.062 l -0.125,-0.938 2.7812,-0.437 0.2188,0.875 h 0.0624 v 0.031 l 0.8126,1.563 v 0.062 h 0.0622 l 2.125,2.344 0.094,0.094 0.156,-0.032 1.844,-0.687 h 0.156 v -0.156 l 0.219,-3.219 v -0.031 l -0.344,-1.719 v -0.062 h -0.062 l -0.344,-0.813 2.469,-1.344 0.5,0.781 h 0.062 l 1.25,1.25 0.063,0.032 2.75,1.562 0.156,0.063 0.094,-0.063 1.531,-1.218 0.156,-0.094 -0.062,-0.156 -0.75,-3.063 -0.063,-0.063 -0.812,-1.5 v -0.062 h -0.063 l -0.594,-0.656 1.969,-2.063 0.688,0.563 v 0.062 h 0.062 l 1.531,0.75 0.063,0.032 3.125,0.624 0.125,0.032 0.094,-0.156 1.156,-1.594 0.063,-0.094 -0.063,-0.156 -1.687,-2.656 -0.063,-0.063 -1.313,-1.187 v -0.063 l -0.781,-0.469 1.219,-2.531 0.844,0.313 v 0.062 h 0.031 l 1.75,0.25 h 0.031 l 3.188,-0.375 h 0.156 v -0.156 l 0.594,-1.875 0.062,-0.156 -0.125,-0.094 -2.437,-2.0002 V 8.031 H 30.781 L 29.188,7.281 H 29.125 V 7.2498 L 28.25,7.0623 28.562,4.2498 29.5,4.3436 h 0.062 l 1.75,-0.3126 h 0.063 L 34.25,2.6873 34.406,2.656 34.375,2.4998 34.344,0.531 V 0.3748 L 34.188,0.34355 33.344,-2e-4 H 5.094 z m 15.218,6.5625 c 1.575,-0.037 3.462,2.8477 2.719,4.5625 -2.093,4.733 -5.822,8.59 -10.469,10.875 -1.697,0.667 -4.5255,-1.031 -4.562,-2.562 L 7.7186,6.844 20.3116,6.5625 z"
       id="path15" />
    <path
       inkscape:connector-curvature="0"
       style="text-indent:0;text-transform:none;block-progression:tb;opacity:0.25;color:#000000"
       d="m 40.906,11.906 -0.156,0.032 -1.969,0.25 -0.093,0.031 -0.063,0.125 -0.813,3.062 v 0.063 1.781 l -0.031,0.031 0.188,0.907 -2.688,0.843 -0.343,-0.843 0.031,-0.032 -0.031,-0.031 -1,-1.469 -0.032,-0.031 -2.437,-2.094 -0.094,-0.093 -0.094,0.093 -1.812,0.844 -0.125,0.063 v 0.156 l 0.187,3.156 -0.031,0.062 0.031,0.032 0.531,1.656 0.032,0.062 -0.032,0.032 0.5,0.75 -2.312,1.687 -0.562,-0.75 L 27.656,22.25 26.219,21.156 26.188,21.125 23.25,19.938 23.125,19.844 23,19.969 l -1.406,1.375 -0.094,0.094 0.062,0.124 1.094,3 0.032,0.032 1.062,1.437 0.031,0.031 0.75,0.594 -1.75,2.25 -0.75,-0.5 L 22,28.438 21.938,28.406 20.281,27.812 20.25,27.781 20.219,27.812 17.062,27.531 h -0.156 l -0.062,0.125 -0.906,1.782 -0.094,0.093 0.094,0.094 2.031,2.5 0.031,0.031 1.406,1.032 0.032,0.062 0.031,-0.062 0.843,0.374 -0.906,2.657 L 18.5,36 18.469,36.031 16.688,35.969 h -0.063 l -3.063,0.719 -0.156,0.093 -0.031,0.094 -0.313,1.937 -0.031,0.188 0.125,0.062 2.656,1.75 h 0.063 l 1.656,0.532 0.031,0.031 0.032,-0.031 0.906,0.094 -0.062,2.843 -0.907,0.063 -0.031,-0.032 -0.031,0.032 -1.625,0.5 H 15.75 l -2.688,1.656 -0.156,0.062 0.032,0.188 0.156,1.25 h 9.687 c -0.91,-4.157 -0.633,-8.525 0.875,-12.531 l 0.063,-0.157 c 0.079,-0.165 0.157,-0.323 0.281,-0.468 1.11,-1.294 3.821,-1.739 4.781,-0.75 L 37.562,43.156 32.594,48 h 13.344 c 1.108,0 2,-0.892 2,-2 V 33.062 l -3.594,3.5 -8.782,-9.031 c -0.959,-0.989 -0.451,-3.678 0.876,-4.75 0.187,-0.155 0.404,-0.266 0.624,-0.343 3.5,-1.201 7.259,-1.49 10.876,-0.876 v -8.656 l -1.25,1.906 v 0.063 l -0.563,1.625 -0.031,0.031 0.031,0.031 -0.063,0.907 -2.874,-0.031 -0.032,-0.907 0.032,-0.031 -0.032,-0.031 -0.5,-1.657 V 14.75 l -1.687,-2.719 -0.063,-0.125 z m 3.375,28.188 c 0.806,0.012 1.613,0.344 2.219,0.968 1.212,1.249 1.186,3.226 -0.062,4.438 C 45.189,46.712 43.212,46.686 42,45.438 40.788,44.189 40.814,42.212 42.062,41 c 0.625,-0.606 1.413,-0.918 2.219,-0.906 z"
       id="path17" />
  </g>
  <g
     inkscape:label="shadow"
     id="layer2"
     inkscape:groupmode="layer">
    <path
       style="color:#000000;fill:#000000;fill-opacity:1;fill-rule:nonzero;stroke:none;stroke-width:0.50000000000000000;marker:none;visibility:visible;opacity:0.25"
       d="M 24 8 C 19.905243 8.0000002 15.811694 9.5633056 12.6875 12.6875 C 6.4391112 18.935888 6.4391118 29.064112 12.6875 35.3125 L 25.375 48 L 45.9375 48 C 47.0455 48 47.9375 47.108 47.9375 46 L 47.9375 25.3125 L 35.3125 12.6875 C 32.188306 9.5633059 28.094757 7.9999998 24 8 z "
       id="path3255" />
  </g>
  <g
     style="display:inline"
     inkscape:label="icon"
     id="layer3"
     inkscape:groupmode="layer">
    <path
       id="path3206-1"
       d="m 35.313708,12.686292 c 6.248389,6.248388 6.248389,16.379028 0,22.627416 -6.248388,6.248389 -16.379028,6.248389 -22.627416,0 -6.2483892,-6.248388 -6.2483892,-16.379028 0,-22.627416 6.248388,-6.2483892 16.379028,-6.2483892 22.627416,0 z"
       style="color:#000000;fill:#ffffff;fill-opacity:1;fill-rule:nonzero;stroke:none;stroke-width:0.50000000000000000;marker:none;visibility:visible;display:inline;overflow:visible;enable-background:accumulate;opacity:0.6"
       inkscape:connector-curvature="0" />
    <path
       inkscape:connector-curvature="0"
       style="fill:none;stroke:#ffffff;stroke-width:2.85409259999999998;stroke-linecap:round"
       d="M 38.572954,24 C 38.572954,32.04979 32.049791,38.572953 24,38.572953 15.95021,38.572953 9.4270469,32.04979 9.4270469,24 9.4270469,15.953542 15.95021,9.4270462 24,9.4270462 32.049791,9.4270462 38.572954,15.953542 38.572954,24 z"
       id="path8" />
    <path
       inkscape:connector-curvature="0"
       style="fill:none;stroke:#ffffff;stroke-width:3.56262349999999994;stroke-linecap:round"
       d="m 23.89333,16.313516 0,7.323136 6.656487,6.65982"
       id="path10" />
    <path
       inkscape:connector-curvature="0"
       d="m 23.996662,11.433648 0,1.943282"
       id="path14"
       style="fill:none;stroke:#ffffff;stroke-width:0.62142317999999996;stroke-linecap:round" />
    <path
       inkscape:connector-curvature="0"
       d="m 23.996662,34.709686 0,1.939947"
       id="path16"
       style="fill:none;stroke:#ffffff;stroke-width:0.62142317999999996;stroke-linecap:round" />
    <path
       inkscape:connector-curvature="0"
       d="m 11.467,24.259968 1.943281,0"
       id="path18"
       style="fill:none;stroke:#ffffff;stroke-width:0.62142317999999996;stroke-linecap:round" />
    <path
       inkscape:connector-curvature="0"
       d="m 34.466378,24.259968 1.943281,0"
       id="path20"
       style="fill:none;stroke:#ffffff;stroke-width:0.62142317999999996;stroke-linecap:round" />
  </g>
  <g
     sodipodi:insensitive="true"
     inkscape:label="highlight"
     id="layer4"
     inkscape:groupmode="layer">
    <g
       id="g43">
      <path
         id="path45"
         d="M 2,0 C 0.892,0 0,0.892 0,2 v 44 c 0,1.108 0.892,2 2,2 h 44 c 1.108,0 2,-0.892 2,-2 V 2 C 48,0.892 47.108,0 46,0 H 2 z m 0,0.5 h 44 c 0.83101,0 1.5,0.66899 1.5,1.5 v 44 c 0,0.83101 -0.66899,1.5 -1.5,1.5 H 2 C 1.169,47.5 0.5,46.831 0.5,46 V 2 C 0.5,1.169 1.169,0.5 2,0.5 z"
         style="opacity:0.4;color:#000000;fill:url(#linearGradient3115)"
         inkscape:connector-curvature="0" />
    </g>
  </g>
</svg>
