<?xml version="1.0" encoding="UTF-8" standalone="no"?>
<svg
   xmlns:dc="http://purl.org/dc/elements/1.1/"
   xmlns:cc="http://creativecommons.org/ns#"
   xmlns:rdf="http://www.w3.org/1999/02/22-rdf-syntax-ns#"
   xmlns:svg="http://www.w3.org/2000/svg"
   xmlns="http://www.w3.org/2000/svg"
   xmlns:xlink="http://www.w3.org/1999/xlink"
   xmlns:sodipodi="http://sodipodi.sourceforge.net/DTD/sodipodi-0.dtd"
   xmlns:inkscape="http://www.inkscape.org/namespaces/inkscape"
   height="48"
   width="48"
   version="1.1"
   id="svg2"
   inkscape:version="0.48.4 r9939"
   sodipodi:docname="preferences-system-privacy.svg">
  <sodipodi:namedview
     pagecolor="#ffffff"
     bordercolor="#666666"
     borderopacity="1"
     objecttolerance="10"
     gridtolerance="10"
     guidetolerance="10"
     inkscape:pageopacity="0"
     inkscape:pageshadow="2"
     inkscape:window-width="1855"
     inkscape:window-height="1056"
     id="namedview47"
     showgrid="false"
     inkscape:zoom="9.8333333"
     inkscape:cx="21.326619"
     inkscape:cy="26.378409"
     inkscape:window-x="65"
     inkscape:window-y="24"
     inkscape:window-maximized="1"
     inkscape:current-layer="layer2">
    <inkscape:grid
       type="xygrid"
       id="grid3080" />
  </sodipodi:namedview>
  <metadata
     id="metadata49">
    <rdf:RDF>
      <cc:Work
         rdf:about="">
        <dc:format>image/svg+xml</dc:format>
        <dc:type
           rdf:resource="http://purl.org/dc/dcmitype/StillImage" />
        <dc:title />
      </cc:Work>
    </rdf:RDF>
  </metadata>
  <defs
     id="defs4">
    <linearGradient
       id="linearGradient12443"
       y2="3"
       gradientUnits="userSpaceOnUse"
       y1=".5"
       x2="27.5"
       x1="27.5">
      <stop
         stop-color="#fff"
         offset="0"
         id="stop7" />
      <stop
         stop-color="#fff"
         stop-opacity="0"
         offset="1"
         id="stop9" />
    </linearGradient>
    <linearGradient
       id="linearGradient12443-5"
       y2="3"
       gradientUnits="userSpaceOnUse"
       y1="0.5"
       x2="27.5"
       x1="27.5">
      <stop
         stop-color="#fff"
         offset="0"
         id="stop7-3" />
      <stop
         stop-color="#fff"
         stop-opacity="0"
         offset="1"
         id="stop9-8" />
    </linearGradient>
    <linearGradient
       y2="3"
       x2="27.5"
       y1="0.5"
       x1="27.5"
       gradientUnits="userSpaceOnUse"
       id="linearGradient3115"
       xlink:href="#linearGradient12443-5"
       inkscape:collect="always" />
    <linearGradient
       id="linearGradient4571">
      <stop
         id="stop4573"
         offset="0"
         style="stop-color:#ecf1f3;stop-opacity:1;" />
      <stop
         id="stop4575"
         offset="1"
         style="stop-color:#c5cacc;stop-opacity:1;" />
    </linearGradient>
    <linearGradient
       id="linearGradient4699"
       inkscape:collect="always">
      <stop
         id="stop4701"
         offset="0"
         style="stop-color:#19aeff;stop-opacity:1;" />
      <stop
         id="stop4703"
         offset="1"
         style="stop-color:#19aeff;stop-opacity:0;" />
    </linearGradient>
    <linearGradient
       id="linearGradient4691"
       inkscape:collect="always">
      <stop
         id="stop4693"
         offset="0"
         style="stop-color:#19aeff;stop-opacity:1;" />
      <stop
         id="stop4695"
         offset="1"
         style="stop-color:#19aeff;stop-opacity:0;" />
    </linearGradient>
    <linearGradient
       id="linearGradient4665">
      <stop
         id="stop4667"
         offset="0"
         style="stop-color:#95dbff;stop-opacity:1;" />
      <stop
         id="stop4669"
         offset="1"
         style="stop-color:#006ba2;stop-opacity:1;" />
    </linearGradient>
    <linearGradient
       id="linearGradient4634">
      <stop
         id="stop4636"
         offset="0"
         style="stop-color:#000000;stop-opacity:0.38414633;" />
      <stop
         id="stop4638"
         offset="1"
         style="stop-color:#000000;stop-opacity:0;" />
    </linearGradient>
    <linearGradient
       gradientUnits="userSpaceOnUse"
       y2="28"
       x2="25"
       y1="3"
       x1="3"
       id="linearGradient3821-9"
       xlink:href="#linearGradient3815-5"
       inkscape:collect="always" />
    <linearGradient
       id="linearGradient3815-5"
       inkscape:collect="always">
      <stop
         id="stop3817-1"
         offset="0"
         style="stop-color:#ffffff;stop-opacity:1;" />
      <stop
         id="stop3819-9"
         offset="1"
         style="stop-color:#ffffff;stop-opacity:0;" />
    </linearGradient>
    <linearGradient
       gradientUnits="userSpaceOnUse"
       y2="1047.3622"
       x2="42.5"
       y1="1049.8622"
       x1="45"
       id="linearGradient4697"
       xlink:href="#linearGradient4691"
       inkscape:collect="always" />
    <linearGradient
       gradientUnits="userSpaceOnUse"
       y2="3"
       x2="27.5"
       y1="0.5"
       x1="27.5"
       id="linearGradient4705"
       xlink:href="#linearGradient4699"
       inkscape:collect="always" />
    <linearGradient
       gradientUnits="userSpaceOnUse"
       y2="1047.3622"
       x2="42.5"
       y1="1049.8622"
       x1="45"
       id="linearGradient4697-1"
       xlink:href="#linearGradient4691-0"
       inkscape:collect="always" />
    <linearGradient
       id="linearGradient4691-0"
       inkscape:collect="always">
      <stop
         id="stop4693-5"
         offset="0"
         style="stop-color:#19aeff;stop-opacity:1;" />
      <stop
         id="stop4695-5"
         offset="1"
         style="stop-color:#19aeff;stop-opacity:0;" />
    </linearGradient>
    <linearGradient
       inkscape:collect="always"
       xlink:href="#linearGradient4699-1"
       id="linearGradient12409"
       gradientUnits="userSpaceOnUse"
       x1="45"
       y1="1049.8622"
       x2="42.5"
       y2="1047.3622"
       gradientTransform="translate(0,-1004.3622)" />
    <linearGradient
       gradientUnits="userSpaceOnUse"
       y2="3"
       x2="27.5"
       y1="0.5"
       x1="27.5"
       id="linearGradient4705-1"
       xlink:href="#linearGradient4699-1"
       inkscape:collect="always" />
    <linearGradient
       id="linearGradient4699-1">
      <stop
         id="stop4701-3"
         offset="0"
         style="stop-color:#ffffff;stop-opacity:1;" />
      <stop
         id="stop4703-4"
         offset="1"
         style="stop-color:#ffffff;stop-opacity:0;" />
    </linearGradient>
    <linearGradient
       inkscape:collect="always"
       xlink:href="#linearGradient4699-1"
       id="linearGradient12443-1"
       gradientUnits="userSpaceOnUse"
       x1="27.5"
       y1="0.5"
       x2="27.5"
       y2="3" />
    <clipPath
       id="clipPath3856"
       clipPathUnits="userSpaceOnUse">
      <path
         inkscape:connector-curvature="0"
         id="path3858"
         d="m 27.84375,12.03125 -15.4375,15.4375 8.125,8.125 L 32.9375,48 46,48 c 1.108,0 2,-0.892 2,-2 l 0,-13.8125 -12.03125,-12.03125 -8.125,-8.125 z m 10.5625,2.4375 0,3.25 -1.625,1.625 L 48,30.5625 l 0,-6.5 -9.59375,-9.59375 z m -18.6875,21.9375 -8.9375,2.4375 -1.625,0 L 18.3125,48 l 13,0 -11.59375,-11.59375 z"
         style="opacity:0.3;fill:#000000;fill-opacity:1;stroke:none;display:inline" />
    </clipPath>
    <clipPath
       id="clipPath4492"
       clipPathUnits="userSpaceOnUse">
      <path
         id="path4494"
         d="m 28.28125,11 c -0.382978,-0.015 -0.701309,0.2118 -0.65625,0.625 l 0,0.9375 c 0.0028,0.107535 0.03337,0.206152 0.0625,0.28125 0.0077,0.0185 0.02221,0.04583 0.03125,0.0625 0.02417,0.04365 0.03048,0.09298 0.0625,0.125 l 0.09375,0.0625 1.6875,1.71875 c -0.09694,0.107303 -0.236384,0.234525 -0.40625,0.40625 l -2.28125,2.375 -6.4375,-6.4375 c -0.08266,-0.08266 -0.181553,-0.128868 -0.34375,-0.125 l -9.25,0 c -0.337919,-0.015 -0.585021,0.2799 -0.5625,0.625 l 0,1.03125 c -3.5e-4,0.08677 0.0032,0.174519 0.03125,0.25 0.02085,0.0575 0.05938,0.108056 0.09375,0.15625 0.01247,0.01766 0.0172,0.0463 0.03125,0.0625 0.0091,0.01035 0.02154,0.02154 0.03125,0.03125 l 0.15625,0.125 1.65625,1.65625 0,0.03125 0,21.53125 c -0.0083,0.0885 -0.01311,0.187768 0,0.25 0.0079,0.0311 0.01605,0.06838 0.03125,0.09375 0.01199,0.02047 0.01402,0.04527 0.03125,0.0625 L 23.40625,48 46,48 c 1.108,0 2,-0.892 2,-2 L 48,21.59375 37.65625,11.25 c -0.01519,-0.03494 -0.03721,-0.06556 -0.0625,-0.09375 -0.0095,-0.0095 -0.02057,-0.02275 -0.03125,-0.03125 -0.03337,-0.02893 -0.07961,-0.04528 -0.125,-0.0625 -0.0085,-0.0029 -0.02235,0.0024 -0.03125,0 -0.0577,-0.01753 -0.114282,-0.03502 -0.1875,-0.03125 L 28.28125,11 z"
         style="opacity:0.3;fill:#000000;fill-opacity:1;fill-rule:evenodd;stroke-width:0.25;display:inline"
         inkscape:connector-curvature="0" />
    </clipPath>
    <linearGradient
       gradientUnits="userSpaceOnUse"
       y2="1007.3218"
       x2="40.915409"
       y1="1049.3521"
       x1="40.915409"
       id="linearGradient6778"
       xlink:href="#linearGradient6772"
       inkscape:collect="always"
       gradientTransform="translate(7.7392578e-7,4.2609766e-5)" />
    <linearGradient
       id="linearGradient6772"
       inkscape:collect="always">
      <stop
         id="stop6774"
         offset="0"
         style="stop-color:#efe963;stop-opacity:1" />
      <stop
         id="stop6776"
         offset="1"
         style="stop-color:#fcf982;stop-opacity:1" />
    </linearGradient>
    <linearGradient
       y2="1007.3218"
       x2="40.915409"
       y1="1049.3521"
       x1="40.915409"
       gradientTransform="translate(-84.249997,-4.7499109)"
       gradientUnits="userSpaceOnUse"
       id="linearGradient3085"
       xlink:href="#linearGradient6772"
       inkscape:collect="always" />
    <clipPath
       clipPathUnits="userSpaceOnUse"
       id="clipPath4331">
      <path
         inkscape:connector-curvature="0"
         style="color:#000000;fill:#0e232e;fill-opacity:0.48709681;fill-rule:nonzero;stroke:none;stroke-width:0.5;marker:none;visibility:visible;display:inline"
         d="m 23.75,7.5625 c -3.451779,0 -6.25,2.7982 -6.25,6.25 l 0,4.6875 c 0,0.330092 0.136168,0.620764 0.34375,0.84375 0.01016,0.01092 0.02071,0.02071 0.03125,0.03125 L 20.96875,22.5 14.5,22.5 c -1.108,0 -2,0.892 -2,2 l 0,13.5 c 0,0.164967 0.02519,0.315591 0.0625,0.46875 0.0262,0.107537 0.05103,0.212656 0.09375,0.3125 0.03933,0.09214 0.104041,0.165705 0.15625,0.25 0.03201,0.05189 0.05727,0.107675 0.09375,0.15625 0.02233,0.02974 0.03857,0.06534 0.0625,0.09375 0.0417,0.04964 0.07872,0.110926 0.125,0.15625 0.04721,0.04594 0.104619,0.08384 0.15625,0.125 L 21.6875,48 46,48 c 1.108,0 2,-0.892 2,-2 L 48,29.25 28.4375,9.6875 C 28.344943,9.5817008 28.255631,9.4742937 28.15625,9.375 28.12092,9.339674 28.06741,9.315722 28.03125,9.28125 27.918981,9.1744958 27.807452,9.0669564 27.6875,8.96875 27.6578,8.944221 27.62391,8.930234 27.59375,8.90625 27.471947,8.81012 27.34765,8.7119582 27.21875,8.625 27.18719,8.603662 27.15696,8.58327 27.125,8.5625 26.990501,8.475245 26.860145,8.3893571 26.71875,8.3125 26.69063,8.297207 26.65338,8.296119 26.625,8.28125 26.494088,8.212761 26.35495,8.1529625 26.21875,8.09375 26.17651,8.075309 26.13647,8.048772 26.09375,8.03125 25.933803,7.965967 25.760065,7.8957447 25.59375,7.84375 25.57208,7.837004 25.553022,7.8190142 25.53125,7.8125 25.352378,7.7587466 25.185323,7.7251536 25,7.6875 24.9901,7.68547 24.97866,7.68948 24.96875,7.6875 24.77271,7.6487168 24.577293,7.6136138 24.375,7.59375 24.165984,7.5725195 23.964744,7.5625 23.75,7.5625 z"
         id="path4333" />
    </clipPath>
    <linearGradient
       gradientUnits="userSpaceOnUse"
       y2="23"
       x2="36"
       y1="11.155961"
       x1="24.551146"
       id="linearGradient4579"
       xlink:href="#linearGradient4571"
       inkscape:collect="always" />
    <clipPath
       id="clipPath3071"
       clipPathUnits="userSpaceOnUse">
      <path
         inkscape:connector-curvature="0"
         style="opacity:0.25;color:#000000;fill:#000000;fill-opacity:1;fill-rule:nonzero;stroke:none;stroke-width:0.5;marker:none;visibility:visible;display:inline"
         d="m 24,6 c -3.313709,0 -6,2.6862912 -6,6 l 0,5 5,5 -9,0 c -1.108,0 -2,0.892 -2,2 l 0,14 c 0,0.421192 0.123088,0.803368 0.34375,1.125 0.07174,0.106367 0.159625,0.190875 0.25,0.28125 0.0056,0.0056 -0.0056,0.02572 0,0.03125 L 21.15625,48 46,48 c 1.108,0 2,-0.892 2,-2 L 48,27.5 28.25,7.75 C 27.164213,6.6642136 25.656854,6 24,6 z"
         id="path3073" />
    </clipPath>
  </defs>
  <g
     inkscape:groupmode="layer"
     id="layer1"
     inkscape:label="base">
    <rect
       id="rect13"
       x="-0.0625"
       y="2.4414063e-05"
       width="48"
       height="48"
       ry="2"
       style="color:#000000;fill:#d76cff;fill-opacity:1;fill-rule:nonzero;stroke-width:1;stroke-linecap:butt;stroke-linejoin:miter;stroke-miterlimit:4;stroke-opacity:1;stroke-dasharray:none;stroke-dashoffset:0;marker:none;visibility:visible;display:inline;overflow:visible;enable-background:accumulate" />
    <path
       id="path15"
       d="m 5.0938,0 c 0.5651,0.55407 0.9171,1.3026 0.9374,2.1562 0.0415,1.7392 -1.3545,3.2086 -3.0937,3.25 -1.3734,0.0324 -2.5402,-0.8465 -3,-2.0624 v 24.5 l 0.9375,0.094 -0.0625,0.937 v 0.063 l 0.2813,1.75 v 0.062 l 1.3437,2.875 0.0625,0.125 h 0.1562 l 1.9376,-0.031 H 4.75 L 4.8125,33.5618 6,30.6248 v -0.031 l 0.2188,-1.782 v -0.062 l -0.125,-0.938 2.7812,-0.437 0.2188,0.875 h 0.0624 v 0.031 l 0.8126,1.563 v 0.062 h 0.0622 l 2.125,2.344 0.094,0.094 0.156,-0.032 1.844,-0.687 h 0.156 v -0.156 l 0.219,-3.219 v -0.031 l -0.344,-1.719 v -0.062 h -0.062 l -0.344,-0.813 2.469,-1.344 0.5,0.781 h 0.062 l 1.25,1.25 0.063,0.032 2.75,1.562 0.156,0.063 0.094,-0.063 1.531,-1.218 0.156,-0.094 -0.062,-0.156 -0.75,-3.063 -0.063,-0.063 -0.812,-1.5 v -0.062 h -0.063 l -0.594,-0.656 1.969,-2.063 0.688,0.563 v 0.062 h 0.062 l 1.531,0.75 0.063,0.032 3.125,0.624 0.125,0.032 0.094,-0.156 1.156,-1.594 0.063,-0.094 -0.063,-0.156 -1.687,-2.656 -0.063,-0.063 -1.313,-1.187 v -0.063 l -0.781,-0.469 1.219,-2.531 0.844,0.313 v 0.062 h 0.031 l 1.75,0.25 h 0.031 l 3.188,-0.375 h 0.156 v -0.156 l 0.594,-1.875 0.062,-0.156 -0.125,-0.094 -2.437,-2.0002 V 8.031 H 30.781 L 29.188,7.281 H 29.125 V 7.2498 L 28.25,7.0623 28.562,4.2498 29.5,4.3436 h 0.062 l 1.75,-0.3126 h 0.063 L 34.25,2.6873 34.406,2.656 34.375,2.4998 34.344,0.531 V 0.3748 L 34.188,0.34355 33.344,-2e-4 H 5.094 z m 15.218,6.5625 c 1.575,-0.037 3.462,2.8477 2.719,4.5625 -2.093,4.733 -5.822,8.59 -10.469,10.875 -1.697,0.667 -4.5255,-1.031 -4.562,-2.562 L 7.7186,6.844 20.3116,6.5625 z"
       style="text-indent:0;text-transform:none;block-progression:tb;opacity:0.25;color:#000000"
       inkscape:connector-curvature="0" />
    <path
       id="path17"
       d="m 40.906,11.906 -0.156,0.032 -1.969,0.25 -0.093,0.031 -0.063,0.125 -0.813,3.062 v 0.063 1.781 l -0.031,0.031 0.188,0.907 -2.688,0.843 -0.343,-0.843 0.031,-0.032 -0.031,-0.031 -1,-1.469 -0.032,-0.031 -2.437,-2.094 -0.094,-0.093 -0.094,0.093 -1.812,0.844 -0.125,0.063 v 0.156 l 0.187,3.156 -0.031,0.062 0.031,0.032 0.531,1.656 0.032,0.062 -0.032,0.032 0.5,0.75 -2.312,1.687 -0.562,-0.75 L 27.656,22.25 26.219,21.156 26.188,21.125 23.25,19.938 23.125,19.844 23,19.969 l -1.406,1.375 -0.094,0.094 0.062,0.124 1.094,3 0.032,0.032 1.062,1.437 0.031,0.031 0.75,0.594 -1.75,2.25 -0.75,-0.5 L 22,28.438 21.938,28.406 20.281,27.812 20.25,27.781 20.219,27.812 17.062,27.531 h -0.156 l -0.062,0.125 -0.906,1.782 -0.094,0.093 0.094,0.094 2.031,2.5 0.031,0.031 1.406,1.032 0.032,0.062 0.031,-0.062 0.843,0.374 -0.906,2.657 L 18.5,36 18.469,36.031 16.688,35.969 h -0.063 l -3.063,0.719 -0.156,0.093 -0.031,0.094 -0.313,1.937 -0.031,0.188 0.125,0.062 2.656,1.75 h 0.063 l 1.656,0.532 0.031,0.031 0.032,-0.031 0.906,0.094 -0.062,2.843 -0.907,0.063 -0.031,-0.032 -0.031,0.032 -1.625,0.5 H 15.75 l -2.688,1.656 -0.156,0.062 0.032,0.188 0.156,1.25 h 9.687 c -0.91,-4.157 -0.633,-8.525 0.875,-12.531 l 0.063,-0.157 c 0.079,-0.165 0.157,-0.323 0.281,-0.468 1.11,-1.294 3.821,-1.739 4.781,-0.75 L 37.562,43.156 32.594,48 h 13.344 c 1.108,0 2,-0.892 2,-2 V 33.062 l -3.594,3.5 -8.782,-9.031 c -0.959,-0.989 -0.451,-3.678 0.876,-4.75 0.187,-0.155 0.404,-0.266 0.624,-0.343 3.5,-1.201 7.259,-1.49 10.876,-0.876 v -8.656 l -1.25,1.906 v 0.063 l -0.563,1.625 -0.031,0.031 0.031,0.031 -0.063,0.907 -2.874,-0.031 -0.032,-0.907 0.032,-0.031 -0.032,-0.031 -0.5,-1.657 V 14.75 l -1.687,-2.719 -0.063,-0.125 z m 3.375,28.188 c 0.806,0.012 1.613,0.344 2.219,0.968 1.212,1.249 1.186,3.226 -0.062,4.438 C 45.189,46.712 43.212,46.686 42,45.438 40.788,44.189 40.814,42.212 42.062,41 c 0.625,-0.606 1.413,-0.918 2.219,-0.906 z"
       style="text-indent:0;text-transform:none;block-progression:tb;opacity:0.25;color:#000000"
       inkscape:connector-curvature="0" />
  </g>
  <g
     inkscape:groupmode="layer"
     id="layer2"
     inkscape:label="shadow">
    <path
       style="color:#000000;fill:#000000;fill-opacity:1;fill-rule:nonzero;stroke:none;stroke-width:0.50000000000000000;marker:none;visibility:visible;opacity:0.35"
       d="M 24 7 C 20.686291 7 18 9.6862912 18 13 L 18 18 L 23 23 L 14 23 C 12.892 23 12 23.892 12 25 L 12 39 C 12 39.421192 12.123088 39.803368 12.34375 40.125 C 12.415492 40.231367 12.503375 40.315875 12.59375 40.40625 C 12.599329 40.411844 12.588105 40.431973 12.59375 40.4375 L 20.15625 48 L 45.9375 48 C 47.0455 48 47.9375 47.108 47.9375 46 L 47.9375 28.46875 L 28.25 8.75 C 27.164213 7.6642136 25.656854 7 24 7 z "
       id="path4887" />
  </g>
  <g
     inkscape:groupmode="layer"
     id="layer3"
     inkscape:label="icon"
     style="display:inline">
    <g
       id="layer3-0"
       inkscape:label="icon"
       style="fill:#ffffff;display:inline"
       transform="translate(0,1)">
      <path
         inkscape:connector-curvature="0"
         id="path3890"
         d="m 24,6 c -3.313709,0 -6,2.6862912 -6,6 l 0,5 3,0 0,-5 c 0,-1.656854 1.343146,-3.0000001 3,-3 1.656854,10e-8 3,1.343146 3,3 l 0,10 -13,0 c -1.108,0 -2,0.892 -2,2 l 0,14 c 0,1.108 0.892,2 2,2 l 20,0 c 1.108,0 2,-0.892 2,-2 l 0,-14 c 0,-1.108 -0.892,-2 -2,-2 l -3,0 -1,0 0,-10 C 30,8.6862912 27.313709,6 24,6 z m 0,21 c 1.104569,0 2,0.895431 2,2 0,0.739604 -0.403104,1.372707 -1,1.71875 L 25,35 23,35 23,30.71875 C 22.403104,30.372707 22,29.739604 22,29 c 0,-1.104569 0.895431,-2 2,-2 z"
         style="color:#000000;fill:#ffffff;fill-opacity:1;fill-rule:nonzero;stroke:none;stroke-width:0.5;marker:none;visibility:visible;display:inline;overflow:visible;enable-background:accumulate" />
    </g>
  </g>
  <g
     inkscape:groupmode="layer"
     id="layer4"
     inkscape:label="highlight"
     sodipodi:insensitive="true">
    <g
       id="g43">
      <path
         inkscape:connector-curvature="0"
         style="opacity:0.4;color:#000000;fill:url(#linearGradient3115)"
         d="M 2,0 C 0.892,0 0,0.892 0,2 v 44 c 0,1.108 0.892,2 2,2 h 44 c 1.108,0 2,-0.892 2,-2 V 2 C 48,0.892 47.108,0 46,0 H 2 z m 0,0.5 h 44 c 0.83101,0 1.5,0.66899 1.5,1.5 v 44 c 0,0.83101 -0.66899,1.5 -1.5,1.5 H 2 C 1.169,47.5 0.5,46.831 0.5,46 V 2 C 0.5,1.169 1.169,0.5 2,0.5 z"
         id="path45" />
    </g>
  </g>
</svg>
