<?xml version="1.0" encoding="UTF-8" standalone="no"?>
<!-- Created with Inkscape (http://www.inkscape.org/) -->

<svg
   xmlns:dc="http://purl.org/dc/elements/1.1/"
   xmlns:cc="http://creativecommons.org/ns#"
   xmlns:rdf="http://www.w3.org/1999/02/22-rdf-syntax-ns#"
   xmlns:svg="http://www.w3.org/2000/svg"
   xmlns="http://www.w3.org/2000/svg"
   xmlns:xlink="http://www.w3.org/1999/xlink"
   xmlns:sodipodi="http://sodipodi.sourceforge.net/DTD/sodipodi-0.dtd"
   xmlns:inkscape="http://www.inkscape.org/namespaces/inkscape"
   sodipodi:docname="qt.svg"
   inkscape:version="0.48.4 r9939"
   version="1.1"
   id="svg2"
   height="48"
   width="48">
  <sodipodi:namedview
     id="base"
     pagecolor="#424242"
     bordercolor="#666666"
     borderopacity="1.0"
     inkscape:pageopacity="1"
     inkscape:pageshadow="2"
     inkscape:zoom="5.6568542"
     inkscape:cx="24.115013"
     inkscape:cy="13.914012"
     inkscape:document-units="px"
     inkscape:current-layer="layer3"
     showgrid="false"
     showborder="false"
     borderlayer="false"
     showguides="true"
     inkscape:guide-bbox="true"
     inkscape:window-width="1855"
     inkscape:window-height="1056"
     inkscape:window-x="65"
     inkscape:window-y="24"
     inkscape:window-maximized="1">
    <inkscape:grid
       spacingy="1px"
       spacingx="1px"
       snapvisiblegridlinesonly="true"
       enabled="true"
       visible="true"
       empspacing="5"
       id="grid3004"
       type="xygrid" />
  </sodipodi:namedview>
  <defs
     id="defs4">
    <linearGradient
       id="linearGradient4699"
       inkscape:collect="always">
      <stop
         id="stop4701"
         offset="0"
         style="stop-color:#19aeff;stop-opacity:1;" />
      <stop
         id="stop4703"
         offset="1"
         style="stop-color:#19aeff;stop-opacity:0;" />
    </linearGradient>
    <linearGradient
       id="linearGradient4691"
       inkscape:collect="always">
      <stop
         id="stop4693"
         offset="0"
         style="stop-color:#19aeff;stop-opacity:1;" />
      <stop
         id="stop4695"
         offset="1"
         style="stop-color:#19aeff;stop-opacity:0;" />
    </linearGradient>
    <linearGradient
       id="linearGradient4665">
      <stop
         id="stop4667"
         offset="0"
         style="stop-color:#95dbff;stop-opacity:1;" />
      <stop
         id="stop4669"
         offset="1"
         style="stop-color:#006ba2;stop-opacity:1;" />
    </linearGradient>
    <linearGradient
       id="linearGradient4634">
      <stop
         id="stop4636"
         offset="0"
         style="stop-color:#000000;stop-opacity:0.38414633;" />
      <stop
         id="stop4638"
         offset="1"
         style="stop-color:#000000;stop-opacity:0;" />
    </linearGradient>
    <linearGradient
       gradientUnits="userSpaceOnUse"
       y2="28"
       x2="25"
       y1="3"
       x1="3"
       id="linearGradient3821-9"
       xlink:href="#linearGradient3815-5"
       inkscape:collect="always" />
    <linearGradient
       id="linearGradient3815-5"
       inkscape:collect="always">
      <stop
         id="stop3817-1"
         offset="0"
         style="stop-color:#ffffff;stop-opacity:1;" />
      <stop
         id="stop3819-9"
         offset="1"
         style="stop-color:#ffffff;stop-opacity:0;" />
    </linearGradient>
    <linearGradient
       gradientUnits="userSpaceOnUse"
       y2="1047.3622"
       x2="42.5"
       y1="1049.8622"
       x1="45"
       id="linearGradient4697"
       xlink:href="#linearGradient4691"
       inkscape:collect="always" />
    <linearGradient
       gradientUnits="userSpaceOnUse"
       y2="3"
       x2="27.5"
       y1="0.5"
       x1="27.5"
       id="linearGradient4705"
       xlink:href="#linearGradient4699"
       inkscape:collect="always" />
    <linearGradient
       gradientUnits="userSpaceOnUse"
       y2="1047.3622"
       x2="42.5"
       y1="1049.8622"
       x1="45"
       id="linearGradient4697-1"
       xlink:href="#linearGradient4691-0"
       inkscape:collect="always" />
    <linearGradient
       id="linearGradient4691-0"
       inkscape:collect="always">
      <stop
         id="stop4693-5"
         offset="0"
         style="stop-color:#19aeff;stop-opacity:1;" />
      <stop
         id="stop4695-5"
         offset="1"
         style="stop-color:#19aeff;stop-opacity:0;" />
    </linearGradient>
    <linearGradient
       inkscape:collect="always"
       xlink:href="#linearGradient4699-1"
       id="linearGradient12409"
       gradientUnits="userSpaceOnUse"
       x1="45"
       y1="1049.8622"
       x2="42.5"
       y2="1047.3622"
       gradientTransform="translate(0,-1004.3622)" />
    <linearGradient
       gradientUnits="userSpaceOnUse"
       y2="3"
       x2="27.5"
       y1="0.5"
       x1="27.5"
       id="linearGradient4705-1"
       xlink:href="#linearGradient4699-1"
       inkscape:collect="always" />
    <linearGradient
       id="linearGradient4699-1">
      <stop
         id="stop4701-3"
         offset="0"
         style="stop-color:#ffffff;stop-opacity:1;" />
      <stop
         id="stop4703-4"
         offset="1"
         style="stop-color:#ffffff;stop-opacity:0;" />
    </linearGradient>
    <linearGradient
       inkscape:collect="always"
       xlink:href="#linearGradient4699-1"
       id="linearGradient12443"
       gradientUnits="userSpaceOnUse"
       x1="27.5"
       y1="0.5"
       x2="27.5"
       y2="3" />
    <clipPath
       id="clipPath3856"
       clipPathUnits="userSpaceOnUse">
      <path
         inkscape:connector-curvature="0"
         id="path3858"
         d="m 27.84375,12.03125 -15.4375,15.4375 8.125,8.125 L 32.9375,48 46,48 c 1.108,0 2,-0.892 2,-2 l 0,-13.8125 -12.03125,-12.03125 -8.125,-8.125 z m 10.5625,2.4375 0,3.25 -1.625,1.625 L 48,30.5625 l 0,-6.5 -9.59375,-9.59375 z m -18.6875,21.9375 -8.9375,2.4375 -1.625,0 L 18.3125,48 l 13,0 -11.59375,-11.59375 z"
         style="opacity:0.3;fill:#000000;fill-opacity:1;stroke:none;display:inline" />
    </clipPath>
    <clipPath
       id="clipPath4492"
       clipPathUnits="userSpaceOnUse">
      <path
         id="path4494"
         d="m 28.28125,11 c -0.382978,-0.015 -0.701309,0.2118 -0.65625,0.625 l 0,0.9375 c 0.0028,0.107535 0.03337,0.206152 0.0625,0.28125 0.0077,0.0185 0.02221,0.04583 0.03125,0.0625 0.02417,0.04365 0.03048,0.09298 0.0625,0.125 l 0.09375,0.0625 1.6875,1.71875 c -0.09694,0.107303 -0.236384,0.234525 -0.40625,0.40625 l -2.28125,2.375 -6.4375,-6.4375 c -0.08266,-0.08266 -0.181553,-0.128868 -0.34375,-0.125 l -9.25,0 c -0.337919,-0.015 -0.585021,0.2799 -0.5625,0.625 l 0,1.03125 c -3.5e-4,0.08677 0.0032,0.174519 0.03125,0.25 0.02085,0.0575 0.05938,0.108056 0.09375,0.15625 0.01247,0.01766 0.0172,0.0463 0.03125,0.0625 0.0091,0.01035 0.02154,0.02154 0.03125,0.03125 l 0.15625,0.125 1.65625,1.65625 0,0.03125 0,21.53125 c -0.0083,0.0885 -0.01311,0.187768 0,0.25 0.0079,0.0311 0.01605,0.06838 0.03125,0.09375 0.01199,0.02047 0.01402,0.04527 0.03125,0.0625 L 23.40625,48 46,48 c 1.108,0 2,-0.892 2,-2 L 48,21.59375 37.65625,11.25 c -0.01519,-0.03494 -0.03721,-0.06556 -0.0625,-0.09375 -0.0095,-0.0095 -0.02057,-0.02275 -0.03125,-0.03125 -0.03337,-0.02893 -0.07961,-0.04528 -0.125,-0.0625 -0.0085,-0.0029 -0.02235,0.0024 -0.03125,0 -0.0577,-0.01753 -0.114282,-0.03502 -0.1875,-0.03125 L 28.28125,11 z"
         style="opacity:0.3;fill:#000000;fill-opacity:1;fill-rule:evenodd;stroke-width:0.25;display:inline"
         inkscape:connector-curvature="0" />
    </clipPath>
    <linearGradient
       gradientUnits="userSpaceOnUse"
       y2="1007.3748"
       x2="29.109528"
       y1="1049.3851"
       x1="29.109528"
       id="linearGradient4101"
       xlink:href="#linearGradient4708"
       inkscape:collect="always"
       gradientTransform="translate(-1.0986328e-6,3.4009766e-5)" />
    <linearGradient
       inkscape:collect="always"
       id="linearGradient4708">
      <stop
         style="stop-color:#47b73d;stop-opacity:1"
         offset="0"
         id="stop4710" />
      <stop
         style="stop-color:#ade355;stop-opacity:1"
         offset="1"
         id="stop4712" />
    </linearGradient>
    <linearGradient
       y2="1007.3748"
       x2="29.109528"
       y1="1049.3851"
       x1="29.109528"
       gradientTransform="translate(-60.750003,-2.3749194)"
       gradientUnits="userSpaceOnUse"
       id="linearGradient3096"
       xlink:href="#linearGradient4708"
       inkscape:collect="always" />
    <filter
       inkscape:collect="always"
       id="filter4549"
       x="-0.25127411"
       width="1.5025482"
       y="-0.22969414"
       height="1.4593883">
      <feGaussianBlur
         inkscape:collect="always"
         stdDeviation="2.8192388"
         id="feGaussianBlur4551" />
    </filter>
    <clipPath
       clipPathUnits="userSpaceOnUse"
       id="clipPath4571">
      <path
         inkscape:connector-curvature="0"
         style="opacity:0.3598485;fill:#364e59;fill-opacity:1;display:inline"
         d="m 16.5625,9.2812497 c -0.741317,0.048211 -1.493745,0.225425 -2.125,0.5 C 12.761138,10.50835 11.472074,12.4633 10.84375,15.25 c -0.446833,1.9819 -0.419165,7.4073 0.03125,9.5 0.446369,2.071611 1.321733,3.790482 2.40625,4.875 L 13.6875,30 l 2.53125,2.53125 c 0.300413,0.833398 0.621312,1.371313 1,1.75 L 17.5625,34.59375 30.96875,48 46,48 c 1.108,0 2,-0.892 2,-2 L 48,29.96875 28.90625,10.90625 28.875,10.875 C 28.79735,10.83 28.321907,10.75785 27.8125,10.71875 l -0.90625,-0.0625 -0.34375,1.3125 c -0.177578,0.7241 -0.372368,1.5281 -0.4375,1.8125 -0.10143,0.4425 -0.189818,0.53125 -0.75,0.53125 l -0.59375,0 -3.25,-3.25 C 20.686965,10.218215 19.589261,9.6792226 18.25,9.4062497 c -0.315253,-0.064 -0.639791,-0.1093 -0.96875,-0.125 -0.246719,-0.01175 -0.471644,-0.01607 -0.71875,0 z"
         id="path4573" />
    </clipPath>
  </defs>
  <metadata
     id="metadata7">
    <rdf:RDF>
      <cc:Work
         rdf:about="">
        <dc:format>image/svg+xml</dc:format>
        <dc:type
           rdf:resource="http://purl.org/dc/dcmitype/StillImage" />
        <dc:title />
      </cc:Work>
    </rdf:RDF>
  </metadata>
  <g
     style="display:inline"
     transform="translate(0,-1004.3622)"
     id="layer1"
     inkscape:groupmode="layer"
     inkscape:label="base">
    <rect
       ry="2"
       y="1004.3622"
       x="0"
       height="48"
       width="48"
       id="rect3006-5"
       style="color:#000000;fill:#1bc71b;fill-opacity:1;fill-rule:nonzero;stroke:none;stroke-width:0.50000000000000000;marker:none;visibility:visible;display:inline;overflow:visible;enable-background:accumulate" />
    <path
       inkscape:connector-curvature="0"
       id="path906-8"
       d=""
       style="fill:#000000" />
    <g
       style="fill:#000000;fill-opacity:0.49803922"
       id="g312"
       transform="matrix(0.36107049,0,0,-0.36107049,-201.21141,1000.5609)" />
    <g
       style="fill:#000000;fill-opacity:0.49803922"
       id="g316"
       transform="matrix(0.36107049,0,0,-0.36107049,-189.85603,989.20486)" />
  </g>
  <g
     style="display:inline"
     inkscape:label="shadow"
     id="layer2"
     inkscape:groupmode="layer">
    <path
       inkscape:connector-curvature="0"
       id="path906"
       d=""
       style="fill:#000000" />
    <flowRoot
       transform="translate(-18.261517,-1007.8751)"
       style="font-size:40px;font-style:normal;font-weight:normal;line-height:125%;letter-spacing:0px;word-spacing:0px;fill:#000000;fill-opacity:1;stroke:none;font-family:sans-serif"
       id="flowRoot61"
       xml:space="preserve"><flowRegion
         id="flowRegion63"><rect
           y="6.6342559"
           x="-53.033005"
           height="49.320694"
           width="57.6292"
           id="rect65" /></flowRegion><flowPara
         id="flowPara67" /></flowRoot>    <path
       style="fill:#364e59;fill-opacity:1;opacity:0.35984848000000003"
       d="M 16.5625 9.28125 C 15.821183 9.3294609 15.068755 9.506675 14.4375 9.78125 C 12.761138 10.50835 11.472074 12.4633 10.84375 15.25 C 10.396917 17.2319 10.424585 22.6573 10.875 24.75 C 11.321369 26.821611 12.196733 28.540482 13.28125 29.625 L 13.6875 30 L 16.21875 32.53125 C 16.519163 33.364648 16.840062 33.902563 17.21875 34.28125 L 17.5625 34.59375 L 30.96875 48 L 46 48 C 47.108 48 48 47.108 48 46 L 48 29.96875 L 28.90625 10.90625 L 28.875 10.875 C 28.79735 10.83 28.321907 10.75785 27.8125 10.71875 L 26.90625 10.65625 L 26.5625 11.96875 C 26.384922 12.69285 26.190132 13.49685 26.125 13.78125 C 26.02357 14.22375 25.935182 14.3125 25.375 14.3125 L 24.78125 14.3125 L 21.53125 11.0625 C 20.686965 10.218215 19.589261 9.6792229 18.25 9.40625 C 17.934747 9.34225 17.610209 9.29695 17.28125 9.28125 C 17.034531 9.2695 16.809606 9.2651797 16.5625 9.28125 z "
       id="path3973" />
    <path
       d="m 17.294976,9.2786001 c -0.986877,-0.047 -2.002077,0.1339 -2.84375,0.5 C 12.774864,10.5057 11.4858,12.4607 10.857476,15.2474 c -0.446833,1.9819 -0.419165,7.4073 0.03125,9.5 0.661491,3.07 2.219705,5.3439 4.09375,5.9687 0.693997,0.2318 0.770761,0.3465 1.0625,1.2813 0.453696,1.454 0.885199,2.1338 1.53125,2.5937 0.646172,0.4602 1.90047,0.7728 2.6875,0.6563 0.298029,-0.044 0.754281,-0.062 1,-0.062 0.424471,0 0.4375,-0.056 0.4375,-1.2188 0,-1.0874 -0.04826,-1.25 -0.375,-1.25 -0.696736,0 -1.264298,-0.3945 -1.59375,-1.125 -0.181791,-0.403 -0.291836,-0.7803 -0.25,-0.8125 0.04214,-0.033 0.44862,-0.2838 0.9375,-0.5625 2.427213,-1.3897 3.524327,-4.509 3.53125,-10.0937 0.009,-6.7175 -1.677168,-9.9014 -5.6875,-10.7187999 -0.315253,-0.064 -0.639791,-0.1093 -0.96875,-0.125 z m 9.625,1.3749999 -0.34375,1.3125 c -0.177578,0.7241 -0.372368,1.5281 -0.4375,1.8125 -0.10143,0.4425 -0.189818,0.5313 -0.75,0.5313 l -0.65625,0 0,1.2187 0,1.2188 0.5625,0 0.5625,0 0,5.4687 c 0,2.0436 -0.0072,3.4384 0.0625,4.4688 0.885878,-0.8076 1.96014,-1.4085 3.15625,-1.7188 -0.01529,-0.733 -0.03125,-1.6499 -0.03125,-3.1562 l 0,-4.875 1.125,0 1.125,0 0,-1.0938 0,-1.0937 -1.125,-0.1563 -1.125,-0.125 0,-1.75 c 0,-0.9718 -0.0786,-1.7965 -0.15625,-1.8437 -0.07765,-0.045 -0.553093,-0.1172 -1.0625,-0.1563 l -0.90625,-0.062 z m -9.34375,1.375 c 0.790521,0 1.786858,0.9504 2.15625,2.0625 0.653184,1.9666 0.761737,8.5691 0.1875,11.3438 -0.456525,2.2062 -1.660439,3.3399 -2.90625,2.7187 -0.573546,-0.286 -1.26024,-1.2924 -1.5,-2.1875 -0.78399,-2.9277 -0.735627,-10.1774 0.09375,-12.25 0.376435,-0.9408 1.254377,-1.6875 1.96875,-1.6875 z m 13.387503,22.02 c -1.00542,0 -1.82,-0.8138 -1.82,-1.82 0,-1.0062 0.81458,-1.82 1.82,-1.82 1.00568,0 1.82,0.8138 1.82,1.82 0,1.0062 -0.81432,1.82 -1.82,1.82 z m 6.5,-0.52 0,-2.6 -1.4482,0 c -0.11674,-0.4862 -0.3003,-0.9464 -0.5434,-1.3702 l 1.00698,-1.0062 -1.8382,-1.8382 -0.98618,0.9854 c -0.4277,-0.26 -0.89414,-0.4576 -1.391,-0.585 l 0,-1.3858 -2.6,0 0,1.3858 c -0.4966,0.1274 -0.9633,0.325 -1.39074,0.585 l -0.98618,-0.9854 -1.8382,1.8382 1.00698,1.0062 c -0.2431,0.4238 -0.42666,0.884 -0.5434,1.3702 l -1.44846,0 0,2.6 1.49266,0 c 0.12844,0.4654 0.31928,0.9022 0.56394,1.3052 l -1.07172,1.0712 1.8382,1.8382 1.09278,-1.092 c 0.39806,0.2288 0.82888,0.403 1.28414,0.5226 l 0,1.5548 2.6,0 0,-1.5548 c 0.45526,-0.1196 0.88634,-0.2938 1.2844,-0.5226 l 1.09278,1.092 1.8382,-1.8382 -1.07172,-1.0712 c 0.24466,-0.403 0.4355,-0.8398 0.56394,-1.3052 l 1.4924,0"
       style="fill:#000000;fill-opacity:1;display:inline;filter:url(#filter4549)"
       id="path2400-5"
       inkscape:connector-curvature="0"
       clip-path="url(#clipPath4571)" />
  </g>
  <g
     style="display:inline"
     inkscape:label="icon"
     id="layer3"
     inkscape:groupmode="layer">
    <path
       d="m 17.294976,9.2786001 c -0.986877,-0.047 -2.002077,0.1339 -2.84375,0.5 C 12.774864,10.5057 11.4858,12.4607 10.857476,15.2474 c -0.446833,1.9819 -0.419165,7.4073 0.03125,9.5 0.661491,3.07 2.219705,5.3439 4.09375,5.9687 0.693997,0.2318 0.770761,0.3465 1.0625,1.2813 0.453696,1.454 0.885199,2.1338 1.53125,2.5937 0.646172,0.4602 1.90047,0.7728 2.6875,0.6563 0.298029,-0.044 0.754281,-0.062 1,-0.062 0.424471,0 0.4375,-0.056 0.4375,-1.2188 0,-1.0874 -0.04826,-1.25 -0.375,-1.25 -0.696736,0 -1.264298,-0.3945 -1.59375,-1.125 -0.181791,-0.403 -0.291836,-0.7803 -0.25,-0.8125 0.04214,-0.033 0.44862,-0.2838 0.9375,-0.5625 2.427213,-1.3897 3.524327,-4.509 3.53125,-10.0937 0.009,-6.7175 -1.677168,-9.9014 -5.6875,-10.7187999 -0.315253,-0.064 -0.639791,-0.1093 -0.96875,-0.125 z m 9.625,1.3749999 -0.34375,1.3125 c -0.177578,0.7241 -0.372368,1.5281 -0.4375,1.8125 -0.10143,0.4425 -0.189818,0.5313 -0.75,0.5313 l -0.65625,0 0,1.2187 0,1.2188 0.5625,0 0.5625,0 0,5.4687 c 0,2.0436 -0.0072,3.4384 0.0625,4.4688 0.885878,-0.8076 1.96014,-1.4085 3.15625,-1.7188 -0.01529,-0.733 -0.03125,-1.6499 -0.03125,-3.1562 l 0,-4.875 1.125,0 1.125,0 0,-1.0938 0,-1.0937 -1.125,-0.1563 -1.125,-0.125 0,-1.75 c 0,-0.9718 -0.0786,-1.7965 -0.15625,-1.8437 -0.07765,-0.045 -0.553093,-0.1172 -1.0625,-0.1563 l -0.90625,-0.062 z m -9.34375,1.375 c 0.790521,0 1.786858,0.9504 2.15625,2.0625 0.653184,1.9666 0.761737,8.5691 0.1875,11.3438 -0.456525,2.2062 -1.660439,3.3399 -2.90625,2.7187 -0.573546,-0.286 -1.26024,-1.2924 -1.5,-2.1875 -0.78399,-2.9277 -0.735627,-10.1774 0.09375,-12.25 0.376435,-0.9408 1.254377,-1.6875 1.96875,-1.6875 z m 13.387503,22.02 c -1.00542,0 -1.82,-0.8138 -1.82,-1.82 0,-1.0062 0.81458,-1.82 1.82,-1.82 1.00568,0 1.82,0.8138 1.82,1.82 0,1.0062 -0.81432,1.82 -1.82,1.82 z m 6.5,-0.52 0,-2.6 -1.4482,0 c -0.11674,-0.4862 -0.3003,-0.9464 -0.5434,-1.3702 l 1.00698,-1.0062 -1.8382,-1.8382 -0.98618,0.9854 c -0.4277,-0.26 -0.89414,-0.4576 -1.391,-0.585 l 0,-1.3858 -2.6,0 0,1.3858 c -0.4966,0.1274 -0.9633,0.325 -1.39074,0.585 l -0.98618,-0.9854 -1.8382,1.8382 1.00698,1.0062 c -0.2431,0.4238 -0.42666,0.884 -0.5434,1.3702 l -1.44846,0 0,2.6 1.49266,0 c 0.12844,0.4654 0.31928,0.9022 0.56394,1.3052 l -1.07172,1.0712 1.8382,1.8382 1.09278,-1.092 c 0.39806,0.2288 0.82888,0.403 1.28414,0.5226 l 0,1.5548 2.6,0 0,-1.5548 c 0.45526,-0.1196 0.88634,-0.2938 1.2844,-0.5226 l 1.09278,1.092 1.8382,-1.8382 -1.07172,-1.0712 c 0.24466,-0.403 0.4355,-0.8398 0.56394,-1.3052 l 1.4924,0"
       style="fill:#ffffff;fill-opacity:1;display:inline"
       id="path2400"
       inkscape:connector-curvature="0" />
  </g>
  <g
     inkscape:label="hilight"
     id="layer4"
     inkscape:groupmode="layer">
    <path
       id="rect3006"
       d="M 2,0 C 0.892,0 0,0.892 0,2 l 0,44 c 0,1.108 0.892,2 2,2 l 44,0 c 1.108,0 2,-0.892 2,-2 L 48,2 C 48,0.892 47.108,0 46,0 L 2,0 z m 0,0.5 44,0 c 0.83101,0 1.5,0.6689904 1.5,1.5 l 0,44 c 0,0.83101 -0.66899,1.5 -1.5,1.5 l -44,0 C 1.1689904,47.5 0.5,46.83101 0.5,46 L 0.5,2 C 0.5,1.1689904 1.1689904,0.5 2,0.5 z"
       style="color:#000000;fill:url(#linearGradient12443);fill-opacity:1;fill-rule:nonzero;stroke:none;stroke-width:0.50000000000000000;marker:none;visibility:visible;display:inline;overflow:visible;enable-background:accumulate;opacity:0.4"
       inkscape:connector-curvature="0" />
  </g>
</svg>
