<?xml version="1.0" encoding="UTF-8" standalone="no"?>
<!-- Created with Inkscape (http://www.inkscape.org/) -->

<svg
   xmlns:dc="http://purl.org/dc/elements/1.1/"
   xmlns:cc="http://creativecommons.org/ns#"
   xmlns:rdf="http://www.w3.org/1999/02/22-rdf-syntax-ns#"
   xmlns:svg="http://www.w3.org/2000/svg"
   xmlns="http://www.w3.org/2000/svg"
   xmlns:xlink="http://www.w3.org/1999/xlink"
   xmlns:sodipodi="http://sodipodi.sourceforge.net/DTD/sodipodi-0.dtd"
   xmlns:inkscape="http://www.inkscape.org/namespaces/inkscape"
   sodipodi:docname="record.svg"
   inkscape:version="0.48.4 r9939"
   version="1.1"
   id="svg2"
   height="48"
   width="48">
  <sodipodi:namedview
     id="base"
     pagecolor="#424242"
     bordercolor="#666666"
     borderopacity="1.0"
     inkscape:pageopacity="1"
     inkscape:pageshadow="2"
     inkscape:zoom="8"
     inkscape:cx="17.124926"
     inkscape:cy="28.490364"
     inkscape:document-units="px"
     inkscape:current-layer="layer3"
     showgrid="false"
     showborder="false"
     borderlayer="false"
     showguides="true"
     inkscape:guide-bbox="true"
     inkscape:window-width="1855"
     inkscape:window-height="1056"
     inkscape:window-x="65"
     inkscape:window-y="24"
     inkscape:window-maximized="1">
    <inkscape:grid
       spacingy="1px"
       spacingx="1px"
       snapvisiblegridlinesonly="true"
       enabled="true"
       visible="true"
       empspacing="5"
       id="grid3004"
       type="xygrid" />
  </sodipodi:namedview>
  <defs
     id="defs4">
    <linearGradient
       id="linearGradient4699"
       inkscape:collect="always">
      <stop
         id="stop4701"
         offset="0"
         style="stop-color:#19aeff;stop-opacity:1;" />
      <stop
         id="stop4703"
         offset="1"
         style="stop-color:#19aeff;stop-opacity:0;" />
    </linearGradient>
    <linearGradient
       id="linearGradient4691"
       inkscape:collect="always">
      <stop
         id="stop4693"
         offset="0"
         style="stop-color:#19aeff;stop-opacity:1;" />
      <stop
         id="stop4695"
         offset="1"
         style="stop-color:#19aeff;stop-opacity:0;" />
    </linearGradient>
    <linearGradient
       id="linearGradient4665">
      <stop
         id="stop4667"
         offset="0"
         style="stop-color:#95dbff;stop-opacity:1;" />
      <stop
         id="stop4669"
         offset="1"
         style="stop-color:#006ba2;stop-opacity:1;" />
    </linearGradient>
    <linearGradient
       id="linearGradient4634">
      <stop
         id="stop4636"
         offset="0"
         style="stop-color:#000000;stop-opacity:0.38414633;" />
      <stop
         id="stop4638"
         offset="1"
         style="stop-color:#000000;stop-opacity:0;" />
    </linearGradient>
    <linearGradient
       gradientUnits="userSpaceOnUse"
       y2="28"
       x2="25"
       y1="3"
       x1="3"
       id="linearGradient3821-9"
       xlink:href="#linearGradient3815-5"
       inkscape:collect="always" />
    <linearGradient
       id="linearGradient3815-5"
       inkscape:collect="always">
      <stop
         id="stop3817-1"
         offset="0"
         style="stop-color:#ffffff;stop-opacity:1;" />
      <stop
         id="stop3819-9"
         offset="1"
         style="stop-color:#ffffff;stop-opacity:0;" />
    </linearGradient>
    <linearGradient
       gradientUnits="userSpaceOnUse"
       y2="1047.3622"
       x2="42.5"
       y1="1049.8622"
       x1="45"
       id="linearGradient4697"
       xlink:href="#linearGradient4691"
       inkscape:collect="always" />
    <linearGradient
       gradientUnits="userSpaceOnUse"
       y2="3"
       x2="27.5"
       y1="0.5"
       x1="27.5"
       id="linearGradient4705"
       xlink:href="#linearGradient4699"
       inkscape:collect="always" />
    <linearGradient
       gradientUnits="userSpaceOnUse"
       y2="1047.3622"
       x2="42.5"
       y1="1049.8622"
       x1="45"
       id="linearGradient4697-1"
       xlink:href="#linearGradient4691-0"
       inkscape:collect="always" />
    <linearGradient
       id="linearGradient4691-0"
       inkscape:collect="always">
      <stop
         id="stop4693-5"
         offset="0"
         style="stop-color:#19aeff;stop-opacity:1;" />
      <stop
         id="stop4695-5"
         offset="1"
         style="stop-color:#19aeff;stop-opacity:0;" />
    </linearGradient>
    <linearGradient
       inkscape:collect="always"
       xlink:href="#linearGradient4699-1"
       id="linearGradient12409"
       gradientUnits="userSpaceOnUse"
       x1="45"
       y1="1049.8622"
       x2="42.5"
       y2="1047.3622"
       gradientTransform="translate(0,-1004.3622)" />
    <linearGradient
       gradientUnits="userSpaceOnUse"
       y2="3"
       x2="27.5"
       y1="0.5"
       x1="27.5"
       id="linearGradient4705-1"
       xlink:href="#linearGradient4699-1"
       inkscape:collect="always" />
    <linearGradient
       id="linearGradient4699-1">
      <stop
         id="stop4701-3"
         offset="0"
         style="stop-color:#ffffff;stop-opacity:1;" />
      <stop
         id="stop4703-4"
         offset="1"
         style="stop-color:#ffffff;stop-opacity:0;" />
    </linearGradient>
    <linearGradient
       inkscape:collect="always"
       xlink:href="#linearGradient4699-1"
       id="linearGradient12443"
       gradientUnits="userSpaceOnUse"
       x1="27.5"
       y1="0.5"
       x2="27.5"
       y2="3" />
    <clipPath
       id="clipPath3856"
       clipPathUnits="userSpaceOnUse">
      <path
         inkscape:connector-curvature="0"
         id="path3858"
         d="m 27.84375,12.03125 -15.4375,15.4375 8.125,8.125 L 32.9375,48 46,48 c 1.108,0 2,-0.892 2,-2 l 0,-13.8125 -12.03125,-12.03125 -8.125,-8.125 z m 10.5625,2.4375 0,3.25 -1.625,1.625 L 48,30.5625 l 0,-6.5 -9.59375,-9.59375 z m -18.6875,21.9375 -8.9375,2.4375 -1.625,0 L 18.3125,48 l 13,0 -11.59375,-11.59375 z"
         style="opacity:0.3;fill:#000000;fill-opacity:1;stroke:none;display:inline" />
    </clipPath>
    <clipPath
       id="clipPath5297"
       clipPathUnits="userSpaceOnUse">
      <path
         id="path5299"
         d="m 7.0625,8.78125 0,2.40625 4.71875,4.71875 -4.71875,1.625 0,2.375 L 35.15625,48 46,48 c 1.108,0 2,-0.892 2,-2 L 48,41.90625 19.34375,13.21875 7.0625,8.78125 z"
         style="font-size:19.6007843px;font-style:normal;font-variant:normal;font-weight:bold;font-stretch:normal;text-align:start;line-height:125%;letter-spacing:0px;word-spacing:0px;writing-mode:lr-tb;text-anchor:start;fill:#ffffff;fill-opacity:1;stroke:none;display:inline;font-family:TheMixPlain;-inkscape-font-specification:TheMixPlain Bold"
         inkscape:connector-curvature="0" />
    </clipPath>
    <clipPath
       id="clipPath5319"
       clipPathUnits="userSpaceOnUse">
      <path
         id="path5321"
         d="m 21.4375,23.3125 0,1.8125 L 44.3125,48 46,48 c 1.108,0 2,-0.892 2,-2 l 0,-5.90625 -16.78125,-16.78125 -9.78125,0 z"
         style="font-size:19.6007843px;font-style:normal;font-variant:normal;font-weight:bold;font-stretch:normal;text-align:start;line-height:125%;letter-spacing:0px;word-spacing:0px;writing-mode:lr-tb;text-anchor:start;fill:#ffffff;fill-opacity:1;stroke:none;display:inline;font-family:TheMixPlain;-inkscape-font-specification:TheMixPlain Bold"
         inkscape:connector-curvature="0" />
    </clipPath>
    <linearGradient
       inkscape:collect="always"
       xlink:href="#linearGradient4699-1-8"
       id="linearGradient12443-2"
       gradientUnits="userSpaceOnUse"
       x1="27.5"
       y1="0.5"
       x2="27.5"
       y2="3" />
    <linearGradient
       id="linearGradient4699-1-8">
      <stop
         id="stop4701-3-8"
         offset="0"
         style="stop-color:#26363e;stop-opacity:1;" />
      <stop
         id="stop4703-4-7"
         offset="1"
         style="stop-color:#26373e;stop-opacity:0;" />
    </linearGradient>
    <linearGradient
       y2="3.3773026"
       x2="22.5"
       y1="-0.016638011"
       x1="22.5"
       gradientUnits="userSpaceOnUse"
       id="linearGradient5371"
       xlink:href="#linearGradient4699-1"
       inkscape:collect="always" />
    <filter
       inkscape:collect="always"
       id="filter3844">
      <feGaussianBlur
         inkscape:collect="always"
         stdDeviation="0.4"
         id="feGaussianBlur3846" />
    </filter>
  </defs>
  <metadata
     id="metadata7">
    <rdf:RDF>
      <cc:Work
         rdf:about="">
        <dc:format>image/svg+xml</dc:format>
        <dc:type
           rdf:resource="http://purl.org/dc/dcmitype/StillImage" />
        <dc:title />
      </cc:Work>
    </rdf:RDF>
  </metadata>
  <g
     style="display:inline"
     transform="translate(0,-1004.3622)"
     id="layer1"
     inkscape:groupmode="layer"
     inkscape:label="base">
    <rect
       ry="2"
       y="1004.3622"
       x="0"
       height="48"
       width="48"
       id="rect3006-5"
       style="color:#000000;fill:#0e232e;fill-opacity:1;fill-rule:nonzero;stroke:none;stroke-width:0.50000000000000000;marker:none;visibility:visible;display:inline;overflow:visible;enable-background:accumulate" />
    <g
       id="text3056"
       style="font-size:12.39895058px;font-style:normal;font-variant:normal;font-weight:bold;font-stretch:normal;text-align:start;line-height:125%;letter-spacing:0px;word-spacing:0px;writing-mode:lr-tb;text-anchor:start;opacity:0.3;fill:#ffffff;fill-opacity:1;stroke:none;font-family:TheMixPlain;-inkscape-font-specification:TheMixPlain Bold">
      <path
         id="path3831"
         style="fill:#ffffff;font-family:Play;-inkscape-font-specification:Play Bold"
         d="m 20.166593,1044.8582 -2.231811,0 -2.107821,-3.1618 -0.892725,0 0,3.1618 -1.934236,0 0,-8.047 3.620494,0 c 1.058038,0 1.830905,0.1282 2.318603,0.3844 0.487685,0.2563 0.731531,0.6944 0.731538,1.3143 l 0,1.4135 c -7e-6,0.4877 -0.177725,0.8638 -0.533155,1.1283 -0.347177,0.2645 -0.78114,0.4298 -1.301889,0.4959 l 2.331002,3.3106 m -2.392997,-5.3192 0,-0.5703 c -6e-6,-0.2976 -0.09093,-0.5001 -0.272777,-0.6076 -0.173591,-0.1157 -0.475298,-0.1736 -0.905123,-0.1736 l -1.66146,0 0,2.2318 1.66146,0 c 0.454623,0 0.764596,-0.058 0.929921,-0.1736 0.165314,-0.1239 0.247973,-0.3595 0.247979,-0.7067" />
      <path
         id="path3833"
         style="fill:#ffffff;font-family:Play;-inkscape-font-specification:Play Bold"
         d="m 27.543581,1044.8582 -6.26147,0 0,-8.047 6.137481,0 0,1.3763 -4.203245,0 0,1.8475 3.794079,0 0,1.3762 -3.794079,0 0,2.0707 4.327234,0 0,1.3763" />
      <path
         id="path3835"
         style="fill:#ffffff;font-family:Play;-inkscape-font-specification:Play Bold"
         d="m 35,1044.7094 c -0.909262,0.1818 -1.777188,0.2727 -2.603779,0.2727 -0.330643,0 -0.64475,-0.016 -0.942321,-0.05 -0.289312,-0.025 -0.615817,-0.083 -0.979517,-0.1735 -0.355438,-0.099 -0.661279,-0.2274 -0.917522,-0.3844 -0.24798,-0.1653 -0.458762,-0.3926 -0.632347,-0.6819 -0.173586,-0.2976 -0.260378,-0.6448 -0.260378,-1.0416 l 0,-3.5337 c 0,-1.6201 1.244027,-2.4301 3.732085,-2.4302 0.611676,10e-5 1.46307,0.091 2.554183,0.2728 l 0,1.4507 c -0.983656,-0.2314 -1.826783,-0.3472 -2.529386,-0.3472 -0.281047,0 -0.512493,0.01 -0.694341,0.025 -0.173589,0.017 -0.359573,0.058 -0.557953,0.124 -0.19012,0.066 -0.334774,0.1736 -0.433963,0.3224 -0.09093,0.1405 -0.136391,0.3265 -0.136388,0.5579 l 0,3.4222 c -3e-6,0.7274 0.665407,1.0911 1.996231,1.0911 0.586878,0 1.388676,-0.1199 2.405396,-0.3596 l 0,1.4631" />
    </g>
  </g>
  <g
     style="display:inline"
     inkscape:label="shadow"
     id="layer2"
     inkscape:groupmode="layer">
    <g
       transform="matrix(0.70710678,0.70710678,-0.70710678,0.70710678,17.282486,-12.63782)"
       style="opacity:0.25;color:#000000;fill:#000000;fill-opacity:1;fill-rule:nonzero;stroke:none;stroke-width:0.5;marker:none;visibility:visible;display:inline;overflow:visible;enable-background:accumulate"
       id="g3919" />
    <path
       style="opacity:0.25;color:#000000;fill:#000000;fill-opacity:1;fill-rule:nonzero;stroke:none;stroke-width:0.5;marker:none;visibility:visible"
       d="M 24 6 C 21.440777 6.0000001 18.890121 6.9848786 16.9375 8.9375 C 13.032257 12.842742 13.032258 19.157258 16.9375 23.0625 L 41.84375 48 L 46 48 C 47.108 48 48 47.108 48 46 L 48 25.875 L 31.0625 8.9375 C 29.109879 6.984879 26.559223 5.9999999 24 6 z "
       id="path4171" />
  </g>
  <g
     style="display:inline"
     inkscape:label="icon"
     id="layer3"
     inkscape:groupmode="layer">
    <path
       transform="matrix(0.70710678,0.70710678,-0.70710678,0.70710678,17.282486,-12.63782)"
       d="m 35,15.5 a 10,10 0 1 1 -20,0 10,10 0 1 1 20,0 z"
       sodipodi:ry="10"
       sodipodi:rx="10"
       sodipodi:cy="15.5"
       sodipodi:cx="25"
       id="path3828-1"
       style="color:#000000;fill:#dc0000;fill-opacity:1;fill-rule:nonzero;stroke:none;stroke-width:0.50000000000000000;marker:none;visibility:visible;display:inline;overflow:visible;enable-background:accumulate"
       sodipodi:type="arc" />
  </g>
  <g
     inkscape:label="hilight"
     id="layer4"
     inkscape:groupmode="layer">
    <path
       id="rect3006"
       d="M 2,0 C 0.892,0 0,0.892 0,2 l 0,44 c 0,1.108 0.892,2 2,2 l 44,0 c 1.108,0 2,-0.892 2,-2 L 48,2 C 48,0.892 47.108,0 46,0 L 2,0 z m 0,0.5 44,0 c 0.83101,0 1.5,0.6689904 1.5,1.5 l 0,44 c 0,0.83101 -0.66899,1.5 -1.5,1.5 l -44,0 C 1.1689904,47.5 0.5,46.83101 0.5,46 L 0.5,2 C 0.5,1.1689904 1.1689904,0.5 2,0.5 z"
       style="opacity:0.50000000000000000;color:#000000;fill:url(#linearGradient5371);fill-opacity:1;fill-rule:nonzero;stroke:none;stroke-width:0.50000000000000000;marker:none;visibility:visible;display:inline;overflow:visible;enable-background:accumulate"
       inkscape:connector-curvature="0" />
  </g>
</svg>
