<?xml version="1.0" encoding="UTF-8" standalone="no"?>
<!-- Created with Inkscape (http://www.inkscape.org/) -->

<svg
   xmlns:dc="http://purl.org/dc/elements/1.1/"
   xmlns:cc="http://creativecommons.org/ns#"
   xmlns:rdf="http://www.w3.org/1999/02/22-rdf-syntax-ns#"
   xmlns:svg="http://www.w3.org/2000/svg"
   xmlns="http://www.w3.org/2000/svg"
   xmlns:xlink="http://www.w3.org/1999/xlink"
   xmlns:sodipodi="http://sodipodi.sourceforge.net/DTD/sodipodi-0.dtd"
   xmlns:inkscape="http://www.inkscape.org/namespaces/inkscape"
   width="48"
   height="48"
   id="svg2"
   version="1.1"
   inkscape:version="0.48.4 r9939"
   sodipodi:docname="settings.svg">
  <sodipodi:namedview
     id="base"
     pagecolor="#424242"
     bordercolor="#666666"
     borderopacity="1.0"
     inkscape:pageopacity="1"
     inkscape:pageshadow="2"
     inkscape:zoom="16"
     inkscape:cx="40.438182"
     inkscape:cy="22.849952"
     inkscape:document-units="px"
     inkscape:current-layer="layer1"
     showgrid="false"
     showborder="false"
     borderlayer="false"
     showguides="true"
     inkscape:guide-bbox="true"
     inkscape:window-width="1855"
     inkscape:window-height="1056"
     inkscape:window-x="65"
     inkscape:window-y="24"
     inkscape:window-maximized="1">
    <inkscape:grid
       spacingy="1px"
       spacingx="1px"
       snapvisiblegridlinesonly="true"
       enabled="true"
       visible="true"
       empspacing="5"
       id="grid3004"
       type="xygrid" />
  </sodipodi:namedview>
  <defs
     id="defs4">
    <linearGradient
       id="linearGradient5012">
      <stop
         style="stop-color:#a0a0a0;stop-opacity:1;"
         offset="0"
         id="stop5014" />
      <stop
         style="stop-color:#797979;stop-opacity:1;"
         offset="1"
         id="stop5016" />
    </linearGradient>
    <linearGradient
       id="linearGradient4699"
       inkscape:collect="always">
      <stop
         id="stop4701"
         offset="0"
         style="stop-color:#19aeff;stop-opacity:1;" />
      <stop
         id="stop4703"
         offset="1"
         style="stop-color:#19aeff;stop-opacity:0;" />
    </linearGradient>
    <linearGradient
       id="linearGradient4691"
       inkscape:collect="always">
      <stop
         id="stop4693"
         offset="0"
         style="stop-color:#19aeff;stop-opacity:1;" />
      <stop
         id="stop4695"
         offset="1"
         style="stop-color:#19aeff;stop-opacity:0;" />
    </linearGradient>
    <linearGradient
       id="linearGradient4665">
      <stop
         id="stop4667"
         offset="0"
         style="stop-color:#95dbff;stop-opacity:1;" />
      <stop
         id="stop4669"
         offset="1"
         style="stop-color:#006ba2;stop-opacity:1;" />
    </linearGradient>
    <linearGradient
       id="linearGradient4634">
      <stop
         id="stop4636"
         offset="0"
         style="stop-color:#000000;stop-opacity:0.38414633;" />
      <stop
         id="stop4638"
         offset="1"
         style="stop-color:#000000;stop-opacity:0;" />
    </linearGradient>
    <linearGradient
       gradientUnits="userSpaceOnUse"
       y2="28"
       x2="25"
       y1="3"
       x1="3"
       id="linearGradient3821-9"
       xlink:href="#linearGradient3815-5"
       inkscape:collect="always" />
    <linearGradient
       id="linearGradient3815-5"
       inkscape:collect="always">
      <stop
         id="stop3817-1"
         offset="0"
         style="stop-color:#ffffff;stop-opacity:1;" />
      <stop
         id="stop3819-9"
         offset="1"
         style="stop-color:#ffffff;stop-opacity:0;" />
    </linearGradient>
    <linearGradient
       gradientUnits="userSpaceOnUse"
       y2="1047.3622"
       x2="42.5"
       y1="1049.8622"
       x1="45"
       id="linearGradient4697"
       xlink:href="#linearGradient4691"
       inkscape:collect="always" />
    <linearGradient
       gradientUnits="userSpaceOnUse"
       y2="3"
       x2="27.5"
       y1="0.5"
       x1="27.5"
       id="linearGradient4705"
       xlink:href="#linearGradient4699"
       inkscape:collect="always" />
    <linearGradient
       gradientUnits="userSpaceOnUse"
       y2="1047.3622"
       x2="42.5"
       y1="1049.8622"
       x1="45"
       id="linearGradient4697-1"
       xlink:href="#linearGradient4691-0"
       inkscape:collect="always" />
    <linearGradient
       id="linearGradient4691-0"
       inkscape:collect="always">
      <stop
         id="stop4693-5"
         offset="0"
         style="stop-color:#19aeff;stop-opacity:1;" />
      <stop
         id="stop4695-5"
         offset="1"
         style="stop-color:#19aeff;stop-opacity:0;" />
    </linearGradient>
    <linearGradient
       inkscape:collect="always"
       xlink:href="#linearGradient4699-1"
       id="linearGradient12409"
       gradientUnits="userSpaceOnUse"
       x1="45"
       y1="1049.8622"
       x2="42.5"
       y2="1047.3622"
       gradientTransform="translate(0,-1004.3622)" />
    <linearGradient
       gradientUnits="userSpaceOnUse"
       y2="3"
       x2="27.5"
       y1="0.5"
       x1="27.5"
       id="linearGradient4705-1"
       xlink:href="#linearGradient4699-1"
       inkscape:collect="always" />
    <linearGradient
       id="linearGradient4699-1">
      <stop
         id="stop4701-3"
         offset="0"
         style="stop-color:#ffffff;stop-opacity:1;" />
      <stop
         id="stop4703-4"
         offset="1"
         style="stop-color:#ffffff;stop-opacity:0;" />
    </linearGradient>
    <linearGradient
       inkscape:collect="always"
       xlink:href="#linearGradient4699-1"
       id="linearGradient12443"
       gradientUnits="userSpaceOnUse"
       x1="27.5"
       y1="0.5"
       x2="27.5"
       y2="3" />
    <clipPath
       id="clipPath3856"
       clipPathUnits="userSpaceOnUse">
      <path
         inkscape:connector-curvature="0"
         id="path3858"
         d="m 27.84375,12.03125 -15.4375,15.4375 8.125,8.125 L 32.9375,48 46,48 c 1.108,0 2,-0.892 2,-2 l 0,-13.8125 -12.03125,-12.03125 -8.125,-8.125 z m 10.5625,2.4375 0,3.25 -1.625,1.625 L 48,30.5625 l 0,-6.5 -9.59375,-9.59375 z m -18.6875,21.9375 -8.9375,2.4375 -1.625,0 L 18.3125,48 l 13,0 -11.59375,-11.59375 z"
         style="opacity:0.3;fill:#000000;fill-opacity:1;stroke:none;display:inline" />
    </clipPath>
    <clipPath
       id="clipPath4492"
       clipPathUnits="userSpaceOnUse">
      <path
         id="path4494"
         d="m 28.28125,11 c -0.382978,-0.015 -0.701309,0.2118 -0.65625,0.625 l 0,0.9375 c 0.0028,0.107535 0.03337,0.206152 0.0625,0.28125 0.0077,0.0185 0.02221,0.04583 0.03125,0.0625 0.02417,0.04365 0.03048,0.09298 0.0625,0.125 l 0.09375,0.0625 1.6875,1.71875 c -0.09694,0.107303 -0.236384,0.234525 -0.40625,0.40625 l -2.28125,2.375 -6.4375,-6.4375 c -0.08266,-0.08266 -0.181553,-0.128868 -0.34375,-0.125 l -9.25,0 c -0.337919,-0.015 -0.585021,0.2799 -0.5625,0.625 l 0,1.03125 c -3.5e-4,0.08677 0.0032,0.174519 0.03125,0.25 0.02085,0.0575 0.05938,0.108056 0.09375,0.15625 0.01247,0.01766 0.0172,0.0463 0.03125,0.0625 0.0091,0.01035 0.02154,0.02154 0.03125,0.03125 l 0.15625,0.125 1.65625,1.65625 0,0.03125 0,21.53125 c -0.0083,0.0885 -0.01311,0.187768 0,0.25 0.0079,0.0311 0.01605,0.06838 0.03125,0.09375 0.01199,0.02047 0.01402,0.04527 0.03125,0.0625 L 23.40625,48 46,48 c 1.108,0 2,-0.892 2,-2 L 48,21.59375 37.65625,11.25 c -0.01519,-0.03494 -0.03721,-0.06556 -0.0625,-0.09375 -0.0095,-0.0095 -0.02057,-0.02275 -0.03125,-0.03125 -0.03337,-0.02893 -0.07961,-0.04528 -0.125,-0.0625 -0.0085,-0.0029 -0.02235,0.0024 -0.03125,0 -0.0577,-0.01753 -0.114282,-0.03502 -0.1875,-0.03125 L 28.28125,11 z"
         style="opacity:0.3;fill:#000000;fill-opacity:1;fill-rule:evenodd;stroke-width:0.25;display:inline"
         inkscape:connector-curvature="0" />
    </clipPath>
    <linearGradient
       gradientUnits="userSpaceOnUse"
       y2="1007.3218"
       x2="40.915409"
       y1="1049.3521"
       x1="40.915409"
       id="linearGradient6778"
       xlink:href="#linearGradient6772"
       inkscape:collect="always"
       gradientTransform="translate(7.7392578e-7,4.2609766e-5)" />
    <linearGradient
       id="linearGradient6772"
       inkscape:collect="always">
      <stop
         id="stop6774"
         offset="0"
         style="stop-color:#efe963;stop-opacity:1" />
      <stop
         id="stop6776"
         offset="1"
         style="stop-color:#fcf982;stop-opacity:1" />
    </linearGradient>
    <linearGradient
       y2="1007.3218"
       x2="40.915409"
       y1="1049.3521"
       x1="40.915409"
       gradientTransform="translate(-84.249997,-4.7499109)"
       gradientUnits="userSpaceOnUse"
       id="linearGradient3085"
       xlink:href="#linearGradient6772"
       inkscape:collect="always" />
    <clipPath
       clipPathUnits="userSpaceOnUse"
       id="clipPath4331">
      <path
         inkscape:connector-curvature="0"
         style="color:#000000;fill:#0e232e;fill-opacity:0.48709681;fill-rule:nonzero;stroke:none;stroke-width:0.5;marker:none;visibility:visible;display:inline"
         d="m 23.75,7.5625 c -3.451779,0 -6.25,2.7982 -6.25,6.25 l 0,4.6875 c 0,0.330092 0.136168,0.620764 0.34375,0.84375 0.01016,0.01092 0.02071,0.02071 0.03125,0.03125 L 20.96875,22.5 14.5,22.5 c -1.108,0 -2,0.892 -2,2 l 0,13.5 c 0,0.164967 0.02519,0.315591 0.0625,0.46875 0.0262,0.107537 0.05103,0.212656 0.09375,0.3125 0.03933,0.09214 0.104041,0.165705 0.15625,0.25 0.03201,0.05189 0.05727,0.107675 0.09375,0.15625 0.02233,0.02974 0.03857,0.06534 0.0625,0.09375 0.0417,0.04964 0.07872,0.110926 0.125,0.15625 0.04721,0.04594 0.104619,0.08384 0.15625,0.125 L 21.6875,48 46,48 c 1.108,0 2,-0.892 2,-2 L 48,29.25 28.4375,9.6875 C 28.344943,9.5817008 28.255631,9.4742937 28.15625,9.375 28.12092,9.339674 28.06741,9.315722 28.03125,9.28125 27.918981,9.1744958 27.807452,9.0669564 27.6875,8.96875 27.6578,8.944221 27.62391,8.930234 27.59375,8.90625 27.471947,8.81012 27.34765,8.7119582 27.21875,8.625 27.18719,8.603662 27.15696,8.58327 27.125,8.5625 26.990501,8.475245 26.860145,8.3893571 26.71875,8.3125 26.69063,8.297207 26.65338,8.296119 26.625,8.28125 26.494088,8.212761 26.35495,8.1529625 26.21875,8.09375 26.17651,8.075309 26.13647,8.048772 26.09375,8.03125 25.933803,7.965967 25.760065,7.8957447 25.59375,7.84375 25.57208,7.837004 25.553022,7.8190142 25.53125,7.8125 25.352378,7.7587466 25.185323,7.7251536 25,7.6875 24.9901,7.68547 24.97866,7.68948 24.96875,7.6875 24.77271,7.6487168 24.577293,7.6136138 24.375,7.59375 24.165984,7.5725195 23.964744,7.5625 23.75,7.5625 z"
         id="path4333" />
    </clipPath>
    <clipPath
       clipPathUnits="userSpaceOnUse"
       id="clipPath4910">
      <path
         inkscape:connector-curvature="0"
         style="opacity:0.3;color:#000000;fill:#000000;fill-opacity:1;fill-rule:nonzero;stroke:none;stroke-width:0.5;marker:none;visibility:visible;display:inline"
         d="m 24,19.0625 c -1.259925,0 -2.507459,0.507459 -3.46875,1.46875 -1.922581,1.922581 -1.922581,5.014919 0,6.9375 l 0.375,0.34375 L 41.09375,48 46,48 c 1.108,0 2,-0.892 2,-2 l 0,-4.90625 -8.15625,-8.1875 -12.03125,-12 -0.34375,-0.375 C 26.507459,19.569959 25.259925,19.0625 24,19.0625 z"
         id="path4912" />
    </clipPath>
    <filter
       inkscape:collect="always"
       id="filter4914"
       x="-0.24"
       width="1.48"
       y="-0.24"
       height="1.48">
      <feGaussianBlur
         inkscape:collect="always"
         stdDeviation="3.2"
         id="feGaussianBlur4916" />
    </filter>
    <clipPath
       clipPathUnits="userSpaceOnUse"
       id="clipPath4936">
      <path
         inkscape:connector-curvature="0"
         style="fill:#0e232e;fill-opacity:0.82520297;fill-rule:nonzero;stroke:none;display:inline"
         d="m 20.8125,8 0,3.40625 c -1.2224,0.3136 -2.38534,0.7975 -3.4375,1.4375 l -2.4375,-2.40625 -4.5,4.5 2.46875,2.5 c -0.4488,0.7824 -0.81566,1.626981 -1.09375,2.5 -0.0927,0.291006 -0.17816,0.5758 -0.25,0.875 l -3.5625,0 0,6.375 4.15625,4.15625 -1.71875,1.71875 4.5,4.5 9.625,9.625 L 25.375,48 46,48 c 1.108,0 2,-0.892 2,-2 l 0,-20.625 -0.8125,-0.8125 -9.625,-9.625 -4.5,-4.5 -1.71875,1.71875 L 27.1875,8 20.8125,8 z"
         id="path4938" />
    </clipPath>
    <clipPath
       clipPathUnits="userSpaceOnUse"
       id="clipPath4910-6">
      <path
         inkscape:connector-curvature="0"
         style="opacity:0.3;color:#000000;fill:#000000;fill-opacity:1;fill-rule:nonzero;stroke:none;stroke-width:0.5;marker:none;visibility:visible;display:inline"
         d="m 24,19.0625 c -1.259925,0 -2.507459,0.507459 -3.46875,1.46875 -1.922581,1.922581 -1.922581,5.014919 0,6.9375 l 0.375,0.34375 L 41.09375,48 46,48 c 1.108,0 2,-0.892 2,-2 l 0,-4.90625 -8.15625,-8.1875 -12.03125,-12 -0.34375,-0.375 C 26.507459,19.569959 25.259925,19.0625 24,19.0625 z"
         id="path4912-6" />
    </clipPath>
    <filter
       color-interpolation-filters="sRGB"
       inkscape:collect="always"
       id="filter4902-3"
       x="-0.23999999"
       width="1.48"
       y="-0.23999999"
       height="1.48">
      <feGaussianBlur
         inkscape:collect="always"
         stdDeviation="0.9846154"
         id="feGaussianBlur4904-3" />
    </filter>
  </defs>
  <metadata
     id="metadata7">
    <rdf:RDF>
      <cc:Work
         rdf:about="">
        <dc:format>image/svg+xml</dc:format>
        <dc:type
           rdf:resource="http://purl.org/dc/dcmitype/StillImage" />
        <dc:title />
      </cc:Work>
    </rdf:RDF>
  </metadata>
  <g
     style="display:inline"
     transform="translate(0,-1004.3622)"
     id="layer1"
     inkscape:groupmode="layer"
     inkscape:label="base">
    <rect
       ry="2"
       y="1004.3622"
       x="0"
       height="48"
       width="48"
       id="rect3006-5"
       style="color:#000000;fill:#999999;fill-opacity:1;fill-rule:nonzero;stroke:none;stroke-width:0.50000000000000000;marker:none;visibility:visible;display:inline;overflow:visible;enable-background:accumulate" />
  </g>
  <g
     style="display:inline"
     inkscape:label="shadow"
     id="layer2"
     inkscape:groupmode="layer">
    <path
       style="fill:#000000;fill-opacity:1;fill-rule:nonzero;stroke:none;opacity:0.3"
       d="M 20.8125 8 L 20.8125 11.40625 C 19.5901 11.71985 18.42716 12.20375 17.375 12.84375 L 14.9375 10.4375 L 10.4375 14.9375 L 12.90625 17.4375 C 12.45745 18.2199 12.09059 19.064481 11.8125 19.9375 C 11.719803 20.228506 11.63434 20.5133 11.5625 20.8125 L 8 20.8125 L 8 27.1875 L 12.15625 31.34375 L 10.4375 33.0625 L 14.9375 37.5625 L 24.5625 47.1875 L 25.375 48 L 46 48 C 47.108 48 48 47.108 48 46 L 48 25.375 L 47.1875 24.5625 L 37.5625 14.9375 L 33.0625 10.4375 L 31.34375 12.15625 L 27.1875 8 L 20.8125 8 z "
       id="path4373" />
    <path
       inkscape:connector-curvature="0"
       id="path906"
       d=""
       style="fill:#000000" />
    <flowRoot
       transform="translate(-18.261517,-1007.8751)"
       style="font-size:40px;font-style:normal;font-weight:normal;line-height:125%;letter-spacing:0px;word-spacing:0px;fill:#000000;fill-opacity:1;stroke:none;font-family:sans-serif"
       id="flowRoot61"
       xml:space="preserve"><flowRegion
         id="flowRegion63"><rect
           y="6.6342559"
           x="-53.033005"
           height="49.320694"
           width="57.6292"
           id="rect65" /></flowRegion><flowPara
         id="flowPara67" /></flowRoot>    <g
       transform="matrix(0.36107049,0,0,-0.36107049,-148.02412,-4.9056)"
       id="g312"
       style="fill:#000000;fill-opacity:0.49803922" />
    <g
       transform="matrix(0.36107049,0,0,-0.36107049,-136.66874,-16.26168)"
       id="g316"
       style="fill:#000000;fill-opacity:0.49803922" />
    <path
       inkscape:connector-curvature="0"
       id="path334-1"
       style="fill:#ffffff;fill-opacity:1;fill-rule:nonzero;stroke:none;display:inline"
       d="m 40,27.2 0,-6.4 -3.5648,0 C 36.14784,19.6032 35.696,18.4704 35.0976,17.4272 l 2.47872,-2.4768 -4.5248,-4.5248 -2.42752,2.4256 c -1.0528,-0.64 -2.20096,-1.1264 -3.424,-1.44 L 27.2,8 l -6.4,0 0,3.4112 c -1.2224,0.3136 -2.3712,0.8 -3.42336,1.44 l -2.42752,-2.4256 -4.5248,4.5248 2.47872,2.4768 c -0.5984,1.0432 -1.05024,2.176 -1.3376,3.3728 L 8,20.8 l 0,6.4 3.67424,0 c 0.31616,1.1456 0.78592,2.2208 1.38816,3.2128 l -2.63808,2.6368 4.5248,4.5248 2.68992,-2.688 c 0.97984,0.5632 2.04032,0.992 3.16096,1.2864 l 0,3.8272 6.4,0 0,-3.8272 c 1.12064,-0.2944 2.18176,-0.7232 3.1616,-1.2864 l 2.68992,2.688 4.5248,-4.5248 -2.63808,-2.6368 c 0.60224,-0.992 1.072,-2.0672 1.38816,-3.2128 L 40,27.2"
       sodipodi:nodetypes="ccccccccccccccccccccccccccccccccc" />
    <path
       inkscape:connector-curvature="0"
       id="path334-1-9"
       style="fill:#000000;fill-opacity:1;fill-rule:nonzero;stroke:none;display:inline;filter:url(#filter4914)"
       d="m 40,27.2 0,-6.4 -3.5648,0 C 36.14784,19.6032 35.696,18.4704 35.0976,17.4272 l 2.47872,-2.4768 -4.5248,-4.5248 -2.42752,2.4256 c -1.0528,-0.64 -2.20096,-1.1264 -3.424,-1.44 L 27.2,8 l -6.4,0 0,3.4112 c -1.2224,0.3136 -2.3712,0.8 -3.42336,1.44 l -2.42752,-2.4256 -4.5248,4.5248 2.47872,2.4768 c -0.5984,1.0432 -1.05024,2.176 -1.3376,3.3728 L 8,20.8 l 0,6.4 3.67424,0 c 0.31616,1.1456 0.78592,2.2208 1.38816,3.2128 l -2.63808,2.6368 4.5248,4.5248 2.68992,-2.688 c 0.97984,0.5632 2.04032,0.992 3.16096,1.2864 l 0,3.8272 6.4,0 0,-3.8272 c 1.12064,-0.2944 2.18176,-0.7232 3.1616,-1.2864 l 2.68992,2.688 4.5248,-4.5248 -2.63808,-2.6368 c 0.60224,-0.992 1.072,-2.0672 1.38816,-3.2128 L 40,27.2"
       sodipodi:nodetypes="ccccccccccccccccccccccccccccccccc"
       clip-path="url(#clipPath4936)" />
  </g>
  <g
     style="display:inline"
     inkscape:label="icon"
     id="layer3"
     inkscape:groupmode="layer">
    <path
       inkscape:connector-curvature="0"
       id="path334"
       style="fill:#cccccc;fill-opacity:1;fill-rule:nonzero;stroke:none;display:inline"
       d="m 40,27.2 0,-6.4 -3.5648,0 C 36.14784,19.6032 35.696,18.4704 35.0976,17.4272 l 2.47872,-2.4768 -4.5248,-4.5248 -2.42752,2.4256 c -1.0528,-0.64 -2.20096,-1.1264 -3.424,-1.44 L 27.2,8 l -6.4,0 0,3.4112 c -1.2224,0.3136 -2.3712,0.8 -3.42336,1.44 l -2.42752,-2.4256 -4.5248,4.5248 2.47872,2.4768 c -0.5984,1.0432 -1.05024,2.176 -1.3376,3.3728 L 8,20.8 l 0,6.4 3.67424,0 c 0.31616,1.1456 0.78592,2.2208 1.38816,3.2128 l -2.63808,2.6368 4.5248,4.5248 2.68992,-2.688 c 0.97984,0.5632 2.04032,0.992 3.16096,1.2864 l 0,3.8272 6.4,0 0,-3.8272 c 1.12064,-0.2944 2.18176,-0.7232 3.1616,-1.2864 l 2.68992,2.688 4.5248,-4.5248 -2.63808,-2.6368 c 0.60224,-0.992 1.072,-2.0672 1.38816,-3.2128 L 40,27.2"
       sodipodi:nodetypes="ccccccccccccccccccccccccccccccccc" />
  </g>
  <g
     inkscape:groupmode="layer"
     id="layer5"
     inkscape:label="shadow upper"
     style="display:inline">
    <path
       style="opacity:0.3;color:#000000;fill:#000000;fill-opacity:1;fill-rule:nonzero;stroke:none;stroke-width:0.5;marker:none;visibility:visible;display:inline"
       d="M 24 19.0625 C 22.740075 19.0625 21.492541 19.569959 20.53125 20.53125 C 18.608669 22.453831 18.608669 25.546169 20.53125 27.46875 L 20.90625 27.8125 L 28.75 35.65625 C 29.309869 35.43372 29.857301 35.172567 30.375 34.875 L 33.0625 37.5625 L 37.5625 33.0625 L 34.9375 30.40625 C 35.243524 29.902173 35.515162 29.389114 35.75 28.84375 L 27.8125 20.90625 L 27.46875 20.53125 C 26.507459 19.569959 25.259925 19.0625 24 19.0625 z "
       id="path4206" />
    <path
       style="color:#000000;fill:#000000;fill-opacity:1;fill-rule:nonzero;stroke:none;stroke-width:0.5;marker:none;visibility:visible;display:inline;overflow:visible;filter:url(#filter4902-3);enable-background:accumulate"
       d="m 28.923077,24 c 0,2.71894 -2.204137,4.923077 -4.923077,4.923077 -2.71894,0 -4.923077,-2.204137 -4.923077,-4.923077 0,-2.71894 2.204137,-4.923077 4.923077,-4.923077 2.71894,0 4.923077,2.204137 4.923077,4.923077 z"
       id="path3104-1"
       inkscape:connector-curvature="0"
       clip-path="url(#clipPath4910-6)" />
  </g>
  <g
     inkscape:groupmode="layer"
     id="layer6"
     inkscape:label="icon upper">
    <path
       style="color:#000000;fill:#e6e6e6;fill-opacity:1;fill-rule:nonzero;stroke:none;stroke-width:0.50000000000000000;marker:none;visibility:visible;display:inline;overflow:visible;enable-background:accumulate"
       d="m 29,24 c 0,2.761423 -2.238577,5 -5,5 -2.761423,0 -5,-2.238577 -5,-5 0,-2.761423 2.238577,-5 5,-5 2.761423,0 5,2.238577 5,5 z"
       id="path3104"
       inkscape:connector-curvature="0" />
  </g>
  <g
     inkscape:label="hilight"
     id="layer4"
     inkscape:groupmode="layer"
     style="display:inline">
    <path
       id="rect3006"
       d="M 2,0 C 0.892,0 0,0.892 0,2 l 0,44 c 0,1.108 0.892,2 2,2 l 44,0 c 1.108,0 2,-0.892 2,-2 L 48,2 C 48,0.892 47.108,0 46,0 L 2,0 z m 0,0.5 44,0 c 0.83101,0 1.5,0.6689904 1.5,1.5 l 0,44 c 0,0.83101 -0.66899,1.5 -1.5,1.5 l -44,0 C 1.1689904,47.5 0.5,46.83101 0.5,46 L 0.5,2 C 0.5,1.1689904 1.1689904,0.5 2,0.5 z"
       style="opacity:0.4;color:#000000;fill:url(#linearGradient12443);fill-opacity:1;fill-rule:nonzero;stroke:none;stroke-width:0.5;marker:none;visibility:visible;display:inline;overflow:visible;enable-background:accumulate"
       inkscape:connector-curvature="0" />
  </g>
</svg>
