<?xml version="1.0" encoding="UTF-8" standalone="no"?>
<!-- Created with Inkscape (http://www.inkscape.org/) -->

<svg
   xmlns:dc="http://purl.org/dc/elements/1.1/"
   xmlns:cc="http://creativecommons.org/ns#"
   xmlns:rdf="http://www.w3.org/1999/02/22-rdf-syntax-ns#"
   xmlns:svg="http://www.w3.org/2000/svg"
   xmlns="http://www.w3.org/2000/svg"
   xmlns:xlink="http://www.w3.org/1999/xlink"
   xmlns:sodipodi="http://sodipodi.sourceforge.net/DTD/sodipodi-0.dtd"
   xmlns:inkscape="http://www.inkscape.org/namespaces/inkscape"
   width="48"
   height="48"
   id="svg2"
   version="1.1"
   inkscape:version="0.48.4 r9939"
   sodipodi:docname="spotify_B.svg">
  <sodipodi:namedview
     id="base"
     pagecolor="#424242"
     bordercolor="#666666"
     borderopacity="1.0"
     inkscape:pageopacity="1"
     inkscape:pageshadow="2"
     inkscape:zoom="11.313708"
     inkscape:cx="11.526786"
     inkscape:cy="31.740978"
     inkscape:document-units="px"
     inkscape:current-layer="layer1"
     showgrid="false"
     showborder="false"
     borderlayer="false"
     showguides="true"
     inkscape:guide-bbox="true"
     inkscape:window-width="1855"
     inkscape:window-height="1056"
     inkscape:window-x="65"
     inkscape:window-y="24"
     inkscape:window-maximized="1">
    <inkscape:grid
       spacingy="1px"
       spacingx="1px"
       snapvisiblegridlinesonly="true"
       enabled="true"
       visible="true"
       empspacing="5"
       id="grid3004"
       type="xygrid" />
  </sodipodi:namedview>
  <defs
     id="defs4">
    <linearGradient
       id="linearGradient4374">
      <stop
         id="stop4376"
         offset="0"
         style="stop-color:#ffff3e;stop-opacity:1;" />
      <stop
         id="stop4378"
         offset="1"
         style="stop-color:#9ade00;stop-opacity:1;" />
    </linearGradient>
    <linearGradient
       id="linearGradient4699"
       inkscape:collect="always">
      <stop
         id="stop4701"
         offset="0"
         style="stop-color:#19aeff;stop-opacity:1;" />
      <stop
         id="stop4703"
         offset="1"
         style="stop-color:#19aeff;stop-opacity:0;" />
    </linearGradient>
    <linearGradient
       id="linearGradient4691"
       inkscape:collect="always">
      <stop
         id="stop4693"
         offset="0"
         style="stop-color:#19aeff;stop-opacity:1;" />
      <stop
         id="stop4695"
         offset="1"
         style="stop-color:#19aeff;stop-opacity:0;" />
    </linearGradient>
    <linearGradient
       id="linearGradient4665">
      <stop
         id="stop4667"
         offset="0"
         style="stop-color:#95dbff;stop-opacity:1;" />
      <stop
         id="stop4669"
         offset="1"
         style="stop-color:#006ba2;stop-opacity:1;" />
    </linearGradient>
    <linearGradient
       id="linearGradient4634">
      <stop
         id="stop4636"
         offset="0"
         style="stop-color:#000000;stop-opacity:0.38414633;" />
      <stop
         id="stop4638"
         offset="1"
         style="stop-color:#000000;stop-opacity:0;" />
    </linearGradient>
    <linearGradient
       gradientUnits="userSpaceOnUse"
       y2="28"
       x2="25"
       y1="3"
       x1="3"
       id="linearGradient3821-9"
       xlink:href="#linearGradient3815-5"
       inkscape:collect="always" />
    <linearGradient
       id="linearGradient3815-5"
       inkscape:collect="always">
      <stop
         id="stop3817-1"
         offset="0"
         style="stop-color:#ffffff;stop-opacity:1;" />
      <stop
         id="stop3819-9"
         offset="1"
         style="stop-color:#ffffff;stop-opacity:0;" />
    </linearGradient>
    <linearGradient
       gradientUnits="userSpaceOnUse"
       y2="1047.3622"
       x2="42.5"
       y1="1049.8622"
       x1="45"
       id="linearGradient4697"
       xlink:href="#linearGradient4691"
       inkscape:collect="always" />
    <linearGradient
       gradientUnits="userSpaceOnUse"
       y2="3"
       x2="27.5"
       y1="0.5"
       x1="27.5"
       id="linearGradient4705"
       xlink:href="#linearGradient4699"
       inkscape:collect="always" />
    <linearGradient
       gradientUnits="userSpaceOnUse"
       y2="1047.3622"
       x2="42.5"
       y1="1049.8622"
       x1="45"
       id="linearGradient4697-1"
       xlink:href="#linearGradient4691-0"
       inkscape:collect="always" />
    <linearGradient
       id="linearGradient4691-0"
       inkscape:collect="always">
      <stop
         id="stop4693-5"
         offset="0"
         style="stop-color:#19aeff;stop-opacity:1;" />
      <stop
         id="stop4695-5"
         offset="1"
         style="stop-color:#19aeff;stop-opacity:0;" />
    </linearGradient>
    <linearGradient
       inkscape:collect="always"
       xlink:href="#linearGradient4699-1"
       id="linearGradient12409"
       gradientUnits="userSpaceOnUse"
       x1="45"
       y1="1049.8622"
       x2="42.5"
       y2="1047.3622"
       gradientTransform="translate(0,-1004.3622)" />
    <linearGradient
       gradientUnits="userSpaceOnUse"
       y2="3"
       x2="27.5"
       y1="0.5"
       x1="27.5"
       id="linearGradient4705-1"
       xlink:href="#linearGradient4699-1"
       inkscape:collect="always" />
    <linearGradient
       id="linearGradient4699-1">
      <stop
         id="stop4701-3"
         offset="0"
         style="stop-color:#ffffff;stop-opacity:1;" />
      <stop
         id="stop4703-4"
         offset="1"
         style="stop-color:#ffffff;stop-opacity:0;" />
    </linearGradient>
    <linearGradient
       inkscape:collect="always"
       xlink:href="#linearGradient4699-1"
       id="linearGradient12443"
       gradientUnits="userSpaceOnUse"
       x1="27.5"
       y1="0.5"
       x2="27.5"
       y2="3" />
    <clipPath
       clipPathUnits="userSpaceOnUse"
       id="clipPath5263">
      <path
         inkscape:connector-curvature="0"
         style="opacity:0.4;fill:#000000;fill-opacity:1;stroke:none;display:inline"
         d="m 13,10 0,11 2,2 -2,0 0,15 10,10 23,0 c 1.108,0 2,-0.892 2,-2 l 0,-23 -13,-13 -6,0 0,2 -2,-2 -14,0 z"
         id="path5265" />
    </clipPath>
    <radialGradient
       gradientUnits="userSpaceOnUse"
       r="128"
       id="radial0"
       gradientTransform="matrix(0.1831,0,0,0.1831,-3.10029,-5.29688)"
       cy="160"
       cx="148.004">
      <stop
         id="stop3047"
         style="stop-color:#d0ea8b"
         offset="0" />
      <stop
         id="stop3049"
         style="stop-color:#4d6705"
         offset="1" />
    </radialGradient>
    <clipPath
       id="clipPath4327"
       clipPathUnits="userSpaceOnUse">
      <path
         id="path4329"
         d="m 21.65625,16.34375 c -2.77,0 -5.310417,0.326667 -7.59375,1 -0.58,0.173334 -1.125,0.66125 -1.125,1.53125 0,0.434476 0.160297,0.816548 0.4375,1.09375 l 0.21875,0.1875 2.3125,2.34375 c -0.290197,0.07174 -0.588655,0.14027 -0.875,0.21875 -0.663334,0.19 -1,0.663751 -1,1.34375 0,0.346249 0.149231,0.649231 0.375,0.875 l 2.5625,2.5625 c -0.470149,0.08558 -0.934341,0.173817 -1.40625,0.28125 -0.483334,0.09 -0.875,0.42375 -0.875,1.09375 0,0.135638 0.01279,0.253118 0.0625,0.375 0.04635,0.118281 0.131667,0.220208 0.21875,0.3125 0.0059,0.0062 -0.006,0.02522 0,0.03125 L 33.375,48 46,48 c 1.108,0 2,-0.892 2,-2 L 48,32.46875 35.5,20 c -0.01215,-0.02028 -0.01823,-0.0431 -0.03125,-0.0625 l -0.1875,-0.21875 C 35.27099,19.70849 35.26056,19.69746 35.25,19.6875 c -0.09898,-0.09087 -0.222083,-0.181667 -0.34375,-0.25 -3.610001,-2.123333 -8.553333,-3.09375 -13.25,-3.09375 z"
         style="opacity:0.25;color:#000000;fill:#000000;fill-opacity:1;fill-rule:nonzero;stroke:none;stroke-width:1;marker:none;visibility:visible;display:inline"
         inkscape:connector-curvature="0" />
    </clipPath>
    <radialGradient
       gradientUnits="userSpaceOnUse"
       r="24"
       fy="1021.3622"
       fx="25"
       cy="1021.3622"
       cx="25"
       id="radialGradient4380"
       xlink:href="#linearGradient4374"
       inkscape:collect="always" />
    <radialGradient
       gradientUnits="userSpaceOnUse"
       r="24"
       fy="1021.3622"
       fx="25"
       cy="1021.3622"
       cx="25"
       id="radialGradient4380-8"
       xlink:href="#linearGradient4374-9"
       inkscape:collect="always" />
    <linearGradient
       id="linearGradient4374-9">
      <stop
         id="stop4376-7"
         offset="0"
         style="stop-color:#aefb00;stop-opacity:1;" />
      <stop
         id="stop4378-7"
         offset="1"
         style="stop-color:#77ab00;stop-opacity:1;" />
    </linearGradient>
    <radialGradient
       gradientTransform="translate(0,-1004.3622)"
       r="24"
       fy="1021.3622"
       fx="25"
       cy="1021.3622"
       cx="25"
       gradientUnits="userSpaceOnUse"
       id="radialGradient4862"
       xlink:href="#linearGradient4374-9"
       inkscape:collect="always" />
    <radialGradient
       inkscape:collect="always"
       xlink:href="#linearGradient4374"
       id="radialGradient4888"
       gradientUnits="userSpaceOnUse"
       cx="25"
       cy="1018.7407"
       fx="25"
       fy="1018.7407"
       r="24"
       gradientTransform="matrix(0.88269814,0,0,0.88269814,2.9325465,121.12164)" />
  </defs>
  <metadata
     id="metadata7">
    <rdf:RDF>
      <cc:Work
         rdf:about="">
        <dc:format>image/svg+xml</dc:format>
        <dc:type
           rdf:resource="http://purl.org/dc/dcmitype/StillImage" />
        <dc:title />
      </cc:Work>
    </rdf:RDF>
  </metadata>
  <g
     style="display:inline"
     transform="translate(0,-1004.3622)"
     id="layer1"
     inkscape:groupmode="layer"
     inkscape:label="base">
    <rect
       ry="2"
       y="1004.3622"
       x="0"
       height="48"
       width="48"
       id="rect3006-5"
       style="color:#000000;fill:url(#radialGradient4888);fill-opacity:1;fill-rule:nonzero;stroke:none;stroke-width:0.50000000000000000;marker:none;visibility:visible;display:inline;overflow:visible;enable-background:accumulate" />
  </g>
  <g
     style="display:inline"
     inkscape:label="shadow"
     id="layer2"
     inkscape:groupmode="layer">
    <path
       style="font-size:medium;font-style:normal;font-variant:normal;font-weight:normal;font-stretch:normal;text-indent:0;text-align:start;text-decoration:none;line-height:normal;letter-spacing:normal;word-spacing:normal;text-transform:none;direction:ltr;block-progression:tb;writing-mode:lr-tb;text-anchor:start;opacity:0.25;color:#000000;fill:#000000;fill-opacity:1;stroke:none;stroke-width:5.703125;marker:none;visibility:visible;font-family:Sans;-inkscape-font-specification:Sans"
       d="M 15.53125 13.28125 C 12.049913 13.27285 8.543896 13.731786 5.09375 14.65625 C 4.8344117 14.721257 4.5883901 14.838919 4.375 15 C 3.6651188 15.56579 3.437782 16.656814 3.84375 17.46875 C 3.9325555 17.646361 4.0487474 17.797256 4.1875 17.9375 C 4.2073218 17.957535 4.2293374 17.980809 4.25 18 L 4.46875 18.1875 C 4.4810864 18.196053 4.4874798 18.21046 4.5 18.21875 L 7.71875 21.46875 C 7.467733 21.529758 7.2188161 21.589245 6.96875 21.65625 C 6.7446452 21.70773 6.5309037 21.80391 6.34375 21.9375 C 5.6798671 22.417565 5.4490811 23.390745 5.8125 24.125 C 5.892666 24.286968 5.9976043 24.436184 6.125 24.5625 C 6.2040703 24.6409 6.2824619 24.718633 6.375 24.78125 C 6.3868282 24.789254 6.3942351 24.804769 6.40625 24.8125 L 9.96875 28.40625 C 9.5936989 28.489066 9.2168795 28.55627 8.84375 28.65625 C 8.652549 28.70362 8.4708739 28.789118 8.3125 28.90625 C 7.7800891 29.330593 7.601774 30.141048 7.90625 30.75 C 7.97405 30.8856 8.049739 31.018489 8.15625 31.125 L 8.21875 31.15625 L 25.0625 48 L 46 48 C 47.108 48 48 47.108 48 46 L 48 29.25 L 43.75 25 C 36.172953 17.422953 25.975259 13.306322 15.53125 13.28125 z "
       id="path4611" />
  </g>
  <g
     style="display:inline"
     inkscape:label="icon"
     id="layer3"
     inkscape:groupmode="layer">
    <g
       id="g3048"
       transform="matrix(0.86602541,-0.50000001,0.50000001,0.86602541,-9.6470561,15.818849)">
      <path
         style="font-size:medium;font-style:normal;font-variant:normal;font-weight:normal;font-stretch:normal;text-indent:0;text-align:start;text-decoration:none;line-height:normal;letter-spacing:normal;word-spacing:normal;text-transform:none;direction:ltr;block-progression:tb;writing-mode:lr-tb;text-anchor:start;baseline-shift:baseline;color:#000000;fill:#006b00;fill-opacity:1;stroke:none;stroke-width:5.703125;marker:none;visibility:visible;display:inline;overflow:visible;enable-background:accumulate;font-family:Sans;-inkscape-font-specification:Sans"
         d="m 12.556165,6.2931512 a 2.0002,2.0002 0 0 0 -0.241096,3.9232878 c 12.42641,3.329647 22.138846,13.042082 25.468493,25.468493 a 2.0002,2.0002 0 1 0 3.857534,-1.030137 C 37.943241,20.85421 27.14579,10.056761 13.345206,6.3589046 a 2.0002,2.0002 0 0 0 -0.789041,-0.065753 z"
         id="path3816-1-7"
         inkscape:connector-curvature="0" />
      <path
         style="font-size:medium;font-style:normal;font-variant:normal;font-weight:normal;font-stretch:normal;text-indent:0;text-align:start;text-decoration:none;line-height:normal;letter-spacing:normal;word-spacing:normal;text-transform:none;direction:ltr;block-progression:tb;writing-mode:lr-tb;text-anchor:start;baseline-shift:baseline;color:#000000;fill:#008400;fill-opacity:1;stroke:none;stroke-width:4.99023438;marker:none;visibility:visible;display:inline;overflow:visible;enable-background:accumulate;font-family:Sans;-inkscape-font-specification:Sans"
         d="m 10.780822,13.30685 a 1.750175,1.750175 0 0 0 -0.219178,3.441096 c 10.096652,2.70539 17.985021,10.593758 20.690411,20.690411 a 1.750175,1.750175 0 1 0 3.375342,-0.920548 C 31.599825,25.218754 22.781246,16.400176 11.482192,13.372603 a 1.750175,1.750175 0 0 0 -0.70137,-0.06575 z"
         id="path3816-1-6"
         inkscape:connector-curvature="0" />
      <path
         style="font-size:medium;font-style:normal;font-variant:normal;font-weight:normal;font-stretch:normal;text-indent:0;text-align:start;text-decoration:none;line-height:normal;letter-spacing:normal;word-spacing:normal;text-transform:none;direction:ltr;block-progression:tb;writing-mode:lr-tb;text-anchor:start;baseline-shift:baseline;color:#000000;fill:#009100;fill-opacity:1;stroke:none;stroke-width:4.27734375;marker:none;visibility:visible;display:inline;overflow:visible;enable-background:accumulate;font-family:Sans;-inkscape-font-specification:Sans"
         d="M 9.0054797,20.320548 A 1.50015,1.50015 0 0 0 8.8301373,23.257535 C 16.597031,25.338668 22.661333,31.40297 24.742466,39.169863 A 1.50015,1.50015 0 1 0 27.635617,38.40274 C 25.278327,29.605216 18.394785,22.721674 9.5972605,20.364384 a 1.50015,1.50015 0 0 0 -0.5917808,-0.04384 z"
         id="path3816-1-5"
         inkscape:connector-curvature="0" />
    </g>
  </g>
  <g
     inkscape:label="hilight"
     id="layer4"
     inkscape:groupmode="layer">
    <path
       id="rect3006"
       d="M 2,0 C 0.892,0 0,0.892 0,2 l 0,44 c 0,1.108 0.892,2 2,2 l 44,0 c 1.108,0 2,-0.892 2,-2 L 48,2 C 48,0.892 47.108,0 46,0 L 2,0 z m 0,0.5 44,0 c 0.83101,0 1.5,0.6689904 1.5,1.5 l 0,44 c 0,0.83101 -0.66899,1.5 -1.5,1.5 l -44,0 C 1.1689904,47.5 0.5,46.83101 0.5,46 L 0.5,2 C 0.5,1.1689904 1.1689904,0.5 2,0.5 z"
       style="opacity:0.4;color:#000000;fill:url(#linearGradient12443);fill-opacity:1;fill-rule:nonzero;stroke:none;stroke-width:0.5;marker:none;visibility:visible;display:inline;overflow:visible;enable-background:accumulate"
       inkscape:connector-curvature="0" />
  </g>
</svg>
