<?xml version="1.0" encoding="UTF-8" standalone="no"?>
<!-- Created with Inkscape (http://www.inkscape.org/) -->

<svg
   xmlns:dc="http://purl.org/dc/elements/1.1/"
   xmlns:cc="http://creativecommons.org/ns#"
   xmlns:rdf="http://www.w3.org/1999/02/22-rdf-syntax-ns#"
   xmlns:svg="http://www.w3.org/2000/svg"
   xmlns="http://www.w3.org/2000/svg"
   xmlns:xlink="http://www.w3.org/1999/xlink"
   xmlns:sodipodi="http://sodipodi.sourceforge.net/DTD/sodipodi-0.dtd"
   xmlns:inkscape="http://www.inkscape.org/namespaces/inkscape"
   sodipodi:docname="spotify_A.svg"
   inkscape:version="0.48.4 r9939"
   version="1.1"
   id="svg2"
   height="48"
   width="48">
  <sodipodi:namedview
     id="base"
     pagecolor="#424242"
     bordercolor="#666666"
     borderopacity="1.0"
     inkscape:pageopacity="1"
     inkscape:pageshadow="2"
     inkscape:zoom="11.313708"
     inkscape:cx="37.330113"
     inkscape:cy="23.05904"
     inkscape:document-units="px"
     inkscape:current-layer="layer3"
     showgrid="false"
     showborder="false"
     borderlayer="false"
     showguides="true"
     inkscape:guide-bbox="true"
     inkscape:window-width="1855"
     inkscape:window-height="1056"
     inkscape:window-x="65"
     inkscape:window-y="24"
     inkscape:window-maximized="1">
    <inkscape:grid
       type="xygrid"
       id="grid3004"
       empspacing="5"
       visible="true"
       enabled="true"
       snapvisiblegridlinesonly="true"
       spacingx="1px"
       spacingy="1px" />
  </sodipodi:namedview>
  <defs
     id="defs4">
    <linearGradient
       inkscape:collect="always"
       id="linearGradient4699">
      <stop
         style="stop-color:#19aeff;stop-opacity:1;"
         offset="0"
         id="stop4701" />
      <stop
         style="stop-color:#19aeff;stop-opacity:0;"
         offset="1"
         id="stop4703" />
    </linearGradient>
    <linearGradient
       inkscape:collect="always"
       id="linearGradient4691">
      <stop
         style="stop-color:#19aeff;stop-opacity:1;"
         offset="0"
         id="stop4693" />
      <stop
         style="stop-color:#19aeff;stop-opacity:0;"
         offset="1"
         id="stop4695" />
    </linearGradient>
    <linearGradient
       id="linearGradient4665">
      <stop
         style="stop-color:#95dbff;stop-opacity:1;"
         offset="0"
         id="stop4667" />
      <stop
         style="stop-color:#006ba2;stop-opacity:1;"
         offset="1"
         id="stop4669" />
    </linearGradient>
    <linearGradient
       id="linearGradient4634">
      <stop
         style="stop-color:#000000;stop-opacity:0.38414633;"
         offset="0"
         id="stop4636" />
      <stop
         style="stop-color:#000000;stop-opacity:0;"
         offset="1"
         id="stop4638" />
    </linearGradient>
    <linearGradient
       inkscape:collect="always"
       xlink:href="#linearGradient3815-5"
       id="linearGradient3821-9"
       x1="3"
       y1="3"
       x2="25"
       y2="28"
       gradientUnits="userSpaceOnUse" />
    <linearGradient
       inkscape:collect="always"
       id="linearGradient3815-5">
      <stop
         style="stop-color:#ffffff;stop-opacity:1;"
         offset="0"
         id="stop3817-1" />
      <stop
         style="stop-color:#ffffff;stop-opacity:0;"
         offset="1"
         id="stop3819-9" />
    </linearGradient>
    <linearGradient
       inkscape:collect="always"
       xlink:href="#linearGradient4691"
       id="linearGradient4697"
       x1="45"
       y1="1049.8622"
       x2="42.5"
       y2="1047.3622"
       gradientUnits="userSpaceOnUse" />
    <linearGradient
       inkscape:collect="always"
       xlink:href="#linearGradient4699"
       id="linearGradient4705"
       x1="27.5"
       y1="0.5"
       x2="27.5"
       y2="3"
       gradientUnits="userSpaceOnUse" />
    <linearGradient
       inkscape:collect="always"
       xlink:href="#linearGradient4691-0"
       id="linearGradient4697-1"
       x1="45"
       y1="1049.8622"
       x2="42.5"
       y2="1047.3622"
       gradientUnits="userSpaceOnUse" />
    <linearGradient
       inkscape:collect="always"
       id="linearGradient4691-0">
      <stop
         style="stop-color:#19aeff;stop-opacity:1;"
         offset="0"
         id="stop4693-5" />
      <stop
         style="stop-color:#19aeff;stop-opacity:0;"
         offset="1"
         id="stop4695-5" />
    </linearGradient>
    <linearGradient
       gradientTransform="translate(0,-1004.3622)"
       y2="1047.3622"
       x2="42.5"
       y1="1049.8622"
       x1="45"
       gradientUnits="userSpaceOnUse"
       id="linearGradient12409"
       xlink:href="#linearGradient4699-1"
       inkscape:collect="always" />
    <linearGradient
       inkscape:collect="always"
       xlink:href="#linearGradient4699-1"
       id="linearGradient4705-1"
       x1="27.5"
       y1="0.5"
       x2="27.5"
       y2="3"
       gradientUnits="userSpaceOnUse" />
    <linearGradient
       id="linearGradient4699-1">
      <stop
         style="stop-color:#ffffff;stop-opacity:1;"
         offset="0"
         id="stop4701-3" />
      <stop
         style="stop-color:#ffffff;stop-opacity:0;"
         offset="1"
         id="stop4703-4" />
    </linearGradient>
    <linearGradient
       y2="3"
       x2="27.5"
       y1="0.5"
       x1="27.5"
       gradientUnits="userSpaceOnUse"
       id="linearGradient12443"
       xlink:href="#linearGradient4699-1"
       inkscape:collect="always" />
    <clipPath
       id="clipPath5263"
       clipPathUnits="userSpaceOnUse">
      <path
         id="path5265"
         d="m 13,10 0,11 2,2 -2,0 0,15 10,10 23,0 c 1.108,0 2,-0.892 2,-2 l 0,-23 -13,-13 -6,0 0,2 -2,-2 -14,0 z"
         style="opacity:0.4;fill:#000000;fill-opacity:1;stroke:none;display:inline"
         inkscape:connector-curvature="0" />
    </clipPath>
    <radialGradient
       cx="148.004"
       cy="160"
       gradientTransform="matrix(0.1831,0,0,0.1831,-3.10029,-5.29688)"
       id="radial0"
       r="128"
       gradientUnits="userSpaceOnUse">
      <stop
         offset="0"
         style="stop-color:#d0ea8b"
         id="stop3047" />
      <stop
         offset="1"
         style="stop-color:#4d6705"
         id="stop3049" />
    </radialGradient>
    <clipPath
       clipPathUnits="userSpaceOnUse"
       id="clipPath4327">
      <path
         inkscape:connector-curvature="0"
         style="opacity:0.25;color:#000000;fill:#000000;fill-opacity:1;fill-rule:nonzero;stroke:none;stroke-width:1;marker:none;visibility:visible;display:inline"
         d="m 21.65625,16.34375 c -2.77,0 -5.310417,0.326667 -7.59375,1 -0.58,0.173334 -1.125,0.66125 -1.125,1.53125 0,0.434476 0.160297,0.816548 0.4375,1.09375 l 0.21875,0.1875 2.3125,2.34375 c -0.290197,0.07174 -0.588655,0.14027 -0.875,0.21875 -0.663334,0.19 -1,0.663751 -1,1.34375 0,0.346249 0.149231,0.649231 0.375,0.875 l 2.5625,2.5625 c -0.470149,0.08558 -0.934341,0.173817 -1.40625,0.28125 -0.483334,0.09 -0.875,0.42375 -0.875,1.09375 0,0.135638 0.01279,0.253118 0.0625,0.375 0.04635,0.118281 0.131667,0.220208 0.21875,0.3125 0.0059,0.0062 -0.006,0.02522 0,0.03125 L 33.375,48 46,48 c 1.108,0 2,-0.892 2,-2 L 48,32.46875 35.5,20 c -0.01215,-0.02028 -0.01823,-0.0431 -0.03125,-0.0625 l -0.1875,-0.21875 C 35.27099,19.70849 35.26056,19.69746 35.25,19.6875 c -0.09898,-0.09087 -0.222083,-0.181667 -0.34375,-0.25 -3.610001,-2.123333 -8.553333,-3.09375 -13.25,-3.09375 z"
         id="path4329" />
    </clipPath>
  </defs>
  <metadata
     id="metadata7">
    <rdf:RDF>
      <cc:Work
         rdf:about="">
        <dc:format>image/svg+xml</dc:format>
        <dc:type
           rdf:resource="http://purl.org/dc/dcmitype/StillImage" />
        <dc:title />
      </cc:Work>
    </rdf:RDF>
  </metadata>
  <g
     inkscape:label="base"
     inkscape:groupmode="layer"
     id="layer1"
     transform="translate(0,-1004.3622)"
     style="display:inline">
    <rect
       style="color:#000000;fill:#9ade00;fill-opacity:1;fill-rule:nonzero;stroke:none;stroke-width:0.50000000000000000;marker:none;visibility:visible;display:inline;overflow:visible;enable-background:accumulate"
       id="rect3006-5"
       width="48"
       height="48"
       x="0"
       y="1004.3622"
       ry="2" />
  </g>
  <g
     inkscape:groupmode="layer"
     id="layer2"
     inkscape:label="shadow"
     style="display:inline">
    <path
       style="font-size:medium;font-style:normal;font-variant:normal;font-weight:normal;font-stretch:normal;text-indent:0;text-align:start;text-decoration:none;line-height:normal;letter-spacing:normal;word-spacing:normal;text-transform:none;direction:ltr;block-progression:tb;writing-mode:lr-tb;text-anchor:start;opacity:0.25;color:#000000;fill:#000000;fill-opacity:1;stroke:none;stroke-width:5.703125;marker:none;visibility:visible;font-family:Sans;-inkscape-font-specification:Sans"
       d="M 7.125 9.875 C 6.9312145 9.899249 6.7410294 9.952079 6.5625 10.03125 C 6.0351944 10.253192 5.6203059 10.709802 5.4375 11.25 C 5.43463 11.2581 5.44027 11.27308 5.4375 11.28125 C 5.3355436 11.597271 5.3086341 11.95473 5.375 12.28125 C 5.406907 12.438231 5.45904 12.578284 5.53125 12.71875 C 5.552451 12.76191 5.569424 12.80223 5.59375 12.84375 C 5.664144 12.959584 5.7515165 13.055501 5.84375 13.15625 C 5.872862 13.18921 5.906377 13.21888 5.9375 13.25 C 5.988507 13.2998 6.0384151 13.361153 6.09375 13.40625 L 9.90625 17.21875 C 9.7602783 17.20735 9.6150962 17.19695 9.46875 17.1875 C 9.458378 17.18681 9.447874 17.18818 9.4375 17.1875 C 8.7472207 17.143591 8.0412907 17.125 7.34375 17.125 C 7.1093031 17.12 6.8739486 17.16284 6.65625 17.25 C 6.4677738 17.32531 6.3041462 17.425413 6.15625 17.5625 C 6.082446 17.63077 5.9990401 17.701464 5.9375 17.78125 C 5.870435 17.86626 5.8327579 17.967052 5.78125 18.0625 C 5.733339 18.15127 5.689166 18.217268 5.65625 18.3125 C 5.618498 18.416408 5.612 18.516337 5.59375 18.625 C 5.575553 18.733981 5.559207 18.826976 5.5625 18.9375 C 5.56358 19.038225 5.573494 19.11931 5.59375 19.21875 C 5.674775 19.61651 5.9021983 19.965876 6.21875 20.21875 L 10.59375 24.59375 C 10.057112 24.524999 9.5123946 24.472092 8.96875 24.4375 C 8.4308259 24.403272 7.8871666 24.375 7.34375 24.375 C 7.291714 24.3723 7.2395362 24.3723 7.1875 24.375 C 7.0364517 24.39414 6.8883615 24.43645 6.75 24.5 C 6.1254175 24.772648 5.7371645 25.520086 5.875 26.1875 C 5.904027 26.328052 5.961747 26.438029 6.03125 26.5625 C 6.089603 26.668411 6.1681032 26.753848 6.25 26.84375 C 6.26568 26.86086 6.264831 26.88983 6.28125 26.90625 C 6.322735 26.94821 6.360551 26.99386 6.40625 27.03125 L 27.375 48 L 46 48 C 47.108 48 48 47.108 48 46 L 48 34 L 36.03125 22.03125 L 35.625 21.625 C 35.368987 21.369143 35.1062 21.123454 34.84375 20.875 C 34.629949 20.6726 34.436717 20.447426 34.21875 20.25 C 34.042877 20.090555 33.866033 19.937422 33.6875 19.78125 C 33.65954 19.75681 33.62177 19.74311 33.59375 19.71875 C 33.034265 19.232098 32.459398 18.766519 31.875 18.3125 C 31.799641 18.253953 31.732009 18.182996 31.65625 18.125 C 31.501114 18.006197 31.344293 17.897729 31.1875 17.78125 C 30.555487 17.311713 29.907782 16.86861 29.25 16.4375 C 28.63409 16.033833 28.011936 15.650309 27.375 15.28125 C 27.362824 15.274195 27.355934 15.257042 27.34375 15.25 C 26.983766 15.041825 26.616308 14.853154 26.25 14.65625 C 25.854673 14.443742 25.464862 14.230437 25.0625 14.03125 C 24.492615 13.749132 23.926916 13.473659 23.34375 13.21875 C 23.134117 13.12712 22.930014 13.025567 22.71875 12.9375 C 22.123122 12.689199 21.514152 12.469551 20.90625 12.25 C 20.69774 12.17456 20.491126 12.103259 20.28125 12.03125 C 20.19771 12.00263 20.115006 11.96557 20.03125 11.9375 C 19.418934 11.731994 18.810565 11.550978 18.1875 11.375 C 18.050235 11.33623 17.919007 11.28732 17.78125 11.25 C 17.582922 11.19622 17.38682 11.144505 17.1875 11.09375 C 15.705564 10.716847 14.185498 10.42415 12.65625 10.21875 C 12.553669 10.205 12.446512 10.20046 12.34375 10.1875 C 11.672033 10.102659 10.991309 10.050694 10.3125 10 C 10.208617 9.9922419 10.104034 9.9756995 10 9.96875 C 9.7816438 9.9541401 9.5627444 9.9485319 9.34375 9.9375 C 8.6775456 9.9039816 8.0151673 9.875 7.34375 9.875 C 7.270906 9.87101 7.1978439 9.87101 7.125 9.875 z "
       id="path4090" />
  </g>
  <g
     inkscape:groupmode="layer"
     id="layer3"
     inkscape:label="icon"
     style="display:inline">
    <g
       transform="matrix(0.96592583,-0.25881905,0.25881905,0.96592583,-7.196495,7.195058)"
       id="g3048">
      <path
         inkscape:connector-curvature="0"
         id="path3816-1-7"
         d="m 12.556165,6.2931512 a 2.0002,2.0002 0 0 0 -0.241096,3.9232878 c 12.42641,3.329647 22.138846,13.042082 25.468493,25.468493 a 2.0002,2.0002 0 1 0 3.857534,-1.030137 C 37.943241,20.85421 27.14579,10.056761 13.345206,6.3589046 a 2.0002,2.0002 0 0 0 -0.789041,-0.065753 z"
         style="font-size:medium;font-style:normal;font-variant:normal;font-weight:normal;font-stretch:normal;text-indent:0;text-align:start;text-decoration:none;line-height:normal;letter-spacing:normal;word-spacing:normal;text-transform:none;direction:ltr;block-progression:tb;writing-mode:lr-tb;text-anchor:start;baseline-shift:baseline;color:#000000;fill:#006b00;fill-opacity:1;stroke:none;stroke-width:5.703125;marker:none;visibility:visible;display:inline;overflow:visible;enable-background:accumulate;font-family:Sans;-inkscape-font-specification:Sans" />
      <path
         inkscape:connector-curvature="0"
         id="path3816-1-6"
         d="m 10.780822,13.30685 a 1.750175,1.750175 0 0 0 -0.219178,3.441096 c 10.096652,2.70539 17.985021,10.593758 20.690411,20.690411 a 1.750175,1.750175 0 1 0 3.375342,-0.920548 C 31.599825,25.218754 22.781246,16.400176 11.482192,13.372603 a 1.750175,1.750175 0 0 0 -0.70137,-0.06575 z"
         style="font-size:medium;font-style:normal;font-variant:normal;font-weight:normal;font-stretch:normal;text-indent:0;text-align:start;text-decoration:none;line-height:normal;letter-spacing:normal;word-spacing:normal;text-transform:none;direction:ltr;block-progression:tb;writing-mode:lr-tb;text-anchor:start;baseline-shift:baseline;color:#000000;fill:#008400;fill-opacity:1;stroke:none;stroke-width:4.99023438;marker:none;visibility:visible;display:inline;overflow:visible;enable-background:accumulate;font-family:Sans;-inkscape-font-specification:Sans" />
      <path
         inkscape:connector-curvature="0"
         id="path3816-1-5"
         d="M 9.0054797,20.320548 A 1.50015,1.50015 0 0 0 8.8301373,23.257535 C 16.597031,25.338668 22.661333,31.40297 24.742466,39.169863 A 1.50015,1.50015 0 1 0 27.635617,38.40274 C 25.278327,29.605216 18.394785,22.721674 9.5972605,20.364384 a 1.50015,1.50015 0 0 0 -0.5917808,-0.04384 z"
         style="font-size:medium;font-style:normal;font-variant:normal;font-weight:normal;font-stretch:normal;text-indent:0;text-align:start;text-decoration:none;line-height:normal;letter-spacing:normal;word-spacing:normal;text-transform:none;direction:ltr;block-progression:tb;writing-mode:lr-tb;text-anchor:start;baseline-shift:baseline;color:#000000;fill:#009100;fill-opacity:1;stroke:none;stroke-width:4.27734375;marker:none;visibility:visible;display:inline;overflow:visible;enable-background:accumulate;font-family:Sans;-inkscape-font-specification:Sans" />
    </g>
  </g>
  <g
     inkscape:groupmode="layer"
     id="layer4"
     inkscape:label="hilight">
    <path
       inkscape:connector-curvature="0"
       style="opacity:0.4;color:#000000;fill:url(#linearGradient12443);fill-opacity:1;fill-rule:nonzero;stroke:none;stroke-width:0.5;marker:none;visibility:visible;display:inline;overflow:visible;enable-background:accumulate"
       d="M 2,0 C 0.892,0 0,0.892 0,2 l 0,44 c 0,1.108 0.892,2 2,2 l 44,0 c 1.108,0 2,-0.892 2,-2 L 48,2 C 48,0.892 47.108,0 46,0 L 2,0 z m 0,0.5 44,0 c 0.83101,0 1.5,0.6689904 1.5,1.5 l 0,44 c 0,0.83101 -0.66899,1.5 -1.5,1.5 l -44,0 C 1.1689904,47.5 0.5,46.83101 0.5,46 L 0.5,2 C 0.5,1.1689904 1.1689904,0.5 2,0.5 z"
       id="rect3006" />
  </g>
</svg>
