<?xml version="1.0" encoding="UTF-8" standalone="no"?>
<!-- Created with Inkscape (http://www.inkscape.org/) -->

<svg
   xmlns:dc="http://purl.org/dc/elements/1.1/"
   xmlns:cc="http://creativecommons.org/ns#"
   xmlns:rdf="http://www.w3.org/1999/02/22-rdf-syntax-ns#"
   xmlns:svg="http://www.w3.org/2000/svg"
   xmlns="http://www.w3.org/2000/svg"
   xmlns:xlink="http://www.w3.org/1999/xlink"
   xmlns:sodipodi="http://sodipodi.sourceforge.net/DTD/sodipodi-0.dtd"
   xmlns:inkscape="http://www.inkscape.org/namespaces/inkscape"
   sodipodi:docname="template.svg"
   inkscape:version="0.48.4 r9939"
   version="1.1"
   id="svg2"
   height="48"
   width="48">
  <sodipodi:namedview
     id="base"
     pagecolor="#424242"
     bordercolor="#666666"
     borderopacity="1.0"
     inkscape:pageopacity="1"
     inkscape:pageshadow="2"
     inkscape:zoom="7.9999996"
     inkscape:cx="-1.0812485"
     inkscape:cy="13.076562"
     inkscape:document-units="px"
     inkscape:current-layer="layer1"
     showgrid="false"
     showborder="false"
     borderlayer="false"
     showguides="true"
     inkscape:guide-bbox="true"
     inkscape:window-width="1855"
     inkscape:window-height="1056"
     inkscape:window-x="65"
     inkscape:window-y="24"
     inkscape:window-maximized="1">
    <inkscape:grid
       type="xygrid"
       id="grid3004"
       empspacing="5"
       visible="true"
       enabled="true"
       snapvisiblegridlinesonly="true"
       spacingx="0.5px"
       spacingy="0.5px" />
  </sodipodi:namedview>
  <defs
     id="defs4">
    <linearGradient
       inkscape:collect="always"
       id="linearGradient4699">
      <stop
         style="stop-color:#19aeff;stop-opacity:1;"
         offset="0"
         id="stop4701" />
      <stop
         style="stop-color:#19aeff;stop-opacity:0;"
         offset="1"
         id="stop4703" />
    </linearGradient>
    <linearGradient
       inkscape:collect="always"
       id="linearGradient4691">
      <stop
         style="stop-color:#19aeff;stop-opacity:1;"
         offset="0"
         id="stop4693" />
      <stop
         style="stop-color:#19aeff;stop-opacity:0;"
         offset="1"
         id="stop4695" />
    </linearGradient>
    <linearGradient
       id="linearGradient4665">
      <stop
         style="stop-color:#95dbff;stop-opacity:1;"
         offset="0"
         id="stop4667" />
      <stop
         style="stop-color:#006ba2;stop-opacity:1;"
         offset="1"
         id="stop4669" />
    </linearGradient>
    <linearGradient
       id="linearGradient4634">
      <stop
         style="stop-color:#000000;stop-opacity:0.38414633;"
         offset="0"
         id="stop4636" />
      <stop
         style="stop-color:#000000;stop-opacity:0;"
         offset="1"
         id="stop4638" />
    </linearGradient>
    <linearGradient
       inkscape:collect="always"
       xlink:href="#linearGradient3815-5"
       id="linearGradient3821-9"
       x1="3"
       y1="3"
       x2="25"
       y2="28"
       gradientUnits="userSpaceOnUse" />
    <linearGradient
       inkscape:collect="always"
       id="linearGradient3815-5">
      <stop
         style="stop-color:#ffffff;stop-opacity:1;"
         offset="0"
         id="stop3817-1" />
      <stop
         style="stop-color:#ffffff;stop-opacity:0;"
         offset="1"
         id="stop3819-9" />
    </linearGradient>
    <linearGradient
       inkscape:collect="always"
       xlink:href="#linearGradient4691"
       id="linearGradient4697"
       x1="45"
       y1="1049.8622"
       x2="42.5"
       y2="1047.3622"
       gradientUnits="userSpaceOnUse" />
    <linearGradient
       inkscape:collect="always"
       xlink:href="#linearGradient4699"
       id="linearGradient4705"
       x1="27.5"
       y1="0.5"
       x2="27.5"
       y2="3"
       gradientUnits="userSpaceOnUse" />
    <linearGradient
       inkscape:collect="always"
       xlink:href="#linearGradient4691-0"
       id="linearGradient4697-1"
       x1="45"
       y1="1049.8622"
       x2="42.5"
       y2="1047.3622"
       gradientUnits="userSpaceOnUse" />
    <linearGradient
       inkscape:collect="always"
       id="linearGradient4691-0">
      <stop
         style="stop-color:#19aeff;stop-opacity:1;"
         offset="0"
         id="stop4693-5" />
      <stop
         style="stop-color:#19aeff;stop-opacity:0;"
         offset="1"
         id="stop4695-5" />
    </linearGradient>
    <linearGradient
       gradientTransform="translate(0,-1004.3622)"
       y2="1047.3622"
       x2="42.5"
       y1="1049.8622"
       x1="45"
       gradientUnits="userSpaceOnUse"
       id="linearGradient12409"
       xlink:href="#linearGradient4699-1"
       inkscape:collect="always" />
    <linearGradient
       inkscape:collect="always"
       xlink:href="#linearGradient4699-1"
       id="linearGradient4705-1"
       x1="27.5"
       y1="0.5"
       x2="27.5"
       y2="3"
       gradientUnits="userSpaceOnUse" />
    <linearGradient
       id="linearGradient4699-1">
      <stop
         style="stop-color:#ffffff;stop-opacity:1;"
         offset="0"
         id="stop4701-3" />
      <stop
         style="stop-color:#ffffff;stop-opacity:0;"
         offset="1"
         id="stop4703-4" />
    </linearGradient>
    <linearGradient
       y2="3"
       x2="27.5"
       y1="0.5"
       x1="27.5"
       gradientUnits="userSpaceOnUse"
       id="linearGradient12443"
       xlink:href="#linearGradient4699-1"
       inkscape:collect="always" />
    <filter
       inkscape:collect="always"
       id="filter3828"
       x="-0.24"
       width="1.48"
       y="-0.24"
       height="1.48">
      <feGaussianBlur
         inkscape:collect="always"
         stdDeviation="3"
         id="feGaussianBlur3830" />
    </filter>
    <clipPath
       clipPathUnits="userSpaceOnUse"
       id="clipPath3856">
      <path
         style="opacity:0.3;fill:#000000;fill-opacity:1;stroke:none;display:inline"
         d="m 27.84375,12.03125 -15.4375,15.4375 8.125,8.125 L 32.9375,48 46,48 c 1.108,0 2,-0.892 2,-2 l 0,-13.8125 -12.03125,-12.03125 -8.125,-8.125 z m 10.5625,2.4375 0,3.25 -1.625,1.625 L 48,30.5625 l 0,-6.5 -9.59375,-9.59375 z m -18.6875,21.9375 -8.9375,2.4375 -1.625,0 L 18.3125,48 l 13,0 -11.59375,-11.59375 z"
         id="path3858"
         inkscape:connector-curvature="0" />
    </clipPath>
    <filter
       inkscape:collect="always"
       id="filter4470"
       x="-0.29202333"
       width="1.5840467"
       y="-0.30842467"
       height="1.6168493">
      <feGaussianBlur
         inkscape:collect="always"
         stdDeviation="3.3412654"
         id="feGaussianBlur4472" />
    </filter>
    <clipPath
       clipPathUnits="userSpaceOnUse"
       id="clipPath4492">
      <path
         inkscape:connector-curvature="0"
         style="opacity:0.3;fill:#000000;fill-opacity:1;fill-rule:evenodd;stroke-width:0.25;display:inline"
         d="m 28.28125,11 c -0.382978,-0.015 -0.701309,0.2118 -0.65625,0.625 l 0,0.9375 c 0.0028,0.107535 0.03337,0.206152 0.0625,0.28125 0.0077,0.0185 0.02221,0.04583 0.03125,0.0625 0.02417,0.04365 0.03048,0.09298 0.0625,0.125 l 0.09375,0.0625 1.6875,1.71875 c -0.09694,0.107303 -0.236384,0.234525 -0.40625,0.40625 l -2.28125,2.375 -6.4375,-6.4375 c -0.08266,-0.08266 -0.181553,-0.128868 -0.34375,-0.125 l -9.25,0 c -0.337919,-0.015 -0.585021,0.2799 -0.5625,0.625 l 0,1.03125 c -3.5e-4,0.08677 0.0032,0.174519 0.03125,0.25 0.02085,0.0575 0.05938,0.108056 0.09375,0.15625 0.01247,0.01766 0.0172,0.0463 0.03125,0.0625 0.0091,0.01035 0.02154,0.02154 0.03125,0.03125 l 0.15625,0.125 1.65625,1.65625 0,0.03125 0,21.53125 c -0.0083,0.0885 -0.01311,0.187768 0,0.25 0.0079,0.0311 0.01605,0.06838 0.03125,0.09375 0.01199,0.02047 0.01402,0.04527 0.03125,0.0625 L 23.40625,48 46,48 c 1.108,0 2,-0.892 2,-2 L 48,21.59375 37.65625,11.25 c -0.01519,-0.03494 -0.03721,-0.06556 -0.0625,-0.09375 -0.0095,-0.0095 -0.02057,-0.02275 -0.03125,-0.03125 -0.03337,-0.02893 -0.07961,-0.04528 -0.125,-0.0625 -0.0085,-0.0029 -0.02235,0.0024 -0.03125,0 -0.0577,-0.01753 -0.114282,-0.03502 -0.1875,-0.03125 L 28.28125,11 z"
         id="path4494" />
    </clipPath>
  </defs>
  <metadata
     id="metadata7">
    <rdf:RDF>
      <cc:Work
         rdf:about="">
        <dc:format>image/svg+xml</dc:format>
        <dc:type
           rdf:resource="http://purl.org/dc/dcmitype/StillImage" />
        <dc:title />
      </cc:Work>
    </rdf:RDF>
  </metadata>
  <g
     inkscape:label="base"
     inkscape:groupmode="layer"
     id="layer1"
     transform="translate(0,-1004.3622)"
     style="display:inline">
    <rect
       style="color:#000000;fill:#009100;fill-opacity:1;fill-rule:nonzero;stroke:none;stroke-width:0.50000000000000000;marker:none;visibility:visible;display:inline;overflow:visible;enable-background:accumulate"
       id="rect3006-5"
       width="48"
       height="48"
       x="0"
       y="1004.3622"
       ry="2" />
  </g>
  <g
     inkscape:groupmode="layer"
     id="layer2"
     inkscape:label="shadow"
     style="display:inline">
    <path
       style="fill:#000000"
       d=""
       id="path906"
       inkscape:connector-curvature="0" />
    <flowRoot
       xml:space="preserve"
       id="flowRoot61"
       style="font-size:40px;font-style:normal;font-weight:normal;line-height:125%;letter-spacing:0px;word-spacing:0px;fill:#000000;fill-opacity:1;stroke:none;font-family:sans-serif"
       transform="translate(-18.261517,-1007.8751)"><flowRegion
         id="flowRegion63"><rect
           id="rect65"
           width="57.6292"
           height="49.320694"
           x="-53.033005"
           y="6.6342559" /></flowRegion><flowPara
         id="flowPara67" /></flowRoot>    <path
       style="fill:#000000;fill-opacity:1;fill-rule:evenodd;stroke-width:0.25000000000000000;opacity:0.3"
       d="M 28.28125 11 C 27.898272 10.985 27.579941 11.2118 27.625 11.625 L 27.625 12.5625 C 27.62785 12.670035 27.658368 12.768652 27.6875 12.84375 C 27.69519 12.862255 27.709709 12.889576 27.71875 12.90625 C 27.742918 12.949903 27.749231 12.999231 27.78125 13.03125 L 27.875 13.09375 L 29.5625 14.8125 C 29.46556 14.919803 29.326116 15.047025 29.15625 15.21875 L 26.875 17.59375 L 20.4375 11.15625 C 20.35484 11.07359 20.255947 11.027382 20.09375 11.03125 L 10.84375 11.03125 C 10.505831 11.01625 10.258729 11.31115 10.28125 11.65625 L 10.28125 12.6875 C 10.2809 12.774275 10.284436 12.862019 10.3125 12.9375 C 10.33335 12.994996 10.371882 13.045556 10.40625 13.09375 C 10.41872 13.11141 10.42345 13.14005 10.4375 13.15625 C 10.446597 13.166603 10.459045 13.177795 10.46875 13.1875 L 10.625 13.3125 L 12.28125 14.96875 L 12.28125 15 L 12.28125 36.53125 C 12.272965 36.619755 12.268141 36.719018 12.28125 36.78125 C 12.289143 36.812351 12.2973 36.849626 12.3125 36.875 C 12.324489 36.89547 12.326516 36.920272 12.34375 36.9375 L 23.40625 48 L 46 48 C 47.108 48 48 47.108 48 46 L 48 21.59375 L 37.65625 11.25 C 37.641062 11.21506 37.619044 11.184439 37.59375 11.15625 C 37.584252 11.146752 37.573183 11.133505 37.5625 11.125 C 37.529125 11.096066 37.482885 11.079722 37.4375 11.0625 C 37.428977 11.059619 37.415149 11.064939 37.40625 11.0625 C 37.348547 11.044972 37.291968 11.027475 37.21875 11.03125 L 28.28125 11 z "
       id="path4211" />
    <path
       inkscape:connector-curvature="0"
       id="path1238-8-1"
       d="m 28.295184,11.000693 c -0.382978,-0.015 -0.715144,0.2168 -0.670085,0.63 l 0,0.9379 c 0.01506,0.5645 0.442606,0.6451 0.750495,0.63 l 1.085537,0 c 0.28536,0.1204 0.400433,0.2844 0.415454,0.63 -0.03528,0.7111 -0.04423,0.7068 -0.723693,1.3937 l -10.2523,10.5338 -0.04021,-12.3431 1.179349,0 c 0.217773,-0.024 0.498519,-0.2656 0.536068,-0.5359 l 0,-1.3807 c -0.0077,-0.2626 -0.172968,-0.463 -0.495863,-0.4553 l -9.247171,0 c -0.337919,-0.015 -0.571991,0.2844 -0.54947,0.6295 l -0.01342,1.0322 c -0.0014,0.3471 0.247482,0.6266 0.562875,0.6565 l 1.460781,0 -0.02679,23.1849 c -0.0225,0.2403 0.02075,0.3733 0.201025,0.4558 l 1.943247,0 c 0.255328,-0.024 0.597536,-0.3322 0.897913,-0.6701 l 21.925183,-22.3004 c 0.2403,-0.2629 0.503375,-0.5684 0.495864,-0.8309 l -0.04021,-1.7824 c 0,-0.2329 -0.176189,-0.4037 -0.46906,-0.3886 l -8.925519,-0.027 z"
       style="fill:#000000;fill-opacity:1;fill-rule:evenodd;stroke-width:0.25000000000000000;display:inline;filter:url(#filter4470)"
       clip-path="url(#clipPath4492)" />
  </g>
  <g
     inkscape:groupmode="layer"
     id="layer3"
     inkscape:label="icon"
     style="display:inline">
    <path
       inkscape:connector-curvature="0"
       id="path1238-8"
       d="m 28.295184,11.000693 c -0.382978,-0.015 -0.715144,0.2168 -0.670085,0.63 l 0,0.9379 c 0.01506,0.5645 0.442606,0.6451 0.750495,0.63 l 1.085537,0 c 0.28536,0.1204 0.400433,0.2844 0.415454,0.63 -0.03528,0.7111 -0.04423,0.7068 -0.723693,1.3937 l -10.2523,10.5338 -0.04021,-12.3431 1.179349,0 c 0.217773,-0.024 0.498519,-0.2656 0.536068,-0.5359 l 0,-1.3807 c -0.0077,-0.2626 -0.172968,-0.463 -0.495863,-0.4553 l -9.247171,0 c -0.337919,-0.015 -0.571991,0.2844 -0.54947,0.6295 l -0.01342,1.0322 c -0.0014,0.3471 0.247482,0.6266 0.562875,0.6565 l 1.460781,0 -0.02679,23.1849 c -0.0225,0.2403 0.02075,0.3733 0.201025,0.4558 l 1.943247,0 c 0.255328,-0.024 0.597536,-0.3322 0.897913,-0.6701 l 21.925183,-22.3004 c 0.2403,-0.2629 0.503375,-0.5684 0.495864,-0.8309 l -0.04021,-1.7824 c 0,-0.2329 -0.176189,-0.4037 -0.46906,-0.3886 l -8.925519,-0.027 z"
       style="fill:#ffffff;fill-opacity:1;fill-rule:evenodd;stroke-width:0.25;display:inline" />
  </g>
  <g
     inkscape:groupmode="layer"
     id="layer4"
     inkscape:label="hilight">
    <path
       inkscape:connector-curvature="0"
       style="color:#000000;fill:url(#linearGradient12443);fill-opacity:1;fill-rule:nonzero;stroke:none;stroke-width:0.50000000000000000;marker:none;visibility:visible;display:inline;overflow:visible;enable-background:accumulate;opacity:0.4"
       d="M 2,0 C 0.892,0 0,0.892 0,2 l 0,44 c 0,1.108 0.892,2 2,2 l 44,0 c 1.108,0 2,-0.892 2,-2 L 48,2 C 48,0.892 47.108,0 46,0 L 2,0 z m 0,0.5 44,0 c 0.83101,0 1.5,0.6689904 1.5,1.5 l 0,44 c 0,0.83101 -0.66899,1.5 -1.5,1.5 l -44,0 C 1.1689904,47.5 0.5,46.83101 0.5,46 L 0.5,2 C 0.5,1.1689904 1.1689904,0.5 2,0.5 z"
       id="rect3006" />
  </g>
</svg>
