<?xml version="1.0" encoding="UTF-8" standalone="no"?>
<!-- Created with Inkscape (http://www.inkscape.org/) -->

<svg
   xmlns:dc="http://purl.org/dc/elements/1.1/"
   xmlns:cc="http://creativecommons.org/ns#"
   xmlns:rdf="http://www.w3.org/1999/02/22-rdf-syntax-ns#"
   xmlns:svg="http://www.w3.org/2000/svg"
   xmlns="http://www.w3.org/2000/svg"
   xmlns:xlink="http://www.w3.org/1999/xlink"
   xmlns:sodipodi="http://sodipodi.sourceforge.net/DTD/sodipodi-0.dtd"
   xmlns:inkscape="http://www.inkscape.org/namespaces/inkscape"
   sodipodi:docname="wireshark.svg"
   inkscape:version="0.48.4 r9939"
   version="1.1"
   id="svg2"
   height="48"
   width="48">
  <sodipodi:namedview
     id="base"
     pagecolor="#424242"
     bordercolor="#666666"
     borderopacity="1.0"
     inkscape:pageopacity="1"
     inkscape:pageshadow="2"
     inkscape:zoom="1"
     inkscape:cx="-3.9683326"
     inkscape:cy="27.631298"
     inkscape:document-units="px"
     inkscape:current-layer="layer3"
     showgrid="false"
     showborder="false"
     borderlayer="false"
     showguides="true"
     inkscape:guide-bbox="true"
     inkscape:window-width="1855"
     inkscape:window-height="1056"
     inkscape:window-x="65"
     inkscape:window-y="24"
     inkscape:window-maximized="1">
    <inkscape:grid
       spacingy="1px"
       spacingx="1px"
       snapvisiblegridlinesonly="true"
       enabled="true"
       visible="true"
       empspacing="5"
       id="grid3004"
       type="xygrid" />
  </sodipodi:namedview>
  <defs
     id="defs4">
    <linearGradient
       id="linearGradient4840">
      <stop
         style="stop-color:#a7ddff;stop-opacity:1;"
         offset="0"
         id="stop4842" />
      <stop
         style="stop-color:#74caff;stop-opacity:1;"
         offset="1"
         id="stop4844" />
    </linearGradient>
    <linearGradient
       id="linearGradient3857">
      <stop
         style="stop-color:#ffffff;stop-opacity:1;"
         offset="0"
         id="stop3859" />
      <stop
         style="stop-color:#ffffff;stop-opacity:0;"
         offset="1"
         id="stop3861" />
    </linearGradient>
    <linearGradient
       id="linearGradient4699"
       inkscape:collect="always">
      <stop
         id="stop4701"
         offset="0"
         style="stop-color:#19aeff;stop-opacity:1;" />
      <stop
         id="stop4703"
         offset="1"
         style="stop-color:#19aeff;stop-opacity:0;" />
    </linearGradient>
    <linearGradient
       id="linearGradient4691"
       inkscape:collect="always">
      <stop
         id="stop4693"
         offset="0"
         style="stop-color:#19aeff;stop-opacity:1;" />
      <stop
         id="stop4695"
         offset="1"
         style="stop-color:#19aeff;stop-opacity:0;" />
    </linearGradient>
    <linearGradient
       id="linearGradient4665">
      <stop
         id="stop4667"
         offset="0"
         style="stop-color:#95dbff;stop-opacity:1;" />
      <stop
         id="stop4669"
         offset="1"
         style="stop-color:#006ba2;stop-opacity:1;" />
    </linearGradient>
    <linearGradient
       id="linearGradient4634">
      <stop
         id="stop4636"
         offset="0"
         style="stop-color:#000000;stop-opacity:0.38414633;" />
      <stop
         id="stop4638"
         offset="1"
         style="stop-color:#000000;stop-opacity:0;" />
    </linearGradient>
    <linearGradient
       gradientUnits="userSpaceOnUse"
       y2="28"
       x2="25"
       y1="3"
       x1="3"
       id="linearGradient3821-9"
       xlink:href="#linearGradient3815-5"
       inkscape:collect="always" />
    <linearGradient
       id="linearGradient3815-5"
       inkscape:collect="always">
      <stop
         id="stop3817-1"
         offset="0"
         style="stop-color:#ffffff;stop-opacity:1;" />
      <stop
         id="stop3819-9"
         offset="1"
         style="stop-color:#ffffff;stop-opacity:0;" />
    </linearGradient>
    <linearGradient
       gradientUnits="userSpaceOnUse"
       y2="1047.3622"
       x2="42.5"
       y1="1049.8622"
       x1="45"
       id="linearGradient4697"
       xlink:href="#linearGradient4691"
       inkscape:collect="always" />
    <linearGradient
       gradientUnits="userSpaceOnUse"
       y2="3"
       x2="27.5"
       y1="0.5"
       x1="27.5"
       id="linearGradient4705"
       xlink:href="#linearGradient4699"
       inkscape:collect="always" />
    <linearGradient
       gradientUnits="userSpaceOnUse"
       y2="1047.3622"
       x2="42.5"
       y1="1049.8622"
       x1="45"
       id="linearGradient4697-1"
       xlink:href="#linearGradient4691-0"
       inkscape:collect="always" />
    <linearGradient
       id="linearGradient4691-0"
       inkscape:collect="always">
      <stop
         id="stop4693-5"
         offset="0"
         style="stop-color:#19aeff;stop-opacity:1;" />
      <stop
         id="stop4695-5"
         offset="1"
         style="stop-color:#19aeff;stop-opacity:0;" />
    </linearGradient>
    <linearGradient
       inkscape:collect="always"
       xlink:href="#linearGradient4699-1"
       id="linearGradient12409"
       gradientUnits="userSpaceOnUse"
       x1="45"
       y1="1049.8622"
       x2="42.5"
       y2="1047.3622"
       gradientTransform="translate(0,-1004.3622)" />
    <linearGradient
       gradientUnits="userSpaceOnUse"
       y2="3"
       x2="27.5"
       y1="0.5"
       x1="27.5"
       id="linearGradient4705-1"
       xlink:href="#linearGradient4699-1"
       inkscape:collect="always" />
    <linearGradient
       id="linearGradient4699-1">
      <stop
         id="stop4701-3"
         offset="0"
         style="stop-color:#ffffff;stop-opacity:1;" />
      <stop
         id="stop4703-4"
         offset="1"
         style="stop-color:#ffffff;stop-opacity:0;" />
    </linearGradient>
    <linearGradient
       inkscape:collect="always"
       xlink:href="#linearGradient4699-1"
       id="linearGradient12443"
       gradientUnits="userSpaceOnUse"
       x1="27.5"
       y1="0.5"
       x2="27.5"
       y2="3" />
    <clipPath
       id="clipPath3856"
       clipPathUnits="userSpaceOnUse">
      <path
         inkscape:connector-curvature="0"
         id="path3858"
         d="m 27.84375,12.03125 -15.4375,15.4375 8.125,8.125 L 32.9375,48 46,48 c 1.108,0 2,-0.892 2,-2 l 0,-13.8125 -12.03125,-12.03125 -8.125,-8.125 z m 10.5625,2.4375 0,3.25 -1.625,1.625 L 48,30.5625 l 0,-6.5 -9.59375,-9.59375 z m -18.6875,21.9375 -8.9375,2.4375 -1.625,0 L 18.3125,48 l 13,0 -11.59375,-11.59375 z"
         style="opacity:0.3;fill:#000000;fill-opacity:1;stroke:none;display:inline" />
    </clipPath>
    <linearGradient
       inkscape:collect="always"
       xlink:href="#linearGradient6075"
       id="linearGradient6081"
       x1="37.957897"
       y1="1049.3441"
       x2="37.957897"
       y2="1007.4396"
       gradientUnits="userSpaceOnUse" />
    <linearGradient
       inkscape:collect="always"
       id="linearGradient6075">
      <stop
         style="stop-color:#ec7928;stop-opacity:1"
         offset="0"
         id="stop6077" />
      <stop
         style="stop-color:#f29e34;stop-opacity:1"
         offset="1"
         id="stop6079" />
    </linearGradient>
    <linearGradient
       gradientTransform="translate(-84.811186,-1034.9862)"
       y2="1007.4396"
       x2="37.957897"
       y1="1049.3441"
       x1="37.957897"
       gradientUnits="userSpaceOnUse"
       id="linearGradient3076"
       xlink:href="#linearGradient6075"
       inkscape:collect="always" />
    <clipPath
       id="clipPath4806"
       clipPathUnits="userSpaceOnUse">
      <path
         id="path4808"
         d="m 24,11 c -3.56619,0 -6.777354,1.529366 -9.03125,3.96875 l -1.125,-1.125 c -0.935289,0.9236 -1.374293,2.58575 -1.34375,4.96875 -0.06417,0.09 -0.157181,0.2292 -0.25,0.375 -0.19543,0.321907 -0.523166,0.81369 -0.6875,1.125 -0.519483,0.7904 -0.479568,1.432569 -0.5,2.0625 L 11.5,22.8125 c -0.09127,0.378124 -0.171809,0.755494 -0.21875,1.15625 -0.281206,2.5678 0.401202,5.1191 2.125,7.625 0.404165,0.496111 0.833777,0.958777 1.25,1.375 L 35.875,54.1875 C 46.320357,64.632857 60.139558,50.47212 56.9375,39.53125 L 56.90625,39.5 C 56.587725,38.5823 56.168985,37.75805 55.625,37.03125 L 34.4375,15.8125 c 0.06282,0.248698 0.08276,0.435455 0.125,0.65625 l -1.875,-1.875 C 30.457803,12.364053 27.389047,11 24,11 z"
         style="fill:#000000;fill-opacity:0.54700856;stroke:none;display:inline"
         inkscape:connector-curvature="0" />
    </clipPath>
    <clipPath
       id="clipPath4876"
       clipPathUnits="userSpaceOnUse">
      <path
         id="path4878"
         d="m 24,11 c -3.56619,0 -6.777354,1.529366 -9.03125,3.96875 l -1.125,-1.125 c -0.935289,0.9236 -1.374293,2.58575 -1.34375,4.96875 -0.06417,0.09 -0.157181,0.2292 -0.25,0.375 -0.19543,0.321907 -0.523166,0.81369 -0.6875,1.125 -0.519483,0.7904 -0.479568,1.432569 -0.5,2.0625 L 11.5,22.8125 c -0.09127,0.378124 -0.171809,0.755494 -0.21875,1.15625 -0.281206,2.5678 0.401202,5.1191 2.125,7.625 0.404165,0.496111 0.833777,0.958777 1.25,1.375 L 29.6875,48 46,48 c 1.108,0 2,-0.892 2,-2 L 48,29.40625 34.4375,15.8125 c 0.06282,0.248698 0.08276,0.435455 0.125,0.65625 l -1.875,-1.875 C 30.457803,12.364053 27.389047,11 24,11 z"
         style="fill:#000000;fill-opacity:0.54700856;stroke:none;display:inline"
         inkscape:connector-curvature="0" />
    </clipPath>
    <clipPath
       clipPathUnits="userSpaceOnUse"
       id="clipPath4748">
      <path
         inkscape:connector-curvature="0"
         id="path4750"
         d="M 14.65625,32.96875 29.6875,48 46,48 c 1.108,0 2,-0.892 2,-2 L 48,29.40625 34.4375,15.8125 c 0.06282,0.248698 0.08276,0.435455 0.125,0.65625 C 35.5,31 24.5,36.5 14.65625,32.96875 z"
         style="opacity:0.3;fill:#000000;fill-opacity:1;stroke:none;display:inline"
         sodipodi:nodetypes="ccsscccc" />
    </clipPath>
    <clipPath
       clipPathUnits="userSpaceOnUse"
       id="clipPath4778">
      <path
         inkscape:connector-curvature="0"
         id="path4780"
         d="m 24,11 c -3.56619,0 -6.777354,1.529366 -9.03125,3.96875 l -1.125,-1.125 c -0.935289,0.9236 -1.374293,2.58575 -1.34375,4.96875 -0.06417,0.09 -0.157181,0.2292 -0.25,0.375 -0.19543,0.321907 -0.523166,0.81369 -0.6875,1.125 -0.519483,0.7904 -0.479568,1.432569 -0.5,2.0625 L 11.5,22.8125 c -0.09127,0.378124 -0.171809,0.755494 -0.21875,1.15625 -0.281206,2.5678 0.401202,5.1191 2.125,7.625 0.404165,0.496111 1.010554,1.223942 1.426777,1.640165 9.822303,-10.8444 10.717754,-9.081571 14.405254,-10.206571 1.083477,-3.576055 3.364309,-7.602002 3.816292,-8.055243 C 32.984764,14.907294 32.887897,14.796713 32.6875,14.59375 30.457803,12.364053 27.389047,11 24,11 z"
         style="opacity:0.3;fill:#000000;fill-opacity:1;stroke:none;display:inline"
         sodipodi:nodetypes="scccccccccccccs" />
    </clipPath>
    <clipPath
       id="clipPath3071"
       clipPathUnits="userSpaceOnUse">
      <path
         inkscape:connector-curvature="0"
         style="opacity:0.25;color:#000000;fill:#000000;fill-opacity:1;fill-rule:nonzero;stroke:none;stroke-width:0.5;marker:none;visibility:visible;display:inline"
         d="m 24,6 c -3.313709,0 -6,2.6862912 -6,6 l 0,5 5,5 -9,0 c -1.108,0 -2,0.892 -2,2 l 0,14 c 0,0.421192 0.123088,0.803368 0.34375,1.125 0.07174,0.106367 0.159625,0.190875 0.25,0.28125 0.0056,0.0056 -0.0056,0.02572 0,0.03125 L 21.15625,48 46,48 c 1.108,0 2,-0.892 2,-2 L 48,27.5 28.25,7.75 C 27.164213,6.6642136 25.656854,6 24,6 z"
         id="path3073" />
    </clipPath>
    <linearGradient
       gradientUnits="userSpaceOnUse"
       y2="23"
       x2="36"
       y1="11.155961"
       x1="24.551146"
       id="linearGradient4579"
       xlink:href="#linearGradient4571"
       inkscape:collect="always" />
    <clipPath
       clipPathUnits="userSpaceOnUse"
       id="clipPath4331">
      <path
         inkscape:connector-curvature="0"
         style="color:#000000;fill:#0e232e;fill-opacity:0.48709681;fill-rule:nonzero;stroke:none;stroke-width:0.5;marker:none;visibility:visible;display:inline"
         d="m 23.75,7.5625 c -3.451779,0 -6.25,2.7982 -6.25,6.25 l 0,4.6875 c 0,0.330092 0.136168,0.620764 0.34375,0.84375 0.01016,0.01092 0.02071,0.02071 0.03125,0.03125 L 20.96875,22.5 14.5,22.5 c -1.108,0 -2,0.892 -2,2 l 0,13.5 c 0,0.164967 0.02519,0.315591 0.0625,0.46875 0.0262,0.107537 0.05103,0.212656 0.09375,0.3125 0.03933,0.09214 0.104041,0.165705 0.15625,0.25 0.03201,0.05189 0.05727,0.107675 0.09375,0.15625 0.02233,0.02974 0.03857,0.06534 0.0625,0.09375 0.0417,0.04964 0.07872,0.110926 0.125,0.15625 0.04721,0.04594 0.104619,0.08384 0.15625,0.125 L 21.6875,48 46,48 c 1.108,0 2,-0.892 2,-2 L 48,29.25 28.4375,9.6875 C 28.344943,9.5817008 28.255631,9.4742937 28.15625,9.375 28.12092,9.339674 28.06741,9.315722 28.03125,9.28125 27.918981,9.1744958 27.807452,9.0669564 27.6875,8.96875 27.6578,8.944221 27.62391,8.930234 27.59375,8.90625 27.471947,8.81012 27.34765,8.7119582 27.21875,8.625 27.18719,8.603662 27.15696,8.58327 27.125,8.5625 26.990501,8.475245 26.860145,8.3893571 26.71875,8.3125 26.69063,8.297207 26.65338,8.296119 26.625,8.28125 26.494088,8.212761 26.35495,8.1529625 26.21875,8.09375 26.17651,8.075309 26.13647,8.048772 26.09375,8.03125 25.933803,7.965967 25.760065,7.8957447 25.59375,7.84375 25.57208,7.837004 25.553022,7.8190142 25.53125,7.8125 25.352378,7.7587466 25.185323,7.7251536 25,7.6875 24.9901,7.68547 24.97866,7.68948 24.96875,7.6875 24.77271,7.6487168 24.577293,7.6136138 24.375,7.59375 24.165984,7.5725195 23.964744,7.5625 23.75,7.5625 z"
         id="path4333" />
    </clipPath>
    <linearGradient
       y2="1007.3218"
       x2="40.915409"
       y1="1049.3521"
       x1="40.915409"
       gradientTransform="translate(-84.249997,-4.7499109)"
       gradientUnits="userSpaceOnUse"
       id="linearGradient3085"
       xlink:href="#linearGradient6772"
       inkscape:collect="always" />
    <linearGradient
       id="linearGradient6772"
       inkscape:collect="always">
      <stop
         id="stop6774"
         offset="0"
         style="stop-color:#efe963;stop-opacity:1" />
      <stop
         id="stop6776"
         offset="1"
         style="stop-color:#fcf982;stop-opacity:1" />
    </linearGradient>
    <linearGradient
       gradientUnits="userSpaceOnUse"
       y2="1007.3218"
       x2="40.915409"
       y1="1049.3521"
       x1="40.915409"
       id="linearGradient6778"
       xlink:href="#linearGradient6772"
       inkscape:collect="always"
       gradientTransform="translate(7.7392578e-7,4.2609766e-5)" />
    <clipPath
       id="clipPath4492"
       clipPathUnits="userSpaceOnUse">
      <path
         id="path4494"
         d="m 28.28125,11 c -0.382978,-0.015 -0.701309,0.2118 -0.65625,0.625 l 0,0.9375 c 0.0028,0.107535 0.03337,0.206152 0.0625,0.28125 0.0077,0.0185 0.02221,0.04583 0.03125,0.0625 0.02417,0.04365 0.03048,0.09298 0.0625,0.125 l 0.09375,0.0625 1.6875,1.71875 c -0.09694,0.107303 -0.236384,0.234525 -0.40625,0.40625 l -2.28125,2.375 -6.4375,-6.4375 c -0.08266,-0.08266 -0.181553,-0.128868 -0.34375,-0.125 l -9.25,0 c -0.337919,-0.015 -0.585021,0.2799 -0.5625,0.625 l 0,1.03125 c -3.5e-4,0.08677 0.0032,0.174519 0.03125,0.25 0.02085,0.0575 0.05938,0.108056 0.09375,0.15625 0.01247,0.01766 0.0172,0.0463 0.03125,0.0625 0.0091,0.01035 0.02154,0.02154 0.03125,0.03125 l 0.15625,0.125 1.65625,1.65625 0,0.03125 0,21.53125 c -0.0083,0.0885 -0.01311,0.187768 0,0.25 0.0079,0.0311 0.01605,0.06838 0.03125,0.09375 0.01199,0.02047 0.01402,0.04527 0.03125,0.0625 L 23.40625,48 46,48 c 1.108,0 2,-0.892 2,-2 L 48,21.59375 37.65625,11.25 c -0.01519,-0.03494 -0.03721,-0.06556 -0.0625,-0.09375 -0.0095,-0.0095 -0.02057,-0.02275 -0.03125,-0.03125 -0.03337,-0.02893 -0.07961,-0.04528 -0.125,-0.0625 -0.0085,-0.0029 -0.02235,0.0024 -0.03125,0 -0.0577,-0.01753 -0.114282,-0.03502 -0.1875,-0.03125 L 28.28125,11 z"
         style="opacity:0.3;fill:#000000;fill-opacity:1;fill-rule:evenodd;stroke-width:0.25;display:inline"
         inkscape:connector-curvature="0" />
    </clipPath>
    <clipPath
       id="clipPath3856-7"
       clipPathUnits="userSpaceOnUse">
      <path
         inkscape:connector-curvature="0"
         id="path3858-0"
         d="m 27.84375,12.03125 -15.4375,15.4375 8.125,8.125 L 32.9375,48 46,48 c 1.108,0 2,-0.892 2,-2 l 0,-13.8125 -12.03125,-12.03125 -8.125,-8.125 z m 10.5625,2.4375 0,3.25 -1.625,1.625 L 48,30.5625 l 0,-6.5 -9.59375,-9.59375 z m -18.6875,21.9375 -8.9375,2.4375 -1.625,0 L 18.3125,48 l 13,0 -11.59375,-11.59375 z"
         style="opacity:0.3;fill:#000000;fill-opacity:1;stroke:none;display:inline" />
    </clipPath>
    <linearGradient
       id="linearGradient4699-1-4">
      <stop
         id="stop4701-3-9"
         offset="0"
         style="stop-color:#ffffff;stop-opacity:1;" />
      <stop
         id="stop4703-4-7"
         offset="1"
         style="stop-color:#ffffff;stop-opacity:0;" />
    </linearGradient>
    <linearGradient
       gradientUnits="userSpaceOnUse"
       y2="3"
       x2="27.5"
       y1="0.5"
       x1="27.5"
       id="linearGradient4705-1-1"
       xlink:href="#linearGradient4699-1-4"
       inkscape:collect="always" />
    <linearGradient
       inkscape:collect="always"
       xlink:href="#linearGradient4699-1-4"
       id="linearGradient12409-6"
       gradientUnits="userSpaceOnUse"
       x1="45"
       y1="1049.8622"
       x2="42.5"
       y2="1047.3622"
       gradientTransform="translate(0,-1004.3622)" />
    <linearGradient
       id="linearGradient4691-0-0"
       inkscape:collect="always">
      <stop
         id="stop4693-5-6"
         offset="0"
         style="stop-color:#19aeff;stop-opacity:1;" />
      <stop
         id="stop4695-5-6"
         offset="1"
         style="stop-color:#19aeff;stop-opacity:0;" />
    </linearGradient>
    <linearGradient
       gradientUnits="userSpaceOnUse"
       y2="1047.3622"
       x2="42.5"
       y1="1049.8622"
       x1="45"
       id="linearGradient4697-1-6"
       xlink:href="#linearGradient4691-0-0"
       inkscape:collect="always" />
    <linearGradient
       gradientUnits="userSpaceOnUse"
       y2="3"
       x2="27.5"
       y1="0.5"
       x1="27.5"
       id="linearGradient4705-2"
       xlink:href="#linearGradient4699-2"
       inkscape:collect="always" />
    <linearGradient
       gradientUnits="userSpaceOnUse"
       y2="1047.3622"
       x2="42.5"
       y1="1049.8622"
       x1="45"
       id="linearGradient4697-4"
       xlink:href="#linearGradient4691-9"
       inkscape:collect="always" />
    <linearGradient
       id="linearGradient3815-5-5"
       inkscape:collect="always">
      <stop
         id="stop3817-1-7"
         offset="0"
         style="stop-color:#ffffff;stop-opacity:1;" />
      <stop
         id="stop3819-9-8"
         offset="1"
         style="stop-color:#ffffff;stop-opacity:0;" />
    </linearGradient>
    <linearGradient
       gradientUnits="userSpaceOnUse"
       y2="28"
       x2="25"
       y1="3"
       x1="3"
       id="linearGradient3821-9-8"
       xlink:href="#linearGradient3815-5-5"
       inkscape:collect="always" />
    <linearGradient
       id="linearGradient4634-2">
      <stop
         id="stop4636-5"
         offset="0"
         style="stop-color:#000000;stop-opacity:0.38414633;" />
      <stop
         id="stop4638-8"
         offset="1"
         style="stop-color:#000000;stop-opacity:0;" />
    </linearGradient>
    <linearGradient
       id="linearGradient4665-0">
      <stop
         id="stop4667-8"
         offset="0"
         style="stop-color:#95dbff;stop-opacity:1;" />
      <stop
         id="stop4669-0"
         offset="1"
         style="stop-color:#006ba2;stop-opacity:1;" />
    </linearGradient>
    <linearGradient
       id="linearGradient4691-9"
       inkscape:collect="always">
      <stop
         id="stop4693-0"
         offset="0"
         style="stop-color:#19aeff;stop-opacity:1;" />
      <stop
         id="stop4695-8"
         offset="1"
         style="stop-color:#19aeff;stop-opacity:0;" />
    </linearGradient>
    <linearGradient
       id="linearGradient4699-2"
       inkscape:collect="always">
      <stop
         id="stop4701-5"
         offset="0"
         style="stop-color:#19aeff;stop-opacity:1;" />
      <stop
         id="stop4703-5"
         offset="1"
         style="stop-color:#19aeff;stop-opacity:0;" />
    </linearGradient>
    <linearGradient
       id="linearGradient4571">
      <stop
         id="stop4573"
         offset="0"
         style="stop-color:#ecf1f3;stop-opacity:1;" />
      <stop
         id="stop4575"
         offset="1"
         style="stop-color:#c5cacc;stop-opacity:1;" />
    </linearGradient>
    <inkscape:perspective
       sodipodi:type="inkscape:persp3d"
       inkscape:vp_x="-8.3317911 : 27.005203 : 1"
       inkscape:vp_y="0 : 1000 : 0"
       inkscape:vp_z="-8.3917658 : 62.537319 : 1"
       inkscape:persp3d-origin="24 : 16 : 1"
       id="perspective3126" />
    <linearGradient
       inkscape:collect="always"
       xlink:href="#linearGradient3857"
       id="linearGradient3863"
       x1="13.484865"
       y1="24.757135"
       x2="26.71875"
       y2="24.757135"
       gradientUnits="userSpaceOnUse" />
    <linearGradient
       inkscape:collect="always"
       xlink:href="#linearGradient3857-4"
       id="linearGradient3863-3"
       x1="13.484865"
       y1="24.757135"
       x2="26.71875"
       y2="24.757135"
       gradientUnits="userSpaceOnUse" />
    <linearGradient
       id="linearGradient3857-4">
      <stop
         style="stop-color:#ffffff;stop-opacity:1;"
         offset="0"
         id="stop3859-5" />
      <stop
         style="stop-color:#ffffff;stop-opacity:0;"
         offset="1"
         id="stop3861-2" />
    </linearGradient>
    <clipPath
       clipPathUnits="userSpaceOnUse"
       id="clipPath4694">
      <path
         inkscape:connector-curvature="0"
         style="font-size:medium;font-style:normal;font-variant:normal;font-weight:normal;font-stretch:normal;text-indent:0;text-align:start;text-decoration:none;line-height:normal;letter-spacing:normal;word-spacing:normal;text-transform:none;direction:ltr;block-progression:tb;writing-mode:lr-tb;text-anchor:start;opacity:0.25;color:#000000;fill:#000000;fill-opacity:1;fill-rule:nonzero;stroke:none;stroke-width:0.6511628;marker:none;visibility:visible;display:inline;font-family:Sans;-inkscape-font-specification:Sans"
         d="m 24,10 c -7.72813,0 -14,6.271857 -14,14 0,3.86407 1.559768,7.372269 4.09375,9.90625 L 28.1875,48 l 17.75,0 c 1.108,0 2,-0.892 2,-2 l 0,-17.875 L 33.90625,14.09375 C 31.372266,11.559766 27.864067,10 24,10 z"
         id="path4696" />
    </clipPath>
    <clipPath
       id="clipPath4910-6"
       clipPathUnits="userSpaceOnUse">
      <path
         id="path4912-6"
         d="m 24,19.0625 c -1.259925,0 -2.507459,0.507459 -3.46875,1.46875 -1.922581,1.922581 -1.922581,5.014919 0,6.9375 l 0.375,0.34375 L 41.09375,48 46,48 c 1.108,0 2,-0.892 2,-2 l 0,-4.90625 -8.15625,-8.1875 -12.03125,-12 -0.34375,-0.375 C 26.507459,19.569959 25.259925,19.0625 24,19.0625 z"
         style="opacity:0.3;color:#000000;fill:#000000;fill-opacity:1;fill-rule:nonzero;stroke:none;stroke-width:0.5;marker:none;visibility:visible;display:inline"
         inkscape:connector-curvature="0" />
    </clipPath>
    <clipPath
       id="clipPath4936"
       clipPathUnits="userSpaceOnUse">
      <path
         id="path4938"
         d="m 20.8125,8 0,3.40625 c -1.2224,0.3136 -2.38534,0.7975 -3.4375,1.4375 l -2.4375,-2.40625 -4.5,4.5 2.46875,2.5 c -0.4488,0.7824 -0.81566,1.626981 -1.09375,2.5 -0.0927,0.291006 -0.17816,0.5758 -0.25,0.875 l -3.5625,0 0,6.375 4.15625,4.15625 -1.71875,1.71875 4.5,4.5 9.625,9.625 L 25.375,48 46,48 c 1.108,0 2,-0.892 2,-2 l 0,-20.625 -0.8125,-0.8125 -9.625,-9.625 -4.5,-4.5 -1.71875,1.71875 L 27.1875,8 20.8125,8 z"
         style="fill:#0e232e;fill-opacity:0.82520297;fill-rule:nonzero;stroke:none;display:inline"
         inkscape:connector-curvature="0" />
    </clipPath>
    <clipPath
       id="clipPath4910"
       clipPathUnits="userSpaceOnUse">
      <path
         id="path4912"
         d="m 24,19.0625 c -1.259925,0 -2.507459,0.507459 -3.46875,1.46875 -1.922581,1.922581 -1.922581,5.014919 0,6.9375 l 0.375,0.34375 L 41.09375,48 46,48 c 1.108,0 2,-0.892 2,-2 l 0,-4.90625 -8.15625,-8.1875 -12.03125,-12 -0.34375,-0.375 C 26.507459,19.569959 25.259925,19.0625 24,19.0625 z"
         style="opacity:0.3;color:#000000;fill:#000000;fill-opacity:1;fill-rule:nonzero;stroke:none;stroke-width:0.5;marker:none;visibility:visible;display:inline"
         inkscape:connector-curvature="0" />
    </clipPath>
    <clipPath
       id="clipPath4331-8"
       clipPathUnits="userSpaceOnUse">
      <path
         id="path4333-3"
         d="m 23.75,7.5625 c -3.451779,0 -6.25,2.7982 -6.25,6.25 l 0,4.6875 c 0,0.330092 0.136168,0.620764 0.34375,0.84375 0.01016,0.01092 0.02071,0.02071 0.03125,0.03125 L 20.96875,22.5 14.5,22.5 c -1.108,0 -2,0.892 -2,2 l 0,13.5 c 0,0.164967 0.02519,0.315591 0.0625,0.46875 0.0262,0.107537 0.05103,0.212656 0.09375,0.3125 0.03933,0.09214 0.104041,0.165705 0.15625,0.25 0.03201,0.05189 0.05727,0.107675 0.09375,0.15625 0.02233,0.02974 0.03857,0.06534 0.0625,0.09375 0.0417,0.04964 0.07872,0.110926 0.125,0.15625 0.04721,0.04594 0.104619,0.08384 0.15625,0.125 L 21.6875,48 46,48 c 1.108,0 2,-0.892 2,-2 L 48,29.25 28.4375,9.6875 C 28.344943,9.5817008 28.255631,9.4742937 28.15625,9.375 28.12092,9.339674 28.06741,9.315722 28.03125,9.28125 27.918981,9.1744958 27.807452,9.0669564 27.6875,8.96875 27.6578,8.944221 27.62391,8.930234 27.59375,8.90625 27.471947,8.81012 27.34765,8.7119582 27.21875,8.625 27.18719,8.603662 27.15696,8.58327 27.125,8.5625 26.990501,8.475245 26.860145,8.3893571 26.71875,8.3125 26.69063,8.297207 26.65338,8.296119 26.625,8.28125 26.494088,8.212761 26.35495,8.1529625 26.21875,8.09375 26.17651,8.075309 26.13647,8.048772 26.09375,8.03125 25.933803,7.965967 25.760065,7.8957447 25.59375,7.84375 25.57208,7.837004 25.553022,7.8190142 25.53125,7.8125 25.352378,7.7587466 25.185323,7.7251536 25,7.6875 24.9901,7.68547 24.97866,7.68948 24.96875,7.6875 24.77271,7.6487168 24.577293,7.6136138 24.375,7.59375 24.165984,7.5725195 23.964744,7.5625 23.75,7.5625 z"
         style="color:#000000;fill:#0e232e;fill-opacity:0.48709681;fill-rule:nonzero;stroke:none;stroke-width:0.5;marker:none;visibility:visible;display:inline"
         inkscape:connector-curvature="0" />
    </clipPath>
    <linearGradient
       inkscape:collect="always"
       xlink:href="#linearGradient6772-1"
       id="linearGradient3085-0"
       gradientUnits="userSpaceOnUse"
       gradientTransform="translate(-84.249997,-4.7499109)"
       x1="40.915409"
       y1="1049.3521"
       x2="40.915409"
       y2="1007.3218" />
    <linearGradient
       inkscape:collect="always"
       id="linearGradient6772-1">
      <stop
         style="stop-color:#efe963;stop-opacity:1"
         offset="0"
         id="stop6774-5" />
      <stop
         style="stop-color:#fcf982;stop-opacity:1"
         offset="1"
         id="stop6776-5" />
    </linearGradient>
    <linearGradient
       gradientTransform="translate(7.7392578e-7,4.2609766e-5)"
       inkscape:collect="always"
       xlink:href="#linearGradient6772-1"
       id="linearGradient6778-0"
       x1="40.915409"
       y1="1049.3521"
       x2="40.915409"
       y2="1007.3218"
       gradientUnits="userSpaceOnUse" />
    <clipPath
       clipPathUnits="userSpaceOnUse"
       id="clipPath4492-7">
      <path
         inkscape:connector-curvature="0"
         style="opacity:0.3;fill:#000000;fill-opacity:1;fill-rule:evenodd;stroke-width:0.25;display:inline"
         d="m 28.28125,11 c -0.382978,-0.015 -0.701309,0.2118 -0.65625,0.625 l 0,0.9375 c 0.0028,0.107535 0.03337,0.206152 0.0625,0.28125 0.0077,0.0185 0.02221,0.04583 0.03125,0.0625 0.02417,0.04365 0.03048,0.09298 0.0625,0.125 l 0.09375,0.0625 1.6875,1.71875 c -0.09694,0.107303 -0.236384,0.234525 -0.40625,0.40625 l -2.28125,2.375 -6.4375,-6.4375 c -0.08266,-0.08266 -0.181553,-0.128868 -0.34375,-0.125 l -9.25,0 c -0.337919,-0.015 -0.585021,0.2799 -0.5625,0.625 l 0,1.03125 c -3.5e-4,0.08677 0.0032,0.174519 0.03125,0.25 0.02085,0.0575 0.05938,0.108056 0.09375,0.15625 0.01247,0.01766 0.0172,0.0463 0.03125,0.0625 0.0091,0.01035 0.02154,0.02154 0.03125,0.03125 l 0.15625,0.125 1.65625,1.65625 0,0.03125 0,21.53125 c -0.0083,0.0885 -0.01311,0.187768 0,0.25 0.0079,0.0311 0.01605,0.06838 0.03125,0.09375 0.01199,0.02047 0.01402,0.04527 0.03125,0.0625 L 23.40625,48 46,48 c 1.108,0 2,-0.892 2,-2 L 48,21.59375 37.65625,11.25 c -0.01519,-0.03494 -0.03721,-0.06556 -0.0625,-0.09375 -0.0095,-0.0095 -0.02057,-0.02275 -0.03125,-0.03125 -0.03337,-0.02893 -0.07961,-0.04528 -0.125,-0.0625 -0.0085,-0.0029 -0.02235,0.0024 -0.03125,0 -0.0577,-0.01753 -0.114282,-0.03502 -0.1875,-0.03125 L 28.28125,11 z"
         id="path4494-3" />
    </clipPath>
    <clipPath
       clipPathUnits="userSpaceOnUse"
       id="clipPath3856-4">
      <path
         style="opacity:0.3;fill:#000000;fill-opacity:1;stroke:none;display:inline"
         d="m 27.84375,12.03125 -15.4375,15.4375 8.125,8.125 L 32.9375,48 46,48 c 1.108,0 2,-0.892 2,-2 l 0,-13.8125 -12.03125,-12.03125 -8.125,-8.125 z m 10.5625,2.4375 0,3.25 -1.625,1.625 L 48,30.5625 l 0,-6.5 -9.59375,-9.59375 z m -18.6875,21.9375 -8.9375,2.4375 -1.625,0 L 18.3125,48 l 13,0 -11.59375,-11.59375 z"
         id="path3858-8"
         inkscape:connector-curvature="0" />
    </clipPath>
    <linearGradient
       y2="3"
       x2="27.5"
       y1="0.5"
       x1="27.5"
       gradientUnits="userSpaceOnUse"
       id="linearGradient12443-8"
       xlink:href="#linearGradient4699-1-1"
       inkscape:collect="always" />
    <linearGradient
       id="linearGradient4699-1-1">
      <stop
         style="stop-color:#ffffff;stop-opacity:1;"
         offset="0"
         id="stop4701-3-1" />
      <stop
         style="stop-color:#ffffff;stop-opacity:0;"
         offset="1"
         id="stop4703-4-3" />
    </linearGradient>
    <linearGradient
       inkscape:collect="always"
       xlink:href="#linearGradient4699-1-1"
       id="linearGradient4705-1-18"
       x1="27.5"
       y1="0.5"
       x2="27.5"
       y2="3"
       gradientUnits="userSpaceOnUse" />
    <linearGradient
       gradientTransform="translate(0,-1004.3622)"
       y2="1047.3622"
       x2="42.5"
       y1="1049.8622"
       x1="45"
       gradientUnits="userSpaceOnUse"
       id="linearGradient12409-8"
       xlink:href="#linearGradient4699-1-1"
       inkscape:collect="always" />
    <linearGradient
       inkscape:collect="always"
       id="linearGradient4691-0-8">
      <stop
         style="stop-color:#19aeff;stop-opacity:1;"
         offset="0"
         id="stop4693-5-5" />
      <stop
         style="stop-color:#19aeff;stop-opacity:0;"
         offset="1"
         id="stop4695-5-2" />
    </linearGradient>
    <linearGradient
       inkscape:collect="always"
       xlink:href="#linearGradient4691-0-8"
       id="linearGradient4697-1-2"
       x1="45"
       y1="1049.8622"
       x2="42.5"
       y2="1047.3622"
       gradientUnits="userSpaceOnUse" />
    <linearGradient
       inkscape:collect="always"
       xlink:href="#linearGradient4699-6"
       id="linearGradient4705-17"
       x1="27.5"
       y1="0.5"
       x2="27.5"
       y2="3"
       gradientUnits="userSpaceOnUse" />
    <linearGradient
       inkscape:collect="always"
       xlink:href="#linearGradient4691-2"
       id="linearGradient4697-49"
       x1="45"
       y1="1049.8622"
       x2="42.5"
       y2="1047.3622"
       gradientUnits="userSpaceOnUse" />
    <linearGradient
       inkscape:collect="always"
       id="linearGradient3815-5-54">
      <stop
         style="stop-color:#ffffff;stop-opacity:1;"
         offset="0"
         id="stop3817-1-9" />
      <stop
         style="stop-color:#ffffff;stop-opacity:0;"
         offset="1"
         id="stop3819-9-83" />
    </linearGradient>
    <linearGradient
       inkscape:collect="always"
       xlink:href="#linearGradient3815-5-54"
       id="linearGradient3821-9-5"
       x1="3"
       y1="3"
       x2="25"
       y2="28"
       gradientUnits="userSpaceOnUse" />
    <linearGradient
       id="linearGradient4634-0">
      <stop
         style="stop-color:#000000;stop-opacity:0.38414633;"
         offset="0"
         id="stop4636-59" />
      <stop
         style="stop-color:#000000;stop-opacity:0;"
         offset="1"
         id="stop4638-3" />
    </linearGradient>
    <linearGradient
       id="linearGradient4665-9">
      <stop
         style="stop-color:#95dbff;stop-opacity:1;"
         offset="0"
         id="stop4667-9" />
      <stop
         style="stop-color:#006ba2;stop-opacity:1;"
         offset="1"
         id="stop4669-01" />
    </linearGradient>
    <linearGradient
       inkscape:collect="always"
       id="linearGradient4691-2">
      <stop
         style="stop-color:#19aeff;stop-opacity:1;"
         offset="0"
         id="stop4693-51" />
      <stop
         style="stop-color:#19aeff;stop-opacity:0;"
         offset="1"
         id="stop4695-3" />
    </linearGradient>
    <linearGradient
       inkscape:collect="always"
       id="linearGradient4699-6">
      <stop
         style="stop-color:#19aeff;stop-opacity:1;"
         offset="0"
         id="stop4701-2" />
      <stop
         style="stop-color:#19aeff;stop-opacity:0;"
         offset="1"
         id="stop4703-7" />
    </linearGradient>
    <linearGradient
       id="linearGradient5012">
      <stop
         id="stop5014"
         offset="0"
         style="stop-color:#a0a0a0;stop-opacity:1;" />
      <stop
         id="stop5016"
         offset="1"
         style="stop-color:#797979;stop-opacity:1;" />
    </linearGradient>
    <clipPath
       clipPathUnits="userSpaceOnUse"
       id="clipPath4516">
      <path
         inkscape:connector-curvature="0"
         style="font-size:medium;font-style:normal;font-variant:normal;font-weight:normal;font-stretch:normal;text-indent:0;text-align:start;text-decoration:none;line-height:normal;letter-spacing:normal;word-spacing:normal;text-transform:none;direction:ltr;block-progression:tb;writing-mode:lr-tb;text-anchor:start;opacity:0.25;color:#000000;fill:#000000;fill-opacity:1;stroke:none;stroke-width:2.90327287;marker:none;visibility:visible;display:inline;font-family:Sans;-inkscape-font-specification:Sans"
         d="m 20.6875,5.6874997 c -0.339896,0.020403 -0.658279,0.095936 -1,0.1875 -2.73377,0.7325115 -4.357511,3.5162301 -3.625,6.2500003 0.12137,0.452959 0.306813,0.863658 0.53125,1.25 0.0045,0.0078 -0.0046,0.02343 0,0.03125 0.108765,0.185072 0.245768,0.363566 0.375,0.53125 0.114574,0.148236 0.214679,0.303924 0.34375,0.4375 0.02069,0.02143 0.04146,0.04146 0.0625,0.0625 l 0.03125,0.03125 3.40625,3.40625 -2.90625,2.65625 -4.125,-4.125 c -0.276424,-0.399754 -0.764343,-0.643713 -1.25,-0.625 -0.05203,-0.0028 -0.104217,-0.0028 -0.15625,0 -0.989372,0.151101 -1.542343,1.515095 -0.9375,2.3125 l 4.4375,6.09375 c 0.08744,0.119271 0.193229,0.225062 0.3125,0.3125 l 4.65625,4.65625 -4.5,3.03125 c -0.236457,0.160116 -0.423878,0.391636 -0.53125,0.65625 l -3,7.34375 c -0.44319,1.058731 0.847519,2.34944 1.90625,1.90625 L 20.625,48 45.9375,48 c 1.108,0 2,-0.892 2,-2 l 0,-15.46875 L 24.625,7.2187497 c -0.01039,-0.010496 -0.02078,-0.020848 -0.03125,-0.03125 -0.196813,-0.1968133 -0.400558,-0.369477 -0.625,-0.53125 -0.199177,-0.1435622 -0.407775,-0.2612946 -0.625,-0.375 -0.04475,-0.023423 -0.07958,-0.071648 -0.125,-0.09375 -0.129047,-0.063336 -0.27217,-0.1038868 -0.40625,-0.15625 -0.135912,-0.052674 -0.265925,-0.1152821 -0.40625,-0.15625 -0.03157,-0.00934 -0.06197,-0.022513 -0.09375,-0.03125 -0.244822,-0.066309 -0.495409,-0.096001 -0.75,-0.125 -0.02068,-0.00241 -0.04177,0.00215 -0.0625,0 -0.265705,-0.026893 -0.54075,-0.047563 -0.8125,-0.03125 z"
         id="path4518" />
    </clipPath>
    <clipPath
       id="clipPath4910-6-9"
       clipPathUnits="userSpaceOnUse">
      <path
         id="path4912-6-2"
         d="m 24,19.0625 c -1.259925,0 -2.507459,0.507459 -3.46875,1.46875 -1.922581,1.922581 -1.922581,5.014919 0,6.9375 l 0.375,0.34375 L 41.09375,48 46,48 c 1.108,0 2,-0.892 2,-2 l 0,-4.90625 -8.15625,-8.1875 -12.03125,-12 -0.34375,-0.375 C 26.507459,19.569959 25.259925,19.0625 24,19.0625 z"
         style="opacity:0.3;color:#000000;fill:#000000;fill-opacity:1;fill-rule:nonzero;stroke:none;stroke-width:0.5;marker:none;visibility:visible;display:inline"
         inkscape:connector-curvature="0" />
    </clipPath>
    <clipPath
       id="clipPath4936-5"
       clipPathUnits="userSpaceOnUse">
      <path
         id="path4938-7"
         d="m 20.8125,8 0,3.40625 c -1.2224,0.3136 -2.38534,0.7975 -3.4375,1.4375 l -2.4375,-2.40625 -4.5,4.5 2.46875,2.5 c -0.4488,0.7824 -0.81566,1.626981 -1.09375,2.5 -0.0927,0.291006 -0.17816,0.5758 -0.25,0.875 l -3.5625,0 0,6.375 4.15625,4.15625 -1.71875,1.71875 4.5,4.5 9.625,9.625 L 25.375,48 46,48 c 1.108,0 2,-0.892 2,-2 l 0,-20.625 -0.8125,-0.8125 -9.625,-9.625 -4.5,-4.5 -1.71875,1.71875 L 27.1875,8 20.8125,8 z"
         style="fill:#0e232e;fill-opacity:0.82520297;fill-rule:nonzero;stroke:none;display:inline"
         inkscape:connector-curvature="0" />
    </clipPath>
    <clipPath
       id="clipPath4910-8"
       clipPathUnits="userSpaceOnUse">
      <path
         id="path4912-8"
         d="m 24,19.0625 c -1.259925,0 -2.507459,0.507459 -3.46875,1.46875 -1.922581,1.922581 -1.922581,5.014919 0,6.9375 l 0.375,0.34375 L 41.09375,48 46,48 c 1.108,0 2,-0.892 2,-2 l 0,-4.90625 -8.15625,-8.1875 -12.03125,-12 -0.34375,-0.375 C 26.507459,19.569959 25.259925,19.0625 24,19.0625 z"
         style="opacity:0.3;color:#000000;fill:#000000;fill-opacity:1;fill-rule:nonzero;stroke:none;stroke-width:0.5;marker:none;visibility:visible;display:inline"
         inkscape:connector-curvature="0" />
    </clipPath>
    <clipPath
       id="clipPath4331-4"
       clipPathUnits="userSpaceOnUse">
      <path
         id="path4333-7"
         d="m 23.75,7.5625 c -3.451779,0 -6.25,2.7982 -6.25,6.25 l 0,4.6875 c 0,0.330092 0.136168,0.620764 0.34375,0.84375 0.01016,0.01092 0.02071,0.02071 0.03125,0.03125 L 20.96875,22.5 14.5,22.5 c -1.108,0 -2,0.892 -2,2 l 0,13.5 c 0,0.164967 0.02519,0.315591 0.0625,0.46875 0.0262,0.107537 0.05103,0.212656 0.09375,0.3125 0.03933,0.09214 0.104041,0.165705 0.15625,0.25 0.03201,0.05189 0.05727,0.107675 0.09375,0.15625 0.02233,0.02974 0.03857,0.06534 0.0625,0.09375 0.0417,0.04964 0.07872,0.110926 0.125,0.15625 0.04721,0.04594 0.104619,0.08384 0.15625,0.125 L 21.6875,48 46,48 c 1.108,0 2,-0.892 2,-2 L 48,29.25 28.4375,9.6875 C 28.344943,9.5817008 28.255631,9.4742937 28.15625,9.375 28.12092,9.339674 28.06741,9.315722 28.03125,9.28125 27.918981,9.1744958 27.807452,9.0669564 27.6875,8.96875 27.6578,8.944221 27.62391,8.930234 27.59375,8.90625 27.471947,8.81012 27.34765,8.7119582 27.21875,8.625 27.18719,8.603662 27.15696,8.58327 27.125,8.5625 26.990501,8.475245 26.860145,8.3893571 26.71875,8.3125 26.69063,8.297207 26.65338,8.296119 26.625,8.28125 26.494088,8.212761 26.35495,8.1529625 26.21875,8.09375 26.17651,8.075309 26.13647,8.048772 26.09375,8.03125 25.933803,7.965967 25.760065,7.8957447 25.59375,7.84375 25.57208,7.837004 25.553022,7.8190142 25.53125,7.8125 25.352378,7.7587466 25.185323,7.7251536 25,7.6875 24.9901,7.68547 24.97866,7.68948 24.96875,7.6875 24.77271,7.6487168 24.577293,7.6136138 24.375,7.59375 24.165984,7.5725195 23.964744,7.5625 23.75,7.5625 z"
         style="color:#000000;fill:#0e232e;fill-opacity:0.48709681;fill-rule:nonzero;stroke:none;stroke-width:0.5;marker:none;visibility:visible;display:inline"
         inkscape:connector-curvature="0" />
    </clipPath>
    <linearGradient
       inkscape:collect="always"
       xlink:href="#linearGradient6772-9"
       id="linearGradient3085-2"
       gradientUnits="userSpaceOnUse"
       gradientTransform="translate(-84.249997,-4.7499109)"
       x1="40.915409"
       y1="1049.3521"
       x2="40.915409"
       y2="1007.3218" />
    <linearGradient
       inkscape:collect="always"
       id="linearGradient6772-9">
      <stop
         style="stop-color:#efe963;stop-opacity:1"
         offset="0"
         id="stop6774-3" />
      <stop
         style="stop-color:#fcf982;stop-opacity:1"
         offset="1"
         id="stop6776-1" />
    </linearGradient>
    <linearGradient
       gradientTransform="translate(7.7392578e-7,4.2609766e-5)"
       inkscape:collect="always"
       xlink:href="#linearGradient6772-9"
       id="linearGradient6778-1"
       x1="40.915409"
       y1="1049.3521"
       x2="40.915409"
       y2="1007.3218"
       gradientUnits="userSpaceOnUse" />
    <clipPath
       clipPathUnits="userSpaceOnUse"
       id="clipPath4492-5">
      <path
         inkscape:connector-curvature="0"
         style="opacity:0.3;fill:#000000;fill-opacity:1;fill-rule:evenodd;stroke-width:0.25;display:inline"
         d="m 28.28125,11 c -0.382978,-0.015 -0.701309,0.2118 -0.65625,0.625 l 0,0.9375 c 0.0028,0.107535 0.03337,0.206152 0.0625,0.28125 0.0077,0.0185 0.02221,0.04583 0.03125,0.0625 0.02417,0.04365 0.03048,0.09298 0.0625,0.125 l 0.09375,0.0625 1.6875,1.71875 c -0.09694,0.107303 -0.236384,0.234525 -0.40625,0.40625 l -2.28125,2.375 -6.4375,-6.4375 c -0.08266,-0.08266 -0.181553,-0.128868 -0.34375,-0.125 l -9.25,0 c -0.337919,-0.015 -0.585021,0.2799 -0.5625,0.625 l 0,1.03125 c -3.5e-4,0.08677 0.0032,0.174519 0.03125,0.25 0.02085,0.0575 0.05938,0.108056 0.09375,0.15625 0.01247,0.01766 0.0172,0.0463 0.03125,0.0625 0.0091,0.01035 0.02154,0.02154 0.03125,0.03125 l 0.15625,0.125 1.65625,1.65625 0,0.03125 0,21.53125 c -0.0083,0.0885 -0.01311,0.187768 0,0.25 0.0079,0.0311 0.01605,0.06838 0.03125,0.09375 0.01199,0.02047 0.01402,0.04527 0.03125,0.0625 L 23.40625,48 46,48 c 1.108,0 2,-0.892 2,-2 L 48,21.59375 37.65625,11.25 c -0.01519,-0.03494 -0.03721,-0.06556 -0.0625,-0.09375 -0.0095,-0.0095 -0.02057,-0.02275 -0.03125,-0.03125 -0.03337,-0.02893 -0.07961,-0.04528 -0.125,-0.0625 -0.0085,-0.0029 -0.02235,0.0024 -0.03125,0 -0.0577,-0.01753 -0.114282,-0.03502 -0.1875,-0.03125 L 28.28125,11 z"
         id="path4494-0" />
    </clipPath>
    <clipPath
       clipPathUnits="userSpaceOnUse"
       id="clipPath3856-3">
      <path
         style="opacity:0.3;fill:#000000;fill-opacity:1;stroke:none;display:inline"
         d="m 27.84375,12.03125 -15.4375,15.4375 8.125,8.125 L 32.9375,48 46,48 c 1.108,0 2,-0.892 2,-2 l 0,-13.8125 -12.03125,-12.03125 -8.125,-8.125 z m 10.5625,2.4375 0,3.25 -1.625,1.625 L 48,30.5625 l 0,-6.5 -9.59375,-9.59375 z m -18.6875,21.9375 -8.9375,2.4375 -1.625,0 L 18.3125,48 l 13,0 -11.59375,-11.59375 z"
         id="path3858-1"
         inkscape:connector-curvature="0" />
    </clipPath>
    <linearGradient
       id="linearGradient4699-1-7">
      <stop
         style="stop-color:#ffffff;stop-opacity:1;"
         offset="0"
         id="stop4701-3-12" />
      <stop
         style="stop-color:#ffffff;stop-opacity:0;"
         offset="1"
         id="stop4703-4-39" />
    </linearGradient>
    <linearGradient
       inkscape:collect="always"
       xlink:href="#linearGradient4699-1-7"
       id="linearGradient4705-1-7"
       x1="27.5"
       y1="0.5"
       x2="27.5"
       y2="3"
       gradientUnits="userSpaceOnUse" />
    <linearGradient
       gradientTransform="translate(0,-1004.3622)"
       y2="1047.3622"
       x2="42.5"
       y1="1049.8622"
       x1="45"
       gradientUnits="userSpaceOnUse"
       id="linearGradient12409-0"
       xlink:href="#linearGradient4699-1-7"
       inkscape:collect="always" />
    <linearGradient
       inkscape:collect="always"
       id="linearGradient4691-0-5">
      <stop
         style="stop-color:#19aeff;stop-opacity:1;"
         offset="0"
         id="stop4693-5-2" />
      <stop
         style="stop-color:#19aeff;stop-opacity:0;"
         offset="1"
         id="stop4695-5-9" />
    </linearGradient>
    <linearGradient
       inkscape:collect="always"
       xlink:href="#linearGradient4691-0-5"
       id="linearGradient4697-1-4"
       x1="45"
       y1="1049.8622"
       x2="42.5"
       y2="1047.3622"
       gradientUnits="userSpaceOnUse" />
    <linearGradient
       inkscape:collect="always"
       xlink:href="#linearGradient4699-5"
       id="linearGradient4705-6"
       x1="27.5"
       y1="0.5"
       x2="27.5"
       y2="3"
       gradientUnits="userSpaceOnUse" />
    <linearGradient
       inkscape:collect="always"
       xlink:href="#linearGradient4691-7"
       id="linearGradient4697-0"
       x1="45"
       y1="1049.8622"
       x2="42.5"
       y2="1047.3622"
       gradientUnits="userSpaceOnUse" />
    <linearGradient
       inkscape:collect="always"
       id="linearGradient3815-5-8">
      <stop
         style="stop-color:#ffffff;stop-opacity:1;"
         offset="0"
         id="stop3817-1-91" />
      <stop
         style="stop-color:#ffffff;stop-opacity:0;"
         offset="1"
         id="stop3819-9-5" />
    </linearGradient>
    <linearGradient
       inkscape:collect="always"
       xlink:href="#linearGradient3815-5-8"
       id="linearGradient3821-9-53"
       x1="3"
       y1="3"
       x2="25"
       y2="28"
       gradientUnits="userSpaceOnUse" />
    <linearGradient
       id="linearGradient4634-03">
      <stop
         style="stop-color:#000000;stop-opacity:0.38414633;"
         offset="0"
         id="stop4636-9" />
      <stop
         style="stop-color:#000000;stop-opacity:0;"
         offset="1"
         id="stop4638-4" />
    </linearGradient>
    <linearGradient
       id="linearGradient4665-07">
      <stop
         style="stop-color:#95dbff;stop-opacity:1;"
         offset="0"
         id="stop4667-93" />
      <stop
         style="stop-color:#006ba2;stop-opacity:1;"
         offset="1"
         id="stop4669-1" />
    </linearGradient>
    <linearGradient
       inkscape:collect="always"
       id="linearGradient4691-7">
      <stop
         style="stop-color:#19aeff;stop-opacity:1;"
         offset="0"
         id="stop4693-1" />
      <stop
         style="stop-color:#19aeff;stop-opacity:0;"
         offset="1"
         id="stop4695-80" />
    </linearGradient>
    <linearGradient
       inkscape:collect="always"
       id="linearGradient4699-5">
      <stop
         style="stop-color:#19aeff;stop-opacity:1;"
         offset="0"
         id="stop4701-51" />
      <stop
         style="stop-color:#19aeff;stop-opacity:0;"
         offset="1"
         id="stop4703-56" />
    </linearGradient>
    <linearGradient
       id="linearGradient5012-4">
      <stop
         id="stop5014-5"
         offset="0"
         style="stop-color:#a0a0a0;stop-opacity:1;" />
      <stop
         id="stop5016-3"
         offset="1"
         style="stop-color:#797979;stop-opacity:1;" />
    </linearGradient>
    <clipPath
       id="clipPath4641"
       clipPathUnits="userSpaceOnUse">
      <path
         id="path4643"
         d="M 20.46875,8 C 18.406317,9.214765 17,11.432383 17,14 c 0,0.274788 0.03163,0.546183 0.0625,0.8125 0.02356,0.203015 0.05314,0.396519 0.09375,0.59375 0.04131,0.200659 0.06685,0.399854 0.125,0.59375 0.0066,0.02211 0.02439,0.04048 0.03125,0.0625 0.03274,0.105356 0.08746,0.209364 0.125,0.3125 0.05217,0.143238 0.09512,0.298839 0.15625,0.4375 0.03725,0.08466 0.08451,0.167146 0.125,0.25 0.04229,0.08606 0.07931,0.165989 0.125,0.25 0.08756,0.162098 0.181539,0.314685 0.28125,0.46875 0.146609,0.226181 0.297655,0.44907 0.46875,0.65625 0.0094,0.01143 0.02174,0.01988 0.03125,0.03125 0.06196,0.07405 0.122573,0.14734 0.1875,0.21875 0.07507,0.08256 0.139848,0.171098 0.21875,0.25 0.108939,0.109077 0.227828,0.210734 0.34375,0.3125 L 21,20.90625 21,39 c 0,0.1385 0.0072,0.27582 0.03125,0.40625 0.0018,0.0099 -0.0019,0.02143 0,0.03125 0.02384,0.119989 0.08269,0.23301 0.125,0.34375 0.0037,0.0095 -0.0039,0.02182 0,0.03125 0.04371,0.109854 0.09613,0.214147 0.15625,0.3125 0.04847,0.07881 0.09832,0.148592 0.15625,0.21875 0.02833,0.03436 0.06332,0.06165 0.09375,0.09375 0.01047,0.01099 0.02054,0.02054 0.03125,0.03125 L 29.125,48 45.9375,48 c 1.108,0 2,-0.892 2,-2 l 0,-17.90625 -18.96875,-19 c -0.0056,-0.00555 -0.02568,0.00553 -0.03125,0 C 28.726564,8.8843265 28.517085,8.6819097 28.28125,8.5 28.042367,8.315056 27.79276,8.1540283 27.53125,8 L 27,8 l 0,5 c 0,0.291997 -0.07597,0.562879 -0.1875,0.8125 L 21,8 20.46875,8 z"
         style="opacity:0.25;color:#000000;fill:#000000;fill-opacity:1;fill-rule:nonzero;stroke:none;stroke-width:0.5;marker:none;visibility:visible;display:inline"
         inkscape:connector-curvature="0" />
    </clipPath>
  </defs>
  <metadata
     id="metadata7">
    <rdf:RDF>
      <cc:Work
         rdf:about="">
        <dc:format>image/svg+xml</dc:format>
        <dc:type
           rdf:resource="http://purl.org/dc/dcmitype/StillImage" />
        <dc:title />
      </cc:Work>
    </rdf:RDF>
  </metadata>
  <g
     style="display:inline"
     transform="translate(0,-1004.3622)"
     id="layer1"
     inkscape:groupmode="layer"
     inkscape:label="base">
    <rect
       ry="2"
       y="1004.3622"
       x="0"
       height="48"
       width="48"
       id="rect3006-5"
       style="color:#000000;fill:#19aeff;fill-opacity:1;fill-rule:nonzero;stroke:none;stroke-width:0.5;marker:none;visibility:visible;display:inline;overflow:visible;enable-background:accumulate" />
    <path
       inkscape:connector-curvature="0"
       id="path3217"
       d="m 4.28125,1011.2372 a 0.41318019,0.41318019 0 0 0 0,0.031 0.41318019,0.41318019 0 0 0 -0.09375,0.031 0.41334434,0.41334434 0 0 0 -0.125,0.094 0.41318019,0.41318019 0 0 0 0,0.031 0.41334434,0.41334434 0 0 0 -0.0625,0.125 c -0.5346943,1.9955 -2.1182318,3.448 -4,3.875 l 0,0.7813 c 1.8932779,-0.3816 3.5578372,-1.6098 4.40625,-3.4063 0.7712192,1.6327 2.2230558,2.8676 4,3.3438 2.935352,0.7864 5.932775,-0.6869 7.1875,-3.3438 0.770667,1.6349 2.221441,2.8671 4,3.3438 2.935352,0.7864 5.964025,-0.6869 7.21875,-3.3438 0.771219,1.6327 2.223056,2.8676 4,3.3438 2.935352,0.7864 5.932775,-0.6869 7.1875,-3.3438 0.770667,1.6349 2.221441,2.8671 4,3.3438 2.221966,0.5953 4.483303,-0.102 6,-1.625 l 0,-1.3125 c -1.244857,1.8042 -3.50888,2.7335 -5.75,2.1562 l -0.03125,0 c -1.834931,-0.4917 -3.301524,-1.9234 -3.8125,-3.75 a 0.41334458,0.41334458 0 0 0 0,-0.094 0.41318019,0.41318019 0 0 0 -0.03125,0 0.41334458,0.41334458 0 0 0 0,-0.062 0.41318019,0.41318019 0 0 0 -0.15625,-0.125 0.41334458,0.41334458 0 0 0 0,-0.031 0.41318019,0.41318019 0 0 0 -0.0625,-0.031 0.41334458,0.41334458 0 0 0 -0.03125,0 0.41318019,0.41318019 0 0 0 -0.0625,-0.031 0.41334458,0.41334458 0 0 0 -0.0625,0 0.41318019,0.41318019 0 0 0 -0.09375,0 0.41318019,0.41318019 0 0 0 -0.125,0.062 0.41334458,0.41334458 0 0 0 -0.1875,0.25 0.41318019,0.41318019 0 0 0 0,0.062 c -0.788003,2.8175 -3.697172,4.48 -6.53125,3.75 l -0.0625,0 c -1.854063,-0.4968 -3.284455,-1.9584 -3.78125,-3.8125 a 0.41318019,0.41318019 0 0 0 -0.03125,0 0.41334458,0.41334458 0 0 0 0,-0.062 0.41318019,0.41318019 0 0 0 -0.03125,0 0.41334458,0.41334458 0 0 0 0,-0.031 0.41318019,0.41318019 0 0 0 -0.125,-0.125 0.41334458,0.41334458 0 0 0 0,-0.031 0.41318019,0.41318019 0 0 0 -0.15625,-0.062 0.41334458,0.41334458 0 0 0 -0.03125,0 0.41318019,0.41318019 0 0 0 -0.03125,0 0.41334458,0.41334458 0 0 0 -0.0625,0 0.41318019,0.41318019 0 0 0 -0.0625,0 0.41318019,0.41318019 0 0 0 -0.03125,0.031 0.41334458,0.41334458 0 0 0 -0.28125,0.2812 c -0.764364,2.8527 -3.677862,4.5475 -6.53125,3.8125 l -0.03125,0 c -1.854063,-0.4968 -3.315705,-1.9584 -3.8125,-3.8125 a 0.41334458,0.41334458 0 0 0 0,-0.031 0.41318019,0.41318019 0 0 0 -0.03125,-0.031 0.41334458,0.41334458 0 0 0 0,-0.031 0.41318019,0.41318019 0 0 0 -0.0625,-0.062 0.41334458,0.41334458 0 0 0 -0.09375,-0.094 0.41318019,0.41318019 0 0 0 -0.15625,-0.062 0.41334458,0.41334458 0 0 0 -0.09375,0 0.41318019,0.41318019 0 0 0 -0.0625,0 0.41318019,0.41318019 0 0 0 -0.21875,0.1563 0.41334458,0.41334458 0 0 0 -0.09375,0.1562 0.41318019,0.41318019 0 0 0 0,0.062 c -0.788003,2.8175 -3.697172,4.48 -6.53125,3.75 l -0.0625,0 c -1.8349301,-0.4917 -3.2702747,-1.9234 -3.78125,-3.75 -0.00533,-0.019 0.00513,-0.043 0,-0.062 a 0.41318019,0.41318019 0 0 0 -0.03125,-0.031 0.41334434,0.41334434 0 0 0 0,-0.031 0.41318019,0.41318019 0 0 0 -0.125,-0.1562 0.41318019,0.41318019 0 0 0 -0.03125,0 0.41334434,0.41334434 0 0 0 -0.03125,-0.031 0.41318019,0.41318019 0 0 0 -0.03125,-0.031 0.41318019,0.41318019 0 0 0 -0.03125,0 0.41318019,0.41318019 0 0 0 -0.0625,-0.031 0.41318019,0.41318019 0 0 0 -0.0625,0 0.41334434,0.41334434 0 0 0 -0.03125,0 0.41318019,0.41318019 0 0 0 -0.0625,0 0.41318019,0.41318019 0 0 0 -0.03125,0 z"
       style="font-size:medium;font-style:normal;font-variant:normal;font-weight:normal;font-stretch:normal;text-indent:0;text-align:start;text-decoration:none;line-height:normal;letter-spacing:normal;word-spacing:normal;text-transform:none;direction:ltr;block-progression:tb;writing-mode:lr-tb;text-anchor:start;baseline-shift:baseline;opacity:0.4;color:#000000;fill:#ffffff;fill-opacity:1;stroke:none;stroke-width:1;marker:none;visibility:visible;display:inline;overflow:visible;enable-background:accumulate;font-family:Sans;-inkscape-font-specification:Sans" />
    <path
       id="path3217-4"
       d="m 4.28125,1043.2367 a 0.41318019,0.41318019 0 0 0 0,0.031 0.41318019,0.41318019 0 0 0 -0.09375,0.031 0.41334434,0.41334434 0 0 0 -0.125,0.094 0.41318019,0.41318019 0 0 0 0,0.031 0.41334434,0.41334434 0 0 0 -0.0625,0.125 c -0.5346943,1.9955 -2.1182318,3.448 -4,3.875 l 0,0.7812 c 1.8932779,-0.3815 3.5578372,-1.6097 4.40625,-3.4062 0.7712192,1.6327 2.2230558,2.8675 4,3.3437 2.935352,0.7865 5.932775,-0.6869 7.1875,-3.3437 0.770667,1.6349 2.221441,2.8671 4,3.3437 2.935352,0.7865 5.964025,-0.6869 7.21875,-3.3437 0.771219,1.6327 2.223056,2.8675 4,3.3437 2.935352,0.7865 5.932775,-0.6869 7.1875,-3.3437 0.770667,1.6349 2.221441,2.8671 4,3.3437 2.221966,0.5954 4.483303,-0.1019 6,-1.625 l 0,-1.3125 c -1.244857,1.8043 -3.50888,2.7336 -5.75,2.1563 l -0.03125,0 c -1.834931,-0.4917 -3.301524,-1.9235 -3.8125,-3.75 a 0.41334458,0.41334458 0 0 0 0,-0.094 0.41318019,0.41318019 0 0 0 -0.03125,0 0.41334458,0.41334458 0 0 0 0,-0.062 0.41318019,0.41318019 0 0 0 -0.15625,-0.125 0.41334458,0.41334458 0 0 0 0,-0.031 0.41318019,0.41318019 0 0 0 -0.0625,-0.031 0.41334458,0.41334458 0 0 0 -0.03125,0 0.41318019,0.41318019 0 0 0 -0.0625,-0.031 0.41334458,0.41334458 0 0 0 -0.0625,0 0.41318019,0.41318019 0 0 0 -0.09375,0 0.41318019,0.41318019 0 0 0 -0.125,0.062 0.41334458,0.41334458 0 0 0 -0.1875,0.25 0.41318019,0.41318019 0 0 0 0,0.062 c -0.788003,2.8175 -3.697172,4.48 -6.53125,3.75 l -0.0625,0 c -1.854063,-0.4968 -3.284455,-1.9584 -3.78125,-3.8125 a 0.41318019,0.41318019 0 0 0 -0.03125,0 0.41334458,0.41334458 0 0 0 0,-0.062 0.41318019,0.41318019 0 0 0 -0.03125,0 0.41334458,0.41334458 0 0 0 0,-0.031 0.41318019,0.41318019 0 0 0 -0.125,-0.125 0.41334458,0.41334458 0 0 0 0,-0.031 0.41318019,0.41318019 0 0 0 -0.15625,-0.062 0.41334458,0.41334458 0 0 0 -0.03125,0 0.41318019,0.41318019 0 0 0 -0.03125,0 0.41334458,0.41334458 0 0 0 -0.0625,0 0.41318019,0.41318019 0 0 0 -0.0625,0 0.41318019,0.41318019 0 0 0 -0.03125,0.031 0.41334458,0.41334458 0 0 0 -0.28125,0.2813 c -0.764364,2.8527 -3.677862,4.5475 -6.53125,3.8125 l -0.03125,0 C 17.958437,1046.8657 16.496795,1045.4041 16,1043.55 a 0.41334458,0.41334458 0 0 0 0,-0.031 0.41318019,0.41318019 0 0 0 -0.03125,-0.031 0.41334458,0.41334458 0 0 0 0,-0.031 0.41318019,0.41318019 0 0 0 -0.0625,-0.062 0.41334458,0.41334458 0 0 0 -0.09375,-0.094 0.41318019,0.41318019 0 0 0 -0.15625,-0.062 0.41334458,0.41334458 0 0 0 -0.09375,0 0.41318019,0.41318019 0 0 0 -0.0625,0 0.41318019,0.41318019 0 0 0 -0.21875,0.1562 0.41334458,0.41334458 0 0 0 -0.09375,0.1563 0.41318019,0.41318019 0 0 0 0,0.062 c -0.788003,2.8175 -3.697172,4.48 -6.53125,3.75 l -0.0625,0 c -1.8349301,-0.4917 -3.2702747,-1.9235 -3.78125,-3.75 -0.00533,-0.019 0.00513,-0.043 0,-0.062 a 0.41318019,0.41318019 0 0 0 -0.03125,-0.031 0.41334434,0.41334434 0 0 0 0,-0.031 0.41318019,0.41318019 0 0 0 -0.125,-0.1563 0.41318019,0.41318019 0 0 0 -0.03125,0 0.41334434,0.41334434 0 0 0 -0.03125,-0.031 0.41318019,0.41318019 0 0 0 -0.03125,-0.031 0.41318019,0.41318019 0 0 0 -0.03125,0 0.41318019,0.41318019 0 0 0 -0.0625,-0.031 0.41318019,0.41318019 0 0 0 -0.0625,0 0.41334434,0.41334434 0 0 0 -0.03125,0 0.41318019,0.41318019 0 0 0 -0.0625,0 0.41318019,0.41318019 0 0 0 -0.03125,0 z"
       style="font-size:medium;font-style:normal;font-variant:normal;font-weight:normal;font-stretch:normal;text-indent:0;text-align:start;text-decoration:none;line-height:normal;letter-spacing:normal;word-spacing:normal;text-transform:none;direction:ltr;block-progression:tb;writing-mode:lr-tb;text-anchor:start;baseline-shift:baseline;opacity:0.4;color:#000000;fill:#ffffff;fill-opacity:1;stroke:none;stroke-width:1;marker:none;visibility:visible;display:inline;overflow:visible;enable-background:accumulate;font-family:Sans;-inkscape-font-specification:Sans"
       inkscape:connector-curvature="0" />
    <path
       id="path3217-1"
       d="m 4.28125,1027.2367 a 0.41318019,0.41318019 0 0 0 0,0.031 0.41318019,0.41318019 0 0 0 -0.09375,0.031 0.41334434,0.41334434 0 0 0 -0.125,0.094 0.41318019,0.41318019 0 0 0 0,0.031 0.41334434,0.41334434 0 0 0 -0.0625,0.125 c -0.5346943,1.9955 -2.1182318,3.448 -4,3.875 l 0,0.7812 c 1.8932779,-0.3815 3.5578372,-1.6097 4.40625,-3.4062 0.7712192,1.6327 2.2230558,2.8675 4,3.3437 2.935352,0.7865 5.932775,-0.6869 7.1875,-3.3437 0.770667,1.6349 2.221441,2.8671 4,3.3437 2.935352,0.7865 5.964025,-0.6869 7.21875,-3.3437 0.771219,1.6327 2.223056,2.8675 4,3.3437 2.935352,0.7865 5.932775,-0.6869 7.1875,-3.3437 0.770667,1.6349 2.221441,2.8671 4,3.3437 2.221966,0.5954 4.483303,-0.1019 6,-1.625 l 0,-1.3125 c -1.244857,1.8043 -3.50888,2.7336 -5.75,2.1563 l -0.03125,0 c -1.834931,-0.4917 -3.301524,-1.9235 -3.8125,-3.75 a 0.41334458,0.41334458 0 0 0 0,-0.094 0.41318019,0.41318019 0 0 0 -0.03125,0 0.41334458,0.41334458 0 0 0 0,-0.062 0.41318019,0.41318019 0 0 0 -0.15625,-0.125 0.41334458,0.41334458 0 0 0 0,-0.031 0.41318019,0.41318019 0 0 0 -0.0625,-0.031 0.41334458,0.41334458 0 0 0 -0.03125,0 0.41318019,0.41318019 0 0 0 -0.0625,-0.031 0.41334458,0.41334458 0 0 0 -0.0625,0 0.41318019,0.41318019 0 0 0 -0.09375,0 0.41318019,0.41318019 0 0 0 -0.125,0.062 0.41334458,0.41334458 0 0 0 -0.1875,0.25 0.41318019,0.41318019 0 0 0 0,0.062 c -0.788003,2.8175 -3.697172,4.48 -6.53125,3.75 l -0.0625,0 c -1.854063,-0.4968 -3.284455,-1.9584 -3.78125,-3.8125 a 0.41318019,0.41318019 0 0 0 -0.03125,0 0.41334458,0.41334458 0 0 0 0,-0.062 0.41318019,0.41318019 0 0 0 -0.03125,0 0.41334458,0.41334458 0 0 0 0,-0.031 0.41318019,0.41318019 0 0 0 -0.125,-0.125 0.41334458,0.41334458 0 0 0 0,-0.031 0.41318019,0.41318019 0 0 0 -0.15625,-0.062 0.41334458,0.41334458 0 0 0 -0.03125,0 0.41318019,0.41318019 0 0 0 -0.03125,0 0.41334458,0.41334458 0 0 0 -0.0625,0 0.41318019,0.41318019 0 0 0 -0.0625,0 0.41318019,0.41318019 0 0 0 -0.03125,0.031 0.41334458,0.41334458 0 0 0 -0.28125,0.2813 c -0.764364,2.8527 -3.677862,4.5475 -6.53125,3.8125 l -0.03125,0 C 17.958437,1030.8657 16.496795,1029.4041 16,1027.55 a 0.41334458,0.41334458 0 0 0 0,-0.031 0.41318019,0.41318019 0 0 0 -0.03125,-0.031 0.41334458,0.41334458 0 0 0 0,-0.031 0.41318019,0.41318019 0 0 0 -0.0625,-0.062 0.41334458,0.41334458 0 0 0 -0.09375,-0.094 0.41318019,0.41318019 0 0 0 -0.15625,-0.062 0.41334458,0.41334458 0 0 0 -0.09375,0 0.41318019,0.41318019 0 0 0 -0.0625,0 0.41318019,0.41318019 0 0 0 -0.21875,0.1562 0.41334458,0.41334458 0 0 0 -0.09375,0.1563 0.41318019,0.41318019 0 0 0 0,0.062 c -0.788003,2.8175 -3.697172,4.48 -6.53125,3.75 l -0.0625,0 c -1.8349301,-0.4917 -3.2702747,-1.9235 -3.78125,-3.75 -0.00533,-0.019 0.00513,-0.043 0,-0.062 a 0.41318019,0.41318019 0 0 0 -0.03125,-0.031 0.41334434,0.41334434 0 0 0 0,-0.031 0.41318019,0.41318019 0 0 0 -0.125,-0.1563 0.41318019,0.41318019 0 0 0 -0.03125,0 0.41334434,0.41334434 0 0 0 -0.03125,-0.031 0.41318019,0.41318019 0 0 0 -0.03125,-0.031 0.41318019,0.41318019 0 0 0 -0.03125,0 0.41318019,0.41318019 0 0 0 -0.0625,-0.031 0.41318019,0.41318019 0 0 0 -0.0625,0 0.41334434,0.41334434 0 0 0 -0.03125,0 0.41318019,0.41318019 0 0 0 -0.0625,0 0.41318019,0.41318019 0 0 0 -0.03125,0 z"
       style="font-size:medium;font-style:normal;font-variant:normal;font-weight:normal;font-stretch:normal;text-indent:0;text-align:start;text-decoration:none;line-height:normal;letter-spacing:normal;word-spacing:normal;text-transform:none;direction:ltr;block-progression:tb;writing-mode:lr-tb;text-anchor:start;baseline-shift:baseline;opacity:0.4;color:#000000;fill:#ffffff;fill-opacity:1;stroke:none;stroke-width:1;marker:none;visibility:visible;display:inline;overflow:visible;enable-background:accumulate;font-family:Sans;-inkscape-font-specification:Sans"
       inkscape:connector-curvature="0" />
  </g>
  <g
     style="display:inline"
     inkscape:label="shadow"
     id="layer2"
     inkscape:groupmode="layer">
    <flowRoot
       transform="translate(32.627465,-1001.1992)"
       style="font-size:40px;font-style:normal;font-weight:normal;line-height:125%;letter-spacing:0px;word-spacing:0px;opacity:0.25;fill:#000000;fill-opacity:1;stroke:none;font-family:sans-serif"
       id="flowRoot61"
       xml:space="preserve"><flowRegion
         id="flowRegion63"><rect
           y="6.6342559"
           x="-53.033005"
           height="49.320694"
           width="57.6292"
           id="rect65"
           style="fill:#000000;fill-opacity:1" /></flowRegion><flowPara
         id="flowPara67" /></flowRoot>    <path
       style="fill:#000000"
       d=""
       id="path906"
       inkscape:connector-curvature="0" />
    <flowRoot
       xml:space="preserve"
       id="flowRoot61-9"
       style="font-size:40px;font-style:normal;font-weight:normal;line-height:125%;letter-spacing:0px;word-spacing:0px;fill:#000000;fill-opacity:1;stroke:none;font-family:sans-serif"
       transform="translate(-104.88652,-1017.7501)"><flowRegion
         id="flowRegion63-8"><rect
           id="rect65-7"
           width="57.6292"
           height="49.320694"
           x="-53.033005"
           y="6.6342559" /></flowRegion><flowPara
         id="flowPara67-6" /></flowRoot>    <path
       style="opacity:0.25;fill:#000000;fill-opacity:1;stroke:none"
       d="M 30 10 C 29.686412 10.112944 29.395239 10.25489 29.09375 10.375 L 26.3125 20.6875 L 30.65625 26.875 L 48 44.21875 L 48 28 L 30 10 z "
       id="path4481" />
  </g>
  <g
     style="display:inline"
     inkscape:label="icon"
     id="layer3"
     inkscape:groupmode="layer">
    <path
       id="path4188"
       d="m 30,10 c -8.609764,3.100961 -12.641676,8.947863 -13.0625,15.0625 0.712458,0.924528 1.716211,1.627 2.875,1.9375 l 0.03125,0 c 2.853388,0.735 5.766886,-0.9598 6.53125,-3.8125 0.03867,-0.1328 0.14844,-0.24225 0.28125,-0.28125 0.0099,-0.011 0.02029,-0.02125 0.03125,-0.03125 l 0.0625,0 0.0625,0 c 0.01041,-4e-4 0.02084,-4e-4 0.03125,0 0.01041,-4e-4 0.02084,-4e-4 0.03125,0 0.05559,0.01 0.10913,0.0315 0.15625,0.0625 3.88e-4,0.01 3.88e-4,0.02125 0,0.03125 0.05,0.032 0.09296,0.075 0.125,0.125 3.88e-4,0.01 3.88e-4,0.02125 0,0.03125 0.01041,-4e-4 0.02084,-4e-4 0.03125,0 0.0016,0.021 0.0016,0.0415 0,0.0625 0.01041,-4e-4 0.02084,-4e-4 0.03125,0 0.471279,1.758873 1.783723,3.154883 3.5,3.71875 C 27.903073,21.37163 29.323268,15.409492 30,10 z"
       style="fill:#aae1ff;stroke:none;display:inline;fill-opacity:1"
       inkscape:connector-curvature="0" />
  </g>
  <g
     style="display:inline"
     sodipodi:insensitive="true"
     inkscape:label="hilight"
     id="layer4"
     inkscape:groupmode="layer">
    <path
       id="rect3006"
       d="M 2,0 C 0.892,0 0,0.892 0,2 l 0,44 c 0,1.108 0.892,2 2,2 l 44,0 c 1.108,0 2,-0.892 2,-2 L 48,2 C 48,0.892 47.108,0 46,0 L 2,0 z m 0,0.5 44,0 c 0.83101,0 1.5,0.6689904 1.5,1.5 l 0,44 c 0,0.83101 -0.66899,1.5 -1.5,1.5 l -44,0 C 1.1689904,47.5 0.5,46.83101 0.5,46 L 0.5,2 C 0.5,1.1689904 1.1689904,0.5 2,0.5 z"
       style="opacity:0.4;color:#000000;fill:url(#linearGradient12443);fill-opacity:1;fill-rule:nonzero;stroke:none;stroke-width:0.5;marker:none;visibility:visible;display:inline;overflow:visible;enable-background:accumulate"
       inkscape:connector-curvature="0" />
  </g>
</svg>
