<?xml version="1.0" encoding="UTF-8" standalone="no"?>
<!-- Created with Inkscape (http://www.inkscape.org/) -->

<svg
   xmlns:dc="http://purl.org/dc/elements/1.1/"
   xmlns:cc="http://creativecommons.org/ns#"
   xmlns:rdf="http://www.w3.org/1999/02/22-rdf-syntax-ns#"
   xmlns:svg="http://www.w3.org/2000/svg"
   xmlns="http://www.w3.org/2000/svg"
   xmlns:sodipodi="http://sodipodi.sourceforge.net/DTD/sodipodi-0.dtd"
   xmlns:inkscape="http://www.inkscape.org/namespaces/inkscape"
   width="16"
   height="16"
   id="svg1239"
   version="1.1"
   inkscape:version="0.48.4 r9939"
   sodipodi:docname="folder-remote.svg">
  <defs
     id="defs1241" />
  <sodipodi:namedview
     id="base"
     pagecolor="#ffffff"
     bordercolor="#666666"
     borderopacity="1.0"
     inkscape:pageopacity="0.0"
     inkscape:pageshadow="2"
     inkscape:zoom="32"
     inkscape:cx="5.6668895"
     inkscape:cy="6.5706755"
     inkscape:document-units="px"
     inkscape:current-layer="layer1"
     showgrid="true"
     fit-margin-top="0"
     fit-margin-left="0"
     fit-margin-right="0"
     fit-margin-bottom="0"
     inkscape:window-width="1855"
     inkscape:window-height="1056"
     inkscape:window-x="65"
     inkscape:window-y="24"
     inkscape:window-maximized="1"
     showguides="false"
     showborder="true"
     inkscape:showpageshadow="false">
    <inkscape:grid
       type="xygrid"
       id="grid3775"
       empspacing="5"
       visible="true"
       enabled="true"
       snapvisiblegridlinesonly="true" />
  </sodipodi:namedview>
  <metadata
     id="metadata1244">
    <rdf:RDF>
      <cc:Work
         rdf:about="">
        <dc:format>image/svg+xml</dc:format>
        <dc:type
           rdf:resource="http://purl.org/dc/dcmitype/StillImage" />
        <dc:title />
      </cc:Work>
    </rdf:RDF>
  </metadata>
  <g
     inkscape:label="Capa 1"
     inkscape:groupmode="layer"
     id="layer1"
     transform="translate(-644.57142,-451.79076)">
    <g
       inkscape:label="Capa 2"
       id="layer2-1"
       transform="matrix(1.6000003,0,0,1.6000003,652.14413,362.19077)" />
    <g
       id="layer2"
       inkscape:label="Capa 2"
       transform="matrix(1.6000003,0,0,1.6000003,523.63159,362.19077)" />
    <g
       inkscape:label="Capa 2"
       id="layer2-8"
       transform="matrix(1.6000003,0,0,1.6000003,253.53682,392.37514)" />
    <g
       inkscape:label="Capa 2"
       id="layer2-8-5"
       transform="matrix(1.6000003,0,0,1.6000003,239.53662,407.71523)" />
    <g
       transform="matrix(1.6000003,0,0,1.6000003,402.91493,407.71523)"
       id="layer2-51"
       inkscape:label="Capa 2" />
    <g
       inkscape:label="Capa 2"
       id="layer2-8-6"
       transform="matrix(1.6000003,0,0,1.6000003,331.15472,407.71523)" />
    <g
       transform="matrix(1.6000003,0,0,1.6000003,494.53303,407.71523)"
       id="layer2-81"
       inkscape:label="Capa 2" />
    <g
       inkscape:label="Capa 2"
       id="layer2-8-4"
       transform="matrix(1.6000003,0,0,1.6000003,238.18065,416.68041)" />
    <g
       transform="matrix(1.6000003,0,0,1.6000003,401.55896,416.68041)"
       id="layer2-9"
       inkscape:label="Capa 2" />
    <g
       inkscape:label="Capa 2"
       id="layer2-8-0"
       transform="matrix(1.6000003,0,0,1.6000003,266.83617,412.54581)" />
    <g
       transform="matrix(1.6000003,0,0,1.6000003,430.21448,412.54581)"
       id="layer2-5"
       inkscape:label="Capa 2" />
    <g
       inkscape:label="Capa 2"
       id="layer2-1-4"
       transform="matrix(1.6000003,0,0,1.6000003,598.57789,376.96834)" />
    <g
       id="layer2-3"
       inkscape:label="Capa 2"
       transform="matrix(1.6000003,0,0,1.6000003,470.06544,376.96834)" />
    <path
       style="color:#000000;fill:#0084c8;fill-opacity:1;fill-rule:nonzero;stroke:none;stroke-width:0.50000000000000000;marker:none;visibility:visible;display:inline;overflow:visible;enable-background:accumulate"
       d="M 1 2 L 1 6 L 7 6 L 7 10 L 6 10 L 6 11 L 0 11 L 0 13 L 6 13 L 6 14 L 10 14 L 10 13 L 16 13 L 16 11 L 10 11 L 10 10 L 9 10 L 9 6 L 15 6 L 15 2 L 1 2 z M 13 3 L 14 3 L 14 4 L 13 4 L 13 3 z "
       transform="translate(644.57142,451.79076)"
       id="rect3971" />
  </g>
</svg>
