<?xml version="1.0" encoding="UTF-8" standalone="no"?>
<!-- Created with Inkscape (http://www.inkscape.org/) -->

<svg
   xmlns:dc="http://purl.org/dc/elements/1.1/"
   xmlns:cc="http://creativecommons.org/ns#"
   xmlns:rdf="http://www.w3.org/1999/02/22-rdf-syntax-ns#"
   xmlns:svg="http://www.w3.org/2000/svg"
   xmlns="http://www.w3.org/2000/svg"
   xmlns:sodipodi="http://sodipodi.sourceforge.net/DTD/sodipodi-0.dtd"
   xmlns:inkscape="http://www.inkscape.org/namespaces/inkscape"
   width="16"
   height="16"
   id="svg4230"
   version="1.1"
   inkscape:version="0.48.4 r9939"
   sodipodi:docname="user-trash.svg">
  <defs
     id="defs4232">
    <linearGradient
       id="linearGradient4707">
      <stop
         id="stop4709"
         offset="0"
         style="stop-color:#d5ffb9;stop-opacity:1" />
      <stop
         id="stop4711"
         offset="1"
         style="stop-color:#fcfff5;stop-opacity:1" />
    </linearGradient>
    <linearGradient
       id="linearGradient855">
      <stop
         style="stop-color:#45ac00;stop-opacity:1"
         offset="0"
         id="stop857" />
      <stop
         style="stop-color:#91d400;stop-opacity:1"
         offset="1"
         id="stop859" />
    </linearGradient>
  </defs>
  <sodipodi:namedview
     id="base"
     pagecolor="#ffffff"
     bordercolor="#666666"
     borderopacity="1.0"
     inkscape:pageopacity="0.0"
     inkscape:pageshadow="2"
     inkscape:zoom="5.1162429"
     inkscape:cx="-29.58428"
     inkscape:cy="34.75208"
     inkscape:document-units="px"
     inkscape:current-layer="layer1"
     showgrid="false"
     inkscape:showpageshadow="false"
     borderlayer="true"
     inkscape:window-width="1855"
     inkscape:window-height="1056"
     inkscape:window-x="65"
     inkscape:window-y="24"
     inkscape:window-maximized="1" />
  <metadata
     id="metadata4235">
    <rdf:RDF>
      <cc:Work
         rdf:about="">
        <dc:format>image/svg+xml</dc:format>
        <dc:type
           rdf:resource="http://purl.org/dc/dcmitype/StillImage" />
        <dc:title />
      </cc:Work>
    </rdf:RDF>
  </metadata>
  <g
     inkscape:label="Capa 1"
     inkscape:groupmode="layer"
     id="layer1"
     transform="translate(0,-1036.3622)">
    <path
       style="fill:#0084c8;fill-opacity:1;stroke:none"
       d="m 4.996223,1036.6451 -2.037733,3.6053 3.260376,1.8474 1.781132,-3.0393 0.618868,1.0578 -0.573585,0.9685 3.320755,0 1.81132,-3.0841 -0.800001,0.4472 -1.041508,-1.8027 -5.675472,0 -0.543397,0 -0.120755,0 z m 8.86038,5.5716 -3.26038,1.8623 1.781132,3.0543 -1.237733,0 -0.573587,-0.9831 -1.660378,2.8306 1.811321,3.0985 0,-0.894 2.113211,0 2.837736,-4.8415 0.271697,-0.4618 0.06038,-0.1194 -2.143395,-3.5459 z m -13.600002,1.1025 0.7999994,0.4472 -1.0566024,1.8026 2.837736,4.8415 0.256603,0.4621 0.07547,0.119 4.181133,-0.06 0,-3.7242 -3.577357,0 0.618867,-1.0577 1.14717,0 -1.660378,-2.8309 -3.622641,0 z"
       id="path3802"
       inkscape:connector-curvature="0" />
  </g>
</svg>
