<?xml version="1.0" encoding="UTF-8" standalone="no"?>
<!-- Created with Inkscape (http://www.inkscape.org/) -->

<svg
   xmlns:dc="http://purl.org/dc/elements/1.1/"
   xmlns:cc="http://creativecommons.org/ns#"
   xmlns:rdf="http://www.w3.org/1999/02/22-rdf-syntax-ns#"
   xmlns:svg="http://www.w3.org/2000/svg"
   xmlns="http://www.w3.org/2000/svg"
   xmlns:sodipodi="http://sodipodi.sourceforge.net/DTD/sodipodi-0.dtd"
   xmlns:inkscape="http://www.inkscape.org/namespaces/inkscape"
   width="16"
   height="16"
   id="svg1239"
   version="1.1"
   inkscape:version="0.48.4 r9939"
   sodipodi:docname="user-home.svg">
  <defs
     id="defs1241" />
  <sodipodi:namedview
     id="base"
     pagecolor="#ffffff"
     bordercolor="#666666"
     borderopacity="1.0"
     inkscape:pageopacity="0.0"
     inkscape:pageshadow="2"
     inkscape:zoom="40.437669"
     inkscape:cx="9.1697572"
     inkscape:cy="8.5396094"
     inkscape:document-units="px"
     inkscape:current-layer="layer1"
     showgrid="true"
     fit-margin-top="0"
     fit-margin-left="0"
     fit-margin-right="0"
     fit-margin-bottom="0"
     inkscape:window-width="1855"
     inkscape:window-height="1056"
     inkscape:window-x="65"
     inkscape:window-y="24"
     inkscape:window-maximized="1"
     showguides="false"
     showborder="true"
     inkscape:showpageshadow="false">
    <inkscape:grid
       type="xygrid"
       id="grid3775"
       empspacing="5"
       visible="true"
       enabled="true"
       snapvisiblegridlinesonly="true" />
  </sodipodi:namedview>
  <metadata
     id="metadata1244">
    <rdf:RDF>
      <cc:Work
         rdf:about="">
        <dc:format>image/svg+xml</dc:format>
        <dc:type
           rdf:resource="http://purl.org/dc/dcmitype/StillImage" />
        <dc:title />
      </cc:Work>
    </rdf:RDF>
  </metadata>
  <g
     inkscape:label="Capa 1"
     inkscape:groupmode="layer"
     id="layer1"
     transform="translate(-644.57142,-451.79076)">
    <g
       inkscape:label="Capa 2"
       id="layer2-1"
       transform="matrix(1.6000003,0,0,1.6000003,652.14413,362.19077)" />
    <g
       id="layer2"
       inkscape:label="Capa 2"
       transform="matrix(1.6000003,0,0,1.6000003,523.63159,362.19077)" />
    <g
       inkscape:label="Capa 2"
       id="layer2-8"
       transform="matrix(1.6000003,0,0,1.6000003,253.53682,392.37514)" />
    <g
       inkscape:label="Capa 2"
       id="layer2-8-5"
       transform="matrix(1.6000003,0,0,1.6000003,239.53662,407.71523)" />
    <g
       transform="matrix(1.6000003,0,0,1.6000003,402.91493,407.71523)"
       id="layer2-51"
       inkscape:label="Capa 2" />
    <g
       inkscape:label="Capa 2"
       id="layer2-8-6"
       transform="matrix(1.6000003,0,0,1.6000003,331.15472,407.71523)" />
    <g
       transform="matrix(1.6000003,0,0,1.6000003,494.53303,407.71523)"
       id="layer2-81"
       inkscape:label="Capa 2" />
    <g
       inkscape:label="Capa 2"
       id="layer2-8-4"
       transform="matrix(1.6000003,0,0,1.6000003,238.18065,416.68041)" />
    <g
       transform="matrix(1.6000003,0,0,1.6000003,401.55896,416.68041)"
       id="layer2-9"
       inkscape:label="Capa 2" />
    <g
       inkscape:label="Capa 2"
       id="layer2-8-0"
       transform="matrix(1.6000003,0,0,1.6000003,266.83617,412.54581)" />
    <g
       transform="matrix(1.6000003,0,0,1.6000003,430.21448,412.54581)"
       id="layer2-5"
       inkscape:label="Capa 2" />
    <g
       inkscape:label="Capa 2"
       id="layer2-1-4"
       transform="matrix(1.6000003,0,0,1.6000003,598.57789,376.96834)" />
    <g
       id="layer2-3"
       inkscape:label="Capa 2"
       transform="matrix(1.6000003,0,0,1.6000003,470.06544,376.96834)" />
    <g
       id="g3788">
      <rect
         y="465.79074"
         x="645.57141"
         height="2.0000246"
         width="14"
         id="rect3289"
         style="fill:#0084c8;fill-opacity:1;fill-rule:evenodd;stroke:none" />
      <rect
         transform="matrix(0,-1,1,0,0,0)"
         style="fill:#0084c8;fill-opacity:1;fill-rule:evenodd;stroke:none"
         id="rect3291"
         width="6.0000086"
         height="2.0000005"
         x="-457.79077"
         y="656.57141" />
      <rect
         y="645.57141"
         x="-467.7908"
         height="1.9999994"
         width="5.9999428"
         id="rect3293"
         style="fill:#0084c8;fill-opacity:1;fill-rule:evenodd;stroke:none"
         transform="matrix(0,-1,1,0,0,0)"
         ry="0" />
      <rect
         transform="matrix(0.70709189,0.70712167,0.70709189,-0.70712167,0,0)"
         style="fill:#0084c8;fill-opacity:1;fill-rule:evenodd;stroke:none"
         id="rect3280"
         width="11.313315"
         height="2.1332796"
         x="780.90527"
         y="139.85675" />
      <rect
         transform="matrix(-0.70709189,0.70712167,0.70709189,0.70712167,0,0)"
         y="780.90527"
         x="-141.99004"
         height="2.1332796"
         width="11.313315"
         id="rect3282"
         style="fill:#0084c8;fill-opacity:1;fill-rule:evenodd;stroke:none" />
      <rect
         transform="matrix(0,-1,1,0,0,0)"
         style="fill:#0084c8;fill-opacity:1;fill-rule:evenodd;stroke:none"
         id="rect3273"
         width="5.9999428"
         height="2.0000005"
         x="-467.7908"
         y="657.57141" />
    </g>
  </g>
</svg>
