<?xml version="1.0" encoding="UTF-8" standalone="no"?>
<svg
   xmlns:dc="http://purl.org/dc/elements/1.1/"
   xmlns:cc="http://creativecommons.org/ns#"
   xmlns:rdf="http://www.w3.org/1999/02/22-rdf-syntax-ns#"
   xmlns:svg="http://www.w3.org/2000/svg"
   xmlns="http://www.w3.org/2000/svg"
   xmlns:xlink="http://www.w3.org/1999/xlink"
   xmlns:sodipodi="http://sodipodi.sourceforge.net/DTD/sodipodi-0.dtd"
   xmlns:inkscape="http://www.inkscape.org/namespaces/inkscape"
   width="16"
   height="16"
   viewBox="0 0 16 16"
   id="svg2"
   version="1.1"
   inkscape:version="0.48.4 r9939"
   sodipodi:docname="applets-screenshooter--symbolic.svg">
  <metadata
     id="metadata23">
    <rdf:RDF>
      <cc:Work
         rdf:about="">
        <dc:format>image/svg+xml</dc:format>
        <dc:type
           rdf:resource="http://purl.org/dc/dcmitype/StillImage" />
        <dc:title></dc:title>
      </cc:Work>
    </rdf:RDF>
  </metadata>
  <sodipodi:namedview
     pagecolor="#333333"
     bordercolor="#666666"
     borderopacity="1"
     objecttolerance="10"
     gridtolerance="10"
     guidetolerance="10"
     inkscape:pageopacity="1"
     inkscape:pageshadow="2"
     inkscape:window-width="923"
     inkscape:window-height="977"
     id="namedview21"
     showgrid="true"
     inkscape:zoom="32"
     inkscape:cx="1.2723537"
     inkscape:cy="6.4029466"
     inkscape:window-x="927"
     inkscape:window-y="28"
     inkscape:window-maximized="0"
     inkscape:current-layer="svg2">
    <inkscape:grid
       type="xygrid"
       id="grid3051"
       empspacing="5"
       visible="true"
       enabled="true"
       snapvisiblegridlinesonly="true" />
  </sodipodi:namedview>
  <defs
     id="defs4">
    <radialGradient
       cx="148.004"
       cy="160"
       gradientTransform="matrix(0.1831,0,0,0.1831,-3.10029,-37.29688)"
       id="radial0"
       r="128"
       gradientUnits="userSpaceOnUse">
      <stop
         offset="0"
         style="stop-color:#7f7f7f"
         id="stop7" />
      <stop
         offset="1"
         style="stop-color:#000000"
         id="stop9" />
    </radialGradient>
    <radialGradient
       inkscape:collect="always"
       xlink:href="#radial0"
       id="radialGradient3029"
       gradientUnits="userSpaceOnUse"
       gradientTransform="matrix(0.1831,0,0,0.1831,-3.10029,-37.29688)"
       cx="148.004"
       cy="160"
       r="128" />
    <radialGradient
       inkscape:collect="always"
       xlink:href="#radial0"
       id="radialGradient3035"
       gradientUnits="userSpaceOnUse"
       gradientTransform="matrix(0.06249813,0,0,0.06249813,-0.68773231,-2.5625012)"
       cx="148.004"
       cy="160"
       r="128" />
    <radialGradient
       inkscape:collect="always"
       xlink:href="#radial0"
       id="radialGradient3042"
       gradientUnits="userSpaceOnUse"
       gradientTransform="matrix(0.06249813,0,0,0.06249813,-0.68773231,-2.5625012)"
       cx="148.004"
       cy="160"
       r="128" />
    <radialGradient
       inkscape:collect="always"
       xlink:href="#radial0"
       id="radialGradient3047"
       gradientUnits="userSpaceOnUse"
       gradientTransform="matrix(0.06249813,0,0,0.06249813,-1.2502323,-2.0000014)"
       cx="148.004"
       cy="160"
       r="128" />
  </defs>
  <g
     inkscape:groupmode="layer"
     id="layer1"
     inkscape:label="fg" />
  <path
     style="opacity:1;fill:#dedede;fill-opacity:1;stroke:none"
     d="M 6.46875 1 C 5.6477094 1 5 1.6477094 5 2.46875 L 5 4 L 2 4 C 0.892 4 0 4.892 0 6 L 0 13 C 0 14.108 0.892 15 2 15 L 14 15 C 15.108 15 16 14.108 16 13 L 16 6 C 16 4.892 15.108 4 14 4 L 11 4 L 11 2.46875 C 11 1.6477094 10.352291 1 9.53125 1 L 6.46875 1 z M 2 5 L 3 5 L 3 6 L 2 6 L 2 5 z M 8 6 C 9.9329966 6 11.5 7.5670034 11.5 9.5 C 11.5 11.432997 9.9329966 13 8 13 C 6.0670034 13 4.5 11.432997 4.5 9.5 C 4.5 7.5670034 6.0670034 6 8 6 z "
     id="rect3012" />
</svg>
